# Generated mesh
# vertices: 528, faces: 0

v -0.001004 0.360500 -25.029999
v -0.160003 -0.085500 -25.029999
v -0.453003 -0.506500 -25.029999
v -0.311003 -0.506500 -25.029999
v -0.453003 -0.506500 -25.029999
v -0.160003 -0.085500 -25.029999
v 0.452997 -0.506500 -25.029999
v 0.302996 -0.506500 -25.029999
v 0.194997 -0.203500 -25.029999
v -0.077004 0.506500 -25.029999
v 0.075996 0.506500 -25.029999
v 0.452997 -0.506500 -25.029999
v -0.001004 0.360500 -25.029999
v -0.453003 -0.506500 -25.029999
v -0.077004 0.506500 -25.029999
v -0.202004 -0.203500 -25.029999
v -0.311003 -0.506500 -25.029999
v -0.160003 -0.085500 -25.029999
v -0.001004 0.360500 -25.029999
v -0.077004 0.506500 -25.029999
v 0.452997 -0.506500 -25.029999
v -0.202004 -0.203500 -25.029999
v -0.160003 -0.085500 -25.029999
v 0.156997 -0.085500 -25.029999
v 0.156997 -0.085500 -25.029999
v -0.001004 0.360500 -25.029999
v 0.452997 -0.506500 -25.029999
v 0.194997 -0.203500 -25.029999
v -0.202004 -0.203500 -25.029999
v 0.156997 -0.085500 -25.029999
v 0.156997 -0.085500 -25.029999
v 0.452997 -0.506500 -25.029999
v 0.194997 -0.203500 -25.029999
v -0.453003 -0.506500 25.029999
v -0.160003 -0.085500 25.029999
v -0.001004 0.360500 25.029999
v -0.160003 -0.085500 25.029999
v -0.453003 -0.506500 25.029999
v -0.311003 -0.506500 25.029999
v 0.194997 -0.203500 25.029999
v 0.302996 -0.506500 25.029999
v 0.452997 -0.506500 25.029999
v 0.452997 -0.506500 25.029999
v 0.075996 0.506500 25.029999
v -0.077004 0.506500 25.029999
v -0.077004 0.506500 25.029999
v -0.453003 -0.506500 25.029999
v -0.001004 0.360500 25.029999
v -0.160003 -0.085500 25.029999
v -0.311003 -0.506500 25.029999
v -0.202004 -0.203500 25.029999
v 0.452997 -0.506500 25.029999
v -0.077004 0.506500 25.029999
v -0.001004 0.360500 25.029999
v 0.156997 -0.085500 25.029999
v -0.160003 -0.085500 25.029999
v -0.202004 -0.203500 25.029999
v 0.452997 -0.506500 25.029999
v -0.001004 0.360500 25.029999
v 0.156997 -0.085500 25.029999
v 0.156997 -0.085500 25.029999
v -0.202004 -0.203500 25.029999
v 0.194997 -0.203500 25.029999
v 0.194997 -0.203500 25.029999
v 0.452997 -0.506500 25.029999
v 0.156997 -0.085500 25.029999
v 0.452997 -0.506500 -25.029999
v 0.075996 0.506500 -25.029999
v 0.464610 -0.514570 -25.025980
v 0.075996 0.506500 -25.029999
v 0.082945 0.516500 -25.025980
v 0.464610 -0.514570 -25.025980
v 0.464610 -0.514570 -25.025980
v 0.082945 0.516500 -25.025980
v 0.473112 -0.520477 -25.014999
v 0.082945 0.516500 -25.025980
v 0.088032 0.523821 -25.014999
v 0.473112 -0.520477 -25.014999
v 0.473112 -0.520477 -25.014999
v 0.088032 0.523821 -25.014999
v 0.476224 -0.522640 -25.000000
v 0.088032 0.523821 -25.014999
v 0.089893 0.526500 -25.000000
v 0.476224 -0.522640 -25.000000
v 0.476224 -0.522640 -25.000000
v 0.089893 0.526500 -25.000000
v 0.476224 -0.522640 25.000000
v 0.089893 0.526500 -25.000000
v 0.089893 0.526500 25.000000
v 0.476224 -0.522640 25.000000
v 0.476224 -0.522640 25.000000
v 0.089893 0.526500 25.000000
v 0.473112 -0.520477 25.014999
v 0.089893 0.526500 25.000000
v 0.088032 0.523821 25.014999
v 0.473112 -0.520477 25.014999
v 0.473112 -0.520477 25.014999
v 0.088032 0.523821 25.014999
v 0.464610 -0.514570 25.025982
v 0.088032 0.523821 25.014999
v 0.082945 0.516500 25.025982
v 0.464610 -0.514570 25.025982
v 0.464610 -0.514570 25.025982
v 0.082945 0.516500 25.025982
v 0.452997 -0.506500 25.029999
v 0.082945 0.516500 25.025982
v 0.075996 0.506500 25.029999
v 0.452997 -0.506500 25.029999
v 0.075996 0.506500 -25.029999
v -0.077004 0.506500 -25.029999
v 0.082945 0.516500 -25.025980
v -0.077004 0.506500 -25.029999
v -0.083958 0.516500 -25.025980
v 0.082945 0.516500 -25.025980
v 0.082945 0.516500 -25.025980
v -0.083958 0.516500 -25.025980
v 0.088032 0.523821 -25.014999
v -0.083958 0.516500 -25.025980
v -0.089050 0.523821 -25.014999
v 0.088032 0.523821 -25.014999
v 0.088032 0.523821 -25.014999
v -0.089050 0.523821 -25.014999
v 0.089893 0.526500 -25.000000
v -0.089050 0.523821 -25.014999
v -0.090913 0.526500 -25.000000
v 0.089893 0.526500 -25.000000
v 0.089893 0.526500 -25.000000
v -0.090913 0.526500 -25.000000
v 0.089893 0.526500 25.000000
v -0.090913 0.526500 -25.000000
v -0.090913 0.526500 25.000000
v 0.089893 0.526500 25.000000
v 0.089893 0.526500 25.000000
v -0.090913 0.526500 25.000000
v 0.088032 0.523821 25.014999
v -0.090913 0.526500 25.000000
v -0.089050 0.523821 25.014999
v 0.088032 0.523821 25.014999
v 0.088032 0.523821 25.014999
v -0.089050 0.523821 25.014999
v 0.082945 0.516500 25.025982
v -0.089050 0.523821 25.014999
v -0.083958 0.516500 25.025982
v 0.082945 0.516500 25.025982
v 0.082945 0.516500 25.025982
v -0.083958 0.516500 25.025982
v 0.075996 0.506500 25.029999
v -0.083958 0.516500 25.025982
v -0.077004 0.506500 25.029999
v 0.075996 0.506500 25.029999
v -0.077004 0.506500 -25.029999
v -0.453003 -0.506500 -25.029999
v -0.083958 0.516500 -25.025980
v -0.453003 -0.506500 -25.029999
v -0.464614 -0.514575 -25.025980
v -0.083958 0.516500 -25.025980
v -0.083958 0.516500 -25.025980
v -0.464614 -0.514575 -25.025980
v -0.089050 0.523821 -25.014999
v -0.464614 -0.514575 -25.025980
v -0.473113 -0.520486 -25.014999
v -0.089050 0.523821 -25.014999
v -0.089050 0.523821 -25.014999
v -0.473113 -0.520486 -25.014999
v -0.090913 0.526500 -25.000000
v -0.473113 -0.520486 -25.014999
v -0.476224 -0.522650 -25.000000
v -0.090913 0.526500 -25.000000
v -0.090913 0.526500 -25.000000
v -0.476224 -0.522650 -25.000000
v -0.090913 0.526500 25.000000
v -0.476224 -0.522650 -25.000000
v -0.476224 -0.522650 25.000000
v -0.090913 0.526500 25.000000
v -0.090913 0.526500 25.000000
v -0.476224 -0.522650 25.000000
v -0.089050 0.523821 25.014999
v -0.476224 -0.522650 25.000000
v -0.473113 -0.520486 25.014999
v -0.089050 0.523821 25.014999
v -0.089050 0.523821 25.014999
v -0.473113 -0.520486 25.014999
v -0.083958 0.516500 25.025982
v -0.473113 -0.520486 25.014999
v -0.464614 -0.514575 25.025982
v -0.083958 0.516500 25.025982
v -0.083958 0.516500 25.025982
v -0.464614 -0.514575 25.025982
v -0.077004 0.506500 25.029999
v -0.464614 -0.514575 25.025982
v -0.453003 -0.506500 25.029999
v -0.077004 0.506500 25.029999
v -0.453003 -0.506500 -25.029999
v -0.311003 -0.506500 -25.029999
v -0.464614 -0.514575 -25.025980
v -0.311003 -0.506500 -25.029999
v -0.303973 -0.516500 -25.025980
v -0.464614 -0.514575 -25.025980
v -0.464614 -0.514575 -25.025980
v -0.303973 -0.516500 -25.025980
v -0.473113 -0.520486 -25.014999
v -0.303973 -0.516500 -25.025980
v -0.298827 -0.523821 -25.014999
v -0.473113 -0.520486 -25.014999
v -0.473113 -0.520486 -25.014999
v -0.298827 -0.523821 -25.014999
v -0.476224 -0.522650 -25.000000
v -0.298827 -0.523821 -25.014999
v -0.296943 -0.526500 -25.000000
v -0.476224 -0.522650 -25.000000
v -0.476224 -0.522650 -25.000000
v -0.296943 -0.526500 -25.000000
v -0.476224 -0.522650 25.000000
v -0.296943 -0.526500 -25.000000
v -0.296943 -0.526500 25.000000
v -0.476224 -0.522650 25.000000
v -0.476224 -0.522650 25.000000
v -0.296943 -0.526500 25.000000
v -0.473113 -0.520486 25.014999
v -0.296943 -0.526500 25.000000
v -0.298827 -0.523821 25.014999
v -0.473113 -0.520486 25.014999
v -0.473113 -0.520486 25.014999
v -0.298827 -0.523821 25.014999
v -0.464614 -0.514575 25.025982
v -0.298827 -0.523821 25.014999
v -0.303973 -0.516500 25.025982
v -0.464614 -0.514575 25.025982
v -0.464614 -0.514575 25.025982
v -0.303973 -0.516500 25.025982
v -0.453003 -0.506500 25.029999
v -0.303973 -0.516500 25.025982
v -0.311003 -0.506500 25.029999
v -0.453003 -0.506500 25.029999
v -0.311003 -0.506500 -25.029999
v -0.202004 -0.203500 -25.029999
v -0.303973 -0.516500 -25.025980
v -0.202004 -0.203500 -25.029999
v -0.194973 -0.213500 -25.025980
v -0.303973 -0.516500 -25.025980
v -0.303973 -0.516500 -25.025980
v -0.194973 -0.213500 -25.025980
v -0.298827 -0.523821 -25.014999
v -0.194973 -0.213500 -25.025980
v -0.189827 -0.220821 -25.014999
v -0.298827 -0.523821 -25.014999
v -0.298827 -0.523821 -25.014999
v -0.189827 -0.220821 -25.014999
v -0.296943 -0.526500 -25.000000
v -0.189827 -0.220821 -25.014999
v -0.187943 -0.223500 -25.000000
v -0.296943 -0.526500 -25.000000
v -0.296943 -0.526500 -25.000000
v -0.187943 -0.223500 -25.000000
v -0.296943 -0.526500 25.000000
v -0.187943 -0.223500 -25.000000
v -0.187943 -0.223500 25.000000
v -0.296943 -0.526500 25.000000
v -0.296943 -0.526500 25.000000
v -0.187943 -0.223500 25.000000
v -0.298827 -0.523821 25.014999
v -0.187943 -0.223500 25.000000
v -0.189827 -0.220821 25.014999
v -0.298827 -0.523821 25.014999
v -0.298827 -0.523821 25.014999
v -0.189827 -0.220821 25.014999
v -0.303973 -0.516500 25.025982
v -0.189827 -0.220821 25.014999
v -0.194973 -0.213500 25.025982
v -0.303973 -0.516500 25.025982
v -0.303973 -0.516500 25.025982
v -0.194973 -0.213500 25.025982
v -0.311003 -0.506500 25.029999
v -0.194973 -0.213500 25.025982
v -0.202004 -0.203500 25.029999
v -0.311003 -0.506500 25.029999
v -0.202004 -0.203500 -25.029999
v 0.194997 -0.203500 -25.029999
v -0.194973 -0.213500 -25.025980
v 0.194997 -0.203500 -25.029999
v 0.187945 -0.213500 -25.025980
v -0.194973 -0.213500 -25.025980
v -0.194973 -0.213500 -25.025980
v 0.187945 -0.213500 -25.025980
v -0.189827 -0.220821 -25.014999
v 0.187945 -0.213500 -25.025980
v 0.182782 -0.220821 -25.014999
v -0.189827 -0.220821 -25.014999
v -0.189827 -0.220821 -25.014999
v 0.182782 -0.220821 -25.014999
v -0.187943 -0.223500 -25.000000
v 0.182782 -0.220821 -25.014999
v 0.180893 -0.223500 -25.000000
v -0.187943 -0.223500 -25.000000
v -0.187943 -0.223500 -25.000000
v 0.180893 -0.223500 -25.000000
v -0.187943 -0.223500 25.000000
v 0.180893 -0.223500 -25.000000
v 0.180893 -0.223500 25.000000
v -0.187943 -0.223500 25.000000
v -0.187943 -0.223500 25.000000
v 0.180893 -0.223500 25.000000
v -0.189827 -0.220821 25.014999
v 0.180893 -0.223500 25.000000
v 0.182782 -0.220821 25.014999
v -0.189827 -0.220821 25.014999
v -0.189827 -0.220821 25.014999
v 0.182782 -0.220821 25.014999
v -0.194973 -0.213500 25.025982
v 0.182782 -0.220821 25.014999
v 0.187945 -0.213500 25.025982
v -0.194973 -0.213500 25.025982
v -0.194973 -0.213500 25.025982
v 0.187945 -0.213500 25.025982
v -0.202004 -0.203500 25.029999
v 0.187945 -0.213500 25.025982
v 0.194997 -0.203500 25.029999
v -0.202004 -0.203500 25.029999
v 0.194997 -0.203500 -25.029999
v 0.302996 -0.506500 -25.029999
v 0.187945 -0.213500 -25.025980
v 0.302996 -0.506500 -25.029999
v 0.295945 -0.516500 -25.025980
v 0.187945 -0.213500 -25.025980
v 0.187945 -0.213500 -25.025980
v 0.295945 -0.516500 -25.025980
v 0.182782 -0.220821 -25.014999
v 0.295945 -0.516500 -25.025980
v 0.290782 -0.523821 -25.014999
v 0.182782 -0.220821 -25.014999
v 0.182782 -0.220821 -25.014999
v 0.290782 -0.523821 -25.014999
v 0.180893 -0.223500 -25.000000
v 0.290782 -0.523821 -25.014999
v 0.288893 -0.526500 -25.000000
v 0.180893 -0.223500 -25.000000
v 0.180893 -0.223500 -25.000000
v 0.288893 -0.526500 -25.000000
v 0.180893 -0.223500 25.000000
v 0.288893 -0.526500 -25.000000
v 0.288893 -0.526500 25.000000
v 0.180893 -0.223500 25.000000
v 0.180893 -0.223500 25.000000
v 0.288893 -0.526500 25.000000
v 0.182782 -0.220821 25.014999
v 0.288893 -0.526500 25.000000
v 0.290782 -0.523821 25.014999
v 0.182782 -0.220821 25.014999
v 0.182782 -0.220821 25.014999
v 0.290782 -0.523821 25.014999
v 0.187945 -0.213500 25.025982
v 0.290782 -0.523821 25.014999
v 0.295945 -0.516500 25.025982
v 0.187945 -0.213500 25.025982
v 0.187945 -0.213500 25.025982
v 0.295945 -0.516500 25.025982
v 0.194997 -0.203500 25.029999
v 0.295945 -0.516500 25.025982
v 0.302996 -0.506500 25.029999
v 0.194997 -0.203500 25.029999
v 0.302996 -0.506500 -25.029999
v 0.452997 -0.506500 -25.029999
v 0.295945 -0.516500 -25.025980
v 0.452997 -0.506500 -25.029999
v 0.464610 -0.514570 -25.025980
v 0.295945 -0.516500 -25.025980
v 0.295945 -0.516500 -25.025980
v 0.464610 -0.514570 -25.025980
v 0.290782 -0.523821 -25.014999
v 0.464610 -0.514570 -25.025980
v 0.473112 -0.520477 -25.014999
v 0.290782 -0.523821 -25.014999
v 0.290782 -0.523821 -25.014999
v 0.473112 -0.520477 -25.014999
v 0.288893 -0.526500 -25.000000
v 0.473112 -0.520477 -25.014999
v 0.476224 -0.522640 -25.000000
v 0.288893 -0.526500 -25.000000
v 0.288893 -0.526500 -25.000000
v 0.476224 -0.522640 -25.000000
v 0.288893 -0.526500 25.000000
v 0.476224 -0.522640 -25.000000
v 0.476224 -0.522640 25.000000
v 0.288893 -0.526500 25.000000
v 0.288893 -0.526500 25.000000
v 0.476224 -0.522640 25.000000
v 0.290782 -0.523821 25.014999
v 0.476224 -0.522640 25.000000
v 0.473112 -0.520477 25.014999
v 0.290782 -0.523821 25.014999
v 0.290782 -0.523821 25.014999
v 0.473112 -0.520477 25.014999
v 0.295945 -0.516500 25.025982
v 0.473112 -0.520477 25.014999
v 0.464610 -0.514570 25.025982
v 0.295945 -0.516500 25.025982
v 0.295945 -0.516500 25.025982
v 0.464610 -0.514570 25.025982
v 0.302996 -0.506500 25.029999
v 0.464610 -0.514570 25.025982
v 0.452997 -0.506500 25.029999
v 0.302996 -0.506500 25.029999
v 0.156997 -0.085500 -25.029999
v -0.160003 -0.085500 -25.029999
v 0.145447 -0.077339 -25.025980
v -0.160003 -0.085500 -25.029999
v -0.148446 -0.077350 -25.025980
v 0.145447 -0.077339 -25.025980
v 0.145447 -0.077339 -25.025980
v -0.148446 -0.077350 -25.025980
v 0.136992 -0.071364 -25.014999
v -0.148446 -0.077350 -25.025980
v -0.139985 -0.071384 -25.014999
v 0.136992 -0.071364 -25.014999
v 0.136992 -0.071364 -25.014999
v -0.139985 -0.071384 -25.014999
v 0.133897 -0.069177 -25.000000
v -0.139985 -0.071384 -25.014999
v -0.136888 -0.069200 -25.000000
v 0.133897 -0.069177 -25.000000
v 0.133897 -0.069177 -25.000000
v -0.136888 -0.069200 -25.000000
v 0.133897 -0.069177 25.000000
v -0.136888 -0.069200 -25.000000
v -0.136888 -0.069200 25.000000
v 0.133897 -0.069177 25.000000
v 0.133897 -0.069177 25.000000
v -0.136888 -0.069200 25.000000
v 0.136992 -0.071364 25.014999
v -0.136888 -0.069200 25.000000
v -0.139985 -0.071384 25.014999
v 0.136992 -0.071364 25.014999
v 0.136992 -0.071364 25.014999
v -0.139985 -0.071384 25.014999
v 0.145447 -0.077339 25.025982
v -0.139985 -0.071384 25.014999
v -0.148446 -0.077350 25.025982
v 0.145447 -0.077339 25.025982
v 0.145447 -0.077339 25.025982
v -0.148446 -0.077350 25.025982
v 0.156997 -0.085500 25.029999
v -0.148446 -0.077350 25.025982
v -0.160003 -0.085500 25.029999
v 0.156997 -0.085500 25.029999
v -0.160003 -0.085500 -25.029999
v -0.001004 0.360500 -25.029999
v -0.148446 -0.077350 -25.025980
v -0.001004 0.360500 -25.029999
v -0.001018 0.346358 -25.025980
v -0.148446 -0.077350 -25.025980
v -0.148446 -0.077350 -25.025980
v -0.001018 0.346358 -25.025980
v -0.139985 -0.071384 -25.014999
v -0.001018 0.346358 -25.025980
v -0.001028 0.336005 -25.014999
v -0.139985 -0.071384 -25.014999
v -0.139985 -0.071384 -25.014999
v -0.001028 0.336005 -25.014999
v -0.136888 -0.069200 -25.000000
v -0.001028 0.336005 -25.014999
v -0.001032 0.332216 -25.000000
v -0.136888 -0.069200 -25.000000
v -0.136888 -0.069200 -25.000000
v -0.001032 0.332216 -25.000000
v -0.136888 -0.069200 25.000000
v -0.001032 0.332216 -25.000000
v -0.001032 0.332216 25.000000
v -0.136888 -0.069200 25.000000
v -0.136888 -0.069200 25.000000
v -0.001032 0.332216 25.000000
v -0.139985 -0.071384 25.014999
v -0.001032 0.332216 25.000000
v -0.001028 0.336005 25.014999
v -0.139985 -0.071384 25.014999
v -0.139985 -0.071384 25.014999
v -0.001028 0.336005 25.014999
v -0.148446 -0.077350 25.025982
v -0.001028 0.336005 25.014999
v -0.001018 0.346358 25.025982
v -0.148446 -0.077350 25.025982
v -0.148446 -0.077350 25.025982
v -0.001018 0.346358 25.025982
v -0.160003 -0.085500 25.029999
v -0.001018 0.346358 25.025982
v -0.001004 0.360500 25.029999
v -0.160003 -0.085500 25.029999
v -0.001004 0.360500 -25.029999
v 0.156997 -0.085500 -25.029999
v -0.001018 0.346358 -25.025980
v 0.156997 -0.085500 -25.029999
v 0.145447 -0.077339 -25.025980
v -0.001018 0.346358 -25.025980
v -0.001018 0.346358 -25.025980
v 0.145447 -0.077339 -25.025980
v -0.001028 0.336005 -25.014999
v 0.145447 -0.077339 -25.025980
v 0.136992 -0.071364 -25.014999
v -0.001028 0.336005 -25.014999
v -0.001028 0.336005 -25.014999
v 0.136992 -0.071364 -25.014999
v -0.001032 0.332216 -25.000000
v 0.136992 -0.071364 -25.014999
v 0.133897 -0.069177 -25.000000
v -0.001032 0.332216 -25.000000
v -0.001032 0.332216 -25.000000
v 0.133897 -0.069177 -25.000000
v -0.001032 0.332216 25.000000
v 0.133897 -0.069177 -25.000000
v 0.133897 -0.069177 25.000000
v -0.001032 0.332216 25.000000
v -0.001032 0.332216 25.000000
v 0.133897 -0.069177 25.000000
v -0.001028 0.336005 25.014999
v 0.133897 -0.069177 25.000000
v 0.136992 -0.071364 25.014999
v -0.001028 0.336005 25.014999
v -0.001028 0.336005 25.014999
v 0.136992 -0.071364 25.014999
v -0.001018 0.346358 25.025982
v 0.136992 -0.071364 25.014999
v 0.145447 -0.077339 25.025982
v -0.001018 0.346358 25.025982
v -0.001018 0.346358 25.025982
v 0.145447 -0.077339 25.025982
v -0.001004 0.360500 25.029999
v 0.145447 -0.077339 25.025982
v 0.156997 -0.085500 25.029999
v -0.001004 0.360500 25.029999