# Generated mesh
# vertices: 265, faces: 267

v -0.004252 0.017937 0.000000
v 0.006858 0.016347 0.000000
v 0.017686 0.014328 0.000000
v 0.028233 0.011879 0.000000
v 0.038498 0.009000 0.000000
v 0.048482 0.005691 0.000000
v 0.058186 0.001953 0.000000
v 0.067608 -0.002215 0.000000
v 0.076748 -0.006813 0.000000
v 0.085607 -0.011840 0.000000
v 0.094186 -0.017297 0.000000
v 0.102482 -0.023184 0.000000
v 0.110498 -0.029500 0.000000
v 0.118232 -0.036246 0.000000
v 0.125686 -0.043422 0.000000
v 0.132857 -0.051028 0.000000
v 0.139748 -0.059063 0.000000
v 0.146287 -0.067414 0.000000
v 0.152404 -0.075969 0.000000
v 0.158100 -0.084727 0.000000
v 0.163373 -0.093688 0.000000
v 0.168225 -0.102852 0.000000
v 0.172654 -0.112219 0.000000
v 0.176662 -0.121789 0.000000
v 0.180248 -0.131563 0.000000
v 0.183412 -0.141539 0.000000
v 0.186154 -0.151719 0.000000
v 0.188475 -0.162102 0.000000
v 0.190373 -0.172688 0.000000
v 0.191850 -0.183477 0.000000
v 0.192904 -0.194469 0.000000
v 0.193537 -0.205664 0.000000
v 0.193748 -0.217063 0.000000
v 0.193338 -0.234360 0.000000
v 0.192107 -0.251250 0.000000
v 0.190057 -0.267735 0.000000
v 0.187186 -0.283813 0.000000
v 0.183494 -0.299485 0.000000
v 0.178982 -0.314750 0.000000
v 0.173650 -0.329610 0.000000
v 0.167498 -0.344063 0.000000
v 0.160525 -0.358110 0.000000
v 0.152732 -0.371750 0.000000
v 0.144119 -0.384985 0.000000
v 0.134686 -0.397813 0.000000
v 0.124432 -0.410235 0.000000
v 0.113357 -0.422250 0.000000
v 0.101463 -0.433860 0.000000
v 0.088748 -0.445063 0.000000
v 0.076322 -0.455114 0.000000
v 0.063545 -0.464516 0.000000
v 0.050416 -0.473270 0.000000
v 0.036936 -0.481375 0.000000
v 0.023104 -0.488832 0.000000
v 0.008920 -0.495641 0.000000
v -0.005615 -0.501801 0.000000
v -0.020502 -0.507313 0.000000
v -0.035740 -0.512176 0.000000
v -0.051330 -0.516391 0.000000
v -0.067271 -0.519957 0.000000
v -0.083564 -0.522875 0.000000
v -0.100209 -0.525145 0.000000
v -0.117205 -0.526766 0.000000
v -0.134553 -0.527739 0.000000
v -0.152252 -0.528063 0.000000
v -0.584252 -0.528063 0.000000
v -0.584252 0.484937 0.000000
v -0.173252 0.484937 0.000000
v -0.157166 0.484718 0.000000
v -0.141408 0.484062 0.000000
v -0.125978 0.482968 0.000000
v -0.110877 0.481437 0.000000
v -0.096103 0.479468 0.000000
v -0.081658 0.477062 0.000000
v -0.067541 0.474218 0.000000
v -0.053752 0.470937 0.000000
v -0.040291 0.467218 0.000000
v -0.027158 0.463062 0.000000
v -0.014353 0.458468 0.000000
v -0.001877 0.453437 0.000000
v 0.010272 0.447968 0.000000
v 0.022092 0.442062 0.000000
v 0.033584 0.435718 0.000000
v 0.044748 0.428937 0.000000
v 0.057221 0.420582 0.000000
v 0.068889 0.411765 0.000000
v 0.079752 0.402488 0.000000
v 0.089811 0.392750 0.000000
v 0.099065 0.382550 0.000000
v 0.107514 0.371890 0.000000
v 0.115158 0.360769 0.000000
v 0.121998 0.349187 0.000000
v 0.128033 0.337144 0.000000
v 0.133264 0.324640 0.000000
v 0.137690 0.311675 0.000000
v 0.141311 0.298250 0.000000
v 0.144127 0.284363 0.000000
v 0.146139 0.270015 0.000000
v 0.147346 0.255207 0.000000
v 0.147748 0.239937 0.000000
v 0.147588 0.230621 0.000000
v 0.147107 0.221422 0.000000
v 0.146307 0.212339 0.000000
v 0.145186 0.203375 0.000000
v 0.143744 0.194527 0.000000
v 0.141982 0.185797 0.000000
v 0.139900 0.177183 0.000000
v 0.137498 0.168687 0.000000
v 0.134775 0.160308 0.000000
v 0.131733 0.152047 0.000000
v 0.128369 0.143902 0.000000
v 0.124686 0.135875 0.000000
v 0.120682 0.127964 0.000000
v 0.116357 0.120172 0.000000
v 0.111713 0.112496 0.000000
v 0.106748 0.104937 0.000000
v 0.101510 0.097449 0.000000
v 0.096045 0.090234 0.000000
v 0.090354 0.083293 0.000000
v 0.084436 0.076625 0.000000
v 0.078291 0.070230 0.000000
v 0.071920 0.064109 0.000000
v 0.065322 0.058261 0.000000
v 0.058498 0.052687 0.000000
v 0.051447 0.047386 0.000000
v 0.044170 0.042359 0.000000
v 0.036666 0.037605 0.000000
v 0.028936 0.033125 0.000000
v 0.020979 0.028918 0.000000
v 0.012795 0.024984 0.000000
v 0.004385 0.021324 0.000000
v -0.191252 0.370937 0.000000
v -0.445252 0.370937 0.000000
v -0.445252 0.059937 0.000000
v -0.205252 0.059937 0.000000
v -0.194971 0.060078 0.000000
v -0.184877 0.060500 0.000000
v -0.174971 0.061203 0.000000
v -0.165252 0.062187 0.000000
v -0.155721 0.063453 0.000000
v -0.146377 0.065000 0.000000
v -0.137221 0.066828 0.000000
v -0.128252 0.068937 0.000000
v -0.119471 0.071328 0.000000
v -0.110877 0.074000 0.000000
v -0.102471 0.076953 0.000000
v -0.094252 0.080187 0.000000
v -0.086221 0.083703 0.000000
v -0.078377 0.087500 0.000000
v -0.070721 0.091578 0.000000
v -0.063252 0.095937 0.000000
v -0.054654 0.101445 0.000000
v -0.046611 0.107218 0.000000
v -0.039123 0.113257 0.000000
v -0.032189 0.119562 0.000000
v -0.025810 0.126132 0.000000
v -0.019986 0.132968 0.000000
v -0.014717 0.140070 0.000000
v -0.010002 0.147437 0.000000
v -0.005842 0.155070 0.000000
v -0.002236 0.162968 0.000000
v 0.000814 0.171132 0.000000
v 0.003311 0.179562 0.000000
v 0.005252 0.188257 0.000000
v 0.006639 0.197218 0.000000
v 0.007471 0.206445 0.000000
v 0.007748 0.215937 0.000000
v 0.007510 0.225175 0.000000
v 0.006795 0.234140 0.000000
v 0.005604 0.242832 0.000000
v 0.003936 0.251250 0.000000
v 0.001791 0.259394 0.000000
v -0.000830 0.267265 0.000000
v -0.003928 0.274863 0.000000
v -0.007502 0.282187 0.000000
v -0.011553 0.289238 0.000000
v -0.016080 0.296015 0.000000
v -0.021084 0.302519 0.000000
v -0.026564 0.308750 0.000000
v -0.032521 0.314707 0.000000
v -0.038955 0.320390 0.000000
v -0.045865 0.325800 0.000000
v -0.053252 0.330937 0.000000
v -0.060822 0.335781 0.000000
v -0.068533 0.340312 0.000000
v -0.076385 0.344531 0.000000
v -0.084377 0.348437 0.000000
v -0.092510 0.352031 0.000000
v -0.100783 0.355312 0.000000
v -0.109197 0.358281 0.000000
v -0.117752 0.360937 0.000000
v -0.126447 0.363281 0.000000
v -0.135283 0.365312 0.000000
v -0.144260 0.367031 0.000000
v -0.153377 0.368437 0.000000
v -0.162635 0.369531 0.000000
v -0.172033 0.370312 0.000000
v -0.181572 0.370781 0.000000
v -0.165252 -0.404063 0.000000
v -0.154717 -0.403887 0.000000
v -0.144361 -0.403360 0.000000
v -0.134185 -0.402481 0.000000
v -0.124189 -0.401250 0.000000
v -0.114373 -0.399668 0.000000
v -0.104736 -0.397735 0.000000
v -0.095279 -0.395450 0.000000
v -0.086002 -0.392813 0.000000
v -0.076904 -0.389825 0.000000
v -0.067986 -0.386485 0.000000
v -0.059248 -0.382793 0.000000
v -0.050689 -0.378750 0.000000
v -0.042310 -0.374356 0.000000
v -0.034111 -0.369610 0.000000
v -0.026092 -0.364512 0.000000
v -0.018252 -0.359063 0.000000
v -0.009896 -0.352680 0.000000
v -0.002080 -0.346032 0.000000
v 0.005197 -0.339118 0.000000
v 0.011936 -0.331938 0.000000
v 0.018135 -0.324493 0.000000
v 0.023795 -0.316782 0.000000
v 0.028916 -0.308805 0.000000
v 0.033498 -0.300563 0.000000
v 0.037541 -0.292055 0.000000
v 0.041045 -0.283282 0.000000
v 0.044010 -0.274243 0.000000
v 0.046436 -0.264938 0.000000
v 0.048322 -0.255368 0.000000
v 0.049670 -0.245532 0.000000
v 0.050479 -0.235430 0.000000
v 0.050748 -0.225063 0.000000
v 0.050451 -0.214465 0.000000
v 0.049561 -0.204172 0.000000
v 0.048076 -0.194184 0.000000
v 0.045998 -0.184500 0.000000
v 0.043326 -0.175121 0.000000
v 0.040061 -0.166047 0.000000
v 0.036201 -0.157278 0.000000
v 0.031748 -0.148813 0.000000
v 0.026701 -0.140653 0.000000
v 0.021061 -0.132797 0.000000
v 0.014826 -0.125246 0.000000
v 0.007998 -0.118000 0.000000
v 0.000576 -0.111059 0.000000
v -0.007439 -0.104422 0.000000
v -0.016049 -0.098090 0.000000
v -0.025252 -0.092063 0.000000
v -0.033482 -0.087098 0.000000
v -0.041924 -0.082453 0.000000
v -0.050576 -0.078129 0.000000
v -0.059439 -0.074125 0.000000
v -0.068514 -0.070442 0.000000
v -0.077799 -0.067078 0.000000
v -0.087295 -0.064036 0.000000
v -0.097002 -0.061313 0.000000
v -0.106920 -0.058911 0.000000
v -0.117049 -0.056828 0.000000
v -0.127389 -0.055067 0.000000
v -0.137939 -0.053625 0.000000
v -0.148701 -0.052504 0.000000
v -0.159674 -0.051703 0.000000
v -0.170857 -0.051223 0.000000
v -0.182252 -0.051063 0.000000
v -0.445252 -0.051063 0.000000
v -0.445252 -0.404063 0.000000
f 66 134 133
f 66 265 264
f 199 265 66
f 66 65 64
f 64 63 62
f 62 61 60
f 60 59 58
f 58 57 56
f 56 55 54
f 54 53 52
f 52 51 50
f 50 49 48
f 48 47 46
f 46 45 44
f 44 43 42
f 42 41 40
f 40 39 38
f 38 37 36
f 36 35 34
f 34 33 32
f 32 31 30
f 30 29 28
f 28 27 26
f 26 25 24
f 24 23 22
f 22 21 20
f 20 19 18
f 18 17 16
f 16 15 14
f 14 13 12
f 12 11 10
f 10 9 8
f 8 7 6
f 6 5 4
f 4 3 2
f 1 131 130
f 130 129 128
f 128 127 126
f 126 125 124
f 124 123 122
f 122 121 120
f 120 119 118
f 118 117 116
f 116 115 114
f 114 113 112
f 112 111 110
f 110 109 108
f 108 107 106
f 106 105 104
f 104 103 102
f 102 101 100
f 100 99 98
f 98 97 96
f 96 95 94
f 94 93 92
f 92 91 90
f 90 89 88
f 88 87 86
f 86 85 84
f 84 83 82
f 82 81 80
f 80 79 78
f 78 77 76
f 76 75 74
f 74 73 72
f 72 71 70
f 70 69 68
f 67 66 133
f 134 66 264
f 200 199 66
f 66 64 62
f 62 60 58
f 58 56 54
f 54 52 50
f 50 48 46
f 46 44 42
f 42 40 38
f 38 36 34
f 34 32 30
f 30 28 26
f 26 24 22
f 22 20 18
f 18 16 14
f 14 12 10
f 10 8 6
f 6 4 2
f 1 130 128
f 128 126 124
f 124 122 120
f 120 118 116
f 116 114 112
f 112 110 108
f 108 106 104
f 104 102 100
f 100 98 96
f 96 94 92
f 92 90 88
f 88 86 84
f 84 82 80
f 80 78 76
f 76 74 72
f 72 70 68
f 68 67 133
f 135 134 264
f 201 200 66
f 66 62 58
f 58 54 50
f 50 46 42
f 42 38 34
f 34 30 26
f 26 22 18
f 18 14 10
f 10 6 2
f 1 128 124
f 124 120 116
f 116 112 108
f 108 104 100
f 100 96 92
f 92 88 84
f 84 80 76
f 76 72 68
f 68 133 132
f 136 135 264
f 202 201 66
f 66 58 50
f 50 42 34
f 34 26 18
f 18 10 2
f 1 124 116
f 116 108 100
f 100 92 84
f 84 76 68
f 68 132 198
f 137 136 264
f 203 202 66
f 50 34 18
f 18 2 1
f 1 116 100
f 100 84 68
f 68 198 197
f 138 137 264
f 204 203 66
f 68 197 196
f 139 138 264
f 205 204 66
f 68 196 195
f 140 139 264
f 206 205 66
f 68 195 194
f 141 140 264
f 206 66 50
f 68 194 193
f 142 141 264
f 207 206 50
f 68 193 192
f 143 142 264
f 208 207 50
f 68 192 191
f 144 143 264
f 209 208 50
f 68 191 190
f 145 144 264
f 210 209 50
f 68 190 189
f 146 145 264
f 211 210 50
f 68 189 188
f 146 264 263
f 212 211 50
f 68 188 187
f 147 146 263
f 213 212 50
f 100 68 187
f 148 147 263
f 214 213 50
f 100 187 186
f 149 148 263
f 215 214 50
f 100 186 185
f 150 149 263
f 216 215 50
f 100 185 184
f 151 150 263
f 217 216 50
f 100 184 183
f 152 151 263
f 218 217 50
f 100 183 182
f 153 152 263
f 219 218 50
f 100 182 181
f 154 153 263
f 220 219 50
f 100 181 180
f 155 154 263
f 221 220 50
f 100 180 179
f 156 155 263
f 222 221 50
f 100 179 178
f 156 263 262
f 223 222 50
f 100 178 177
f 157 156 262
f 224 223 50
f 100 177 176
f 157 262 261
f 225 224 50
f 100 176 175
f 157 261 260
f 226 225 50
f 100 175 174
f 158 157 260
f 227 226 50
f 100 174 173
f 158 260 259
f 228 227 50
f 100 173 172
f 159 158 259
f 229 228 50
f 100 172 171
f 159 259 258
f 230 229 50
f 100 171 170
f 159 258 257
f 231 230 50
f 100 170 169
f 160 159 257
f 232 231 50
f 100 169 168
f 160 257 256
f 233 232 50
f 100 168 167
f 160 256 255
f 233 50 18
f 100 167 166
f 161 160 255
f 234 233 18
f 1 100 166
f 161 255 254
f 235 234 18
f 1 166 165
f 161 254 253
f 236 235 18
f 1 165 164
f 162 161 253
f 237 236 18
f 1 164 163
f 162 253 252
f 238 237 18
f 1 163 162
f 162 252 251
f 239 238 18
f 1 162 251
f 240 239 18
f 18 1 251
f 241 240 18
f 18 251 250
f 242 241 18
f 18 250 249
f 243 242 18
f 18 249 248
f 244 243 18
f 18 248 247
f 245 244 18
f 18 247 246
f 246 245 18