# Generated mesh
# vertices: 3156, faces: 0

v 0.442571 -0.128492 -25.029999
v 0.434696 -0.213492 -25.029999
v 0.411071 -0.290492 -25.029999
v 0.304508 -0.185992 -25.029999
v 0.309571 -0.128492 -25.029999
v 0.442571 -0.128492 -25.029999
v 0.435571 0.200508 -25.029999
v 0.301571 0.200508 -25.029999
v 0.287696 0.246508 -25.029999
v 0.402821 0.337758 -25.029999
v 0.427383 0.272570 -25.029999
v 0.435571 0.200508 -25.029999
v 0.304571 0.447508 -25.029999
v 0.361883 0.396070 -25.029999
v 0.402821 0.337758 -25.029999
v 0.175821 0.512008 -25.029999
v 0.242883 0.485133 -25.029999
v 0.304571 0.447508 -25.029999
v 0.025571 0.533508 -25.029999
v 0.103383 0.528133 -25.029999
v 0.175821 0.512008 -25.029999
v -0.174179 0.493758 -25.029999
v -0.080367 0.523570 -25.029999
v 0.025571 0.533508 -25.029999
v -0.325429 0.374508 -25.029999
v -0.255867 0.444070 -25.029999
v -0.174179 0.493758 -25.029999
v -0.413929 0.208758 -25.029999
v -0.377054 0.296820 -25.029999
v -0.325429 0.374508 -25.029999
v -0.443429 0.001508 -25.029999
v -0.436054 0.110320 -25.029999
v -0.413929 0.208758 -25.029999
v -0.415429 -0.204742 -25.029999
v -0.436429 -0.106555 -25.029999
v -0.443429 0.001508 -25.029999
v -0.331429 -0.371492 -25.029999
v -0.380429 -0.293055 -25.029999
v -0.415429 -0.204742 -25.029999
v -0.183679 -0.492992 -25.029999
v -0.263492 -0.442367 -25.029999
v -0.331429 -0.371492 -25.029999
v 0.011571 -0.533492 -25.029999
v -0.091992 -0.523367 -25.029999
v -0.183679 -0.492992 -25.029999
v 0.177321 -0.505242 -25.029999
v 0.097758 -0.526430 -25.029999
v 0.011571 -0.533492 -25.029999
v 0.316571 -0.420492 -25.029999
v 0.250258 -0.469930 -25.029999
v 0.177321 -0.505242 -25.029999
v 0.411071 -0.290492 -25.029999
v 0.371696 -0.359492 -25.029999
v 0.316571 -0.420492 -25.029999
v 0.304508 -0.185992 -25.029999
v 0.442571 -0.128492 -25.029999
v 0.411071 -0.290492 -25.029999
v 0.435571 0.200508 -25.029999
v 0.287696 0.246508 -25.029999
v 0.267071 0.287508 -25.029999
v 0.304571 0.447508 -25.029999
v 0.402821 0.337758 -25.029999
v 0.435571 0.200508 -25.029999
v 0.025571 0.533508 -25.029999
v 0.175821 0.512008 -25.029999
v 0.304571 0.447508 -25.029999
v -0.325429 0.374508 -25.029999
v -0.174179 0.493758 -25.029999
v 0.025571 0.533508 -25.029999
v -0.443429 0.001508 -25.029999
v -0.413929 0.208758 -25.029999
v -0.325429 0.374508 -25.029999
v -0.331429 -0.371492 -25.029999
v -0.415429 -0.204742 -25.029999
v -0.443429 0.001508 -25.029999
v 0.011571 -0.533492 -25.029999
v -0.183679 -0.492992 -25.029999
v -0.331429 -0.371492 -25.029999
v 0.316571 -0.420492 -25.029999
v 0.177321 -0.505242 -25.029999
v 0.011571 -0.533492 -25.029999
v 0.304508 -0.185992 -25.029999
v 0.411071 -0.290492 -25.029999
v 0.316571 -0.420492 -25.029999
v 0.435571 0.200508 -25.029999
v 0.267071 0.287508 -25.029999
v 0.239696 0.323508 -25.029999
v 0.025571 0.533508 -25.029999
v 0.304571 0.447508 -25.029999
v 0.435571 0.200508 -25.029999
v -0.331429 -0.371492 -25.029999
v -0.443429 0.001508 -25.029999
v -0.325429 0.374508 -25.029999
v 0.289321 -0.238492 -25.029999
v 0.304508 -0.185992 -25.029999
v 0.316571 -0.420492 -25.029999
v 0.435571 0.200508 -25.029999
v 0.239696 0.323508 -25.029999
v 0.205571 0.354508 -25.029999
v 0.264008 -0.285992 -25.029999
v 0.289321 -0.238492 -25.029999
v 0.316571 -0.420492 -25.029999
v 0.025571 0.533508 -25.029999
v 0.435571 0.200508 -25.029999
v 0.205571 0.354508 -25.029999
v 0.228571 -0.328492 -25.029999
v 0.264008 -0.285992 -25.029999
v 0.316571 -0.420492 -25.029999
v 0.025571 0.533508 -25.029999
v 0.205571 0.354508 -25.029999
v 0.166071 0.379883 -25.029999
v 0.228571 -0.328492 -25.029999
v 0.316571 -0.420492 -25.029999
v 0.011571 -0.533492 -25.029999
v 0.025571 0.533508 -25.029999
v 0.166071 0.379883 -25.029999
v 0.123571 0.398008 -25.029999
v 0.185571 -0.363492 -25.029999
v 0.228571 -0.328492 -25.029999
v 0.011571 -0.533492 -25.029999
v 0.025571 0.533508 -25.029999
v 0.123571 0.398008 -25.029999
v 0.078071 0.408883 -25.029999
v 0.137571 -0.388492 -25.029999
v 0.185571 -0.363492 -25.029999
v 0.011571 -0.533492 -25.029999
v 0.025571 0.533508 -25.029999
v 0.078071 0.408883 -25.029999
v 0.029571 0.412508 -25.029999
v 0.084571 -0.403492 -25.029999
v 0.137571 -0.388492 -25.029999
v 0.011571 -0.533492 -25.029999
v 0.025571 0.533508 -25.029999
v 0.029571 0.412508 -25.029999
v -0.046679 0.404445 -25.029999
v 0.026571 -0.408492 -25.029999
v 0.084571 -0.403492 -25.029999
v 0.011571 -0.533492 -25.029999
v 0.025571 0.533508 -25.029999
v -0.046679 0.404445 -25.029999
v -0.114429 0.380258 -25.029999
v 0.026571 -0.408492 -25.029999
v 0.011571 -0.533492 -25.029999
v -0.331429 -0.371492 -25.029999
v 0.025571 0.533508 -25.029999
v -0.114429 0.380258 -25.029999
v -0.173679 0.339945 -25.029999
v -0.048867 -0.400367 -25.029999
v 0.026571 -0.408492 -25.029999
v -0.331429 -0.371492 -25.029999
v -0.325429 0.374508 -25.029999
v 0.025571 0.533508 -25.029999
v -0.173679 0.339945 -25.029999
v -0.116179 -0.375992 -25.029999
v -0.048867 -0.400367 -25.029999
v -0.331429 -0.371492 -25.029999
v -0.325429 0.374508 -25.029999
v -0.173679 0.339945 -25.029999
v -0.224429 0.283508 -25.029999
v -0.175367 -0.335367 -25.029999
v -0.116179 -0.375992 -25.029999
v -0.331429 -0.371492 -25.029999
v -0.325429 0.374508 -25.029999
v -0.224429 0.283508 -25.029999
v -0.260742 0.222383 -25.029999
v -0.226429 -0.278492 -25.029999
v -0.175367 -0.335367 -25.029999
v -0.331429 -0.371492 -25.029999
v -0.325429 0.374508 -25.029999
v -0.260742 0.222383 -25.029999
v -0.286679 0.155008 -25.029999
v -0.261867 -0.217867 -25.029999
v -0.226429 -0.278492 -25.029999
v -0.331429 -0.371492 -25.029999
v -0.325429 0.374508 -25.029999
v -0.286679 0.155008 -25.029999
v -0.302242 0.081383 -25.029999
v -0.287179 -0.150992 -25.029999
v -0.261867 -0.217867 -25.029999
v -0.331429 -0.371492 -25.029999
v -0.325429 0.374508 -25.029999
v -0.302242 0.081383 -25.029999
v -0.307429 0.001508 -25.029999
v -0.302367 -0.077867 -25.029999
v -0.287179 -0.150992 -25.029999
v -0.331429 -0.371492 -25.029999
v -0.331429 -0.371492 -25.029999
v -0.325429 0.374508 -25.029999
v -0.307429 0.001508 -25.029999
v -0.307429 0.001508 -25.029999
v -0.302367 -0.077867 -25.029999
v -0.331429 -0.371492 -25.029999
v 0.411071 -0.290492 25.029999
v 0.434696 -0.213492 25.029999
v 0.442571 -0.128492 25.029999
v 0.442571 -0.128492 25.029999
v 0.309571 -0.128492 25.029999
v 0.304508 -0.185992 25.029999
v 0.287696 0.246508 25.029999
v 0.301571 0.200508 25.029999
v 0.435571 0.200508 25.029999
v 0.435571 0.200508 25.029999
v 0.427383 0.272570 25.029999
v 0.402821 0.337758 25.029999
v 0.402821 0.337758 25.029999
v 0.361883 0.396070 25.029999
v 0.304571 0.447508 25.029999
v 0.304571 0.447508 25.029999
v 0.242883 0.485133 25.029999
v 0.175821 0.512008 25.029999
v 0.175821 0.512008 25.029999
v 0.103383 0.528133 25.029999
v 0.025571 0.533508 25.029999
v 0.025571 0.533508 25.029999
v -0.080367 0.523570 25.029999
v -0.174179 0.493758 25.029999
v -0.174179 0.493758 25.029999
v -0.255867 0.444070 25.029999
v -0.325429 0.374508 25.029999
v -0.325429 0.374508 25.029999
v -0.377054 0.296820 25.029999
v -0.413929 0.208758 25.029999
v -0.413929 0.208758 25.029999
v -0.436054 0.110320 25.029999
v -0.443429 0.001508 25.029999
v -0.443429 0.001508 25.029999
v -0.436429 -0.106555 25.029999
v -0.415429 -0.204742 25.029999
v -0.415429 -0.204742 25.029999
v -0.380429 -0.293055 25.029999
v -0.331429 -0.371492 25.029999
v -0.331429 -0.371492 25.029999
v -0.263492 -0.442367 25.029999
v -0.183679 -0.492992 25.029999
v -0.183679 -0.492992 25.029999
v -0.091992 -0.523367 25.029999
v 0.011571 -0.533492 25.029999
v 0.011571 -0.533492 25.029999
v 0.097758 -0.526430 25.029999
v 0.177321 -0.505242 25.029999
v 0.177321 -0.505242 25.029999
v 0.250258 -0.469930 25.029999
v 0.316571 -0.420492 25.029999
v 0.316571 -0.420492 25.029999
v 0.371696 -0.359492 25.029999
v 0.411071 -0.290492 25.029999
v 0.411071 -0.290492 25.029999
v 0.442571 -0.128492 25.029999
v 0.304508 -0.185992 25.029999
v 0.267071 0.287508 25.029999
v 0.287696 0.246508 25.029999
v 0.435571 0.200508 25.029999
v 0.435571 0.200508 25.029999
v 0.402821 0.337758 25.029999
v 0.304571 0.447508 25.029999
v 0.304571 0.447508 25.029999
v 0.175821 0.512008 25.029999
v 0.025571 0.533508 25.029999
v 0.025571 0.533508 25.029999
v -0.174179 0.493758 25.029999
v -0.325429 0.374508 25.029999
v -0.325429 0.374508 25.029999
v -0.413929 0.208758 25.029999
v -0.443429 0.001508 25.029999
v -0.443429 0.001508 25.029999
v -0.415429 -0.204742 25.029999
v -0.331429 -0.371492 25.029999
v -0.331429 -0.371492 25.029999
v -0.183679 -0.492992 25.029999
v 0.011571 -0.533492 25.029999
v 0.011571 -0.533492 25.029999
v 0.177321 -0.505242 25.029999
v 0.316571 -0.420492 25.029999
v 0.316571 -0.420492 25.029999
v 0.411071 -0.290492 25.029999
v 0.304508 -0.185992 25.029999
v 0.239696 0.323508 25.029999
v 0.267071 0.287508 25.029999
v 0.435571 0.200508 25.029999
v 0.435571 0.200508 25.029999
v 0.304571 0.447508 25.029999
v 0.025571 0.533508 25.029999
v -0.325429 0.374508 25.029999
v -0.443429 0.001508 25.029999
v -0.331429 -0.371492 25.029999
v 0.316571 -0.420492 25.029999
v 0.304508 -0.185992 25.029999
v 0.289321 -0.238492 25.029999
v 0.205571 0.354508 25.029999
v 0.239696 0.323508 25.029999
v 0.435571 0.200508 25.029999
v 0.316571 -0.420492 25.029999
v 0.289321 -0.238492 25.029999
v 0.264008 -0.285992 25.029999
v 0.205571 0.354508 25.029999
v 0.435571 0.200508 25.029999
v 0.025571 0.533508 25.029999
v 0.316571 -0.420492 25.029999
v 0.264008 -0.285992 25.029999
v 0.228571 -0.328492 25.029999
v 0.166071 0.379883 25.029999
v 0.205571 0.354508 25.029999
v 0.025571 0.533508 25.029999
v 0.011571 -0.533492 25.029999
v 0.316571 -0.420492 25.029999
v 0.228571 -0.328492 25.029999
v 0.123571 0.398008 25.029999
v 0.166071 0.379883 25.029999
v 0.025571 0.533508 25.029999
v 0.011571 -0.533492 25.029999
v 0.228571 -0.328492 25.029999
v 0.185571 -0.363492 25.029999
v 0.078071 0.408883 25.029999
v 0.123571 0.398008 25.029999
v 0.025571 0.533508 25.029999
v 0.011571 -0.533492 25.029999
v 0.185571 -0.363492 25.029999
v 0.137571 -0.388492 25.029999
v 0.029571 0.412508 25.029999
v 0.078071 0.408883 25.029999
v 0.025571 0.533508 25.029999
v 0.011571 -0.533492 25.029999
v 0.137571 -0.388492 25.029999
v 0.084571 -0.403492 25.029999
v -0.046679 0.404445 25.029999
v 0.029571 0.412508 25.029999
v 0.025571 0.533508 25.029999
v 0.011571 -0.533492 25.029999
v 0.084571 -0.403492 25.029999
v 0.026571 -0.408492 25.029999
v -0.114429 0.380258 25.029999
v -0.046679 0.404445 25.029999
v 0.025571 0.533508 25.029999
v -0.331429 -0.371492 25.029999
v 0.011571 -0.533492 25.029999
v 0.026571 -0.408492 25.029999
v -0.173679 0.339945 25.029999
v -0.114429 0.380258 25.029999
v 0.025571 0.533508 25.029999
v -0.331429 -0.371492 25.029999
v 0.026571 -0.408492 25.029999
v -0.048867 -0.400367 25.029999
v -0.173679 0.339945 25.029999
v 0.025571 0.533508 25.029999
v -0.325429 0.374508 25.029999
v -0.331429 -0.371492 25.029999
v -0.048867 -0.400367 25.029999
v -0.116179 -0.375992 25.029999
v -0.224429 0.283508 25.029999
v -0.173679 0.339945 25.029999
v -0.325429 0.374508 25.029999
v -0.331429 -0.371492 25.029999
v -0.116179 -0.375992 25.029999
v -0.175367 -0.335367 25.029999
v -0.260742 0.222383 25.029999
v -0.224429 0.283508 25.029999
v -0.325429 0.374508 25.029999
v -0.331429 -0.371492 25.029999
v -0.175367 -0.335367 25.029999
v -0.226429 -0.278492 25.029999
v -0.286679 0.155008 25.029999
v -0.260742 0.222383 25.029999
v -0.325429 0.374508 25.029999
v -0.331429 -0.371492 25.029999
v -0.226429 -0.278492 25.029999
v -0.261867 -0.217867 25.029999
v -0.302242 0.081383 25.029999
v -0.286679 0.155008 25.029999
v -0.325429 0.374508 25.029999
v -0.331429 -0.371492 25.029999
v -0.261867 -0.217867 25.029999
v -0.287179 -0.150992 25.029999
v -0.307429 0.001508 25.029999
v -0.302242 0.081383 25.029999
v -0.325429 0.374508 25.029999
v -0.331429 -0.371492 25.029999
v -0.287179 -0.150992 25.029999
v -0.302367 -0.077867 25.029999
v -0.307429 0.001508 25.029999
v -0.325429 0.374508 25.029999
v -0.331429 -0.371492 25.029999
v -0.331429 -0.371492 25.029999
v -0.302367 -0.077867 25.029999
v -0.307429 0.001508 25.029999
v 0.442571 -0.128492 -25.029999
v 0.309571 -0.128492 -25.029999
v 0.453022 -0.118965 -25.025980
v 0.309571 -0.128492 -25.029999
v 0.300413 -0.118492 -25.025980
v 0.453022 -0.118965 -25.025980
v 0.453022 -0.118965 -25.025980
v 0.300413 -0.118492 -25.025980
v 0.460673 -0.111990 -25.014999
v 0.300413 -0.118492 -25.025980
v 0.293708 -0.111172 -25.014999
v 0.460673 -0.111990 -25.014999
v 0.460673 -0.111990 -25.014999
v 0.293708 -0.111172 -25.014999
v 0.463473 -0.109437 -25.000000
v 0.293708 -0.111172 -25.014999
v 0.291254 -0.108492 -25.000000
v 0.463473 -0.109437 -25.000000
v 0.463473 -0.109437 -25.000000
v 0.291254 -0.108492 -25.000000
v 0.463473 -0.109437 25.000000
v 0.291254 -0.108492 -25.000000
v 0.291254 -0.108492 25.000000
v 0.463473 -0.109437 25.000000
v 0.463473 -0.109437 25.000000
v 0.291254 -0.108492 25.000000
v 0.460673 -0.111990 25.014999
v 0.291254 -0.108492 25.000000
v 0.293708 -0.111172 25.014999
v 0.460673 -0.111990 25.014999
v 0.460673 -0.111990 25.014999
v 0.293708 -0.111172 25.014999
v 0.453022 -0.118965 25.025982
v 0.293708 -0.111172 25.014999
v 0.300413 -0.118492 25.025982
v 0.453022 -0.118965 25.025982
v 0.453022 -0.118965 25.025982
v 0.300413 -0.118492 25.025982
v 0.442571 -0.128492 25.029999
v 0.300413 -0.118492 25.025982
v 0.309571 -0.128492 25.029999
v 0.442571 -0.128492 25.029999
v 0.309571 -0.128492 -25.029999
v 0.304508 -0.185992 -25.029999
v 0.300413 -0.118492 -25.025980
v 0.304508 -0.185992 -25.029999
v 0.294632 -0.184147 -25.025980
v 0.300413 -0.118492 -25.025980
v 0.300413 -0.118492 -25.025980
v 0.294632 -0.184147 -25.025980
v 0.293708 -0.111172 -25.014999
v 0.294632 -0.184147 -25.025980
v 0.287402 -0.182796 -25.014999
v 0.293708 -0.111172 -25.014999
v 0.293708 -0.111172 -25.014999
v 0.287402 -0.182796 -25.014999
v 0.291254 -0.108492 -25.000000
v 0.287402 -0.182796 -25.014999
v 0.284756 -0.182302 -25.000000
v 0.291254 -0.108492 -25.000000
v 0.291254 -0.108492 -25.000000
v 0.284756 -0.182302 -25.000000
v 0.291254 -0.108492 25.000000
v 0.284756 -0.182302 -25.000000
v 0.284756 -0.182302 25.000000
v 0.291254 -0.108492 25.000000
v 0.291254 -0.108492 25.000000
v 0.284756 -0.182302 25.000000
v 0.293708 -0.111172 25.014999
v 0.284756 -0.182302 25.000000
v 0.287402 -0.182796 25.014999
v 0.293708 -0.111172 25.014999
v 0.293708 -0.111172 25.014999
v 0.287402 -0.182796 25.014999
v 0.300413 -0.118492 25.025982
v 0.287402 -0.182796 25.014999
v 0.294632 -0.184147 25.025982
v 0.300413 -0.118492 25.025982
v 0.300413 -0.118492 25.025982
v 0.294632 -0.184147 25.025982
v 0.309571 -0.128492 25.029999
v 0.294632 -0.184147 25.025982
v 0.304508 -0.185992 25.029999
v 0.309571 -0.128492 25.029999
v 0.304508 -0.185992 -25.029999
v 0.289321 -0.238492 -25.029999
v 0.294632 -0.184147 -25.025980
v 0.289321 -0.238492 -25.029999
v 0.280005 -0.234711 -25.025980
v 0.294632 -0.184147 -25.025980
v 0.294632 -0.184147 -25.025980
v 0.280005 -0.234711 -25.025980
v 0.287402 -0.182796 -25.014999
v 0.280005 -0.234711 -25.025980
v 0.273185 -0.231942 -25.014999
v 0.287402 -0.182796 -25.014999
v 0.287402 -0.182796 -25.014999
v 0.273185 -0.231942 -25.014999
v 0.284756 -0.182302 -25.000000
v 0.273185 -0.231942 -25.014999
v 0.270689 -0.230929 -25.000000
v 0.284756 -0.182302 -25.000000
v 0.284756 -0.182302 -25.000000
v 0.270689 -0.230929 -25.000000
v 0.284756 -0.182302 25.000000
v 0.270689 -0.230929 -25.000000
v 0.270689 -0.230929 25.000000
v 0.284756 -0.182302 25.000000
v 0.284756 -0.182302 25.000000
v 0.270689 -0.230929 25.000000
v 0.287402 -0.182796 25.014999
v 0.270689 -0.230929 25.000000
v 0.273185 -0.231942 25.014999
v 0.287402 -0.182796 25.014999
v 0.287402 -0.182796 25.014999
v 0.273185 -0.231942 25.014999
v 0.294632 -0.184147 25.025982
v 0.273185 -0.231942 25.014999
v 0.280005 -0.234711 25.025982
v 0.294632 -0.184147 25.025982
v 0.294632 -0.184147 25.025982
v 0.280005 -0.234711 25.025982
v 0.304508 -0.185992 25.029999
v 0.280005 -0.234711 25.025982
v 0.289321 -0.238492 25.029999
v 0.304508 -0.185992 25.029999
v 0.289321 -0.238492 -25.029999
v 0.264008 -0.285992 -25.029999
v 0.280005 -0.234711 -25.025980
v 0.264008 -0.285992 -25.029999
v 0.255668 -0.280380 -25.025980
v 0.280005 -0.234711 -25.025980
v 0.280005 -0.234711 -25.025980
v 0.255668 -0.280380 -25.025980
v 0.273185 -0.231942 -25.014999
v 0.255668 -0.280380 -25.025980
v 0.249562 -0.276271 -25.014999
v 0.273185 -0.231942 -25.014999
v 0.273185 -0.231942 -25.014999
v 0.249562 -0.276271 -25.014999
v 0.270689 -0.230929 -25.000000
v 0.249562 -0.276271 -25.014999
v 0.247328 -0.274767 -25.000000
v 0.270689 -0.230929 -25.000000
v 0.270689 -0.230929 -25.000000
v 0.247328 -0.274767 -25.000000
v 0.270689 -0.230929 25.000000
v 0.247328 -0.274767 -25.000000
v 0.247328 -0.274767 25.000000
v 0.270689 -0.230929 25.000000
v 0.270689 -0.230929 25.000000
v 0.247328 -0.274767 25.000000
v 0.273185 -0.231942 25.014999
v 0.247328 -0.274767 25.000000
v 0.249562 -0.276271 25.014999
v 0.273185 -0.231942 25.014999
v 0.273185 -0.231942 25.014999
v 0.249562 -0.276271 25.014999
v 0.280005 -0.234711 25.025982
v 0.249562 -0.276271 25.014999
v 0.255668 -0.280380 25.025982
v 0.280005 -0.234711 25.025982
v 0.280005 -0.234711 25.025982
v 0.255668 -0.280380 25.025982
v 0.289321 -0.238492 25.029999
v 0.255668 -0.280380 25.025982
v 0.264008 -0.285992 25.029999
v 0.289321 -0.238492 25.029999
v 0.264008 -0.285992 -25.029999
v 0.228571 -0.328492 -25.029999
v 0.255668 -0.280380 -25.025980
v 0.228571 -0.328492 -25.029999
v 0.221509 -0.321346 -25.025980
v 0.255668 -0.280380 -25.025980
v 0.255668 -0.280380 -25.025980
v 0.221509 -0.321346 -25.025980
v 0.249562 -0.276271 -25.014999
v 0.221509 -0.321346 -25.025980
v 0.216339 -0.316115 -25.014999
v 0.249562 -0.276271 -25.014999
v 0.249562 -0.276271 -25.014999
v 0.216339 -0.316115 -25.014999
v 0.247328 -0.274767 -25.000000
v 0.216339 -0.316115 -25.014999
v 0.214447 -0.314201 -25.000000
v 0.247328 -0.274767 -25.000000
v 0.247328 -0.274767 -25.000000
v 0.214447 -0.314201 -25.000000
v 0.247328 -0.274767 25.000000
v 0.214447 -0.314201 -25.000000
v 0.214447 -0.314201 25.000000
v 0.247328 -0.274767 25.000000
v 0.247328 -0.274767 25.000000
v 0.214447 -0.314201 25.000000
v 0.249562 -0.276271 25.014999
v 0.214447 -0.314201 25.000000
v 0.216339 -0.316115 25.014999
v 0.249562 -0.276271 25.014999
v 0.249562 -0.276271 25.014999
v 0.216339 -0.316115 25.014999
v 0.255668 -0.280380 25.025982
v 0.216339 -0.316115 25.014999
v 0.221509 -0.321346 25.025982
v 0.255668 -0.280380 25.025982
v 0.255668 -0.280380 25.025982
v 0.221509 -0.321346 25.025982
v 0.264008 -0.285992 25.029999
v 0.221509 -0.321346 25.025982
v 0.228571 -0.328492 25.029999
v 0.264008 -0.285992 25.029999
v 0.228571 -0.328492 -25.029999
v 0.185571 -0.363492 -25.029999
v 0.221509 -0.321346 -25.025980
v 0.185571 -0.363492 -25.029999
v 0.180048 -0.355094 -25.025980
v 0.221509 -0.321346 -25.025980
v 0.221509 -0.321346 -25.025980
v 0.180048 -0.355094 -25.025980
v 0.216339 -0.316115 -25.014999
v 0.180048 -0.355094 -25.025980
v 0.176005 -0.348946 -25.014999
v 0.216339 -0.316115 -25.014999
v 0.216339 -0.316115 -25.014999
v 0.176005 -0.348946 -25.014999
v 0.214447 -0.314201 -25.000000
v 0.176005 -0.348946 -25.014999
v 0.174525 -0.346695 -25.000000
v 0.214447 -0.314201 -25.000000
v 0.214447 -0.314201 -25.000000
v 0.174525 -0.346695 -25.000000
v 0.214447 -0.314201 25.000000
v 0.174525 -0.346695 -25.000000
v 0.174525 -0.346695 25.000000
v 0.214447 -0.314201 25.000000
v 0.214447 -0.314201 25.000000
v 0.174525 -0.346695 25.000000
v 0.216339 -0.316115 25.014999
v 0.174525 -0.346695 25.000000
v 0.176005 -0.348946 25.014999
v 0.216339 -0.316115 25.014999
v 0.216339 -0.316115 25.014999
v 0.176005 -0.348946 25.014999
v 0.221509 -0.321346 25.025982
v 0.176005 -0.348946 25.014999
v 0.180048 -0.355094 25.025982
v 0.221509 -0.321346 25.025982
v 0.221509 -0.321346 25.025982
v 0.180048 -0.355094 25.025982
v 0.228571 -0.328492 25.029999
v 0.180048 -0.355094 25.025982
v 0.185571 -0.363492 25.029999
v 0.228571 -0.328492 25.029999
v 0.185571 -0.363492 -25.029999
v 0.137571 -0.388492 -25.029999
v 0.180048 -0.355094 -25.025980
v 0.137571 -0.388492 -25.029999
v 0.133861 -0.379150 -25.025980
v 0.180048 -0.355094 -25.025980
v 0.180048 -0.355094 -25.025980
v 0.133861 -0.379150 -25.025980
v 0.176005 -0.348946 -25.014999
v 0.133861 -0.379150 -25.025980
v 0.131145 -0.372310 -25.014999
v 0.176005 -0.348946 -25.014999
v 0.176005 -0.348946 -25.014999
v 0.131145 -0.372310 -25.014999
v 0.174525 -0.346695 -25.000000
v 0.131145 -0.372310 -25.014999
v 0.130151 -0.369807 -25.000000
v 0.174525 -0.346695 -25.000000
v 0.174525 -0.346695 -25.000000
v 0.130151 -0.369807 -25.000000
v 0.174525 -0.346695 25.000000
v 0.130151 -0.369807 -25.000000
v 0.130151 -0.369807 25.000000
v 0.174525 -0.346695 25.000000
v 0.174525 -0.346695 25.000000
v 0.130151 -0.369807 25.000000
v 0.176005 -0.348946 25.014999
v 0.130151 -0.369807 25.000000
v 0.131145 -0.372310 25.014999
v 0.176005 -0.348946 25.014999
v 0.176005 -0.348946 25.014999
v 0.131145 -0.372310 25.014999
v 0.180048 -0.355094 25.025982
v 0.131145 -0.372310 25.014999
v 0.133861 -0.379150 25.025982
v 0.180048 -0.355094 25.025982
v 0.180048 -0.355094 25.025982
v 0.133861 -0.379150 25.025982
v 0.185571 -0.363492 25.029999
v 0.133861 -0.379150 25.025982
v 0.137571 -0.388492 25.029999
v 0.185571 -0.363492 25.029999
v 0.137571 -0.388492 -25.029999
v 0.084571 -0.403492 -25.029999
v 0.133861 -0.379150 -25.025980
v 0.084571 -0.403492 -25.029999
v 0.082764 -0.393611 -25.025980
v 0.133861 -0.379150 -25.025980
v 0.133861 -0.379150 -25.025980
v 0.082764 -0.393611 -25.025980
v 0.131145 -0.372310 -25.014999
v 0.082764 -0.393611 -25.025980
v 0.081441 -0.386377 -25.014999
v 0.131145 -0.372310 -25.014999
v 0.131145 -0.372310 -25.014999
v 0.081441 -0.386377 -25.014999
v 0.130151 -0.369807 -25.000000
v 0.081441 -0.386377 -25.014999
v 0.080956 -0.383730 -25.000000
v 0.130151 -0.369807 -25.000000
v 0.130151 -0.369807 -25.000000
v 0.080956 -0.383730 -25.000000
v 0.130151 -0.369807 25.000000
v 0.080956 -0.383730 -25.000000
v 0.080956 -0.383730 25.000000
v 0.130151 -0.369807 25.000000
v 0.130151 -0.369807 25.000000
v 0.080956 -0.383730 25.000000
v 0.131145 -0.372310 25.014999
v 0.080956 -0.383730 25.000000
v 0.081441 -0.386377 25.014999
v 0.131145 -0.372310 25.014999
v 0.131145 -0.372310 25.014999
v 0.081441 -0.386377 25.014999
v 0.133861 -0.379150 25.025982
v 0.081441 -0.386377 25.014999
v 0.082764 -0.393611 25.025982
v 0.133861 -0.379150 25.025982
v 0.133861 -0.379150 25.025982
v 0.082764 -0.393611 25.025982
v 0.137571 -0.388492 25.029999
v 0.082764 -0.393611 25.025982
v 0.084571 -0.403492 25.029999
v 0.137571 -0.388492 25.029999
v 0.084571 -0.403492 -25.029999
v 0.026571 -0.408492 -25.029999
v 0.082764 -0.393611 -25.025980
v 0.026571 -0.408492 -25.029999
v 0.026678 -0.398446 -25.025980
v 0.082764 -0.393611 -25.025980
v 0.082764 -0.393611 -25.025980
v 0.026678 -0.398446 -25.025980
v 0.081441 -0.386377 -25.014999
v 0.026678 -0.398446 -25.025980
v 0.026756 -0.391092 -25.014999
v 0.081441 -0.386377 -25.014999
v 0.081441 -0.386377 -25.014999
v 0.026756 -0.391092 -25.014999
v 0.080956 -0.383730 -25.000000
v 0.026756 -0.391092 -25.014999
v 0.026785 -0.388400 -25.000000
v 0.080956 -0.383730 -25.000000
v 0.080956 -0.383730 -25.000000
v 0.026785 -0.388400 -25.000000
v 0.080956 -0.383730 25.000000
v 0.026785 -0.388400 -25.000000
v 0.026785 -0.388400 25.000000
v 0.080956 -0.383730 25.000000
v 0.080956 -0.383730 25.000000
v 0.026785 -0.388400 25.000000
v 0.081441 -0.386377 25.014999
v 0.026785 -0.388400 25.000000
v 0.026756 -0.391092 25.014999
v 0.081441 -0.386377 25.014999
v 0.081441 -0.386377 25.014999
v 0.026756 -0.391092 25.014999
v 0.082764 -0.393611 25.025982
v 0.026756 -0.391092 25.014999
v 0.026678 -0.398446 25.025982
v 0.082764 -0.393611 25.025982
v 0.082764 -0.393611 25.025982
v 0.026678 -0.398446 25.025982
v 0.084571 -0.403492 25.029999
v 0.026678 -0.398446 25.025982
v 0.026571 -0.408492 25.029999
v 0.084571 -0.403492 25.029999
v 0.026571 -0.408492 -25.029999
v -0.048867 -0.400367 -25.029999
v 0.026678 -0.398446 -25.025980
v -0.048867 -0.400367 -25.029999
v -0.046596 -0.390554 -25.025980
v 0.026678 -0.398446 -25.025980
v 0.026678 -0.398446 -25.025980
v -0.046596 -0.390554 -25.025980
v 0.026756 -0.391092 -25.014999
v -0.046596 -0.390554 -25.025980
v -0.044934 -0.383370 -25.014999
v 0.026756 -0.391092 -25.014999
v 0.026756 -0.391092 -25.014999
v -0.044934 -0.383370 -25.014999
v 0.026785 -0.388400 -25.000000
v -0.044934 -0.383370 -25.014999
v -0.044326 -0.380741 -25.000000
v 0.026785 -0.388400 -25.000000
v 0.026785 -0.388400 -25.000000
v -0.044326 -0.380741 -25.000000
v 0.026785 -0.388400 25.000000
v -0.044326 -0.380741 -25.000000
v -0.044326 -0.380741 25.000000
v 0.026785 -0.388400 25.000000
v 0.026785 -0.388400 25.000000
v -0.044326 -0.380741 25.000000
v 0.026756 -0.391092 25.014999
v -0.044326 -0.380741 25.000000
v -0.044934 -0.383370 25.014999
v 0.026756 -0.391092 25.014999
v 0.026756 -0.391092 25.014999
v -0.044934 -0.383370 25.014999
v 0.026678 -0.398446 25.025982
v -0.044934 -0.383370 25.014999
v -0.046596 -0.390554 25.025982
v 0.026678 -0.398446 25.025982
v 0.026678 -0.398446 25.025982
v -0.046596 -0.390554 25.025982
v 0.026571 -0.408492 25.029999
v -0.046596 -0.390554 25.025982
v -0.048867 -0.400367 25.029999
v 0.026571 -0.408492 25.029999
v -0.048867 -0.400367 -25.029999
v -0.116179 -0.375992 -25.029999
v -0.046596 -0.390554 -25.025980
v -0.116179 -0.375992 -25.029999
v -0.111573 -0.367025 -25.025980
v -0.046596 -0.390554 -25.025980
v -0.046596 -0.390554 -25.025980
v -0.111573 -0.367025 -25.025980
v -0.044934 -0.383370 -25.014999
v -0.111573 -0.367025 -25.025980
v -0.108202 -0.360460 -25.014999
v -0.044934 -0.383370 -25.014999
v -0.044934 -0.383370 -25.014999
v -0.108202 -0.360460 -25.014999
v -0.044326 -0.380741 -25.000000
v -0.108202 -0.360460 -25.014999
v -0.106967 -0.358057 -25.000000
v -0.044326 -0.380741 -25.000000
v -0.044326 -0.380741 -25.000000
v -0.106967 -0.358057 -25.000000
v -0.044326 -0.380741 25.000000
v -0.106967 -0.358057 -25.000000
v -0.106967 -0.358057 25.000000
v -0.044326 -0.380741 25.000000
v -0.044326 -0.380741 25.000000
v -0.106967 -0.358057 25.000000
v -0.044934 -0.383370 25.014999
v -0.106967 -0.358057 25.000000
v -0.108202 -0.360460 25.014999
v -0.044934 -0.383370 25.014999
v -0.044934 -0.383370 25.014999
v -0.108202 -0.360460 25.014999
v -0.046596 -0.390554 25.025982
v -0.108202 -0.360460 25.014999
v -0.111573 -0.367025 25.025982
v -0.046596 -0.390554 25.025982
v -0.046596 -0.390554 25.025982
v -0.111573 -0.367025 25.025982
v -0.048867 -0.400367 25.029999
v -0.111573 -0.367025 25.025982
v -0.116179 -0.375992 25.029999
v -0.048867 -0.400367 25.029999
v -0.116179 -0.375992 -25.029999
v -0.175367 -0.335367 -25.029999
v -0.111573 -0.367025 -25.025980
v -0.175367 -0.335367 -25.029999
v -0.168723 -0.327798 -25.025980
v -0.111573 -0.367025 -25.025980
v -0.111573 -0.367025 -25.025980
v -0.168723 -0.327798 -25.025980
v -0.108202 -0.360460 -25.014999
v -0.168723 -0.327798 -25.025980
v -0.163860 -0.322257 -25.014999
v -0.108202 -0.360460 -25.014999
v -0.108202 -0.360460 -25.014999
v -0.163860 -0.322257 -25.014999
v -0.106967 -0.358057 -25.000000
v -0.163860 -0.322257 -25.014999
v -0.162080 -0.320229 -25.000000
v -0.106967 -0.358057 -25.000000
v -0.106967 -0.358057 -25.000000
v -0.162080 -0.320229 -25.000000
v -0.106967 -0.358057 25.000000
v -0.162080 -0.320229 -25.000000
v -0.162080 -0.320229 25.000000
v -0.106967 -0.358057 25.000000
v -0.106967 -0.358057 25.000000
v -0.162080 -0.320229 25.000000
v -0.108202 -0.360460 25.014999
v -0.162080 -0.320229 25.000000
v -0.163860 -0.322257 25.014999
v -0.108202 -0.360460 25.014999
v -0.108202 -0.360460 25.014999
v -0.163860 -0.322257 25.014999
v -0.111573 -0.367025 25.025982
v -0.163860 -0.322257 25.014999
v -0.168723 -0.327798 25.025982
v -0.111573 -0.367025 25.025982
v -0.111573 -0.367025 25.025982
v -0.168723 -0.327798 25.025982
v -0.116179 -0.375992 25.029999
v -0.168723 -0.327798 25.025982
v -0.175367 -0.335367 25.029999
v -0.116179 -0.375992 25.029999
v -0.175367 -0.335367 -25.029999
v -0.226429 -0.278492 -25.029999
v -0.168723 -0.327798 -25.025980
v -0.226429 -0.278492 -25.029999
v -0.218309 -0.272568 -25.025980
v -0.168723 -0.327798 -25.025980
v -0.168723 -0.327798 -25.025980
v -0.218309 -0.272568 -25.025980
v -0.163860 -0.322257 -25.014999
v -0.218309 -0.272568 -25.025980
v -0.212365 -0.268231 -25.014999
v -0.163860 -0.322257 -25.014999
v -0.163860 -0.322257 -25.014999
v -0.212365 -0.268231 -25.014999
v -0.162080 -0.320229 -25.000000
v -0.212365 -0.268231 -25.014999
v -0.210189 -0.266644 -25.000000
v -0.162080 -0.320229 -25.000000
v -0.162080 -0.320229 -25.000000
v -0.210189 -0.266644 -25.000000
v -0.162080 -0.320229 25.000000
v -0.210189 -0.266644 -25.000000
v -0.210189 -0.266644 25.000000
v -0.162080 -0.320229 25.000000
v -0.162080 -0.320229 25.000000
v -0.210189 -0.266644 25.000000
v -0.163860 -0.322257 25.014999
v -0.210189 -0.266644 25.000000
v -0.212365 -0.268231 25.014999
v -0.163860 -0.322257 25.014999
v -0.163860 -0.322257 25.014999
v -0.212365 -0.268231 25.014999
v -0.168723 -0.327798 25.025982
v -0.212365 -0.268231 25.014999
v -0.218309 -0.272568 25.025982
v -0.168723 -0.327798 25.025982
v -0.168723 -0.327798 25.025982
v -0.218309 -0.272568 25.025982
v -0.175367 -0.335367 25.029999
v -0.218309 -0.272568 25.025982
v -0.226429 -0.278492 25.029999
v -0.175367 -0.335367 25.029999
v -0.226429 -0.278492 -25.029999
v -0.261867 -0.217867 -25.029999
v -0.218309 -0.272568 -25.025980
v -0.261867 -0.217867 -25.029999
v -0.252811 -0.213544 -25.025980
v -0.218309 -0.272568 -25.025980
v -0.218309 -0.272568 -25.025980
v -0.252811 -0.213544 -25.025980
v -0.212365 -0.268231 -25.014999
v -0.252811 -0.213544 -25.025980
v -0.246181 -0.210379 -25.014999
v -0.212365 -0.268231 -25.014999
v -0.212365 -0.268231 -25.014999
v -0.246181 -0.210379 -25.014999
v -0.210189 -0.266644 -25.000000
v -0.246181 -0.210379 -25.014999
v -0.243755 -0.209221 -25.000000
v -0.210189 -0.266644 -25.000000
v -0.210189 -0.266644 -25.000000
v -0.243755 -0.209221 -25.000000
v -0.210189 -0.266644 25.000000
v -0.243755 -0.209221 -25.000000
v -0.243755 -0.209221 25.000000
v -0.210189 -0.266644 25.000000
v -0.210189 -0.266644 25.000000
v -0.243755 -0.209221 25.000000
v -0.212365 -0.268231 25.014999
v -0.243755 -0.209221 25.000000
v -0.246181 -0.210379 25.014999
v -0.212365 -0.268231 25.014999
v -0.212365 -0.268231 25.014999
v -0.246181 -0.210379 25.014999
v -0.218309 -0.272568 25.025982
v -0.246181 -0.210379 25.014999
v -0.252811 -0.213544 25.025982
v -0.218309 -0.272568 25.025982
v -0.218309 -0.272568 25.025982
v -0.252811 -0.213544 25.025982
v -0.226429 -0.278492 25.029999
v -0.252811 -0.213544 25.025982
v -0.261867 -0.217867 25.029999
v -0.226429 -0.278492 25.029999
v -0.261867 -0.217867 -25.029999
v -0.287179 -0.150992 -25.029999
v -0.252811 -0.213544 -25.025980
v -0.287179 -0.150992 -25.029999
v -0.277548 -0.148188 -25.025980
v -0.252811 -0.213544 -25.025980
v -0.252811 -0.213544 -25.025980
v -0.277548 -0.148188 -25.025980
v -0.246181 -0.210379 -25.014999
v -0.277548 -0.148188 -25.025980
v -0.270498 -0.146136 -25.014999
v -0.246181 -0.210379 -25.014999
v -0.246181 -0.210379 -25.014999
v -0.270498 -0.146136 -25.014999
v -0.243755 -0.209221 -25.000000
v -0.270498 -0.146136 -25.014999
v -0.267917 -0.145384 -25.000000
v -0.243755 -0.209221 -25.000000
v -0.243755 -0.209221 -25.000000
v -0.267917 -0.145384 -25.000000
v -0.243755 -0.209221 25.000000
v -0.267917 -0.145384 -25.000000
v -0.267917 -0.145384 25.000000
v -0.243755 -0.209221 25.000000
v -0.243755 -0.209221 25.000000
v -0.267917 -0.145384 25.000000
v -0.246181 -0.210379 25.014999
v -0.267917 -0.145384 25.000000
v -0.270498 -0.146136 25.014999
v -0.246181 -0.210379 25.014999
v -0.246181 -0.210379 25.014999
v -0.270498 -0.146136 25.014999
v -0.252811 -0.213544 25.025982
v -0.270498 -0.146136 25.014999
v -0.277548 -0.148188 25.025982
v -0.252811 -0.213544 25.025982
v -0.252811 -0.213544 25.025982
v -0.277548 -0.148188 25.025982
v -0.261867 -0.217867 25.029999
v -0.277548 -0.148188 25.025982
v -0.287179 -0.150992 25.029999
v -0.261867 -0.217867 25.029999
v -0.287179 -0.150992 -25.029999
v -0.302367 -0.077867 -25.029999
v -0.277548 -0.148188 -25.025980
v -0.302367 -0.077867 -25.029999
v -0.292432 -0.076526 -25.025980
v -0.277548 -0.148188 -25.025980
v -0.277548 -0.148188 -25.025980
v -0.292432 -0.076526 -25.025980
v -0.270498 -0.146136 -25.014999
v -0.292432 -0.076526 -25.025980
v -0.285159 -0.075544 -25.014999
v -0.270498 -0.146136 -25.014999
v -0.270498 -0.146136 -25.014999
v -0.285159 -0.075544 -25.014999
v -0.267917 -0.145384 -25.000000
v -0.285159 -0.075544 -25.014999
v -0.282497 -0.075184 -25.000000
v -0.267917 -0.145384 -25.000000
v -0.267917 -0.145384 -25.000000
v -0.282497 -0.075184 -25.000000
v -0.267917 -0.145384 25.000000
v -0.282497 -0.075184 -25.000000
v -0.282497 -0.075184 25.000000
v -0.267917 -0.145384 25.000000
v -0.267917 -0.145384 25.000000
v -0.282497 -0.075184 25.000000
v -0.270498 -0.146136 25.014999
v -0.282497 -0.075184 25.000000
v -0.285159 -0.075544 25.014999
v -0.270498 -0.146136 25.014999
v -0.270498 -0.146136 25.014999
v -0.285159 -0.075544 25.014999
v -0.277548 -0.148188 25.025982
v -0.285159 -0.075544 25.014999
v -0.292432 -0.076526 25.025982
v -0.277548 -0.148188 25.025982
v -0.277548 -0.148188 25.025982
v -0.292432 -0.076526 25.025982
v -0.287179 -0.150992 25.029999
v -0.292432 -0.076526 25.025982
v -0.302367 -0.077867 25.029999
v -0.287179 -0.150992 25.029999
v -0.302367 -0.077867 -25.029999
v -0.307429 0.001508 -25.029999
v -0.292432 -0.076526 -25.025980
v -0.307429 0.001508 -25.029999
v -0.297408 0.001502 -25.025980
v -0.292432 -0.076526 -25.025980
v -0.292432 -0.076526 -25.025980
v -0.297408 0.001502 -25.025980
v -0.285159 -0.075544 -25.014999
v -0.297408 0.001502 -25.025980
v -0.290073 0.001498 -25.014999
v -0.285159 -0.075544 -25.014999
v -0.285159 -0.075544 -25.014999
v -0.290073 0.001498 -25.014999
v -0.282497 -0.075184 -25.000000
v -0.290073 0.001498 -25.014999
v -0.287388 0.001496 -25.000000
v -0.282497 -0.075184 -25.000000
v -0.282497 -0.075184 -25.000000
v -0.287388 0.001496 -25.000000
v -0.282497 -0.075184 25.000000
v -0.287388 0.001496 -25.000000
v -0.287388 0.001496 25.000000
v -0.282497 -0.075184 25.000000
v -0.282497 -0.075184 25.000000
v -0.287388 0.001496 25.000000
v -0.285159 -0.075544 25.014999
v -0.287388 0.001496 25.000000
v -0.290073 0.001498 25.014999
v -0.285159 -0.075544 25.014999
v -0.285159 -0.075544 25.014999
v -0.290073 0.001498 25.014999
v -0.292432 -0.076526 25.025982
v -0.290073 0.001498 25.014999
v -0.297408 0.001502 25.025982
v -0.292432 -0.076526 25.025982
v -0.292432 -0.076526 25.025982
v -0.297408 0.001502 25.025982
v -0.302367 -0.077867 25.029999
v -0.297408 0.001502 25.025982
v -0.307429 0.001508 25.029999
v -0.302367 -0.077867 25.029999
v -0.307429 0.001508 -25.029999
v -0.302242 0.081383 -25.029999
v -0.297408 0.001502 -25.025980
v -0.302242 0.081383 -25.029999
v -0.292309 0.080018 -25.025980
v -0.297408 0.001502 -25.025980
v -0.297408 0.001502 -25.025980
v -0.292309 0.080018 -25.025980
v -0.290073 0.001498 -25.014999
v -0.292309 0.080018 -25.025980
v -0.285038 0.079018 -25.014999
v -0.290073 0.001498 -25.014999
v -0.290073 0.001498 -25.014999
v -0.285038 0.079018 -25.014999
v -0.287388 0.001496 -25.000000
v -0.285038 0.079018 -25.014999
v -0.282377 0.078652 -25.000000
v -0.287388 0.001496 -25.000000
v -0.287388 0.001496 -25.000000
v -0.282377 0.078652 -25.000000
v -0.287388 0.001496 25.000000
v -0.282377 0.078652 -25.000000
v -0.282377 0.078652 25.000000
v -0.287388 0.001496 25.000000
v -0.287388 0.001496 25.000000
v -0.282377 0.078652 25.000000
v -0.290073 0.001498 25.014999
v -0.282377 0.078652 25.000000
v -0.285038 0.079018 25.014999
v -0.290073 0.001498 25.014999
v -0.290073 0.001498 25.014999
v -0.285038 0.079018 25.014999
v -0.297408 0.001502 25.025982
v -0.285038 0.079018 25.014999
v -0.292309 0.080018 25.025982
v -0.297408 0.001502 25.025982
v -0.297408 0.001502 25.025982
v -0.292309 0.080018 25.025982
v -0.307429 0.001508 25.029999
v -0.292309 0.080018 25.025982
v -0.302242 0.081383 25.029999
v -0.307429 0.001508 25.029999
v -0.302242 0.081383 -25.029999
v -0.286679 0.155008 -25.029999
v -0.292309 0.080018 -25.025980
v -0.286679 0.155008 -25.029999
v -0.277060 0.152159 -25.025980
v -0.292309 0.080018 -25.025980
v -0.292309 0.080018 -25.025980
v -0.277060 0.152159 -25.025980
v -0.285038 0.079018 -25.014999
v -0.277060 0.152159 -25.025980
v -0.270019 0.150074 -25.014999
v -0.285038 0.079018 -25.014999
v -0.285038 0.079018 -25.014999
v -0.270019 0.150074 -25.014999
v -0.282377 0.078652 -25.000000
v -0.270019 0.150074 -25.014999
v -0.267441 0.149311 -25.000000
v -0.282377 0.078652 -25.000000
v -0.282377 0.078652 -25.000000
v -0.267441 0.149311 -25.000000
v -0.282377 0.078652 25.000000
v -0.267441 0.149311 -25.000000
v -0.267441 0.149311 25.000000
v -0.282377 0.078652 25.000000
v -0.282377 0.078652 25.000000
v -0.267441 0.149311 25.000000
v -0.285038 0.079018 25.014999
v -0.267441 0.149311 25.000000
v -0.270019 0.150074 25.014999
v -0.285038 0.079018 25.014999
v -0.285038 0.079018 25.014999
v -0.270019 0.150074 25.014999
v -0.292309 0.080018 25.025982
v -0.270019 0.150074 25.014999
v -0.277060 0.152159 25.025982
v -0.292309 0.080018 25.025982
v -0.292309 0.080018 25.025982
v -0.277060 0.152159 25.025982
v -0.302242 0.081383 25.029999
v -0.277060 0.152159 25.025982
v -0.286679 0.155008 25.029999
v -0.302242 0.081383 25.029999
v -0.286679 0.155008 -25.029999
v -0.260742 0.222383 -25.029999
v -0.277060 0.152159 -25.025980
v -0.260742 0.222383 -25.029999
v -0.251713 0.218002 -25.025980
v -0.277060 0.152159 -25.025980
v -0.277060 0.152159 -25.025980
v -0.251713 0.218002 -25.025980
v -0.270019 0.150074 -25.014999
v -0.251713 0.218002 -25.025980
v -0.245103 0.214794 -25.014999
v -0.270019 0.150074 -25.014999
v -0.270019 0.150074 -25.014999
v -0.245103 0.214794 -25.014999
v -0.267441 0.149311 -25.000000
v -0.245103 0.214794 -25.014999
v -0.242684 0.213620 -25.000000
v -0.267441 0.149311 -25.000000
v -0.267441 0.149311 -25.000000
v -0.242684 0.213620 -25.000000
v -0.267441 0.149311 25.000000
v -0.242684 0.213620 -25.000000
v -0.242684 0.213620 25.000000
v -0.267441 0.149311 25.000000
v -0.267441 0.149311 25.000000
v -0.242684 0.213620 25.000000
v -0.270019 0.150074 25.014999
v -0.242684 0.213620 25.000000
v -0.245103 0.214794 25.014999
v -0.270019 0.150074 25.014999
v -0.270019 0.150074 25.014999
v -0.245103 0.214794 25.014999
v -0.277060 0.152159 25.025982
v -0.245103 0.214794 25.014999
v -0.251713 0.218002 25.025982
v -0.277060 0.152159 25.025982
v -0.277060 0.152159 25.025982
v -0.251713 0.218002 25.025982
v -0.286679 0.155008 25.029999
v -0.251713 0.218002 25.025982
v -0.260742 0.222383 25.029999
v -0.286679 0.155008 25.029999
v -0.260742 0.222383 -25.029999
v -0.224429 0.283508 -25.029999
v -0.251713 0.218002 -25.025980
v -0.224429 0.283508 -25.029999
v -0.216335 0.277553 -25.025980
v -0.251713 0.218002 -25.025980
v -0.251713 0.218002 -25.025980
v -0.216335 0.277553 -25.025980
v -0.245103 0.214794 -25.014999
v -0.216335 0.277553 -25.025980
v -0.210409 0.273195 -25.014999
v -0.245103 0.214794 -25.014999
v -0.245103 0.214794 -25.014999
v -0.210409 0.273195 -25.014999
v -0.242684 0.213620 -25.000000
v -0.210409 0.273195 -25.014999
v -0.208241 0.271599 -25.000000
v -0.242684 0.213620 -25.000000
v -0.242684 0.213620 -25.000000
v -0.208241 0.271599 -25.000000
v -0.242684 0.213620 25.000000
v -0.208241 0.271599 -25.000000
v -0.208241 0.271599 25.000000
v -0.242684 0.213620 25.000000
v -0.242684 0.213620 25.000000
v -0.208241 0.271599 25.000000
v -0.245103 0.214794 25.014999
v -0.208241 0.271599 25.000000
v -0.210409 0.273195 25.014999
v -0.245103 0.214794 25.014999
v -0.245103 0.214794 25.014999
v -0.210409 0.273195 25.014999
v -0.251713 0.218002 25.025982
v -0.210409 0.273195 25.014999
v -0.216335 0.277553 25.025982
v -0.251713 0.218002 25.025982
v -0.251713 0.218002 25.025982
v -0.216335 0.277553 25.025982
v -0.260742 0.222383 25.029999
v -0.216335 0.277553 25.025982
v -0.224429 0.283508 25.029999
v -0.260742 0.222383 25.029999
v -0.224429 0.283508 -25.029999
v -0.173679 0.339945 -25.029999
v -0.216335 0.277553 -25.025980
v -0.173679 0.339945 -25.029999
v -0.167053 0.332358 -25.025980
v -0.216335 0.277553 -25.025980
v -0.216335 0.277553 -25.025980
v -0.167053 0.332358 -25.025980
v -0.210409 0.273195 -25.014999
v -0.167053 0.332358 -25.025980
v -0.162202 0.326804 -25.014999
v -0.210409 0.273195 -25.014999
v -0.210409 0.273195 -25.014999
v -0.162202 0.326804 -25.014999
v -0.208241 0.271599 -25.000000
v -0.162202 0.326804 -25.014999
v -0.160427 0.324772 -25.000000
v -0.208241 0.271599 -25.000000
v -0.208241 0.271599 -25.000000
v -0.160427 0.324772 -25.000000
v -0.208241 0.271599 25.000000
v -0.160427 0.324772 -25.000000
v -0.160427 0.324772 25.000000
v -0.208241 0.271599 25.000000
v -0.208241 0.271599 25.000000
v -0.160427 0.324772 25.000000
v -0.210409 0.273195 25.014999
v -0.160427 0.324772 25.000000
v -0.162202 0.326804 25.014999
v -0.210409 0.273195 25.014999
v -0.210409 0.273195 25.014999
v -0.162202 0.326804 25.014999
v -0.216335 0.277553 25.025982
v -0.162202 0.326804 25.014999
v -0.167053 0.332358 25.025982
v -0.216335 0.277553 25.025982
v -0.216335 0.277553 25.025982
v -0.167053 0.332358 25.025982
v -0.224429 0.283508 25.029999
v -0.167053 0.332358 25.025982
v -0.173679 0.339945 25.029999
v -0.224429 0.283508 25.029999
v -0.173679 0.339945 -25.029999
v -0.114429 0.380258 -25.029999
v -0.167053 0.332358 -25.025980
v -0.114429 0.380258 -25.029999
v -0.109862 0.371270 -25.025980
v -0.167053 0.332358 -25.025980
v -0.167053 0.332358 -25.025980
v -0.109862 0.371270 -25.025980
v -0.162202 0.326804 -25.014999
v -0.109862 0.371270 -25.025980
v -0.106518 0.364691 -25.014999
v -0.162202 0.326804 -25.014999
v -0.162202 0.326804 -25.014999
v -0.106518 0.364691 -25.014999
v -0.160427 0.324772 -25.000000
v -0.106518 0.364691 -25.014999
v -0.105295 0.362282 -25.000000
v -0.160427 0.324772 -25.000000
v -0.160427 0.324772 -25.000000
v -0.105295 0.362282 -25.000000
v -0.160427 0.324772 25.000000
v -0.105295 0.362282 -25.000000
v -0.105295 0.362282 25.000000
v -0.160427 0.324772 25.000000
v -0.160427 0.324772 25.000000
v -0.105295 0.362282 25.000000
v -0.162202 0.326804 25.014999
v -0.105295 0.362282 25.000000
v -0.106518 0.364691 25.014999
v -0.162202 0.326804 25.014999
v -0.162202 0.326804 25.014999
v -0.106518 0.364691 25.014999
v -0.167053 0.332358 25.025982
v -0.106518 0.364691 25.014999
v -0.109862 0.371270 25.025982
v -0.167053 0.332358 25.025982
v -0.167053 0.332358 25.025982
v -0.109862 0.371270 25.025982
v -0.173679 0.339945 25.029999
v -0.109862 0.371270 25.025982
v -0.114429 0.380258 25.029999
v -0.173679 0.339945 25.029999
v -0.114429 0.380258 -25.029999
v -0.046679 0.404445 -25.029999
v -0.109862 0.371270 -25.025980
v -0.046679 0.404445 -25.029999
v -0.044441 0.394626 -25.025980
v -0.109862 0.371270 -25.025980
v -0.109862 0.371270 -25.025980
v -0.044441 0.394626 -25.025980
v -0.106518 0.364691 -25.014999
v -0.044441 0.394626 -25.025980
v -0.042802 0.387438 -25.014999
v -0.106518 0.364691 -25.014999
v -0.106518 0.364691 -25.014999
v -0.042802 0.387438 -25.014999
v -0.105295 0.362282 -25.000000
v -0.042802 0.387438 -25.014999
v -0.042203 0.384807 -25.000000
v -0.105295 0.362282 -25.000000
v -0.105295 0.362282 -25.000000
v -0.042203 0.384807 -25.000000
v -0.105295 0.362282 25.000000
v -0.042203 0.384807 -25.000000
v -0.042203 0.384807 25.000000
v -0.105295 0.362282 25.000000
v -0.105295 0.362282 25.000000
v -0.042203 0.384807 25.000000
v -0.106518 0.364691 25.014999
v -0.042203 0.384807 25.000000
v -0.042802 0.387438 25.014999
v -0.106518 0.364691 25.014999
v -0.106518 0.364691 25.014999
v -0.042802 0.387438 25.014999
v -0.109862 0.371270 25.025982
v -0.042802 0.387438 25.014999
v -0.044441 0.394626 25.025982
v -0.109862 0.371270 25.025982
v -0.109862 0.371270 25.025982
v -0.044441 0.394626 25.025982
v -0.114429 0.380258 25.029999
v -0.044441 0.394626 25.025982
v -0.046679 0.404445 25.029999
v -0.114429 0.380258 25.029999
v -0.046679 0.404445 -25.029999
v 0.029571 0.412508 -25.029999
v -0.044441 0.394626 -25.025980
v 0.029571 0.412508 -25.029999
v 0.029725 0.402468 -25.025980
v -0.044441 0.394626 -25.025980
v -0.044441 0.394626 -25.025980
v 0.029725 0.402468 -25.025980
v -0.042802 0.387438 -25.014999
v 0.029725 0.402468 -25.025980
v 0.029838 0.395119 -25.014999
v -0.042802 0.387438 -25.014999
v -0.042802 0.387438 -25.014999
v 0.029838 0.395119 -25.014999
v -0.042203 0.384807 -25.000000
v 0.029838 0.395119 -25.014999
v 0.029879 0.392429 -25.000000
v -0.042203 0.384807 -25.000000
v -0.042203 0.384807 -25.000000
v 0.029879 0.392429 -25.000000
v -0.042203 0.384807 25.000000
v 0.029879 0.392429 -25.000000
v 0.029879 0.392429 25.000000
v -0.042203 0.384807 25.000000
v -0.042203 0.384807 25.000000
v 0.029879 0.392429 25.000000
v -0.042802 0.387438 25.014999
v 0.029879 0.392429 25.000000
v 0.029838 0.395119 25.014999
v -0.042802 0.387438 25.014999
v -0.042802 0.387438 25.014999
v 0.029838 0.395119 25.014999
v -0.044441 0.394626 25.025982
v 0.029838 0.395119 25.014999
v 0.029725 0.402468 25.025982
v -0.044441 0.394626 25.025982
v -0.044441 0.394626 25.025982
v 0.029725 0.402468 25.025982
v -0.046679 0.404445 25.029999
v 0.029725 0.402468 25.025982
v 0.029571 0.412508 25.029999
v -0.046679 0.404445 25.029999
v 0.029571 0.412508 -25.029999
v 0.078071 0.408883 -25.029999
v 0.029725 0.402468 -25.025980
v 0.078071 0.408883 -25.029999
v 0.076526 0.398970 -25.025980
v 0.029725 0.402468 -25.025980
v 0.029725 0.402468 -25.025980
v 0.076526 0.398970 -25.025980
v 0.029838 0.395119 -25.014999
v 0.076526 0.398970 -25.025980
v 0.075395 0.391714 -25.014999
v 0.029838 0.395119 -25.014999
v 0.029838 0.395119 -25.014999
v 0.075395 0.391714 -25.014999
v 0.029879 0.392429 -25.000000
v 0.075395 0.391714 -25.014999
v 0.074981 0.389058 -25.000000
v 0.029879 0.392429 -25.000000
v 0.029879 0.392429 -25.000000
v 0.074981 0.389058 -25.000000
v 0.029879 0.392429 25.000000
v 0.074981 0.389058 -25.000000
v 0.074981 0.389058 25.000000
v 0.029879 0.392429 25.000000
v 0.029879 0.392429 25.000000
v 0.074981 0.389058 25.000000
v 0.029838 0.395119 25.014999
v 0.074981 0.389058 25.000000
v 0.075395 0.391714 25.014999
v 0.029838 0.395119 25.014999
v 0.029838 0.395119 25.014999
v 0.075395 0.391714 25.014999
v 0.029725 0.402468 25.025982
v 0.075395 0.391714 25.014999
v 0.076526 0.398970 25.025982
v 0.029725 0.402468 25.025982
v 0.029725 0.402468 25.025982
v 0.076526 0.398970 25.025982
v 0.029571 0.412508 25.029999
v 0.076526 0.398970 25.025982
v 0.078071 0.408883 25.029999
v 0.029571 0.412508 25.029999
v 0.078071 0.408883 -25.029999
v 0.123571 0.398008 -25.029999
v 0.076526 0.398970 -25.025980
v 0.123571 0.398008 -25.029999
v 0.120425 0.388478 -25.025980
v 0.076526 0.398970 -25.025980
v 0.076526 0.398970 -25.025980
v 0.120425 0.388478 -25.025980
v 0.075395 0.391714 -25.014999
v 0.120425 0.388478 -25.025980
v 0.118122 0.381502 -25.014999
v 0.075395 0.391714 -25.014999
v 0.075395 0.391714 -25.014999
v 0.118122 0.381502 -25.014999
v 0.074981 0.389058 -25.000000
v 0.118122 0.381502 -25.014999
v 0.117279 0.378948 -25.000000
v 0.074981 0.389058 -25.000000
v 0.074981 0.389058 -25.000000
v 0.117279 0.378948 -25.000000
v 0.074981 0.389058 25.000000
v 0.117279 0.378948 -25.000000
v 0.117279 0.378948 25.000000
v 0.074981 0.389058 25.000000
v 0.074981 0.389058 25.000000
v 0.117279 0.378948 25.000000
v 0.075395 0.391714 25.014999
v 0.117279 0.378948 25.000000
v 0.118122 0.381502 25.014999
v 0.075395 0.391714 25.014999
v 0.075395 0.391714 25.014999
v 0.118122 0.381502 25.014999
v 0.076526 0.398970 25.025982
v 0.118122 0.381502 25.014999
v 0.120425 0.388478 25.025982
v 0.076526 0.398970 25.025982
v 0.076526 0.398970 25.025982
v 0.120425 0.388478 25.025982
v 0.078071 0.408883 25.029999
v 0.120425 0.388478 25.025982
v 0.123571 0.398008 25.029999
v 0.078071 0.408883 25.029999
v 0.123571 0.398008 -25.029999
v 0.166071 0.379883 -25.029999
v 0.120425 0.388478 -25.025980
v 0.166071 0.379883 -25.029999
v 0.161374 0.371014 -25.025980
v 0.120425 0.388478 -25.025980
v 0.120425 0.388478 -25.025980
v 0.161374 0.371014 -25.025980
v 0.118122 0.381502 -25.014999
v 0.161374 0.371014 -25.025980
v 0.157936 0.364522 -25.014999
v 0.118122 0.381502 -25.014999
v 0.118122 0.381502 -25.014999
v 0.157936 0.364522 -25.014999
v 0.117279 0.378948 -25.000000
v 0.157936 0.364522 -25.014999
v 0.156677 0.362146 -25.000000
v 0.117279 0.378948 -25.000000
v 0.117279 0.378948 -25.000000
v 0.156677 0.362146 -25.000000
v 0.117279 0.378948 25.000000
v 0.156677 0.362146 -25.000000
v 0.156677 0.362146 25.000000
v 0.117279 0.378948 25.000000
v 0.117279 0.378948 25.000000
v 0.156677 0.362146 25.000000
v 0.118122 0.381502 25.014999
v 0.156677 0.362146 25.000000
v 0.157936 0.364522 25.014999
v 0.118122 0.381502 25.014999
v 0.118122 0.381502 25.014999
v 0.157936 0.364522 25.014999
v 0.120425 0.388478 25.025982
v 0.157936 0.364522 25.014999
v 0.161374 0.371014 25.025982
v 0.120425 0.388478 25.025982
v 0.120425 0.388478 25.025982
v 0.161374 0.371014 25.025982
v 0.123571 0.398008 25.029999
v 0.161374 0.371014 25.025982
v 0.166071 0.379883 25.029999
v 0.123571 0.398008 25.029999
v 0.166071 0.379883 -25.029999
v 0.205571 0.354508 -25.029999
v 0.161374 0.371014 -25.025980
v 0.205571 0.354508 -25.029999
v 0.199464 0.346545 -25.025980
v 0.161374 0.371014 -25.025980
v 0.161374 0.371014 -25.025980
v 0.199464 0.346545 -25.025980
v 0.157936 0.364522 -25.014999
v 0.199464 0.346545 -25.025980
v 0.194994 0.340716 -25.014999
v 0.157936 0.364522 -25.014999
v 0.157936 0.364522 -25.014999
v 0.194994 0.340716 -25.014999
v 0.156677 0.362146 -25.000000
v 0.194994 0.340716 -25.014999
v 0.193358 0.338582 -25.000000
v 0.156677 0.362146 -25.000000
v 0.156677 0.362146 -25.000000
v 0.193358 0.338582 -25.000000
v 0.156677 0.362146 25.000000
v 0.193358 0.338582 -25.000000
v 0.193358 0.338582 25.000000
v 0.156677 0.362146 25.000000
v 0.156677 0.362146 25.000000
v 0.193358 0.338582 25.000000
v 0.157936 0.364522 25.014999
v 0.193358 0.338582 25.000000
v 0.194994 0.340716 25.014999
v 0.157936 0.364522 25.014999
v 0.157936 0.364522 25.014999
v 0.194994 0.340716 25.014999
v 0.161374 0.371014 25.025982
v 0.194994 0.340716 25.014999
v 0.199464 0.346545 25.025982
v 0.161374 0.371014 25.025982
v 0.161374 0.371014 25.025982
v 0.199464 0.346545 25.025982
v 0.166071 0.379883 25.029999
v 0.199464 0.346545 25.025982
v 0.205571 0.354508 25.029999
v 0.166071 0.379883 25.029999
v 0.205571 0.354508 -25.029999
v 0.239696 0.323508 -25.029999
v 0.199464 0.346545 -25.025980
v 0.239696 0.323508 -25.029999
v 0.232292 0.316723 -25.025980
v 0.199464 0.346545 -25.025980
v 0.199464 0.346545 -25.025980
v 0.232292 0.316723 -25.025980
v 0.194994 0.340716 -25.014999
v 0.232292 0.316723 -25.025980
v 0.226872 0.311757 -25.014999
v 0.194994 0.340716 -25.014999
v 0.194994 0.340716 -25.014999
v 0.226872 0.311757 -25.014999
v 0.193358 0.338582 -25.000000
v 0.226872 0.311757 -25.014999
v 0.224888 0.309939 -25.000000
v 0.193358 0.338582 -25.000000
v 0.193358 0.338582 -25.000000
v 0.224888 0.309939 -25.000000
v 0.193358 0.338582 25.000000
v 0.224888 0.309939 -25.000000
v 0.224888 0.309939 25.000000
v 0.193358 0.338582 25.000000
v 0.193358 0.338582 25.000000
v 0.224888 0.309939 25.000000
v 0.194994 0.340716 25.014999
v 0.224888 0.309939 25.000000
v 0.226872 0.311757 25.014999
v 0.194994 0.340716 25.014999
v 0.194994 0.340716 25.014999
v 0.226872 0.311757 25.014999
v 0.199464 0.346545 25.025982
v 0.226872 0.311757 25.014999
v 0.232292 0.316723 25.025982
v 0.199464 0.346545 25.025982
v 0.199464 0.346545 25.025982
v 0.232292 0.316723 25.025982
v 0.205571 0.354508 25.029999
v 0.232292 0.316723 25.025982
v 0.239696 0.323508 25.029999
v 0.205571 0.354508 25.029999
v 0.239696 0.323508 -25.029999
v 0.267071 0.287508 -25.029999
v 0.232292 0.316723 -25.025980
v 0.267071 0.287508 -25.029999
v 0.258552 0.282189 -25.025980
v 0.232292 0.316723 -25.025980
v 0.232292 0.316723 -25.025980
v 0.258552 0.282189 -25.025980
v 0.226872 0.311757 -25.014999
v 0.258552 0.282189 -25.025980
v 0.252316 0.278296 -25.014999
v 0.226872 0.311757 -25.014999
v 0.226872 0.311757 -25.014999
v 0.252316 0.278296 -25.014999
v 0.224888 0.309939 -25.000000
v 0.252316 0.278296 -25.014999
v 0.250034 0.276871 -25.000000
v 0.224888 0.309939 -25.000000
v 0.224888 0.309939 -25.000000
v 0.250034 0.276871 -25.000000
v 0.224888 0.309939 25.000000
v 0.250034 0.276871 -25.000000
v 0.250034 0.276871 25.000000
v 0.224888 0.309939 25.000000
v 0.224888 0.309939 25.000000
v 0.250034 0.276871 25.000000
v 0.226872 0.311757 25.014999
v 0.250034 0.276871 25.000000
v 0.252316 0.278296 25.014999
v 0.226872 0.311757 25.014999
v 0.226872 0.311757 25.014999
v 0.252316 0.278296 25.014999
v 0.232292 0.316723 25.025982
v 0.252316 0.278296 25.014999
v 0.258552 0.282189 25.025982
v 0.232292 0.316723 25.025982
v 0.232292 0.316723 25.025982
v 0.258552 0.282189 25.025982
v 0.239696 0.323508 25.029999
v 0.258552 0.282189 25.025982
v 0.267071 0.287508 25.029999
v 0.239696 0.323508 25.029999
v 0.267071 0.287508 -25.029999
v 0.287696 0.246508 -25.029999
v 0.258552 0.282189 -25.025980
v 0.287696 0.246508 -25.029999
v 0.278372 0.242789 -25.025980
v 0.258552 0.282189 -25.025980
v 0.258552 0.282189 -25.025980
v 0.278372 0.242789 -25.025980
v 0.252316 0.278296 -25.014999
v 0.278372 0.242789 -25.025980
v 0.271547 0.240067 -25.014999
v 0.252316 0.278296 -25.014999
v 0.252316 0.278296 -25.014999
v 0.271547 0.240067 -25.014999
v 0.250034 0.276871 -25.000000
v 0.271547 0.240067 -25.014999
v 0.269049 0.239070 -25.000000
v 0.250034 0.276871 -25.000000
v 0.250034 0.276871 -25.000000
v 0.269049 0.239070 -25.000000
v 0.250034 0.276871 25.000000
v 0.269049 0.239070 -25.000000
v 0.269049 0.239070 25.000000
v 0.250034 0.276871 25.000000
v 0.250034 0.276871 25.000000
v 0.269049 0.239070 25.000000
v 0.252316 0.278296 25.014999
v 0.269049 0.239070 25.000000
v 0.271547 0.240067 25.014999
v 0.252316 0.278296 25.014999
v 0.252316 0.278296 25.014999
v 0.271547 0.240067 25.014999
v 0.258552 0.282189 25.025982
v 0.271547 0.240067 25.014999
v 0.278372 0.242789 25.025982
v 0.258552 0.282189 25.025982
v 0.258552 0.282189 25.025982
v 0.278372 0.242789 25.025982
v 0.267071 0.287508 25.029999
v 0.278372 0.242789 25.025982
v 0.287696 0.246508 25.029999
v 0.267071 0.287508 25.029999
v 0.287696 0.246508 -25.029999
v 0.301571 0.200508 -25.029999
v 0.278372 0.242789 -25.025980
v 0.301571 0.200508 -25.029999
v 0.294142 0.190508 -25.025980
v 0.278372 0.242789 -25.025980
v 0.278372 0.242789 -25.025980
v 0.294142 0.190508 -25.025980
v 0.271547 0.240067 -25.014999
v 0.294142 0.190508 -25.025980
v 0.288704 0.183187 -25.014999
v 0.271547 0.240067 -25.014999
v 0.271547 0.240067 -25.014999
v 0.288704 0.183187 -25.014999
v 0.269049 0.239070 -25.000000
v 0.288704 0.183187 -25.014999
v 0.286713 0.180508 -25.000000
v 0.269049 0.239070 -25.000000
v 0.269049 0.239070 -25.000000
v 0.286713 0.180508 -25.000000
v 0.269049 0.239070 25.000000
v 0.286713 0.180508 -25.000000
v 0.286713 0.180508 25.000000
v 0.269049 0.239070 25.000000
v 0.269049 0.239070 25.000000
v 0.286713 0.180508 25.000000
v 0.271547 0.240067 25.014999
v 0.286713 0.180508 25.000000
v 0.288704 0.183187 25.014999
v 0.271547 0.240067 25.014999
v 0.271547 0.240067 25.014999
v 0.288704 0.183187 25.014999
v 0.278372 0.242789 25.025982
v 0.288704 0.183187 25.014999
v 0.294142 0.190508 25.025982
v 0.278372 0.242789 25.025982
v 0.278372 0.242789 25.025982
v 0.294142 0.190508 25.025982
v 0.287696 0.246508 25.029999
v 0.294142 0.190508 25.025982
v 0.301571 0.200508 25.029999
v 0.287696 0.246508 25.029999
v 0.301571 0.200508 -25.029999
v 0.435571 0.200508 -25.029999
v 0.294142 0.190508 -25.025980
v 0.435571 0.200508 -25.029999
v 0.446120 0.191089 -25.025980
v 0.294142 0.190508 -25.025980
v 0.294142 0.190508 -25.025980
v 0.446120 0.191089 -25.025980
v 0.288704 0.183187 -25.014999
v 0.446120 0.191089 -25.025980
v 0.453843 0.184194 -25.014999
v 0.288704 0.183187 -25.014999
v 0.288704 0.183187 -25.014999
v 0.453843 0.184194 -25.014999
v 0.286713 0.180508 -25.000000
v 0.453843 0.184194 -25.014999
v 0.456670 0.181670 -25.000000
v 0.286713 0.180508 -25.000000
v 0.286713 0.180508 -25.000000
v 0.456670 0.181670 -25.000000
v 0.286713 0.180508 25.000000
v 0.456670 0.181670 -25.000000
v 0.456670 0.181670 25.000000
v 0.286713 0.180508 25.000000
v 0.286713 0.180508 25.000000
v 0.456670 0.181670 25.000000
v 0.288704 0.183187 25.014999
v 0.456670 0.181670 25.000000
v 0.453843 0.184194 25.014999
v 0.288704 0.183187 25.014999
v 0.288704 0.183187 25.014999
v 0.453843 0.184194 25.014999
v 0.294142 0.190508 25.025982
v 0.453843 0.184194 25.014999
v 0.446120 0.191089 25.025982
v 0.294142 0.190508 25.025982
v 0.294142 0.190508 25.025982
v 0.446120 0.191089 25.025982
v 0.301571 0.200508 25.029999
v 0.446120 0.191089 25.025982
v 0.435571 0.200508 25.029999
v 0.301571 0.200508 25.029999
v 0.435571 0.200508 -25.029999
v 0.427383 0.272570 -25.029999
v 0.446120 0.191089 -25.025980
v 0.427383 0.272570 -25.029999
v 0.437179 0.274933 -25.025980
v 0.446120 0.191089 -25.025980
v 0.446120 0.191089 -25.025980
v 0.437179 0.274933 -25.025980
v 0.453843 0.184194 -25.014999
v 0.437179 0.274933 -25.025980
v 0.444350 0.276664 -25.014999
v 0.453843 0.184194 -25.014999
v 0.453843 0.184194 -25.014999
v 0.444350 0.276664 -25.014999
v 0.456670 0.181670 -25.000000
v 0.444350 0.276664 -25.014999
v 0.446975 0.277297 -25.000000
v 0.456670 0.181670 -25.000000
v 0.456670 0.181670 -25.000000
v 0.446975 0.277297 -25.000000
v 0.456670 0.181670 25.000000
v 0.446975 0.277297 -25.000000
v 0.446975 0.277297 25.000000
v 0.456670 0.181670 25.000000
v 0.456670 0.181670 25.000000
v 0.446975 0.277297 25.000000
v 0.453843 0.184194 25.014999
v 0.446975 0.277297 25.000000
v 0.444350 0.276664 25.014999
v 0.453843 0.184194 25.014999
v 0.453843 0.184194 25.014999
v 0.444350 0.276664 25.014999
v 0.446120 0.191089 25.025982
v 0.444350 0.276664 25.014999
v 0.437179 0.274933 25.025982
v 0.446120 0.191089 25.025982
v 0.446120 0.191089 25.025982
v 0.437179 0.274933 25.025982
v 0.435571 0.200508 25.029999
v 0.437179 0.274933 25.025982
v 0.427383 0.272570 25.029999
v 0.435571 0.200508 25.029999
v 0.427383 0.272570 -25.029999
v 0.402821 0.337758 -25.029999
v 0.437179 0.274933 -25.025980
v 0.402821 0.337758 -25.029999
v 0.411732 0.342468 -25.025980
v 0.437179 0.274933 -25.025980
v 0.437179 0.274933 -25.025980
v 0.411732 0.342468 -25.025980
v 0.444350 0.276664 -25.014999
v 0.411732 0.342468 -25.025980
v 0.418256 0.345916 -25.014999
v 0.444350 0.276664 -25.014999
v 0.444350 0.276664 -25.014999
v 0.418256 0.345916 -25.014999
v 0.446975 0.277297 -25.000000
v 0.418256 0.345916 -25.014999
v 0.420644 0.347178 -25.000000
v 0.446975 0.277297 -25.000000
v 0.446975 0.277297 -25.000000
v 0.420644 0.347178 -25.000000
v 0.446975 0.277297 25.000000
v 0.420644 0.347178 -25.000000
v 0.420644 0.347178 25.000000
v 0.446975 0.277297 25.000000
v 0.446975 0.277297 25.000000
v 0.420644 0.347178 25.000000
v 0.444350 0.276664 25.014999
v 0.420644 0.347178 25.000000
v 0.418256 0.345916 25.014999
v 0.444350 0.276664 25.014999
v 0.444350 0.276664 25.014999
v 0.418256 0.345916 25.014999
v 0.437179 0.274933 25.025982
v 0.418256 0.345916 25.014999
v 0.411732 0.342468 25.025982
v 0.437179 0.274933 25.025982
v 0.437179 0.274933 25.025982
v 0.411732 0.342468 25.025982
v 0.427383 0.272570 25.029999
v 0.411732 0.342468 25.025982
v 0.402821 0.337758 25.029999
v 0.427383 0.272570 25.029999
v 0.402821 0.337758 -25.029999
v 0.361883 0.396070 -25.029999
v 0.411732 0.342468 -25.025980
v 0.361883 0.396070 -25.029999
v 0.369412 0.402750 -25.025980
v 0.411732 0.342468 -25.025980
v 0.411732 0.342468 -25.025980
v 0.369412 0.402750 -25.025980
v 0.418256 0.345916 -25.014999
v 0.369412 0.402750 -25.025980
v 0.374923 0.407640 -25.014999
v 0.418256 0.345916 -25.014999
v 0.418256 0.345916 -25.014999
v 0.374923 0.407640 -25.014999
v 0.420644 0.347178 -25.000000
v 0.374923 0.407640 -25.014999
v 0.376941 0.409430 -25.000000
v 0.420644 0.347178 -25.000000
v 0.420644 0.347178 -25.000000
v 0.376941 0.409430 -25.000000
v 0.420644 0.347178 25.000000
v 0.376941 0.409430 -25.000000
v 0.376941 0.409430 25.000000
v 0.420644 0.347178 25.000000
v 0.420644 0.347178 25.000000
v 0.376941 0.409430 25.000000
v 0.418256 0.345916 25.014999
v 0.376941 0.409430 25.000000
v 0.374923 0.407640 25.014999
v 0.418256 0.345916 25.014999
v 0.418256 0.345916 25.014999
v 0.374923 0.407640 25.014999
v 0.411732 0.342468 25.025982
v 0.374923 0.407640 25.014999
v 0.369412 0.402750 25.025982
v 0.411732 0.342468 25.025982
v 0.411732 0.342468 25.025982
v 0.369412 0.402750 25.025982
v 0.402821 0.337758 25.029999
v 0.369412 0.402750 25.025982
v 0.361883 0.396070 25.029999
v 0.402821 0.337758 25.029999
v 0.361883 0.396070 -25.029999
v 0.304571 0.447508 -25.029999
v 0.369412 0.402750 -25.025980
v 0.304571 0.447508 -25.029999
v 0.310565 0.455565 -25.025980
v 0.369412 0.402750 -25.025980
v 0.369412 0.402750 -25.025980
v 0.310565 0.455565 -25.025980
v 0.374923 0.407640 -25.014999
v 0.310565 0.455565 -25.025980
v 0.314952 0.461464 -25.014999
v 0.374923 0.407640 -25.014999
v 0.374923 0.407640 -25.014999
v 0.314952 0.461464 -25.014999
v 0.376941 0.409430 -25.000000
v 0.314952 0.461464 -25.014999
v 0.316558 0.463623 -25.000000
v 0.376941 0.409430 -25.000000
v 0.376941 0.409430 -25.000000
v 0.316558 0.463623 -25.000000
v 0.376941 0.409430 25.000000
v 0.316558 0.463623 -25.000000
v 0.316558 0.463623 25.000000
v 0.376941 0.409430 25.000000
v 0.376941 0.409430 25.000000
v 0.316558 0.463623 25.000000
v 0.374923 0.407640 25.014999
v 0.316558 0.463623 25.000000
v 0.314952 0.461464 25.014999
v 0.374923 0.407640 25.014999
v 0.374923 0.407640 25.014999
v 0.314952 0.461464 25.014999
v 0.369412 0.402750 25.025982
v 0.314952 0.461464 25.014999
v 0.310565 0.455565 25.025982
v 0.369412 0.402750 25.025982
v 0.369412 0.402750 25.025982
v 0.310565 0.455565 25.025982
v 0.361883 0.396070 25.029999
v 0.310565 0.455565 25.025982
v 0.304571 0.447508 25.029999
v 0.361883 0.396070 25.029999
v 0.304571 0.447508 -25.029999
v 0.242883 0.485133 -25.029999
v 0.310565 0.455565 -25.025980
v 0.242883 0.485133 -25.029999
v 0.247378 0.494105 -25.025980
v 0.310565 0.455565 -25.025980
v 0.310565 0.455565 -25.025980
v 0.247378 0.494105 -25.025980
v 0.314952 0.461464 -25.014999
v 0.247378 0.494105 -25.025980
v 0.250668 0.500672 -25.014999
v 0.314952 0.461464 -25.014999
v 0.314952 0.461464 -25.014999
v 0.250668 0.500672 -25.014999
v 0.316558 0.463623 -25.000000
v 0.250668 0.500672 -25.014999
v 0.251873 0.503076 -25.000000
v 0.316558 0.463623 -25.000000
v 0.316558 0.463623 -25.000000
v 0.251873 0.503076 -25.000000
v 0.316558 0.463623 25.000000
v 0.251873 0.503076 -25.000000
v 0.251873 0.503076 25.000000
v 0.316558 0.463623 25.000000
v 0.316558 0.463623 25.000000
v 0.251873 0.503076 25.000000
v 0.314952 0.461464 25.014999
v 0.251873 0.503076 25.000000
v 0.250668 0.500672 25.014999
v 0.314952 0.461464 25.014999
v 0.314952 0.461464 25.014999
v 0.250668 0.500672 25.014999
v 0.310565 0.455565 25.025982
v 0.250668 0.500672 25.014999
v 0.247378 0.494105 25.025982
v 0.310565 0.455565 25.025982
v 0.310565 0.455565 25.025982
v 0.247378 0.494105 25.025982
v 0.304571 0.447508 25.029999
v 0.247378 0.494105 25.025982
v 0.242883 0.485133 25.029999
v 0.304571 0.447508 25.029999
v 0.242883 0.485133 -25.029999
v 0.175821 0.512008 -25.029999
v 0.247378 0.494105 -25.025980
v 0.175821 0.512008 -25.029999
v 0.178787 0.521592 -25.025980
v 0.247378 0.494105 -25.025980
v 0.247378 0.494105 -25.025980
v 0.178787 0.521592 -25.025980
v 0.250668 0.500672 -25.014999
v 0.178787 0.521592 -25.025980
v 0.180958 0.528609 -25.014999
v 0.250668 0.500672 -25.014999
v 0.250668 0.500672 -25.014999
v 0.180958 0.528609 -25.014999
v 0.251873 0.503076 -25.000000
v 0.180958 0.528609 -25.014999
v 0.181752 0.531177 -25.000000
v 0.251873 0.503076 -25.000000
v 0.251873 0.503076 -25.000000
v 0.181752 0.531177 -25.000000
v 0.251873 0.503076 25.000000
v 0.181752 0.531177 -25.000000
v 0.181752 0.531177 25.000000
v 0.251873 0.503076 25.000000
v 0.251873 0.503076 25.000000
v 0.181752 0.531177 25.000000
v 0.250668 0.500672 25.014999
v 0.181752 0.531177 25.000000
v 0.180958 0.528609 25.014999
v 0.250668 0.500672 25.014999
v 0.250668 0.500672 25.014999
v 0.180958 0.528609 25.014999
v 0.247378 0.494105 25.025982
v 0.180958 0.528609 25.014999
v 0.178787 0.521592 25.025982
v 0.247378 0.494105 25.025982
v 0.247378 0.494105 25.025982
v 0.178787 0.521592 25.025982
v 0.242883 0.485133 25.029999
v 0.178787 0.521592 25.025982
v 0.175821 0.512008 25.029999
v 0.242883 0.485133 25.029999
v 0.175821 0.512008 -25.029999
v 0.103383 0.528133 -25.029999
v 0.178787 0.521592 -25.025980
v 0.103383 0.528133 -25.029999
v 0.104822 0.538057 -25.025980
v 0.178787 0.521592 -25.025980
v 0.178787 0.521592 -25.025980
v 0.104822 0.538057 -25.025980
v 0.180958 0.528609 -25.014999
v 0.104822 0.538057 -25.025980
v 0.105876 0.545322 -25.014999
v 0.180958 0.528609 -25.014999
v 0.180958 0.528609 -25.014999
v 0.105876 0.545322 -25.014999
v 0.181752 0.531177 -25.000000
v 0.105876 0.545322 -25.014999
v 0.106261 0.547981 -25.000000
v 0.181752 0.531177 -25.000000
v 0.181752 0.531177 -25.000000
v 0.106261 0.547981 -25.000000
v 0.181752 0.531177 25.000000
v 0.106261 0.547981 -25.000000
v 0.106261 0.547981 25.000000
v 0.181752 0.531177 25.000000
v 0.181752 0.531177 25.000000
v 0.106261 0.547981 25.000000
v 0.180958 0.528609 25.014999
v 0.106261 0.547981 25.000000
v 0.105876 0.545322 25.014999
v 0.180958 0.528609 25.014999
v 0.180958 0.528609 25.014999
v 0.105876 0.545322 25.014999
v 0.178787 0.521592 25.025982
v 0.105876 0.545322 25.014999
v 0.104822 0.538057 25.025982
v 0.178787 0.521592 25.025982
v 0.178787 0.521592 25.025982
v 0.104822 0.538057 25.025982
v 0.175821 0.512008 25.029999
v 0.104822 0.538057 25.025982
v 0.103383 0.528133 25.029999
v 0.175821 0.512008 25.029999
v 0.103383 0.528133 -25.029999
v 0.025571 0.533508 -25.029999
v 0.104822 0.538057 -25.025980
v 0.025571 0.533508 -25.029999
v 0.025448 0.543540 -25.025980
v 0.104822 0.538057 -25.025980
v 0.104822 0.538057 -25.025980
v 0.025448 0.543540 -25.025980
v 0.105876 0.545322 -25.014999
v 0.025448 0.543540 -25.025980
v 0.025357 0.550884 -25.014999
v 0.105876 0.545322 -25.014999
v 0.105876 0.545322 -25.014999
v 0.025357 0.550884 -25.014999
v 0.106261 0.547981 -25.000000
v 0.025357 0.550884 -25.014999
v 0.025324 0.553572 -25.000000
v 0.106261 0.547981 -25.000000
v 0.106261 0.547981 -25.000000
v 0.025324 0.553572 -25.000000
v 0.106261 0.547981 25.000000
v 0.025324 0.553572 -25.000000
v 0.025324 0.553572 25.000000
v 0.106261 0.547981 25.000000
v 0.106261 0.547981 25.000000
v 0.025324 0.553572 25.000000
v 0.105876 0.545322 25.014999
v 0.025324 0.553572 25.000000
v 0.025357 0.550884 25.014999
v 0.105876 0.545322 25.014999
v 0.105876 0.545322 25.014999
v 0.025357 0.550884 25.014999
v 0.104822 0.538057 25.025982
v 0.025357 0.550884 25.014999
v 0.025448 0.543540 25.025982
v 0.104822 0.538057 25.025982
v 0.104822 0.538057 25.025982
v 0.025448 0.543540 25.025982
v 0.103383 0.528133 25.029999
v 0.025448 0.543540 25.025982
v 0.025571 0.533508 25.029999
v 0.103383 0.528133 25.029999
v 0.025571 0.533508 -25.029999
v -0.080367 0.523570 -25.029999
v 0.025448 0.543540 -25.025980
v -0.080367 0.523570 -25.029999
v -0.082371 0.533426 -25.025980
v 0.025448 0.543540 -25.025980
v 0.025448 0.543540 -25.025980
v -0.082371 0.533426 -25.025980
v 0.025357 0.550884 -25.014999
v -0.082371 0.533426 -25.025980
v -0.083838 0.540641 -25.014999
v 0.025357 0.550884 -25.014999
v 0.025357 0.550884 -25.014999
v -0.083838 0.540641 -25.014999
v 0.025324 0.553572 -25.000000
v -0.083838 0.540641 -25.014999
v -0.084375 0.543282 -25.000000
v 0.025324 0.553572 -25.000000
v 0.025324 0.553572 -25.000000
v -0.084375 0.543282 -25.000000
v 0.025324 0.553572 25.000000
v -0.084375 0.543282 -25.000000
v -0.084375 0.543282 25.000000
v 0.025324 0.553572 25.000000
v 0.025324 0.553572 25.000000
v -0.084375 0.543282 25.000000
v 0.025357 0.550884 25.014999
v -0.084375 0.543282 25.000000
v -0.083838 0.540641 25.014999
v 0.025357 0.550884 25.014999
v 0.025357 0.550884 25.014999
v -0.083838 0.540641 25.014999
v 0.025448 0.543540 25.025982
v -0.083838 0.540641 25.014999
v -0.082371 0.533426 25.025982
v 0.025448 0.543540 25.025982
v 0.025448 0.543540 25.025982
v -0.082371 0.533426 25.025982
v 0.025571 0.533508 25.029999
v -0.082371 0.533426 25.025982
v -0.080367 0.523570 25.029999
v 0.025571 0.533508 25.029999
v -0.080367 0.523570 -25.029999
v -0.174179 0.493758 -25.029999
v -0.082371 0.533426 -25.025980
v -0.174179 0.493758 -25.029999
v -0.178351 0.502925 -25.025980
v -0.082371 0.533426 -25.025980
v -0.082371 0.533426 -25.025980
v -0.178351 0.502925 -25.025980
v -0.083838 0.540641 -25.014999
v -0.178351 0.502925 -25.025980
v -0.181405 0.509635 -25.014999
v -0.083838 0.540641 -25.014999
v -0.083838 0.540641 -25.014999
v -0.181405 0.509635 -25.014999
v -0.084375 0.543282 -25.000000
v -0.181405 0.509635 -25.014999
v -0.182523 0.512092 -25.000000
v -0.084375 0.543282 -25.000000
v -0.084375 0.543282 -25.000000
v -0.182523 0.512092 -25.000000
v -0.084375 0.543282 25.000000
v -0.182523 0.512092 -25.000000
v -0.182523 0.512092 25.000000
v -0.084375 0.543282 25.000000
v -0.084375 0.543282 25.000000
v -0.182523 0.512092 25.000000
v -0.083838 0.540641 25.014999
v -0.182523 0.512092 25.000000
v -0.181405 0.509635 25.014999
v -0.083838 0.540641 25.014999
v -0.083838 0.540641 25.014999
v -0.181405 0.509635 25.014999
v -0.082371 0.533426 25.025982
v -0.181405 0.509635 25.014999
v -0.178351 0.502925 25.025982
v -0.082371 0.533426 25.025982
v -0.082371 0.533426 25.025982
v -0.178351 0.502925 25.025982
v -0.080367 0.523570 25.029999
v -0.178351 0.502925 25.025982
v -0.174179 0.493758 25.029999
v -0.080367 0.523570 25.029999
v -0.174179 0.493758 -25.029999
v -0.255867 0.444070 -25.029999
v -0.178351 0.502925 -25.025980
v -0.255867 0.444070 -25.029999
v -0.262089 0.451990 -25.025980
v -0.178351 0.502925 -25.025980
v -0.178351 0.502925 -25.025980
v -0.262089 0.451990 -25.025980
v -0.181405 0.509635 -25.014999
v -0.262089 0.451990 -25.025980
v -0.266644 0.457788 -25.014999
v -0.181405 0.509635 -25.014999
v -0.181405 0.509635 -25.014999
v -0.266644 0.457788 -25.014999
v -0.182523 0.512092 -25.000000
v -0.266644 0.457788 -25.014999
v -0.268311 0.459910 -25.000000
v -0.182523 0.512092 -25.000000
v -0.182523 0.512092 -25.000000
v -0.268311 0.459910 -25.000000
v -0.182523 0.512092 25.000000
v -0.268311 0.459910 -25.000000
v -0.268311 0.459910 25.000000
v -0.182523 0.512092 25.000000
v -0.182523 0.512092 25.000000
v -0.268311 0.459910 25.000000
v -0.181405 0.509635 25.014999
v -0.268311 0.459910 25.000000
v -0.266644 0.457788 25.014999
v -0.181405 0.509635 25.014999
v -0.181405 0.509635 25.014999
v -0.266644 0.457788 25.014999
v -0.178351 0.502925 25.025982
v -0.266644 0.457788 25.014999
v -0.262089 0.451990 25.025982
v -0.178351 0.502925 25.025982
v -0.178351 0.502925 25.025982
v -0.262089 0.451990 25.025982
v -0.174179 0.493758 25.029999
v -0.262089 0.451990 25.025982
v -0.255867 0.444070 25.029999
v -0.174179 0.493758 25.029999
v -0.255867 0.444070 -25.029999
v -0.325429 0.374508 -25.029999
v -0.262089 0.451990 -25.025980
v -0.325429 0.374508 -25.029999
v -0.333206 0.380873 -25.025980
v -0.262089 0.451990 -25.025980
v -0.262089 0.451990 -25.025980
v -0.333206 0.380873 -25.025980
v -0.266644 0.457788 -25.014999
v -0.333206 0.380873 -25.025980
v -0.338899 0.385533 -25.014999
v -0.266644 0.457788 -25.014999
v -0.266644 0.457788 -25.014999
v -0.338899 0.385533 -25.014999
v -0.268311 0.459910 -25.000000
v -0.338899 0.385533 -25.014999
v -0.340982 0.387239 -25.000000
v -0.268311 0.459910 -25.000000
v -0.268311 0.459910 -25.000000
v -0.340982 0.387239 -25.000000
v -0.268311 0.459910 25.000000
v -0.340982 0.387239 -25.000000
v -0.340982 0.387239 25.000000
v -0.268311 0.459910 25.000000
v -0.268311 0.459910 25.000000
v -0.340982 0.387239 25.000000
v -0.266644 0.457788 25.014999
v -0.340982 0.387239 25.000000
v -0.338899 0.385533 25.014999
v -0.266644 0.457788 25.014999
v -0.266644 0.457788 25.014999
v -0.338899 0.385533 25.014999
v -0.262089 0.451990 25.025982
v -0.338899 0.385533 25.014999
v -0.333206 0.380873 25.025982
v -0.262089 0.451990 25.025982
v -0.262089 0.451990 25.025982
v -0.333206 0.380873 25.025982
v -0.255867 0.444070 25.029999
v -0.333206 0.380873 25.025982
v -0.325429 0.374508 25.029999
v -0.255867 0.444070 25.029999
v -0.325429 0.374508 -25.029999
v -0.377054 0.296820 -25.029999
v -0.333206 0.380873 -25.025980
v -0.377054 0.296820 -25.029999
v -0.385910 0.301561 -25.025980
v -0.333206 0.380873 -25.025980
v -0.333206 0.380873 -25.025980
v -0.385910 0.301561 -25.025980
v -0.338899 0.385533 -25.014999
v -0.385910 0.301561 -25.025980
v -0.392393 0.305032 -25.014999
v -0.338899 0.385533 -25.014999
v -0.338899 0.385533 -25.014999
v -0.392393 0.305032 -25.014999
v -0.340982 0.387239 -25.000000
v -0.392393 0.305032 -25.014999
v -0.394766 0.306302 -25.000000
v -0.340982 0.387239 -25.000000
v -0.340982 0.387239 -25.000000
v -0.394766 0.306302 -25.000000
v -0.340982 0.387239 25.000000
v -0.394766 0.306302 -25.000000
v -0.394766 0.306302 25.000000
v -0.340982 0.387239 25.000000
v -0.340982 0.387239 25.000000
v -0.394766 0.306302 25.000000
v -0.338899 0.385533 25.014999
v -0.394766 0.306302 25.000000
v -0.392393 0.305032 25.014999
v -0.338899 0.385533 25.014999
v -0.338899 0.385533 25.014999
v -0.392393 0.305032 25.014999
v -0.333206 0.380873 25.025982
v -0.392393 0.305032 25.014999
v -0.385910 0.301561 25.025982
v -0.333206 0.380873 25.025982
v -0.333206 0.380873 25.025982
v -0.385910 0.301561 25.025982
v -0.325429 0.374508 25.029999
v -0.385910 0.301561 25.025982
v -0.377054 0.296820 25.029999
v -0.325429 0.374508 25.029999
v -0.377054 0.296820 -25.029999
v -0.413929 0.208758 -25.029999
v -0.385910 0.301561 -25.025980
v -0.413929 0.208758 -25.029999
v -0.423493 0.211809 -25.025980
v -0.385910 0.301561 -25.025980
v -0.385910 0.301561 -25.025980
v -0.423493 0.211809 -25.025980
v -0.392393 0.305032 -25.014999
v -0.423493 0.211809 -25.025980
v -0.430494 0.214042 -25.014999
v -0.392393 0.305032 -25.014999
v -0.392393 0.305032 -25.014999
v -0.430494 0.214042 -25.014999
v -0.394766 0.306302 -25.000000
v -0.430494 0.214042 -25.014999
v -0.433057 0.214860 -25.000000
v -0.394766 0.306302 -25.000000
v -0.394766 0.306302 -25.000000
v -0.433057 0.214860 -25.000000
v -0.394766 0.306302 25.000000
v -0.433057 0.214860 -25.000000
v -0.433057 0.214860 25.000000
v -0.394766 0.306302 25.000000
v -0.394766 0.306302 25.000000
v -0.433057 0.214860 25.000000
v -0.392393 0.305032 25.014999
v -0.433057 0.214860 25.000000
v -0.430494 0.214042 25.014999
v -0.392393 0.305032 25.014999
v -0.392393 0.305032 25.014999
v -0.430494 0.214042 25.014999
v -0.385910 0.301561 25.025982
v -0.430494 0.214042 25.014999
v -0.423493 0.211809 25.025982
v -0.385910 0.301561 25.025982
v -0.385910 0.301561 25.025982
v -0.423493 0.211809 25.025982
v -0.377054 0.296820 25.029999
v -0.423493 0.211809 25.025982
v -0.413929 0.208758 25.029999
v -0.377054 0.296820 25.029999
v -0.413929 0.208758 -25.029999
v -0.436054 0.110320 -25.029999
v -0.423493 0.211809 -25.025980
v -0.436054 0.110320 -25.029999
v -0.445979 0.111763 -25.025980
v -0.423493 0.211809 -25.025980
v -0.423493 0.211809 -25.025980
v -0.445979 0.111763 -25.025980
v -0.430494 0.214042 -25.014999
v -0.445979 0.111763 -25.025980
v -0.453245 0.112820 -25.014999
v -0.430494 0.214042 -25.014999
v -0.430494 0.214042 -25.014999
v -0.453245 0.112820 -25.014999
v -0.433057 0.214860 -25.000000
v -0.453245 0.112820 -25.014999
v -0.455904 0.113206 -25.000000
v -0.433057 0.214860 -25.000000
v -0.433057 0.214860 -25.000000
v -0.455904 0.113206 -25.000000
v -0.433057 0.214860 25.000000
v -0.455904 0.113206 -25.000000
v -0.455904 0.113206 25.000000
v -0.433057 0.214860 25.000000
v -0.433057 0.214860 25.000000
v -0.455904 0.113206 25.000000
v -0.430494 0.214042 25.014999
v -0.455904 0.113206 25.000000
v -0.453245 0.112820 25.014999
v -0.430494 0.214042 25.014999
v -0.430494 0.214042 25.014999
v -0.453245 0.112820 25.014999
v -0.423493 0.211809 25.025982
v -0.453245 0.112820 25.014999
v -0.445979 0.111763 25.025982
v -0.423493 0.211809 25.025982
v -0.423493 0.211809 25.025982
v -0.445979 0.111763 25.025982
v -0.413929 0.208758 25.029999
v -0.445979 0.111763 25.025982
v -0.436054 0.110320 25.029999
v -0.413929 0.208758 25.029999
v -0.436054 0.110320 -25.029999
v -0.443429 0.001508 -25.029999
v -0.445979 0.111763 -25.025980
v -0.443429 0.001508 -25.029999
v -0.453451 0.001523 -25.025980
v -0.445979 0.111763 -25.025980
v -0.445979 0.111763 -25.025980
v -0.453451 0.001523 -25.025980
v -0.453245 0.112820 -25.014999
v -0.453451 0.001523 -25.025980
v -0.460788 0.001534 -25.014999
v -0.453245 0.112820 -25.014999
v -0.453245 0.112820 -25.014999
v -0.460788 0.001534 -25.014999
v -0.455904 0.113206 -25.000000
v -0.460788 0.001534 -25.014999
v -0.463473 0.001538 -25.000000
v -0.455904 0.113206 -25.000000
v -0.455904 0.113206 -25.000000
v -0.463473 0.001538 -25.000000
v -0.455904 0.113206 25.000000
v -0.463473 0.001538 -25.000000
v -0.463473 0.001538 25.000000
v -0.455904 0.113206 25.000000
v -0.455904 0.113206 25.000000
v -0.463473 0.001538 25.000000
v -0.453245 0.112820 25.014999
v -0.463473 0.001538 25.000000
v -0.460788 0.001534 25.014999
v -0.453245 0.112820 25.014999
v -0.453245 0.112820 25.014999
v -0.460788 0.001534 25.014999
v -0.445979 0.111763 25.025982
v -0.460788 0.001534 25.014999
v -0.453451 0.001523 25.025982
v -0.445979 0.111763 25.025982
v -0.445979 0.111763 25.025982
v -0.453451 0.001523 25.025982
v -0.436054 0.110320 25.029999
v -0.453451 0.001523 25.025982
v -0.443429 0.001508 25.029999
v -0.436054 0.110320 25.029999
v -0.443429 0.001508 -25.029999
v -0.436429 -0.106555 -25.029999
v -0.453451 0.001523 -25.025980
v -0.436429 -0.106555 -25.029999
v -0.446361 -0.107931 -25.025980
v -0.453451 0.001523 -25.025980
v -0.453451 0.001523 -25.025980
v -0.446361 -0.107931 -25.025980
v -0.460788 0.001534 -25.014999
v -0.446361 -0.107931 -25.025980
v -0.453632 -0.108939 -25.014999
v -0.460788 0.001534 -25.014999
v -0.460788 0.001534 -25.014999
v -0.453632 -0.108939 -25.014999
v -0.463473 0.001538 -25.000000
v -0.453632 -0.108939 -25.014999
v -0.456293 -0.109307 -25.000000
v -0.463473 0.001538 -25.000000
v -0.463473 0.001538 -25.000000
v -0.456293 -0.109307 -25.000000
v -0.463473 0.001538 25.000000
v -0.456293 -0.109307 -25.000000
v -0.456293 -0.109307 25.000000
v -0.463473 0.001538 25.000000
v -0.463473 0.001538 25.000000
v -0.456293 -0.109307 25.000000
v -0.460788 0.001534 25.014999
v -0.456293 -0.109307 25.000000
v -0.453632 -0.108939 25.014999
v -0.460788 0.001534 25.014999
v -0.460788 0.001534 25.014999
v -0.453632 -0.108939 25.014999
v -0.453451 0.001523 25.025982
v -0.453632 -0.108939 25.014999
v -0.446361 -0.107931 25.025982
v -0.453451 0.001523 25.025982
v -0.453451 0.001523 25.025982
v -0.446361 -0.107931 25.025982
v -0.443429 0.001508 25.029999
v -0.446361 -0.107931 25.025982
v -0.436429 -0.106555 25.029999
v -0.443429 0.001508 25.029999
v -0.436429 -0.106555 -25.029999
v -0.415429 -0.204742 -25.029999
v -0.446361 -0.107931 -25.025980
v -0.415429 -0.204742 -25.029999
v -0.425033 -0.207650 -25.025980
v -0.446361 -0.107931 -25.025980
v -0.446361 -0.107931 -25.025980
v -0.425033 -0.207650 -25.025980
v -0.453632 -0.108939 -25.014999
v -0.425033 -0.207650 -25.025980
v -0.432064 -0.209779 -25.014999
v -0.453632 -0.108939 -25.014999
v -0.453632 -0.108939 -25.014999
v -0.432064 -0.209779 -25.014999
v -0.456293 -0.109307 -25.000000
v -0.432064 -0.209779 -25.014999
v -0.434638 -0.210559 -25.000000
v -0.456293 -0.109307 -25.000000
v -0.456293 -0.109307 -25.000000
v -0.434638 -0.210559 -25.000000
v -0.456293 -0.109307 25.000000
v -0.434638 -0.210559 -25.000000
v -0.434638 -0.210559 25.000000
v -0.456293 -0.109307 25.000000
v -0.456293 -0.109307 25.000000
v -0.434638 -0.210559 25.000000
v -0.453632 -0.108939 25.014999
v -0.434638 -0.210559 25.000000
v -0.432064 -0.209779 25.014999
v -0.453632 -0.108939 25.014999
v -0.453632 -0.108939 25.014999
v -0.432064 -0.209779 25.014999
v -0.446361 -0.107931 25.025982
v -0.432064 -0.209779 25.014999
v -0.425033 -0.207650 25.025982
v -0.446361 -0.107931 25.025982
v -0.446361 -0.107931 25.025982
v -0.425033 -0.207650 25.025982
v -0.436429 -0.106555 25.029999
v -0.425033 -0.207650 25.025982
v -0.415429 -0.204742 25.029999
v -0.436429 -0.106555 25.029999
v -0.415429 -0.204742 -25.029999
v -0.380429 -0.293055 -25.029999
v -0.425033 -0.207650 -25.025980
v -0.380429 -0.293055 -25.029999
v -0.389391 -0.297583 -25.025980
v -0.425033 -0.207650 -25.025980
v -0.425033 -0.207650 -25.025980
v -0.389391 -0.297583 -25.025980
v -0.432064 -0.209779 -25.014999
v -0.389391 -0.297583 -25.025980
v -0.395952 -0.300898 -25.014999
v -0.432064 -0.209779 -25.014999
v -0.432064 -0.209779 -25.014999
v -0.395952 -0.300898 -25.014999
v -0.434638 -0.210559 -25.000000
v -0.395952 -0.300898 -25.014999
v -0.398353 -0.302111 -25.000000
v -0.434638 -0.210559 -25.000000
v -0.434638 -0.210559 -25.000000
v -0.398353 -0.302111 -25.000000
v -0.434638 -0.210559 25.000000
v -0.398353 -0.302111 -25.000000
v -0.398353 -0.302111 25.000000
v -0.434638 -0.210559 25.000000
v -0.434638 -0.210559 25.000000
v -0.398353 -0.302111 25.000000
v -0.432064 -0.209779 25.014999
v -0.398353 -0.302111 25.000000
v -0.395952 -0.300898 25.014999
v -0.432064 -0.209779 25.014999
v -0.432064 -0.209779 25.014999
v -0.395952 -0.300898 25.014999
v -0.425033 -0.207650 25.025982
v -0.395952 -0.300898 25.014999
v -0.389391 -0.297583 25.025982
v -0.425033 -0.207650 25.025982
v -0.425033 -0.207650 25.025982
v -0.389391 -0.297583 25.025982
v -0.415429 -0.204742 25.029999
v -0.389391 -0.297583 25.025982
v -0.380429 -0.293055 25.029999
v -0.415429 -0.204742 25.029999
v -0.380429 -0.293055 -25.029999
v -0.331429 -0.371492 -25.029999
v -0.389391 -0.297583 -25.025980
v -0.331429 -0.371492 -25.029999
v -0.339363 -0.377667 -25.025980
v -0.389391 -0.297583 -25.025980
v -0.389391 -0.297583 -25.025980
v -0.339363 -0.377667 -25.025980
v -0.395952 -0.300898 -25.014999
v -0.339363 -0.377667 -25.025980
v -0.345171 -0.382186 -25.014999
v -0.395952 -0.300898 -25.014999
v -0.395952 -0.300898 -25.014999
v -0.345171 -0.382186 -25.014999
v -0.398353 -0.302111 -25.000000
v -0.345171 -0.382186 -25.014999
v -0.347297 -0.383841 -25.000000
v -0.398353 -0.302111 -25.000000
v -0.398353 -0.302111 -25.000000
v -0.347297 -0.383841 -25.000000
v -0.398353 -0.302111 25.000000
v -0.347297 -0.383841 -25.000000
v -0.347297 -0.383841 25.000000
v -0.398353 -0.302111 25.000000
v -0.398353 -0.302111 25.000000
v -0.347297 -0.383841 25.000000
v -0.395952 -0.300898 25.014999
v -0.347297 -0.383841 25.000000
v -0.345171 -0.382186 25.014999
v -0.395952 -0.300898 25.014999
v -0.395952 -0.300898 25.014999
v -0.345171 -0.382186 25.014999
v -0.389391 -0.297583 25.025982
v -0.345171 -0.382186 25.014999
v -0.339363 -0.377667 25.025982
v -0.389391 -0.297583 25.025982
v -0.389391 -0.297583 25.025982
v -0.339363 -0.377667 25.025982
v -0.380429 -0.293055 25.029999
v -0.339363 -0.377667 25.025982
v -0.331429 -0.371492 25.029999
v -0.380429 -0.293055 25.029999
v -0.331429 -0.371492 -25.029999
v -0.263492 -0.442367 -25.029999
v -0.339363 -0.377667 -25.025980
v -0.263492 -0.442367 -25.029999
v -0.269872 -0.450163 -25.025980
v -0.339363 -0.377667 -25.025980
v -0.339363 -0.377667 -25.025980
v -0.269872 -0.450163 -25.025980
v -0.345171 -0.382186 -25.014999
v -0.269872 -0.450163 -25.025980
v -0.274542 -0.455869 -25.014999
v -0.345171 -0.382186 -25.014999
v -0.345171 -0.382186 -25.014999
v -0.274542 -0.455869 -25.014999
v -0.347297 -0.383841 -25.000000
v -0.274542 -0.455869 -25.014999
v -0.276252 -0.457958 -25.000000
v -0.347297 -0.383841 -25.000000
v -0.347297 -0.383841 -25.000000
v -0.276252 -0.457958 -25.000000
v -0.347297 -0.383841 25.000000
v -0.276252 -0.457958 -25.000000
v -0.276252 -0.457958 25.000000
v -0.347297 -0.383841 25.000000
v -0.347297 -0.383841 25.000000
v -0.276252 -0.457958 25.000000
v -0.345171 -0.382186 25.014999
v -0.276252 -0.457958 25.000000
v -0.274542 -0.455869 25.014999
v -0.345171 -0.382186 25.014999
v -0.345171 -0.382186 25.014999
v -0.274542 -0.455869 25.014999
v -0.339363 -0.377667 25.025982
v -0.274542 -0.455869 25.014999
v -0.269872 -0.450163 25.025982
v -0.339363 -0.377667 25.025982
v -0.339363 -0.377667 25.025982
v -0.269872 -0.450163 25.025982
v -0.331429 -0.371492 25.029999
v -0.269872 -0.450163 25.025982
v -0.263492 -0.442367 25.029999
v -0.331429 -0.371492 25.029999
v -0.263492 -0.442367 -25.029999
v -0.183679 -0.492992 -25.029999
v -0.269872 -0.450163 -25.025980
v -0.183679 -0.492992 -25.029999
v -0.187994 -0.502097 -25.025980
v -0.269872 -0.450163 -25.025980
v -0.269872 -0.450163 -25.025980
v -0.187994 -0.502097 -25.025980
v -0.274542 -0.455869 -25.014999
v -0.187994 -0.502097 -25.025980
v -0.191153 -0.508763 -25.014999
v -0.274542 -0.455869 -25.014999
v -0.274542 -0.455869 -25.014999
v -0.191153 -0.508763 -25.014999
v -0.276252 -0.457958 -25.000000
v -0.191153 -0.508763 -25.014999
v -0.192310 -0.511202 -25.000000
v -0.276252 -0.457958 -25.000000
v -0.276252 -0.457958 -25.000000
v -0.192310 -0.511202 -25.000000
v -0.276252 -0.457958 25.000000
v -0.192310 -0.511202 -25.000000
v -0.192310 -0.511202 25.000000
v -0.276252 -0.457958 25.000000
v -0.276252 -0.457958 25.000000
v -0.192310 -0.511202 25.000000
v -0.274542 -0.455869 25.014999
v -0.192310 -0.511202 25.000000
v -0.191153 -0.508763 25.014999
v -0.274542 -0.455869 25.014999
v -0.274542 -0.455869 25.014999
v -0.191153 -0.508763 25.014999
v -0.269872 -0.450163 25.025982
v -0.191153 -0.508763 25.014999
v -0.187994 -0.502097 25.025982
v -0.269872 -0.450163 25.025982
v -0.269872 -0.450163 25.025982
v -0.187994 -0.502097 25.025982
v -0.263492 -0.442367 25.029999
v -0.187994 -0.502097 25.025982
v -0.183679 -0.492992 25.029999
v -0.263492 -0.442367 25.029999
v -0.183679 -0.492992 -25.029999
v -0.091992 -0.523367 -25.029999
v -0.187994 -0.502097 -25.025980
v -0.091992 -0.523367 -25.029999
v -0.094076 -0.533211 -25.025980
v -0.187994 -0.502097 -25.025980
v -0.187994 -0.502097 -25.025980
v -0.094076 -0.533211 -25.025980
v -0.191153 -0.508763 -25.014999
v -0.094076 -0.533211 -25.025980
v -0.095602 -0.540417 -25.014999
v -0.191153 -0.508763 -25.014999
v -0.191153 -0.508763 -25.014999
v -0.095602 -0.540417 -25.014999
v -0.192310 -0.511202 -25.000000
v -0.095602 -0.540417 -25.014999
v -0.096161 -0.543055 -25.000000
v -0.192310 -0.511202 -25.000000
v -0.192310 -0.511202 -25.000000
v -0.096161 -0.543055 -25.000000
v -0.192310 -0.511202 25.000000
v -0.096161 -0.543055 -25.000000
v -0.096161 -0.543055 25.000000
v -0.192310 -0.511202 25.000000
v -0.192310 -0.511202 25.000000
v -0.096161 -0.543055 25.000000
v -0.191153 -0.508763 25.014999
v -0.096161 -0.543055 25.000000
v -0.095602 -0.540417 25.014999
v -0.191153 -0.508763 25.014999
v -0.191153 -0.508763 25.014999
v -0.095602 -0.540417 25.014999
v -0.187994 -0.502097 25.025982
v -0.095602 -0.540417 25.014999
v -0.094076 -0.533211 25.025982
v -0.187994 -0.502097 25.025982
v -0.187994 -0.502097 25.025982
v -0.094076 -0.533211 25.025982
v -0.183679 -0.492992 25.029999
v -0.094076 -0.533211 25.025982
v -0.091992 -0.523367 25.029999
v -0.183679 -0.492992 25.029999
v -0.091992 -0.523367 -25.029999
v 0.011571 -0.533492 -25.029999
v -0.094076 -0.533211 -25.025980
v 0.011571 -0.533492 -25.029999
v 0.011492 -0.543532 -25.025980
v -0.094076 -0.533211 -25.025980
v -0.094076 -0.533211 -25.025980
v 0.011492 -0.543532 -25.025980
v -0.095602 -0.540417 -25.014999
v 0.011492 -0.543532 -25.025980
v 0.011434 -0.550882 -25.014999
v -0.095602 -0.540417 -25.014999
v -0.095602 -0.540417 -25.014999
v 0.011434 -0.550882 -25.014999
v -0.096161 -0.543055 -25.000000
v 0.011434 -0.550882 -25.014999
v 0.011413 -0.553572 -25.000000
v -0.096161 -0.543055 -25.000000
v -0.096161 -0.543055 -25.000000
v 0.011413 -0.553572 -25.000000
v -0.096161 -0.543055 25.000000
v 0.011413 -0.553572 -25.000000
v 0.011413 -0.553572 25.000000
v -0.096161 -0.543055 25.000000
v -0.096161 -0.543055 25.000000
v 0.011413 -0.553572 25.000000
v -0.095602 -0.540417 25.014999
v 0.011413 -0.553572 25.000000
v 0.011434 -0.550882 25.014999
v -0.095602 -0.540417 25.014999
v -0.095602 -0.540417 25.014999
v 0.011434 -0.550882 25.014999
v -0.094076 -0.533211 25.025982
v 0.011434 -0.550882 25.014999
v 0.011492 -0.543532 25.025982
v -0.094076 -0.533211 25.025982
v -0.094076 -0.533211 25.025982
v 0.011492 -0.543532 25.025982
v -0.091992 -0.523367 25.029999
v 0.011492 -0.543532 25.025982
v 0.011571 -0.533492 25.029999
v -0.091992 -0.523367 25.029999
v 0.011571 -0.533492 -25.029999
v 0.097758 -0.526430 -25.029999
v 0.011492 -0.543532 -25.025980
v 0.097758 -0.526430 -25.029999
v 0.099467 -0.536323 -25.025980
v 0.011492 -0.543532 -25.025980
v 0.011492 -0.543532 -25.025980
v 0.099467 -0.536323 -25.025980
v 0.011434 -0.550882 -25.014999
v 0.099467 -0.536323 -25.025980
v 0.100718 -0.543566 -25.014999
v 0.011434 -0.550882 -25.014999
v 0.011434 -0.550882 -25.014999
v 0.100718 -0.543566 -25.014999
v 0.011413 -0.553572 -25.000000
v 0.100718 -0.543566 -25.014999
v 0.101175 -0.546217 -25.000000
v 0.011413 -0.553572 -25.000000
v 0.011413 -0.553572 -25.000000
v 0.101175 -0.546217 -25.000000
v 0.011413 -0.553572 25.000000
v 0.101175 -0.546217 -25.000000
v 0.101175 -0.546217 25.000000
v 0.011413 -0.553572 25.000000
v 0.011413 -0.553572 25.000000
v 0.101175 -0.546217 25.000000
v 0.011434 -0.550882 25.014999
v 0.101175 -0.546217 25.000000
v 0.100718 -0.543566 25.014999
v 0.011434 -0.550882 25.014999
v 0.011434 -0.550882 25.014999
v 0.100718 -0.543566 25.014999
v 0.011492 -0.543532 25.025982
v 0.100718 -0.543566 25.014999
v 0.099467 -0.536323 25.025982
v 0.011492 -0.543532 25.025982
v 0.011492 -0.543532 25.025982
v 0.099467 -0.536323 25.025982
v 0.011571 -0.533492 25.029999
v 0.099467 -0.536323 25.025982
v 0.097758 -0.526430 25.029999
v 0.011571 -0.533492 25.029999
v 0.097758 -0.526430 -25.029999
v 0.177321 -0.505242 -25.029999
v 0.099467 -0.536323 -25.025980
v 0.177321 -0.505242 -25.029999
v 0.180818 -0.514660 -25.025980
v 0.099467 -0.536323 -25.025980
v 0.099467 -0.536323 -25.025980
v 0.180818 -0.514660 -25.025980
v 0.100718 -0.543566 -25.014999
v 0.180818 -0.514660 -25.025980
v 0.183378 -0.521553 -25.014999
v 0.100718 -0.543566 -25.014999
v 0.100718 -0.543566 -25.014999
v 0.183378 -0.521553 -25.014999
v 0.101175 -0.546217 -25.000000
v 0.183378 -0.521553 -25.014999
v 0.184315 -0.524077 -25.000000
v 0.101175 -0.546217 -25.000000
v 0.101175 -0.546217 -25.000000
v 0.184315 -0.524077 -25.000000
v 0.101175 -0.546217 25.000000
v 0.184315 -0.524077 -25.000000
v 0.184315 -0.524077 25.000000
v 0.101175 -0.546217 25.000000
v 0.101175 -0.546217 25.000000
v 0.184315 -0.524077 25.000000
v 0.100718 -0.543566 25.014999
v 0.184315 -0.524077 25.000000
v 0.183378 -0.521553 25.014999
v 0.100718 -0.543566 25.014999
v 0.100718 -0.543566 25.014999
v 0.183378 -0.521553 25.014999
v 0.099467 -0.536323 25.025982
v 0.183378 -0.521553 25.014999
v 0.180818 -0.514660 25.025982
v 0.099467 -0.536323 25.025982
v 0.099467 -0.536323 25.025982
v 0.180818 -0.514660 25.025982
v 0.097758 -0.526430 25.029999
v 0.180818 -0.514660 25.025982
v 0.177321 -0.505242 25.029999
v 0.097758 -0.526430 25.029999
v 0.177321 -0.505242 -25.029999
v 0.250258 -0.469930 -25.029999
v 0.180818 -0.514660 -25.025980
v 0.250258 -0.469930 -25.029999
v 0.255472 -0.478516 -25.025980
v 0.180818 -0.514660 -25.025980
v 0.180818 -0.514660 -25.025980
v 0.255472 -0.478516 -25.025980
v 0.183378 -0.521553 -25.014999
v 0.255472 -0.478516 -25.025980
v 0.259289 -0.484801 -25.014999
v 0.183378 -0.521553 -25.014999
v 0.183378 -0.521553 -25.014999
v 0.259289 -0.484801 -25.014999
v 0.184315 -0.524077 -25.000000
v 0.259289 -0.484801 -25.014999
v 0.260687 -0.487102 -25.000000
v 0.184315 -0.524077 -25.000000
v 0.184315 -0.524077 -25.000000
v 0.260687 -0.487102 -25.000000
v 0.184315 -0.524077 25.000000
v 0.260687 -0.487102 -25.000000
v 0.260687 -0.487102 25.000000
v 0.184315 -0.524077 25.000000
v 0.184315 -0.524077 25.000000
v 0.260687 -0.487102 25.000000
v 0.183378 -0.521553 25.014999
v 0.260687 -0.487102 25.000000
v 0.259289 -0.484801 25.014999
v 0.183378 -0.521553 25.014999
v 0.183378 -0.521553 25.014999
v 0.259289 -0.484801 25.014999
v 0.180818 -0.514660 25.025982
v 0.259289 -0.484801 25.014999
v 0.255472 -0.478516 25.025982
v 0.180818 -0.514660 25.025982
v 0.180818 -0.514660 25.025982
v 0.255472 -0.478516 25.025982
v 0.177321 -0.505242 25.029999
v 0.255472 -0.478516 25.025982
v 0.250258 -0.469930 25.029999
v 0.177321 -0.505242 25.029999
v 0.250258 -0.469930 -25.029999
v 0.316571 -0.420492 -25.029999
v 0.255472 -0.478516 -25.025980
v 0.316571 -0.420492 -25.029999
v 0.323333 -0.427924 -25.025980
v 0.255472 -0.478516 -25.025980
v 0.255472 -0.478516 -25.025980
v 0.323333 -0.427924 -25.025980
v 0.259289 -0.484801 -25.014999
v 0.323333 -0.427924 -25.025980
v 0.328284 -0.433364 -25.014999
v 0.259289 -0.484801 -25.014999
v 0.259289 -0.484801 -25.014999
v 0.328284 -0.433364 -25.014999
v 0.260687 -0.487102 -25.000000
v 0.328284 -0.433364 -25.014999
v 0.330096 -0.435356 -25.000000
v 0.260687 -0.487102 -25.000000
v 0.260687 -0.487102 -25.000000
v 0.330096 -0.435356 -25.000000
v 0.260687 -0.487102 25.000000
v 0.330096 -0.435356 -25.000000
v 0.330096 -0.435356 25.000000
v 0.260687 -0.487102 25.000000
v 0.260687 -0.487102 25.000000
v 0.330096 -0.435356 25.000000
v 0.259289 -0.484801 25.014999
v 0.330096 -0.435356 25.000000
v 0.328284 -0.433364 25.014999
v 0.259289 -0.484801 25.014999
v 0.259289 -0.484801 25.014999
v 0.328284 -0.433364 25.014999
v 0.255472 -0.478516 25.025982
v 0.328284 -0.433364 25.014999
v 0.323333 -0.427924 25.025982
v 0.255472 -0.478516 25.025982
v 0.255472 -0.478516 25.025982
v 0.323333 -0.427924 25.025982
v 0.250258 -0.469930 25.029999
v 0.323333 -0.427924 25.025982
v 0.316571 -0.420492 25.029999
v 0.250258 -0.469930 25.029999
v 0.316571 -0.420492 -25.029999
v 0.371696 -0.359492 -25.029999
v 0.323333 -0.427924 -25.025980
v 0.371696 -0.359492 -25.029999
v 0.379843 -0.365392 -25.025980
v 0.323333 -0.427924 -25.025980
v 0.323333 -0.427924 -25.025980
v 0.379843 -0.365392 -25.025980
v 0.328284 -0.433364 -25.014999
v 0.379843 -0.365392 -25.025980
v 0.385807 -0.369710 -25.014999
v 0.328284 -0.433364 -25.014999
v 0.328284 -0.433364 -25.014999
v 0.385807 -0.369710 -25.014999
v 0.330096 -0.435356 -25.000000
v 0.385807 -0.369710 -25.014999
v 0.387990 -0.371291 -25.000000
v 0.330096 -0.435356 -25.000000
v 0.330096 -0.435356 -25.000000
v 0.387990 -0.371291 -25.000000
v 0.330096 -0.435356 25.000000
v 0.387990 -0.371291 -25.000000
v 0.387990 -0.371291 25.000000
v 0.330096 -0.435356 25.000000
v 0.330096 -0.435356 25.000000
v 0.387990 -0.371291 25.000000
v 0.328284 -0.433364 25.014999
v 0.387990 -0.371291 25.000000
v 0.385807 -0.369710 25.014999
v 0.328284 -0.433364 25.014999
v 0.328284 -0.433364 25.014999
v 0.385807 -0.369710 25.014999
v 0.323333 -0.427924 25.025982
v 0.385807 -0.369710 25.014999
v 0.379843 -0.365392 25.025982
v 0.323333 -0.427924 25.025982
v 0.323333 -0.427924 25.025982
v 0.379843 -0.365392 25.025982
v 0.316571 -0.420492 25.029999
v 0.379843 -0.365392 25.025982
v 0.371696 -0.359492 25.029999
v 0.316571 -0.420492 25.029999
v 0.371696 -0.359492 -25.029999
v 0.411071 -0.290492 -25.029999
v 0.379843 -0.365392 -25.025980
v 0.411071 -0.290492 -25.029999
v 0.420306 -0.294486 -25.025980
v 0.379843 -0.365392 -25.025980
v 0.379843 -0.365392 -25.025980
v 0.420306 -0.294486 -25.025980
v 0.385807 -0.369710 -25.014999
v 0.420306 -0.294486 -25.025980
v 0.427066 -0.297409 -25.014999
v 0.385807 -0.369710 -25.014999
v 0.385807 -0.369710 -25.014999
v 0.427066 -0.297409 -25.014999
v 0.387990 -0.371291 -25.000000
v 0.427066 -0.297409 -25.014999
v 0.429541 -0.298479 -25.000000
v 0.387990 -0.371291 -25.000000
v 0.387990 -0.371291 -25.000000
v 0.429541 -0.298479 -25.000000
v 0.387990 -0.371291 25.000000
v 0.429541 -0.298479 -25.000000
v 0.429541 -0.298479 25.000000
v 0.387990 -0.371291 25.000000
v 0.387990 -0.371291 25.000000
v 0.429541 -0.298479 25.000000
v 0.385807 -0.369710 25.014999
v 0.429541 -0.298479 25.000000
v 0.427066 -0.297409 25.014999
v 0.385807 -0.369710 25.014999
v 0.385807 -0.369710 25.014999
v 0.427066 -0.297409 25.014999
v 0.379843 -0.365392 25.025982
v 0.427066 -0.297409 25.014999
v 0.420306 -0.294486 25.025982
v 0.379843 -0.365392 25.025982
v 0.379843 -0.365392 25.025982
v 0.420306 -0.294486 25.025982
v 0.371696 -0.359492 25.029999
v 0.420306 -0.294486 25.025982
v 0.411071 -0.290492 25.029999
v 0.371696 -0.359492 25.029999
v 0.411071 -0.290492 -25.029999
v 0.434696 -0.213492 -25.029999
v 0.420306 -0.294486 -25.025980
v 0.434696 -0.213492 -25.029999
v 0.444558 -0.215441 -25.025980
v 0.420306 -0.294486 -25.025980
v 0.420306 -0.294486 -25.025980
v 0.444558 -0.215441 -25.025980
v 0.427066 -0.297409 -25.014999
v 0.444558 -0.215441 -25.025980
v 0.451778 -0.216867 -25.014999
v 0.427066 -0.297409 -25.014999
v 0.427066 -0.297409 -25.014999
v 0.451778 -0.216867 -25.014999
v 0.429541 -0.298479 -25.000000
v 0.451778 -0.216867 -25.014999
v 0.454420 -0.217389 -25.000000
v 0.429541 -0.298479 -25.000000
v 0.429541 -0.298479 -25.000000
v 0.454420 -0.217389 -25.000000
v 0.429541 -0.298479 25.000000
v 0.454420 -0.217389 -25.000000
v 0.454420 -0.217389 25.000000
v 0.429541 -0.298479 25.000000
v 0.429541 -0.298479 25.000000
v 0.454420 -0.217389 25.000000
v 0.427066 -0.297409 25.014999
v 0.454420 -0.217389 25.000000
v 0.451778 -0.216867 25.014999
v 0.427066 -0.297409 25.014999
v 0.427066 -0.297409 25.014999
v 0.451778 -0.216867 25.014999
v 0.420306 -0.294486 25.025982
v 0.451778 -0.216867 25.014999
v 0.444558 -0.215441 25.025982
v 0.420306 -0.294486 25.025982
v 0.420306 -0.294486 25.025982
v 0.444558 -0.215441 25.025982
v 0.411071 -0.290492 25.029999
v 0.444558 -0.215441 25.025982
v 0.434696 -0.213492 25.029999
v 0.411071 -0.290492 25.029999
v 0.434696 -0.213492 -25.029999
v 0.442571 -0.128492 -25.029999
v 0.444558 -0.215441 -25.025980
v 0.442571 -0.128492 -25.029999
v 0.453022 -0.118965 -25.025980
v 0.444558 -0.215441 -25.025980
v 0.444558 -0.215441 -25.025980
v 0.453022 -0.118965 -25.025980
v 0.451778 -0.216867 -25.014999
v 0.453022 -0.118965 -25.025980
v 0.460673 -0.111990 -25.014999
v 0.451778 -0.216867 -25.014999
v 0.451778 -0.216867 -25.014999
v 0.460673 -0.111990 -25.014999
v 0.454420 -0.217389 -25.000000
v 0.460673 -0.111990 -25.014999
v 0.463473 -0.109437 -25.000000
v 0.454420 -0.217389 -25.000000
v 0.454420 -0.217389 -25.000000
v 0.463473 -0.109437 -25.000000
v 0.454420 -0.217389 25.000000
v 0.463473 -0.109437 -25.000000
v 0.463473 -0.109437 25.000000
v 0.454420 -0.217389 25.000000
v 0.454420 -0.217389 25.000000
v 0.463473 -0.109437 25.000000
v 0.451778 -0.216867 25.014999
v 0.463473 -0.109437 25.000000
v 0.460673 -0.111990 25.014999
v 0.451778 -0.216867 25.014999
v 0.451778 -0.216867 25.014999
v 0.460673 -0.111990 25.014999
v 0.444558 -0.215441 25.025982
v 0.460673 -0.111990 25.014999
v 0.453022 -0.118965 25.025982
v 0.444558 -0.215441 25.025982
v 0.444558 -0.215441 25.025982
v 0.453022 -0.118965 25.025982
v 0.434696 -0.213492 25.029999
v 0.453022 -0.118965 25.025982
v 0.442571 -0.128492 25.029999
v 0.434696 -0.213492 25.029999