# Generated mesh
# vertices: 258, faces: 256

v 0.439256 -0.136864 0.000000
v 0.438764 -0.158864 0.000000
v 0.437287 -0.180364 0.000000
v 0.434827 -0.201364 0.000000
v 0.431381 -0.221864 0.000000
v 0.426951 -0.241864 0.000000
v 0.421537 -0.261364 0.000000
v 0.415139 -0.280364 0.000000
v 0.407756 -0.298864 0.000000
v 0.399389 -0.316864 0.000000
v 0.390037 -0.334364 0.000000
v 0.379702 -0.351364 0.000000
v 0.368381 -0.367864 0.000000
v 0.356077 -0.383864 0.000000
v 0.342787 -0.399364 0.000000
v 0.328514 -0.414364 0.000000
v 0.313256 -0.428864 0.000000
v 0.297299 -0.442548 0.000000
v 0.280928 -0.455348 0.000000
v 0.264143 -0.467266 0.000000
v 0.246944 -0.478302 0.000000
v 0.229330 -0.488454 0.000000
v 0.211303 -0.497723 0.000000
v 0.192862 -0.506110 0.000000
v 0.174006 -0.513614 0.000000
v 0.154737 -0.520235 0.000000
v 0.135053 -0.525973 0.000000
v 0.114955 -0.530829 0.000000
v 0.094444 -0.534802 0.000000
v 0.073518 -0.537891 0.000000
v 0.052178 -0.540098 0.000000
v 0.030424 -0.541423 0.000000
v 0.008256 -0.541864 0.000000
v -0.018748 -0.541231 0.000000
v -0.045009 -0.539333 0.000000
v -0.070529 -0.536169 0.000000
v -0.095306 -0.531739 0.000000
v -0.119341 -0.526044 0.000000
v -0.142634 -0.519083 0.000000
v -0.165185 -0.510856 0.000000
v -0.186994 -0.501364 0.000000
v -0.208060 -0.490606 0.000000
v -0.228384 -0.478583 0.000000
v -0.247966 -0.465294 0.000000
v -0.266806 -0.450739 0.000000
v -0.284904 -0.434919 0.000000
v -0.302259 -0.417833 0.000000
v -0.318873 -0.399481 0.000000
v -0.334744 -0.379864 0.000000
v -0.348306 -0.361181 0.000000
v -0.360994 -0.341880 0.000000
v -0.372806 -0.321962 0.000000
v -0.383744 -0.301427 0.000000
v -0.393806 -0.280274 0.000000
v -0.402994 -0.258505 0.000000
v -0.411306 -0.236118 0.000000
v -0.418744 -0.213114 0.000000
v -0.425306 -0.189493 0.000000
v -0.430994 -0.165255 0.000000
v -0.435806 -0.140399 0.000000
v -0.439744 -0.114927 0.000000
v -0.442806 -0.088837 0.000000
v -0.444994 -0.062130 0.000000
v -0.446306 -0.034806 0.000000
v -0.446744 -0.006864 0.000000
v -0.446283 0.021312 0.000000
v -0.444900 0.048839 0.000000
v -0.442595 0.075718 0.000000
v -0.439369 0.101948 0.000000
v -0.435220 0.127530 0.000000
v -0.430150 0.152464 0.000000
v -0.424158 0.176749 0.000000
v -0.417244 0.200386 0.000000
v -0.409408 0.223374 0.000000
v -0.400650 0.245714 0.000000
v -0.390970 0.267405 0.000000
v -0.380369 0.288448 0.000000
v -0.368845 0.308843 0.000000
v -0.356400 0.328589 0.000000
v -0.343033 0.347687 0.000000
v -0.328744 0.366136 0.000000
v -0.312490 0.385390 0.000000
v -0.295478 0.403402 0.000000
v -0.277709 0.420171 0.000000
v -0.259181 0.435698 0.000000
v -0.239896 0.449984 0.000000
v -0.219853 0.463026 0.000000
v -0.199052 0.474827 0.000000
v -0.177494 0.485386 0.000000
v -0.155177 0.494702 0.000000
v -0.132103 0.502777 0.000000
v -0.108271 0.509609 0.000000
v -0.083681 0.515198 0.000000
v -0.058334 0.519546 0.000000
v -0.032228 0.522651 0.000000
v -0.005365 0.524515 0.000000
v 0.022256 0.525136 0.000000
v 0.042213 0.524800 0.000000
v 0.061834 0.523792 0.000000
v 0.081119 0.522112 0.000000
v 0.100069 0.519761 0.000000
v 0.118682 0.516737 0.000000
v 0.136959 0.513042 0.000000
v 0.154901 0.508675 0.000000
v 0.172506 0.503636 0.000000
v 0.189776 0.497925 0.000000
v 0.206709 0.491542 0.000000
v 0.223307 0.484487 0.000000
v 0.239569 0.476761 0.000000
v 0.255494 0.468362 0.000000
v 0.271084 0.459292 0.000000
v 0.286338 0.449550 0.000000
v 0.301256 0.439136 0.000000
v 0.317119 0.426921 0.000000
v 0.331959 0.414277 0.000000
v 0.345776 0.401202 0.000000
v 0.358569 0.387698 0.000000
v 0.370338 0.373765 0.000000
v 0.381084 0.359402 0.000000
v 0.390807 0.344609 0.000000
v 0.399506 0.329386 0.000000
v 0.407182 0.313734 0.000000
v 0.413834 0.297652 0.000000
v 0.419463 0.281140 0.000000
v 0.424069 0.264198 0.000000
v 0.427651 0.246827 0.000000
v 0.430209 0.229027 0.000000
v 0.431744 0.210796 0.000000
v 0.432256 0.192136 0.000000
v 0.298256 0.192136 0.000000
v 0.295420 0.204105 0.000000
v 0.292162 0.215761 0.000000
v 0.288483 0.227105 0.000000
v 0.284381 0.238136 0.000000
v 0.279858 0.248855 0.000000
v 0.274912 0.259261 0.000000
v 0.269545 0.269355 0.000000
v 0.263756 0.279136 0.000000
v 0.257545 0.288605 0.000000
v 0.250912 0.297761 0.000000
v 0.243858 0.306605 0.000000
v 0.236381 0.315136 0.000000
v 0.228483 0.323355 0.000000
v 0.220162 0.331261 0.000000
v 0.211420 0.338855 0.000000
v 0.202256 0.346136 0.000000
v 0.192662 0.353159 0.000000
v 0.182881 0.359730 0.000000
v 0.172912 0.365847 0.000000
v 0.162756 0.371511 0.000000
v 0.152412 0.376722 0.000000
v 0.141881 0.381480 0.000000
v 0.131162 0.385784 0.000000
v 0.120256 0.389636 0.000000
v 0.109162 0.393034 0.000000
v 0.097881 0.395980 0.000000
v 0.086412 0.398472 0.000000
v 0.074756 0.400511 0.000000
v 0.062912 0.402097 0.000000
v 0.050881 0.403230 0.000000
v 0.038662 0.403909 0.000000
v 0.026256 0.404136 0.000000
v 0.006397 0.403632 0.000000
v -0.012931 0.402120 0.000000
v -0.031728 0.399601 0.000000
v -0.049994 0.396073 0.000000
v -0.067728 0.391538 0.000000
v -0.084931 0.385995 0.000000
v -0.101603 0.379445 0.000000
v -0.117744 0.371886 0.000000
v -0.133353 0.363319 0.000000
v -0.148431 0.353745 0.000000
v -0.162978 0.343163 0.000000
v -0.176994 0.331573 0.000000
v -0.190478 0.318976 0.000000
v -0.203431 0.305370 0.000000
v -0.215853 0.290757 0.000000
v -0.227744 0.275136 0.000000
v -0.237795 0.260441 0.000000
v -0.247197 0.245355 0.000000
v -0.255951 0.229878 0.000000
v -0.264056 0.214011 0.000000
v -0.271513 0.197753 0.000000
v -0.278322 0.181105 0.000000
v -0.284482 0.164066 0.000000
v -0.289994 0.146636 0.000000
v -0.294857 0.128816 0.000000
v -0.299072 0.110605 0.000000
v -0.302638 0.092003 0.000000
v -0.305556 0.073011 0.000000
v -0.307826 0.053628 0.000000
v -0.309447 0.033855 0.000000
v -0.310420 0.013691 0.000000
v -0.310744 -0.006864 0.000000
v -0.310427 -0.027294 0.000000
v -0.309478 -0.047333 0.000000
v -0.307896 -0.066981 0.000000
v -0.305681 -0.086239 0.000000
v -0.302834 -0.105106 0.000000
v -0.299353 -0.123583 0.000000
v -0.295240 -0.141669 0.000000
v -0.290494 -0.159364 0.000000
v -0.285115 -0.176669 0.000000
v -0.279103 -0.193583 0.000000
v -0.272459 -0.210106 0.000000
v -0.265181 -0.226239 0.000000
v -0.257271 -0.241981 0.000000
v -0.248728 -0.257333 0.000000
v -0.239552 -0.272294 0.000000
v -0.229744 -0.286864 0.000000
v -0.217740 -0.302606 0.000000
v -0.205228 -0.317333 0.000000
v -0.192209 -0.331044 0.000000
v -0.178681 -0.343739 0.000000
v -0.164646 -0.355419 0.000000
v -0.150103 -0.366083 0.000000
v -0.135052 -0.375731 0.000000
v -0.119494 -0.384364 0.000000
v -0.103427 -0.391981 0.000000
v -0.086853 -0.398583 0.000000
v -0.069771 -0.404169 0.000000
v -0.052181 -0.408739 0.000000
v -0.034084 -0.412294 0.000000
v -0.015478 -0.414833 0.000000
v 0.003635 -0.416356 0.000000
v 0.023256 -0.416864 0.000000
v 0.038225 -0.416552 0.000000
v 0.052881 -0.415614 0.000000
v 0.067225 -0.414052 0.000000
v 0.081256 -0.411864 0.000000
v 0.094975 -0.409052 0.000000
v 0.108381 -0.405614 0.000000
v 0.121475 -0.401552 0.000000
v 0.134256 -0.396864 0.000000
v 0.146725 -0.391552 0.000000
v 0.158881 -0.385614 0.000000
v 0.170725 -0.379052 0.000000
v 0.182256 -0.371864 0.000000
v 0.193475 -0.364052 0.000000
v 0.204381 -0.355614 0.000000
v 0.214975 -0.346552 0.000000
v 0.225256 -0.336864 0.000000
v 0.235065 -0.326708 0.000000
v 0.244241 -0.316239 0.000000
v 0.252784 -0.305458 0.000000
v 0.260694 -0.294364 0.000000
v 0.267971 -0.282958 0.000000
v 0.274616 -0.271239 0.000000
v 0.280627 -0.259208 0.000000
v 0.286006 -0.246864 0.000000
v 0.290752 -0.234208 0.000000
v 0.294866 -0.221239 0.000000
v 0.298346 -0.207958 0.000000
v 0.301194 -0.194364 0.000000
v 0.303409 -0.180458 0.000000
v 0.304991 -0.166239 0.000000
v 0.305940 -0.151708 0.000000
v 0.306256 -0.136864 0.000000
f 2 1 258
f 131 130 129
f 129 128 127
f 127 126 125
f 125 124 123
f 123 122 121
f 121 120 119
f 119 118 117
f 117 116 115
f 115 114 113
f 113 112 111
f 111 110 109
f 109 108 107
f 107 106 105
f 105 104 103
f 103 102 101
f 101 100 99
f 99 98 97
f 97 96 95
f 95 94 93
f 93 92 91
f 91 90 89
f 89 88 87
f 87 86 85
f 85 84 83
f 83 82 81
f 81 80 79
f 79 78 77
f 77 76 75
f 75 74 73
f 73 72 71
f 71 70 69
f 69 68 67
f 67 66 65
f 65 64 63
f 63 62 61
f 61 60 59
f 59 58 57
f 57 56 55
f 55 54 53
f 53 52 51
f 51 50 49
f 49 48 47
f 47 46 45
f 45 44 43
f 43 42 41
f 41 40 39
f 39 38 37
f 37 36 35
f 35 34 33
f 33 32 31
f 31 30 29
f 29 28 27
f 27 26 25
f 25 24 23
f 23 22 21
f 21 20 19
f 19 18 17
f 17 16 15
f 15 14 13
f 13 12 11
f 11 10 9
f 9 8 7
f 7 6 5
f 5 4 3
f 3 2 258
f 132 131 129
f 129 127 125
f 125 123 121
f 121 119 117
f 117 115 113
f 113 111 109
f 109 107 105
f 105 103 101
f 101 99 97
f 97 95 93
f 93 91 89
f 89 87 85
f 85 83 81
f 81 79 77
f 77 75 73
f 73 71 69
f 69 67 65
f 65 63 61
f 61 59 57
f 57 55 53
f 53 51 49
f 49 47 45
f 45 43 41
f 41 39 37
f 37 35 33
f 33 31 29
f 29 27 25
f 25 23 21
f 21 19 17
f 17 15 13
f 13 11 9
f 9 7 5
f 5 3 258
f 133 132 129
f 129 125 121
f 121 117 113
f 113 109 105
f 105 101 97
f 97 93 89
f 89 85 81
f 81 77 73
f 73 69 65
f 65 61 57
f 57 53 49
f 49 45 41
f 41 37 33
f 33 29 25
f 25 21 17
f 17 13 9
f 9 5 258
f 134 133 129
f 129 121 113
f 113 105 97
f 97 89 81
f 81 73 65
f 65 57 49
f 49 41 33
f 33 25 17
f 17 9 258
f 135 134 129
f 129 113 97
f 81 65 49
f 17 258 257
f 136 135 129
f 17 257 256
f 137 136 129
f 17 256 255
f 138 137 129
f 17 255 254
f 139 138 129
f 17 254 253
f 140 139 129
f 17 253 252
f 141 140 129
f 17 252 251
f 142 141 129
f 17 251 250
f 143 142 129
f 17 250 249
f 144 143 129
f 17 249 248
f 145 144 129
f 17 248 247
f 146 145 129
f 17 247 246
f 147 146 129
f 17 246 245
f 147 129 97
f 17 245 244
f 148 147 97
f 17 244 243
f 149 148 97
f 17 243 242
f 150 149 97
f 33 17 242
f 151 150 97
f 33 242 241
f 152 151 97
f 33 241 240
f 153 152 97
f 33 240 239
f 154 153 97
f 33 239 238
f 155 154 97
f 33 238 237
f 156 155 97
f 33 237 236
f 157 156 97
f 33 236 235
f 158 157 97
f 33 235 234
f 159 158 97
f 33 234 233
f 160 159 97
f 33 233 232
f 161 160 97
f 33 232 231
f 162 161 97
f 33 231 230
f 163 162 97
f 33 230 229
f 164 163 97
f 33 229 228
f 165 164 97
f 33 228 227
f 166 165 97
f 33 227 226
f 167 166 97
f 33 226 225
f 168 167 97
f 33 225 224
f 169 168 97
f 49 33 224
f 170 169 97
f 49 224 223
f 171 170 97
f 49 223 222
f 172 171 97
f 49 222 221
f 173 172 97
f 49 221 220
f 174 173 97
f 49 220 219
f 175 174 97
f 49 219 218
f 175 97 81
f 49 218 217
f 176 175 81
f 49 217 216
f 177 176 81
f 49 216 215
f 178 177 81
f 49 215 214
f 179 178 81
f 49 214 213
f 180 179 81
f 49 213 212
f 181 180 81
f 49 212 211
f 182 181 81
f 49 211 210
f 183 182 81
f 49 210 209
f 184 183 81
f 49 209 208
f 185 184 81
f 49 208 207
f 186 185 81
f 49 207 206
f 187 186 81
f 49 206 205
f 188 187 81
f 49 205 204
f 189 188 81
f 49 204 203
f 190 189 81
f 49 203 202
f 191 190 81
f 49 202 201
f 192 191 81
f 49 201 200
f 193 192 81
f 49 200 199
f 194 193 81
f 49 199 198
f 195 194 81
f 49 198 197
f 195 81 49
f 49 197 196
f 196 195 49