# Generated mesh
# vertices: 1824, faces: 0

v -0.275025 0.389500 -25.029999
v -0.275025 -0.382500 -25.029999
v -0.414025 -0.506500 -25.029999
v -0.414025 -0.506500 -25.029999
v -0.275025 -0.382500 -25.029999
v -0.038025 -0.382500 -25.029999
v 0.065475 -0.496437 -25.029999
v -0.032025 -0.506500 -25.029999
v -0.414025 -0.506500 -25.029999
v 0.230475 -0.415937 -25.029999
v 0.152975 -0.466250 -25.029999
v 0.065475 -0.496437 -25.029999
v 0.348725 -0.267500 -25.029999
v 0.297975 -0.345500 -25.029999
v 0.230475 -0.415937 -25.029999
v 0.406725 -0.087500 -25.029999
v 0.384975 -0.181500 -25.029999
v 0.348725 -0.267500 -25.029999
v 0.406850 0.114125 -25.029999
v 0.413975 0.014500 -25.029999
v 0.406725 -0.087500 -25.029999
v 0.349850 0.287125 -25.029999
v 0.385475 0.205000 -25.029999
v 0.406850 0.114125 -25.029999
v 0.234287 0.424375 -25.029999
v 0.299975 0.360500 -25.029999
v 0.349850 0.287125 -25.029999
v 0.071787 0.497375 -25.029999
v 0.158225 0.470000 -25.029999
v 0.234287 0.424375 -25.029999
v -0.414025 0.506500 -25.029999
v -0.025025 0.506500 -25.029999
v 0.071787 0.497375 -25.029999
v -0.275025 0.389500 -25.029999
v -0.414025 -0.506500 -25.029999
v -0.414025 0.506500 -25.029999
v -0.414025 -0.506500 -25.029999
v -0.038025 -0.382500 -25.029999
v 0.031537 -0.374812 -25.029999
v 0.230475 -0.415937 -25.029999
v 0.065475 -0.496437 -25.029999
v -0.414025 -0.506500 -25.029999
v 0.406725 -0.087500 -25.029999
v 0.348725 -0.267500 -25.029999
v 0.230475 -0.415937 -25.029999
v 0.349850 0.287125 -25.029999
v 0.406850 0.114125 -25.029999
v 0.406725 -0.087500 -25.029999
v 0.071787 0.497375 -25.029999
v 0.234287 0.424375 -25.029999
v 0.349850 0.287125 -25.029999
v -0.275025 0.389500 -25.029999
v -0.414025 0.506500 -25.029999
v 0.071787 0.497375 -25.029999
v 0.230475 -0.415937 -25.029999
v -0.414025 -0.506500 -25.029999
v 0.031537 -0.374812 -25.029999
v 0.349850 0.287125 -25.029999
v 0.406725 -0.087500 -25.029999
v 0.230475 -0.415937 -25.029999
v -0.038025 0.389500 -25.029999
v -0.275025 0.389500 -25.029999
v 0.071787 0.497375 -25.029999
v 0.230475 -0.415937 -25.029999
v 0.031537 -0.374812 -25.029999
v 0.093225 -0.351750 -25.029999
v 0.031162 0.381688 -25.029999
v -0.038025 0.389500 -25.029999
v 0.071787 0.497375 -25.029999
v 0.230475 -0.415937 -25.029999
v 0.093225 -0.351750 -25.029999
v 0.147037 -0.313313 -25.029999
v 0.031162 0.381688 -25.029999
v 0.071787 0.497375 -25.029999
v 0.349850 0.287125 -25.029999
v 0.230475 -0.415937 -25.029999
v 0.147037 -0.313313 -25.029999
v 0.192975 -0.259500 -25.029999
v 0.092725 0.358250 -25.029999
v 0.031162 0.381688 -25.029999
v 0.349850 0.287125 -25.029999
v 0.230475 -0.415937 -25.029999
v 0.192975 -0.259500 -25.029999
v 0.225350 -0.202562 -25.029999
v 0.146662 0.319188 -25.029999
v 0.092725 0.358250 -25.029999
v 0.349850 0.287125 -25.029999
v 0.230475 -0.415937 -25.029999
v 0.225350 -0.202562 -25.029999
v 0.248475 -0.139750 -25.029999
v 0.192975 0.264500 -25.029999
v 0.146662 0.319188 -25.029999
v 0.349850 0.287125 -25.029999
v 0.230475 -0.415937 -25.029999
v 0.248475 -0.139750 -25.029999
v 0.262350 -0.071062 -25.029999
v 0.225350 0.207312 -25.029999
v 0.192975 0.264500 -25.029999
v 0.349850 0.287125 -25.029999
v 0.349850 0.287125 -25.029999
v 0.230475 -0.415937 -25.029999
v 0.262350 -0.071062 -25.029999
v 0.248475 0.144750 -25.029999
v 0.225350 0.207312 -25.029999
v 0.349850 0.287125 -25.029999
v 0.349850 0.287125 -25.029999
v 0.262350 -0.071062 -25.029999
v 0.266975 0.003500 -25.029999
v 0.262350 0.076813 -25.029999
v 0.248475 0.144750 -25.029999
v 0.349850 0.287125 -25.029999
v 0.349850 0.287125 -25.029999
v 0.266975 0.003500 -25.029999
v 0.262350 0.076813 -25.029999
v -0.414025 -0.506500 25.029999
v -0.275025 -0.382500 25.029999
v -0.275025 0.389500 25.029999
v -0.038025 -0.382500 25.029999
v -0.275025 -0.382500 25.029999
v -0.414025 -0.506500 25.029999
v -0.414025 -0.506500 25.029999
v -0.032025 -0.506500 25.029999
v 0.065475 -0.496437 25.029999
v 0.065475 -0.496437 25.029999
v 0.152975 -0.466250 25.029999
v 0.230475 -0.415937 25.029999
v 0.230475 -0.415937 25.029999
v 0.297975 -0.345500 25.029999
v 0.348725 -0.267500 25.029999
v 0.348725 -0.267500 25.029999
v 0.384975 -0.181500 25.029999
v 0.406725 -0.087500 25.029999
v 0.406725 -0.087500 25.029999
v 0.413975 0.014500 25.029999
v 0.406850 0.114125 25.029999
v 0.406850 0.114125 25.029999
v 0.385475 0.205000 25.029999
v 0.349850 0.287125 25.029999
v 0.349850 0.287125 25.029999
v 0.299975 0.360500 25.029999
v 0.234287 0.424375 25.029999
v 0.234287 0.424375 25.029999
v 0.158225 0.470000 25.029999
v 0.071787 0.497375 25.029999
v 0.071787 0.497375 25.029999
v -0.025025 0.506500 25.029999
v -0.414025 0.506500 25.029999
v -0.414025 0.506500 25.029999
v -0.414025 -0.506500 25.029999
v -0.275025 0.389500 25.029999
v 0.031537 -0.374812 25.029999
v -0.038025 -0.382500 25.029999
v -0.414025 -0.506500 25.029999
v -0.414025 -0.506500 25.029999
v 0.065475 -0.496437 25.029999
v 0.230475 -0.415937 25.029999
v 0.230475 -0.415937 25.029999
v 0.348725 -0.267500 25.029999
v 0.406725 -0.087500 25.029999
v 0.406725 -0.087500 25.029999
v 0.406850 0.114125 25.029999
v 0.349850 0.287125 25.029999
v 0.349850 0.287125 25.029999
v 0.234287 0.424375 25.029999
v 0.071787 0.497375 25.029999
v 0.071787 0.497375 25.029999
v -0.414025 0.506500 25.029999
v -0.275025 0.389500 25.029999
v 0.031537 -0.374812 25.029999
v -0.414025 -0.506500 25.029999
v 0.230475 -0.415937 25.029999
v 0.230475 -0.415937 25.029999
v 0.406725 -0.087500 25.029999
v 0.349850 0.287125 25.029999
v 0.071787 0.497375 25.029999
v -0.275025 0.389500 25.029999
v -0.038025 0.389500 25.029999
v 0.093225 -0.351750 25.029999
v 0.031537 -0.374812 25.029999
v 0.230475 -0.415937 25.029999
v 0.071787 0.497375 25.029999
v -0.038025 0.389500 25.029999
v 0.031162 0.381688 25.029999
v 0.147037 -0.313313 25.029999
v 0.093225 -0.351750 25.029999
v 0.230475 -0.415937 25.029999
v 0.349850 0.287125 25.029999
v 0.071787 0.497375 25.029999
v 0.031162 0.381688 25.029999
v 0.192975 -0.259500 25.029999
v 0.147037 -0.313313 25.029999
v 0.230475 -0.415937 25.029999
v 0.349850 0.287125 25.029999
v 0.031162 0.381688 25.029999
v 0.092725 0.358250 25.029999
v 0.225350 -0.202562 25.029999
v 0.192975 -0.259500 25.029999
v 0.230475 -0.415937 25.029999
v 0.349850 0.287125 25.029999
v 0.092725 0.358250 25.029999
v 0.146662 0.319188 25.029999
v 0.248475 -0.139750 25.029999
v 0.225350 -0.202562 25.029999
v 0.230475 -0.415937 25.029999
v 0.349850 0.287125 25.029999
v 0.146662 0.319188 25.029999
v 0.192975 0.264500 25.029999
v 0.262350 -0.071062 25.029999
v 0.248475 -0.139750 25.029999
v 0.230475 -0.415937 25.029999
v 0.349850 0.287125 25.029999
v 0.192975 0.264500 25.029999
v 0.225350 0.207312 25.029999
v 0.262350 -0.071062 25.029999
v 0.230475 -0.415937 25.029999
v 0.349850 0.287125 25.029999
v 0.349850 0.287125 25.029999
v 0.225350 0.207312 25.029999
v 0.248475 0.144750 25.029999
v 0.266975 0.003500 25.029999
v 0.262350 -0.071062 25.029999
v 0.349850 0.287125 25.029999
v 0.349850 0.287125 25.029999
v 0.248475 0.144750 25.029999
v 0.262350 0.076813 25.029999
v 0.262350 0.076813 25.029999
v 0.266975 0.003500 25.029999
v 0.349850 0.287125 25.029999
v -0.025025 0.506500 -25.029999
v -0.414025 0.506500 -25.029999
v -0.024555 0.516500 -25.025980
v -0.414025 0.506500 -25.029999
v -0.424025 0.516500 -25.025980
v -0.024555 0.516500 -25.025980
v -0.024555 0.516500 -25.025980
v -0.424025 0.516500 -25.025980
v -0.024211 0.523821 -25.014999
v -0.424025 0.516500 -25.025980
v -0.431346 0.523821 -25.014999
v -0.024211 0.523821 -25.014999
v -0.024211 0.523821 -25.014999
v -0.431346 0.523821 -25.014999
v -0.024085 0.526500 -25.000000
v -0.431346 0.523821 -25.014999
v -0.434025 0.526500 -25.000000
v -0.024085 0.526500 -25.000000
v -0.024085 0.526500 -25.000000
v -0.434025 0.526500 -25.000000
v -0.024085 0.526500 25.000000
v -0.434025 0.526500 -25.000000
v -0.434025 0.526500 25.000000
v -0.024085 0.526500 25.000000
v -0.024085 0.526500 25.000000
v -0.434025 0.526500 25.000000
v -0.024211 0.523821 25.014999
v -0.434025 0.526500 25.000000
v -0.431346 0.523821 25.014999
v -0.024211 0.523821 25.014999
v -0.024211 0.523821 25.014999
v -0.431346 0.523821 25.014999
v -0.024555 0.516500 25.025982
v -0.431346 0.523821 25.014999
v -0.424025 0.516500 25.025982
v -0.024555 0.516500 25.025982
v -0.024555 0.516500 25.025982
v -0.424025 0.516500 25.025982
v -0.025025 0.506500 25.029999
v -0.424025 0.516500 25.025982
v -0.414025 0.506500 25.029999
v -0.025025 0.506500 25.029999
v -0.414025 0.506500 -25.029999
v -0.414025 -0.506500 -25.029999
v -0.424025 0.516500 -25.025980
v -0.414025 -0.506500 -25.029999
v -0.424025 -0.516500 -25.025980
v -0.424025 0.516500 -25.025980
v -0.424025 0.516500 -25.025980
v -0.424025 -0.516500 -25.025980
v -0.431346 0.523821 -25.014999
v -0.424025 -0.516500 -25.025980
v -0.431346 -0.523821 -25.014999
v -0.431346 0.523821 -25.014999
v -0.431346 0.523821 -25.014999
v -0.431346 -0.523821 -25.014999
v -0.434025 0.526500 -25.000000
v -0.431346 -0.523821 -25.014999
v -0.434025 -0.526500 -25.000000
v -0.434025 0.526500 -25.000000
v -0.434025 0.526500 -25.000000
v -0.434025 -0.526500 -25.000000
v -0.434025 0.526500 25.000000
v -0.434025 -0.526500 -25.000000
v -0.434025 -0.526500 25.000000
v -0.434025 0.526500 25.000000
v -0.434025 0.526500 25.000000
v -0.434025 -0.526500 25.000000
v -0.431346 0.523821 25.014999
v -0.434025 -0.526500 25.000000
v -0.431346 -0.523821 25.014999
v -0.431346 0.523821 25.014999
v -0.431346 0.523821 25.014999
v -0.431346 -0.523821 25.014999
v -0.424025 0.516500 25.025982
v -0.431346 -0.523821 25.014999
v -0.424025 -0.516500 25.025982
v -0.424025 0.516500 25.025982
v -0.424025 0.516500 25.025982
v -0.424025 -0.516500 25.025982
v -0.414025 0.506500 25.029999
v -0.424025 -0.516500 25.025982
v -0.414025 -0.506500 25.029999
v -0.414025 0.506500 25.029999
v -0.414025 -0.506500 -25.029999
v -0.032025 -0.506500 -25.029999
v -0.424025 -0.516500 -25.025980
v -0.032025 -0.506500 -25.029999
v -0.031511 -0.516500 -25.025980
v -0.424025 -0.516500 -25.025980
v -0.424025 -0.516500 -25.025980
v -0.031511 -0.516500 -25.025980
v -0.431346 -0.523821 -25.014999
v -0.031511 -0.516500 -25.025980
v -0.031134 -0.523821 -25.014999
v -0.431346 -0.523821 -25.014999
v -0.431346 -0.523821 -25.014999
v -0.031134 -0.523821 -25.014999
v -0.434025 -0.526500 -25.000000
v -0.031134 -0.523821 -25.014999
v -0.030996 -0.526500 -25.000000
v -0.434025 -0.526500 -25.000000
v -0.434025 -0.526500 -25.000000
v -0.030996 -0.526500 -25.000000
v -0.434025 -0.526500 25.000000
v -0.030996 -0.526500 -25.000000
v -0.030996 -0.526500 25.000000
v -0.434025 -0.526500 25.000000
v -0.434025 -0.526500 25.000000
v -0.030996 -0.526500 25.000000
v -0.431346 -0.523821 25.014999
v -0.030996 -0.526500 25.000000
v -0.031134 -0.523821 25.014999
v -0.431346 -0.523821 25.014999
v -0.431346 -0.523821 25.014999
v -0.031134 -0.523821 25.014999
v -0.424025 -0.516500 25.025982
v -0.031134 -0.523821 25.014999
v -0.031511 -0.516500 25.025982
v -0.424025 -0.516500 25.025982
v -0.424025 -0.516500 25.025982
v -0.031511 -0.516500 25.025982
v -0.414025 -0.506500 25.029999
v -0.031511 -0.516500 25.025982
v -0.032025 -0.506500 25.029999
v -0.414025 -0.506500 25.029999
v -0.032025 -0.506500 -25.029999
v 0.065475 -0.496437 -25.029999
v -0.031511 -0.516500 -25.025980
v 0.065475 -0.496437 -25.029999
v 0.067647 -0.506266 -25.025980
v -0.031511 -0.516500 -25.025980
v -0.031511 -0.516500 -25.025980
v 0.067647 -0.506266 -25.025980
v -0.031134 -0.523821 -25.014999
v 0.067647 -0.506266 -25.025980
v 0.069237 -0.513462 -25.014999
v -0.031134 -0.523821 -25.014999
v -0.031134 -0.523821 -25.014999
v 0.069237 -0.513462 -25.014999
v -0.030996 -0.526500 -25.000000
v 0.069237 -0.513462 -25.014999
v 0.069819 -0.516095 -25.000000
v -0.030996 -0.526500 -25.000000
v -0.030996 -0.526500 -25.000000
v 0.069819 -0.516095 -25.000000
v -0.030996 -0.526500 25.000000
v 0.069819 -0.516095 -25.000000
v 0.069819 -0.516095 25.000000
v -0.030996 -0.526500 25.000000
v -0.030996 -0.526500 25.000000
v 0.069819 -0.516095 25.000000
v -0.031134 -0.523821 25.014999
v 0.069819 -0.516095 25.000000
v 0.069237 -0.513462 25.014999
v -0.031134 -0.523821 25.014999
v -0.031134 -0.523821 25.014999
v 0.069237 -0.513462 25.014999
v -0.031511 -0.516500 25.025982
v 0.069237 -0.513462 25.014999
v 0.067647 -0.506266 25.025982
v -0.031511 -0.516500 25.025982
v -0.031511 -0.516500 25.025982
v 0.067647 -0.506266 25.025982
v -0.032025 -0.506500 25.029999
v 0.067647 -0.506266 25.025982
v 0.065475 -0.496437 25.029999
v -0.032025 -0.506500 25.029999
v 0.065475 -0.496437 -25.029999
v 0.152975 -0.466250 -25.029999
v 0.067647 -0.506266 -25.025980
v 0.152975 -0.466250 -25.029999
v 0.157393 -0.475304 -25.025980
v 0.067647 -0.506266 -25.025980
v 0.067647 -0.506266 -25.025980
v 0.157393 -0.475304 -25.025980
v 0.069237 -0.513462 -25.014999
v 0.157393 -0.475304 -25.025980
v 0.160628 -0.481932 -25.014999
v 0.069237 -0.513462 -25.014999
v 0.069237 -0.513462 -25.014999
v 0.160628 -0.481932 -25.014999
v 0.069819 -0.516095 -25.000000
v 0.160628 -0.481932 -25.014999
v 0.161812 -0.484358 -25.000000
v 0.069819 -0.516095 -25.000000
v 0.069819 -0.516095 -25.000000
v 0.161812 -0.484358 -25.000000
v 0.069819 -0.516095 25.000000
v 0.161812 -0.484358 -25.000000
v 0.161812 -0.484358 25.000000
v 0.069819 -0.516095 25.000000
v 0.069819 -0.516095 25.000000
v 0.161812 -0.484358 25.000000
v 0.069237 -0.513462 25.014999
v 0.161812 -0.484358 25.000000
v 0.160628 -0.481932 25.014999
v 0.069237 -0.513462 25.014999
v 0.069237 -0.513462 25.014999
v 0.160628 -0.481932 25.014999
v 0.067647 -0.506266 25.025982
v 0.160628 -0.481932 25.014999
v 0.157393 -0.475304 25.025982
v 0.067647 -0.506266 25.025982
v 0.067647 -0.506266 25.025982
v 0.157393 -0.475304 25.025982
v 0.065475 -0.496437 25.029999
v 0.157393 -0.475304 25.025982
v 0.152975 -0.466250 25.029999
v 0.065475 -0.496437 25.029999
v 0.152975 -0.466250 -25.029999
v 0.230475 -0.415937 -25.029999
v 0.157393 -0.475304 -25.025980
v 0.230475 -0.415937 -25.029999
v 0.236892 -0.423694 -25.025980
v 0.157393 -0.475304 -25.025980
v 0.157393 -0.475304 -25.025980
v 0.236892 -0.423694 -25.025980
v 0.160628 -0.481932 -25.014999
v 0.236892 -0.423694 -25.025980
v 0.241590 -0.429372 -25.014999
v 0.160628 -0.481932 -25.014999
v 0.160628 -0.481932 -25.014999
v 0.241590 -0.429372 -25.014999
v 0.161812 -0.484358 -25.000000
v 0.241590 -0.429372 -25.014999
v 0.243310 -0.431450 -25.000000
v 0.161812 -0.484358 -25.000000
v 0.161812 -0.484358 -25.000000
v 0.243310 -0.431450 -25.000000
v 0.161812 -0.484358 25.000000
v 0.243310 -0.431450 -25.000000
v 0.243310 -0.431450 25.000000
v 0.161812 -0.484358 25.000000
v 0.161812 -0.484358 25.000000
v 0.243310 -0.431450 25.000000
v 0.160628 -0.481932 25.014999
v 0.243310 -0.431450 25.000000
v 0.241590 -0.429372 25.014999
v 0.160628 -0.481932 25.014999
v 0.160628 -0.481932 25.014999
v 0.241590 -0.429372 25.014999
v 0.157393 -0.475304 25.025982
v 0.241590 -0.429372 25.014999
v 0.236892 -0.423694 25.025982
v 0.157393 -0.475304 25.025982
v 0.157393 -0.475304 25.025982
v 0.236892 -0.423694 25.025982
v 0.152975 -0.466250 25.029999
v 0.236892 -0.423694 25.025982
v 0.230475 -0.415937 25.029999
v 0.152975 -0.466250 25.029999
v 0.230475 -0.415937 -25.029999
v 0.297975 -0.345500 -25.029999
v 0.236892 -0.423694 -25.025980
v 0.297975 -0.345500 -25.029999
v 0.305844 -0.351741 -25.025980
v 0.236892 -0.423694 -25.025980
v 0.236892 -0.423694 -25.025980
v 0.305844 -0.351741 -25.025980
v 0.241590 -0.429372 -25.014999
v 0.305844 -0.351741 -25.025980
v 0.311605 -0.356309 -25.014999
v 0.241590 -0.429372 -25.014999
v 0.241590 -0.429372 -25.014999
v 0.311605 -0.356309 -25.014999
v 0.243310 -0.431450 -25.000000
v 0.311605 -0.356309 -25.014999
v 0.313714 -0.357982 -25.000000
v 0.243310 -0.431450 -25.000000
v 0.243310 -0.431450 -25.000000
v 0.313714 -0.357982 -25.000000
v 0.243310 -0.431450 25.000000
v 0.313714 -0.357982 -25.000000
v 0.313714 -0.357982 25.000000
v 0.243310 -0.431450 25.000000
v 0.243310 -0.431450 25.000000
v 0.313714 -0.357982 25.000000
v 0.241590 -0.429372 25.014999
v 0.313714 -0.357982 25.000000
v 0.311605 -0.356309 25.014999
v 0.241590 -0.429372 25.014999
v 0.241590 -0.429372 25.014999
v 0.311605 -0.356309 25.014999
v 0.236892 -0.423694 25.025982
v 0.311605 -0.356309 25.014999
v 0.305844 -0.351741 25.025982
v 0.236892 -0.423694 25.025982
v 0.236892 -0.423694 25.025982
v 0.305844 -0.351741 25.025982
v 0.230475 -0.415937 25.029999
v 0.305844 -0.351741 25.025982
v 0.297975 -0.345500 25.029999
v 0.230475 -0.415937 25.029999
v 0.297975 -0.345500 -25.029999
v 0.348725 -0.267500 -25.029999
v 0.305844 -0.351741 -25.025980
v 0.348725 -0.267500 -25.029999
v 0.357593 -0.272206 -25.025980
v 0.305844 -0.351741 -25.025980
v 0.305844 -0.351741 -25.025980
v 0.357593 -0.272206 -25.025980
v 0.311605 -0.356309 -25.014999
v 0.357593 -0.272206 -25.025980
v 0.364085 -0.275651 -25.014999
v 0.311605 -0.356309 -25.014999
v 0.311605 -0.356309 -25.014999
v 0.364085 -0.275651 -25.014999
v 0.313714 -0.357982 -25.000000
v 0.364085 -0.275651 -25.014999
v 0.366461 -0.276912 -25.000000
v 0.313714 -0.357982 -25.000000
v 0.313714 -0.357982 -25.000000
v 0.366461 -0.276912 -25.000000
v 0.313714 -0.357982 25.000000
v 0.366461 -0.276912 -25.000000
v 0.366461 -0.276912 25.000000
v 0.313714 -0.357982 25.000000
v 0.313714 -0.357982 25.000000
v 0.366461 -0.276912 25.000000
v 0.311605 -0.356309 25.014999
v 0.366461 -0.276912 25.000000
v 0.364085 -0.275651 25.014999
v 0.311605 -0.356309 25.014999
v 0.311605 -0.356309 25.014999
v 0.364085 -0.275651 25.014999
v 0.305844 -0.351741 25.025982
v 0.364085 -0.275651 25.014999
v 0.357593 -0.272206 25.025982
v 0.305844 -0.351741 25.025982
v 0.305844 -0.351741 25.025982
v 0.357593 -0.272206 25.025982
v 0.297975 -0.345500 25.029999
v 0.357593 -0.272206 25.025982
v 0.348725 -0.267500 25.029999
v 0.297975 -0.345500 25.029999
v 0.348725 -0.267500 -25.029999
v 0.384975 -0.181500 -25.029999
v 0.357593 -0.272206 -25.025980
v 0.384975 -0.181500 -25.029999
v 0.394523 -0.184592 -25.025980
v 0.357593 -0.272206 -25.025980
v 0.357593 -0.272206 -25.025980
v 0.394523 -0.184592 -25.025980
v 0.364085 -0.275651 -25.014999
v 0.394523 -0.184592 -25.025980
v 0.401514 -0.186855 -25.014999
v 0.364085 -0.275651 -25.014999
v 0.364085 -0.275651 -25.014999
v 0.401514 -0.186855 -25.014999
v 0.366461 -0.276912 -25.000000
v 0.401514 -0.186855 -25.014999
v 0.404072 -0.187684 -25.000000
v 0.366461 -0.276912 -25.000000
v 0.366461 -0.276912 -25.000000
v 0.404072 -0.187684 -25.000000
v 0.366461 -0.276912 25.000000
v 0.404072 -0.187684 -25.000000
v 0.404072 -0.187684 25.000000
v 0.366461 -0.276912 25.000000
v 0.366461 -0.276912 25.000000
v 0.404072 -0.187684 25.000000
v 0.364085 -0.275651 25.014999
v 0.404072 -0.187684 25.000000
v 0.401514 -0.186855 25.014999
v 0.364085 -0.275651 25.014999
v 0.364085 -0.275651 25.014999
v 0.401514 -0.186855 25.014999
v 0.357593 -0.272206 25.025982
v 0.401514 -0.186855 25.014999
v 0.394523 -0.184592 25.025982
v 0.357593 -0.272206 25.025982
v 0.357593 -0.272206 25.025982
v 0.394523 -0.184592 25.025982
v 0.348725 -0.267500 25.029999
v 0.394523 -0.184592 25.025982
v 0.384975 -0.181500 25.029999
v 0.348725 -0.267500 25.029999
v 0.384975 -0.181500 -25.029999
v 0.406725 -0.087500 -25.029999
v 0.394523 -0.184592 -25.025980
v 0.406725 -0.087500 -25.029999
v 0.416644 -0.088991 -25.025980
v 0.394523 -0.184592 -25.025980
v 0.394523 -0.184592 -25.025980
v 0.416644 -0.088991 -25.025980
v 0.401514 -0.186855 -25.014999
v 0.416644 -0.088991 -25.025980
v 0.423905 -0.090082 -25.014999
v 0.401514 -0.186855 -25.014999
v 0.401514 -0.186855 -25.014999
v 0.423905 -0.090082 -25.014999
v 0.404072 -0.187684 -25.000000
v 0.423905 -0.090082 -25.014999
v 0.426563 -0.090481 -25.000000
v 0.404072 -0.187684 -25.000000
v 0.404072 -0.187684 -25.000000
v 0.426563 -0.090481 -25.000000
v 0.404072 -0.187684 25.000000
v 0.426563 -0.090481 -25.000000
v 0.426563 -0.090481 25.000000
v 0.404072 -0.187684 25.000000
v 0.404072 -0.187684 25.000000
v 0.426563 -0.090481 25.000000
v 0.401514 -0.186855 25.014999
v 0.426563 -0.090481 25.000000
v 0.423905 -0.090082 25.014999
v 0.401514 -0.186855 25.014999
v 0.401514 -0.186855 25.014999
v 0.423905 -0.090082 25.014999
v 0.394523 -0.184592 25.025982
v 0.423905 -0.090082 25.014999
v 0.416644 -0.088991 25.025982
v 0.394523 -0.184592 25.025982
v 0.394523 -0.184592 25.025982
v 0.416644 -0.088991 25.025982
v 0.384975 -0.181500 25.029999
v 0.416644 -0.088991 25.025982
v 0.406725 -0.087500 25.029999
v 0.384975 -0.181500 25.029999
v 0.406725 -0.087500 -25.029999
v 0.413975 0.014500 -25.029999
v 0.416644 -0.088991 -25.025980
v 0.413975 0.014500 -25.029999
v 0.424000 0.014502 -25.025980
v 0.416644 -0.088991 -25.025980
v 0.416644 -0.088991 -25.025980
v 0.424000 0.014502 -25.025980
v 0.423905 -0.090082 -25.014999
v 0.424000 0.014502 -25.025980
v 0.431339 0.014504 -25.014999
v 0.423905 -0.090082 -25.014999
v 0.423905 -0.090082 -25.014999
v 0.431339 0.014504 -25.014999
v 0.426563 -0.090481 -25.000000
v 0.431339 0.014504 -25.014999
v 0.434025 0.014504 -25.000000
v 0.426563 -0.090481 -25.000000
v 0.426563 -0.090481 -25.000000
v 0.434025 0.014504 -25.000000
v 0.426563 -0.090481 25.000000
v 0.434025 0.014504 -25.000000
v 0.434025 0.014504 25.000000
v 0.426563 -0.090481 25.000000
v 0.426563 -0.090481 25.000000
v 0.434025 0.014504 25.000000
v 0.423905 -0.090082 25.014999
v 0.434025 0.014504 25.000000
v 0.431339 0.014504 25.014999
v 0.423905 -0.090082 25.014999
v 0.423905 -0.090082 25.014999
v 0.431339 0.014504 25.014999
v 0.416644 -0.088991 25.025982
v 0.431339 0.014504 25.014999
v 0.424000 0.014502 25.025982
v 0.416644 -0.088991 25.025982
v 0.416644 -0.088991 25.025982
v 0.424000 0.014502 25.025982
v 0.406725 -0.087500 25.029999
v 0.424000 0.014502 25.025982
v 0.413975 0.014500 25.029999
v 0.406725 -0.087500 25.029999
v 0.413975 0.014500 -25.029999
v 0.406850 0.114125 -25.029999
v 0.424000 0.014502 -25.025980
v 0.406850 0.114125 -25.029999
v 0.416767 0.115636 -25.025980
v 0.424000 0.014502 -25.025980
v 0.424000 0.014502 -25.025980
v 0.416767 0.115636 -25.025980
v 0.431339 0.014504 -25.014999
v 0.416767 0.115636 -25.025980
v 0.424027 0.116742 -25.014999
v 0.431339 0.014504 -25.014999
v 0.431339 0.014504 -25.014999
v 0.424027 0.116742 -25.014999
v 0.434025 0.014504 -25.000000
v 0.424027 0.116742 -25.014999
v 0.426685 0.117147 -25.000000
v 0.434025 0.014504 -25.000000
v 0.434025 0.014504 -25.000000
v 0.426685 0.117147 -25.000000
v 0.434025 0.014504 25.000000
v 0.426685 0.117147 -25.000000
v 0.426685 0.117147 25.000000
v 0.434025 0.014504 25.000000
v 0.434025 0.014504 25.000000
v 0.426685 0.117147 25.000000
v 0.431339 0.014504 25.014999
v 0.426685 0.117147 25.000000
v 0.424027 0.116742 25.014999
v 0.431339 0.014504 25.014999
v 0.431339 0.014504 25.014999
v 0.424027 0.116742 25.014999
v 0.424000 0.014502 25.025982
v 0.424027 0.116742 25.014999
v 0.416767 0.115636 25.025982
v 0.424000 0.014502 25.025982
v 0.424000 0.014502 25.025982
v 0.416767 0.115636 25.025982
v 0.413975 0.014500 25.029999
v 0.416767 0.115636 25.025982
v 0.406850 0.114125 25.029999
v 0.413975 0.014500 25.029999
v 0.406850 0.114125 -25.029999
v 0.385475 0.205000 -25.029999
v 0.416767 0.115636 -25.025980
v 0.385475 0.205000 -25.029999
v 0.395004 0.208160 -25.025980
v 0.416767 0.115636 -25.025980
v 0.416767 0.115636 -25.025980
v 0.395004 0.208160 -25.025980
v 0.424027 0.116742 -25.014999
v 0.395004 0.208160 -25.025980
v 0.401981 0.210473 -25.014999
v 0.424027 0.116742 -25.014999
v 0.424027 0.116742 -25.014999
v 0.401981 0.210473 -25.014999
v 0.426685 0.117147 -25.000000
v 0.401981 0.210473 -25.014999
v 0.404534 0.211319 -25.000000
v 0.426685 0.117147 -25.000000
v 0.426685 0.117147 -25.000000
v 0.404534 0.211319 -25.000000
v 0.426685 0.117147 25.000000
v 0.404534 0.211319 -25.000000
v 0.404534 0.211319 25.000000
v 0.426685 0.117147 25.000000
v 0.426685 0.117147 25.000000
v 0.404534 0.211319 25.000000
v 0.424027 0.116742 25.014999
v 0.404534 0.211319 25.000000
v 0.401981 0.210473 25.014999
v 0.424027 0.116742 25.014999
v 0.424027 0.116742 25.014999
v 0.401981 0.210473 25.014999
v 0.416767 0.115636 25.025982
v 0.401981 0.210473 25.014999
v 0.395004 0.208160 25.025982
v 0.416767 0.115636 25.025982
v 0.416767 0.115636 25.025982
v 0.395004 0.208160 25.025982
v 0.406850 0.114125 25.029999
v 0.395004 0.208160 25.025982
v 0.385475 0.205000 25.029999
v 0.406850 0.114125 25.029999
v 0.385475 0.205000 -25.029999
v 0.349850 0.287125 -25.029999
v 0.395004 0.208160 -25.025980
v 0.349850 0.287125 -25.029999
v 0.358649 0.291968 -25.025980
v 0.395004 0.208160 -25.025980
v 0.395004 0.208160 -25.025980
v 0.358649 0.291968 -25.025980
v 0.401981 0.210473 -25.014999
v 0.358649 0.291968 -25.025980
v 0.365091 0.295514 -25.014999
v 0.401981 0.210473 -25.014999
v 0.401981 0.210473 -25.014999
v 0.365091 0.295514 -25.014999
v 0.404534 0.211319 -25.000000
v 0.365091 0.295514 -25.014999
v 0.367448 0.296811 -25.000000
v 0.404534 0.211319 -25.000000
v 0.404534 0.211319 -25.000000
v 0.367448 0.296811 -25.000000
v 0.404534 0.211319 25.000000
v 0.367448 0.296811 -25.000000
v 0.367448 0.296811 25.000000
v 0.404534 0.211319 25.000000
v 0.404534 0.211319 25.000000
v 0.367448 0.296811 25.000000
v 0.401981 0.210473 25.014999
v 0.367448 0.296811 25.000000
v 0.365091 0.295514 25.014999
v 0.401981 0.210473 25.014999
v 0.401981 0.210473 25.014999
v 0.365091 0.295514 25.014999
v 0.395004 0.208160 25.025982
v 0.365091 0.295514 25.014999
v 0.358649 0.291968 25.025982
v 0.395004 0.208160 25.025982
v 0.395004 0.208160 25.025982
v 0.358649 0.291968 25.025982
v 0.385475 0.205000 25.029999
v 0.358649 0.291968 25.025982
v 0.349850 0.287125 25.029999
v 0.385475 0.205000 25.029999
v 0.349850 0.287125 -25.029999
v 0.299975 0.360500 -25.029999
v 0.358649 0.291968 -25.025980
v 0.299975 0.360500 -25.029999
v 0.307674 0.366961 -25.025980
v 0.358649 0.291968 -25.025980
v 0.358649 0.291968 -25.025980
v 0.307674 0.366961 -25.025980
v 0.365091 0.295514 -25.014999
v 0.307674 0.366961 -25.025980
v 0.313310 0.371691 -25.014999
v 0.365091 0.295514 -25.014999
v 0.365091 0.295514 -25.014999
v 0.313310 0.371691 -25.014999
v 0.367448 0.296811 -25.000000
v 0.313310 0.371691 -25.014999
v 0.315374 0.373423 -25.000000
v 0.367448 0.296811 -25.000000
v 0.367448 0.296811 -25.000000
v 0.315374 0.373423 -25.000000
v 0.367448 0.296811 25.000000
v 0.315374 0.373423 -25.000000
v 0.315374 0.373423 25.000000
v 0.367448 0.296811 25.000000
v 0.367448 0.296811 25.000000
v 0.315374 0.373423 25.000000
v 0.365091 0.295514 25.014999
v 0.315374 0.373423 25.000000
v 0.313310 0.371691 25.014999
v 0.365091 0.295514 25.014999
v 0.365091 0.295514 25.014999
v 0.313310 0.371691 25.014999
v 0.358649 0.291968 25.025982
v 0.313310 0.371691 25.014999
v 0.307674 0.366961 25.025982
v 0.358649 0.291968 25.025982
v 0.358649 0.291968 25.025982
v 0.307674 0.366961 25.025982
v 0.349850 0.287125 25.029999
v 0.307674 0.366961 25.025982
v 0.299975 0.360500 25.029999
v 0.349850 0.287125 25.029999
v 0.299975 0.360500 -25.029999
v 0.234287 0.424375 -25.029999
v 0.307674 0.366961 -25.025980
v 0.234287 0.424375 -25.029999
v 0.240426 0.432353 -25.025980
v 0.307674 0.366961 -25.025980
v 0.307674 0.366961 -25.025980
v 0.240426 0.432353 -25.025980
v 0.313310 0.371691 -25.014999
v 0.240426 0.432353 -25.025980
v 0.244921 0.438194 -25.014999
v 0.313310 0.371691 -25.014999
v 0.313310 0.371691 -25.014999
v 0.244921 0.438194 -25.014999
v 0.315374 0.373423 -25.000000
v 0.244921 0.438194 -25.014999
v 0.246566 0.440332 -25.000000
v 0.315374 0.373423 -25.000000
v 0.315374 0.373423 -25.000000
v 0.246566 0.440332 -25.000000
v 0.315374 0.373423 25.000000
v 0.246566 0.440332 -25.000000
v 0.246566 0.440332 25.000000
v 0.315374 0.373423 25.000000
v 0.315374 0.373423 25.000000
v 0.246566 0.440332 25.000000
v 0.313310 0.371691 25.014999
v 0.246566 0.440332 25.000000
v 0.244921 0.438194 25.014999
v 0.313310 0.371691 25.014999
v 0.313310 0.371691 25.014999
v 0.244921 0.438194 25.014999
v 0.307674 0.366961 25.025982
v 0.244921 0.438194 25.014999
v 0.240426 0.432353 25.025982
v 0.307674 0.366961 25.025982
v 0.307674 0.366961 25.025982
v 0.240426 0.432353 25.025982
v 0.299975 0.360500 25.029999
v 0.240426 0.432353 25.025982
v 0.234287 0.424375 25.029999
v 0.299975 0.360500 25.029999
v 0.234287 0.424375 -25.029999
v 0.158225 0.470000 -25.029999
v 0.240426 0.432353 -25.025980
v 0.158225 0.470000 -25.029999
v 0.162362 0.479179 -25.025980
v 0.240426 0.432353 -25.025980
v 0.240426 0.432353 -25.025980
v 0.162362 0.479179 -25.025980
v 0.244921 0.438194 -25.014999
v 0.162362 0.479179 -25.025980
v 0.165391 0.485899 -25.014999
v 0.244921 0.438194 -25.014999
v 0.244921 0.438194 -25.014999
v 0.165391 0.485899 -25.014999
v 0.246566 0.440332 -25.000000
v 0.165391 0.485899 -25.014999
v 0.166500 0.488358 -25.000000
v 0.246566 0.440332 -25.000000
v 0.246566 0.440332 -25.000000
v 0.166500 0.488358 -25.000000
v 0.246566 0.440332 25.000000
v 0.166500 0.488358 -25.000000
v 0.166500 0.488358 25.000000
v 0.246566 0.440332 25.000000
v 0.246566 0.440332 25.000000
v 0.166500 0.488358 25.000000
v 0.244921 0.438194 25.014999
v 0.166500 0.488358 25.000000
v 0.165391 0.485899 25.014999
v 0.244921 0.438194 25.014999
v 0.244921 0.438194 25.014999
v 0.165391 0.485899 25.014999
v 0.240426 0.432353 25.025982
v 0.165391 0.485899 25.014999
v 0.162362 0.479179 25.025982
v 0.240426 0.432353 25.025982
v 0.240426 0.432353 25.025982
v 0.162362 0.479179 25.025982
v 0.234287 0.424375 25.029999
v 0.162362 0.479179 25.025982
v 0.158225 0.470000 25.029999
v 0.234287 0.424375 25.029999
v 0.158225 0.470000 -25.029999
v 0.071787 0.497375 -25.029999
v 0.162362 0.479179 -25.025980
v 0.071787 0.497375 -25.029999
v 0.073788 0.507231 -25.025980
v 0.162362 0.479179 -25.025980
v 0.162362 0.479179 -25.025980
v 0.073788 0.507231 -25.025980
v 0.165391 0.485899 -25.014999
v 0.073788 0.507231 -25.025980
v 0.075254 0.514446 -25.014999
v 0.165391 0.485899 -25.014999
v 0.165391 0.485899 -25.014999
v 0.075254 0.514446 -25.014999
v 0.166500 0.488358 -25.000000
v 0.075254 0.514446 -25.014999
v 0.075790 0.517086 -25.000000
v 0.166500 0.488358 -25.000000
v 0.166500 0.488358 -25.000000
v 0.075790 0.517086 -25.000000
v 0.166500 0.488358 25.000000
v 0.075790 0.517086 -25.000000
v 0.075790 0.517086 25.000000
v 0.166500 0.488358 25.000000
v 0.166500 0.488358 25.000000
v 0.075790 0.517086 25.000000
v 0.165391 0.485899 25.014999
v 0.075790 0.517086 25.000000
v 0.075254 0.514446 25.014999
v 0.165391 0.485899 25.014999
v 0.165391 0.485899 25.014999
v 0.075254 0.514446 25.014999
v 0.162362 0.479179 25.025982
v 0.075254 0.514446 25.014999
v 0.073788 0.507231 25.025982
v 0.162362 0.479179 25.025982
v 0.162362 0.479179 25.025982
v 0.073788 0.507231 25.025982
v 0.158225 0.470000 25.029999
v 0.073788 0.507231 25.025982
v 0.071787 0.497375 25.029999
v 0.158225 0.470000 25.029999
v 0.071787 0.497375 -25.029999
v -0.025025 0.506500 -25.029999
v 0.073788 0.507231 -25.025980
v -0.025025 0.506500 -25.029999
v -0.024555 0.516500 -25.025980
v 0.073788 0.507231 -25.025980
v 0.073788 0.507231 -25.025980
v -0.024555 0.516500 -25.025980
v 0.075254 0.514446 -25.014999
v -0.024555 0.516500 -25.025980
v -0.024211 0.523821 -25.014999
v 0.075254 0.514446 -25.014999
v 0.075254 0.514446 -25.014999
v -0.024211 0.523821 -25.014999
v 0.075790 0.517086 -25.000000
v -0.024211 0.523821 -25.014999
v -0.024085 0.526500 -25.000000
v 0.075790 0.517086 -25.000000
v 0.075790 0.517086 -25.000000
v -0.024085 0.526500 -25.000000
v 0.075790 0.517086 25.000000
v -0.024085 0.526500 -25.000000
v -0.024085 0.526500 25.000000
v 0.075790 0.517086 25.000000
v 0.075790 0.517086 25.000000
v -0.024085 0.526500 25.000000
v 0.075254 0.514446 25.014999
v -0.024085 0.526500 25.000000
v -0.024211 0.523821 25.014999
v 0.075254 0.514446 25.014999
v 0.075254 0.514446 25.014999
v -0.024211 0.523821 25.014999
v 0.073788 0.507231 25.025982
v -0.024211 0.523821 25.014999
v -0.024555 0.516500 25.025982
v 0.073788 0.507231 25.025982
v 0.073788 0.507231 25.025982
v -0.024555 0.516500 25.025982
v 0.071787 0.497375 25.029999
v -0.024555 0.516500 25.025982
v -0.025025 0.506500 25.029999
v 0.071787 0.497375 25.029999
v -0.038025 -0.382500 -25.029999
v -0.275025 -0.382500 -25.029999
v -0.038576 -0.372500 -25.025980
v -0.275025 -0.382500 -25.029999
v -0.265025 -0.372500 -25.025980
v -0.038576 -0.372500 -25.025980
v -0.038576 -0.372500 -25.025980
v -0.265025 -0.372500 -25.025980
v -0.038980 -0.365179 -25.014999
v -0.265025 -0.372500 -25.025980
v -0.257705 -0.365179 -25.014999
v -0.038980 -0.365179 -25.014999
v -0.038980 -0.365179 -25.014999
v -0.257705 -0.365179 -25.014999
v -0.039127 -0.362500 -25.000000
v -0.257705 -0.365179 -25.014999
v -0.255025 -0.362500 -25.000000
v -0.039127 -0.362500 -25.000000
v -0.039127 -0.362500 -25.000000
v -0.255025 -0.362500 -25.000000
v -0.039127 -0.362500 25.000000
v -0.255025 -0.362500 -25.000000
v -0.255025 -0.362500 25.000000
v -0.039127 -0.362500 25.000000
v -0.039127 -0.362500 25.000000
v -0.255025 -0.362500 25.000000
v -0.038980 -0.365179 25.014999
v -0.255025 -0.362500 25.000000
v -0.257705 -0.365179 25.014999
v -0.038980 -0.365179 25.014999
v -0.038980 -0.365179 25.014999
v -0.257705 -0.365179 25.014999
v -0.038576 -0.372500 25.025982
v -0.257705 -0.365179 25.014999
v -0.265025 -0.372500 25.025982
v -0.038576 -0.372500 25.025982
v -0.038576 -0.372500 25.025982
v -0.265025 -0.372500 25.025982
v -0.038025 -0.382500 25.029999
v -0.265025 -0.372500 25.025982
v -0.275025 -0.382500 25.029999
v -0.038025 -0.382500 25.029999
v -0.275025 -0.382500 -25.029999
v -0.275025 0.389500 -25.029999
v -0.265025 -0.372500 -25.025980
v -0.275025 0.389500 -25.029999
v -0.265025 0.379500 -25.025980
v -0.265025 -0.372500 -25.025980
v -0.265025 -0.372500 -25.025980
v -0.265025 0.379500 -25.025980
v -0.257705 -0.365179 -25.014999
v -0.265025 0.379500 -25.025980
v -0.257705 0.372180 -25.014999
v -0.257705 -0.365179 -25.014999
v -0.257705 -0.365179 -25.014999
v -0.257705 0.372180 -25.014999
v -0.255025 -0.362500 -25.000000
v -0.257705 0.372180 -25.014999
v -0.255025 0.369500 -25.000000
v -0.255025 -0.362500 -25.000000
v -0.255025 -0.362500 -25.000000
v -0.255025 0.369500 -25.000000
v -0.255025 -0.362500 25.000000
v -0.255025 0.369500 -25.000000
v -0.255025 0.369500 25.000000
v -0.255025 -0.362500 25.000000
v -0.255025 -0.362500 25.000000
v -0.255025 0.369500 25.000000
v -0.257705 -0.365179 25.014999
v -0.255025 0.369500 25.000000
v -0.257705 0.372180 25.014999
v -0.257705 -0.365179 25.014999
v -0.257705 -0.365179 25.014999
v -0.257705 0.372180 25.014999
v -0.265025 -0.372500 25.025982
v -0.257705 0.372180 25.014999
v -0.265025 0.379500 25.025982
v -0.265025 -0.372500 25.025982
v -0.265025 -0.372500 25.025982
v -0.265025 0.379500 25.025982
v -0.275025 -0.382500 25.029999
v -0.265025 0.379500 25.025982
v -0.275025 0.389500 25.029999
v -0.275025 -0.382500 25.029999
v -0.275025 0.389500 -25.029999
v -0.038025 0.389500 -25.029999
v -0.265025 0.379500 -25.025980
v -0.038025 0.389500 -25.029999
v -0.038588 0.379500 -25.025980
v -0.265025 0.379500 -25.025980
v -0.265025 0.379500 -25.025980
v -0.038588 0.379500 -25.025980
v -0.257705 0.372180 -25.014999
v -0.038588 0.379500 -25.025980
v -0.039000 0.372180 -25.014999
v -0.257705 0.372180 -25.014999
v -0.257705 0.372180 -25.014999
v -0.039000 0.372180 -25.014999
v -0.255025 0.369500 -25.000000
v -0.039000 0.372180 -25.014999
v -0.039151 0.369500 -25.000000
v -0.255025 0.369500 -25.000000
v -0.255025 0.369500 -25.000000
v -0.039151 0.369500 -25.000000
v -0.255025 0.369500 25.000000
v -0.039151 0.369500 -25.000000
v -0.039151 0.369500 25.000000
v -0.255025 0.369500 25.000000
v -0.255025 0.369500 25.000000
v -0.039151 0.369500 25.000000
v -0.257705 0.372180 25.014999
v -0.039151 0.369500 25.000000
v -0.039000 0.372180 25.014999
v -0.257705 0.372180 25.014999
v -0.257705 0.372180 25.014999
v -0.039000 0.372180 25.014999
v -0.265025 0.379500 25.025982
v -0.039000 0.372180 25.014999
v -0.038588 0.379500 25.025982
v -0.265025 0.379500 25.025982
v -0.265025 0.379500 25.025982
v -0.038588 0.379500 25.025982
v -0.275025 0.389500 25.029999
v -0.038588 0.379500 25.025982
v -0.038025 0.389500 25.029999
v -0.275025 0.389500 25.029999
v -0.038025 0.389500 -25.029999
v 0.031162 0.381688 -25.029999
v -0.038588 0.379500 -25.025980
v 0.031162 0.381688 -25.029999
v 0.028785 0.371892 -25.025980
v -0.038588 0.379500 -25.025980
v -0.038588 0.379500 -25.025980
v 0.028785 0.371892 -25.025980
v -0.039000 0.372180 -25.014999
v 0.028785 0.371892 -25.025980
v 0.027044 0.364722 -25.014999
v -0.039000 0.372180 -25.014999
v -0.039000 0.372180 -25.014999
v 0.027044 0.364722 -25.014999
v -0.039151 0.369500 -25.000000
v 0.027044 0.364722 -25.014999
v 0.026407 0.362097 -25.000000
v -0.039151 0.369500 -25.000000
v -0.039151 0.369500 -25.000000
v 0.026407 0.362097 -25.000000
v -0.039151 0.369500 25.000000
v 0.026407 0.362097 -25.000000
v 0.026407 0.362097 25.000000
v -0.039151 0.369500 25.000000
v -0.039151 0.369500 25.000000
v 0.026407 0.362097 25.000000
v -0.039000 0.372180 25.014999
v 0.026407 0.362097 25.000000
v 0.027044 0.364722 25.014999
v -0.039000 0.372180 25.014999
v -0.039000 0.372180 25.014999
v 0.027044 0.364722 25.014999
v -0.038588 0.379500 25.025982
v 0.027044 0.364722 25.014999
v 0.028785 0.371892 25.025982
v -0.038588 0.379500 25.025982
v -0.038588 0.379500 25.025982
v 0.028785 0.371892 25.025982
v -0.038025 0.389500 25.029999
v 0.028785 0.371892 25.025982
v 0.031162 0.381688 25.029999
v -0.038025 0.389500 25.029999
v 0.031162 0.381688 -25.029999
v 0.092725 0.358250 -25.029999
v 0.028785 0.371892 -25.025980
v 0.092725 0.358250 -25.029999
v 0.087930 0.349375 -25.025980
v 0.028785 0.371892 -25.025980
v 0.028785 0.371892 -25.025980
v 0.087930 0.349375 -25.025980
v 0.027044 0.364722 -25.014999
v 0.087930 0.349375 -25.025980
v 0.084421 0.342878 -25.014999
v 0.027044 0.364722 -25.014999
v 0.027044 0.364722 -25.014999
v 0.084421 0.342878 -25.014999
v 0.026407 0.362097 -25.000000
v 0.084421 0.342878 -25.014999
v 0.083136 0.340500 -25.000000
v 0.026407 0.362097 -25.000000
v 0.026407 0.362097 -25.000000
v 0.083136 0.340500 -25.000000
v 0.026407 0.362097 25.000000
v 0.083136 0.340500 -25.000000
v 0.083136 0.340500 25.000000
v 0.026407 0.362097 25.000000
v 0.026407 0.362097 25.000000
v 0.083136 0.340500 25.000000
v 0.027044 0.364722 25.014999
v 0.083136 0.340500 25.000000
v 0.084421 0.342878 25.014999
v 0.027044 0.364722 25.014999
v 0.027044 0.364722 25.014999
v 0.084421 0.342878 25.014999
v 0.028785 0.371892 25.025982
v 0.084421 0.342878 25.014999
v 0.087930 0.349375 25.025982
v 0.028785 0.371892 25.025982
v 0.028785 0.371892 25.025982
v 0.087930 0.349375 25.025982
v 0.031162 0.381688 25.029999
v 0.087930 0.349375 25.025982
v 0.092725 0.358250 25.029999
v 0.031162 0.381688 25.029999
v 0.092725 0.358250 -25.029999
v 0.146662 0.319188 -25.029999
v 0.087930 0.349375 -25.025980
v 0.146662 0.319188 -25.029999
v 0.139815 0.311800 -25.025980
v 0.087930 0.349375 -25.025980
v 0.087930 0.349375 -25.025980
v 0.139815 0.311800 -25.025980
v 0.084421 0.342878 -25.014999
v 0.139815 0.311800 -25.025980
v 0.134802 0.306391 -25.014999
v 0.084421 0.342878 -25.014999
v 0.084421 0.342878 -25.014999
v 0.134802 0.306391 -25.014999
v 0.083136 0.340500 -25.000000
v 0.134802 0.306391 -25.014999
v 0.132967 0.304412 -25.000000
v 0.083136 0.340500 -25.000000
v 0.083136 0.340500 -25.000000
v 0.132967 0.304412 -25.000000
v 0.083136 0.340500 25.000000
v 0.132967 0.304412 -25.000000
v 0.132967 0.304412 25.000000
v 0.083136 0.340500 25.000000
v 0.083136 0.340500 25.000000
v 0.132967 0.304412 25.000000
v 0.084421 0.342878 25.014999
v 0.132967 0.304412 25.000000
v 0.134802 0.306391 25.014999
v 0.084421 0.342878 25.014999
v 0.084421 0.342878 25.014999
v 0.134802 0.306391 25.014999
v 0.087930 0.349375 25.025982
v 0.134802 0.306391 25.014999
v 0.139815 0.311800 25.025982
v 0.087930 0.349375 25.025982
v 0.087930 0.349375 25.025982
v 0.139815 0.311800 25.025982
v 0.092725 0.358250 25.029999
v 0.139815 0.311800 25.025982
v 0.146662 0.319188 25.029999
v 0.092725 0.358250 25.029999
v 0.146662 0.319188 -25.029999
v 0.192975 0.264500 -25.029999
v 0.139815 0.311800 -25.025980
v 0.192975 0.264500 -25.029999
v 0.184736 0.258755 -25.025980
v 0.139815 0.311800 -25.025980
v 0.139815 0.311800 -25.025980
v 0.184736 0.258755 -25.025980
v 0.134802 0.306391 -25.014999
v 0.184736 0.258755 -25.025980
v 0.178704 0.254550 -25.014999
v 0.134802 0.306391 -25.014999
v 0.134802 0.306391 -25.014999
v 0.178704 0.254550 -25.014999
v 0.132967 0.304412 -25.000000
v 0.178704 0.254550 -25.014999
v 0.176497 0.253010 -25.000000
v 0.132967 0.304412 -25.000000
v 0.132967 0.304412 -25.000000
v 0.176497 0.253010 -25.000000
v 0.132967 0.304412 25.000000
v 0.176497 0.253010 -25.000000
v 0.176497 0.253010 25.000000
v 0.132967 0.304412 25.000000
v 0.132967 0.304412 25.000000
v 0.176497 0.253010 25.000000
v 0.134802 0.306391 25.014999
v 0.176497 0.253010 25.000000
v 0.178704 0.254550 25.014999
v 0.134802 0.306391 25.014999
v 0.134802 0.306391 25.014999
v 0.178704 0.254550 25.014999
v 0.139815 0.311800 25.025982
v 0.178704 0.254550 25.014999
v 0.184736 0.258755 25.025982
v 0.139815 0.311800 25.025982
v 0.139815 0.311800 25.025982
v 0.184736 0.258755 25.025982
v 0.146662 0.319188 25.029999
v 0.184736 0.258755 25.025982
v 0.192975 0.264500 25.029999
v 0.146662 0.319188 25.029999
v 0.192975 0.264500 -25.029999
v 0.225350 0.207312 -25.029999
v 0.184736 0.258755 -25.025980
v 0.225350 0.207312 -25.029999
v 0.216250 0.203088 -25.025980
v 0.184736 0.258755 -25.025980
v 0.184736 0.258755 -25.025980
v 0.216250 0.203088 -25.025980
v 0.178704 0.254550 -25.014999
v 0.216250 0.203088 -25.025980
v 0.209588 0.199996 -25.014999
v 0.178704 0.254550 -25.014999
v 0.178704 0.254550 -25.014999
v 0.209588 0.199996 -25.014999
v 0.176497 0.253010 -25.000000
v 0.209588 0.199996 -25.014999
v 0.207150 0.198864 -25.000000
v 0.176497 0.253010 -25.000000
v 0.176497 0.253010 -25.000000
v 0.207150 0.198864 -25.000000
v 0.176497 0.253010 25.000000
v 0.207150 0.198864 -25.000000
v 0.207150 0.198864 25.000000
v 0.176497 0.253010 25.000000
v 0.176497 0.253010 25.000000
v 0.207150 0.198864 25.000000
v 0.178704 0.254550 25.014999
v 0.207150 0.198864 25.000000
v 0.209588 0.199996 25.014999
v 0.178704 0.254550 25.014999
v 0.178704 0.254550 25.014999
v 0.209588 0.199996 25.014999
v 0.184736 0.258755 25.025982
v 0.209588 0.199996 25.014999
v 0.216250 0.203088 25.025982
v 0.184736 0.258755 25.025982
v 0.184736 0.258755 25.025982
v 0.216250 0.203088 25.025982
v 0.192975 0.264500 25.029999
v 0.216250 0.203088 25.025982
v 0.225350 0.207312 25.029999
v 0.192975 0.264500 25.029999
v 0.225350 0.207312 -25.029999
v 0.248475 0.144750 -25.029999
v 0.216250 0.203088 -25.025980
v 0.248475 0.144750 -25.029999
v 0.238830 0.142000 -25.025980
v 0.216250 0.203088 -25.025980
v 0.216250 0.203088 -25.025980
v 0.238830 0.142000 -25.025980
v 0.209588 0.199996 -25.014999
v 0.238830 0.142000 -25.025980
v 0.231769 0.139987 -25.014999
v 0.209588 0.199996 -25.014999
v 0.209588 0.199996 -25.014999
v 0.231769 0.139987 -25.014999
v 0.207150 0.198864 -25.000000
v 0.231769 0.139987 -25.014999
v 0.229185 0.139250 -25.000000
v 0.207150 0.198864 -25.000000
v 0.207150 0.198864 -25.000000
v 0.229185 0.139250 -25.000000
v 0.207150 0.198864 25.000000
v 0.229185 0.139250 -25.000000
v 0.229185 0.139250 25.000000
v 0.207150 0.198864 25.000000
v 0.207150 0.198864 25.000000
v 0.229185 0.139250 25.000000
v 0.209588 0.199996 25.014999
v 0.229185 0.139250 25.000000
v 0.231769 0.139987 25.014999
v 0.209588 0.199996 25.014999
v 0.209588 0.199996 25.014999
v 0.231769 0.139987 25.014999
v 0.216250 0.203088 25.025982
v 0.231769 0.139987 25.014999
v 0.238830 0.142000 25.025982
v 0.216250 0.203088 25.025982
v 0.216250 0.203088 25.025982
v 0.238830 0.142000 25.025982
v 0.225350 0.207312 25.029999
v 0.238830 0.142000 25.025982
v 0.248475 0.144750 25.029999
v 0.225350 0.207312 25.029999
v 0.248475 0.144750 -25.029999
v 0.262350 0.076813 -25.029999
v 0.238830 0.142000 -25.025980
v 0.262350 0.076813 -25.029999
v 0.252413 0.075491 -25.025980
v 0.238830 0.142000 -25.025980
v 0.238830 0.142000 -25.025980
v 0.252413 0.075491 -25.025980
v 0.231769 0.139987 -25.014999
v 0.252413 0.075491 -25.025980
v 0.245139 0.074523 -25.014999
v 0.231769 0.139987 -25.014999
v 0.231769 0.139987 -25.014999
v 0.245139 0.074523 -25.014999
v 0.229185 0.139250 -25.000000
v 0.245139 0.074523 -25.014999
v 0.242477 0.074169 -25.000000
v 0.229185 0.139250 -25.000000
v 0.229185 0.139250 -25.000000
v 0.242477 0.074169 -25.000000
v 0.229185 0.139250 25.000000
v 0.242477 0.074169 -25.000000
v 0.242477 0.074169 25.000000
v 0.229185 0.139250 25.000000
v 0.229185 0.139250 25.000000
v 0.242477 0.074169 25.000000
v 0.231769 0.139987 25.014999
v 0.242477 0.074169 25.000000
v 0.245139 0.074523 25.014999
v 0.231769 0.139987 25.014999
v 0.231769 0.139987 25.014999
v 0.245139 0.074523 25.014999
v 0.238830 0.142000 25.025982
v 0.245139 0.074523 25.014999
v 0.252413 0.075491 25.025982
v 0.238830 0.142000 25.025982
v 0.238830 0.142000 25.025982
v 0.252413 0.075491 25.025982
v 0.248475 0.144750 25.029999
v 0.252413 0.075491 25.025982
v 0.262350 0.076813 25.029999
v 0.248475 0.144750 25.029999
v 0.262350 0.076813 -25.029999
v 0.266975 0.003500 -25.029999
v 0.252413 0.075491 -25.025980
v 0.266975 0.003500 -25.029999
v 0.256955 0.003495 -25.025980
v 0.252413 0.075491 -25.025980
v 0.252413 0.075491 -25.025980
v 0.256955 0.003495 -25.025980
v 0.245139 0.074523 -25.014999
v 0.256955 0.003495 -25.025980
v 0.249620 0.003491 -25.014999
v 0.245139 0.074523 -25.014999
v 0.245139 0.074523 -25.014999
v 0.249620 0.003491 -25.014999
v 0.242477 0.074169 -25.000000
v 0.249620 0.003491 -25.014999
v 0.246936 0.003489 -25.000000
v 0.242477 0.074169 -25.000000
v 0.242477 0.074169 -25.000000
v 0.246936 0.003489 -25.000000
v 0.242477 0.074169 25.000000
v 0.246936 0.003489 -25.000000
v 0.246936 0.003489 25.000000
v 0.242477 0.074169 25.000000
v 0.242477 0.074169 25.000000
v 0.246936 0.003489 25.000000
v 0.245139 0.074523 25.014999
v 0.246936 0.003489 25.000000
v 0.249620 0.003491 25.014999
v 0.245139 0.074523 25.014999
v 0.245139 0.074523 25.014999
v 0.249620 0.003491 25.014999
v 0.252413 0.075491 25.025982
v 0.249620 0.003491 25.014999
v 0.256955 0.003495 25.025982
v 0.252413 0.075491 25.025982
v 0.252413 0.075491 25.025982
v 0.256955 0.003495 25.025982
v 0.262350 0.076813 25.029999
v 0.256955 0.003495 25.025982
v 0.266975 0.003500 25.029999
v 0.262350 0.076813 25.029999
v 0.266975 0.003500 -25.029999
v 0.262350 -0.071062 -25.029999
v 0.256955 0.003495 -25.025980
v 0.262350 -0.071062 -25.029999
v 0.252411 -0.069757 -25.025980
v 0.256955 0.003495 -25.025980
v 0.256955 0.003495 -25.025980
v 0.252411 -0.069757 -25.025980
v 0.249620 0.003491 -25.014999
v 0.252411 -0.069757 -25.025980
v 0.245136 -0.068801 -25.014999
v 0.249620 0.003491 -25.014999
v 0.249620 0.003491 -25.014999
v 0.245136 -0.068801 -25.014999
v 0.246936 0.003489 -25.000000
v 0.245136 -0.068801 -25.014999
v 0.242473 -0.068451 -25.000000
v 0.246936 0.003489 -25.000000
v 0.246936 0.003489 -25.000000
v 0.242473 -0.068451 -25.000000
v 0.246936 0.003489 25.000000
v 0.242473 -0.068451 -25.000000
v 0.242473 -0.068451 25.000000
v 0.246936 0.003489 25.000000
v 0.246936 0.003489 25.000000
v 0.242473 -0.068451 25.000000
v 0.249620 0.003491 25.014999
v 0.242473 -0.068451 25.000000
v 0.245136 -0.068801 25.014999
v 0.249620 0.003491 25.014999
v 0.249620 0.003491 25.014999
v 0.245136 -0.068801 25.014999
v 0.256955 0.003495 25.025982
v 0.245136 -0.068801 25.014999
v 0.252411 -0.069757 25.025982
v 0.256955 0.003495 25.025982
v 0.256955 0.003495 25.025982
v 0.252411 -0.069757 25.025982
v 0.266975 0.003500 25.029999
v 0.252411 -0.069757 25.025982
v 0.262350 -0.071062 25.029999
v 0.266975 0.003500 25.029999
v 0.262350 -0.071062 -25.029999
v 0.248475 -0.139750 -25.029999
v 0.252411 -0.069757 -25.025980
v 0.248475 -0.139750 -25.029999
v 0.238825 -0.137016 -25.025980
v 0.252411 -0.069757 -25.025980
v 0.252411 -0.069757 -25.025980
v 0.238825 -0.137016 -25.025980
v 0.245136 -0.068801 -25.014999
v 0.238825 -0.137016 -25.025980
v 0.231761 -0.135015 -25.014999
v 0.245136 -0.068801 -25.014999
v 0.245136 -0.068801 -25.014999
v 0.231761 -0.135015 -25.014999
v 0.242473 -0.068451 -25.000000
v 0.231761 -0.135015 -25.014999
v 0.229175 -0.134283 -25.000000
v 0.242473 -0.068451 -25.000000
v 0.242473 -0.068451 -25.000000
v 0.229175 -0.134283 -25.000000
v 0.242473 -0.068451 25.000000
v 0.229175 -0.134283 -25.000000
v 0.229175 -0.134283 25.000000
v 0.242473 -0.068451 25.000000
v 0.242473 -0.068451 25.000000
v 0.229175 -0.134283 25.000000
v 0.245136 -0.068801 25.014999
v 0.229175 -0.134283 25.000000
v 0.231761 -0.135015 25.014999
v 0.245136 -0.068801 25.014999
v 0.245136 -0.068801 25.014999
v 0.231761 -0.135015 25.014999
v 0.252411 -0.069757 25.025982
v 0.231761 -0.135015 25.014999
v 0.238825 -0.137016 25.025982
v 0.252411 -0.069757 25.025982
v 0.252411 -0.069757 25.025982
v 0.238825 -0.137016 25.025982
v 0.262350 -0.071062 25.029999
v 0.238825 -0.137016 25.025982
v 0.248475 -0.139750 25.029999
v 0.262350 -0.071062 25.029999
v 0.248475 -0.139750 -25.029999
v 0.225350 -0.202562 -25.029999
v 0.238825 -0.137016 -25.025980
v 0.225350 -0.202562 -25.029999
v 0.216250 -0.198335 -25.025980
v 0.238825 -0.137016 -25.025980
v 0.238825 -0.137016 -25.025980
v 0.216250 -0.198335 -25.025980
v 0.231761 -0.135015 -25.014999
v 0.216250 -0.198335 -25.025980
v 0.209588 -0.195241 -25.014999
v 0.231761 -0.135015 -25.014999
v 0.231761 -0.135015 -25.014999
v 0.209588 -0.195241 -25.014999
v 0.229175 -0.134283 -25.000000
v 0.209588 -0.195241 -25.014999
v 0.207150 -0.194108 -25.000000
v 0.229175 -0.134283 -25.000000
v 0.229175 -0.134283 -25.000000
v 0.207150 -0.194108 -25.000000
v 0.229175 -0.134283 25.000000
v 0.207150 -0.194108 -25.000000
v 0.207150 -0.194108 25.000000
v 0.229175 -0.134283 25.000000
v 0.229175 -0.134283 25.000000
v 0.207150 -0.194108 25.000000
v 0.231761 -0.135015 25.014999
v 0.207150 -0.194108 25.000000
v 0.209588 -0.195241 25.014999
v 0.231761 -0.135015 25.014999
v 0.231761 -0.135015 25.014999
v 0.209588 -0.195241 25.014999
v 0.238825 -0.137016 25.025982
v 0.209588 -0.195241 25.014999
v 0.216250 -0.198335 25.025982
v 0.238825 -0.137016 25.025982
v 0.238825 -0.137016 25.025982
v 0.216250 -0.198335 25.025982
v 0.248475 -0.139750 25.029999
v 0.216250 -0.198335 25.025982
v 0.225350 -0.202562 25.029999
v 0.248475 -0.139750 25.029999
v 0.225350 -0.202562 -25.029999
v 0.192975 -0.259500 -25.029999
v 0.216250 -0.198335 -25.025980
v 0.192975 -0.259500 -25.029999
v 0.184752 -0.253731 -25.025980
v 0.216250 -0.198335 -25.025980
v 0.216250 -0.198335 -25.025980
v 0.184752 -0.253731 -25.025980
v 0.209588 -0.195241 -25.014999
v 0.184752 -0.253731 -25.025980
v 0.178732 -0.249507 -25.014999
v 0.209588 -0.195241 -25.014999
v 0.209588 -0.195241 -25.014999
v 0.178732 -0.249507 -25.014999
v 0.207150 -0.194108 -25.000000
v 0.178732 -0.249507 -25.014999
v 0.176529 -0.247961 -25.000000
v 0.207150 -0.194108 -25.000000
v 0.207150 -0.194108 -25.000000
v 0.176529 -0.247961 -25.000000
v 0.207150 -0.194108 25.000000
v 0.176529 -0.247961 -25.000000
v 0.176529 -0.247961 25.000000
v 0.207150 -0.194108 25.000000
v 0.207150 -0.194108 25.000000
v 0.176529 -0.247961 25.000000
v 0.209588 -0.195241 25.014999
v 0.176529 -0.247961 25.000000
v 0.178732 -0.249507 25.014999
v 0.209588 -0.195241 25.014999
v 0.209588 -0.195241 25.014999
v 0.178732 -0.249507 25.014999
v 0.216250 -0.198335 25.025982
v 0.178732 -0.249507 25.014999
v 0.184752 -0.253731 25.025982
v 0.216250 -0.198335 25.025982
v 0.216250 -0.198335 25.025982
v 0.184752 -0.253731 25.025982
v 0.225350 -0.202562 25.029999
v 0.184752 -0.253731 25.025982
v 0.192975 -0.259500 25.029999
v 0.225350 -0.202562 25.029999
v 0.192975 -0.259500 -25.029999
v 0.147037 -0.313313 -25.029999
v 0.184752 -0.253731 -25.025980
v 0.147037 -0.313313 -25.029999
v 0.140227 -0.305888 -25.025980
v 0.184752 -0.253731 -25.025980
v 0.184752 -0.253731 -25.025980
v 0.140227 -0.305888 -25.025980
v 0.178732 -0.249507 -25.014999
v 0.140227 -0.305888 -25.025980
v 0.135242 -0.300452 -25.014999
v 0.178732 -0.249507 -25.014999
v 0.178732 -0.249507 -25.014999
v 0.135242 -0.300452 -25.014999
v 0.176529 -0.247961 -25.000000
v 0.135242 -0.300452 -25.014999
v 0.133417 -0.298463 -25.000000
v 0.176529 -0.247961 -25.000000
v 0.176529 -0.247961 -25.000000
v 0.133417 -0.298463 -25.000000
v 0.176529 -0.247961 25.000000
v 0.133417 -0.298463 -25.000000
v 0.133417 -0.298463 25.000000
v 0.176529 -0.247961 25.000000
v 0.176529 -0.247961 25.000000
v 0.133417 -0.298463 25.000000
v 0.178732 -0.249507 25.014999
v 0.133417 -0.298463 25.000000
v 0.135242 -0.300452 25.014999
v 0.178732 -0.249507 25.014999
v 0.178732 -0.249507 25.014999
v 0.135242 -0.300452 25.014999
v 0.184752 -0.253731 25.025982
v 0.135242 -0.300452 25.014999
v 0.140227 -0.305888 25.025982
v 0.184752 -0.253731 25.025982
v 0.184752 -0.253731 25.025982
v 0.140227 -0.305888 25.025982
v 0.192975 -0.259500 25.029999
v 0.140227 -0.305888 25.025982
v 0.147037 -0.313313 25.029999
v 0.192975 -0.259500 25.029999
v 0.147037 -0.313313 -25.029999
v 0.093225 -0.351750 -25.029999
v 0.140227 -0.305888 -25.025980
v 0.093225 -0.351750 -25.029999
v 0.088486 -0.342845 -25.025980
v 0.140227 -0.305888 -25.025980
v 0.140227 -0.305888 -25.025980
v 0.088486 -0.342845 -25.025980
v 0.135242 -0.300452 -25.014999
v 0.088486 -0.342845 -25.025980
v 0.085018 -0.336327 -25.014999
v 0.135242 -0.300452 -25.014999
v 0.135242 -0.300452 -25.014999
v 0.085018 -0.336327 -25.014999
v 0.133417 -0.298463 -25.000000
v 0.085018 -0.336327 -25.014999
v 0.083748 -0.333941 -25.000000
v 0.133417 -0.298463 -25.000000
v 0.133417 -0.298463 -25.000000
v 0.083748 -0.333941 -25.000000
v 0.133417 -0.298463 25.000000
v 0.083748 -0.333941 -25.000000
v 0.083748 -0.333941 25.000000
v 0.133417 -0.298463 25.000000
v 0.133417 -0.298463 25.000000
v 0.083748 -0.333941 25.000000
v 0.135242 -0.300452 25.014999
v 0.083748 -0.333941 25.000000
v 0.085018 -0.336327 25.014999
v 0.135242 -0.300452 25.014999
v 0.135242 -0.300452 25.014999
v 0.085018 -0.336327 25.014999
v 0.140227 -0.305888 25.025982
v 0.085018 -0.336327 25.014999
v 0.088486 -0.342845 25.025982
v 0.140227 -0.305888 25.025982
v 0.140227 -0.305888 25.025982
v 0.088486 -0.342845 25.025982
v 0.147037 -0.313313 25.029999
v 0.088486 -0.342845 25.025982
v 0.093225 -0.351750 25.029999
v 0.147037 -0.313313 25.029999
v 0.093225 -0.351750 -25.029999
v 0.031537 -0.374812 -25.029999
v 0.088486 -0.342845 -25.025980
v 0.031537 -0.374812 -25.029999
v 0.029201 -0.365010 -25.025980
v 0.088486 -0.342845 -25.025980
v 0.088486 -0.342845 -25.025980
v 0.029201 -0.365010 -25.025980
v 0.085018 -0.336327 -25.014999
v 0.029201 -0.365010 -25.025980
v 0.027491 -0.357834 -25.014999
v 0.085018 -0.336327 -25.014999
v 0.085018 -0.336327 -25.014999
v 0.027491 -0.357834 -25.014999
v 0.083748 -0.333941 -25.000000
v 0.027491 -0.357834 -25.014999
v 0.026866 -0.355207 -25.000000
v 0.083748 -0.333941 -25.000000
v 0.083748 -0.333941 -25.000000
v 0.026866 -0.355207 -25.000000
v 0.083748 -0.333941 25.000000
v 0.026866 -0.355207 -25.000000
v 0.026866 -0.355207 25.000000
v 0.083748 -0.333941 25.000000
v 0.083748 -0.333941 25.000000
v 0.026866 -0.355207 25.000000
v 0.085018 -0.336327 25.014999
v 0.026866 -0.355207 25.000000
v 0.027491 -0.357834 25.014999
v 0.085018 -0.336327 25.014999
v 0.085018 -0.336327 25.014999
v 0.027491 -0.357834 25.014999
v 0.088486 -0.342845 25.025982
v 0.027491 -0.357834 25.014999
v 0.029201 -0.365010 25.025982
v 0.088486 -0.342845 25.025982
v 0.088486 -0.342845 25.025982
v 0.029201 -0.365010 25.025982
v 0.093225 -0.351750 25.029999
v 0.029201 -0.365010 25.025982
v 0.031537 -0.374812 25.029999
v 0.093225 -0.351750 25.029999
v 0.031537 -0.374812 -25.029999
v -0.038025 -0.382500 -25.029999
v 0.029201 -0.365010 -25.025980
v -0.038025 -0.382500 -25.029999
v -0.038576 -0.372500 -25.025980
v 0.029201 -0.365010 -25.025980
v 0.029201 -0.365010 -25.025980
v -0.038576 -0.372500 -25.025980
v 0.027491 -0.357834 -25.014999
v -0.038576 -0.372500 -25.025980
v -0.038980 -0.365179 -25.014999
v 0.027491 -0.357834 -25.014999
v 0.027491 -0.357834 -25.014999
v -0.038980 -0.365179 -25.014999
v 0.026866 -0.355207 -25.000000
v -0.038980 -0.365179 -25.014999
v -0.039127 -0.362500 -25.000000
v 0.026866 -0.355207 -25.000000
v 0.026866 -0.355207 -25.000000
v -0.039127 -0.362500 -25.000000
v 0.026866 -0.355207 25.000000
v -0.039127 -0.362500 -25.000000
v -0.039127 -0.362500 25.000000
v 0.026866 -0.355207 25.000000
v 0.026866 -0.355207 25.000000
v -0.039127 -0.362500 25.000000
v 0.027491 -0.357834 25.014999
v -0.039127 -0.362500 25.000000
v -0.038980 -0.365179 25.014999
v 0.027491 -0.357834 25.014999
v 0.027491 -0.357834 25.014999
v -0.038980 -0.365179 25.014999
v 0.029201 -0.365010 25.025982
v -0.038980 -0.365179 25.014999
v -0.038576 -0.372500 25.025982
v 0.029201 -0.365010 25.025982
v 0.029201 -0.365010 25.025982
v -0.038576 -0.372500 25.025982
v 0.031537 -0.374812 25.029999
v -0.038576 -0.372500 25.025982
v -0.038025 -0.382500 25.029999
v 0.031537 -0.374812 25.029999