# Generated mesh
# vertices: 134, faces: 134

v -0.218268 0.501684 0.000000
v -0.193092 0.501114 0.000000
v -0.168565 0.499403 0.000000
v -0.144686 0.496552 0.000000
v -0.121455 0.492559 0.000000
v -0.098873 0.487427 0.000000
v -0.076940 0.481153 0.000000
v -0.055655 0.473739 0.000000
v -0.035018 0.465184 0.000000
v -0.015030 0.455489 0.000000
v 0.004310 0.444653 0.000000
v 0.023002 0.432677 0.000000
v 0.041045 0.419559 0.000000
v 0.058439 0.405302 0.000000
v 0.075185 0.389903 0.000000
v 0.091283 0.373364 0.000000
v 0.106732 0.355684 0.000000
v 0.120537 0.338161 0.000000
v 0.133451 0.320091 0.000000
v 0.145474 0.301474 0.000000
v 0.156607 0.282309 0.000000
v 0.166849 0.262599 0.000000
v 0.176201 0.242341 0.000000
v 0.184662 0.221536 0.000000
v 0.192232 0.200184 0.000000
v 0.198912 0.178286 0.000000
v 0.204701 0.155841 0.000000
v 0.209599 0.132849 0.000000
v 0.213607 0.109309 0.000000
v 0.216724 0.085224 0.000000
v 0.218951 0.060591 0.000000
v 0.220287 0.035411 0.000000
v 0.220732 0.009684 0.000000
v 0.220279 -0.016566 0.000000
v 0.218920 -0.042316 0.000000
v 0.216654 -0.067566 0.000000
v 0.213482 -0.092316 0.000000
v 0.209404 -0.116566 0.000000
v 0.204420 -0.140316 0.000000
v 0.198529 -0.163566 0.000000
v 0.191732 -0.186316 0.000000
v 0.184029 -0.208566 0.000000
v 0.175420 -0.230316 0.000000
v 0.165904 -0.251566 0.000000
v 0.155482 -0.272316 0.000000
v 0.144154 -0.292566 0.000000
v 0.131920 -0.312316 0.000000
v 0.118779 -0.331566 0.000000
v 0.104732 -0.350316 0.000000
v 0.088795 -0.369812 0.000000
v 0.072232 -0.388050 0.000000
v 0.055045 -0.405030 0.000000
v 0.037232 -0.420753 0.000000
v 0.018795 -0.435218 0.000000
v -0.000268 -0.448425 0.000000
v -0.019955 -0.460374 0.000000
v -0.040268 -0.471066 0.000000
v -0.061205 -0.480499 0.000000
v -0.082768 -0.488675 0.000000
v -0.104955 -0.495593 0.000000
v -0.127768 -0.501253 0.000000
v -0.151205 -0.505655 0.000000
v -0.175268 -0.508800 0.000000
v -0.199955 -0.510687 0.000000
v -0.225268 -0.511316 0.000000
v -0.607268 -0.511316 0.000000
v -0.607268 0.501684 0.000000
v -0.231268 -0.387316 0.000000
v -0.213139 -0.386835 0.000000
v -0.195502 -0.385394 0.000000
v -0.178358 -0.382991 0.000000
v -0.161705 -0.379628 0.000000
v -0.145545 -0.375304 0.000000
v -0.129877 -0.370019 0.000000
v -0.114702 -0.363773 0.000000
v -0.100018 -0.356566 0.000000
v -0.085827 -0.348398 0.000000
v -0.072127 -0.339269 0.000000
v -0.058920 -0.329179 0.000000
v -0.046205 -0.318128 0.000000
v -0.033983 -0.306116 0.000000
v -0.022252 -0.293144 0.000000
v -0.011014 -0.279210 0.000000
v -0.000268 -0.264316 0.000000
v 0.008693 -0.250632 0.000000
v 0.017076 -0.236581 0.000000
v 0.024880 -0.222163 0.000000
v 0.032107 -0.207378 0.000000
v 0.038755 -0.192226 0.000000
v 0.044826 -0.176706 0.000000
v 0.050318 -0.160819 0.000000
v 0.055232 -0.144566 0.000000
v 0.059568 -0.127944 0.000000
v 0.063326 -0.110956 0.000000
v 0.066505 -0.093601 0.000000
v 0.069107 -0.075878 0.000000
v 0.071130 -0.057788 0.000000
v 0.072576 -0.039331 0.000000
v 0.073443 -0.020507 0.000000
v 0.073732 -0.001316 0.000000
v 0.073443 0.017516 0.000000
v 0.072576 0.036013 0.000000
v 0.071130 0.054173 0.000000
v 0.069107 0.071997 0.000000
v 0.066505 0.089485 0.000000
v 0.063326 0.106638 0.000000
v 0.059568 0.123454 0.000000
v 0.055232 0.139934 0.000000
v 0.050318 0.156079 0.000000
v 0.044826 0.171888 0.000000
v 0.038755 0.187360 0.000000
v 0.032107 0.202497 0.000000
v 0.024880 0.217298 0.000000
v 0.017076 0.231763 0.000000
v 0.008693 0.245892 0.000000
v -0.000268 0.259684 0.000000
v -0.011131 0.274821 0.000000
v -0.022471 0.288981 0.000000
v -0.034287 0.302165 0.000000
v -0.046580 0.314372 0.000000
v -0.059350 0.325602 0.000000
v -0.072596 0.335856 0.000000
v -0.086319 0.345134 0.000000
v -0.100518 0.353434 0.000000
v -0.115194 0.360759 0.000000
v -0.130346 0.367106 0.000000
v -0.145975 0.372477 0.000000
v -0.162080 0.376872 0.000000
v -0.178662 0.380290 0.000000
v -0.195721 0.382731 0.000000
v -0.213256 0.384196 0.000000
v -0.231268 0.384684 0.000000
v -0.468268 0.384684 0.000000
v -0.468268 -0.387316 0.000000
f 66 134 133
f 68 134 66
f 66 65 64
f 64 63 62
f 62 61 60
f 60 59 58
f 58 57 56
f 56 55 54
f 54 53 52
f 52 51 50
f 50 49 48
f 48 47 46
f 46 45 44
f 44 43 42
f 42 41 40
f 40 39 38
f 38 37 36
f 36 35 34
f 34 33 32
f 32 31 30
f 30 29 28
f 28 27 26
f 26 25 24
f 24 23 22
f 22 21 20
f 20 19 18
f 18 17 16
f 16 15 14
f 14 13 12
f 12 11 10
f 10 9 8
f 8 7 6
f 6 5 4
f 4 3 2
f 2 1 67
f 67 66 133
f 69 68 66
f 66 64 62
f 62 60 58
f 58 56 54
f 54 52 50
f 50 48 46
f 46 44 42
f 42 40 38
f 38 36 34
f 34 32 30
f 30 28 26
f 26 24 22
f 22 20 18
f 18 16 14
f 14 12 10
f 10 8 6
f 6 4 2
f 2 67 133
f 70 69 66
f 66 62 58
f 58 54 50
f 50 46 42
f 42 38 34
f 34 30 26
f 26 22 18
f 18 14 10
f 10 6 2
f 2 133 132
f 71 70 66
f 66 58 50
f 50 42 34
f 34 26 18
f 18 10 2
f 2 132 131
f 72 71 66
f 50 34 18
f 2 131 130
f 73 72 66
f 18 2 130
f 73 66 50
f 18 130 129
f 74 73 50
f 18 129 128
f 75 74 50
f 18 128 127
f 76 75 50
f 18 127 126
f 77 76 50
f 18 126 125
f 78 77 50
f 18 125 124
f 79 78 50
f 18 124 123
f 80 79 50
f 18 123 122
f 81 80 50
f 18 122 121
f 82 81 50
f 18 121 120
f 83 82 50
f 18 120 119
f 84 83 50
f 18 119 118
f 85 84 50
f 18 118 117
f 86 85 50
f 18 117 116
f 87 86 50
f 18 116 115
f 88 87 50
f 18 115 114
f 89 88 50
f 18 114 113
f 90 89 50
f 18 113 112
f 91 90 50
f 18 112 111
f 92 91 50
f 18 111 110
f 93 92 50
f 18 110 109
f 94 93 50
f 18 109 108
f 95 94 50
f 18 108 107
f 96 95 50
f 18 107 106
f 97 96 50
f 18 106 105
f 98 97 50
f 18 105 104
f 99 98 50
f 18 104 103
f 100 99 50
f 18 103 102
f 101 100 50
f 18 102 101
f 101 50 18