# Generated mesh
# vertices: 564, faces: 0

v 0.368000 -0.381500 -25.029999
v 0.368000 -0.506500 -25.029999
v -0.368000 -0.506500 -25.029999
v 0.309000 0.078500 -25.029999
v 0.309000 -0.039500 -25.029999
v -0.229000 -0.039500 -25.029999
v 0.357000 0.506500 -25.029999
v 0.357000 0.382500 -25.029999
v -0.229000 0.382500 -25.029999
v -0.229000 -0.381500 -25.029999
v 0.368000 -0.381500 -25.029999
v -0.368000 -0.506500 -25.029999
v -0.229000 0.078500 -25.029999
v 0.309000 0.078500 -25.029999
v -0.229000 -0.039500 -25.029999
v -0.368000 0.506500 -25.029999
v 0.357000 0.506500 -25.029999
v -0.229000 0.382500 -25.029999
v -0.229000 -0.381500 -25.029999
v -0.368000 -0.506500 -25.029999
v -0.368000 0.506500 -25.029999
v -0.368000 0.506500 -25.029999
v -0.229000 0.382500 -25.029999
v -0.229000 0.078500 -25.029999
v -0.229000 -0.039500 -25.029999
v -0.229000 -0.381500 -25.029999
v -0.368000 0.506500 -25.029999
v -0.368000 0.506500 -25.029999
v -0.229000 0.078500 -25.029999
v -0.229000 -0.039500 -25.029999
v -0.368000 -0.506500 25.029999
v 0.368000 -0.506500 25.029999
v 0.368000 -0.381500 25.029999
v -0.229000 -0.039500 25.029999
v 0.309000 -0.039500 25.029999
v 0.309000 0.078500 25.029999
v -0.229000 0.382500 25.029999
v 0.357000 0.382500 25.029999
v 0.357000 0.506500 25.029999
v -0.368000 -0.506500 25.029999
v 0.368000 -0.381500 25.029999
v -0.229000 -0.381500 25.029999
v -0.229000 -0.039500 25.029999
v 0.309000 0.078500 25.029999
v -0.229000 0.078500 25.029999
v -0.229000 0.382500 25.029999
v 0.357000 0.506500 25.029999
v -0.368000 0.506500 25.029999
v -0.368000 0.506500 25.029999
v -0.368000 -0.506500 25.029999
v -0.229000 -0.381500 25.029999
v -0.229000 0.078500 25.029999
v -0.229000 0.382500 25.029999
v -0.368000 0.506500 25.029999
v -0.368000 0.506500 25.029999
v -0.229000 -0.381500 25.029999
v -0.229000 -0.039500 25.029999
v -0.229000 -0.039500 25.029999
v -0.229000 0.078500 25.029999
v -0.368000 0.506500 25.029999
v 0.368000 -0.506500 -25.029999
v 0.368000 -0.381500 -25.029999
v 0.378000 -0.516500 -25.025980
v 0.368000 -0.381500 -25.029999
v 0.378000 -0.371500 -25.025980
v 0.378000 -0.516500 -25.025980
v 0.378000 -0.516500 -25.025980
v 0.378000 -0.371500 -25.025980
v 0.385321 -0.523821 -25.014999
v 0.378000 -0.371500 -25.025980
v 0.385321 -0.364179 -25.014999
v 0.385321 -0.523821 -25.014999
v 0.385321 -0.523821 -25.014999
v 0.385321 -0.364179 -25.014999
v 0.388000 -0.526500 -25.000000
v 0.385321 -0.364179 -25.014999
v 0.388000 -0.361500 -25.000000
v 0.388000 -0.526500 -25.000000
v 0.388000 -0.526500 -25.000000
v 0.388000 -0.361500 -25.000000
v 0.388000 -0.526500 25.000000
v 0.388000 -0.361500 -25.000000
v 0.388000 -0.361500 25.000000
v 0.388000 -0.526500 25.000000
v 0.388000 -0.526500 25.000000
v 0.388000 -0.361500 25.000000
v 0.385321 -0.523821 25.014999
v 0.388000 -0.361500 25.000000
v 0.385321 -0.364179 25.014999
v 0.385321 -0.523821 25.014999
v 0.385321 -0.523821 25.014999
v 0.385321 -0.364179 25.014999
v 0.378000 -0.516500 25.025982
v 0.385321 -0.364179 25.014999
v 0.378000 -0.371500 25.025982
v 0.378000 -0.516500 25.025982
v 0.378000 -0.516500 25.025982
v 0.378000 -0.371500 25.025982
v 0.368000 -0.506500 25.029999
v 0.378000 -0.371500 25.025982
v 0.368000 -0.381500 25.029999
v 0.368000 -0.506500 25.029999
v 0.368000 -0.381500 -25.029999
v -0.229000 -0.381500 -25.029999
v 0.378000 -0.371500 -25.025980
v -0.229000 -0.381500 -25.029999
v -0.219000 -0.371500 -25.025980
v 0.378000 -0.371500 -25.025980
v 0.378000 -0.371500 -25.025980
v -0.219000 -0.371500 -25.025980
v 0.385321 -0.364179 -25.014999
v -0.219000 -0.371500 -25.025980
v -0.211679 -0.364179 -25.014999
v 0.385321 -0.364179 -25.014999
v 0.385321 -0.364179 -25.014999
v -0.211679 -0.364179 -25.014999
v 0.388000 -0.361500 -25.000000
v -0.211679 -0.364179 -25.014999
v -0.209000 -0.361500 -25.000000
v 0.388000 -0.361500 -25.000000
v 0.388000 -0.361500 -25.000000
v -0.209000 -0.361500 -25.000000
v 0.388000 -0.361500 25.000000
v -0.209000 -0.361500 -25.000000
v -0.209000 -0.361500 25.000000
v 0.388000 -0.361500 25.000000
v 0.388000 -0.361500 25.000000
v -0.209000 -0.361500 25.000000
v 0.385321 -0.364179 25.014999
v -0.209000 -0.361500 25.000000
v -0.211679 -0.364179 25.014999
v 0.385321 -0.364179 25.014999
v 0.385321 -0.364179 25.014999
v -0.211679 -0.364179 25.014999
v 0.378000 -0.371500 25.025982
v -0.211679 -0.364179 25.014999
v -0.219000 -0.371500 25.025982
v 0.378000 -0.371500 25.025982
v 0.378000 -0.371500 25.025982
v -0.219000 -0.371500 25.025982
v 0.368000 -0.381500 25.029999
v -0.219000 -0.371500 25.025982
v -0.229000 -0.381500 25.029999
v 0.368000 -0.381500 25.029999
v -0.229000 -0.381500 -25.029999
v -0.229000 -0.039500 -25.029999
v -0.219000 -0.371500 -25.025980
v -0.229000 -0.039500 -25.029999
v -0.219000 -0.049500 -25.025980
v -0.219000 -0.371500 -25.025980
v -0.219000 -0.371500 -25.025980
v -0.219000 -0.049500 -25.025980
v -0.211679 -0.364179 -25.014999
v -0.219000 -0.049500 -25.025980
v -0.211679 -0.056821 -25.014999
v -0.211679 -0.364179 -25.014999
v -0.211679 -0.364179 -25.014999
v -0.211679 -0.056821 -25.014999
v -0.209000 -0.361500 -25.000000
v -0.211679 -0.056821 -25.014999
v -0.209000 -0.059500 -25.000000
v -0.209000 -0.361500 -25.000000
v -0.209000 -0.361500 -25.000000
v -0.209000 -0.059500 -25.000000
v -0.209000 -0.361500 25.000000
v -0.209000 -0.059500 -25.000000
v -0.209000 -0.059500 25.000000
v -0.209000 -0.361500 25.000000
v -0.209000 -0.361500 25.000000
v -0.209000 -0.059500 25.000000
v -0.211679 -0.364179 25.014999
v -0.209000 -0.059500 25.000000
v -0.211679 -0.056821 25.014999
v -0.211679 -0.364179 25.014999
v -0.211679 -0.364179 25.014999
v -0.211679 -0.056821 25.014999
v -0.219000 -0.371500 25.025982
v -0.211679 -0.056821 25.014999
v -0.219000 -0.049500 25.025982
v -0.219000 -0.371500 25.025982
v -0.219000 -0.371500 25.025982
v -0.219000 -0.049500 25.025982
v -0.229000 -0.381500 25.029999
v -0.219000 -0.049500 25.025982
v -0.229000 -0.039500 25.029999
v -0.229000 -0.381500 25.029999
v -0.229000 -0.039500 -25.029999
v 0.309000 -0.039500 -25.029999
v -0.219000 -0.049500 -25.025980
v 0.309000 -0.039500 -25.029999
v 0.319000 -0.049500 -25.025980
v -0.219000 -0.049500 -25.025980
v -0.219000 -0.049500 -25.025980
v 0.319000 -0.049500 -25.025980
v -0.211679 -0.056821 -25.014999
v 0.319000 -0.049500 -25.025980
v 0.326320 -0.056821 -25.014999
v -0.211679 -0.056821 -25.014999
v -0.211679 -0.056821 -25.014999
v 0.326320 -0.056821 -25.014999
v -0.209000 -0.059500 -25.000000
v 0.326320 -0.056821 -25.014999
v 0.329000 -0.059500 -25.000000
v -0.209000 -0.059500 -25.000000
v -0.209000 -0.059500 -25.000000
v 0.329000 -0.059500 -25.000000
v -0.209000 -0.059500 25.000000
v 0.329000 -0.059500 -25.000000
v 0.329000 -0.059500 25.000000
v -0.209000 -0.059500 25.000000
v -0.209000 -0.059500 25.000000
v 0.329000 -0.059500 25.000000
v -0.211679 -0.056821 25.014999
v 0.329000 -0.059500 25.000000
v 0.326320 -0.056821 25.014999
v -0.211679 -0.056821 25.014999
v -0.211679 -0.056821 25.014999
v 0.326320 -0.056821 25.014999
v -0.219000 -0.049500 25.025982
v 0.326320 -0.056821 25.014999
v 0.319000 -0.049500 25.025982
v -0.219000 -0.049500 25.025982
v -0.219000 -0.049500 25.025982
v 0.319000 -0.049500 25.025982
v -0.229000 -0.039500 25.029999
v 0.319000 -0.049500 25.025982
v 0.309000 -0.039500 25.029999
v -0.229000 -0.039500 25.029999
v 0.309000 -0.039500 -25.029999
v 0.309000 0.078500 -25.029999
v 0.319000 -0.049500 -25.025980
v 0.309000 0.078500 -25.029999
v 0.319000 0.088500 -25.025980
v 0.319000 -0.049500 -25.025980
v 0.319000 -0.049500 -25.025980
v 0.319000 0.088500 -25.025980
v 0.326320 -0.056821 -25.014999
v 0.319000 0.088500 -25.025980
v 0.326320 0.095820 -25.014999
v 0.326320 -0.056821 -25.014999
v 0.326320 -0.056821 -25.014999
v 0.326320 0.095820 -25.014999
v 0.329000 -0.059500 -25.000000
v 0.326320 0.095820 -25.014999
v 0.329000 0.098500 -25.000000
v 0.329000 -0.059500 -25.000000
v 0.329000 -0.059500 -25.000000
v 0.329000 0.098500 -25.000000
v 0.329000 -0.059500 25.000000
v 0.329000 0.098500 -25.000000
v 0.329000 0.098500 25.000000
v 0.329000 -0.059500 25.000000
v 0.329000 -0.059500 25.000000
v 0.329000 0.098500 25.000000
v 0.326320 -0.056821 25.014999
v 0.329000 0.098500 25.000000
v 0.326320 0.095820 25.014999
v 0.326320 -0.056821 25.014999
v 0.326320 -0.056821 25.014999
v 0.326320 0.095820 25.014999
v 0.319000 -0.049500 25.025982
v 0.326320 0.095820 25.014999
v 0.319000 0.088500 25.025982
v 0.319000 -0.049500 25.025982
v 0.319000 -0.049500 25.025982
v 0.319000 0.088500 25.025982
v 0.309000 -0.039500 25.029999
v 0.319000 0.088500 25.025982
v 0.309000 0.078500 25.029999
v 0.309000 -0.039500 25.029999
v 0.309000 0.078500 -25.029999
v -0.229000 0.078500 -25.029999
v 0.319000 0.088500 -25.025980
v -0.229000 0.078500 -25.029999
v -0.219000 0.088500 -25.025980
v 0.319000 0.088500 -25.025980
v 0.319000 0.088500 -25.025980
v -0.219000 0.088500 -25.025980
v 0.326320 0.095820 -25.014999
v -0.219000 0.088500 -25.025980
v -0.211679 0.095820 -25.014999
v 0.326320 0.095820 -25.014999
v 0.326320 0.095820 -25.014999
v -0.211679 0.095820 -25.014999
v 0.329000 0.098500 -25.000000
v -0.211679 0.095820 -25.014999
v -0.209000 0.098500 -25.000000
v 0.329000 0.098500 -25.000000
v 0.329000 0.098500 -25.000000
v -0.209000 0.098500 -25.000000
v 0.329000 0.098500 25.000000
v -0.209000 0.098500 -25.000000
v -0.209000 0.098500 25.000000
v 0.329000 0.098500 25.000000
v 0.329000 0.098500 25.000000
v -0.209000 0.098500 25.000000
v 0.326320 0.095820 25.014999
v -0.209000 0.098500 25.000000
v -0.211679 0.095820 25.014999
v 0.326320 0.095820 25.014999
v 0.326320 0.095820 25.014999
v -0.211679 0.095820 25.014999
v 0.319000 0.088500 25.025982
v -0.211679 0.095820 25.014999
v -0.219000 0.088500 25.025982
v 0.319000 0.088500 25.025982
v 0.319000 0.088500 25.025982
v -0.219000 0.088500 25.025982
v 0.309000 0.078500 25.029999
v -0.219000 0.088500 25.025982
v -0.229000 0.078500 25.029999
v 0.309000 0.078500 25.029999
v -0.229000 0.078500 -25.029999
v -0.229000 0.382500 -25.029999
v -0.219000 0.088500 -25.025980
v -0.229000 0.382500 -25.029999
v -0.219000 0.372500 -25.025980
v -0.219000 0.088500 -25.025980
v -0.219000 0.088500 -25.025980
v -0.219000 0.372500 -25.025980
v -0.211679 0.095820 -25.014999
v -0.219000 0.372500 -25.025980
v -0.211679 0.365179 -25.014999
v -0.211679 0.095820 -25.014999
v -0.211679 0.095820 -25.014999
v -0.211679 0.365179 -25.014999
v -0.209000 0.098500 -25.000000
v -0.211679 0.365179 -25.014999
v -0.209000 0.362500 -25.000000
v -0.209000 0.098500 -25.000000
v -0.209000 0.098500 -25.000000
v -0.209000 0.362500 -25.000000
v -0.209000 0.098500 25.000000
v -0.209000 0.362500 -25.000000
v -0.209000 0.362500 25.000000
v -0.209000 0.098500 25.000000
v -0.209000 0.098500 25.000000
v -0.209000 0.362500 25.000000
v -0.211679 0.095820 25.014999
v -0.209000 0.362500 25.000000
v -0.211679 0.365179 25.014999
v -0.211679 0.095820 25.014999
v -0.211679 0.095820 25.014999
v -0.211679 0.365179 25.014999
v -0.219000 0.088500 25.025982
v -0.211679 0.365179 25.014999
v -0.219000 0.372500 25.025982
v -0.219000 0.088500 25.025982
v -0.219000 0.088500 25.025982
v -0.219000 0.372500 25.025982
v -0.229000 0.078500 25.029999
v -0.219000 0.372500 25.025982
v -0.229000 0.382500 25.029999
v -0.229000 0.078500 25.029999
v -0.229000 0.382500 -25.029999
v 0.357000 0.382500 -25.029999
v -0.219000 0.372500 -25.025980
v 0.357000 0.382500 -25.029999
v 0.367000 0.372500 -25.025980
v -0.219000 0.372500 -25.025980
v -0.219000 0.372500 -25.025980
v 0.367000 0.372500 -25.025980
v -0.211679 0.365179 -25.014999
v 0.367000 0.372500 -25.025980
v 0.374321 0.365179 -25.014999
v -0.211679 0.365179 -25.014999
v -0.211679 0.365179 -25.014999
v 0.374321 0.365179 -25.014999
v -0.209000 0.362500 -25.000000
v 0.374321 0.365179 -25.014999
v 0.377000 0.362500 -25.000000
v -0.209000 0.362500 -25.000000
v -0.209000 0.362500 -25.000000
v 0.377000 0.362500 -25.000000
v -0.209000 0.362500 25.000000
v 0.377000 0.362500 -25.000000
v 0.377000 0.362500 25.000000
v -0.209000 0.362500 25.000000
v -0.209000 0.362500 25.000000
v 0.377000 0.362500 25.000000
v -0.211679 0.365179 25.014999
v 0.377000 0.362500 25.000000
v 0.374321 0.365179 25.014999
v -0.211679 0.365179 25.014999
v -0.211679 0.365179 25.014999
v 0.374321 0.365179 25.014999
v -0.219000 0.372500 25.025982
v 0.374321 0.365179 25.014999
v 0.367000 0.372500 25.025982
v -0.219000 0.372500 25.025982
v -0.219000 0.372500 25.025982
v 0.367000 0.372500 25.025982
v -0.229000 0.382500 25.029999
v 0.367000 0.372500 25.025982
v 0.357000 0.382500 25.029999
v -0.229000 0.382500 25.029999
v 0.357000 0.382500 -25.029999
v 0.357000 0.506500 -25.029999
v 0.367000 0.372500 -25.025980
v 0.357000 0.506500 -25.029999
v 0.367000 0.516500 -25.025980
v 0.367000 0.372500 -25.025980
v 0.367000 0.372500 -25.025980
v 0.367000 0.516500 -25.025980
v 0.374321 0.365179 -25.014999
v 0.367000 0.516500 -25.025980
v 0.374321 0.523821 -25.014999
v 0.374321 0.365179 -25.014999
v 0.374321 0.365179 -25.014999
v 0.374321 0.523821 -25.014999
v 0.377000 0.362500 -25.000000
v 0.374321 0.523821 -25.014999
v 0.377000 0.526500 -25.000000
v 0.377000 0.362500 -25.000000
v 0.377000 0.362500 -25.000000
v 0.377000 0.526500 -25.000000
v 0.377000 0.362500 25.000000
v 0.377000 0.526500 -25.000000
v 0.377000 0.526500 25.000000
v 0.377000 0.362500 25.000000
v 0.377000 0.362500 25.000000
v 0.377000 0.526500 25.000000
v 0.374321 0.365179 25.014999
v 0.377000 0.526500 25.000000
v 0.374321 0.523821 25.014999
v 0.374321 0.365179 25.014999
v 0.374321 0.365179 25.014999
v 0.374321 0.523821 25.014999
v 0.367000 0.372500 25.025982
v 0.374321 0.523821 25.014999
v 0.367000 0.516500 25.025982
v 0.367000 0.372500 25.025982
v 0.367000 0.372500 25.025982
v 0.367000 0.516500 25.025982
v 0.357000 0.382500 25.029999
v 0.367000 0.516500 25.025982
v 0.357000 0.506500 25.029999
v 0.357000 0.382500 25.029999
v 0.357000 0.506500 -25.029999
v -0.368000 0.506500 -25.029999
v 0.367000 0.516500 -25.025980
v -0.368000 0.506500 -25.029999
v -0.378000 0.516500 -25.025980
v 0.367000 0.516500 -25.025980
v 0.367000 0.516500 -25.025980
v -0.378000 0.516500 -25.025980
v 0.374321 0.523821 -25.014999
v -0.378000 0.516500 -25.025980
v -0.385320 0.523821 -25.014999
v 0.374321 0.523821 -25.014999
v 0.374321 0.523821 -25.014999
v -0.385320 0.523821 -25.014999
v 0.377000 0.526500 -25.000000
v -0.385320 0.523821 -25.014999
v -0.388000 0.526500 -25.000000
v 0.377000 0.526500 -25.000000
v 0.377000 0.526500 -25.000000
v -0.388000 0.526500 -25.000000
v 0.377000 0.526500 25.000000
v -0.388000 0.526500 -25.000000
v -0.388000 0.526500 25.000000
v 0.377000 0.526500 25.000000
v 0.377000 0.526500 25.000000
v -0.388000 0.526500 25.000000
v 0.374321 0.523821 25.014999
v -0.388000 0.526500 25.000000
v -0.385320 0.523821 25.014999
v 0.374321 0.523821 25.014999
v 0.374321 0.523821 25.014999
v -0.385320 0.523821 25.014999
v 0.367000 0.516500 25.025982
v -0.385320 0.523821 25.014999
v -0.378000 0.516500 25.025982
v 0.367000 0.516500 25.025982
v 0.367000 0.516500 25.025982
v -0.378000 0.516500 25.025982
v 0.357000 0.506500 25.029999
v -0.378000 0.516500 25.025982
v -0.368000 0.506500 25.029999
v 0.357000 0.506500 25.029999
v -0.368000 0.506500 -25.029999
v -0.368000 -0.506500 -25.029999
v -0.378000 0.516500 -25.025980
v -0.368000 -0.506500 -25.029999
v -0.378000 -0.516500 -25.025980
v -0.378000 0.516500 -25.025980
v -0.378000 0.516500 -25.025980
v -0.378000 -0.516500 -25.025980
v -0.385320 0.523821 -25.014999
v -0.378000 -0.516500 -25.025980
v -0.385320 -0.523821 -25.014999
v -0.385320 0.523821 -25.014999
v -0.385320 0.523821 -25.014999
v -0.385320 -0.523821 -25.014999
v -0.388000 0.526500 -25.000000
v -0.385320 -0.523821 -25.014999
v -0.388000 -0.526500 -25.000000
v -0.388000 0.526500 -25.000000
v -0.388000 0.526500 -25.000000
v -0.388000 -0.526500 -25.000000
v -0.388000 0.526500 25.000000
v -0.388000 -0.526500 -25.000000
v -0.388000 -0.526500 25.000000
v -0.388000 0.526500 25.000000
v -0.388000 0.526500 25.000000
v -0.388000 -0.526500 25.000000
v -0.385320 0.523821 25.014999
v -0.388000 -0.526500 25.000000
v -0.385320 -0.523821 25.014999
v -0.385320 0.523821 25.014999
v -0.385320 0.523821 25.014999
v -0.385320 -0.523821 25.014999
v -0.378000 0.516500 25.025982
v -0.385320 -0.523821 25.014999
v -0.378000 -0.516500 25.025982
v -0.378000 0.516500 25.025982
v -0.378000 0.516500 25.025982
v -0.378000 -0.516500 25.025982
v -0.368000 0.506500 25.029999
v -0.378000 -0.516500 25.025982
v -0.368000 -0.506500 25.029999
v -0.368000 0.506500 25.029999
v -0.368000 -0.506500 -25.029999
v 0.368000 -0.506500 -25.029999
v -0.378000 -0.516500 -25.025980
v 0.368000 -0.506500 -25.029999
v 0.378000 -0.516500 -25.025980
v -0.378000 -0.516500 -25.025980
v -0.378000 -0.516500 -25.025980
v 0.378000 -0.516500 -25.025980
v -0.385320 -0.523821 -25.014999
v 0.378000 -0.516500 -25.025980
v 0.385321 -0.523821 -25.014999
v -0.385320 -0.523821 -25.014999
v -0.385320 -0.523821 -25.014999
v 0.385321 -0.523821 -25.014999
v -0.388000 -0.526500 -25.000000
v 0.385321 -0.523821 -25.014999
v 0.388000 -0.526500 -25.000000
v -0.388000 -0.526500 -25.000000
v -0.388000 -0.526500 -25.000000
v 0.388000 -0.526500 -25.000000
v -0.388000 -0.526500 25.000000
v 0.388000 -0.526500 -25.000000
v 0.388000 -0.526500 25.000000
v -0.388000 -0.526500 25.000000
v -0.388000 -0.526500 25.000000
v 0.388000 -0.526500 25.000000
v -0.385320 -0.523821 25.014999
v 0.388000 -0.526500 25.000000
v 0.385321 -0.523821 25.014999
v -0.385320 -0.523821 25.014999
v -0.385320 -0.523821 25.014999
v 0.385321 -0.523821 25.014999
v -0.378000 -0.516500 25.025982
v 0.385321 -0.523821 25.014999
v 0.378000 -0.516500 25.025982
v -0.378000 -0.516500 25.025982
v -0.378000 -0.516500 25.025982
v 0.378000 -0.516500 25.025982
v -0.368000 -0.506500 25.029999
v 0.378000 -0.516500 25.025982
v 0.368000 -0.506500 25.029999
v -0.368000 -0.506500 25.029999