# Generated mesh
# vertices: 468, faces: 0

v 0.341500 0.506500 -25.029999
v 0.341500 0.381500 -25.029999
v -0.201500 0.381500 -25.029999
v -0.201500 -0.506500 -25.029999
v -0.341500 -0.506500 -25.029999
v -0.341500 0.506500 -25.029999
v 0.271500 0.076500 -25.029999
v 0.271500 -0.048500 -25.029999
v -0.201500 -0.048500 -25.029999
v -0.341500 0.506500 -25.029999
v 0.341500 0.506500 -25.029999
v -0.201500 0.381500 -25.029999
v -0.201500 -0.048500 -25.029999
v -0.201500 -0.506500 -25.029999
v -0.341500 0.506500 -25.029999
v -0.201500 0.076500 -25.029999
v 0.271500 0.076500 -25.029999
v -0.201500 -0.048500 -25.029999
v -0.341500 0.506500 -25.029999
v -0.201500 0.381500 -25.029999
v -0.201500 0.076500 -25.029999
v -0.201500 0.076500 -25.029999
v -0.201500 -0.048500 -25.029999
v -0.341500 0.506500 -25.029999
v -0.201500 0.381500 25.029999
v 0.341500 0.381500 25.029999
v 0.341500 0.506500 25.029999
v -0.341500 0.506500 25.029999
v -0.341500 -0.506500 25.029999
v -0.201500 -0.506500 25.029999
v -0.201500 -0.048500 25.029999
v 0.271500 -0.048500 25.029999
v 0.271500 0.076500 25.029999
v -0.201500 0.381500 25.029999
v 0.341500 0.506500 25.029999
v -0.341500 0.506500 25.029999
v -0.341500 0.506500 25.029999
v -0.201500 -0.506500 25.029999
v -0.201500 -0.048500 25.029999
v -0.201500 -0.048500 25.029999
v 0.271500 0.076500 25.029999
v -0.201500 0.076500 25.029999
v -0.201500 0.076500 25.029999
v -0.201500 0.381500 25.029999
v -0.341500 0.506500 25.029999
v -0.341500 0.506500 25.029999
v -0.201500 -0.048500 25.029999
v -0.201500 0.076500 25.029999
v 0.341500 0.381500 -25.029999
v 0.341500 0.506500 -25.029999
v 0.351500 0.371500 -25.025980
v 0.341500 0.506500 -25.029999
v 0.351500 0.516500 -25.025980
v 0.351500 0.371500 -25.025980
v 0.351500 0.371500 -25.025980
v 0.351500 0.516500 -25.025980
v 0.358820 0.364179 -25.014999
v 0.351500 0.516500 -25.025980
v 0.358820 0.523821 -25.014999
v 0.358820 0.364179 -25.014999
v 0.358820 0.364179 -25.014999
v 0.358820 0.523821 -25.014999
v 0.361500 0.361500 -25.000000
v 0.358820 0.523821 -25.014999
v 0.361500 0.526500 -25.000000
v 0.361500 0.361500 -25.000000
v 0.361500 0.361500 -25.000000
v 0.361500 0.526500 -25.000000
v 0.361500 0.361500 25.000000
v 0.361500 0.526500 -25.000000
v 0.361500 0.526500 25.000000
v 0.361500 0.361500 25.000000
v 0.361500 0.361500 25.000000
v 0.361500 0.526500 25.000000
v 0.358820 0.364179 25.014999
v 0.361500 0.526500 25.000000
v 0.358820 0.523821 25.014999
v 0.358820 0.364179 25.014999
v 0.358820 0.364179 25.014999
v 0.358820 0.523821 25.014999
v 0.351500 0.371500 25.025982
v 0.358820 0.523821 25.014999
v 0.351500 0.516500 25.025982
v 0.351500 0.371500 25.025982
v 0.351500 0.371500 25.025982
v 0.351500 0.516500 25.025982
v 0.341500 0.381500 25.029999
v 0.351500 0.516500 25.025982
v 0.341500 0.506500 25.029999
v 0.341500 0.381500 25.029999
v 0.341500 0.506500 -25.029999
v -0.341500 0.506500 -25.029999
v 0.351500 0.516500 -25.025980
v -0.341500 0.506500 -25.029999
v -0.351500 0.516500 -25.025980
v 0.351500 0.516500 -25.025980
v 0.351500 0.516500 -25.025980
v -0.351500 0.516500 -25.025980
v 0.358820 0.523821 -25.014999
v -0.351500 0.516500 -25.025980
v -0.358820 0.523821 -25.014999
v 0.358820 0.523821 -25.014999
v 0.358820 0.523821 -25.014999
v -0.358820 0.523821 -25.014999
v 0.361500 0.526500 -25.000000
v -0.358820 0.523821 -25.014999
v -0.361500 0.526500 -25.000000
v 0.361500 0.526500 -25.000000
v 0.361500 0.526500 -25.000000
v -0.361500 0.526500 -25.000000
v 0.361500 0.526500 25.000000
v -0.361500 0.526500 -25.000000
v -0.361500 0.526500 25.000000
v 0.361500 0.526500 25.000000
v 0.361500 0.526500 25.000000
v -0.361500 0.526500 25.000000
v 0.358820 0.523821 25.014999
v -0.361500 0.526500 25.000000
v -0.358820 0.523821 25.014999
v 0.358820 0.523821 25.014999
v 0.358820 0.523821 25.014999
v -0.358820 0.523821 25.014999
v 0.351500 0.516500 25.025982
v -0.358820 0.523821 25.014999
v -0.351500 0.516500 25.025982
v 0.351500 0.516500 25.025982
v 0.351500 0.516500 25.025982
v -0.351500 0.516500 25.025982
v 0.341500 0.506500 25.029999
v -0.351500 0.516500 25.025982
v -0.341500 0.506500 25.029999
v 0.341500 0.506500 25.029999
v -0.341500 0.506500 -25.029999
v -0.341500 -0.506500 -25.029999
v -0.351500 0.516500 -25.025980
v -0.341500 -0.506500 -25.029999
v -0.351500 -0.516500 -25.025980
v -0.351500 0.516500 -25.025980
v -0.351500 0.516500 -25.025980
v -0.351500 -0.516500 -25.025980
v -0.358820 0.523821 -25.014999
v -0.351500 -0.516500 -25.025980
v -0.358820 -0.523821 -25.014999
v -0.358820 0.523821 -25.014999
v -0.358820 0.523821 -25.014999
v -0.358820 -0.523821 -25.014999
v -0.361500 0.526500 -25.000000
v -0.358820 -0.523821 -25.014999
v -0.361500 -0.526500 -25.000000
v -0.361500 0.526500 -25.000000
v -0.361500 0.526500 -25.000000
v -0.361500 -0.526500 -25.000000
v -0.361500 0.526500 25.000000
v -0.361500 -0.526500 -25.000000
v -0.361500 -0.526500 25.000000
v -0.361500 0.526500 25.000000
v -0.361500 0.526500 25.000000
v -0.361500 -0.526500 25.000000
v -0.358820 0.523821 25.014999
v -0.361500 -0.526500 25.000000
v -0.358820 -0.523821 25.014999
v -0.358820 0.523821 25.014999
v -0.358820 0.523821 25.014999
v -0.358820 -0.523821 25.014999
v -0.351500 0.516500 25.025982
v -0.358820 -0.523821 25.014999
v -0.351500 -0.516500 25.025982
v -0.351500 0.516500 25.025982
v -0.351500 0.516500 25.025982
v -0.351500 -0.516500 25.025982
v -0.341500 0.506500 25.029999
v -0.351500 -0.516500 25.025982
v -0.341500 -0.506500 25.029999
v -0.341500 0.506500 25.029999
v -0.341500 -0.506500 -25.029999
v -0.201500 -0.506500 -25.029999
v -0.351500 -0.516500 -25.025980
v -0.201500 -0.506500 -25.029999
v -0.191500 -0.516500 -25.025980
v -0.351500 -0.516500 -25.025980
v -0.351500 -0.516500 -25.025980
v -0.191500 -0.516500 -25.025980
v -0.358820 -0.523821 -25.014999
v -0.191500 -0.516500 -25.025980
v -0.184179 -0.523821 -25.014999
v -0.358820 -0.523821 -25.014999
v -0.358820 -0.523821 -25.014999
v -0.184179 -0.523821 -25.014999
v -0.361500 -0.526500 -25.000000
v -0.184179 -0.523821 -25.014999
v -0.181500 -0.526500 -25.000000
v -0.361500 -0.526500 -25.000000
v -0.361500 -0.526500 -25.000000
v -0.181500 -0.526500 -25.000000
v -0.361500 -0.526500 25.000000
v -0.181500 -0.526500 -25.000000
v -0.181500 -0.526500 25.000000
v -0.361500 -0.526500 25.000000
v -0.361500 -0.526500 25.000000
v -0.181500 -0.526500 25.000000
v -0.358820 -0.523821 25.014999
v -0.181500 -0.526500 25.000000
v -0.184179 -0.523821 25.014999
v -0.358820 -0.523821 25.014999
v -0.358820 -0.523821 25.014999
v -0.184179 -0.523821 25.014999
v -0.351500 -0.516500 25.025982
v -0.184179 -0.523821 25.014999
v -0.191500 -0.516500 25.025982
v -0.351500 -0.516500 25.025982
v -0.351500 -0.516500 25.025982
v -0.191500 -0.516500 25.025982
v -0.341500 -0.506500 25.029999
v -0.191500 -0.516500 25.025982
v -0.201500 -0.506500 25.029999
v -0.341500 -0.506500 25.029999
v -0.201500 -0.506500 -25.029999
v -0.201500 -0.048500 -25.029999
v -0.191500 -0.516500 -25.025980
v -0.201500 -0.048500 -25.029999
v -0.191500 -0.058500 -25.025980
v -0.191500 -0.516500 -25.025980
v -0.191500 -0.516500 -25.025980
v -0.191500 -0.058500 -25.025980
v -0.184179 -0.523821 -25.014999
v -0.191500 -0.058500 -25.025980
v -0.184179 -0.065821 -25.014999
v -0.184179 -0.523821 -25.014999
v -0.184179 -0.523821 -25.014999
v -0.184179 -0.065821 -25.014999
v -0.181500 -0.526500 -25.000000
v -0.184179 -0.065821 -25.014999
v -0.181500 -0.068500 -25.000000
v -0.181500 -0.526500 -25.000000
v -0.181500 -0.526500 -25.000000
v -0.181500 -0.068500 -25.000000
v -0.181500 -0.526500 25.000000
v -0.181500 -0.068500 -25.000000
v -0.181500 -0.068500 25.000000
v -0.181500 -0.526500 25.000000
v -0.181500 -0.526500 25.000000
v -0.181500 -0.068500 25.000000
v -0.184179 -0.523821 25.014999
v -0.181500 -0.068500 25.000000
v -0.184179 -0.065821 25.014999
v -0.184179 -0.523821 25.014999
v -0.184179 -0.523821 25.014999
v -0.184179 -0.065821 25.014999
v -0.191500 -0.516500 25.025982
v -0.184179 -0.065821 25.014999
v -0.191500 -0.058500 25.025982
v -0.191500 -0.516500 25.025982
v -0.191500 -0.516500 25.025982
v -0.191500 -0.058500 25.025982
v -0.201500 -0.506500 25.029999
v -0.191500 -0.058500 25.025982
v -0.201500 -0.048500 25.029999
v -0.201500 -0.506500 25.029999
v -0.201500 -0.048500 -25.029999
v 0.271500 -0.048500 -25.029999
v -0.191500 -0.058500 -25.025980
v 0.271500 -0.048500 -25.029999
v 0.281500 -0.058500 -25.025980
v -0.191500 -0.058500 -25.025980
v -0.191500 -0.058500 -25.025980
v 0.281500 -0.058500 -25.025980
v -0.184179 -0.065821 -25.014999
v 0.281500 -0.058500 -25.025980
v 0.288820 -0.065821 -25.014999
v -0.184179 -0.065821 -25.014999
v -0.184179 -0.065821 -25.014999
v 0.288820 -0.065821 -25.014999
v -0.181500 -0.068500 -25.000000
v 0.288820 -0.065821 -25.014999
v 0.291500 -0.068500 -25.000000
v -0.181500 -0.068500 -25.000000
v -0.181500 -0.068500 -25.000000
v 0.291500 -0.068500 -25.000000
v -0.181500 -0.068500 25.000000
v 0.291500 -0.068500 -25.000000
v 0.291500 -0.068500 25.000000
v -0.181500 -0.068500 25.000000
v -0.181500 -0.068500 25.000000
v 0.291500 -0.068500 25.000000
v -0.184179 -0.065821 25.014999
v 0.291500 -0.068500 25.000000
v 0.288820 -0.065821 25.014999
v -0.184179 -0.065821 25.014999
v -0.184179 -0.065821 25.014999
v 0.288820 -0.065821 25.014999
v -0.191500 -0.058500 25.025982
v 0.288820 -0.065821 25.014999
v 0.281500 -0.058500 25.025982
v -0.191500 -0.058500 25.025982
v -0.191500 -0.058500 25.025982
v 0.281500 -0.058500 25.025982
v -0.201500 -0.048500 25.029999
v 0.281500 -0.058500 25.025982
v 0.271500 -0.048500 25.029999
v -0.201500 -0.048500 25.029999
v 0.271500 -0.048500 -25.029999
v 0.271500 0.076500 -25.029999
v 0.281500 -0.058500 -25.025980
v 0.271500 0.076500 -25.029999
v 0.281500 0.086500 -25.025980
v 0.281500 -0.058500 -25.025980
v 0.281500 -0.058500 -25.025980
v 0.281500 0.086500 -25.025980
v 0.288820 -0.065821 -25.014999
v 0.281500 0.086500 -25.025980
v 0.288820 0.093821 -25.014999
v 0.288820 -0.065821 -25.014999
v 0.288820 -0.065821 -25.014999
v 0.288820 0.093821 -25.014999
v 0.291500 -0.068500 -25.000000
v 0.288820 0.093821 -25.014999
v 0.291500 0.096500 -25.000000
v 0.291500 -0.068500 -25.000000
v 0.291500 -0.068500 -25.000000
v 0.291500 0.096500 -25.000000
v 0.291500 -0.068500 25.000000
v 0.291500 0.096500 -25.000000
v 0.291500 0.096500 25.000000
v 0.291500 -0.068500 25.000000
v 0.291500 -0.068500 25.000000
v 0.291500 0.096500 25.000000
v 0.288820 -0.065821 25.014999
v 0.291500 0.096500 25.000000
v 0.288820 0.093821 25.014999
v 0.288820 -0.065821 25.014999
v 0.288820 -0.065821 25.014999
v 0.288820 0.093821 25.014999
v 0.281500 -0.058500 25.025982
v 0.288820 0.093821 25.014999
v 0.281500 0.086500 25.025982
v 0.281500 -0.058500 25.025982
v 0.281500 -0.058500 25.025982
v 0.281500 0.086500 25.025982
v 0.271500 -0.048500 25.029999
v 0.281500 0.086500 25.025982
v 0.271500 0.076500 25.029999
v 0.271500 -0.048500 25.029999
v 0.271500 0.076500 -25.029999
v -0.201500 0.076500 -25.029999
v 0.281500 0.086500 -25.025980
v -0.201500 0.076500 -25.029999
v -0.191500 0.086500 -25.025980
v 0.281500 0.086500 -25.025980
v 0.281500 0.086500 -25.025980
v -0.191500 0.086500 -25.025980
v 0.288820 0.093821 -25.014999
v -0.191500 0.086500 -25.025980
v -0.184179 0.093821 -25.014999
v 0.288820 0.093821 -25.014999
v 0.288820 0.093821 -25.014999
v -0.184179 0.093821 -25.014999
v 0.291500 0.096500 -25.000000
v -0.184179 0.093821 -25.014999
v -0.181500 0.096500 -25.000000
v 0.291500 0.096500 -25.000000
v 0.291500 0.096500 -25.000000
v -0.181500 0.096500 -25.000000
v 0.291500 0.096500 25.000000
v -0.181500 0.096500 -25.000000
v -0.181500 0.096500 25.000000
v 0.291500 0.096500 25.000000
v 0.291500 0.096500 25.000000
v -0.181500 0.096500 25.000000
v 0.288820 0.093821 25.014999
v -0.181500 0.096500 25.000000
v -0.184179 0.093821 25.014999
v 0.288820 0.093821 25.014999
v 0.288820 0.093821 25.014999
v -0.184179 0.093821 25.014999
v 0.281500 0.086500 25.025982
v -0.184179 0.093821 25.014999
v -0.191500 0.086500 25.025982
v 0.281500 0.086500 25.025982
v 0.281500 0.086500 25.025982
v -0.191500 0.086500 25.025982
v 0.271500 0.076500 25.029999
v -0.191500 0.086500 25.025982
v -0.201500 0.076500 25.029999
v 0.271500 0.076500 25.029999
v -0.201500 0.076500 -25.029999
v -0.201500 0.381500 -25.029999
v -0.191500 0.086500 -25.025980
v -0.201500 0.381500 -25.029999
v -0.191500 0.371500 -25.025980
v -0.191500 0.086500 -25.025980
v -0.191500 0.086500 -25.025980
v -0.191500 0.371500 -25.025980
v -0.184179 0.093821 -25.014999
v -0.191500 0.371500 -25.025980
v -0.184179 0.364179 -25.014999
v -0.184179 0.093821 -25.014999
v -0.184179 0.093821 -25.014999
v -0.184179 0.364179 -25.014999
v -0.181500 0.096500 -25.000000
v -0.184179 0.364179 -25.014999
v -0.181500 0.361500 -25.000000
v -0.181500 0.096500 -25.000000
v -0.181500 0.096500 -25.000000
v -0.181500 0.361500 -25.000000
v -0.181500 0.096500 25.000000
v -0.181500 0.361500 -25.000000
v -0.181500 0.361500 25.000000
v -0.181500 0.096500 25.000000
v -0.181500 0.096500 25.000000
v -0.181500 0.361500 25.000000
v -0.184179 0.093821 25.014999
v -0.181500 0.361500 25.000000
v -0.184179 0.364179 25.014999
v -0.184179 0.093821 25.014999
v -0.184179 0.093821 25.014999
v -0.184179 0.364179 25.014999
v -0.191500 0.086500 25.025982
v -0.184179 0.364179 25.014999
v -0.191500 0.371500 25.025982
v -0.191500 0.086500 25.025982
v -0.191500 0.086500 25.025982
v -0.191500 0.371500 25.025982
v -0.201500 0.076500 25.029999
v -0.191500 0.371500 25.025982
v -0.201500 0.381500 25.029999
v -0.201500 0.076500 25.029999
v -0.201500 0.381500 -25.029999
v 0.341500 0.381500 -25.029999
v -0.191500 0.371500 -25.025980
v 0.341500 0.381500 -25.029999
v 0.351500 0.371500 -25.025980
v -0.191500 0.371500 -25.025980
v -0.191500 0.371500 -25.025980
v 0.351500 0.371500 -25.025980
v -0.184179 0.364179 -25.014999
v 0.351500 0.371500 -25.025980
v 0.358820 0.364179 -25.014999
v -0.184179 0.364179 -25.014999
v -0.184179 0.364179 -25.014999
v 0.358820 0.364179 -25.014999
v -0.181500 0.361500 -25.000000
v 0.358820 0.364179 -25.014999
v 0.361500 0.361500 -25.000000
v -0.181500 0.361500 -25.000000
v -0.181500 0.361500 -25.000000
v 0.361500 0.361500 -25.000000
v -0.181500 0.361500 25.000000
v 0.361500 0.361500 -25.000000
v 0.361500 0.361500 25.000000
v -0.181500 0.361500 25.000000
v -0.181500 0.361500 25.000000
v 0.361500 0.361500 25.000000
v -0.184179 0.364179 25.014999
v 0.361500 0.361500 25.000000
v 0.358820 0.364179 25.014999
v -0.184179 0.364179 25.014999
v -0.184179 0.364179 25.014999
v 0.358820 0.364179 25.014999
v -0.191500 0.371500 25.025982
v 0.358820 0.364179 25.014999
v 0.351500 0.371500 25.025982
v -0.191500 0.371500 25.025982
v -0.191500 0.371500 25.025982
v 0.351500 0.371500 25.025982
v -0.201500 0.381500 25.029999
v 0.351500 0.371500 25.025982
v 0.341500 0.381500 25.029999
v -0.201500 0.381500 25.029999