# Generated mesh
# vertices: 263, faces: 261

v 0.465622 -0.502932 0.000000
v 0.376622 -0.502932 0.000000
v 0.345622 -0.366932 0.000000
v 0.338021 -0.376545 0.000000
v 0.330216 -0.385885 0.000000
v 0.322208 -0.394951 0.000000
v 0.313997 -0.403744 0.000000
v 0.305583 -0.412264 0.000000
v 0.296966 -0.420510 0.000000
v 0.288146 -0.428482 0.000000
v 0.279122 -0.436182 0.000000
v 0.269896 -0.443607 0.000000
v 0.260466 -0.450760 0.000000
v 0.250833 -0.457639 0.000000
v 0.240997 -0.464244 0.000000
v 0.230958 -0.470576 0.000000
v 0.220716 -0.476635 0.000000
v 0.210271 -0.482420 0.000000
v 0.199622 -0.487932 0.000000
v 0.188704 -0.493139 0.000000
v 0.177700 -0.498010 0.000000
v 0.166611 -0.502545 0.000000
v 0.155435 -0.506744 0.000000
v 0.144173 -0.510607 0.000000
v 0.132826 -0.514135 0.000000
v 0.121392 -0.517326 0.000000
v 0.109872 -0.520182 0.000000
v 0.098267 -0.522701 0.000000
v 0.086576 -0.524885 0.000000
v 0.074798 -0.526732 0.000000
v 0.062935 -0.528244 0.000000
v 0.050986 -0.529420 0.000000
v 0.038950 -0.530260 0.000000
v 0.026829 -0.530764 0.000000
v 0.014622 -0.530932 0.000000
v -0.011448 -0.530303 0.000000
v -0.036909 -0.528416 0.000000
v -0.061760 -0.525272 0.000000
v -0.086003 -0.520869 0.000000
v -0.109635 -0.515209 0.000000
v -0.132659 -0.508291 0.000000
v -0.155073 -0.500115 0.000000
v -0.176878 -0.490682 0.000000
v -0.198073 -0.479990 0.000000
v -0.218659 -0.468041 0.000000
v -0.238635 -0.454834 0.000000
v -0.258003 -0.440369 0.000000
v -0.276760 -0.424647 0.000000
v -0.294909 -0.407666 0.000000
v -0.312448 -0.389428 0.000000
v -0.329378 -0.369932 0.000000
v -0.344635 -0.350807 0.000000
v -0.358909 -0.331182 0.000000
v -0.372198 -0.311057 0.000000
v -0.384503 -0.290432 0.000000
v -0.395823 -0.269307 0.000000
v -0.406159 -0.247682 0.000000
v -0.415510 -0.225557 0.000000
v -0.423878 -0.202932 0.000000
v -0.431260 -0.179807 0.000000
v -0.437659 -0.156182 0.000000
v -0.443073 -0.132057 0.000000
v -0.447503 -0.107432 0.000000
v -0.450948 -0.082307 0.000000
v -0.453409 -0.056682 0.000000
v -0.454885 -0.030557 0.000000
v -0.455378 -0.003932 0.000000
v -0.454889 0.024748 0.000000
v -0.453424 0.052787 0.000000
v -0.450983 0.080186 0.000000
v -0.447565 0.106943 0.000000
v -0.443171 0.133060 0.000000
v -0.437799 0.158537 0.000000
v -0.431452 0.183373 0.000000
v -0.424128 0.207568 0.000000
v -0.415827 0.231123 0.000000
v -0.406549 0.254037 0.000000
v -0.396296 0.276310 0.000000
v -0.385065 0.297943 0.000000
v -0.372858 0.318935 0.000000
v -0.359674 0.339287 0.000000
v -0.345514 0.358998 0.000000
v -0.330378 0.378068 0.000000
v -0.313264 0.397686 0.000000
v -0.295424 0.416037 0.000000
v -0.276858 0.433123 0.000000
v -0.257565 0.448943 0.000000
v -0.237546 0.463498 0.000000
v -0.216799 0.476787 0.000000
v -0.195327 0.488811 0.000000
v -0.173128 0.499568 0.000000
v -0.150202 0.509061 0.000000
v -0.126549 0.517287 0.000000
v -0.102171 0.524248 0.000000
v -0.077065 0.529943 0.000000
v -0.051233 0.534373 0.000000
v -0.024674 0.537537 0.000000
v 0.002611 0.539436 0.000000
v 0.030622 0.540068 0.000000
v 0.050572 0.539732 0.000000
v 0.070169 0.538725 0.000000
v 0.089415 0.537045 0.000000
v 0.108310 0.534693 0.000000
v 0.126853 0.531670 0.000000
v 0.145044 0.527975 0.000000
v 0.162884 0.523607 0.000000
v 0.180372 0.518568 0.000000
v 0.197509 0.512857 0.000000
v 0.214294 0.506475 0.000000
v 0.230728 0.499420 0.000000
v 0.246810 0.491693 0.000000
v 0.262540 0.483295 0.000000
v 0.277919 0.474225 0.000000
v 0.292947 0.464482 0.000000
v 0.307622 0.454068 0.000000
v 0.323060 0.442201 0.000000
v 0.337622 0.429850 0.000000
v 0.351310 0.417014 0.000000
v 0.364122 0.403693 0.000000
v 0.376060 0.389889 0.000000
v 0.387122 0.375600 0.000000
v 0.397310 0.360826 0.000000
v 0.406622 0.345568 0.000000
v 0.415060 0.329826 0.000000
v 0.422622 0.313600 0.000000
v 0.429310 0.296889 0.000000
v 0.435122 0.279693 0.000000
v 0.440060 0.262014 0.000000
v 0.444122 0.243850 0.000000
v 0.447310 0.225201 0.000000
v 0.449622 0.206068 0.000000
v 0.316622 0.206068 0.000000
v 0.313286 0.218166 0.000000
v 0.309529 0.229959 0.000000
v 0.305349 0.241447 0.000000
v 0.300747 0.252631 0.000000
v 0.295724 0.263510 0.000000
v 0.290279 0.274084 0.000000
v 0.284411 0.284353 0.000000
v 0.278122 0.294318 0.000000
v 0.271411 0.303978 0.000000
v 0.264279 0.313334 0.000000
v 0.256724 0.322385 0.000000
v 0.248747 0.331131 0.000000
v 0.240349 0.339572 0.000000
v 0.231529 0.347709 0.000000
v 0.222286 0.355541 0.000000
v 0.212622 0.363068 0.000000
v 0.202654 0.370334 0.000000
v 0.192497 0.377131 0.000000
v 0.182154 0.383459 0.000000
v 0.171622 0.389318 0.000000
v 0.160904 0.394709 0.000000
v 0.149997 0.399631 0.000000
v 0.138904 0.404084 0.000000
v 0.127622 0.408068 0.000000
v 0.116154 0.411584 0.000000
v 0.104497 0.414631 0.000000
v 0.092654 0.417209 0.000000
v 0.080622 0.419318 0.000000
v 0.068404 0.420959 0.000000
v 0.055997 0.422131 0.000000
v 0.043404 0.422834 0.000000
v 0.030622 0.423068 0.000000
v 0.010396 0.422557 0.000000
v -0.009284 0.421021 0.000000
v -0.028417 0.418463 0.000000
v -0.047003 0.414881 0.000000
v -0.065042 0.410275 0.000000
v -0.082534 0.404646 0.000000
v -0.099479 0.397994 0.000000
v -0.115878 0.390318 0.000000
v -0.131729 0.381619 0.000000
v -0.147034 0.371896 0.000000
v -0.161792 0.361150 0.000000
v -0.176003 0.349381 0.000000
v -0.189667 0.336588 0.000000
v -0.202784 0.322771 0.000000
v -0.215354 0.307932 0.000000
v -0.227378 0.292068 0.000000
v -0.237792 0.277115 0.000000
v -0.247534 0.261756 0.000000
v -0.256604 0.245990 0.000000
v -0.265003 0.229818 0.000000
v -0.272729 0.213240 0.000000
v -0.279784 0.196256 0.000000
v -0.286167 0.178865 0.000000
v -0.291878 0.161068 0.000000
v -0.296917 0.142865 0.000000
v -0.301284 0.124256 0.000000
v -0.304979 0.105240 0.000000
v -0.308003 0.085818 0.000000
v -0.310354 0.065990 0.000000
v -0.312034 0.045756 0.000000
v -0.313042 0.025115 0.000000
v -0.313378 0.004068 0.000000
v -0.313042 -0.016373 0.000000
v -0.312034 -0.036447 0.000000
v -0.310354 -0.056154 0.000000
v -0.308003 -0.075494 0.000000
v -0.304979 -0.094467 0.000000
v -0.301284 -0.113072 0.000000
v -0.296917 -0.131311 0.000000
v -0.291878 -0.149182 0.000000
v -0.286167 -0.166686 0.000000
v -0.279784 -0.183822 0.000000
v -0.272729 -0.200592 0.000000
v -0.265003 -0.216994 0.000000
v -0.256604 -0.233029 0.000000
v -0.247534 -0.248697 0.000000
v -0.237792 -0.263998 0.000000
v -0.227378 -0.278932 0.000000
v -0.215249 -0.294674 0.000000
v -0.202612 -0.309400 0.000000
v -0.189467 -0.323111 0.000000
v -0.175815 -0.335807 0.000000
v -0.161655 -0.347486 0.000000
v -0.146987 -0.358150 0.000000
v -0.131811 -0.367799 0.000000
v -0.116128 -0.376432 0.000000
v -0.099936 -0.384049 0.000000
v -0.083237 -0.390650 0.000000
v -0.066030 -0.396236 0.000000
v -0.048315 -0.400807 0.000000
v -0.030092 -0.404361 0.000000
v -0.011362 -0.406900 0.000000
v 0.007876 -0.408424 0.000000
v 0.027622 -0.408932 0.000000
v 0.045158 -0.408537 0.000000
v 0.062263 -0.407354 0.000000
v 0.078939 -0.405381 0.000000
v 0.095185 -0.402619 0.000000
v 0.111001 -0.399068 0.000000
v 0.126388 -0.394729 0.000000
v 0.141345 -0.389600 0.000000
v 0.155872 -0.383682 0.000000
v 0.169970 -0.376975 0.000000
v 0.183638 -0.369479 0.000000
v 0.196876 -0.361193 0.000000
v 0.209685 -0.352119 0.000000
v 0.222064 -0.342256 0.000000
v 0.234013 -0.331604 0.000000
v 0.245533 -0.320162 0.000000
v 0.256622 -0.307932 0.000000
v 0.266794 -0.295744 0.000000
v 0.276310 -0.283182 0.000000
v 0.285169 -0.270244 0.000000
v 0.293372 -0.256932 0.000000
v 0.300919 -0.243244 0.000000
v 0.307810 -0.229182 0.000000
v 0.314044 -0.214744 0.000000
v 0.319622 -0.199932 0.000000
v 0.324544 -0.184744 0.000000
v 0.328810 -0.169182 0.000000
v 0.332419 -0.153244 0.000000
v 0.335372 -0.136932 0.000000
v 0.337669 -0.120244 0.000000
v 0.339310 -0.103182 0.000000
v 0.340294 -0.085744 0.000000
v 0.340622 -0.067932 0.000000
v 0.021622 -0.067932 0.000000
v 0.021622 0.046068 0.000000
v 0.465622 0.046068 0.000000
f 2 1 263
f 263 262 261
f 133 132 131
f 131 130 129
f 129 128 127
f 127 126 125
f 125 124 123
f 123 122 121
f 121 120 119
f 119 118 117
f 117 116 115
f 115 114 113
f 113 112 111
f 111 110 109
f 109 108 107
f 107 106 105
f 105 104 103
f 103 102 101
f 101 100 99
f 99 98 97
f 97 96 95
f 95 94 93
f 93 92 91
f 91 90 89
f 89 88 87
f 87 86 85
f 85 84 83
f 83 82 81
f 81 80 79
f 79 78 77
f 77 76 75
f 75 74 73
f 73 72 71
f 71 70 69
f 69 68 67
f 67 66 65
f 65 64 63
f 63 62 61
f 61 60 59
f 59 58 57
f 57 56 55
f 55 54 53
f 53 52 51
f 51 50 49
f 49 48 47
f 47 46 45
f 45 44 43
f 43 42 41
f 41 40 39
f 39 38 37
f 37 36 35
f 35 34 33
f 33 32 31
f 31 30 29
f 29 28 27
f 27 26 25
f 25 24 23
f 23 22 21
f 21 20 19
f 19 18 17
f 17 16 15
f 15 14 13
f 13 12 11
f 11 10 9
f 9 8 7
f 7 6 5
f 5 4 3
f 3 2 263
f 263 261 260
f 134 133 131
f 131 129 127
f 127 125 123
f 123 121 119
f 119 117 115
f 115 113 111
f 111 109 107
f 107 105 103
f 103 101 99
f 99 97 95
f 95 93 91
f 91 89 87
f 87 85 83
f 83 81 79
f 79 77 75
f 75 73 71
f 71 69 67
f 67 65 63
f 63 61 59
f 59 57 55
f 55 53 51
f 51 49 47
f 47 45 43
f 43 41 39
f 39 37 35
f 35 33 31
f 31 29 27
f 27 25 23
f 23 21 19
f 19 17 15
f 15 13 11
f 11 9 7
f 7 5 3
f 3 263 260
f 135 134 131
f 131 127 123
f 123 119 115
f 115 111 107
f 107 103 99
f 99 95 91
f 91 87 83
f 83 79 75
f 75 71 67
f 67 63 59
f 59 55 51
f 51 47 43
f 43 39 35
f 35 31 27
f 27 23 19
f 19 15 11
f 11 7 3
f 3 260 259
f 136 135 131
f 131 123 115
f 115 107 99
f 99 91 83
f 83 75 67
f 67 59 51
f 51 43 35
f 35 27 19
f 19 11 3
f 3 259 258
f 137 136 131
f 131 115 99
f 83 67 51
f 51 35 19
f 3 258 257
f 138 137 131
f 3 257 256
f 139 138 131
f 3 256 255
f 140 139 131
f 3 255 254
f 141 140 131
f 3 254 253
f 142 141 131
f 3 253 252
f 143 142 131
f 3 252 251
f 144 143 131
f 19 3 251
f 145 144 131
f 19 251 250
f 146 145 131
f 19 250 249
f 147 146 131
f 19 249 248
f 148 147 131
f 19 248 247
f 149 148 131
f 19 247 246
f 150 149 131
f 19 246 245
f 150 131 99
f 19 245 244
f 151 150 99
f 19 244 243
f 152 151 99
f 19 243 242
f 153 152 99
f 19 242 241
f 154 153 99
f 19 241 240
f 155 154 99
f 19 240 239
f 156 155 99
f 19 239 238
f 157 156 99
f 19 238 237
f 158 157 99
f 19 237 236
f 159 158 99
f 19 236 235
f 160 159 99
f 19 235 234
f 161 160 99
f 19 234 233
f 162 161 99
f 19 233 232
f 163 162 99
f 19 232 231
f 164 163 99
f 19 231 230
f 165 164 99
f 19 230 229
f 166 165 99
f 19 229 228
f 167 166 99
f 19 228 227
f 168 167 99
f 19 227 226
f 169 168 99
f 51 19 226
f 170 169 99
f 51 226 225
f 171 170 99
f 51 225 224
f 172 171 99
f 51 224 223
f 173 172 99
f 51 223 222
f 174 173 99
f 51 222 221
f 175 174 99
f 51 221 220
f 176 175 99
f 51 220 219
f 176 99 83
f 51 219 218
f 177 176 83
f 51 218 217
f 178 177 83
f 51 217 216
f 179 178 83
f 51 216 215
f 180 179 83
f 51 215 214
f 181 180 83
f 51 214 213
f 182 181 83
f 51 213 212
f 183 182 83
f 51 212 211
f 184 183 83
f 51 211 210
f 185 184 83
f 51 210 209
f 186 185 83
f 51 209 208
f 187 186 83
f 51 208 207
f 188 187 83
f 51 207 206
f 189 188 83
f 51 206 205
f 190 189 83
f 51 205 204
f 191 190 83
f 51 204 203
f 192 191 83
f 51 203 202
f 193 192 83
f 51 202 201
f 194 193 83
f 51 201 200
f 195 194 83
f 51 200 199
f 196 195 83
f 51 199 198
f 197 196 83
f 51 198 197
f 197 83 51