# Generated mesh
# vertices: 564, faces: 0

v 0.401500 -0.506500 -25.029999
v 0.265500 -0.506500 -25.029999
v 0.265500 -0.031500 -25.029999
v 0.265500 0.506500 -25.029999
v 0.401500 0.506500 -25.029999
v 0.401500 -0.506500 -25.029999
v -0.401500 0.506500 -25.029999
v -0.261500 0.506500 -25.029999
v -0.261500 0.092500 -25.029999
v -0.261500 -0.506500 -25.029999
v -0.401500 -0.506500 -25.029999
v -0.401500 0.506500 -25.029999
v 0.265500 0.092500 -25.029999
v 0.265500 0.506500 -25.029999
v 0.401500 -0.506500 -25.029999
v -0.261500 -0.031500 -25.029999
v -0.261500 -0.506500 -25.029999
v -0.401500 0.506500 -25.029999
v 0.265500 0.092500 -25.029999
v 0.401500 -0.506500 -25.029999
v 0.265500 -0.031500 -25.029999
v -0.261500 -0.031500 -25.029999
v -0.401500 0.506500 -25.029999
v -0.261500 0.092500 -25.029999
v 0.265500 0.092500 -25.029999
v 0.265500 -0.031500 -25.029999
v -0.261500 -0.031500 -25.029999
v -0.261500 -0.031500 -25.029999
v -0.261500 0.092500 -25.029999
v 0.265500 0.092500 -25.029999
v 0.265500 -0.031500 25.029999
v 0.265500 -0.506500 25.029999
v 0.401500 -0.506500 25.029999
v 0.401500 -0.506500 25.029999
v 0.401500 0.506500 25.029999
v 0.265500 0.506500 25.029999
v -0.261500 0.092500 25.029999
v -0.261500 0.506500 25.029999
v -0.401500 0.506500 25.029999
v -0.401500 0.506500 25.029999
v -0.401500 -0.506500 25.029999
v -0.261500 -0.506500 25.029999
v 0.401500 -0.506500 25.029999
v 0.265500 0.506500 25.029999
v 0.265500 0.092500 25.029999
v -0.401500 0.506500 25.029999
v -0.261500 -0.506500 25.029999
v -0.261500 -0.031500 25.029999
v 0.265500 -0.031500 25.029999
v 0.401500 -0.506500 25.029999
v 0.265500 0.092500 25.029999
v -0.261500 0.092500 25.029999
v -0.401500 0.506500 25.029999
v -0.261500 -0.031500 25.029999
v -0.261500 -0.031500 25.029999
v 0.265500 -0.031500 25.029999
v 0.265500 0.092500 25.029999
v 0.265500 0.092500 25.029999
v -0.261500 0.092500 25.029999
v -0.261500 -0.031500 25.029999
v 0.401500 -0.506500 -25.029999
v 0.401500 0.506500 -25.029999
v 0.411500 -0.516500 -25.025980
v 0.401500 0.506500 -25.029999
v 0.411500 0.516500 -25.025980
v 0.411500 -0.516500 -25.025980
v 0.411500 -0.516500 -25.025980
v 0.411500 0.516500 -25.025980
v 0.418820 -0.523821 -25.014999
v 0.411500 0.516500 -25.025980
v 0.418820 0.523821 -25.014999
v 0.418820 -0.523821 -25.014999
v 0.418820 -0.523821 -25.014999
v 0.418820 0.523821 -25.014999
v 0.421500 -0.526500 -25.000000
v 0.418820 0.523821 -25.014999
v 0.421500 0.526500 -25.000000
v 0.421500 -0.526500 -25.000000
v 0.421500 -0.526500 -25.000000
v 0.421500 0.526500 -25.000000
v 0.421500 -0.526500 25.000000
v 0.421500 0.526500 -25.000000
v 0.421500 0.526500 25.000000
v 0.421500 -0.526500 25.000000
v 0.421500 -0.526500 25.000000
v 0.421500 0.526500 25.000000
v 0.418820 -0.523821 25.014999
v 0.421500 0.526500 25.000000
v 0.418820 0.523821 25.014999
v 0.418820 -0.523821 25.014999
v 0.418820 -0.523821 25.014999
v 0.418820 0.523821 25.014999
v 0.411500 -0.516500 25.025982
v 0.418820 0.523821 25.014999
v 0.411500 0.516500 25.025982
v 0.411500 -0.516500 25.025982
v 0.411500 -0.516500 25.025982
v 0.411500 0.516500 25.025982
v 0.401500 -0.506500 25.029999
v 0.411500 0.516500 25.025982
v 0.401500 0.506500 25.029999
v 0.401500 -0.506500 25.029999
v 0.401500 0.506500 -25.029999
v 0.265500 0.506500 -25.029999
v 0.411500 0.516500 -25.025980
v 0.265500 0.506500 -25.029999
v 0.255500 0.516500 -25.025980
v 0.411500 0.516500 -25.025980
v 0.411500 0.516500 -25.025980
v 0.255500 0.516500 -25.025980
v 0.418820 0.523821 -25.014999
v 0.255500 0.516500 -25.025980
v 0.248179 0.523821 -25.014999
v 0.418820 0.523821 -25.014999
v 0.418820 0.523821 -25.014999
v 0.248179 0.523821 -25.014999
v 0.421500 0.526500 -25.000000
v 0.248179 0.523821 -25.014999
v 0.245500 0.526500 -25.000000
v 0.421500 0.526500 -25.000000
v 0.421500 0.526500 -25.000000
v 0.245500 0.526500 -25.000000
v 0.421500 0.526500 25.000000
v 0.245500 0.526500 -25.000000
v 0.245500 0.526500 25.000000
v 0.421500 0.526500 25.000000
v 0.421500 0.526500 25.000000
v 0.245500 0.526500 25.000000
v 0.418820 0.523821 25.014999
v 0.245500 0.526500 25.000000
v 0.248179 0.523821 25.014999
v 0.418820 0.523821 25.014999
v 0.418820 0.523821 25.014999
v 0.248179 0.523821 25.014999
v 0.411500 0.516500 25.025982
v 0.248179 0.523821 25.014999
v 0.255500 0.516500 25.025982
v 0.411500 0.516500 25.025982
v 0.411500 0.516500 25.025982
v 0.255500 0.516500 25.025982
v 0.401500 0.506500 25.029999
v 0.255500 0.516500 25.025982
v 0.265500 0.506500 25.029999
v 0.401500 0.506500 25.029999
v 0.265500 0.506500 -25.029999
v 0.265500 0.092500 -25.029999
v 0.255500 0.516500 -25.025980
v 0.265500 0.092500 -25.029999
v 0.255500 0.102500 -25.025980
v 0.255500 0.516500 -25.025980
v 0.255500 0.516500 -25.025980
v 0.255500 0.102500 -25.025980
v 0.248179 0.523821 -25.014999
v 0.255500 0.102500 -25.025980
v 0.248179 0.109820 -25.014999
v 0.248179 0.523821 -25.014999
v 0.248179 0.523821 -25.014999
v 0.248179 0.109820 -25.014999
v 0.245500 0.526500 -25.000000
v 0.248179 0.109820 -25.014999
v 0.245500 0.112500 -25.000000
v 0.245500 0.526500 -25.000000
v 0.245500 0.526500 -25.000000
v 0.245500 0.112500 -25.000000
v 0.245500 0.526500 25.000000
v 0.245500 0.112500 -25.000000
v 0.245500 0.112500 25.000000
v 0.245500 0.526500 25.000000
v 0.245500 0.526500 25.000000
v 0.245500 0.112500 25.000000
v 0.248179 0.523821 25.014999
v 0.245500 0.112500 25.000000
v 0.248179 0.109820 25.014999
v 0.248179 0.523821 25.014999
v 0.248179 0.523821 25.014999
v 0.248179 0.109820 25.014999
v 0.255500 0.516500 25.025982
v 0.248179 0.109820 25.014999
v 0.255500 0.102500 25.025982
v 0.255500 0.516500 25.025982
v 0.255500 0.516500 25.025982
v 0.255500 0.102500 25.025982
v 0.265500 0.506500 25.029999
v 0.255500 0.102500 25.025982
v 0.265500 0.092500 25.029999
v 0.265500 0.506500 25.029999
v 0.265500 0.092500 -25.029999
v -0.261500 0.092500 -25.029999
v 0.255500 0.102500 -25.025980
v -0.261500 0.092500 -25.029999
v -0.251500 0.102500 -25.025980
v 0.255500 0.102500 -25.025980
v 0.255500 0.102500 -25.025980
v -0.251500 0.102500 -25.025980
v 0.248179 0.109820 -25.014999
v -0.251500 0.102500 -25.025980
v -0.244179 0.109820 -25.014999
v 0.248179 0.109820 -25.014999
v 0.248179 0.109820 -25.014999
v -0.244179 0.109820 -25.014999
v 0.245500 0.112500 -25.000000
v -0.244179 0.109820 -25.014999
v -0.241500 0.112500 -25.000000
v 0.245500 0.112500 -25.000000
v 0.245500 0.112500 -25.000000
v -0.241500 0.112500 -25.000000
v 0.245500 0.112500 25.000000
v -0.241500 0.112500 -25.000000
v -0.241500 0.112500 25.000000
v 0.245500 0.112500 25.000000
v 0.245500 0.112500 25.000000
v -0.241500 0.112500 25.000000
v 0.248179 0.109820 25.014999
v -0.241500 0.112500 25.000000
v -0.244179 0.109820 25.014999
v 0.248179 0.109820 25.014999
v 0.248179 0.109820 25.014999
v -0.244179 0.109820 25.014999
v 0.255500 0.102500 25.025982
v -0.244179 0.109820 25.014999
v -0.251500 0.102500 25.025982
v 0.255500 0.102500 25.025982
v 0.255500 0.102500 25.025982
v -0.251500 0.102500 25.025982
v 0.265500 0.092500 25.029999
v -0.251500 0.102500 25.025982
v -0.261500 0.092500 25.029999
v 0.265500 0.092500 25.029999
v -0.261500 0.092500 -25.029999
v -0.261500 0.506500 -25.029999
v -0.251500 0.102500 -25.025980
v -0.261500 0.506500 -25.029999
v -0.251500 0.516500 -25.025980
v -0.251500 0.102500 -25.025980
v -0.251500 0.102500 -25.025980
v -0.251500 0.516500 -25.025980
v -0.244179 0.109820 -25.014999
v -0.251500 0.516500 -25.025980
v -0.244179 0.523821 -25.014999
v -0.244179 0.109820 -25.014999
v -0.244179 0.109820 -25.014999
v -0.244179 0.523821 -25.014999
v -0.241500 0.112500 -25.000000
v -0.244179 0.523821 -25.014999
v -0.241500 0.526500 -25.000000
v -0.241500 0.112500 -25.000000
v -0.241500 0.112500 -25.000000
v -0.241500 0.526500 -25.000000
v -0.241500 0.112500 25.000000
v -0.241500 0.526500 -25.000000
v -0.241500 0.526500 25.000000
v -0.241500 0.112500 25.000000
v -0.241500 0.112500 25.000000
v -0.241500 0.526500 25.000000
v -0.244179 0.109820 25.014999
v -0.241500 0.526500 25.000000
v -0.244179 0.523821 25.014999
v -0.244179 0.109820 25.014999
v -0.244179 0.109820 25.014999
v -0.244179 0.523821 25.014999
v -0.251500 0.102500 25.025982
v -0.244179 0.523821 25.014999
v -0.251500 0.516500 25.025982
v -0.251500 0.102500 25.025982
v -0.251500 0.102500 25.025982
v -0.251500 0.516500 25.025982
v -0.261500 0.092500 25.029999
v -0.251500 0.516500 25.025982
v -0.261500 0.506500 25.029999
v -0.261500 0.092500 25.029999
v -0.261500 0.506500 -25.029999
v -0.401500 0.506500 -25.029999
v -0.251500 0.516500 -25.025980
v -0.401500 0.506500 -25.029999
v -0.411500 0.516500 -25.025980
v -0.251500 0.516500 -25.025980
v -0.251500 0.516500 -25.025980
v -0.411500 0.516500 -25.025980
v -0.244179 0.523821 -25.014999
v -0.411500 0.516500 -25.025980
v -0.418821 0.523821 -25.014999
v -0.244179 0.523821 -25.014999
v -0.244179 0.523821 -25.014999
v -0.418821 0.523821 -25.014999
v -0.241500 0.526500 -25.000000
v -0.418821 0.523821 -25.014999
v -0.421500 0.526500 -25.000000
v -0.241500 0.526500 -25.000000
v -0.241500 0.526500 -25.000000
v -0.421500 0.526500 -25.000000
v -0.241500 0.526500 25.000000
v -0.421500 0.526500 -25.000000
v -0.421500 0.526500 25.000000
v -0.241500 0.526500 25.000000
v -0.241500 0.526500 25.000000
v -0.421500 0.526500 25.000000
v -0.244179 0.523821 25.014999
v -0.421500 0.526500 25.000000
v -0.418821 0.523821 25.014999
v -0.244179 0.523821 25.014999
v -0.244179 0.523821 25.014999
v -0.418821 0.523821 25.014999
v -0.251500 0.516500 25.025982
v -0.418821 0.523821 25.014999
v -0.411500 0.516500 25.025982
v -0.251500 0.516500 25.025982
v -0.251500 0.516500 25.025982
v -0.411500 0.516500 25.025982
v -0.261500 0.506500 25.029999
v -0.411500 0.516500 25.025982
v -0.401500 0.506500 25.029999
v -0.261500 0.506500 25.029999
v -0.401500 0.506500 -25.029999
v -0.401500 -0.506500 -25.029999
v -0.411500 0.516500 -25.025980
v -0.401500 -0.506500 -25.029999
v -0.411500 -0.516500 -25.025980
v -0.411500 0.516500 -25.025980
v -0.411500 0.516500 -25.025980
v -0.411500 -0.516500 -25.025980
v -0.418821 0.523821 -25.014999
v -0.411500 -0.516500 -25.025980
v -0.418821 -0.523821 -25.014999
v -0.418821 0.523821 -25.014999
v -0.418821 0.523821 -25.014999
v -0.418821 -0.523821 -25.014999
v -0.421500 0.526500 -25.000000
v -0.418821 -0.523821 -25.014999
v -0.421500 -0.526500 -25.000000
v -0.421500 0.526500 -25.000000
v -0.421500 0.526500 -25.000000
v -0.421500 -0.526500 -25.000000
v -0.421500 0.526500 25.000000
v -0.421500 -0.526500 -25.000000
v -0.421500 -0.526500 25.000000
v -0.421500 0.526500 25.000000
v -0.421500 0.526500 25.000000
v -0.421500 -0.526500 25.000000
v -0.418821 0.523821 25.014999
v -0.421500 -0.526500 25.000000
v -0.418821 -0.523821 25.014999
v -0.418821 0.523821 25.014999
v -0.418821 0.523821 25.014999
v -0.418821 -0.523821 25.014999
v -0.411500 0.516500 25.025982
v -0.418821 -0.523821 25.014999
v -0.411500 -0.516500 25.025982
v -0.411500 0.516500 25.025982
v -0.411500 0.516500 25.025982
v -0.411500 -0.516500 25.025982
v -0.401500 0.506500 25.029999
v -0.411500 -0.516500 25.025982
v -0.401500 -0.506500 25.029999
v -0.401500 0.506500 25.029999
v -0.401500 -0.506500 -25.029999
v -0.261500 -0.506500 -25.029999
v -0.411500 -0.516500 -25.025980
v -0.261500 -0.506500 -25.029999
v -0.251500 -0.516500 -25.025980
v -0.411500 -0.516500 -25.025980
v -0.411500 -0.516500 -25.025980
v -0.251500 -0.516500 -25.025980
v -0.418821 -0.523821 -25.014999
v -0.251500 -0.516500 -25.025980
v -0.244179 -0.523821 -25.014999
v -0.418821 -0.523821 -25.014999
v -0.418821 -0.523821 -25.014999
v -0.244179 -0.523821 -25.014999
v -0.421500 -0.526500 -25.000000
v -0.244179 -0.523821 -25.014999
v -0.241500 -0.526500 -25.000000
v -0.421500 -0.526500 -25.000000
v -0.421500 -0.526500 -25.000000
v -0.241500 -0.526500 -25.000000
v -0.421500 -0.526500 25.000000
v -0.241500 -0.526500 -25.000000
v -0.241500 -0.526500 25.000000
v -0.421500 -0.526500 25.000000
v -0.421500 -0.526500 25.000000
v -0.241500 -0.526500 25.000000
v -0.418821 -0.523821 25.014999
v -0.241500 -0.526500 25.000000
v -0.244179 -0.523821 25.014999
v -0.418821 -0.523821 25.014999
v -0.418821 -0.523821 25.014999
v -0.244179 -0.523821 25.014999
v -0.411500 -0.516500 25.025982
v -0.244179 -0.523821 25.014999
v -0.251500 -0.516500 25.025982
v -0.411500 -0.516500 25.025982
v -0.411500 -0.516500 25.025982
v -0.251500 -0.516500 25.025982
v -0.401500 -0.506500 25.029999
v -0.251500 -0.516500 25.025982
v -0.261500 -0.506500 25.029999
v -0.401500 -0.506500 25.029999
v -0.261500 -0.506500 -25.029999
v -0.261500 -0.031500 -25.029999
v -0.251500 -0.516500 -25.025980
v -0.261500 -0.031500 -25.029999
v -0.251500 -0.041500 -25.025980
v -0.251500 -0.516500 -25.025980
v -0.251500 -0.516500 -25.025980
v -0.251500 -0.041500 -25.025980
v -0.244179 -0.523821 -25.014999
v -0.251500 -0.041500 -25.025980
v -0.244179 -0.048821 -25.014999
v -0.244179 -0.523821 -25.014999
v -0.244179 -0.523821 -25.014999
v -0.244179 -0.048821 -25.014999
v -0.241500 -0.526500 -25.000000
v -0.244179 -0.048821 -25.014999
v -0.241500 -0.051500 -25.000000
v -0.241500 -0.526500 -25.000000
v -0.241500 -0.526500 -25.000000
v -0.241500 -0.051500 -25.000000
v -0.241500 -0.526500 25.000000
v -0.241500 -0.051500 -25.000000
v -0.241500 -0.051500 25.000000
v -0.241500 -0.526500 25.000000
v -0.241500 -0.526500 25.000000
v -0.241500 -0.051500 25.000000
v -0.244179 -0.523821 25.014999
v -0.241500 -0.051500 25.000000
v -0.244179 -0.048821 25.014999
v -0.244179 -0.523821 25.014999
v -0.244179 -0.523821 25.014999
v -0.244179 -0.048821 25.014999
v -0.251500 -0.516500 25.025982
v -0.244179 -0.048821 25.014999
v -0.251500 -0.041500 25.025982
v -0.251500 -0.516500 25.025982
v -0.251500 -0.516500 25.025982
v -0.251500 -0.041500 25.025982
v -0.261500 -0.506500 25.029999
v -0.251500 -0.041500 25.025982
v -0.261500 -0.031500 25.029999
v -0.261500 -0.506500 25.029999
v -0.261500 -0.031500 -25.029999
v 0.265500 -0.031500 -25.029999
v -0.251500 -0.041500 -25.025980
v 0.265500 -0.031500 -25.029999
v 0.255500 -0.041500 -25.025980
v -0.251500 -0.041500 -25.025980
v -0.251500 -0.041500 -25.025980
v 0.255500 -0.041500 -25.025980
v -0.244179 -0.048821 -25.014999
v 0.255500 -0.041500 -25.025980
v 0.248179 -0.048821 -25.014999
v -0.244179 -0.048821 -25.014999
v -0.244179 -0.048821 -25.014999
v 0.248179 -0.048821 -25.014999
v -0.241500 -0.051500 -25.000000
v 0.248179 -0.048821 -25.014999
v 0.245500 -0.051500 -25.000000
v -0.241500 -0.051500 -25.000000
v -0.241500 -0.051500 -25.000000
v 0.245500 -0.051500 -25.000000
v -0.241500 -0.051500 25.000000
v 0.245500 -0.051500 -25.000000
v 0.245500 -0.051500 25.000000
v -0.241500 -0.051500 25.000000
v -0.241500 -0.051500 25.000000
v 0.245500 -0.051500 25.000000
v -0.244179 -0.048821 25.014999
v 0.245500 -0.051500 25.000000
v 0.248179 -0.048821 25.014999
v -0.244179 -0.048821 25.014999
v -0.244179 -0.048821 25.014999
v 0.248179 -0.048821 25.014999
v -0.251500 -0.041500 25.025982
v 0.248179 -0.048821 25.014999
v 0.255500 -0.041500 25.025982
v -0.251500 -0.041500 25.025982
v -0.251500 -0.041500 25.025982
v 0.255500 -0.041500 25.025982
v -0.261500 -0.031500 25.029999
v 0.255500 -0.041500 25.025982
v 0.265500 -0.031500 25.029999
v -0.261500 -0.031500 25.029999
v 0.265500 -0.031500 -25.029999
v 0.265500 -0.506500 -25.029999
v 0.255500 -0.041500 -25.025980
v 0.265500 -0.506500 -25.029999
v 0.255500 -0.516500 -25.025980
v 0.255500 -0.041500 -25.025980
v 0.255500 -0.041500 -25.025980
v 0.255500 -0.516500 -25.025980
v 0.248179 -0.048821 -25.014999
v 0.255500 -0.516500 -25.025980
v 0.248179 -0.523821 -25.014999
v 0.248179 -0.048821 -25.014999
v 0.248179 -0.048821 -25.014999
v 0.248179 -0.523821 -25.014999
v 0.245500 -0.051500 -25.000000
v 0.248179 -0.523821 -25.014999
v 0.245500 -0.526500 -25.000000
v 0.245500 -0.051500 -25.000000
v 0.245500 -0.051500 -25.000000
v 0.245500 -0.526500 -25.000000
v 0.245500 -0.051500 25.000000
v 0.245500 -0.526500 -25.000000
v 0.245500 -0.526500 25.000000
v 0.245500 -0.051500 25.000000
v 0.245500 -0.051500 25.000000
v 0.245500 -0.526500 25.000000
v 0.248179 -0.048821 25.014999
v 0.245500 -0.526500 25.000000
v 0.248179 -0.523821 25.014999
v 0.248179 -0.048821 25.014999
v 0.248179 -0.048821 25.014999
v 0.248179 -0.523821 25.014999
v 0.255500 -0.041500 25.025982
v 0.248179 -0.523821 25.014999
v 0.255500 -0.516500 25.025982
v 0.255500 -0.041500 25.025982
v 0.255500 -0.041500 25.025982
v 0.255500 -0.516500 25.025982
v 0.265500 -0.031500 25.029999
v 0.255500 -0.516500 25.025982
v 0.265500 -0.506500 25.029999
v 0.265500 -0.031500 25.029999
v 0.265500 -0.506500 -25.029999
v 0.401500 -0.506500 -25.029999
v 0.255500 -0.516500 -25.025980
v 0.401500 -0.506500 -25.029999
v 0.411500 -0.516500 -25.025980
v 0.255500 -0.516500 -25.025980
v 0.255500 -0.516500 -25.025980
v 0.411500 -0.516500 -25.025980
v 0.248179 -0.523821 -25.014999
v 0.411500 -0.516500 -25.025980
v 0.418820 -0.523821 -25.014999
v 0.248179 -0.523821 -25.014999
v 0.248179 -0.523821 -25.014999
v 0.418820 -0.523821 -25.014999
v 0.245500 -0.526500 -25.000000
v 0.418820 -0.523821 -25.014999
v 0.421500 -0.526500 -25.000000
v 0.245500 -0.526500 -25.000000
v 0.245500 -0.526500 -25.000000
v 0.421500 -0.526500 -25.000000
v 0.245500 -0.526500 25.000000
v 0.421500 -0.526500 -25.000000
v 0.421500 -0.526500 25.000000
v 0.245500 -0.526500 25.000000
v 0.245500 -0.526500 25.000000
v 0.421500 -0.526500 25.000000
v 0.248179 -0.523821 25.014999
v 0.421500 -0.526500 25.000000
v 0.418820 -0.523821 25.014999
v 0.248179 -0.523821 25.014999
v 0.248179 -0.523821 25.014999
v 0.418820 -0.523821 25.014999
v 0.255500 -0.516500 25.025982
v 0.418820 -0.523821 25.014999
v 0.411500 -0.516500 25.025982
v 0.255500 -0.516500 25.025982
v 0.255500 -0.516500 25.025982
v 0.411500 -0.516500 25.025982
v 0.265500 -0.506500 25.029999
v 0.411500 -0.516500 25.025982
v 0.401500 -0.506500 25.029999
v 0.265500 -0.506500 25.029999