# Generated mesh
# vertices: 180, faces: 0

v 0.069500 -0.506500 -25.029999
v -0.069500 -0.506500 -25.029999
v -0.069500 0.506500 -25.029999
v -0.069500 0.506500 -25.029999
v 0.069500 0.506500 -25.029999
v 0.069500 -0.506500 -25.029999
v -0.069500 0.506500 25.029999
v -0.069500 -0.506500 25.029999
v 0.069500 -0.506500 25.029999
v 0.069500 -0.506500 25.029999
v 0.069500 0.506500 25.029999
v -0.069500 0.506500 25.029999
v 0.069500 -0.506500 -25.029999
v 0.069500 0.506500 -25.029999
v 0.079500 -0.516500 -25.025980
v 0.069500 0.506500 -25.029999
v 0.079500 0.516500 -25.025980
v 0.079500 -0.516500 -25.025980
v 0.079500 -0.516500 -25.025980
v 0.079500 0.516500 -25.025980
v 0.086821 -0.523821 -25.014999
v 0.079500 0.516500 -25.025980
v 0.086821 0.523821 -25.014999
v 0.086821 -0.523821 -25.014999
v 0.086821 -0.523821 -25.014999
v 0.086821 0.523821 -25.014999
v 0.089500 -0.526500 -25.000000
v 0.086821 0.523821 -25.014999
v 0.089500 0.526500 -25.000000
v 0.089500 -0.526500 -25.000000
v 0.089500 -0.526500 -25.000000
v 0.089500 0.526500 -25.000000
v 0.089500 -0.526500 25.000000
v 0.089500 0.526500 -25.000000
v 0.089500 0.526500 25.000000
v 0.089500 -0.526500 25.000000
v 0.089500 -0.526500 25.000000
v 0.089500 0.526500 25.000000
v 0.086821 -0.523821 25.014999
v 0.089500 0.526500 25.000000
v 0.086821 0.523821 25.014999
v 0.086821 -0.523821 25.014999
v 0.086821 -0.523821 25.014999
v 0.086821 0.523821 25.014999
v 0.079500 -0.516500 25.025982
v 0.086821 0.523821 25.014999
v 0.079500 0.516500 25.025982
v 0.079500 -0.516500 25.025982
v 0.079500 -0.516500 25.025982
v 0.079500 0.516500 25.025982
v 0.069500 -0.506500 25.029999
v 0.079500 0.516500 25.025982
v 0.069500 0.506500 25.029999
v 0.069500 -0.506500 25.029999
v 0.069500 0.506500 -25.029999
v -0.069500 0.506500 -25.029999
v 0.079500 0.516500 -25.025980
v -0.069500 0.506500 -25.029999
v -0.079500 0.516500 -25.025980
v 0.079500 0.516500 -25.025980
v 0.079500 0.516500 -25.025980
v -0.079500 0.516500 -25.025980
v 0.086821 0.523821 -25.014999
v -0.079500 0.516500 -25.025980
v -0.086821 0.523821 -25.014999
v 0.086821 0.523821 -25.014999
v 0.086821 0.523821 -25.014999
v -0.086821 0.523821 -25.014999
v 0.089500 0.526500 -25.000000
v -0.086821 0.523821 -25.014999
v -0.089500 0.526500 -25.000000
v 0.089500 0.526500 -25.000000
v 0.089500 0.526500 -25.000000
v -0.089500 0.526500 -25.000000
v 0.089500 0.526500 25.000000
v -0.089500 0.526500 -25.000000
v -0.089500 0.526500 25.000000
v 0.089500 0.526500 25.000000
v 0.089500 0.526500 25.000000
v -0.089500 0.526500 25.000000
v 0.086821 0.523821 25.014999
v -0.089500 0.526500 25.000000
v -0.086821 0.523821 25.014999
v 0.086821 0.523821 25.014999
v 0.086821 0.523821 25.014999
v -0.086821 0.523821 25.014999
v 0.079500 0.516500 25.025982
v -0.086821 0.523821 25.014999
v -0.079500 0.516500 25.025982
v 0.079500 0.516500 25.025982
v 0.079500 0.516500 25.025982
v -0.079500 0.516500 25.025982
v 0.069500 0.506500 25.029999
v -0.079500 0.516500 25.025982
v -0.069500 0.506500 25.029999
v 0.069500 0.506500 25.029999
v -0.069500 0.506500 -25.029999
v -0.069500 -0.506500 -25.029999
v -0.079500 0.516500 -25.025980
v -0.069500 -0.506500 -25.029999
v -0.079500 -0.516500 -25.025980
v -0.079500 0.516500 -25.025980
v -0.079500 0.516500 -25.025980
v -0.079500 -0.516500 -25.025980
v -0.086821 0.523821 -25.014999
v -0.079500 -0.516500 -25.025980
v -0.086821 -0.523821 -25.014999
v -0.086821 0.523821 -25.014999
v -0.086821 0.523821 -25.014999
v -0.086821 -0.523821 -25.014999
v -0.089500 0.526500 -25.000000
v -0.086821 -0.523821 -25.014999
v -0.089500 -0.526500 -25.000000
v -0.089500 0.526500 -25.000000
v -0.089500 0.526500 -25.000000
v -0.089500 -0.526500 -25.000000
v -0.089500 0.526500 25.000000
v -0.089500 -0.526500 -25.000000
v -0.089500 -0.526500 25.000000
v -0.089500 0.526500 25.000000
v -0.089500 0.526500 25.000000
v -0.089500 -0.526500 25.000000
v -0.086821 0.523821 25.014999
v -0.089500 -0.526500 25.000000
v -0.086821 -0.523821 25.014999
v -0.086821 0.523821 25.014999
v -0.086821 0.523821 25.014999
v -0.086821 -0.523821 25.014999
v -0.079500 0.516500 25.025982
v -0.086821 -0.523821 25.014999
v -0.079500 -0.516500 25.025982
v -0.079500 0.516500 25.025982
v -0.079500 0.516500 25.025982
v -0.079500 -0.516500 25.025982
v -0.069500 0.506500 25.029999
v -0.079500 -0.516500 25.025982
v -0.069500 -0.506500 25.029999
v -0.069500 0.506500 25.029999
v -0.069500 -0.506500 -25.029999
v 0.069500 -0.506500 -25.029999
v -0.079500 -0.516500 -25.025980
v 0.069500 -0.506500 -25.029999
v 0.079500 -0.516500 -25.025980
v -0.079500 -0.516500 -25.025980
v -0.079500 -0.516500 -25.025980
v 0.079500 -0.516500 -25.025980
v -0.086821 -0.523821 -25.014999
v 0.079500 -0.516500 -25.025980
v 0.086821 -0.523821 -25.014999
v -0.086821 -0.523821 -25.014999
v -0.086821 -0.523821 -25.014999
v 0.086821 -0.523821 -25.014999
v -0.089500 -0.526500 -25.000000
v 0.086821 -0.523821 -25.014999
v 0.089500 -0.526500 -25.000000
v -0.089500 -0.526500 -25.000000
v -0.089500 -0.526500 -25.000000
v 0.089500 -0.526500 -25.000000
v -0.089500 -0.526500 25.000000
v 0.089500 -0.526500 -25.000000
v 0.089500 -0.526500 25.000000
v -0.089500 -0.526500 25.000000
v -0.089500 -0.526500 25.000000
v 0.089500 -0.526500 25.000000
v -0.086821 -0.523821 25.014999
v 0.089500 -0.526500 25.000000
v 0.086821 -0.523821 25.014999
v -0.086821 -0.523821 25.014999
v -0.086821 -0.523821 25.014999
v 0.086821 -0.523821 25.014999
v -0.079500 -0.516500 25.025982
v 0.086821 -0.523821 25.014999
v 0.079500 -0.516500 25.025982
v -0.079500 -0.516500 25.025982
v -0.079500 -0.516500 25.025982
v 0.079500 -0.516500 25.025982
v -0.069500 -0.506500 25.029999
v 0.079500 -0.516500 25.025982
v 0.069500 -0.506500 25.029999
v -0.069500 -0.506500 25.029999