# Generated mesh
# vertices: 1524, faces: 0

v 0.294226 -0.214440 -25.029999
v 0.275413 -0.347878 -25.029999
v 0.218976 -0.443190 -25.029999
v 0.155226 0.519560 -25.029999
v 0.294226 0.519560 -25.029999
v 0.294226 -0.214440 -25.029999
v -0.293774 -0.166440 -25.029999
v -0.160774 -0.166440 -25.029999
v -0.159087 -0.213628 -25.029999
v -0.279274 -0.314440 -25.029999
v -0.290149 -0.245690 -25.029999
v -0.293774 -0.166440 -25.029999
v -0.235774 -0.420440 -25.029999
v -0.261149 -0.372690 -25.029999
v -0.279274 -0.314440 -25.029999
v -0.144524 -0.494690 -25.029999
v -0.195962 -0.463753 -25.029999
v -0.235774 -0.420440 -25.029999
v -0.006774 -0.519440 -25.029999
v -0.081462 -0.513253 -25.029999
v -0.144524 -0.494690 -25.029999
v 0.218976 -0.443190 -25.029999
v 0.124913 -0.500378 -25.029999
v -0.006774 -0.519440 -25.029999
v 0.155226 0.519560 -25.029999
v 0.294226 -0.214440 -25.029999
v 0.218976 -0.443190 -25.029999
v -0.293774 -0.166440 -25.029999
v -0.159087 -0.213628 -25.029999
v -0.154024 -0.255190 -25.029999
v -0.235774 -0.420440 -25.029999
v -0.279274 -0.314440 -25.029999
v -0.293774 -0.166440 -25.029999
v -0.006774 -0.519440 -25.029999
v -0.144524 -0.494690 -25.029999
v -0.235774 -0.420440 -25.029999
v 0.155226 -0.157440 -25.029999
v 0.155226 0.519560 -25.029999
v 0.218976 -0.443190 -25.029999
v -0.293774 -0.166440 -25.029999
v -0.154024 -0.255190 -25.029999
v -0.145587 -0.291128 -25.029999
v -0.006774 -0.519440 -25.029999
v -0.235774 -0.420440 -25.029999
v -0.293774 -0.166440 -25.029999
v 0.153788 -0.211628 -25.029999
v 0.155226 -0.157440 -25.029999
v 0.218976 -0.443190 -25.029999
v -0.293774 -0.166440 -25.029999
v -0.145587 -0.291128 -25.029999
v -0.133774 -0.321440 -25.029999
v 0.149476 -0.257190 -25.029999
v 0.153788 -0.211628 -25.029999
v 0.218976 -0.443190 -25.029999
v -0.293774 -0.166440 -25.029999
v -0.133774 -0.321440 -25.029999
v -0.111524 -0.354690 -25.029999
v 0.142288 -0.294128 -25.029999
v 0.149476 -0.257190 -25.029999
v 0.218976 -0.443190 -25.029999
v -0.006774 -0.519440 -25.029999
v -0.293774 -0.166440 -25.029999
v -0.111524 -0.354690 -25.029999
v 0.132226 -0.322440 -25.029999
v 0.142288 -0.294128 -25.029999
v 0.218976 -0.443190 -25.029999
v -0.006774 -0.519440 -25.029999
v -0.111524 -0.354690 -25.029999
v -0.082774 -0.378440 -25.029999
v 0.110476 -0.355253 -25.029999
v 0.132226 -0.322440 -25.029999
v 0.218976 -0.443190 -25.029999
v -0.006774 -0.519440 -25.029999
v -0.082774 -0.378440 -25.029999
v -0.047524 -0.392690 -25.029999
v 0.110476 -0.355253 -25.029999
v 0.218976 -0.443190 -25.029999
v -0.006774 -0.519440 -25.029999
v -0.006774 -0.519440 -25.029999
v -0.047524 -0.392690 -25.029999
v -0.005774 -0.397440 -25.029999
v 0.080226 -0.378690 -25.029999
v 0.110476 -0.355253 -25.029999
v -0.006774 -0.519440 -25.029999
v -0.006774 -0.519440 -25.029999
v -0.005774 -0.397440 -25.029999
v 0.041476 -0.392753 -25.029999
v 0.041476 -0.392753 -25.029999
v 0.080226 -0.378690 -25.029999
v -0.006774 -0.519440 -25.029999
v 0.218976 -0.443190 25.029999
v 0.275413 -0.347878 25.029999
v 0.294226 -0.214440 25.029999
v 0.294226 -0.214440 25.029999
v 0.294226 0.519560 25.029999
v 0.155226 0.519560 25.029999
v -0.159087 -0.213628 25.029999
v -0.160774 -0.166440 25.029999
v -0.293774 -0.166440 25.029999
v -0.293774 -0.166440 25.029999
v -0.290149 -0.245690 25.029999
v -0.279274 -0.314440 25.029999
v -0.279274 -0.314440 25.029999
v -0.261149 -0.372690 25.029999
v -0.235774 -0.420440 25.029999
v -0.235774 -0.420440 25.029999
v -0.195962 -0.463753 25.029999
v -0.144524 -0.494690 25.029999
v -0.144524 -0.494690 25.029999
v -0.081462 -0.513253 25.029999
v -0.006774 -0.519440 25.029999
v -0.006774 -0.519440 25.029999
v 0.124913 -0.500378 25.029999
v 0.218976 -0.443190 25.029999
v 0.218976 -0.443190 25.029999
v 0.294226 -0.214440 25.029999
v 0.155226 0.519560 25.029999
v -0.154024 -0.255190 25.029999
v -0.159087 -0.213628 25.029999
v -0.293774 -0.166440 25.029999
v -0.293774 -0.166440 25.029999
v -0.279274 -0.314440 25.029999
v -0.235774 -0.420440 25.029999
v -0.235774 -0.420440 25.029999
v -0.144524 -0.494690 25.029999
v -0.006774 -0.519440 25.029999
v 0.218976 -0.443190 25.029999
v 0.155226 0.519560 25.029999
v 0.155226 -0.157440 25.029999
v -0.145587 -0.291128 25.029999
v -0.154024 -0.255190 25.029999
v -0.293774 -0.166440 25.029999
v -0.293774 -0.166440 25.029999
v -0.235774 -0.420440 25.029999
v -0.006774 -0.519440 25.029999
v 0.218976 -0.443190 25.029999
v 0.155226 -0.157440 25.029999
v 0.153788 -0.211628 25.029999
v -0.133774 -0.321440 25.029999
v -0.145587 -0.291128 25.029999
v -0.293774 -0.166440 25.029999
v 0.218976 -0.443190 25.029999
v 0.153788 -0.211628 25.029999
v 0.149476 -0.257190 25.029999
v -0.111524 -0.354690 25.029999
v -0.133774 -0.321440 25.029999
v -0.293774 -0.166440 25.029999
v 0.218976 -0.443190 25.029999
v 0.149476 -0.257190 25.029999
v 0.142288 -0.294128 25.029999
v -0.111524 -0.354690 25.029999
v -0.293774 -0.166440 25.029999
v -0.006774 -0.519440 25.029999
v 0.218976 -0.443190 25.029999
v 0.142288 -0.294128 25.029999
v 0.132226 -0.322440 25.029999
v -0.082774 -0.378440 25.029999
v -0.111524 -0.354690 25.029999
v -0.006774 -0.519440 25.029999
v 0.218976 -0.443190 25.029999
v 0.132226 -0.322440 25.029999
v 0.110476 -0.355253 25.029999
v -0.047524 -0.392690 25.029999
v -0.082774 -0.378440 25.029999
v -0.006774 -0.519440 25.029999
v -0.006774 -0.519440 25.029999
v 0.218976 -0.443190 25.029999
v 0.110476 -0.355253 25.029999
v -0.005774 -0.397440 25.029999
v -0.047524 -0.392690 25.029999
v -0.006774 -0.519440 25.029999
v -0.006774 -0.519440 25.029999
v 0.110476 -0.355253 25.029999
v 0.080226 -0.378690 25.029999
v 0.041476 -0.392753 25.029999
v -0.005774 -0.397440 25.029999
v -0.006774 -0.519440 25.029999
v -0.006774 -0.519440 25.029999
v 0.080226 -0.378690 25.029999
v 0.041476 -0.392753 25.029999
v 0.294226 -0.214440 -25.029999
v 0.294226 0.519560 -25.029999
v 0.304226 -0.215142 -25.025980
v 0.294226 0.519560 -25.029999
v 0.304226 0.529560 -25.025980
v 0.304226 -0.215142 -25.025980
v 0.304226 -0.215142 -25.025980
v 0.304226 0.529560 -25.025980
v 0.311546 -0.215655 -25.014999
v 0.304226 0.529560 -25.025980
v 0.311546 0.536880 -25.014999
v 0.311546 -0.215655 -25.014999
v 0.311546 -0.215655 -25.014999
v 0.311546 0.536880 -25.014999
v 0.314226 -0.215843 -25.000000
v 0.311546 0.536880 -25.014999
v 0.314226 0.539560 -25.000000
v 0.314226 -0.215843 -25.000000
v 0.314226 -0.215843 -25.000000
v 0.314226 0.539560 -25.000000
v 0.314226 -0.215843 25.000000
v 0.314226 0.539560 -25.000000
v 0.314226 0.539560 25.000000
v 0.314226 -0.215843 25.000000
v 0.314226 -0.215843 25.000000
v 0.314226 0.539560 25.000000
v 0.311546 -0.215655 25.014999
v 0.314226 0.539560 25.000000
v 0.311546 0.536880 25.014999
v 0.311546 -0.215655 25.014999
v 0.311546 -0.215655 25.014999
v 0.311546 0.536880 25.014999
v 0.304226 -0.215142 25.025982
v 0.311546 0.536880 25.014999
v 0.304226 0.529560 25.025982
v 0.304226 -0.215142 25.025982
v 0.304226 -0.215142 25.025982
v 0.304226 0.529560 25.025982
v 0.294226 -0.214440 25.029999
v 0.304226 0.529560 25.025982
v 0.294226 0.519560 25.029999
v 0.294226 -0.214440 25.029999
v 0.294226 0.519560 -25.029999
v 0.155226 0.519560 -25.029999
v 0.304226 0.529560 -25.025980
v 0.155226 0.519560 -25.029999
v 0.145226 0.529560 -25.025980
v 0.304226 0.529560 -25.025980
v 0.304226 0.529560 -25.025980
v 0.145226 0.529560 -25.025980
v 0.311546 0.536880 -25.014999
v 0.145226 0.529560 -25.025980
v 0.137905 0.536880 -25.014999
v 0.311546 0.536880 -25.014999
v 0.311546 0.536880 -25.014999
v 0.137905 0.536880 -25.014999
v 0.314226 0.539560 -25.000000
v 0.137905 0.536880 -25.014999
v 0.135226 0.539560 -25.000000
v 0.314226 0.539560 -25.000000
v 0.314226 0.539560 -25.000000
v 0.135226 0.539560 -25.000000
v 0.314226 0.539560 25.000000
v 0.135226 0.539560 -25.000000
v 0.135226 0.539560 25.000000
v 0.314226 0.539560 25.000000
v 0.314226 0.539560 25.000000
v 0.135226 0.539560 25.000000
v 0.311546 0.536880 25.014999
v 0.135226 0.539560 25.000000
v 0.137905 0.536880 25.014999
v 0.311546 0.536880 25.014999
v 0.311546 0.536880 25.014999
v 0.137905 0.536880 25.014999
v 0.304226 0.529560 25.025982
v 0.137905 0.536880 25.014999
v 0.145226 0.529560 25.025982
v 0.304226 0.529560 25.025982
v 0.304226 0.529560 25.025982
v 0.145226 0.529560 25.025982
v 0.294226 0.519560 25.029999
v 0.145226 0.529560 25.025982
v 0.155226 0.519560 25.029999
v 0.294226 0.519560 25.029999
v 0.155226 0.519560 -25.029999
v 0.155226 -0.157440 -25.029999
v 0.145226 0.529560 -25.025980
v 0.155226 -0.157440 -25.029999
v 0.145226 -0.157308 -25.025980
v 0.145226 0.529560 -25.025980
v 0.145226 0.529560 -25.025980
v 0.145226 -0.157308 -25.025980
v 0.137905 0.536880 -25.014999
v 0.145226 -0.157308 -25.025980
v 0.137905 -0.157211 -25.014999
v 0.137905 0.536880 -25.014999
v 0.137905 0.536880 -25.014999
v 0.137905 -0.157211 -25.014999
v 0.135226 0.539560 -25.000000
v 0.137905 -0.157211 -25.014999
v 0.135226 -0.157175 -25.000000
v 0.135226 0.539560 -25.000000
v 0.135226 0.539560 -25.000000
v 0.135226 -0.157175 -25.000000
v 0.135226 0.539560 25.000000
v 0.135226 -0.157175 -25.000000
v 0.135226 -0.157175 25.000000
v 0.135226 0.539560 25.000000
v 0.135226 0.539560 25.000000
v 0.135226 -0.157175 25.000000
v 0.137905 0.536880 25.014999
v 0.135226 -0.157175 25.000000
v 0.137905 -0.157211 25.014999
v 0.137905 0.536880 25.014999
v 0.137905 0.536880 25.014999
v 0.137905 -0.157211 25.014999
v 0.145226 0.529560 25.025982
v 0.137905 -0.157211 25.014999
v 0.145226 -0.157308 25.025982
v 0.145226 0.529560 25.025982
v 0.145226 0.529560 25.025982
v 0.145226 -0.157308 25.025982
v 0.155226 0.519560 25.029999
v 0.145226 -0.157308 25.025982
v 0.155226 -0.157440 25.029999
v 0.155226 0.519560 25.029999
v 0.155226 -0.157440 -25.029999
v 0.153788 -0.211628 -25.029999
v 0.145226 -0.157308 -25.025980
v 0.153788 -0.211628 -25.029999
v 0.143801 -0.211023 -25.025980
v 0.145226 -0.157308 -25.025980
v 0.145226 -0.157308 -25.025980
v 0.143801 -0.211023 -25.025980
v 0.137905 -0.157211 -25.014999
v 0.143801 -0.211023 -25.025980
v 0.136490 -0.210581 -25.014999
v 0.137905 -0.157211 -25.014999
v 0.137905 -0.157211 -25.014999
v 0.136490 -0.210581 -25.014999
v 0.135226 -0.157175 -25.000000
v 0.136490 -0.210581 -25.014999
v 0.133813 -0.210419 -25.000000
v 0.135226 -0.157175 -25.000000
v 0.135226 -0.157175 -25.000000
v 0.133813 -0.210419 -25.000000
v 0.135226 -0.157175 25.000000
v 0.133813 -0.210419 -25.000000
v 0.133813 -0.210419 25.000000
v 0.135226 -0.157175 25.000000
v 0.135226 -0.157175 25.000000
v 0.133813 -0.210419 25.000000
v 0.137905 -0.157211 25.014999
v 0.133813 -0.210419 25.000000
v 0.136490 -0.210581 25.014999
v 0.137905 -0.157211 25.014999
v 0.137905 -0.157211 25.014999
v 0.136490 -0.210581 25.014999
v 0.145226 -0.157308 25.025982
v 0.136490 -0.210581 25.014999
v 0.143801 -0.211023 25.025982
v 0.145226 -0.157308 25.025982
v 0.145226 -0.157308 25.025982
v 0.143801 -0.211023 25.025982
v 0.155226 -0.157440 25.029999
v 0.143801 -0.211023 25.025982
v 0.153788 -0.211628 25.029999
v 0.155226 -0.157440 25.029999
v 0.153788 -0.211628 -25.029999
v 0.149476 -0.257190 -25.029999
v 0.143801 -0.211023 -25.025980
v 0.149476 -0.257190 -25.029999
v 0.139567 -0.255761 -25.025980
v 0.143801 -0.211023 -25.025980
v 0.143801 -0.211023 -25.025980
v 0.139567 -0.255761 -25.025980
v 0.136490 -0.210581 -25.014999
v 0.139567 -0.255761 -25.025980
v 0.132312 -0.254714 -25.014999
v 0.136490 -0.210581 -25.014999
v 0.136490 -0.210581 -25.014999
v 0.132312 -0.254714 -25.014999
v 0.133813 -0.210419 -25.000000
v 0.132312 -0.254714 -25.014999
v 0.129657 -0.254331 -25.000000
v 0.133813 -0.210419 -25.000000
v 0.133813 -0.210419 -25.000000
v 0.129657 -0.254331 -25.000000
v 0.133813 -0.210419 25.000000
v 0.129657 -0.254331 -25.000000
v 0.129657 -0.254331 25.000000
v 0.133813 -0.210419 25.000000
v 0.133813 -0.210419 25.000000
v 0.129657 -0.254331 25.000000
v 0.136490 -0.210581 25.014999
v 0.129657 -0.254331 25.000000
v 0.132312 -0.254714 25.014999
v 0.136490 -0.210581 25.014999
v 0.136490 -0.210581 25.014999
v 0.132312 -0.254714 25.014999
v 0.143801 -0.211023 25.025982
v 0.132312 -0.254714 25.014999
v 0.139567 -0.255761 25.025982
v 0.143801 -0.211023 25.025982
v 0.143801 -0.211023 25.025982
v 0.139567 -0.255761 25.025982
v 0.153788 -0.211628 25.029999
v 0.139567 -0.255761 25.025982
v 0.149476 -0.257190 25.029999
v 0.153788 -0.211628 25.029999
v 0.149476 -0.257190 -25.029999
v 0.142288 -0.294128 -25.029999
v 0.139567 -0.255761 -25.025980
v 0.142288 -0.294128 -25.029999
v 0.132615 -0.291484 -25.025980
v 0.139567 -0.255761 -25.025980
v 0.139567 -0.255761 -25.025980
v 0.132615 -0.291484 -25.025980
v 0.132312 -0.254714 -25.014999
v 0.132615 -0.291484 -25.025980
v 0.125534 -0.289548 -25.014999
v 0.132312 -0.254714 -25.014999
v 0.132312 -0.254714 -25.014999
v 0.125534 -0.289548 -25.014999
v 0.129657 -0.254331 -25.000000
v 0.125534 -0.289548 -25.014999
v 0.122942 -0.288839 -25.000000
v 0.129657 -0.254331 -25.000000
v 0.129657 -0.254331 -25.000000
v 0.122942 -0.288839 -25.000000
v 0.129657 -0.254331 25.000000
v 0.122942 -0.288839 -25.000000
v 0.122942 -0.288839 25.000000
v 0.129657 -0.254331 25.000000
v 0.129657 -0.254331 25.000000
v 0.122942 -0.288839 25.000000
v 0.132312 -0.254714 25.014999
v 0.122942 -0.288839 25.000000
v 0.125534 -0.289548 25.014999
v 0.132312 -0.254714 25.014999
v 0.132312 -0.254714 25.014999
v 0.125534 -0.289548 25.014999
v 0.139567 -0.255761 25.025982
v 0.125534 -0.289548 25.014999
v 0.132615 -0.291484 25.025982
v 0.139567 -0.255761 25.025982
v 0.139567 -0.255761 25.025982
v 0.132615 -0.291484 25.025982
v 0.149476 -0.257190 25.029999
v 0.132615 -0.291484 25.025982
v 0.142288 -0.294128 25.029999
v 0.149476 -0.257190 25.029999
v 0.142288 -0.294128 -25.029999
v 0.132226 -0.322440 -25.029999
v 0.132615 -0.291484 -25.025980
v 0.132226 -0.322440 -25.029999
v 0.123214 -0.317937 -25.025980
v 0.132615 -0.291484 -25.025980
v 0.132615 -0.291484 -25.025980
v 0.123214 -0.317937 -25.025980
v 0.125534 -0.289548 -25.014999
v 0.123214 -0.317937 -25.025980
v 0.116616 -0.314640 -25.014999
v 0.125534 -0.289548 -25.014999
v 0.125534 -0.289548 -25.014999
v 0.116616 -0.314640 -25.014999
v 0.122942 -0.288839 -25.000000
v 0.116616 -0.314640 -25.014999
v 0.114202 -0.313433 -25.000000
v 0.122942 -0.288839 -25.000000
v 0.122942 -0.288839 -25.000000
v 0.114202 -0.313433 -25.000000
v 0.122942 -0.288839 25.000000
v 0.114202 -0.313433 -25.000000
v 0.114202 -0.313433 25.000000
v 0.122942 -0.288839 25.000000
v 0.122942 -0.288839 25.000000
v 0.114202 -0.313433 25.000000
v 0.125534 -0.289548 25.014999
v 0.114202 -0.313433 25.000000
v 0.116616 -0.314640 25.014999
v 0.125534 -0.289548 25.014999
v 0.125534 -0.289548 25.014999
v 0.116616 -0.314640 25.014999
v 0.132615 -0.291484 25.025982
v 0.116616 -0.314640 25.014999
v 0.123214 -0.317937 25.025982
v 0.132615 -0.291484 25.025982
v 0.132615 -0.291484 25.025982
v 0.123214 -0.317937 25.025982
v 0.142288 -0.294128 25.029999
v 0.123214 -0.317937 25.025982
v 0.132226 -0.322440 25.029999
v 0.142288 -0.294128 25.029999
v 0.132226 -0.322440 -25.029999
v 0.110476 -0.355253 -25.029999
v 0.123214 -0.317937 -25.025980
v 0.110476 -0.355253 -25.029999
v 0.103050 -0.348356 -25.025980
v 0.123214 -0.317937 -25.025980
v 0.123214 -0.317937 -25.025980
v 0.103050 -0.348356 -25.025980
v 0.116616 -0.314640 -25.014999
v 0.103050 -0.348356 -25.025980
v 0.097614 -0.343307 -25.014999
v 0.116616 -0.314640 -25.014999
v 0.116616 -0.314640 -25.014999
v 0.097614 -0.343307 -25.014999
v 0.114202 -0.313433 -25.000000
v 0.097614 -0.343307 -25.014999
v 0.095624 -0.341459 -25.000000
v 0.114202 -0.313433 -25.000000
v 0.114202 -0.313433 -25.000000
v 0.095624 -0.341459 -25.000000
v 0.114202 -0.313433 25.000000
v 0.095624 -0.341459 -25.000000
v 0.095624 -0.341459 25.000000
v 0.114202 -0.313433 25.000000
v 0.114202 -0.313433 25.000000
v 0.095624 -0.341459 25.000000
v 0.116616 -0.314640 25.014999
v 0.095624 -0.341459 25.000000
v 0.097614 -0.343307 25.014999
v 0.116616 -0.314640 25.014999
v 0.116616 -0.314640 25.014999
v 0.097614 -0.343307 25.014999
v 0.123214 -0.317937 25.025982
v 0.097614 -0.343307 25.014999
v 0.103050 -0.348356 25.025982
v 0.123214 -0.317937 25.025982
v 0.123214 -0.317937 25.025982
v 0.103050 -0.348356 25.025982
v 0.132226 -0.322440 25.029999
v 0.103050 -0.348356 25.025982
v 0.110476 -0.355253 25.029999
v 0.132226 -0.322440 25.029999
v 0.110476 -0.355253 -25.029999
v 0.080226 -0.378690 -25.029999
v 0.103050 -0.348356 -25.025980
v 0.080226 -0.378690 -25.029999
v 0.075341 -0.369825 -25.025980
v 0.103050 -0.348356 -25.025980
v 0.103050 -0.348356 -25.025980
v 0.075341 -0.369825 -25.025980
v 0.097614 -0.343307 -25.014999
v 0.075341 -0.369825 -25.025980
v 0.071764 -0.363335 -25.014999
v 0.097614 -0.343307 -25.014999
v 0.097614 -0.343307 -25.014999
v 0.071764 -0.363335 -25.014999
v 0.095624 -0.341459 -25.000000
v 0.071764 -0.363335 -25.014999
v 0.070455 -0.360960 -25.000000
v 0.095624 -0.341459 -25.000000
v 0.095624 -0.341459 -25.000000
v 0.070455 -0.360960 -25.000000
v 0.095624 -0.341459 25.000000
v 0.070455 -0.360960 -25.000000
v 0.070455 -0.360960 25.000000
v 0.095624 -0.341459 25.000000
v 0.095624 -0.341459 25.000000
v 0.070455 -0.360960 25.000000
v 0.097614 -0.343307 25.014999
v 0.070455 -0.360960 25.000000
v 0.071764 -0.363335 25.014999
v 0.097614 -0.343307 25.014999
v 0.097614 -0.343307 25.014999
v 0.071764 -0.363335 25.014999
v 0.103050 -0.348356 25.025982
v 0.071764 -0.363335 25.014999
v 0.075341 -0.369825 25.025982
v 0.103050 -0.348356 25.025982
v 0.103050 -0.348356 25.025982
v 0.075341 -0.369825 25.025982
v 0.110476 -0.355253 25.029999
v 0.075341 -0.369825 25.025982
v 0.080226 -0.378690 25.029999
v 0.110476 -0.355253 25.029999
v 0.080226 -0.378690 -25.029999
v 0.041476 -0.392753 -25.029999
v 0.075341 -0.369825 -25.025980
v 0.041476 -0.392753 -25.029999
v 0.039242 -0.382925 -25.025980
v 0.075341 -0.369825 -25.025980
v 0.075341 -0.369825 -25.025980
v 0.039242 -0.382925 -25.025980
v 0.071764 -0.363335 -25.014999
v 0.039242 -0.382925 -25.025980
v 0.037607 -0.375731 -25.014999
v 0.071764 -0.363335 -25.014999
v 0.071764 -0.363335 -25.014999
v 0.037607 -0.375731 -25.014999
v 0.070455 -0.360960 -25.000000
v 0.037607 -0.375731 -25.014999
v 0.037008 -0.373098 -25.000000
v 0.070455 -0.360960 -25.000000
v 0.070455 -0.360960 -25.000000
v 0.037008 -0.373098 -25.000000
v 0.070455 -0.360960 25.000000
v 0.037008 -0.373098 -25.000000
v 0.037008 -0.373098 25.000000
v 0.070455 -0.360960 25.000000
v 0.070455 -0.360960 25.000000
v 0.037008 -0.373098 25.000000
v 0.071764 -0.363335 25.014999
v 0.037008 -0.373098 25.000000
v 0.037607 -0.375731 25.014999
v 0.071764 -0.363335 25.014999
v 0.071764 -0.363335 25.014999
v 0.037607 -0.375731 25.014999
v 0.075341 -0.369825 25.025982
v 0.037607 -0.375731 25.014999
v 0.039242 -0.382925 25.025982
v 0.075341 -0.369825 25.025982
v 0.075341 -0.369825 25.025982
v 0.039242 -0.382925 25.025982
v 0.080226 -0.378690 25.029999
v 0.039242 -0.382925 25.025982
v 0.041476 -0.392753 25.029999
v 0.080226 -0.378690 25.029999
v 0.041476 -0.392753 -25.029999
v -0.005774 -0.397440 -25.029999
v 0.039242 -0.382925 -25.025980
v -0.005774 -0.397440 -25.029999
v -0.005702 -0.387384 -25.025980
v 0.039242 -0.382925 -25.025980
v 0.039242 -0.382925 -25.025980
v -0.005702 -0.387384 -25.025980
v 0.037607 -0.375731 -25.014999
v -0.005702 -0.387384 -25.025980
v -0.005649 -0.380022 -25.014999
v 0.037607 -0.375731 -25.014999
v 0.037607 -0.375731 -25.014999
v -0.005649 -0.380022 -25.014999
v 0.037008 -0.373098 -25.000000
v -0.005649 -0.380022 -25.014999
v -0.005629 -0.377328 -25.000000
v 0.037008 -0.373098 -25.000000
v 0.037008 -0.373098 -25.000000
v -0.005629 -0.377328 -25.000000
v 0.037008 -0.373098 25.000000
v -0.005629 -0.377328 -25.000000
v -0.005629 -0.377328 25.000000
v 0.037008 -0.373098 25.000000
v 0.037008 -0.373098 25.000000
v -0.005629 -0.377328 25.000000
v 0.037607 -0.375731 25.014999
v -0.005629 -0.377328 25.000000
v -0.005649 -0.380022 25.014999
v 0.037607 -0.375731 25.014999
v 0.037607 -0.375731 25.014999
v -0.005649 -0.380022 25.014999
v 0.039242 -0.382925 25.025982
v -0.005649 -0.380022 25.014999
v -0.005702 -0.387384 25.025982
v 0.039242 -0.382925 25.025982
v 0.039242 -0.382925 25.025982
v -0.005702 -0.387384 25.025982
v 0.041476 -0.392753 25.029999
v -0.005702 -0.387384 25.025982
v -0.005774 -0.397440 25.029999
v 0.041476 -0.392753 25.029999
v -0.005774 -0.397440 -25.029999
v -0.047524 -0.392690 -25.029999
v -0.005702 -0.387384 -25.025980
v -0.047524 -0.392690 -25.029999
v -0.045040 -0.382908 -25.025980
v -0.005702 -0.387384 -25.025980
v -0.005702 -0.387384 -25.025980
v -0.045040 -0.382908 -25.025980
v -0.005649 -0.380022 -25.014999
v -0.045040 -0.382908 -25.025980
v -0.043221 -0.375748 -25.014999
v -0.005649 -0.380022 -25.014999
v -0.005649 -0.380022 -25.014999
v -0.043221 -0.375748 -25.014999
v -0.005629 -0.377328 -25.000000
v -0.043221 -0.375748 -25.014999
v -0.042555 -0.373127 -25.000000
v -0.005629 -0.377328 -25.000000
v -0.005629 -0.377328 -25.000000
v -0.042555 -0.373127 -25.000000
v -0.005629 -0.377328 25.000000
v -0.042555 -0.373127 -25.000000
v -0.042555 -0.373127 25.000000
v -0.005629 -0.377328 25.000000
v -0.005629 -0.377328 25.000000
v -0.042555 -0.373127 25.000000
v -0.005649 -0.380022 25.014999
v -0.042555 -0.373127 25.000000
v -0.043221 -0.375748 25.014999
v -0.005649 -0.380022 25.014999
v -0.005649 -0.380022 25.014999
v -0.043221 -0.375748 25.014999
v -0.005702 -0.387384 25.025982
v -0.043221 -0.375748 25.014999
v -0.045040 -0.382908 25.025982
v -0.005702 -0.387384 25.025982
v -0.005702 -0.387384 25.025982
v -0.045040 -0.382908 25.025982
v -0.005774 -0.397440 25.029999
v -0.045040 -0.382908 25.025982
v -0.047524 -0.392690 25.029999
v -0.005774 -0.397440 25.029999
v -0.047524 -0.392690 -25.029999
v -0.082774 -0.378440 -25.029999
v -0.045040 -0.382908 -25.025980
v -0.082774 -0.378440 -25.029999
v -0.077595 -0.369748 -25.025980
v -0.045040 -0.382908 -25.025980
v -0.045040 -0.382908 -25.025980
v -0.077595 -0.369748 -25.025980
v -0.043221 -0.375748 -25.014999
v -0.077595 -0.369748 -25.025980
v -0.073804 -0.363384 -25.014999
v -0.043221 -0.375748 -25.014999
v -0.043221 -0.375748 -25.014999
v -0.073804 -0.363384 -25.014999
v -0.042555 -0.373127 -25.000000
v -0.073804 -0.363384 -25.014999
v -0.072416 -0.361055 -25.000000
v -0.042555 -0.373127 -25.000000
v -0.042555 -0.373127 -25.000000
v -0.072416 -0.361055 -25.000000
v -0.042555 -0.373127 25.000000
v -0.072416 -0.361055 -25.000000
v -0.072416 -0.361055 25.000000
v -0.042555 -0.373127 25.000000
v -0.042555 -0.373127 25.000000
v -0.072416 -0.361055 25.000000
v -0.043221 -0.375748 25.014999
v -0.072416 -0.361055 25.000000
v -0.073804 -0.363384 25.014999
v -0.043221 -0.375748 25.014999
v -0.043221 -0.375748 25.014999
v -0.073804 -0.363384 25.014999
v -0.045040 -0.382908 25.025982
v -0.073804 -0.363384 25.014999
v -0.077595 -0.369748 25.025982
v -0.045040 -0.382908 25.025982
v -0.045040 -0.382908 25.025982
v -0.077595 -0.369748 25.025982
v -0.047524 -0.392690 25.029999
v -0.077595 -0.369748 25.025982
v -0.082774 -0.378440 25.029999
v -0.047524 -0.392690 25.029999
v -0.082774 -0.378440 -25.029999
v -0.111524 -0.354690 -25.029999
v -0.077595 -0.369748 -25.025980
v -0.111524 -0.354690 -25.029999
v -0.104027 -0.347913 -25.025980
v -0.077595 -0.369748 -25.025980
v -0.077595 -0.369748 -25.025980
v -0.104027 -0.347913 -25.025980
v -0.073804 -0.363384 -25.014999
v -0.104027 -0.347913 -25.025980
v -0.098539 -0.342951 -25.014999
v -0.073804 -0.363384 -25.014999
v -0.073804 -0.363384 -25.014999
v -0.098539 -0.342951 -25.014999
v -0.072416 -0.361055 -25.000000
v -0.098539 -0.342951 -25.014999
v -0.096530 -0.341135 -25.000000
v -0.072416 -0.361055 -25.000000
v -0.072416 -0.361055 -25.000000
v -0.096530 -0.341135 -25.000000
v -0.072416 -0.361055 25.000000
v -0.096530 -0.341135 -25.000000
v -0.096530 -0.341135 25.000000
v -0.072416 -0.361055 25.000000
v -0.072416 -0.361055 25.000000
v -0.096530 -0.341135 25.000000
v -0.073804 -0.363384 25.014999
v -0.096530 -0.341135 25.000000
v -0.098539 -0.342951 25.014999
v -0.073804 -0.363384 25.014999
v -0.073804 -0.363384 25.014999
v -0.098539 -0.342951 25.014999
v -0.077595 -0.369748 25.025982
v -0.098539 -0.342951 25.014999
v -0.104027 -0.347913 25.025982
v -0.077595 -0.369748 25.025982
v -0.077595 -0.369748 25.025982
v -0.104027 -0.347913 25.025982
v -0.082774 -0.378440 25.029999
v -0.104027 -0.347913 25.025982
v -0.111524 -0.354690 25.029999
v -0.082774 -0.378440 25.029999
v -0.111524 -0.354690 -25.029999
v -0.133774 -0.321440 -25.029999
v -0.104027 -0.347913 -25.025980
v -0.133774 -0.321440 -25.029999
v -0.124854 -0.316789 -25.025980
v -0.104027 -0.347913 -25.025980
v -0.104027 -0.347913 -25.025980
v -0.124854 -0.316789 -25.025980
v -0.098539 -0.342951 -25.014999
v -0.124854 -0.316789 -25.025980
v -0.118324 -0.313384 -25.014999
v -0.098539 -0.342951 -25.014999
v -0.098539 -0.342951 -25.014999
v -0.118324 -0.313384 -25.014999
v -0.096530 -0.341135 -25.000000
v -0.118324 -0.313384 -25.014999
v -0.115934 -0.312138 -25.000000
v -0.096530 -0.341135 -25.000000
v -0.096530 -0.341135 -25.000000
v -0.115934 -0.312138 -25.000000
v -0.096530 -0.341135 25.000000
v -0.115934 -0.312138 -25.000000
v -0.115934 -0.312138 25.000000
v -0.096530 -0.341135 25.000000
v -0.096530 -0.341135 25.000000
v -0.115934 -0.312138 25.000000
v -0.098539 -0.342951 25.014999
v -0.115934 -0.312138 25.000000
v -0.118324 -0.313384 25.014999
v -0.098539 -0.342951 25.014999
v -0.098539 -0.342951 25.014999
v -0.118324 -0.313384 25.014999
v -0.104027 -0.347913 25.025982
v -0.118324 -0.313384 25.014999
v -0.124854 -0.316789 25.025982
v -0.104027 -0.347913 25.025982
v -0.104027 -0.347913 25.025982
v -0.124854 -0.316789 25.025982
v -0.111524 -0.354690 25.029999
v -0.124854 -0.316789 25.025982
v -0.133774 -0.321440 25.029999
v -0.111524 -0.354690 25.029999
v -0.133774 -0.321440 -25.029999
v -0.145587 -0.291128 -25.029999
v -0.124854 -0.316789 -25.025980
v -0.145587 -0.291128 -25.029999
v -0.136013 -0.288155 -25.025980
v -0.124854 -0.316789 -25.025980
v -0.124854 -0.316789 -25.025980
v -0.136013 -0.288155 -25.025980
v -0.118324 -0.313384 -25.014999
v -0.136013 -0.288155 -25.025980
v -0.129004 -0.285978 -25.014999
v -0.118324 -0.313384 -25.014999
v -0.118324 -0.313384 -25.014999
v -0.129004 -0.285978 -25.014999
v -0.115934 -0.312138 -25.000000
v -0.129004 -0.285978 -25.014999
v -0.126439 -0.285182 -25.000000
v -0.115934 -0.312138 -25.000000
v -0.115934 -0.312138 -25.000000
v -0.126439 -0.285182 -25.000000
v -0.115934 -0.312138 25.000000
v -0.126439 -0.285182 -25.000000
v -0.126439 -0.285182 25.000000
v -0.115934 -0.312138 25.000000
v -0.115934 -0.312138 25.000000
v -0.126439 -0.285182 25.000000
v -0.118324 -0.313384 25.014999
v -0.126439 -0.285182 25.000000
v -0.129004 -0.285978 25.014999
v -0.118324 -0.313384 25.014999
v -0.118324 -0.313384 25.014999
v -0.129004 -0.285978 25.014999
v -0.124854 -0.316789 25.025982
v -0.129004 -0.285978 25.014999
v -0.136013 -0.288155 25.025982
v -0.124854 -0.316789 25.025982
v -0.124854 -0.316789 25.025982
v -0.136013 -0.288155 25.025982
v -0.133774 -0.321440 25.029999
v -0.136013 -0.288155 25.025982
v -0.145587 -0.291128 25.029999
v -0.133774 -0.321440 25.029999
v -0.145587 -0.291128 -25.029999
v -0.154024 -0.255190 -25.029999
v -0.136013 -0.288155 -25.025980
v -0.154024 -0.255190 -25.029999
v -0.144164 -0.253438 -25.025980
v -0.136013 -0.288155 -25.025980
v -0.136013 -0.288155 -25.025980
v -0.144164 -0.253438 -25.025980
v -0.129004 -0.285978 -25.014999
v -0.144164 -0.253438 -25.025980
v -0.136945 -0.252155 -25.014999
v -0.129004 -0.285978 -25.014999
v -0.129004 -0.285978 -25.014999
v -0.136945 -0.252155 -25.014999
v -0.126439 -0.285182 -25.000000
v -0.136945 -0.252155 -25.014999
v -0.134303 -0.251685 -25.000000
v -0.126439 -0.285182 -25.000000
v -0.126439 -0.285182 -25.000000
v -0.134303 -0.251685 -25.000000
v -0.126439 -0.285182 25.000000
v -0.134303 -0.251685 -25.000000
v -0.134303 -0.251685 25.000000
v -0.126439 -0.285182 25.000000
v -0.126439 -0.285182 25.000000
v -0.134303 -0.251685 25.000000
v -0.129004 -0.285978 25.014999
v -0.134303 -0.251685 25.000000
v -0.136945 -0.252155 25.014999
v -0.129004 -0.285978 25.014999
v -0.129004 -0.285978 25.014999
v -0.136945 -0.252155 25.014999
v -0.136013 -0.288155 25.025982
v -0.136945 -0.252155 25.014999
v -0.144164 -0.253438 25.025982
v -0.136013 -0.288155 25.025982
v -0.136013 -0.288155 25.025982
v -0.144164 -0.253438 25.025982
v -0.145587 -0.291128 25.029999
v -0.144164 -0.253438 25.025982
v -0.154024 -0.255190 25.029999
v -0.145587 -0.291128 25.029999
v -0.154024 -0.255190 -25.029999
v -0.159087 -0.213628 -25.029999
v -0.144164 -0.253438 -25.025980
v -0.159087 -0.213628 -25.029999
v -0.149108 -0.212843 -25.025980
v -0.144164 -0.253438 -25.025980
v -0.144164 -0.253438 -25.025980
v -0.149108 -0.212843 -25.025980
v -0.136945 -0.252155 -25.014999
v -0.149108 -0.212843 -25.025980
v -0.141804 -0.212269 -25.014999
v -0.136945 -0.252155 -25.014999
v -0.136945 -0.252155 -25.014999
v -0.141804 -0.212269 -25.014999
v -0.134303 -0.251685 -25.000000
v -0.141804 -0.212269 -25.014999
v -0.139130 -0.212058 -25.000000
v -0.134303 -0.251685 -25.000000
v -0.134303 -0.251685 -25.000000
v -0.139130 -0.212058 -25.000000
v -0.134303 -0.251685 25.000000
v -0.139130 -0.212058 -25.000000
v -0.139130 -0.212058 25.000000
v -0.134303 -0.251685 25.000000
v -0.134303 -0.251685 25.000000
v -0.139130 -0.212058 25.000000
v -0.136945 -0.252155 25.014999
v -0.139130 -0.212058 25.000000
v -0.141804 -0.212269 25.014999
v -0.136945 -0.252155 25.014999
v -0.136945 -0.252155 25.014999
v -0.141804 -0.212269 25.014999
v -0.144164 -0.253438 25.025982
v -0.141804 -0.212269 25.014999
v -0.149108 -0.212843 25.025982
v -0.144164 -0.253438 25.025982
v -0.144164 -0.253438 25.025982
v -0.149108 -0.212843 25.025982
v -0.154024 -0.255190 25.029999
v -0.149108 -0.212843 25.025982
v -0.159087 -0.213628 25.029999
v -0.154024 -0.255190 25.029999
v -0.159087 -0.213628 -25.029999
v -0.160774 -0.166440 -25.029999
v -0.149108 -0.212843 -25.025980
v -0.160774 -0.166440 -25.029999
v -0.151125 -0.156440 -25.025980
v -0.149108 -0.212843 -25.025980
v -0.149108 -0.212843 -25.025980
v -0.151125 -0.156440 -25.025980
v -0.141804 -0.212269 -25.014999
v -0.151125 -0.156440 -25.025980
v -0.144062 -0.149120 -25.014999
v -0.141804 -0.212269 -25.014999
v -0.141804 -0.212269 -25.014999
v -0.144062 -0.149120 -25.014999
v -0.139130 -0.212058 -25.000000
v -0.144062 -0.149120 -25.014999
v -0.141477 -0.146440 -25.000000
v -0.139130 -0.212058 -25.000000
v -0.139130 -0.212058 -25.000000
v -0.141477 -0.146440 -25.000000
v -0.139130 -0.212058 25.000000
v -0.141477 -0.146440 -25.000000
v -0.141477 -0.146440 25.000000
v -0.139130 -0.212058 25.000000
v -0.139130 -0.212058 25.000000
v -0.141477 -0.146440 25.000000
v -0.141804 -0.212269 25.014999
v -0.141477 -0.146440 25.000000
v -0.144062 -0.149120 25.014999
v -0.141804 -0.212269 25.014999
v -0.141804 -0.212269 25.014999
v -0.144062 -0.149120 25.014999
v -0.149108 -0.212843 25.025982
v -0.144062 -0.149120 25.014999
v -0.151125 -0.156440 25.025982
v -0.149108 -0.212843 25.025982
v -0.149108 -0.212843 25.025982
v -0.151125 -0.156440 25.025982
v -0.159087 -0.213628 25.029999
v -0.151125 -0.156440 25.025982
v -0.160774 -0.166440 25.029999
v -0.159087 -0.213628 25.029999
v -0.160774 -0.166440 -25.029999
v -0.293774 -0.166440 -25.029999
v -0.151125 -0.156440 -25.025980
v -0.293774 -0.166440 -25.029999
v -0.304000 -0.156671 -25.025980
v -0.151125 -0.156440 -25.025980
v -0.151125 -0.156440 -25.025980
v -0.304000 -0.156671 -25.025980
v -0.144062 -0.149120 -25.014999
v -0.304000 -0.156671 -25.025980
v -0.311486 -0.149520 -25.014999
v -0.144062 -0.149120 -25.014999
v -0.144062 -0.149120 -25.014999
v -0.311486 -0.149520 -25.014999
v -0.141477 -0.146440 -25.000000
v -0.311486 -0.149520 -25.014999
v -0.314226 -0.146903 -25.000000
v -0.141477 -0.146440 -25.000000
v -0.141477 -0.146440 -25.000000
v -0.314226 -0.146903 -25.000000
v -0.141477 -0.146440 25.000000
v -0.314226 -0.146903 -25.000000
v -0.314226 -0.146903 25.000000
v -0.141477 -0.146440 25.000000
v -0.141477 -0.146440 25.000000
v -0.314226 -0.146903 25.000000
v -0.144062 -0.149120 25.014999
v -0.314226 -0.146903 25.000000
v -0.311486 -0.149520 25.014999
v -0.144062 -0.149120 25.014999
v -0.144062 -0.149120 25.014999
v -0.311486 -0.149520 25.014999
v -0.151125 -0.156440 25.025982
v -0.311486 -0.149520 25.014999
v -0.304000 -0.156671 25.025982
v -0.151125 -0.156440 25.025982
v -0.151125 -0.156440 25.025982
v -0.304000 -0.156671 25.025982
v -0.160774 -0.166440 25.029999
v -0.304000 -0.156671 25.025982
v -0.293774 -0.166440 25.029999
v -0.160774 -0.166440 25.029999
v -0.293774 -0.166440 -25.029999
v -0.290149 -0.245690 -25.029999
v -0.304000 -0.156671 -25.025980
v -0.290149 -0.245690 -25.029999
v -0.300113 -0.246703 -25.025980
v -0.304000 -0.156671 -25.025980
v -0.304000 -0.156671 -25.025980
v -0.300113 -0.246703 -25.025980
v -0.311486 -0.149520 -25.014999
v -0.300113 -0.246703 -25.025980
v -0.307407 -0.247444 -25.014999
v -0.311486 -0.149520 -25.014999
v -0.311486 -0.149520 -25.014999
v -0.307407 -0.247444 -25.014999
v -0.314226 -0.146903 -25.000000
v -0.307407 -0.247444 -25.014999
v -0.310077 -0.247716 -25.000000
v -0.314226 -0.146903 -25.000000
v -0.314226 -0.146903 -25.000000
v -0.310077 -0.247716 -25.000000
v -0.314226 -0.146903 25.000000
v -0.310077 -0.247716 -25.000000
v -0.310077 -0.247716 25.000000
v -0.314226 -0.146903 25.000000
v -0.314226 -0.146903 25.000000
v -0.310077 -0.247716 25.000000
v -0.311486 -0.149520 25.014999
v -0.310077 -0.247716 25.000000
v -0.307407 -0.247444 25.014999
v -0.311486 -0.149520 25.014999
v -0.311486 -0.149520 25.014999
v -0.307407 -0.247444 25.014999
v -0.304000 -0.156671 25.025982
v -0.307407 -0.247444 25.014999
v -0.300113 -0.246703 25.025982
v -0.304000 -0.156671 25.025982
v -0.304000 -0.156671 25.025982
v -0.300113 -0.246703 25.025982
v -0.293774 -0.166440 25.029999
v -0.300113 -0.246703 25.025982
v -0.290149 -0.245690 25.029999
v -0.293774 -0.166440 25.029999
v -0.290149 -0.245690 -25.029999
v -0.279274 -0.314440 -25.029999
v -0.300113 -0.246703 -25.025980
v -0.279274 -0.314440 -25.029999
v -0.289038 -0.316719 -25.025980
v -0.300113 -0.246703 -25.025980
v -0.300113 -0.246703 -25.025980
v -0.289038 -0.316719 -25.025980
v -0.307407 -0.247444 -25.014999
v -0.289038 -0.316719 -25.025980
v -0.296186 -0.318387 -25.014999
v -0.307407 -0.247444 -25.014999
v -0.307407 -0.247444 -25.014999
v -0.296186 -0.318387 -25.014999
v -0.310077 -0.247716 -25.000000
v -0.296186 -0.318387 -25.014999
v -0.298802 -0.318998 -25.000000
v -0.310077 -0.247716 -25.000000
v -0.310077 -0.247716 -25.000000
v -0.298802 -0.318998 -25.000000
v -0.310077 -0.247716 25.000000
v -0.298802 -0.318998 -25.000000
v -0.298802 -0.318998 25.000000
v -0.310077 -0.247716 25.000000
v -0.310077 -0.247716 25.000000
v -0.298802 -0.318998 25.000000
v -0.307407 -0.247444 25.014999
v -0.298802 -0.318998 25.000000
v -0.296186 -0.318387 25.014999
v -0.307407 -0.247444 25.014999
v -0.307407 -0.247444 25.014999
v -0.296186 -0.318387 25.014999
v -0.300113 -0.246703 25.025982
v -0.296186 -0.318387 25.014999
v -0.289038 -0.316719 25.025982
v -0.300113 -0.246703 25.025982
v -0.300113 -0.246703 25.025982
v -0.289038 -0.316719 25.025982
v -0.290149 -0.245690 25.029999
v -0.289038 -0.316719 25.025982
v -0.279274 -0.314440 25.029999
v -0.290149 -0.245690 25.029999
v -0.279274 -0.314440 -25.029999
v -0.261149 -0.372690 -25.029999
v -0.289038 -0.316719 -25.025980
v -0.261149 -0.372690 -25.029999
v -0.270419 -0.376556 -25.025980
v -0.289038 -0.316719 -25.025980
v -0.289038 -0.316719 -25.025980
v -0.270419 -0.376556 -25.025980
v -0.296186 -0.318387 -25.014999
v -0.270419 -0.376556 -25.025980
v -0.277205 -0.379386 -25.014999
v -0.296186 -0.318387 -25.014999
v -0.296186 -0.318387 -25.014999
v -0.277205 -0.379386 -25.014999
v -0.298802 -0.318998 -25.000000
v -0.277205 -0.379386 -25.014999
v -0.279689 -0.380421 -25.000000
v -0.298802 -0.318998 -25.000000
v -0.298802 -0.318998 -25.000000
v -0.279689 -0.380421 -25.000000
v -0.298802 -0.318998 25.000000
v -0.279689 -0.380421 -25.000000
v -0.279689 -0.380421 25.000000
v -0.298802 -0.318998 25.000000
v -0.298802 -0.318998 25.000000
v -0.279689 -0.380421 25.000000
v -0.296186 -0.318387 25.014999
v -0.279689 -0.380421 25.000000
v -0.277205 -0.379386 25.014999
v -0.296186 -0.318387 25.014999
v -0.296186 -0.318387 25.014999
v -0.277205 -0.379386 25.014999
v -0.289038 -0.316719 25.025982
v -0.277205 -0.379386 25.014999
v -0.270419 -0.376556 25.025982
v -0.289038 -0.316719 25.025982
v -0.289038 -0.316719 25.025982
v -0.270419 -0.376556 25.025982
v -0.279274 -0.314440 25.029999
v -0.270419 -0.376556 25.025982
v -0.261149 -0.372690 25.029999
v -0.279274 -0.314440 25.029999
v -0.261149 -0.372690 -25.029999
v -0.235774 -0.420440 -25.029999
v -0.270419 -0.376556 -25.025980
v -0.235774 -0.420440 -25.029999
v -0.244003 -0.426264 -25.025980
v -0.270419 -0.376556 -25.025980
v -0.270419 -0.376556 -25.025980
v -0.244003 -0.426264 -25.025980
v -0.277205 -0.379386 -25.014999
v -0.244003 -0.426264 -25.025980
v -0.250028 -0.430528 -25.014999
v -0.277205 -0.379386 -25.014999
v -0.277205 -0.379386 -25.014999
v -0.250028 -0.430528 -25.014999
v -0.279689 -0.380421 -25.000000
v -0.250028 -0.430528 -25.014999
v -0.252233 -0.432088 -25.000000
v -0.279689 -0.380421 -25.000000
v -0.279689 -0.380421 -25.000000
v -0.252233 -0.432088 -25.000000
v -0.279689 -0.380421 25.000000
v -0.252233 -0.432088 -25.000000
v -0.252233 -0.432088 25.000000
v -0.279689 -0.380421 25.000000
v -0.279689 -0.380421 25.000000
v -0.252233 -0.432088 25.000000
v -0.277205 -0.379386 25.014999
v -0.252233 -0.432088 25.000000
v -0.250028 -0.430528 25.014999
v -0.277205 -0.379386 25.014999
v -0.277205 -0.379386 25.014999
v -0.250028 -0.430528 25.014999
v -0.270419 -0.376556 25.025982
v -0.250028 -0.430528 25.014999
v -0.244003 -0.426264 25.025982
v -0.270419 -0.376556 25.025982
v -0.270419 -0.376556 25.025982
v -0.244003 -0.426264 25.025982
v -0.261149 -0.372690 25.029999
v -0.244003 -0.426264 25.025982
v -0.235774 -0.420440 25.029999
v -0.261149 -0.372690 25.029999
v -0.235774 -0.420440 -25.029999
v -0.195962 -0.463753 -25.029999
v -0.244003 -0.426264 -25.025980
v -0.195962 -0.463753 -25.029999
v -0.202350 -0.471580 -25.025980
v -0.244003 -0.426264 -25.025980
v -0.244003 -0.426264 -25.025980
v -0.202350 -0.471580 -25.025980
v -0.250028 -0.430528 -25.014999
v -0.202350 -0.471580 -25.025980
v -0.207026 -0.477310 -25.014999
v -0.250028 -0.430528 -25.014999
v -0.250028 -0.430528 -25.014999
v -0.207026 -0.477310 -25.014999
v -0.252233 -0.432088 -25.000000
v -0.207026 -0.477310 -25.014999
v -0.208737 -0.479407 -25.000000
v -0.252233 -0.432088 -25.000000
v -0.252233 -0.432088 -25.000000
v -0.208737 -0.479407 -25.000000
v -0.252233 -0.432088 25.000000
v -0.208737 -0.479407 -25.000000
v -0.208737 -0.479407 25.000000
v -0.252233 -0.432088 25.000000
v -0.252233 -0.432088 25.000000
v -0.208737 -0.479407 25.000000
v -0.250028 -0.430528 25.014999
v -0.208737 -0.479407 25.000000
v -0.207026 -0.477310 25.014999
v -0.250028 -0.430528 25.014999
v -0.250028 -0.430528 25.014999
v -0.207026 -0.477310 25.014999
v -0.244003 -0.426264 25.025982
v -0.207026 -0.477310 25.014999
v -0.202350 -0.471580 25.025982
v -0.244003 -0.426264 25.025982
v -0.244003 -0.426264 25.025982
v -0.202350 -0.471580 25.025982
v -0.235774 -0.420440 25.029999
v -0.202350 -0.471580 25.025982
v -0.195962 -0.463753 25.029999
v -0.235774 -0.420440 25.029999
v -0.195962 -0.463753 -25.029999
v -0.144524 -0.494690 -25.029999
v -0.202350 -0.471580 -25.025980
v -0.144524 -0.494690 -25.029999
v -0.148579 -0.503921 -25.025980
v -0.202350 -0.471580 -25.025980
v -0.202350 -0.471580 -25.025980
v -0.148579 -0.503921 -25.025980
v -0.207026 -0.477310 -25.014999
v -0.148579 -0.503921 -25.025980
v -0.151547 -0.510678 -25.014999
v -0.207026 -0.477310 -25.014999
v -0.207026 -0.477310 -25.014999
v -0.151547 -0.510678 -25.014999
v -0.208737 -0.479407 -25.000000
v -0.151547 -0.510678 -25.014999
v -0.152633 -0.513152 -25.000000
v -0.208737 -0.479407 -25.000000
v -0.208737 -0.479407 -25.000000
v -0.152633 -0.513152 -25.000000
v -0.208737 -0.479407 25.000000
v -0.152633 -0.513152 -25.000000
v -0.152633 -0.513152 25.000000
v -0.208737 -0.479407 25.000000
v -0.208737 -0.479407 25.000000
v -0.152633 -0.513152 25.000000
v -0.207026 -0.477310 25.014999
v -0.152633 -0.513152 25.000000
v -0.151547 -0.510678 25.014999
v -0.207026 -0.477310 25.014999
v -0.207026 -0.477310 25.014999
v -0.151547 -0.510678 25.014999
v -0.202350 -0.471580 25.025982
v -0.151547 -0.510678 25.014999
v -0.148579 -0.503921 25.025982
v -0.202350 -0.471580 25.025982
v -0.202350 -0.471580 25.025982
v -0.148579 -0.503921 25.025982
v -0.195962 -0.463753 25.029999
v -0.148579 -0.503921 25.025982
v -0.144524 -0.494690 25.029999
v -0.195962 -0.463753 25.029999
v -0.144524 -0.494690 -25.029999
v -0.081462 -0.513253 -25.029999
v -0.148579 -0.503921 -25.025980
v -0.081462 -0.513253 -25.029999
v -0.083305 -0.523134 -25.025980
v -0.148579 -0.503921 -25.025980
v -0.148579 -0.503921 -25.025980
v -0.083305 -0.523134 -25.025980
v -0.151547 -0.510678 -25.014999
v -0.083305 -0.523134 -25.025980
v -0.084655 -0.530368 -25.014999
v -0.151547 -0.510678 -25.014999
v -0.151547 -0.510678 -25.014999
v -0.084655 -0.530368 -25.014999
v -0.152633 -0.513152 -25.000000
v -0.084655 -0.530368 -25.014999
v -0.085149 -0.533016 -25.000000
v -0.152633 -0.513152 -25.000000
v -0.152633 -0.513152 -25.000000
v -0.085149 -0.533016 -25.000000
v -0.152633 -0.513152 25.000000
v -0.085149 -0.533016 -25.000000
v -0.085149 -0.533016 25.000000
v -0.152633 -0.513152 25.000000
v -0.152633 -0.513152 25.000000
v -0.085149 -0.533016 25.000000
v -0.151547 -0.510678 25.014999
v -0.085149 -0.533016 25.000000
v -0.084655 -0.530368 25.014999
v -0.151547 -0.510678 25.014999
v -0.151547 -0.510678 25.014999
v -0.084655 -0.530368 25.014999
v -0.148579 -0.503921 25.025982
v -0.084655 -0.530368 25.014999
v -0.083305 -0.523134 25.025982
v -0.148579 -0.503921 25.025982
v -0.148579 -0.503921 25.025982
v -0.083305 -0.523134 25.025982
v -0.144524 -0.494690 25.029999
v -0.083305 -0.523134 25.025982
v -0.081462 -0.513253 25.029999
v -0.144524 -0.494690 25.029999
v -0.081462 -0.513253 -25.029999
v -0.006774 -0.519440 -25.029999
v -0.083305 -0.523134 -25.025980
v -0.006774 -0.519440 -25.029999
v -0.006467 -0.529500 -25.025980
v -0.083305 -0.523134 -25.025980
v -0.083305 -0.523134 -25.025980
v -0.006467 -0.529500 -25.025980
v -0.084655 -0.530368 -25.014999
v -0.006467 -0.529500 -25.025980
v -0.006242 -0.536864 -25.014999
v -0.084655 -0.530368 -25.014999
v -0.084655 -0.530368 -25.014999
v -0.006242 -0.536864 -25.014999
v -0.085149 -0.533016 -25.000000
v -0.006242 -0.536864 -25.014999
v -0.006159 -0.539560 -25.000000
v -0.085149 -0.533016 -25.000000
v -0.085149 -0.533016 -25.000000
v -0.006159 -0.539560 -25.000000
v -0.085149 -0.533016 25.000000
v -0.006159 -0.539560 -25.000000
v -0.006159 -0.539560 25.000000
v -0.085149 -0.533016 25.000000
v -0.085149 -0.533016 25.000000
v -0.006159 -0.539560 25.000000
v -0.084655 -0.530368 25.014999
v -0.006159 -0.539560 25.000000
v -0.006242 -0.536864 25.014999
v -0.084655 -0.530368 25.014999
v -0.084655 -0.530368 25.014999
v -0.006242 -0.536864 25.014999
v -0.083305 -0.523134 25.025982
v -0.006242 -0.536864 25.014999
v -0.006467 -0.529500 25.025982
v -0.083305 -0.523134 25.025982
v -0.083305 -0.523134 25.025982
v -0.006467 -0.529500 25.025982
v -0.081462 -0.513253 25.029999
v -0.006467 -0.529500 25.025982
v -0.006774 -0.519440 25.029999
v -0.081462 -0.513253 25.029999
v -0.006774 -0.519440 -25.029999
v 0.124913 -0.500378 -25.029999
v -0.006467 -0.529500 -25.025980
v 0.124913 -0.500378 -25.029999
v 0.128365 -0.509982 -25.025980
v -0.006467 -0.529500 -25.025980
v -0.006467 -0.529500 -25.025980
v 0.128365 -0.509982 -25.025980
v -0.006242 -0.536864 -25.014999
v 0.128365 -0.509982 -25.025980
v 0.130892 -0.517013 -25.014999
v -0.006242 -0.536864 -25.014999
v -0.006242 -0.536864 -25.014999
v 0.130892 -0.517013 -25.014999
v -0.006159 -0.539560 -25.000000
v 0.130892 -0.517013 -25.014999
v 0.131817 -0.519587 -25.000000
v -0.006159 -0.539560 -25.000000
v -0.006159 -0.539560 -25.000000
v 0.131817 -0.519587 -25.000000
v -0.006159 -0.539560 25.000000
v 0.131817 -0.519587 -25.000000
v 0.131817 -0.519587 25.000000
v -0.006159 -0.539560 25.000000
v -0.006159 -0.539560 25.000000
v 0.131817 -0.519587 25.000000
v -0.006242 -0.536864 25.014999
v 0.131817 -0.519587 25.000000
v 0.130892 -0.517013 25.014999
v -0.006242 -0.536864 25.014999
v -0.006242 -0.536864 25.014999
v 0.130892 -0.517013 25.014999
v -0.006467 -0.529500 25.025982
v 0.130892 -0.517013 25.014999
v 0.128365 -0.509982 25.025982
v -0.006467 -0.529500 25.025982
v -0.006467 -0.529500 25.025982
v 0.128365 -0.509982 25.025982
v -0.006774 -0.519440 25.029999
v 0.128365 -0.509982 25.025982
v 0.124913 -0.500378 25.029999
v -0.006774 -0.519440 25.029999
v 0.124913 -0.500378 -25.029999
v 0.218976 -0.443190 -25.029999
v 0.128365 -0.509982 -25.025980
v 0.218976 -0.443190 -25.029999
v 0.226307 -0.450436 -25.025980
v 0.128365 -0.509982 -25.025980
v 0.128365 -0.509982 -25.025980
v 0.226307 -0.450436 -25.025980
v 0.130892 -0.517013 -25.014999
v 0.226307 -0.450436 -25.025980
v 0.231674 -0.455741 -25.014999
v 0.130892 -0.517013 -25.014999
v 0.130892 -0.517013 -25.014999
v 0.231674 -0.455741 -25.014999
v 0.131817 -0.519587 -25.000000
v 0.231674 -0.455741 -25.014999
v 0.233638 -0.457682 -25.000000
v 0.131817 -0.519587 -25.000000
v 0.131817 -0.519587 -25.000000
v 0.233638 -0.457682 -25.000000
v 0.131817 -0.519587 25.000000
v 0.233638 -0.457682 -25.000000
v 0.233638 -0.457682 25.000000
v 0.131817 -0.519587 25.000000
v 0.131817 -0.519587 25.000000
v 0.233638 -0.457682 25.000000
v 0.130892 -0.517013 25.014999
v 0.233638 -0.457682 25.000000
v 0.231674 -0.455741 25.014999
v 0.130892 -0.517013 25.014999
v 0.130892 -0.517013 25.014999
v 0.231674 -0.455741 25.014999
v 0.128365 -0.509982 25.025982
v 0.231674 -0.455741 25.014999
v 0.226307 -0.450436 25.025982
v 0.128365 -0.509982 25.025982
v 0.128365 -0.509982 25.025982
v 0.226307 -0.450436 25.025982
v 0.124913 -0.500378 25.029999
v 0.226307 -0.450436 25.025982
v 0.218976 -0.443190 25.029999
v 0.124913 -0.500378 25.029999
v 0.218976 -0.443190 -25.029999
v 0.275413 -0.347878 -25.029999
v 0.226307 -0.450436 -25.025980
v 0.275413 -0.347878 -25.029999
v 0.285036 -0.351253 -25.025980
v 0.226307 -0.450436 -25.025980
v 0.226307 -0.450436 -25.025980
v 0.285036 -0.351253 -25.025980
v 0.231674 -0.455741 -25.014999
v 0.285036 -0.351253 -25.025980
v 0.292081 -0.353724 -25.014999
v 0.231674 -0.455741 -25.014999
v 0.231674 -0.455741 -25.014999
v 0.292081 -0.353724 -25.014999
v 0.233638 -0.457682 -25.000000
v 0.292081 -0.353724 -25.014999
v 0.294659 -0.354628 -25.000000
v 0.233638 -0.457682 -25.000000
v 0.233638 -0.457682 -25.000000
v 0.294659 -0.354628 -25.000000
v 0.233638 -0.457682 25.000000
v 0.294659 -0.354628 -25.000000
v 0.294659 -0.354628 25.000000
v 0.233638 -0.457682 25.000000
v 0.233638 -0.457682 25.000000
v 0.294659 -0.354628 25.000000
v 0.231674 -0.455741 25.014999
v 0.294659 -0.354628 25.000000
v 0.292081 -0.353724 25.014999
v 0.231674 -0.455741 25.014999
v 0.231674 -0.455741 25.014999
v 0.292081 -0.353724 25.014999
v 0.226307 -0.450436 25.025982
v 0.292081 -0.353724 25.014999
v 0.285036 -0.351253 25.025982
v 0.226307 -0.450436 25.025982
v 0.226307 -0.450436 25.025982
v 0.285036 -0.351253 25.025982
v 0.218976 -0.443190 25.029999
v 0.285036 -0.351253 25.025982
v 0.275413 -0.347878 25.029999
v 0.218976 -0.443190 25.029999
v 0.275413 -0.347878 -25.029999
v 0.294226 -0.214440 -25.029999
v 0.285036 -0.351253 -25.025980
v 0.294226 -0.214440 -25.029999
v 0.304226 -0.215142 -25.025980
v 0.285036 -0.351253 -25.025980
v 0.285036 -0.351253 -25.025980
v 0.304226 -0.215142 -25.025980
v 0.292081 -0.353724 -25.014999
v 0.304226 -0.215142 -25.025980
v 0.311546 -0.215655 -25.014999
v 0.292081 -0.353724 -25.014999
v 0.292081 -0.353724 -25.014999
v 0.311546 -0.215655 -25.014999
v 0.294659 -0.354628 -25.000000
v 0.311546 -0.215655 -25.014999
v 0.314226 -0.215843 -25.000000
v 0.294659 -0.354628 -25.000000
v 0.294659 -0.354628 -25.000000
v 0.314226 -0.215843 -25.000000
v 0.294659 -0.354628 25.000000
v 0.314226 -0.215843 -25.000000
v 0.314226 -0.215843 25.000000
v 0.294659 -0.354628 25.000000
v 0.294659 -0.354628 25.000000
v 0.314226 -0.215843 25.000000
v 0.292081 -0.353724 25.014999
v 0.314226 -0.215843 25.000000
v 0.311546 -0.215655 25.014999
v 0.292081 -0.353724 25.014999
v 0.292081 -0.353724 25.014999
v 0.311546 -0.215655 25.014999
v 0.285036 -0.351253 25.025982
v 0.311546 -0.215655 25.014999
v 0.304226 -0.215142 25.025982
v 0.285036 -0.351253 25.025982
v 0.285036 -0.351253 25.025982
v 0.304226 -0.215142 25.025982
v 0.275413 -0.347878 25.029999
v 0.304226 -0.215142 25.025982
v 0.294226 -0.214440 25.029999
v 0.275413 -0.347878 25.029999