# Generated mesh
# vertices: 116, faces: 114

v 0.321480 0.118756 0.000000
v 0.320304 0.081822 0.000000
v 0.316777 0.047271 0.000000
v 0.310898 0.015103 0.000000
v 0.302668 -0.014682 0.000000
v 0.292086 -0.042084 0.000000
v 0.279152 -0.067104 0.000000
v 0.263867 -0.089740 0.000000
v 0.246230 -0.109994 0.000000
v 0.226242 -0.127865 0.000000
v 0.203902 -0.143354 0.000000
v 0.179211 -0.156459 0.000000
v 0.152168 -0.167182 0.000000
v 0.122773 -0.175522 0.000000
v 0.091027 -0.181479 0.000000
v 0.056929 -0.185053 0.000000
v 0.020480 -0.186244 0.000000
v 0.000718 -0.185858 0.000000
v -0.018317 -0.184697 0.000000
v -0.036625 -0.182764 0.000000
v -0.054207 -0.180057 0.000000
v -0.071063 -0.176576 0.000000
v -0.087192 -0.172322 0.000000
v -0.102594 -0.167295 0.000000
v -0.117270 -0.161494 0.000000
v -0.131219 -0.154920 0.000000
v -0.144442 -0.147572 0.000000
v -0.156938 -0.139451 0.000000
v -0.168707 -0.130557 0.000000
v -0.179750 -0.120889 0.000000
v -0.190067 -0.110447 0.000000
v -0.199657 -0.099233 0.000000
v -0.208520 -0.087244 0.000000
v -0.215543 -0.076291 0.000000
v -0.222114 -0.064682 0.000000
v -0.228231 -0.052416 0.000000
v -0.233895 -0.039494 0.000000
v -0.239106 -0.025916 0.000000
v -0.243864 -0.011682 0.000000
v -0.248168 0.003209 0.000000
v -0.252020 0.018756 0.000000
v -0.255418 0.034959 0.000000
v -0.258364 0.051818 0.000000
v -0.260856 0.069334 0.000000
v -0.262895 0.087506 0.000000
v -0.264481 0.106334 0.000000
v -0.265614 0.125818 0.000000
v -0.266293 0.145959 0.000000
v -0.266520 0.166756 0.000000
v -0.133520 0.166756 0.000000
v -0.133414 0.154431 0.000000
v -0.133098 0.142459 0.000000
v -0.132571 0.130838 0.000000
v -0.131832 0.119568 0.000000
v -0.130883 0.108650 0.000000
v -0.129723 0.098084 0.000000
v -0.128352 0.087869 0.000000
v -0.126770 0.078006 0.000000
v -0.124977 0.068494 0.000000
v -0.122973 0.059334 0.000000
v -0.120758 0.050525 0.000000
v -0.118332 0.042068 0.000000
v -0.115696 0.033963 0.000000
v -0.112848 0.026209 0.000000
v -0.109789 0.018806 0.000000
v -0.106520 0.011756 0.000000
v -0.101567 0.002553 0.000000
v -0.096207 -0.006057 0.000000
v -0.090442 -0.014072 0.000000
v -0.084270 -0.021494 0.000000
v -0.077692 -0.028322 0.000000
v -0.070707 -0.034557 0.000000
v -0.063317 -0.040197 0.000000
v -0.055520 -0.045244 0.000000
v -0.047317 -0.049697 0.000000
v -0.038707 -0.053557 0.000000
v -0.029692 -0.056822 0.000000
v -0.020270 -0.059494 0.000000
v -0.010442 -0.061572 0.000000
v -0.000207 -0.063057 0.000000
v 0.010433 -0.063947 0.000000
v 0.021480 -0.064244 0.000000
v 0.034089 -0.063951 0.000000
v 0.046168 -0.063072 0.000000
v 0.057714 -0.061608 0.000000
v 0.068730 -0.059557 0.000000
v 0.079214 -0.056920 0.000000
v 0.089168 -0.053697 0.000000
v 0.098589 -0.049889 0.000000
v 0.107480 -0.045494 0.000000
v 0.115839 -0.040514 0.000000
v 0.123668 -0.034947 0.000000
v 0.130964 -0.028795 0.000000
v 0.137730 -0.022057 0.000000
v 0.143964 -0.014733 0.000000
v 0.149668 -0.006822 0.000000
v 0.154839 0.001674 0.000000
v 0.159480 0.010756 0.000000
v 0.162265 0.017025 0.000000
v 0.164871 0.023834 0.000000
v 0.167296 0.031181 0.000000
v 0.169543 0.039068 0.000000
v 0.171609 0.047494 0.000000
v 0.173496 0.056459 0.000000
v 0.175203 0.065963 0.000000
v 0.176730 0.076006 0.000000
v 0.178078 0.086588 0.000000
v 0.179246 0.097709 0.000000
v 0.180234 0.109369 0.000000
v 0.181043 0.121568 0.000000
v 0.181671 0.134306 0.000000
v 0.182121 0.147584 0.000000
v 0.182390 0.161400 0.000000
v 0.182480 0.175756 0.000000
v 0.182480 0.852756 0.000000
v 0.321480 0.852756 0.000000
f 2 1 116
f 116 115 114
f 51 50 49
f 49 48 47
f 47 46 45
f 45 44 43
f 43 42 41
f 41 40 39
f 39 38 37
f 37 36 35
f 35 34 33
f 33 32 31
f 31 30 29
f 29 28 27
f 27 26 25
f 25 24 23
f 23 22 21
f 21 20 19
f 19 18 17
f 17 16 15
f 15 14 13
f 13 12 11
f 11 10 9
f 9 8 7
f 7 6 5
f 5 4 3
f 3 2 116
f 116 114 113
f 52 51 49
f 49 47 45
f 45 43 41
f 41 39 37
f 37 35 33
f 33 31 29
f 29 27 25
f 25 23 21
f 21 19 17
f 17 15 13
f 13 11 9
f 9 7 5
f 5 3 116
f 116 113 112
f 53 52 49
f 49 45 41
f 41 37 33
f 33 29 25
f 25 21 17
f 17 13 9
f 9 5 116
f 116 112 111
f 54 53 49
f 49 41 33
f 33 25 17
f 9 116 111
f 55 54 49
f 49 33 17
f 9 111 110
f 56 55 49
f 9 110 109
f 57 56 49
f 9 109 108
f 58 57 49
f 9 108 107
f 59 58 49
f 9 107 106
f 60 59 49
f 9 106 105
f 61 60 49
f 9 105 104
f 62 61 49
f 9 104 103
f 63 62 49
f 9 103 102
f 64 63 49
f 9 102 101
f 65 64 49
f 9 101 100
f 66 65 49
f 9 100 99
f 67 66 49
f 9 99 98
f 68 67 49
f 9 98 97
f 69 68 49
f 9 97 96
f 70 69 49
f 17 9 96
f 71 70 49
f 17 96 95
f 71 49 17
f 17 95 94
f 72 71 17
f 17 94 93
f 73 72 17
f 17 93 92
f 74 73 17
f 17 92 91
f 75 74 17
f 17 91 90
f 76 75 17
f 17 90 89
f 77 76 17
f 17 89 88
f 78 77 17
f 17 88 87
f 79 78 17
f 17 87 86
f 80 79 17
f 17 86 85
f 81 80 17
f 17 85 84
f 82 81 17
f 17 84 83
f 83 82 17