# Generated mesh
# vertices: 564, faces: 0

v 0.406942 -0.506500 -25.029999
v 0.236942 -0.506500 -25.029999
v -0.118058 0.002500 -25.029999
v 0.213942 0.506500 -25.029999
v 0.396942 0.506500 -25.029999
v -0.017058 0.093500 -25.029999
v -0.412058 0.506500 -25.029999
v -0.273058 0.506500 -25.029999
v -0.273058 0.019500 -25.029999
v -0.273058 -0.506500 -25.029999
v -0.412058 -0.506500 -25.029999
v -0.412058 0.506500 -25.029999
v -0.017058 0.093500 -25.029999
v 0.406942 -0.506500 -25.029999
v -0.118058 0.002500 -25.029999
v -0.273058 0.019500 -25.029999
v 0.213942 0.506500 -25.029999
v -0.017058 0.093500 -25.029999
v -0.273058 -0.151500 -25.029999
v -0.273058 -0.506500 -25.029999
v -0.412058 0.506500 -25.029999
v -0.273058 0.019500 -25.029999
v -0.017058 0.093500 -25.029999
v -0.118058 0.002500 -25.029999
v -0.273058 -0.151500 -25.029999
v -0.412058 0.506500 -25.029999
v -0.273058 0.019500 -25.029999
v -0.273058 0.019500 -25.029999
v -0.118058 0.002500 -25.029999
v -0.273058 -0.151500 -25.029999
v -0.118058 0.002500 25.029999
v 0.236942 -0.506500 25.029999
v 0.406942 -0.506500 25.029999
v -0.017058 0.093500 25.029999
v 0.396942 0.506500 25.029999
v 0.213942 0.506500 25.029999
v -0.273058 0.019500 25.029999
v -0.273058 0.506500 25.029999
v -0.412058 0.506500 25.029999
v -0.412058 0.506500 25.029999
v -0.412058 -0.506500 25.029999
v -0.273058 -0.506500 25.029999
v -0.118058 0.002500 25.029999
v 0.406942 -0.506500 25.029999
v -0.017058 0.093500 25.029999
v -0.017058 0.093500 25.029999
v 0.213942 0.506500 25.029999
v -0.273058 0.019500 25.029999
v -0.412058 0.506500 25.029999
v -0.273058 -0.506500 25.029999
v -0.273058 -0.151500 25.029999
v -0.118058 0.002500 25.029999
v -0.017058 0.093500 25.029999
v -0.273058 0.019500 25.029999
v -0.273058 0.019500 25.029999
v -0.412058 0.506500 25.029999
v -0.273058 -0.151500 25.029999
v -0.273058 -0.151500 25.029999
v -0.118058 0.002500 25.029999
v -0.273058 0.019500 25.029999
v 0.406942 -0.506500 -25.029999
v -0.017058 0.093500 -25.029999
v 0.419500 -0.513003 -25.025980
v -0.017058 0.093500 -25.029999
v -0.004022 0.092380 -25.025980
v 0.419500 -0.513003 -25.025980
v 0.419500 -0.513003 -25.025980
v -0.004022 0.092380 -25.025980
v 0.428693 -0.517763 -25.014999
v -0.004022 0.092380 -25.025980
v 0.005521 0.091560 -25.014999
v 0.428693 -0.517763 -25.014999
v 0.428693 -0.517763 -25.014999
v 0.005521 0.091560 -25.014999
v 0.432058 -0.519506 -25.000000
v 0.005521 0.091560 -25.014999
v 0.009015 0.091260 -25.000000
v 0.432058 -0.519506 -25.000000
v 0.432058 -0.519506 -25.000000
v 0.009015 0.091260 -25.000000
v 0.432058 -0.519506 25.000000
v 0.009015 0.091260 -25.000000
v 0.009015 0.091260 25.000000
v 0.432058 -0.519506 25.000000
v 0.432058 -0.519506 25.000000
v 0.009015 0.091260 25.000000
v 0.428693 -0.517763 25.014999
v 0.009015 0.091260 25.000000
v 0.005521 0.091560 25.014999
v 0.428693 -0.517763 25.014999
v 0.428693 -0.517763 25.014999
v 0.005521 0.091560 25.014999
v 0.419500 -0.513003 25.025982
v 0.005521 0.091560 25.014999
v -0.004022 0.092380 25.025982
v 0.419500 -0.513003 25.025982
v 0.419500 -0.513003 25.025982
v -0.004022 0.092380 25.025982
v 0.406942 -0.506500 25.029999
v -0.004022 0.092380 25.025982
v -0.017058 0.093500 25.029999
v 0.406942 -0.506500 25.029999
v -0.017058 0.093500 -25.029999
v 0.396942 0.506500 -25.029999
v -0.004022 0.092380 -25.025980
v 0.396942 0.506500 -25.029999
v 0.410011 0.511904 -25.025980
v -0.004022 0.092380 -25.025980
v -0.004022 0.092380 -25.025980
v 0.410011 0.511904 -25.025980
v 0.005521 0.091560 -25.014999
v 0.410011 0.511904 -25.025980
v 0.419578 0.515860 -25.014999
v 0.005521 0.091560 -25.014999
v 0.005521 0.091560 -25.014999
v 0.419578 0.515860 -25.014999
v 0.009015 0.091260 -25.000000
v 0.419578 0.515860 -25.014999
v 0.423079 0.517308 -25.000000
v 0.009015 0.091260 -25.000000
v 0.009015 0.091260 -25.000000
v 0.423079 0.517308 -25.000000
v 0.009015 0.091260 25.000000
v 0.423079 0.517308 -25.000000
v 0.423079 0.517308 25.000000
v 0.009015 0.091260 25.000000
v 0.009015 0.091260 25.000000
v 0.423079 0.517308 25.000000
v 0.005521 0.091560 25.014999
v 0.423079 0.517308 25.000000
v 0.419578 0.515860 25.014999
v 0.005521 0.091560 25.014999
v 0.005521 0.091560 25.014999
v 0.419578 0.515860 25.014999
v -0.004022 0.092380 25.025982
v 0.419578 0.515860 25.014999
v 0.410011 0.511904 25.025982
v -0.004022 0.092380 25.025982
v -0.004022 0.092380 25.025982
v 0.410011 0.511904 25.025982
v -0.017058 0.093500 25.029999
v 0.410011 0.511904 25.025982
v 0.396942 0.506500 25.029999
v -0.017058 0.093500 25.029999
v 0.396942 0.506500 -25.029999
v 0.213942 0.506500 -25.029999
v 0.410011 0.511904 -25.025980
v 0.213942 0.506500 -25.029999
v 0.209800 0.516500 -25.025980
v 0.410011 0.511904 -25.025980
v 0.410011 0.511904 -25.025980
v 0.209800 0.516500 -25.025980
v 0.419578 0.515860 -25.014999
v 0.209800 0.516500 -25.025980
v 0.206767 0.523821 -25.014999
v 0.419578 0.515860 -25.014999
v 0.419578 0.515860 -25.014999
v 0.206767 0.523821 -25.014999
v 0.423079 0.517308 -25.000000
v 0.206767 0.523821 -25.014999
v 0.205657 0.526500 -25.000000
v 0.423079 0.517308 -25.000000
v 0.423079 0.517308 -25.000000
v 0.205657 0.526500 -25.000000
v 0.423079 0.517308 25.000000
v 0.205657 0.526500 -25.000000
v 0.205657 0.526500 25.000000
v 0.423079 0.517308 25.000000
v 0.423079 0.517308 25.000000
v 0.205657 0.526500 25.000000
v 0.419578 0.515860 25.014999
v 0.205657 0.526500 25.000000
v 0.206767 0.523821 25.014999
v 0.419578 0.515860 25.014999
v 0.419578 0.515860 25.014999
v 0.206767 0.523821 25.014999
v 0.410011 0.511904 25.025982
v 0.206767 0.523821 25.014999
v 0.209800 0.516500 25.025982
v 0.410011 0.511904 25.025982
v 0.410011 0.511904 25.025982
v 0.209800 0.516500 25.025982
v 0.396942 0.506500 25.029999
v 0.209800 0.516500 25.025982
v 0.213942 0.506500 25.029999
v 0.396942 0.506500 25.029999
v 0.213942 0.506500 -25.029999
v -0.273058 0.019500 -25.029999
v 0.209800 0.516500 -25.025980
v -0.273058 0.019500 -25.029999
v -0.267646 0.032566 -25.025980
v 0.209800 0.516500 -25.025980
v 0.209800 0.516500 -25.025980
v -0.267646 0.032566 -25.025980
v 0.206767 0.523821 -25.014999
v -0.267646 0.032566 -25.025980
v -0.263685 0.042130 -25.014999
v 0.206767 0.523821 -25.014999
v 0.206767 0.523821 -25.014999
v -0.263685 0.042130 -25.014999
v 0.205657 0.526500 -25.000000
v -0.263685 0.042130 -25.014999
v -0.262234 0.045631 -25.000000
v 0.205657 0.526500 -25.000000
v 0.205657 0.526500 -25.000000
v -0.262234 0.045631 -25.000000
v 0.205657 0.526500 25.000000
v -0.262234 0.045631 -25.000000
v -0.262234 0.045631 25.000000
v 0.205657 0.526500 25.000000
v 0.205657 0.526500 25.000000
v -0.262234 0.045631 25.000000
v 0.206767 0.523821 25.014999
v -0.262234 0.045631 25.000000
v -0.263685 0.042130 25.014999
v 0.206767 0.523821 25.014999
v 0.206767 0.523821 25.014999
v -0.263685 0.042130 25.014999
v 0.209800 0.516500 25.025982
v -0.263685 0.042130 25.014999
v -0.267646 0.032566 25.025982
v 0.209800 0.516500 25.025982
v 0.209800 0.516500 25.025982
v -0.267646 0.032566 25.025982
v 0.213942 0.506500 25.029999
v -0.267646 0.032566 25.025982
v -0.273058 0.019500 25.029999
v 0.213942 0.506500 25.029999
v -0.273058 0.019500 -25.029999
v -0.273058 0.506500 -25.029999
v -0.267646 0.032566 -25.025980
v -0.273058 0.506500 -25.029999
v -0.263058 0.516500 -25.025980
v -0.267646 0.032566 -25.025980
v -0.267646 0.032566 -25.025980
v -0.263058 0.516500 -25.025980
v -0.263685 0.042130 -25.014999
v -0.263058 0.516500 -25.025980
v -0.255738 0.523821 -25.014999
v -0.263685 0.042130 -25.014999
v -0.263685 0.042130 -25.014999
v -0.255738 0.523821 -25.014999
v -0.262234 0.045631 -25.000000
v -0.255738 0.523821 -25.014999
v -0.253058 0.526500 -25.000000
v -0.262234 0.045631 -25.000000
v -0.262234 0.045631 -25.000000
v -0.253058 0.526500 -25.000000
v -0.262234 0.045631 25.000000
v -0.253058 0.526500 -25.000000
v -0.253058 0.526500 25.000000
v -0.262234 0.045631 25.000000
v -0.262234 0.045631 25.000000
v -0.253058 0.526500 25.000000
v -0.263685 0.042130 25.014999
v -0.253058 0.526500 25.000000
v -0.255738 0.523821 25.014999
v -0.263685 0.042130 25.014999
v -0.263685 0.042130 25.014999
v -0.255738 0.523821 25.014999
v -0.267646 0.032566 25.025982
v -0.255738 0.523821 25.014999
v -0.263058 0.516500 25.025982
v -0.267646 0.032566 25.025982
v -0.267646 0.032566 25.025982
v -0.263058 0.516500 25.025982
v -0.273058 0.019500 25.029999
v -0.263058 0.516500 25.025982
v -0.273058 0.506500 25.029999
v -0.273058 0.019500 25.029999
v -0.273058 0.506500 -25.029999
v -0.412058 0.506500 -25.029999
v -0.263058 0.516500 -25.025980
v -0.412058 0.506500 -25.029999
v -0.422058 0.516500 -25.025980
v -0.263058 0.516500 -25.025980
v -0.263058 0.516500 -25.025980
v -0.422058 0.516500 -25.025980
v -0.255738 0.523821 -25.014999
v -0.422058 0.516500 -25.025980
v -0.429379 0.523821 -25.014999
v -0.255738 0.523821 -25.014999
v -0.255738 0.523821 -25.014999
v -0.429379 0.523821 -25.014999
v -0.253058 0.526500 -25.000000
v -0.429379 0.523821 -25.014999
v -0.432058 0.526500 -25.000000
v -0.253058 0.526500 -25.000000
v -0.253058 0.526500 -25.000000
v -0.432058 0.526500 -25.000000
v -0.253058 0.526500 25.000000
v -0.432058 0.526500 -25.000000
v -0.432058 0.526500 25.000000
v -0.253058 0.526500 25.000000
v -0.253058 0.526500 25.000000
v -0.432058 0.526500 25.000000
v -0.255738 0.523821 25.014999
v -0.432058 0.526500 25.000000
v -0.429379 0.523821 25.014999
v -0.255738 0.523821 25.014999
v -0.255738 0.523821 25.014999
v -0.429379 0.523821 25.014999
v -0.263058 0.516500 25.025982
v -0.429379 0.523821 25.014999
v -0.422058 0.516500 25.025982
v -0.263058 0.516500 25.025982
v -0.263058 0.516500 25.025982
v -0.422058 0.516500 25.025982
v -0.273058 0.506500 25.029999
v -0.422058 0.516500 25.025982
v -0.412058 0.506500 25.029999
v -0.273058 0.506500 25.029999
v -0.412058 0.506500 -25.029999
v -0.412058 -0.506500 -25.029999
v -0.422058 0.516500 -25.025980
v -0.412058 -0.506500 -25.029999
v -0.422058 -0.516500 -25.025980
v -0.422058 0.516500 -25.025980
v -0.422058 0.516500 -25.025980
v -0.422058 -0.516500 -25.025980
v -0.429379 0.523821 -25.014999
v -0.422058 -0.516500 -25.025980
v -0.429379 -0.523821 -25.014999
v -0.429379 0.523821 -25.014999
v -0.429379 0.523821 -25.014999
v -0.429379 -0.523821 -25.014999
v -0.432058 0.526500 -25.000000
v -0.429379 -0.523821 -25.014999
v -0.432058 -0.526500 -25.000000
v -0.432058 0.526500 -25.000000
v -0.432058 0.526500 -25.000000
v -0.432058 -0.526500 -25.000000
v -0.432058 0.526500 25.000000
v -0.432058 -0.526500 -25.000000
v -0.432058 -0.526500 25.000000
v -0.432058 0.526500 25.000000
v -0.432058 0.526500 25.000000
v -0.432058 -0.526500 25.000000
v -0.429379 0.523821 25.014999
v -0.432058 -0.526500 25.000000
v -0.429379 -0.523821 25.014999
v -0.429379 0.523821 25.014999
v -0.429379 0.523821 25.014999
v -0.429379 -0.523821 25.014999
v -0.422058 0.516500 25.025982
v -0.429379 -0.523821 25.014999
v -0.422058 -0.516500 25.025982
v -0.422058 0.516500 25.025982
v -0.422058 0.516500 25.025982
v -0.422058 -0.516500 25.025982
v -0.412058 0.506500 25.029999
v -0.422058 -0.516500 25.025982
v -0.412058 -0.506500 25.029999
v -0.412058 0.506500 25.029999
v -0.412058 -0.506500 -25.029999
v -0.273058 -0.506500 -25.029999
v -0.422058 -0.516500 -25.025980
v -0.273058 -0.506500 -25.029999
v -0.263058 -0.516500 -25.025980
v -0.422058 -0.516500 -25.025980
v -0.422058 -0.516500 -25.025980
v -0.263058 -0.516500 -25.025980
v -0.429379 -0.523821 -25.014999
v -0.263058 -0.516500 -25.025980
v -0.255738 -0.523821 -25.014999
v -0.429379 -0.523821 -25.014999
v -0.429379 -0.523821 -25.014999
v -0.255738 -0.523821 -25.014999
v -0.432058 -0.526500 -25.000000
v -0.255738 -0.523821 -25.014999
v -0.253058 -0.526500 -25.000000
v -0.432058 -0.526500 -25.000000
v -0.432058 -0.526500 -25.000000
v -0.253058 -0.526500 -25.000000
v -0.432058 -0.526500 25.000000
v -0.253058 -0.526500 -25.000000
v -0.253058 -0.526500 25.000000
v -0.432058 -0.526500 25.000000
v -0.432058 -0.526500 25.000000
v -0.253058 -0.526500 25.000000
v -0.429379 -0.523821 25.014999
v -0.253058 -0.526500 25.000000
v -0.255738 -0.523821 25.014999
v -0.429379 -0.523821 25.014999
v -0.429379 -0.523821 25.014999
v -0.255738 -0.523821 25.014999
v -0.422058 -0.516500 25.025982
v -0.255738 -0.523821 25.014999
v -0.263058 -0.516500 25.025982
v -0.422058 -0.516500 25.025982
v -0.422058 -0.516500 25.025982
v -0.263058 -0.516500 25.025982
v -0.412058 -0.506500 25.029999
v -0.263058 -0.516500 25.025982
v -0.273058 -0.506500 25.029999
v -0.412058 -0.506500 25.029999
v -0.273058 -0.506500 -25.029999
v -0.273058 -0.151500 -25.029999
v -0.263058 -0.516500 -25.025980
v -0.273058 -0.151500 -25.029999
v -0.263058 -0.155661 -25.025980
v -0.263058 -0.516500 -25.025980
v -0.263058 -0.516500 -25.025980
v -0.263058 -0.155661 -25.025980
v -0.255738 -0.523821 -25.014999
v -0.263058 -0.155661 -25.025980
v -0.255738 -0.158707 -25.014999
v -0.255738 -0.523821 -25.014999
v -0.255738 -0.523821 -25.014999
v -0.255738 -0.158707 -25.014999
v -0.253058 -0.526500 -25.000000
v -0.255738 -0.158707 -25.014999
v -0.253058 -0.159822 -25.000000
v -0.253058 -0.526500 -25.000000
v -0.253058 -0.526500 -25.000000
v -0.253058 -0.159822 -25.000000
v -0.253058 -0.526500 25.000000
v -0.253058 -0.159822 -25.000000
v -0.253058 -0.159822 25.000000
v -0.253058 -0.526500 25.000000
v -0.253058 -0.526500 25.000000
v -0.253058 -0.159822 25.000000
v -0.255738 -0.523821 25.014999
v -0.253058 -0.159822 25.000000
v -0.255738 -0.158707 25.014999
v -0.255738 -0.523821 25.014999
v -0.255738 -0.523821 25.014999
v -0.255738 -0.158707 25.014999
v -0.263058 -0.516500 25.025982
v -0.255738 -0.158707 25.014999
v -0.263058 -0.155661 25.025982
v -0.263058 -0.516500 25.025982
v -0.263058 -0.516500 25.025982
v -0.263058 -0.155661 25.025982
v -0.273058 -0.506500 25.029999
v -0.263058 -0.155661 25.025982
v -0.273058 -0.151500 25.029999
v -0.273058 -0.506500 25.029999
v -0.273058 -0.151500 -25.029999
v -0.118058 0.002500 -25.029999
v -0.263058 -0.155661 -25.025980
v -0.118058 0.002500 -25.029999
v -0.119327 -0.011585 -25.025980
v -0.263058 -0.155661 -25.025980
v -0.263058 -0.155661 -25.025980
v -0.119327 -0.011585 -25.025980
v -0.255738 -0.158707 -25.014999
v -0.119327 -0.011585 -25.025980
v -0.120255 -0.021896 -25.014999
v -0.255738 -0.158707 -25.014999
v -0.255738 -0.158707 -25.014999
v -0.120255 -0.021896 -25.014999
v -0.253058 -0.159822 -25.000000
v -0.120255 -0.021896 -25.014999
v -0.120595 -0.025670 -25.000000
v -0.253058 -0.159822 -25.000000
v -0.253058 -0.159822 -25.000000
v -0.120595 -0.025670 -25.000000
v -0.253058 -0.159822 25.000000
v -0.120595 -0.025670 -25.000000
v -0.120595 -0.025670 25.000000
v -0.253058 -0.159822 25.000000
v -0.253058 -0.159822 25.000000
v -0.120595 -0.025670 25.000000
v -0.255738 -0.158707 25.014999
v -0.120595 -0.025670 25.000000
v -0.120255 -0.021896 25.014999
v -0.255738 -0.158707 25.014999
v -0.255738 -0.158707 25.014999
v -0.120255 -0.021896 25.014999
v -0.263058 -0.155661 25.025982
v -0.120255 -0.021896 25.014999
v -0.119327 -0.011585 25.025982
v -0.263058 -0.155661 25.025982
v -0.263058 -0.155661 25.025982
v -0.119327 -0.011585 25.025982
v -0.273058 -0.151500 25.029999
v -0.119327 -0.011585 25.025982
v -0.118058 0.002500 25.029999
v -0.273058 -0.151500 25.029999
v -0.118058 0.002500 -25.029999
v 0.236942 -0.506500 -25.029999
v -0.119327 -0.011585 -25.025980
v 0.236942 -0.506500 -25.029999
v 0.231724 -0.516500 -25.025980
v -0.119327 -0.011585 -25.025980
v -0.119327 -0.011585 -25.025980
v 0.231724 -0.516500 -25.025980
v -0.120255 -0.021896 -25.014999
v 0.231724 -0.516500 -25.025980
v 0.227905 -0.523821 -25.014999
v -0.120255 -0.021896 -25.014999
v -0.120255 -0.021896 -25.014999
v 0.227905 -0.523821 -25.014999
v -0.120595 -0.025670 -25.000000
v 0.227905 -0.523821 -25.014999
v 0.226507 -0.526500 -25.000000
v -0.120595 -0.025670 -25.000000
v -0.120595 -0.025670 -25.000000
v 0.226507 -0.526500 -25.000000
v -0.120595 -0.025670 25.000000
v 0.226507 -0.526500 -25.000000
v 0.226507 -0.526500 25.000000
v -0.120595 -0.025670 25.000000
v -0.120595 -0.025670 25.000000
v 0.226507 -0.526500 25.000000
v -0.120255 -0.021896 25.014999
v 0.226507 -0.526500 25.000000
v 0.227905 -0.523821 25.014999
v -0.120255 -0.021896 25.014999
v -0.120255 -0.021896 25.014999
v 0.227905 -0.523821 25.014999
v -0.119327 -0.011585 25.025982
v 0.227905 -0.523821 25.014999
v 0.231724 -0.516500 25.025982
v -0.119327 -0.011585 25.025982
v -0.119327 -0.011585 25.025982
v 0.231724 -0.516500 25.025982
v -0.118058 0.002500 25.029999
v 0.231724 -0.516500 25.025982
v 0.236942 -0.506500 25.029999
v -0.118058 0.002500 25.029999
v 0.236942 -0.506500 -25.029999
v 0.406942 -0.506500 -25.029999
v 0.231724 -0.516500 -25.025980
v 0.406942 -0.506500 -25.029999
v 0.419500 -0.513003 -25.025980
v 0.231724 -0.516500 -25.025980
v 0.231724 -0.516500 -25.025980
v 0.419500 -0.513003 -25.025980
v 0.227905 -0.523821 -25.014999
v 0.419500 -0.513003 -25.025980
v 0.428693 -0.517763 -25.014999
v 0.227905 -0.523821 -25.014999
v 0.227905 -0.523821 -25.014999
v 0.428693 -0.517763 -25.014999
v 0.226507 -0.526500 -25.000000
v 0.428693 -0.517763 -25.014999
v 0.432058 -0.519506 -25.000000
v 0.226507 -0.526500 -25.000000
v 0.226507 -0.526500 -25.000000
v 0.432058 -0.519506 -25.000000
v 0.226507 -0.526500 25.000000
v 0.432058 -0.519506 -25.000000
v 0.432058 -0.519506 25.000000
v 0.226507 -0.526500 25.000000
v 0.226507 -0.526500 25.000000
v 0.432058 -0.519506 25.000000
v 0.227905 -0.523821 25.014999
v 0.432058 -0.519506 25.000000
v 0.428693 -0.517763 25.014999
v 0.227905 -0.523821 25.014999
v 0.227905 -0.523821 25.014999
v 0.428693 -0.517763 25.014999
v 0.231724 -0.516500 25.025982
v 0.428693 -0.517763 25.014999
v 0.419500 -0.513003 25.025982
v 0.231724 -0.516500 25.025982
v 0.231724 -0.516500 25.025982
v 0.419500 -0.513003 25.025982
v 0.236942 -0.506500 25.029999
v 0.419500 -0.513003 25.025982
v 0.406942 -0.506500 25.029999
v 0.236942 -0.506500 25.029999