# Generated mesh
# vertices: 276, faces: 0

v 0.322500 -0.380500 -25.029999
v 0.322500 -0.506500 -25.029999
v -0.322500 -0.506500 -25.029999
v -0.322500 0.506500 -25.029999
v -0.182500 0.506500 -25.029999
v -0.182500 -0.380500 -25.029999
v -0.182500 -0.380500 -25.029999
v 0.322500 -0.380500 -25.029999
v -0.322500 -0.506500 -25.029999
v -0.322500 -0.506500 -25.029999
v -0.322500 0.506500 -25.029999
v -0.182500 -0.380500 -25.029999
v -0.322500 -0.506500 25.029999
v 0.322500 -0.506500 25.029999
v 0.322500 -0.380500 25.029999
v -0.182500 -0.380500 25.029999
v -0.182500 0.506500 25.029999
v -0.322500 0.506500 25.029999
v -0.322500 -0.506500 25.029999
v 0.322500 -0.380500 25.029999
v -0.182500 -0.380500 25.029999
v -0.182500 -0.380500 25.029999
v -0.322500 0.506500 25.029999
v -0.322500 -0.506500 25.029999
v 0.322500 -0.506500 -25.029999
v 0.322500 -0.380500 -25.029999
v 0.332500 -0.516500 -25.025980
v 0.322500 -0.380500 -25.029999
v 0.332500 -0.370500 -25.025980
v 0.332500 -0.516500 -25.025980
v 0.332500 -0.516500 -25.025980
v 0.332500 -0.370500 -25.025980
v 0.339820 -0.523821 -25.014999
v 0.332500 -0.370500 -25.025980
v 0.339820 -0.363180 -25.014999
v 0.339820 -0.523821 -25.014999
v 0.339820 -0.523821 -25.014999
v 0.339820 -0.363180 -25.014999
v 0.342500 -0.526500 -25.000000
v 0.339820 -0.363180 -25.014999
v 0.342500 -0.360500 -25.000000
v 0.342500 -0.526500 -25.000000
v 0.342500 -0.526500 -25.000000
v 0.342500 -0.360500 -25.000000
v 0.342500 -0.526500 25.000000
v 0.342500 -0.360500 -25.000000
v 0.342500 -0.360500 25.000000
v 0.342500 -0.526500 25.000000
v 0.342500 -0.526500 25.000000
v 0.342500 -0.360500 25.000000
v 0.339820 -0.523821 25.014999
v 0.342500 -0.360500 25.000000
v 0.339820 -0.363180 25.014999
v 0.339820 -0.523821 25.014999
v 0.339820 -0.523821 25.014999
v 0.339820 -0.363180 25.014999
v 0.332500 -0.516500 25.025982
v 0.339820 -0.363180 25.014999
v 0.332500 -0.370500 25.025982
v 0.332500 -0.516500 25.025982
v 0.332500 -0.516500 25.025982
v 0.332500 -0.370500 25.025982
v 0.322500 -0.506500 25.029999
v 0.332500 -0.370500 25.025982
v 0.322500 -0.380500 25.029999
v 0.322500 -0.506500 25.029999
v 0.322500 -0.380500 -25.029999
v -0.182500 -0.380500 -25.029999
v 0.332500 -0.370500 -25.025980
v -0.182500 -0.380500 -25.029999
v -0.172500 -0.370500 -25.025980
v 0.332500 -0.370500 -25.025980
v 0.332500 -0.370500 -25.025980
v -0.172500 -0.370500 -25.025980
v 0.339820 -0.363180 -25.014999
v -0.172500 -0.370500 -25.025980
v -0.165179 -0.363180 -25.014999
v 0.339820 -0.363180 -25.014999
v 0.339820 -0.363180 -25.014999
v -0.165179 -0.363180 -25.014999
v 0.342500 -0.360500 -25.000000
v -0.165179 -0.363180 -25.014999
v -0.162500 -0.360500 -25.000000
v 0.342500 -0.360500 -25.000000
v 0.342500 -0.360500 -25.000000
v -0.162500 -0.360500 -25.000000
v 0.342500 -0.360500 25.000000
v -0.162500 -0.360500 -25.000000
v -0.162500 -0.360500 25.000000
v 0.342500 -0.360500 25.000000
v 0.342500 -0.360500 25.000000
v -0.162500 -0.360500 25.000000
v 0.339820 -0.363180 25.014999
v -0.162500 -0.360500 25.000000
v -0.165179 -0.363180 25.014999
v 0.339820 -0.363180 25.014999
v 0.339820 -0.363180 25.014999
v -0.165179 -0.363180 25.014999
v 0.332500 -0.370500 25.025982
v -0.165179 -0.363180 25.014999
v -0.172500 -0.370500 25.025982
v 0.332500 -0.370500 25.025982
v 0.332500 -0.370500 25.025982
v -0.172500 -0.370500 25.025982
v 0.322500 -0.380500 25.029999
v -0.172500 -0.370500 25.025982
v -0.182500 -0.380500 25.029999
v 0.322500 -0.380500 25.029999
v -0.182500 -0.380500 -25.029999
v -0.182500 0.506500 -25.029999
v -0.172500 -0.370500 -25.025980
v -0.182500 0.506500 -25.029999
v -0.172500 0.516500 -25.025980
v -0.172500 -0.370500 -25.025980
v -0.172500 -0.370500 -25.025980
v -0.172500 0.516500 -25.025980
v -0.165179 -0.363180 -25.014999
v -0.172500 0.516500 -25.025980
v -0.165179 0.523821 -25.014999
v -0.165179 -0.363180 -25.014999
v -0.165179 -0.363180 -25.014999
v -0.165179 0.523821 -25.014999
v -0.162500 -0.360500 -25.000000
v -0.165179 0.523821 -25.014999
v -0.162500 0.526500 -25.000000
v -0.162500 -0.360500 -25.000000
v -0.162500 -0.360500 -25.000000
v -0.162500 0.526500 -25.000000
v -0.162500 -0.360500 25.000000
v -0.162500 0.526500 -25.000000
v -0.162500 0.526500 25.000000
v -0.162500 -0.360500 25.000000
v -0.162500 -0.360500 25.000000
v -0.162500 0.526500 25.000000
v -0.165179 -0.363180 25.014999
v -0.162500 0.526500 25.000000
v -0.165179 0.523821 25.014999
v -0.165179 -0.363180 25.014999
v -0.165179 -0.363180 25.014999
v -0.165179 0.523821 25.014999
v -0.172500 -0.370500 25.025982
v -0.165179 0.523821 25.014999
v -0.172500 0.516500 25.025982
v -0.172500 -0.370500 25.025982
v -0.172500 -0.370500 25.025982
v -0.172500 0.516500 25.025982
v -0.182500 -0.380500 25.029999
v -0.172500 0.516500 25.025982
v -0.182500 0.506500 25.029999
v -0.182500 -0.380500 25.029999
v -0.182500 0.506500 -25.029999
v -0.322500 0.506500 -25.029999
v -0.172500 0.516500 -25.025980
v -0.322500 0.506500 -25.029999
v -0.332500 0.516500 -25.025980
v -0.172500 0.516500 -25.025980
v -0.172500 0.516500 -25.025980
v -0.332500 0.516500 -25.025980
v -0.165179 0.523821 -25.014999
v -0.332500 0.516500 -25.025980
v -0.339821 0.523821 -25.014999
v -0.165179 0.523821 -25.014999
v -0.165179 0.523821 -25.014999
v -0.339821 0.523821 -25.014999
v -0.162500 0.526500 -25.000000
v -0.339821 0.523821 -25.014999
v -0.342500 0.526500 -25.000000
v -0.162500 0.526500 -25.000000
v -0.162500 0.526500 -25.000000
v -0.342500 0.526500 -25.000000
v -0.162500 0.526500 25.000000
v -0.342500 0.526500 -25.000000
v -0.342500 0.526500 25.000000
v -0.162500 0.526500 25.000000
v -0.162500 0.526500 25.000000
v -0.342500 0.526500 25.000000
v -0.165179 0.523821 25.014999
v -0.342500 0.526500 25.000000
v -0.339821 0.523821 25.014999
v -0.165179 0.523821 25.014999
v -0.165179 0.523821 25.014999
v -0.339821 0.523821 25.014999
v -0.172500 0.516500 25.025982
v -0.339821 0.523821 25.014999
v -0.332500 0.516500 25.025982
v -0.172500 0.516500 25.025982
v -0.172500 0.516500 25.025982
v -0.332500 0.516500 25.025982
v -0.182500 0.506500 25.029999
v -0.332500 0.516500 25.025982
v -0.322500 0.506500 25.029999
v -0.182500 0.506500 25.029999
v -0.322500 0.506500 -25.029999
v -0.322500 -0.506500 -25.029999
v -0.332500 0.516500 -25.025980
v -0.322500 -0.506500 -25.029999
v -0.332500 -0.516500 -25.025980
v -0.332500 0.516500 -25.025980
v -0.332500 0.516500 -25.025980
v -0.332500 -0.516500 -25.025980
v -0.339821 0.523821 -25.014999
v -0.332500 -0.516500 -25.025980
v -0.339821 -0.523821 -25.014999
v -0.339821 0.523821 -25.014999
v -0.339821 0.523821 -25.014999
v -0.339821 -0.523821 -25.014999
v -0.342500 0.526500 -25.000000
v -0.339821 -0.523821 -25.014999
v -0.342500 -0.526500 -25.000000
v -0.342500 0.526500 -25.000000
v -0.342500 0.526500 -25.000000
v -0.342500 -0.526500 -25.000000
v -0.342500 0.526500 25.000000
v -0.342500 -0.526500 -25.000000
v -0.342500 -0.526500 25.000000
v -0.342500 0.526500 25.000000
v -0.342500 0.526500 25.000000
v -0.342500 -0.526500 25.000000
v -0.339821 0.523821 25.014999
v -0.342500 -0.526500 25.000000
v -0.339821 -0.523821 25.014999
v -0.339821 0.523821 25.014999
v -0.339821 0.523821 25.014999
v -0.339821 -0.523821 25.014999
v -0.332500 0.516500 25.025982
v -0.339821 -0.523821 25.014999
v -0.332500 -0.516500 25.025982
v -0.332500 0.516500 25.025982
v -0.332500 0.516500 25.025982
v -0.332500 -0.516500 25.025982
v -0.322500 0.506500 25.029999
v -0.332500 -0.516500 25.025982
v -0.322500 -0.506500 25.029999
v -0.322500 0.506500 25.029999
v -0.322500 -0.506500 -25.029999
v 0.322500 -0.506500 -25.029999
v -0.332500 -0.516500 -25.025980
v 0.322500 -0.506500 -25.029999
v 0.332500 -0.516500 -25.025980
v -0.332500 -0.516500 -25.025980
v -0.332500 -0.516500 -25.025980
v 0.332500 -0.516500 -25.025980
v -0.339821 -0.523821 -25.014999
v 0.332500 -0.516500 -25.025980
v 0.339820 -0.523821 -25.014999
v -0.339821 -0.523821 -25.014999
v -0.339821 -0.523821 -25.014999
v 0.339820 -0.523821 -25.014999
v -0.342500 -0.526500 -25.000000
v 0.339820 -0.523821 -25.014999
v 0.342500 -0.526500 -25.000000
v -0.342500 -0.526500 -25.000000
v -0.342500 -0.526500 -25.000000
v 0.342500 -0.526500 -25.000000
v -0.342500 -0.526500 25.000000
v 0.342500 -0.526500 -25.000000
v 0.342500 -0.526500 25.000000
v -0.342500 -0.526500 25.000000
v -0.342500 -0.526500 25.000000
v 0.342500 -0.526500 25.000000
v -0.339821 -0.523821 25.014999
v 0.342500 -0.526500 25.000000
v 0.339820 -0.523821 25.014999
v -0.339821 -0.523821 25.014999
v -0.339821 -0.523821 25.014999
v 0.339820 -0.523821 25.014999
v -0.332500 -0.516500 25.025982
v 0.339820 -0.523821 25.014999
v 0.332500 -0.516500 25.025982
v -0.332500 -0.516500 25.025982
v -0.332500 -0.516500 25.025982
v 0.332500 -0.516500 25.025982
v -0.322500 -0.506500 25.029999
v 0.332500 -0.516500 25.025982
v 0.322500 -0.506500 25.029999
v -0.322500 -0.506500 25.029999