# Generated mesh
# vertices: 612, faces: 0

v 0.477000 -0.506500 -25.029999
v 0.342000 -0.506500 -25.029999
v 0.342000 0.362500 -25.029999
v -0.349000 -0.506500 -25.029999
v -0.477000 -0.506500 -25.029999
v -0.477000 0.506500 -25.029999
v 0.060000 -0.506500 -25.029999
v -0.072000 -0.506500 -25.029999
v -0.349000 0.359500 -25.029999
v 0.477000 0.506500 -25.029999
v 0.477000 -0.506500 -25.029999
v 0.342000 0.362500 -25.029999
v -0.349000 0.359500 -25.029999
v -0.349000 -0.506500 -25.029999
v -0.477000 0.506500 -25.029999
v 0.280000 0.506500 -25.029999
v 0.477000 0.506500 -25.029999
v 0.342000 0.362500 -25.029999
v -0.349000 0.359500 -25.029999
v -0.477000 0.506500 -25.029999
v -0.277000 0.506500 -25.029999
v 0.280000 0.506500 -25.029999
v 0.342000 0.362500 -25.029999
v 0.060000 -0.506500 -25.029999
v -0.349000 0.359500 -25.029999
v -0.277000 0.506500 -25.029999
v -0.005000 -0.346500 -25.029999
v -0.005000 -0.346500 -25.029999
v 0.280000 0.506500 -25.029999
v 0.060000 -0.506500 -25.029999
v 0.060000 -0.506500 -25.029999
v -0.349000 0.359500 -25.029999
v -0.005000 -0.346500 -25.029999
v 0.342000 0.362500 25.029999
v 0.342000 -0.506500 25.029999
v 0.477000 -0.506500 25.029999
v -0.477000 0.506500 25.029999
v -0.477000 -0.506500 25.029999
v -0.349000 -0.506500 25.029999
v -0.349000 0.359500 25.029999
v -0.072000 -0.506500 25.029999
v 0.060000 -0.506500 25.029999
v 0.342000 0.362500 25.029999
v 0.477000 -0.506500 25.029999
v 0.477000 0.506500 25.029999
v -0.477000 0.506500 25.029999
v -0.349000 -0.506500 25.029999
v -0.349000 0.359500 25.029999
v 0.342000 0.362500 25.029999
v 0.477000 0.506500 25.029999
v 0.280000 0.506500 25.029999
v -0.277000 0.506500 25.029999
v -0.477000 0.506500 25.029999
v -0.349000 0.359500 25.029999
v 0.060000 -0.506500 25.029999
v 0.342000 0.362500 25.029999
v 0.280000 0.506500 25.029999
v -0.005000 -0.346500 25.029999
v -0.277000 0.506500 25.029999
v -0.349000 0.359500 25.029999
v 0.060000 -0.506500 25.029999
v 0.280000 0.506500 25.029999
v -0.005000 -0.346500 25.029999
v -0.005000 -0.346500 25.029999
v -0.349000 0.359500 25.029999
v 0.060000 -0.506500 25.029999
v 0.477000 -0.506500 -25.029999
v 0.477000 0.506500 -25.029999
v 0.487000 -0.516500 -25.025980
v 0.477000 0.506500 -25.029999
v 0.487000 0.516500 -25.025980
v 0.487000 -0.516500 -25.025980
v 0.487000 -0.516500 -25.025980
v 0.487000 0.516500 -25.025980
v 0.494321 -0.523821 -25.014999
v 0.487000 0.516500 -25.025980
v 0.494321 0.523821 -25.014999
v 0.494321 -0.523821 -25.014999
v 0.494321 -0.523821 -25.014999
v 0.494321 0.523821 -25.014999
v 0.497000 -0.526500 -25.000000
v 0.494321 0.523821 -25.014999
v 0.497000 0.526500 -25.000000
v 0.497000 -0.526500 -25.000000
v 0.497000 -0.526500 -25.000000
v 0.497000 0.526500 -25.000000
v 0.497000 -0.526500 25.000000
v 0.497000 0.526500 -25.000000
v 0.497000 0.526500 25.000000
v 0.497000 -0.526500 25.000000
v 0.497000 -0.526500 25.000000
v 0.497000 0.526500 25.000000
v 0.494321 -0.523821 25.014999
v 0.497000 0.526500 25.000000
v 0.494321 0.523821 25.014999
v 0.494321 -0.523821 25.014999
v 0.494321 -0.523821 25.014999
v 0.494321 0.523821 25.014999
v 0.487000 -0.516500 25.025982
v 0.494321 0.523821 25.014999
v 0.487000 0.516500 25.025982
v 0.487000 -0.516500 25.025982
v 0.487000 -0.516500 25.025982
v 0.487000 0.516500 25.025982
v 0.477000 -0.506500 25.029999
v 0.487000 0.516500 25.025982
v 0.477000 0.506500 25.029999
v 0.477000 -0.506500 25.029999
v 0.477000 0.506500 -25.029999
v 0.280000 0.506500 -25.029999
v 0.487000 0.516500 -25.025980
v 0.280000 0.506500 -25.029999
v 0.272798 0.516500 -25.025980
v 0.487000 0.516500 -25.025980
v 0.487000 0.516500 -25.025980
v 0.272798 0.516500 -25.025980
v 0.494321 0.523821 -25.014999
v 0.272798 0.516500 -25.025980
v 0.267525 0.523821 -25.014999
v 0.494321 0.523821 -25.014999
v 0.494321 0.523821 -25.014999
v 0.267525 0.523821 -25.014999
v 0.497000 0.526500 -25.000000
v 0.267525 0.523821 -25.014999
v 0.265595 0.526500 -25.000000
v 0.497000 0.526500 -25.000000
v 0.497000 0.526500 -25.000000
v 0.265595 0.526500 -25.000000
v 0.497000 0.526500 25.000000
v 0.265595 0.526500 -25.000000
v 0.265595 0.526500 25.000000
v 0.497000 0.526500 25.000000
v 0.497000 0.526500 25.000000
v 0.265595 0.526500 25.000000
v 0.494321 0.523821 25.014999
v 0.265595 0.526500 25.000000
v 0.267525 0.523821 25.014999
v 0.494321 0.523821 25.014999
v 0.494321 0.523821 25.014999
v 0.267525 0.523821 25.014999
v 0.487000 0.516500 25.025982
v 0.267525 0.523821 25.014999
v 0.272798 0.516500 25.025982
v 0.487000 0.516500 25.025982
v 0.487000 0.516500 25.025982
v 0.272798 0.516500 25.025982
v 0.477000 0.506500 25.029999
v 0.272798 0.516500 25.025982
v 0.280000 0.506500 25.029999
v 0.477000 0.506500 25.029999
v 0.280000 0.506500 -25.029999
v -0.005000 -0.346500 -25.029999
v 0.272798 0.516500 -25.025980
v -0.005000 -0.346500 -25.029999
v -0.004903 -0.332358 -25.025980
v 0.272798 0.516500 -25.025980
v 0.272798 0.516500 -25.025980
v -0.004903 -0.332358 -25.025980
v 0.267525 0.523821 -25.014999
v -0.004903 -0.332358 -25.025980
v -0.004831 -0.322006 -25.014999
v 0.267525 0.523821 -25.014999
v 0.267525 0.523821 -25.014999
v -0.004831 -0.322006 -25.014999
v 0.265595 0.526500 -25.000000
v -0.004831 -0.322006 -25.014999
v -0.004805 -0.318216 -25.000000
v 0.265595 0.526500 -25.000000
v 0.265595 0.526500 -25.000000
v -0.004805 -0.318216 -25.000000
v 0.265595 0.526500 25.000000
v -0.004805 -0.318216 -25.000000
v -0.004805 -0.318216 25.000000
v 0.265595 0.526500 25.000000
v 0.265595 0.526500 25.000000
v -0.004805 -0.318216 25.000000
v 0.267525 0.523821 25.014999
v -0.004805 -0.318216 25.000000
v -0.004831 -0.322006 25.014999
v 0.267525 0.523821 25.014999
v 0.267525 0.523821 25.014999
v -0.004831 -0.322006 25.014999
v 0.272798 0.516500 25.025982
v -0.004831 -0.322006 25.014999
v -0.004903 -0.332358 25.025982
v 0.272798 0.516500 25.025982
v 0.272798 0.516500 25.025982
v -0.004903 -0.332358 25.025982
v 0.280000 0.506500 25.029999
v -0.004903 -0.332358 25.025982
v -0.005000 -0.346500 25.029999
v 0.280000 0.506500 25.029999
v -0.005000 -0.346500 -25.029999
v -0.277000 0.506500 -25.029999
v -0.004903 -0.332358 -25.025980
v -0.277000 0.506500 -25.029999
v -0.269693 0.516500 -25.025980
v -0.004903 -0.332358 -25.025980
v -0.004903 -0.332358 -25.025980
v -0.269693 0.516500 -25.025980
v -0.004831 -0.322006 -25.014999
v -0.269693 0.516500 -25.025980
v -0.264343 0.523821 -25.014999
v -0.004831 -0.322006 -25.014999
v -0.004831 -0.322006 -25.014999
v -0.264343 0.523821 -25.014999
v -0.004805 -0.318216 -25.000000
v -0.264343 0.523821 -25.014999
v -0.262385 0.526500 -25.000000
v -0.004805 -0.318216 -25.000000
v -0.004805 -0.318216 -25.000000
v -0.262385 0.526500 -25.000000
v -0.004805 -0.318216 25.000000
v -0.262385 0.526500 -25.000000
v -0.262385 0.526500 25.000000
v -0.004805 -0.318216 25.000000
v -0.004805 -0.318216 25.000000
v -0.262385 0.526500 25.000000
v -0.004831 -0.322006 25.014999
v -0.262385 0.526500 25.000000
v -0.264343 0.523821 25.014999
v -0.004831 -0.322006 25.014999
v -0.004831 -0.322006 25.014999
v -0.264343 0.523821 25.014999
v -0.004903 -0.332358 25.025982
v -0.264343 0.523821 25.014999
v -0.269693 0.516500 25.025982
v -0.004903 -0.332358 25.025982
v -0.004903 -0.332358 25.025982
v -0.269693 0.516500 25.025982
v -0.005000 -0.346500 25.029999
v -0.269693 0.516500 25.025982
v -0.277000 0.506500 25.029999
v -0.005000 -0.346500 25.029999
v -0.277000 0.506500 -25.029999
v -0.477000 0.506500 -25.029999
v -0.269693 0.516500 -25.025980
v -0.477000 0.506500 -25.029999
v -0.487000 0.516500 -25.025980
v -0.269693 0.516500 -25.025980
v -0.269693 0.516500 -25.025980
v -0.487000 0.516500 -25.025980
v -0.264343 0.523821 -25.014999
v -0.487000 0.516500 -25.025980
v -0.494321 0.523821 -25.014999
v -0.264343 0.523821 -25.014999
v -0.264343 0.523821 -25.014999
v -0.494321 0.523821 -25.014999
v -0.262385 0.526500 -25.000000
v -0.494321 0.523821 -25.014999
v -0.497000 0.526500 -25.000000
v -0.262385 0.526500 -25.000000
v -0.262385 0.526500 -25.000000
v -0.497000 0.526500 -25.000000
v -0.262385 0.526500 25.000000
v -0.497000 0.526500 -25.000000
v -0.497000 0.526500 25.000000
v -0.262385 0.526500 25.000000
v -0.262385 0.526500 25.000000
v -0.497000 0.526500 25.000000
v -0.264343 0.523821 25.014999
v -0.497000 0.526500 25.000000
v -0.494321 0.523821 25.014999
v -0.264343 0.523821 25.014999
v -0.264343 0.523821 25.014999
v -0.494321 0.523821 25.014999
v -0.269693 0.516500 25.025982
v -0.494321 0.523821 25.014999
v -0.487000 0.516500 25.025982
v -0.269693 0.516500 25.025982
v -0.269693 0.516500 25.025982
v -0.487000 0.516500 25.025982
v -0.277000 0.506500 25.029999
v -0.487000 0.516500 25.025982
v -0.477000 0.506500 25.029999
v -0.277000 0.506500 25.029999
v -0.477000 0.506500 -25.029999
v -0.477000 -0.506500 -25.029999
v -0.487000 0.516500 -25.025980
v -0.477000 -0.506500 -25.029999
v -0.487000 -0.516500 -25.025980
v -0.487000 0.516500 -25.025980
v -0.487000 0.516500 -25.025980
v -0.487000 -0.516500 -25.025980
v -0.494321 0.523821 -25.014999
v -0.487000 -0.516500 -25.025980
v -0.494321 -0.523821 -25.014999
v -0.494321 0.523821 -25.014999
v -0.494321 0.523821 -25.014999
v -0.494321 -0.523821 -25.014999
v -0.497000 0.526500 -25.000000
v -0.494321 -0.523821 -25.014999
v -0.497000 -0.526500 -25.000000
v -0.497000 0.526500 -25.000000
v -0.497000 0.526500 -25.000000
v -0.497000 -0.526500 -25.000000
v -0.497000 0.526500 25.000000
v -0.497000 -0.526500 -25.000000
v -0.497000 -0.526500 25.000000
v -0.497000 0.526500 25.000000
v -0.497000 0.526500 25.000000
v -0.497000 -0.526500 25.000000
v -0.494321 0.523821 25.014999
v -0.497000 -0.526500 25.000000
v -0.494321 -0.523821 25.014999
v -0.494321 0.523821 25.014999
v -0.494321 0.523821 25.014999
v -0.494321 -0.523821 25.014999
v -0.487000 0.516500 25.025982
v -0.494321 -0.523821 25.014999
v -0.487000 -0.516500 25.025982
v -0.487000 0.516500 25.025982
v -0.487000 0.516500 25.025982
v -0.487000 -0.516500 25.025982
v -0.477000 0.506500 25.029999
v -0.487000 -0.516500 25.025982
v -0.477000 -0.506500 25.029999
v -0.477000 0.506500 25.029999
v -0.477000 -0.506500 -25.029999
v -0.349000 -0.506500 -25.029999
v -0.487000 -0.516500 -25.025980
v -0.349000 -0.506500 -25.029999
v -0.339000 -0.516500 -25.025980
v -0.487000 -0.516500 -25.025980
v -0.487000 -0.516500 -25.025980
v -0.339000 -0.516500 -25.025980
v -0.494321 -0.523821 -25.014999
v -0.339000 -0.516500 -25.025980
v -0.331679 -0.523821 -25.014999
v -0.494321 -0.523821 -25.014999
v -0.494321 -0.523821 -25.014999
v -0.331679 -0.523821 -25.014999
v -0.497000 -0.526500 -25.000000
v -0.331679 -0.523821 -25.014999
v -0.329000 -0.526500 -25.000000
v -0.497000 -0.526500 -25.000000
v -0.497000 -0.526500 -25.000000
v -0.329000 -0.526500 -25.000000
v -0.497000 -0.526500 25.000000
v -0.329000 -0.526500 -25.000000
v -0.329000 -0.526500 25.000000
v -0.497000 -0.526500 25.000000
v -0.497000 -0.526500 25.000000
v -0.329000 -0.526500 25.000000
v -0.494321 -0.523821 25.014999
v -0.329000 -0.526500 25.000000
v -0.331679 -0.523821 25.014999
v -0.494321 -0.523821 25.014999
v -0.494321 -0.523821 25.014999
v -0.331679 -0.523821 25.014999
v -0.487000 -0.516500 25.025982
v -0.331679 -0.523821 25.014999
v -0.339000 -0.516500 25.025982
v -0.487000 -0.516500 25.025982
v -0.487000 -0.516500 25.025982
v -0.339000 -0.516500 25.025982
v -0.477000 -0.506500 25.029999
v -0.339000 -0.516500 25.025982
v -0.349000 -0.506500 25.029999
v -0.477000 -0.506500 25.029999
v -0.349000 -0.506500 -25.029999
v -0.349000 0.359500 -25.029999
v -0.339000 -0.516500 -25.025980
v -0.349000 0.359500 -25.029999
v -0.346820 0.345527 -25.025980
v -0.339000 -0.516500 -25.025980
v -0.339000 -0.516500 -25.025980
v -0.346820 0.345527 -25.025980
v -0.331679 -0.523821 -25.014999
v -0.346820 0.345527 -25.025980
v -0.345224 0.335298 -25.014999
v -0.331679 -0.523821 -25.014999
v -0.331679 -0.523821 -25.014999
v -0.345224 0.335298 -25.014999
v -0.329000 -0.526500 -25.000000
v -0.345224 0.335298 -25.014999
v -0.344639 0.331554 -25.000000
v -0.329000 -0.526500 -25.000000
v -0.329000 -0.526500 -25.000000
v -0.344639 0.331554 -25.000000
v -0.329000 -0.526500 25.000000
v -0.344639 0.331554 -25.000000
v -0.344639 0.331554 25.000000
v -0.329000 -0.526500 25.000000
v -0.329000 -0.526500 25.000000
v -0.344639 0.331554 25.000000
v -0.331679 -0.523821 25.014999
v -0.344639 0.331554 25.000000
v -0.345224 0.335298 25.014999
v -0.331679 -0.523821 25.014999
v -0.331679 -0.523821 25.014999
v -0.345224 0.335298 25.014999
v -0.339000 -0.516500 25.025982
v -0.345224 0.335298 25.014999
v -0.346820 0.345527 25.025982
v -0.339000 -0.516500 25.025982
v -0.339000 -0.516500 25.025982
v -0.346820 0.345527 25.025982
v -0.349000 -0.506500 25.029999
v -0.346820 0.345527 25.025982
v -0.349000 0.359500 25.029999
v -0.349000 -0.506500 25.029999
v -0.349000 0.359500 -25.029999
v -0.072000 -0.506500 -25.029999
v -0.346820 0.345527 -25.025980
v -0.072000 -0.506500 -25.029999
v -0.079300 -0.516500 -25.025980
v -0.346820 0.345527 -25.025980
v -0.346820 0.345527 -25.025980
v -0.079300 -0.516500 -25.025980
v -0.345224 0.335298 -25.014999
v -0.079300 -0.516500 -25.025980
v -0.084645 -0.523821 -25.014999
v -0.345224 0.335298 -25.014999
v -0.345224 0.335298 -25.014999
v -0.084645 -0.523821 -25.014999
v -0.344639 0.331554 -25.000000
v -0.084645 -0.523821 -25.014999
v -0.086601 -0.526500 -25.000000
v -0.344639 0.331554 -25.000000
v -0.344639 0.331554 -25.000000
v -0.086601 -0.526500 -25.000000
v -0.344639 0.331554 25.000000
v -0.086601 -0.526500 -25.000000
v -0.086601 -0.526500 25.000000
v -0.344639 0.331554 25.000000
v -0.344639 0.331554 25.000000
v -0.086601 -0.526500 25.000000
v -0.345224 0.335298 25.014999
v -0.086601 -0.526500 25.000000
v -0.084645 -0.523821 25.014999
v -0.345224 0.335298 25.014999
v -0.345224 0.335298 25.014999
v -0.084645 -0.523821 25.014999
v -0.346820 0.345527 25.025982
v -0.084645 -0.523821 25.014999
v -0.079300 -0.516500 25.025982
v -0.346820 0.345527 25.025982
v -0.346820 0.345527 25.025982
v -0.079300 -0.516500 25.025982
v -0.349000 0.359500 25.029999
v -0.079300 -0.516500 25.025982
v -0.072000 -0.506500 25.029999
v -0.349000 0.359500 25.029999
v -0.072000 -0.506500 -25.029999
v 0.060000 -0.506500 -25.029999
v -0.079300 -0.516500 -25.025980
v 0.060000 -0.506500 -25.029999
v 0.067268 -0.516500 -25.025980
v -0.079300 -0.516500 -25.025980
v -0.079300 -0.516500 -25.025980
v 0.067268 -0.516500 -25.025980
v -0.084645 -0.523821 -25.014999
v 0.067268 -0.516500 -25.025980
v 0.072589 -0.523821 -25.014999
v -0.084645 -0.523821 -25.014999
v -0.084645 -0.523821 -25.014999
v 0.072589 -0.523821 -25.014999
v -0.086601 -0.526500 -25.000000
v 0.072589 -0.523821 -25.014999
v 0.074537 -0.526500 -25.000000
v -0.086601 -0.526500 -25.000000
v -0.086601 -0.526500 -25.000000
v 0.074537 -0.526500 -25.000000
v -0.086601 -0.526500 25.000000
v 0.074537 -0.526500 -25.000000
v 0.074537 -0.526500 25.000000
v -0.086601 -0.526500 25.000000
v -0.086601 -0.526500 25.000000
v 0.074537 -0.526500 25.000000
v -0.084645 -0.523821 25.014999
v 0.074537 -0.526500 25.000000
v 0.072589 -0.523821 25.014999
v -0.084645 -0.523821 25.014999
v -0.084645 -0.523821 25.014999
v 0.072589 -0.523821 25.014999
v -0.079300 -0.516500 25.025982
v 0.072589 -0.523821 25.014999
v 0.067268 -0.516500 25.025982
v -0.079300 -0.516500 25.025982
v -0.079300 -0.516500 25.025982
v 0.067268 -0.516500 25.025982
v -0.072000 -0.506500 25.029999
v 0.067268 -0.516500 25.025982
v 0.060000 -0.506500 25.029999
v -0.072000 -0.506500 25.029999
v 0.060000 -0.506500 -25.029999
v 0.342000 0.362500 -25.029999
v 0.067268 -0.516500 -25.025980
v 0.342000 0.362500 -25.029999
v 0.339790 0.348532 -25.025980
v 0.067268 -0.516500 -25.025980
v 0.067268 -0.516500 -25.025980
v 0.339790 0.348532 -25.025980
v 0.072589 -0.523821 -25.014999
v 0.339790 0.348532 -25.025980
v 0.338173 0.338306 -25.014999
v 0.072589 -0.523821 -25.014999
v 0.072589 -0.523821 -25.014999
v 0.338173 0.338306 -25.014999
v 0.074537 -0.526500 -25.000000
v 0.338173 0.338306 -25.014999
v 0.337581 0.334563 -25.000000
v 0.074537 -0.526500 -25.000000
v 0.074537 -0.526500 -25.000000
v 0.337581 0.334563 -25.000000
v 0.074537 -0.526500 25.000000
v 0.337581 0.334563 -25.000000
v 0.337581 0.334563 25.000000
v 0.074537 -0.526500 25.000000
v 0.074537 -0.526500 25.000000
v 0.337581 0.334563 25.000000
v 0.072589 -0.523821 25.014999
v 0.337581 0.334563 25.000000
v 0.338173 0.338306 25.014999
v 0.072589 -0.523821 25.014999
v 0.072589 -0.523821 25.014999
v 0.338173 0.338306 25.014999
v 0.067268 -0.516500 25.025982
v 0.338173 0.338306 25.014999
v 0.339790 0.348532 25.025982
v 0.067268 -0.516500 25.025982
v 0.067268 -0.516500 25.025982
v 0.339790 0.348532 25.025982
v 0.060000 -0.506500 25.029999
v 0.339790 0.348532 25.025982
v 0.342000 0.362500 25.029999
v 0.060000 -0.506500 25.029999
v 0.342000 0.362500 -25.029999
v 0.342000 -0.506500 -25.029999
v 0.339790 0.348532 -25.025980
v 0.342000 -0.506500 -25.029999
v 0.332000 -0.516500 -25.025980
v 0.339790 0.348532 -25.025980
v 0.339790 0.348532 -25.025980
v 0.332000 -0.516500 -25.025980
v 0.338173 0.338306 -25.014999
v 0.332000 -0.516500 -25.025980
v 0.324679 -0.523821 -25.014999
v 0.338173 0.338306 -25.014999
v 0.338173 0.338306 -25.014999
v 0.324679 -0.523821 -25.014999
v 0.337581 0.334563 -25.000000
v 0.324679 -0.523821 -25.014999
v 0.322000 -0.526500 -25.000000
v 0.337581 0.334563 -25.000000
v 0.337581 0.334563 -25.000000
v 0.322000 -0.526500 -25.000000
v 0.337581 0.334563 25.000000
v 0.322000 -0.526500 -25.000000
v 0.322000 -0.526500 25.000000
v 0.337581 0.334563 25.000000
v 0.337581 0.334563 25.000000
v 0.322000 -0.526500 25.000000
v 0.338173 0.338306 25.014999
v 0.322000 -0.526500 25.000000
v 0.324679 -0.523821 25.014999
v 0.338173 0.338306 25.014999
v 0.338173 0.338306 25.014999
v 0.324679 -0.523821 25.014999
v 0.339790 0.348532 25.025982
v 0.324679 -0.523821 25.014999
v 0.332000 -0.516500 25.025982
v 0.339790 0.348532 25.025982
v 0.339790 0.348532 25.025982
v 0.332000 -0.516500 25.025982
v 0.342000 0.362500 25.029999
v 0.332000 -0.516500 25.025982
v 0.342000 -0.506500 25.029999
v 0.342000 0.362500 25.029999
v 0.342000 -0.506500 -25.029999
v 0.477000 -0.506500 -25.029999
v 0.332000 -0.516500 -25.025980
v 0.477000 -0.506500 -25.029999
v 0.487000 -0.516500 -25.025980
v 0.332000 -0.516500 -25.025980
v 0.332000 -0.516500 -25.025980
v 0.487000 -0.516500 -25.025980
v 0.324679 -0.523821 -25.014999
v 0.487000 -0.516500 -25.025980
v 0.494321 -0.523821 -25.014999
v 0.324679 -0.523821 -25.014999
v 0.324679 -0.523821 -25.014999
v 0.494321 -0.523821 -25.014999
v 0.322000 -0.526500 -25.000000
v 0.494321 -0.523821 -25.014999
v 0.497000 -0.526500 -25.000000
v 0.322000 -0.526500 -25.000000
v 0.322000 -0.526500 -25.000000
v 0.497000 -0.526500 -25.000000
v 0.322000 -0.526500 25.000000
v 0.497000 -0.526500 -25.000000
v 0.497000 -0.526500 25.000000
v 0.322000 -0.526500 25.000000
v 0.322000 -0.526500 25.000000
v 0.497000 -0.526500 25.000000
v 0.324679 -0.523821 25.014999
v 0.497000 -0.526500 25.000000
v 0.494321 -0.523821 25.014999
v 0.324679 -0.523821 25.014999
v 0.324679 -0.523821 25.014999
v 0.494321 -0.523821 25.014999
v 0.332000 -0.516500 25.025982
v 0.494321 -0.523821 25.014999
v 0.487000 -0.516500 25.025982
v 0.332000 -0.516500 25.025982
v 0.332000 -0.516500 25.025982
v 0.487000 -0.516500 25.025982
v 0.342000 -0.506500 25.029999
v 0.487000 -0.516500 25.025982
v 0.477000 -0.506500 25.029999
v 0.342000 -0.506500 25.029999