# Generated mesh
# vertices: 13, faces: 11

v 0.479154 -0.457462 0.000000
v 0.344154 -0.457462 0.000000
v 0.344154 0.411538 0.000000
v 0.062154 -0.457462 0.000000
v -0.069846 -0.457462 0.000000
v -0.346846 0.408538 0.000000
v -0.346846 -0.457462 0.000000
v -0.474846 -0.457462 0.000000
v -0.474846 0.555538 0.000000
v -0.274846 0.555538 0.000000
v -0.002846 -0.297462 0.000000
v 0.282154 0.555538 0.000000
v 0.479154 0.555538 0.000000
f 2 1 13
f 9 8 7
f 6 5 4
f 3 2 13
f 9 7 6
f 3 13 12
f 10 9 6
f 4 3 12
f 11 10 6
f 4 12 11
f 11 6 4