# Generated mesh
# vertices: 468, faces: 0

v 0.400500 -0.506500 -25.029999
v 0.250500 -0.506500 -25.029999
v -0.269500 0.316500 -25.029999
v 0.269500 0.506500 -25.029999
v 0.400500 0.506500 -25.029999
v 0.400500 -0.506500 -25.029999
v -0.400500 0.506500 -25.029999
v -0.249500 0.506500 -25.029999
v 0.269500 -0.313500 -25.029999
v -0.269500 -0.506500 -25.029999
v -0.400500 -0.506500 -25.029999
v -0.400500 0.506500 -25.029999
v 0.269500 -0.313500 -25.029999
v 0.269500 0.506500 -25.029999
v 0.400500 -0.506500 -25.029999
v -0.269500 0.316500 -25.029999
v -0.269500 -0.506500 -25.029999
v -0.400500 0.506500 -25.029999
v 0.269500 -0.313500 -25.029999
v 0.400500 -0.506500 -25.029999
v -0.269500 0.316500 -25.029999
v -0.269500 0.316500 -25.029999
v -0.400500 0.506500 -25.029999
v 0.269500 -0.313500 -25.029999
v -0.269500 0.316500 25.029999
v 0.250500 -0.506500 25.029999
v 0.400500 -0.506500 25.029999
v 0.400500 -0.506500 25.029999
v 0.400500 0.506500 25.029999
v 0.269500 0.506500 25.029999
v 0.269500 -0.313500 25.029999
v -0.249500 0.506500 25.029999
v -0.400500 0.506500 25.029999
v -0.400500 0.506500 25.029999
v -0.400500 -0.506500 25.029999
v -0.269500 -0.506500 25.029999
v 0.400500 -0.506500 25.029999
v 0.269500 0.506500 25.029999
v 0.269500 -0.313500 25.029999
v -0.400500 0.506500 25.029999
v -0.269500 -0.506500 25.029999
v -0.269500 0.316500 25.029999
v -0.269500 0.316500 25.029999
v 0.400500 -0.506500 25.029999
v 0.269500 -0.313500 25.029999
v 0.269500 -0.313500 25.029999
v -0.400500 0.506500 25.029999
v -0.269500 0.316500 25.029999
v 0.400500 -0.506500 -25.029999
v 0.400500 0.506500 -25.029999
v 0.410500 -0.516500 -25.025980
v 0.400500 0.506500 -25.029999
v 0.410500 0.516500 -25.025980
v 0.410500 -0.516500 -25.025980
v 0.410500 -0.516500 -25.025980
v 0.410500 0.516500 -25.025980
v 0.417821 -0.523821 -25.014999
v 0.410500 0.516500 -25.025980
v 0.417821 0.523821 -25.014999
v 0.417821 -0.523821 -25.014999
v 0.417821 -0.523821 -25.014999
v 0.417821 0.523821 -25.014999
v 0.420500 -0.526500 -25.000000
v 0.417821 0.523821 -25.014999
v 0.420500 0.526500 -25.000000
v 0.420500 -0.526500 -25.000000
v 0.420500 -0.526500 -25.000000
v 0.420500 0.526500 -25.000000
v 0.420500 -0.526500 25.000000
v 0.420500 0.526500 -25.000000
v 0.420500 0.526500 25.000000
v 0.420500 -0.526500 25.000000
v 0.420500 -0.526500 25.000000
v 0.420500 0.526500 25.000000
v 0.417821 -0.523821 25.014999
v 0.420500 0.526500 25.000000
v 0.417821 0.523821 25.014999
v 0.417821 -0.523821 25.014999
v 0.417821 -0.523821 25.014999
v 0.417821 0.523821 25.014999
v 0.410500 -0.516500 25.025982
v 0.417821 0.523821 25.014999
v 0.410500 0.516500 25.025982
v 0.410500 -0.516500 25.025982
v 0.410500 -0.516500 25.025982
v 0.410500 0.516500 25.025982
v 0.400500 -0.506500 25.029999
v 0.410500 0.516500 25.025982
v 0.400500 0.506500 25.029999
v 0.400500 -0.506500 25.029999
v 0.400500 0.506500 -25.029999
v 0.269500 0.506500 -25.029999
v 0.410500 0.516500 -25.025980
v 0.269500 0.506500 -25.029999
v 0.259500 0.516500 -25.025980
v 0.410500 0.516500 -25.025980
v 0.410500 0.516500 -25.025980
v 0.259500 0.516500 -25.025980
v 0.417821 0.523821 -25.014999
v 0.259500 0.516500 -25.025980
v 0.252180 0.523821 -25.014999
v 0.417821 0.523821 -25.014999
v 0.417821 0.523821 -25.014999
v 0.252180 0.523821 -25.014999
v 0.420500 0.526500 -25.000000
v 0.252180 0.523821 -25.014999
v 0.249500 0.526500 -25.000000
v 0.420500 0.526500 -25.000000
v 0.420500 0.526500 -25.000000
v 0.249500 0.526500 -25.000000
v 0.420500 0.526500 25.000000
v 0.249500 0.526500 -25.000000
v 0.249500 0.526500 25.000000
v 0.420500 0.526500 25.000000
v 0.420500 0.526500 25.000000
v 0.249500 0.526500 25.000000
v 0.417821 0.523821 25.014999
v 0.249500 0.526500 25.000000
v 0.252180 0.523821 25.014999
v 0.417821 0.523821 25.014999
v 0.417821 0.523821 25.014999
v 0.252180 0.523821 25.014999
v 0.410500 0.516500 25.025982
v 0.252180 0.523821 25.014999
v 0.259500 0.516500 25.025982
v 0.410500 0.516500 25.025982
v 0.410500 0.516500 25.025982
v 0.259500 0.516500 25.025982
v 0.400500 0.506500 25.029999
v 0.259500 0.516500 25.025982
v 0.269500 0.506500 25.029999
v 0.400500 0.506500 25.029999
v 0.269500 0.506500 -25.029999
v 0.269500 -0.313500 -25.029999
v 0.259500 0.516500 -25.025980
v 0.269500 -0.313500 -25.029999
v 0.265563 -0.299917 -25.025980
v 0.259500 0.516500 -25.025980
v 0.259500 0.516500 -25.025980
v 0.265563 -0.299917 -25.025980
v 0.252180 0.523821 -25.014999
v 0.265563 -0.299917 -25.025980
v 0.262680 -0.289974 -25.014999
v 0.252180 0.523821 -25.014999
v 0.252180 0.523821 -25.014999
v 0.262680 -0.289974 -25.014999
v 0.249500 0.526500 -25.000000
v 0.262680 -0.289974 -25.014999
v 0.261625 -0.286334 -25.000000
v 0.249500 0.526500 -25.000000
v 0.249500 0.526500 -25.000000
v 0.261625 -0.286334 -25.000000
v 0.249500 0.526500 25.000000
v 0.261625 -0.286334 -25.000000
v 0.261625 -0.286334 25.000000
v 0.249500 0.526500 25.000000
v 0.249500 0.526500 25.000000
v 0.261625 -0.286334 25.000000
v 0.252180 0.523821 25.014999
v 0.261625 -0.286334 25.000000
v 0.262680 -0.289974 25.014999
v 0.252180 0.523821 25.014999
v 0.252180 0.523821 25.014999
v 0.262680 -0.289974 25.014999
v 0.259500 0.516500 25.025982
v 0.262680 -0.289974 25.014999
v 0.265563 -0.299917 25.025982
v 0.259500 0.516500 25.025982
v 0.259500 0.516500 25.025982
v 0.265563 -0.299917 25.025982
v 0.269500 0.506500 25.029999
v 0.265563 -0.299917 25.025982
v 0.269500 -0.313500 25.029999
v 0.269500 0.506500 25.029999
v 0.269500 -0.313500 -25.029999
v -0.249500 0.506500 -25.029999
v 0.265563 -0.299917 -25.025980
v -0.249500 0.506500 -25.029999
v -0.243995 0.516500 -25.025980
v 0.265563 -0.299917 -25.025980
v 0.265563 -0.299917 -25.025980
v -0.243995 0.516500 -25.025980
v 0.262680 -0.289974 -25.014999
v -0.243995 0.516500 -25.025980
v -0.239964 0.523821 -25.014999
v 0.262680 -0.289974 -25.014999
v 0.262680 -0.289974 -25.014999
v -0.239964 0.523821 -25.014999
v 0.261625 -0.286334 -25.000000
v -0.239964 0.523821 -25.014999
v -0.238489 0.526500 -25.000000
v 0.261625 -0.286334 -25.000000
v 0.261625 -0.286334 -25.000000
v -0.238489 0.526500 -25.000000
v 0.261625 -0.286334 25.000000
v -0.238489 0.526500 -25.000000
v -0.238489 0.526500 25.000000
v 0.261625 -0.286334 25.000000
v 0.261625 -0.286334 25.000000
v -0.238489 0.526500 25.000000
v 0.262680 -0.289974 25.014999
v -0.238489 0.526500 25.000000
v -0.239964 0.523821 25.014999
v 0.262680 -0.289974 25.014999
v 0.262680 -0.289974 25.014999
v -0.239964 0.523821 25.014999
v 0.265563 -0.299917 25.025982
v -0.239964 0.523821 25.014999
v -0.243995 0.516500 25.025982
v 0.265563 -0.299917 25.025982
v 0.265563 -0.299917 25.025982
v -0.243995 0.516500 25.025982
v 0.269500 -0.313500 25.029999
v -0.243995 0.516500 25.025982
v -0.249500 0.506500 25.029999
v 0.269500 -0.313500 25.029999
v -0.249500 0.506500 -25.029999
v -0.400500 0.506500 -25.029999
v -0.243995 0.516500 -25.025980
v -0.400500 0.506500 -25.029999
v -0.410500 0.516500 -25.025980
v -0.243995 0.516500 -25.025980
v -0.243995 0.516500 -25.025980
v -0.410500 0.516500 -25.025980
v -0.239964 0.523821 -25.014999
v -0.410500 0.516500 -25.025980
v -0.417821 0.523821 -25.014999
v -0.239964 0.523821 -25.014999
v -0.239964 0.523821 -25.014999
v -0.417821 0.523821 -25.014999
v -0.238489 0.526500 -25.000000
v -0.417821 0.523821 -25.014999
v -0.420500 0.526500 -25.000000
v -0.238489 0.526500 -25.000000
v -0.238489 0.526500 -25.000000
v -0.420500 0.526500 -25.000000
v -0.238489 0.526500 25.000000
v -0.420500 0.526500 -25.000000
v -0.420500 0.526500 25.000000
v -0.238489 0.526500 25.000000
v -0.238489 0.526500 25.000000
v -0.420500 0.526500 25.000000
v -0.239964 0.523821 25.014999
v -0.420500 0.526500 25.000000
v -0.417821 0.523821 25.014999
v -0.239964 0.523821 25.014999
v -0.239964 0.523821 25.014999
v -0.417821 0.523821 25.014999
v -0.243995 0.516500 25.025982
v -0.417821 0.523821 25.014999
v -0.410500 0.516500 25.025982
v -0.243995 0.516500 25.025982
v -0.243995 0.516500 25.025982
v -0.410500 0.516500 25.025982
v -0.249500 0.506500 25.029999
v -0.410500 0.516500 25.025982
v -0.400500 0.506500 25.029999
v -0.249500 0.506500 25.029999
v -0.400500 0.506500 -25.029999
v -0.400500 -0.506500 -25.029999
v -0.410500 0.516500 -25.025980
v -0.400500 -0.506500 -25.029999
v -0.410500 -0.516500 -25.025980
v -0.410500 0.516500 -25.025980
v -0.410500 0.516500 -25.025980
v -0.410500 -0.516500 -25.025980
v -0.417821 0.523821 -25.014999
v -0.410500 -0.516500 -25.025980
v -0.417821 -0.523821 -25.014999
v -0.417821 0.523821 -25.014999
v -0.417821 0.523821 -25.014999
v -0.417821 -0.523821 -25.014999
v -0.420500 0.526500 -25.000000
v -0.417821 -0.523821 -25.014999
v -0.420500 -0.526500 -25.000000
v -0.420500 0.526500 -25.000000
v -0.420500 0.526500 -25.000000
v -0.420500 -0.526500 -25.000000
v -0.420500 0.526500 25.000000
v -0.420500 -0.526500 -25.000000
v -0.420500 -0.526500 25.000000
v -0.420500 0.526500 25.000000
v -0.420500 0.526500 25.000000
v -0.420500 -0.526500 25.000000
v -0.417821 0.523821 25.014999
v -0.420500 -0.526500 25.000000
v -0.417821 -0.523821 25.014999
v -0.417821 0.523821 25.014999
v -0.417821 0.523821 25.014999
v -0.417821 -0.523821 25.014999
v -0.410500 0.516500 25.025982
v -0.417821 -0.523821 25.014999
v -0.410500 -0.516500 25.025982
v -0.410500 0.516500 25.025982
v -0.410500 0.516500 25.025982
v -0.410500 -0.516500 25.025982
v -0.400500 0.506500 25.029999
v -0.410500 -0.516500 25.025982
v -0.400500 -0.506500 25.029999
v -0.400500 0.506500 25.029999
v -0.400500 -0.506500 -25.029999
v -0.269500 -0.506500 -25.029999
v -0.410500 -0.516500 -25.025980
v -0.269500 -0.506500 -25.029999
v -0.259500 -0.516500 -25.025980
v -0.410500 -0.516500 -25.025980
v -0.410500 -0.516500 -25.025980
v -0.259500 -0.516500 -25.025980
v -0.417821 -0.523821 -25.014999
v -0.259500 -0.516500 -25.025980
v -0.252179 -0.523821 -25.014999
v -0.417821 -0.523821 -25.014999
v -0.417821 -0.523821 -25.014999
v -0.252179 -0.523821 -25.014999
v -0.420500 -0.526500 -25.000000
v -0.252179 -0.523821 -25.014999
v -0.249500 -0.526500 -25.000000
v -0.420500 -0.526500 -25.000000
v -0.420500 -0.526500 -25.000000
v -0.249500 -0.526500 -25.000000
v -0.420500 -0.526500 25.000000
v -0.249500 -0.526500 -25.000000
v -0.249500 -0.526500 25.000000
v -0.420500 -0.526500 25.000000
v -0.420500 -0.526500 25.000000
v -0.249500 -0.526500 25.000000
v -0.417821 -0.523821 25.014999
v -0.249500 -0.526500 25.000000
v -0.252179 -0.523821 25.014999
v -0.417821 -0.523821 25.014999
v -0.417821 -0.523821 25.014999
v -0.252179 -0.523821 25.014999
v -0.410500 -0.516500 25.025982
v -0.252179 -0.523821 25.014999
v -0.259500 -0.516500 25.025982
v -0.410500 -0.516500 25.025982
v -0.410500 -0.516500 25.025982
v -0.259500 -0.516500 25.025982
v -0.400500 -0.506500 25.029999
v -0.259500 -0.516500 25.025982
v -0.269500 -0.506500 25.029999
v -0.400500 -0.506500 25.029999
v -0.269500 -0.506500 -25.029999
v -0.269500 0.316500 -25.029999
v -0.259500 -0.516500 -25.025980
v -0.269500 0.316500 -25.029999
v -0.265568 0.302915 -25.025980
v -0.259500 -0.516500 -25.025980
v -0.259500 -0.516500 -25.025980
v -0.265568 0.302915 -25.025980
v -0.252179 -0.523821 -25.014999
v -0.265568 0.302915 -25.025980
v -0.262690 0.292971 -25.014999
v -0.252179 -0.523821 -25.014999
v -0.252179 -0.523821 -25.014999
v -0.262690 0.292971 -25.014999
v -0.249500 -0.526500 -25.000000
v -0.262690 0.292971 -25.014999
v -0.261636 0.289331 -25.000000
v -0.249500 -0.526500 -25.000000
v -0.249500 -0.526500 -25.000000
v -0.261636 0.289331 -25.000000
v -0.249500 -0.526500 25.000000
v -0.261636 0.289331 -25.000000
v -0.261636 0.289331 25.000000
v -0.249500 -0.526500 25.000000
v -0.249500 -0.526500 25.000000
v -0.261636 0.289331 25.000000
v -0.252179 -0.523821 25.014999
v -0.261636 0.289331 25.000000
v -0.262690 0.292971 25.014999
v -0.252179 -0.523821 25.014999
v -0.252179 -0.523821 25.014999
v -0.262690 0.292971 25.014999
v -0.259500 -0.516500 25.025982
v -0.262690 0.292971 25.014999
v -0.265568 0.302915 25.025982
v -0.259500 -0.516500 25.025982
v -0.259500 -0.516500 25.025982
v -0.265568 0.302915 25.025982
v -0.269500 -0.506500 25.029999
v -0.265568 0.302915 25.025982
v -0.269500 0.316500 25.029999
v -0.269500 -0.506500 25.029999
v -0.269500 0.316500 -25.029999
v 0.250500 -0.506500 -25.029999
v -0.265568 0.302915 -25.025980
v 0.250500 -0.506500 -25.029999
v 0.244990 -0.516500 -25.025980
v -0.265568 0.302915 -25.025980
v -0.265568 0.302915 -25.025980
v 0.244990 -0.516500 -25.025980
v -0.262690 0.292971 -25.014999
v 0.244990 -0.516500 -25.025980
v 0.240956 -0.523821 -25.014999
v -0.262690 0.292971 -25.014999
v -0.262690 0.292971 -25.014999
v 0.240956 -0.523821 -25.014999
v -0.261636 0.289331 -25.000000
v 0.240956 -0.523821 -25.014999
v 0.239479 -0.526500 -25.000000
v -0.261636 0.289331 -25.000000
v -0.261636 0.289331 -25.000000
v 0.239479 -0.526500 -25.000000
v -0.261636 0.289331 25.000000
v 0.239479 -0.526500 -25.000000
v 0.239479 -0.526500 25.000000
v -0.261636 0.289331 25.000000
v -0.261636 0.289331 25.000000
v 0.239479 -0.526500 25.000000
v -0.262690 0.292971 25.014999
v 0.239479 -0.526500 25.000000
v 0.240956 -0.523821 25.014999
v -0.262690 0.292971 25.014999
v -0.262690 0.292971 25.014999
v 0.240956 -0.523821 25.014999
v -0.265568 0.302915 25.025982
v 0.240956 -0.523821 25.014999
v 0.244990 -0.516500 25.025982
v -0.265568 0.302915 25.025982
v -0.265568 0.302915 25.025982
v 0.244990 -0.516500 25.025982
v -0.269500 0.316500 25.029999
v 0.244990 -0.516500 25.025982
v 0.250500 -0.506500 25.029999
v -0.269500 0.316500 25.029999
v 0.250500 -0.506500 -25.029999
v 0.400500 -0.506500 -25.029999
v 0.244990 -0.516500 -25.025980
v 0.400500 -0.506500 -25.029999
v 0.410500 -0.516500 -25.025980
v 0.244990 -0.516500 -25.025980
v 0.244990 -0.516500 -25.025980
v 0.410500 -0.516500 -25.025980
v 0.240956 -0.523821 -25.014999
v 0.410500 -0.516500 -25.025980
v 0.417821 -0.523821 -25.014999
v 0.240956 -0.523821 -25.014999
v 0.240956 -0.523821 -25.014999
v 0.417821 -0.523821 -25.014999
v 0.239479 -0.526500 -25.000000
v 0.417821 -0.523821 -25.014999
v 0.420500 -0.526500 -25.000000
v 0.239479 -0.526500 -25.000000
v 0.239479 -0.526500 -25.000000
v 0.420500 -0.526500 -25.000000
v 0.239479 -0.526500 25.000000
v 0.420500 -0.526500 -25.000000
v 0.420500 -0.526500 25.000000
v 0.239479 -0.526500 25.000000
v 0.239479 -0.526500 25.000000
v 0.420500 -0.526500 25.000000
v 0.240956 -0.523821 25.014999
v 0.420500 -0.526500 25.000000
v 0.417821 -0.523821 25.014999
v 0.240956 -0.523821 25.014999
v 0.240956 -0.523821 25.014999
v 0.417821 -0.523821 25.014999
v 0.244990 -0.516500 25.025982
v 0.417821 -0.523821 25.014999
v 0.410500 -0.516500 25.025982
v 0.244990 -0.516500 25.025982
v 0.244990 -0.516500 25.025982
v 0.410500 -0.516500 25.025982
v 0.250500 -0.506500 25.029999
v 0.410500 -0.516500 25.025982
v 0.400500 -0.506500 25.029999
v 0.250500 -0.506500 25.029999