# Generated mesh
# vertices: 3072, faces: 0

v -0.331749 0.076249 -25.029999
v -0.336999 -0.003501 -25.029999
v -0.478999 -0.003501 -25.029999
v -0.478999 -0.003501 -25.029999
v -0.336999 -0.003501 -25.029999
v -0.331749 -0.082876 -25.029999
v -0.447499 -0.209501 -25.029999
v -0.471124 -0.111251 -25.029999
v -0.478999 -0.003501 -25.029999
v -0.352999 -0.377501 -25.029999
v -0.408124 -0.298251 -25.029999
v -0.447499 -0.209501 -25.029999
v -0.196749 -0.494501 -25.029999
v -0.280187 -0.445751 -25.029999
v -0.352999 -0.377501 -25.029999
v 0.002001 -0.533501 -25.029999
v -0.102687 -0.523751 -25.029999
v -0.196749 -0.494501 -25.029999
v 0.200751 -0.493001 -25.029999
v 0.106938 -0.523376 -25.029999
v 0.002001 -0.533501 -25.029999
v 0.355001 -0.371501 -25.029999
v 0.283438 -0.442376 -25.029999
v 0.200751 -0.493001 -25.029999
v 0.448001 -0.202001 -25.029999
v 0.409251 -0.291376 -25.029999
v 0.355001 -0.371501 -25.029999
v 0.479001 0.004499 -25.029999
v 0.471251 -0.103376 -25.029999
v 0.448001 -0.202001 -25.029999
v 0.448001 0.207999 -25.029999
v 0.471251 0.110874 -25.029999
v 0.479001 0.004499 -25.029999
v 0.355001 0.374499 -25.029999
v 0.409251 0.295874 -25.029999
v 0.448001 0.207999 -25.029999
v 0.201751 0.493749 -25.029999
v 0.283688 0.444062 -25.029999
v 0.355001 0.374499 -25.029999
v 0.006001 0.533499 -25.029999
v 0.109188 0.523562 -25.029999
v 0.201751 0.493749 -25.029999
v -0.194499 0.493249 -25.029999
v -0.099624 0.523437 -25.029999
v 0.006001 0.533499 -25.029999
v -0.351999 0.372499 -25.029999
v -0.278624 0.442937 -25.029999
v -0.194499 0.493249 -25.029999
v -0.447249 0.202499 -25.029999
v -0.407562 0.291999 -25.029999
v -0.351999 0.372499 -25.029999
v -0.478999 -0.003501 -25.029999
v -0.471062 0.103999 -25.029999
v -0.447249 0.202499 -25.029999
v -0.315999 0.149499 -25.029999
v -0.331749 0.076249 -25.029999
v -0.478999 -0.003501 -25.029999
v -0.478999 -0.003501 -25.029999
v -0.331749 -0.082876 -25.029999
v -0.315999 -0.156001 -25.029999
v -0.352999 -0.377501 -25.029999
v -0.447499 -0.209501 -25.029999
v -0.478999 -0.003501 -25.029999
v 0.002001 -0.533501 -25.029999
v -0.196749 -0.494501 -25.029999
v -0.352999 -0.377501 -25.029999
v 0.355001 -0.371501 -25.029999
v 0.200751 -0.493001 -25.029999
v 0.002001 -0.533501 -25.029999
v 0.479001 0.004499 -25.029999
v 0.448001 -0.202001 -25.029999
v 0.355001 -0.371501 -25.029999
v 0.355001 0.374499 -25.029999
v 0.448001 0.207999 -25.029999
v 0.479001 0.004499 -25.029999
v 0.006001 0.533499 -25.029999
v 0.201751 0.493749 -25.029999
v 0.355001 0.374499 -25.029999
v -0.351999 0.372499 -25.029999
v -0.194499 0.493249 -25.029999
v 0.006001 0.533499 -25.029999
v -0.478999 -0.003501 -25.029999
v -0.447249 0.202499 -25.029999
v -0.351999 0.372499 -25.029999
v -0.289749 0.216249 -25.029999
v -0.315999 0.149499 -25.029999
v -0.478999 -0.003501 -25.029999
v -0.478999 -0.003501 -25.029999
v -0.315999 -0.156001 -25.029999
v -0.289749 -0.222876 -25.029999
v 0.355001 0.374499 -25.029999
v 0.479001 0.004499 -25.029999
v 0.355001 -0.371501 -25.029999
v -0.289749 0.216249 -25.029999
v -0.478999 -0.003501 -25.029999
v -0.351999 0.372499 -25.029999
v -0.478999 -0.003501 -25.029999
v -0.289749 -0.222876 -25.029999
v -0.252999 -0.283501 -25.029999
v -0.252999 0.276499 -25.029999
v -0.289749 0.216249 -25.029999
v -0.351999 0.372499 -25.029999
v -0.352999 -0.377501 -25.029999
v -0.478999 -0.003501 -25.029999
v -0.252999 -0.283501 -25.029999
v -0.201499 0.332499 -25.029999
v -0.252999 0.276499 -25.029999
v -0.351999 0.372499 -25.029999
v -0.352999 -0.377501 -25.029999
v -0.252999 -0.283501 -25.029999
v -0.202249 -0.338626 -25.029999
v -0.201499 0.332499 -25.029999
v -0.351999 0.372499 -25.029999
v 0.006001 0.533499 -25.029999
v -0.352999 -0.377501 -25.029999
v -0.202249 -0.338626 -25.029999
v -0.142999 -0.378001 -25.029999
v -0.141999 0.372499 -25.029999
v -0.201499 0.332499 -25.029999
v 0.006001 0.533499 -25.029999
v -0.352999 -0.377501 -25.029999
v -0.142999 -0.378001 -25.029999
v -0.075249 -0.401626 -25.029999
v -0.074499 0.396499 -25.029999
v -0.141999 0.372499 -25.029999
v 0.006001 0.533499 -25.029999
v -0.352999 -0.377501 -25.029999
v -0.075249 -0.401626 -25.029999
v 0.001001 -0.409501 -25.029999
v 0.001001 0.404499 -25.029999
v -0.074499 0.396499 -25.029999
v 0.006001 0.533499 -25.029999
v 0.002001 -0.533501 -25.029999
v -0.352999 -0.377501 -25.029999
v 0.001001 -0.409501 -25.029999
v 0.001001 0.404499 -25.029999
v 0.006001 0.533499 -25.029999
v 0.355001 0.374499 -25.029999
v 0.002001 -0.533501 -25.029999
v 0.001001 -0.409501 -25.029999
v 0.075938 -0.401563 -25.029999
v 0.076813 0.396437 -25.029999
v 0.001001 0.404499 -25.029999
v 0.355001 0.374499 -25.029999
v 0.002001 -0.533501 -25.029999
v 0.075938 -0.401563 -25.029999
v 0.142751 -0.377751 -25.029999
v 0.144251 0.372249 -25.029999
v 0.076813 0.396437 -25.029999
v 0.355001 0.374499 -25.029999
v 0.002001 -0.533501 -25.029999
v 0.142751 -0.377751 -25.029999
v 0.201438 -0.338063 -25.029999
v 0.203313 0.331937 -25.029999
v 0.144251 0.372249 -25.029999
v 0.355001 0.374499 -25.029999
v 0.355001 -0.371501 -25.029999
v 0.002001 -0.533501 -25.029999
v 0.201438 -0.338063 -25.029999
v 0.254001 0.275499 -25.029999
v 0.203313 0.331937 -25.029999
v 0.355001 0.374499 -25.029999
v 0.355001 -0.371501 -25.029999
v 0.201438 -0.338063 -25.029999
v 0.252001 -0.282501 -25.029999
v 0.289876 0.215312 -25.029999
v 0.254001 0.275499 -25.029999
v 0.355001 0.374499 -25.029999
v 0.355001 -0.371501 -25.029999
v 0.252001 -0.282501 -25.029999
v 0.288751 -0.221938 -25.029999
v 0.315501 0.148749 -25.029999
v 0.289876 0.215312 -25.029999
v 0.355001 0.374499 -25.029999
v 0.355001 -0.371501 -25.029999
v 0.288751 -0.221938 -25.029999
v 0.315001 -0.155251 -25.029999
v 0.330876 0.075812 -25.029999
v 0.315501 0.148749 -25.029999
v 0.355001 0.374499 -25.029999
v 0.355001 -0.371501 -25.029999
v 0.315001 -0.155251 -25.029999
v 0.330751 -0.082438 -25.029999
v 0.336001 -0.003501 -25.029999
v 0.330876 0.075812 -25.029999
v 0.355001 0.374499 -25.029999
v 0.355001 -0.371501 -25.029999
v 0.330751 -0.082438 -25.029999
v 0.336001 -0.003501 -25.029999
v 0.336001 -0.003501 -25.029999
v 0.355001 0.374499 -25.029999
v 0.355001 -0.371501 -25.029999
v -0.478999 -0.003501 25.029999
v -0.336999 -0.003501 25.029999
v -0.331749 0.076249 25.029999
v -0.331749 -0.082876 25.029999
v -0.336999 -0.003501 25.029999
v -0.478999 -0.003501 25.029999
v -0.478999 -0.003501 25.029999
v -0.471124 -0.111251 25.029999
v -0.447499 -0.209501 25.029999
v -0.447499 -0.209501 25.029999
v -0.408124 -0.298251 25.029999
v -0.352999 -0.377501 25.029999
v -0.352999 -0.377501 25.029999
v -0.280187 -0.445751 25.029999
v -0.196749 -0.494501 25.029999
v -0.196749 -0.494501 25.029999
v -0.102687 -0.523751 25.029999
v 0.002001 -0.533501 25.029999
v 0.002001 -0.533501 25.029999
v 0.106938 -0.523376 25.029999
v 0.200751 -0.493001 25.029999
v 0.200751 -0.493001 25.029999
v 0.283438 -0.442376 25.029999
v 0.355001 -0.371501 25.029999
v 0.355001 -0.371501 25.029999
v 0.409251 -0.291376 25.029999
v 0.448001 -0.202001 25.029999
v 0.448001 -0.202001 25.029999
v 0.471251 -0.103376 25.029999
v 0.479001 0.004499 25.029999
v 0.479001 0.004499 25.029999
v 0.471251 0.110874 25.029999
v 0.448001 0.207999 25.029999
v 0.448001 0.207999 25.029999
v 0.409251 0.295874 25.029999
v 0.355001 0.374499 25.029999
v 0.355001 0.374499 25.029999
v 0.283688 0.444062 25.029999
v 0.201751 0.493749 25.029999
v 0.201751 0.493749 25.029999
v 0.109188 0.523562 25.029999
v 0.006001 0.533499 25.029999
v 0.006001 0.533499 25.029999
v -0.099624 0.523437 25.029999
v -0.194499 0.493249 25.029999
v -0.194499 0.493249 25.029999
v -0.278624 0.442937 25.029999
v -0.351999 0.372499 25.029999
v -0.351999 0.372499 25.029999
v -0.407562 0.291999 25.029999
v -0.447249 0.202499 25.029999
v -0.447249 0.202499 25.029999
v -0.471062 0.103999 25.029999
v -0.478999 -0.003501 25.029999
v -0.478999 -0.003501 25.029999
v -0.331749 0.076249 25.029999
v -0.315999 0.149499 25.029999
v -0.315999 -0.156001 25.029999
v -0.331749 -0.082876 25.029999
v -0.478999 -0.003501 25.029999
v -0.478999 -0.003501 25.029999
v -0.447499 -0.209501 25.029999
v -0.352999 -0.377501 25.029999
v -0.352999 -0.377501 25.029999
v -0.196749 -0.494501 25.029999
v 0.002001 -0.533501 25.029999
v 0.002001 -0.533501 25.029999
v 0.200751 -0.493001 25.029999
v 0.355001 -0.371501 25.029999
v 0.355001 -0.371501 25.029999
v 0.448001 -0.202001 25.029999
v 0.479001 0.004499 25.029999
v 0.479001 0.004499 25.029999
v 0.448001 0.207999 25.029999
v 0.355001 0.374499 25.029999
v 0.355001 0.374499 25.029999
v 0.201751 0.493749 25.029999
v 0.006001 0.533499 25.029999
v 0.006001 0.533499 25.029999
v -0.194499 0.493249 25.029999
v -0.351999 0.372499 25.029999
v -0.351999 0.372499 25.029999
v -0.447249 0.202499 25.029999
v -0.478999 -0.003501 25.029999
v -0.478999 -0.003501 25.029999
v -0.315999 0.149499 25.029999
v -0.289749 0.216249 25.029999
v -0.289749 -0.222876 25.029999
v -0.315999 -0.156001 25.029999
v -0.478999 -0.003501 25.029999
v 0.355001 -0.371501 25.029999
v 0.479001 0.004499 25.029999
v 0.355001 0.374499 25.029999
v -0.351999 0.372499 25.029999
v -0.478999 -0.003501 25.029999
v -0.289749 0.216249 25.029999
v -0.252999 -0.283501 25.029999
v -0.289749 -0.222876 25.029999
v -0.478999 -0.003501 25.029999
v -0.351999 0.372499 25.029999
v -0.289749 0.216249 25.029999
v -0.252999 0.276499 25.029999
v -0.252999 -0.283501 25.029999
v -0.478999 -0.003501 25.029999
v -0.352999 -0.377501 25.029999
v -0.351999 0.372499 25.029999
v -0.252999 0.276499 25.029999
v -0.201499 0.332499 25.029999
v -0.202249 -0.338626 25.029999
v -0.252999 -0.283501 25.029999
v -0.352999 -0.377501 25.029999
v 0.006001 0.533499 25.029999
v -0.351999 0.372499 25.029999
v -0.201499 0.332499 25.029999
v -0.142999 -0.378001 25.029999
v -0.202249 -0.338626 25.029999
v -0.352999 -0.377501 25.029999
v 0.006001 0.533499 25.029999
v -0.201499 0.332499 25.029999
v -0.141999 0.372499 25.029999
v -0.075249 -0.401626 25.029999
v -0.142999 -0.378001 25.029999
v -0.352999 -0.377501 25.029999
v 0.006001 0.533499 25.029999
v -0.141999 0.372499 25.029999
v -0.074499 0.396499 25.029999
v 0.001001 -0.409501 25.029999
v -0.075249 -0.401626 25.029999
v -0.352999 -0.377501 25.029999
v 0.006001 0.533499 25.029999
v -0.074499 0.396499 25.029999
v 0.001001 0.404499 25.029999
v 0.001001 -0.409501 25.029999
v -0.352999 -0.377501 25.029999
v 0.002001 -0.533501 25.029999
v 0.355001 0.374499 25.029999
v 0.006001 0.533499 25.029999
v 0.001001 0.404499 25.029999
v 0.075938 -0.401563 25.029999
v 0.001001 -0.409501 25.029999
v 0.002001 -0.533501 25.029999
v 0.355001 0.374499 25.029999
v 0.001001 0.404499 25.029999
v 0.076813 0.396437 25.029999
v 0.142751 -0.377751 25.029999
v 0.075938 -0.401563 25.029999
v 0.002001 -0.533501 25.029999
v 0.355001 0.374499 25.029999
v 0.076813 0.396437 25.029999
v 0.144251 0.372249 25.029999
v 0.201438 -0.338063 25.029999
v 0.142751 -0.377751 25.029999
v 0.002001 -0.533501 25.029999
v 0.355001 0.374499 25.029999
v 0.144251 0.372249 25.029999
v 0.203313 0.331937 25.029999
v 0.201438 -0.338063 25.029999
v 0.002001 -0.533501 25.029999
v 0.355001 -0.371501 25.029999
v 0.355001 0.374499 25.029999
v 0.203313 0.331937 25.029999
v 0.254001 0.275499 25.029999
v 0.252001 -0.282501 25.029999
v 0.201438 -0.338063 25.029999
v 0.355001 -0.371501 25.029999
v 0.355001 0.374499 25.029999
v 0.254001 0.275499 25.029999
v 0.289876 0.215312 25.029999
v 0.288751 -0.221938 25.029999
v 0.252001 -0.282501 25.029999
v 0.355001 -0.371501 25.029999
v 0.355001 0.374499 25.029999
v 0.289876 0.215312 25.029999
v 0.315501 0.148749 25.029999
v 0.315001 -0.155251 25.029999
v 0.288751 -0.221938 25.029999
v 0.355001 -0.371501 25.029999
v 0.355001 0.374499 25.029999
v 0.315501 0.148749 25.029999
v 0.330876 0.075812 25.029999
v 0.330751 -0.082438 25.029999
v 0.315001 -0.155251 25.029999
v 0.355001 -0.371501 25.029999
v 0.355001 0.374499 25.029999
v 0.330876 0.075812 25.029999
v 0.336001 -0.003501 25.029999
v 0.336001 -0.003501 25.029999
v 0.330751 -0.082438 25.029999
v 0.355001 -0.371501 25.029999
v 0.355001 -0.371501 25.029999
v 0.355001 0.374499 25.029999
v 0.336001 -0.003501 25.029999
v 0.006001 0.533499 -25.029999
v -0.099624 0.523437 -25.029999
v 0.006006 0.543545 -25.025980
v -0.099624 0.523437 -25.029999
v -0.101637 0.533290 -25.025980
v 0.006006 0.543545 -25.025980
v 0.006006 0.543545 -25.025980
v -0.101637 0.533290 -25.025980
v 0.006010 0.550899 -25.014999
v -0.101637 0.533290 -25.025980
v -0.103111 0.540503 -25.014999
v 0.006010 0.550899 -25.014999
v 0.006010 0.550899 -25.014999
v -0.103111 0.540503 -25.014999
v 0.006011 0.553591 -25.000000
v -0.103111 0.540503 -25.014999
v -0.103650 0.543144 -25.000000
v 0.006011 0.553591 -25.000000
v 0.006011 0.553591 -25.000000
v -0.103650 0.543144 -25.000000
v 0.006011 0.553591 25.000000
v -0.103650 0.543144 -25.000000
v -0.103650 0.543144 25.000000
v 0.006011 0.553591 25.000000
v 0.006011 0.553591 25.000000
v -0.103650 0.543144 25.000000
v 0.006010 0.550899 25.014999
v -0.103650 0.543144 25.000000
v -0.103111 0.540503 25.014999
v 0.006010 0.550899 25.014999
v 0.006010 0.550899 25.014999
v -0.103111 0.540503 25.014999
v 0.006006 0.543545 25.025982
v -0.103111 0.540503 25.014999
v -0.101637 0.533290 25.025982
v 0.006006 0.543545 25.025982
v 0.006006 0.543545 25.025982
v -0.101637 0.533290 25.025982
v 0.006001 0.533499 25.029999
v -0.101637 0.533290 25.025982
v -0.099624 0.523437 25.029999
v 0.006001 0.533499 25.029999
v -0.099624 0.523437 -25.029999
v -0.194499 0.493249 -25.029999
v -0.101637 0.533290 -25.025980
v -0.194499 0.493249 -25.029999
v -0.198637 0.502427 -25.025980
v -0.101637 0.533290 -25.025980
v -0.101637 0.533290 -25.025980
v -0.198637 0.502427 -25.025980
v -0.103111 0.540503 -25.014999
v -0.198637 0.502427 -25.025980
v -0.201665 0.509145 -25.014999
v -0.103111 0.540503 -25.014999
v -0.103111 0.540503 -25.014999
v -0.201665 0.509145 -25.014999
v -0.103650 0.543144 -25.000000
v -0.201665 0.509145 -25.014999
v -0.202774 0.511604 -25.000000
v -0.103650 0.543144 -25.000000
v -0.103650 0.543144 -25.000000
v -0.202774 0.511604 -25.000000
v -0.103650 0.543144 25.000000
v -0.202774 0.511604 -25.000000
v -0.202774 0.511604 25.000000
v -0.103650 0.543144 25.000000
v -0.103650 0.543144 25.000000
v -0.202774 0.511604 25.000000
v -0.103111 0.540503 25.014999
v -0.202774 0.511604 25.000000
v -0.201665 0.509145 25.014999
v -0.103111 0.540503 25.014999
v -0.103111 0.540503 25.014999
v -0.201665 0.509145 25.014999
v -0.101637 0.533290 25.025982
v -0.201665 0.509145 25.014999
v -0.198637 0.502427 25.025982
v -0.101637 0.533290 25.025982
v -0.101637 0.533290 25.025982
v -0.198637 0.502427 25.025982
v -0.099624 0.523437 25.029999
v -0.198637 0.502427 25.025982
v -0.194499 0.493249 25.029999
v -0.099624 0.523437 25.029999
v -0.194499 0.493249 -25.029999
v -0.278624 0.442937 -25.029999
v -0.198637 0.502427 -25.025980
v -0.278624 0.442937 -25.029999
v -0.284731 0.450936 -25.025980
v -0.198637 0.502427 -25.025980
v -0.198637 0.502427 -25.025980
v -0.284731 0.450936 -25.025980
v -0.201665 0.509145 -25.014999
v -0.284731 0.450936 -25.025980
v -0.289201 0.456793 -25.014999
v -0.201665 0.509145 -25.014999
v -0.201665 0.509145 -25.014999
v -0.289201 0.456793 -25.014999
v -0.202774 0.511604 -25.000000
v -0.289201 0.456793 -25.014999
v -0.290837 0.458936 -25.000000
v -0.202774 0.511604 -25.000000
v -0.202774 0.511604 -25.000000
v -0.290837 0.458936 -25.000000
v -0.202774 0.511604 25.000000
v -0.290837 0.458936 -25.000000
v -0.290837 0.458936 25.000000
v -0.202774 0.511604 25.000000
v -0.202774 0.511604 25.000000
v -0.290837 0.458936 25.000000
v -0.201665 0.509145 25.014999
v -0.290837 0.458936 25.000000
v -0.289201 0.456793 25.014999
v -0.201665 0.509145 25.014999
v -0.201665 0.509145 25.014999
v -0.289201 0.456793 25.014999
v -0.198637 0.502427 25.025982
v -0.289201 0.456793 25.014999
v -0.284731 0.450936 25.025982
v -0.198637 0.502427 25.025982
v -0.198637 0.502427 25.025982
v -0.284731 0.450936 25.025982
v -0.194499 0.493249 25.029999
v -0.284731 0.450936 25.025982
v -0.278624 0.442937 25.029999
v -0.194499 0.493249 25.029999
v -0.278624 0.442937 -25.029999
v -0.351999 0.372499 -25.029999
v -0.284731 0.450936 -25.025980
v -0.351999 0.372499 -25.029999
v -0.359654 0.379012 -25.025980
v -0.284731 0.450936 -25.025980
v -0.284731 0.450936 -25.025980
v -0.359654 0.379012 -25.025980
v -0.289201 0.456793 -25.014999
v -0.359654 0.379012 -25.025980
v -0.365258 0.383780 -25.014999
v -0.289201 0.456793 -25.014999
v -0.289201 0.456793 -25.014999
v -0.365258 0.383780 -25.014999
v -0.290837 0.458936 -25.000000
v -0.365258 0.383780 -25.014999
v -0.367310 0.385526 -25.000000
v -0.290837 0.458936 -25.000000
v -0.290837 0.458936 -25.000000
v -0.367310 0.385526 -25.000000
v -0.290837 0.458936 25.000000
v -0.367310 0.385526 -25.000000
v -0.367310 0.385526 25.000000
v -0.290837 0.458936 25.000000
v -0.290837 0.458936 25.000000
v -0.367310 0.385526 25.000000
v -0.289201 0.456793 25.014999
v -0.367310 0.385526 25.000000
v -0.365258 0.383780 25.014999
v -0.289201 0.456793 25.014999
v -0.289201 0.456793 25.014999
v -0.365258 0.383780 25.014999
v -0.284731 0.450936 25.025982
v -0.365258 0.383780 25.014999
v -0.359654 0.379012 25.025982
v -0.284731 0.450936 25.025982
v -0.284731 0.450936 25.025982
v -0.359654 0.379012 25.025982
v -0.278624 0.442937 25.029999
v -0.359654 0.379012 25.025982
v -0.351999 0.372499 25.029999
v -0.278624 0.442937 25.029999
v -0.351999 0.372499 -25.029999
v -0.407562 0.291999 -25.029999
v -0.359654 0.379012 -25.025980
v -0.407562 0.291999 -25.029999
v -0.416324 0.296909 -25.025980
v -0.359654 0.379012 -25.025980
v -0.359654 0.379012 -25.025980
v -0.416324 0.296909 -25.025980
v -0.365258 0.383780 -25.014999
v -0.416324 0.296909 -25.025980
v -0.422738 0.300503 -25.014999
v -0.365258 0.383780 -25.014999
v -0.365258 0.383780 -25.014999
v -0.422738 0.300503 -25.014999
v -0.367310 0.385526 -25.000000
v -0.422738 0.300503 -25.014999
v -0.425086 0.301819 -25.000000
v -0.367310 0.385526 -25.000000
v -0.367310 0.385526 -25.000000
v -0.425086 0.301819 -25.000000
v -0.367310 0.385526 25.000000
v -0.425086 0.301819 -25.000000
v -0.425086 0.301819 25.000000
v -0.367310 0.385526 25.000000
v -0.367310 0.385526 25.000000
v -0.425086 0.301819 25.000000
v -0.365258 0.383780 25.014999
v -0.425086 0.301819 25.000000
v -0.422738 0.300503 25.014999
v -0.365258 0.383780 25.014999
v -0.365258 0.383780 25.014999
v -0.422738 0.300503 25.014999
v -0.359654 0.379012 25.025982
v -0.422738 0.300503 25.014999
v -0.416324 0.296909 25.025982
v -0.359654 0.379012 25.025982
v -0.359654 0.379012 25.025982
v -0.416324 0.296909 25.025982
v -0.351999 0.372499 25.029999
v -0.416324 0.296909 25.025982
v -0.407562 0.291999 25.029999
v -0.351999 0.372499 25.029999
v -0.407562 0.291999 -25.029999
v -0.447249 0.202499 -25.029999
v -0.416324 0.296909 -25.025980
v -0.447249 0.202499 -25.029999
v -0.456757 0.205727 -25.025980
v -0.416324 0.296909 -25.025980
v -0.416324 0.296909 -25.025980
v -0.456757 0.205727 -25.025980
v -0.422738 0.300503 -25.014999
v -0.456757 0.205727 -25.025980
v -0.463717 0.208090 -25.014999
v -0.422738 0.300503 -25.014999
v -0.422738 0.300503 -25.014999
v -0.463717 0.208090 -25.014999
v -0.425086 0.301819 -25.000000
v -0.463717 0.208090 -25.014999
v -0.466265 0.208955 -25.000000
v -0.425086 0.301819 -25.000000
v -0.425086 0.301819 -25.000000
v -0.466265 0.208955 -25.000000
v -0.425086 0.301819 25.000000
v -0.466265 0.208955 -25.000000
v -0.466265 0.208955 25.000000
v -0.425086 0.301819 25.000000
v -0.425086 0.301819 25.000000
v -0.466265 0.208955 25.000000
v -0.422738 0.300503 25.014999
v -0.466265 0.208955 25.000000
v -0.463717 0.208090 25.014999
v -0.422738 0.300503 25.014999
v -0.422738 0.300503 25.014999
v -0.463717 0.208090 25.014999
v -0.416324 0.296909 25.025982
v -0.463717 0.208090 25.014999
v -0.456757 0.205727 25.025982
v -0.416324 0.296909 25.025982
v -0.416324 0.296909 25.025982
v -0.456757 0.205727 25.025982
v -0.407562 0.291999 25.029999
v -0.456757 0.205727 25.025982
v -0.447249 0.202499 25.029999
v -0.407562 0.291999 25.029999
v -0.447249 0.202499 -25.029999
v -0.471062 0.103999 -25.029999
v -0.456757 0.205727 -25.025980
v -0.471062 0.103999 -25.029999
v -0.480974 0.105553 -25.025980
v -0.456757 0.205727 -25.025980
v -0.456757 0.205727 -25.025980
v -0.480974 0.105553 -25.025980
v -0.463717 0.208090 -25.014999
v -0.480974 0.105553 -25.025980
v -0.488231 0.106690 -25.014999
v -0.463717 0.208090 -25.014999
v -0.463717 0.208090 -25.014999
v -0.488231 0.106690 -25.014999
v -0.466265 0.208955 -25.000000
v -0.488231 0.106690 -25.014999
v -0.490887 0.107106 -25.000000
v -0.466265 0.208955 -25.000000
v -0.466265 0.208955 -25.000000
v -0.490887 0.107106 -25.000000
v -0.466265 0.208955 25.000000
v -0.490887 0.107106 -25.000000
v -0.490887 0.107106 25.000000
v -0.466265 0.208955 25.000000
v -0.466265 0.208955 25.000000
v -0.490887 0.107106 25.000000
v -0.463717 0.208090 25.014999
v -0.490887 0.107106 25.000000
v -0.488231 0.106690 25.014999
v -0.463717 0.208090 25.014999
v -0.463717 0.208090 25.014999
v -0.488231 0.106690 25.014999
v -0.456757 0.205727 25.025982
v -0.488231 0.106690 25.014999
v -0.480974 0.105553 25.025982
v -0.456757 0.205727 25.025982
v -0.456757 0.205727 25.025982
v -0.480974 0.105553 25.025982
v -0.447249 0.202499 25.029999
v -0.480974 0.105553 25.025982
v -0.471062 0.103999 25.029999
v -0.447249 0.202499 25.029999
v -0.471062 0.103999 -25.029999
v -0.478999 -0.003501 -25.029999
v -0.480974 0.105553 -25.025980
v -0.478999 -0.003501 -25.029999
v -0.489026 -0.003497 -25.025980
v -0.480974 0.105553 -25.025980
v -0.480974 0.105553 -25.025980
v -0.489026 -0.003497 -25.025980
v -0.488231 0.106690 -25.014999
v -0.489026 -0.003497 -25.025980
v -0.496366 -0.003494 -25.014999
v -0.488231 0.106690 -25.014999
v -0.488231 0.106690 -25.014999
v -0.496366 -0.003494 -25.014999
v -0.490887 0.107106 -25.000000
v -0.496366 -0.003494 -25.014999
v -0.499053 -0.003493 -25.000000
v -0.490887 0.107106 -25.000000
v -0.490887 0.107106 -25.000000
v -0.499053 -0.003493 -25.000000
v -0.490887 0.107106 25.000000
v -0.499053 -0.003493 -25.000000
v -0.499053 -0.003493 25.000000
v -0.490887 0.107106 25.000000
v -0.490887 0.107106 25.000000
v -0.499053 -0.003493 25.000000
v -0.488231 0.106690 25.014999
v -0.499053 -0.003493 25.000000
v -0.496366 -0.003494 25.014999
v -0.488231 0.106690 25.014999
v -0.488231 0.106690 25.014999
v -0.496366 -0.003494 25.014999
v -0.480974 0.105553 25.025982
v -0.496366 -0.003494 25.014999
v -0.489026 -0.003497 25.025982
v -0.480974 0.105553 25.025982
v -0.480974 0.105553 25.025982
v -0.489026 -0.003497 25.025982
v -0.471062 0.103999 25.029999
v -0.489026 -0.003497 25.025982
v -0.478999 -0.003501 25.029999
v -0.471062 0.103999 25.029999
v -0.478999 -0.003501 -25.029999
v -0.471124 -0.111251 -25.029999
v -0.489026 -0.003497 -25.025980
v -0.471124 -0.111251 -25.029999
v -0.481038 -0.112795 -25.025980
v -0.489026 -0.003497 -25.025980
v -0.489026 -0.003497 -25.025980
v -0.481038 -0.112795 -25.025980
v -0.496366 -0.003494 -25.014999
v -0.481038 -0.112795 -25.025980
v -0.488295 -0.113925 -25.014999
v -0.496366 -0.003494 -25.014999
v -0.496366 -0.003494 -25.014999
v -0.488295 -0.113925 -25.014999
v -0.499053 -0.003493 -25.000000
v -0.488295 -0.113925 -25.014999
v -0.490952 -0.114338 -25.000000
v -0.499053 -0.003493 -25.000000
v -0.499053 -0.003493 -25.000000
v -0.490952 -0.114338 -25.000000
v -0.499053 -0.003493 25.000000
v -0.490952 -0.114338 -25.000000
v -0.490952 -0.114338 25.000000
v -0.499053 -0.003493 25.000000
v -0.499053 -0.003493 25.000000
v -0.490952 -0.114338 25.000000
v -0.496366 -0.003494 25.014999
v -0.490952 -0.114338 25.000000
v -0.488295 -0.113925 25.014999
v -0.496366 -0.003494 25.014999
v -0.496366 -0.003494 25.014999
v -0.488295 -0.113925 25.014999
v -0.489026 -0.003497 25.025982
v -0.488295 -0.113925 25.014999
v -0.481038 -0.112795 25.025982
v -0.489026 -0.003497 25.025982
v -0.489026 -0.003497 25.025982
v -0.481038 -0.112795 25.025982
v -0.478999 -0.003501 25.029999
v -0.481038 -0.112795 25.025982
v -0.471124 -0.111251 25.029999
v -0.478999 -0.003501 25.029999
v -0.471124 -0.111251 -25.029999
v -0.447499 -0.209501 -25.029999
v -0.481038 -0.112795 -25.025980
v -0.447499 -0.209501 -25.029999
v -0.457009 -0.212724 -25.025980
v -0.481038 -0.112795 -25.025980
v -0.481038 -0.112795 -25.025980
v -0.457009 -0.212724 -25.025980
v -0.488295 -0.113925 -25.014999
v -0.457009 -0.212724 -25.025980
v -0.463971 -0.215084 -25.014999
v -0.488295 -0.113925 -25.014999
v -0.488295 -0.113925 -25.014999
v -0.463971 -0.215084 -25.014999
v -0.490952 -0.114338 -25.000000
v -0.463971 -0.215084 -25.014999
v -0.466519 -0.215947 -25.000000
v -0.490952 -0.114338 -25.000000
v -0.490952 -0.114338 -25.000000
v -0.466519 -0.215947 -25.000000
v -0.490952 -0.114338 25.000000
v -0.466519 -0.215947 -25.000000
v -0.466519 -0.215947 25.000000
v -0.490952 -0.114338 25.000000
v -0.490952 -0.114338 25.000000
v -0.466519 -0.215947 25.000000
v -0.488295 -0.113925 25.014999
v -0.466519 -0.215947 25.000000
v -0.463971 -0.215084 25.014999
v -0.488295 -0.113925 25.014999
v -0.488295 -0.113925 25.014999
v -0.463971 -0.215084 25.014999
v -0.481038 -0.112795 25.025982
v -0.463971 -0.215084 25.014999
v -0.457009 -0.212724 25.025982
v -0.481038 -0.112795 25.025982
v -0.481038 -0.112795 25.025982
v -0.457009 -0.212724 25.025982
v -0.471124 -0.111251 25.029999
v -0.457009 -0.212724 25.025982
v -0.447499 -0.209501 25.029999
v -0.471124 -0.111251 25.029999
v -0.447499 -0.209501 -25.029999
v -0.408124 -0.298251 -25.029999
v -0.457009 -0.212724 -25.025980
v -0.408124 -0.298251 -25.029999
v -0.416878 -0.303178 -25.025980
v -0.457009 -0.212724 -25.025980
v -0.457009 -0.212724 -25.025980
v -0.416878 -0.303178 -25.025980
v -0.463971 -0.215084 -25.014999
v -0.416878 -0.303178 -25.025980
v -0.423286 -0.306785 -25.014999
v -0.463971 -0.215084 -25.014999
v -0.463971 -0.215084 -25.014999
v -0.423286 -0.306785 -25.014999
v -0.466519 -0.215947 -25.000000
v -0.423286 -0.306785 -25.014999
v -0.425632 -0.308105 -25.000000
v -0.466519 -0.215947 -25.000000
v -0.466519 -0.215947 -25.000000
v -0.425632 -0.308105 -25.000000
v -0.466519 -0.215947 25.000000
v -0.425632 -0.308105 -25.000000
v -0.425632 -0.308105 25.000000
v -0.466519 -0.215947 25.000000
v -0.466519 -0.215947 25.000000
v -0.425632 -0.308105 25.000000
v -0.463971 -0.215084 25.014999
v -0.425632 -0.308105 25.000000
v -0.423286 -0.306785 25.014999
v -0.463971 -0.215084 25.014999
v -0.463971 -0.215084 25.014999
v -0.423286 -0.306785 25.014999
v -0.457009 -0.212724 25.025982
v -0.423286 -0.306785 25.014999
v -0.416878 -0.303178 25.025982
v -0.457009 -0.212724 25.025982
v -0.457009 -0.212724 25.025982
v -0.416878 -0.303178 25.025982
v -0.447499 -0.209501 25.029999
v -0.416878 -0.303178 25.025982
v -0.408124 -0.298251 25.029999
v -0.447499 -0.209501 25.029999
v -0.408124 -0.298251 -25.029999
v -0.352999 -0.377501 -25.029999
v -0.416878 -0.303178 -25.025980
v -0.352999 -0.377501 -25.029999
v -0.360607 -0.384076 -25.025980
v -0.416878 -0.303178 -25.025980
v -0.416878 -0.303178 -25.025980
v -0.360607 -0.384076 -25.025980
v -0.423286 -0.306785 -25.014999
v -0.360607 -0.384076 -25.025980
v -0.366176 -0.388890 -25.014999
v -0.423286 -0.306785 -25.014999
v -0.423286 -0.306785 -25.014999
v -0.366176 -0.388890 -25.014999
v -0.425632 -0.308105 -25.000000
v -0.366176 -0.388890 -25.014999
v -0.368214 -0.390652 -25.000000
v -0.425632 -0.308105 -25.000000
v -0.425632 -0.308105 -25.000000
v -0.368214 -0.390652 -25.000000
v -0.425632 -0.308105 25.000000
v -0.368214 -0.390652 -25.000000
v -0.368214 -0.390652 25.000000
v -0.425632 -0.308105 25.000000
v -0.425632 -0.308105 25.000000
v -0.368214 -0.390652 25.000000
v -0.423286 -0.306785 25.014999
v -0.368214 -0.390652 25.000000
v -0.366176 -0.388890 25.014999
v -0.423286 -0.306785 25.014999
v -0.423286 -0.306785 25.014999
v -0.366176 -0.388890 25.014999
v -0.416878 -0.303178 25.025982
v -0.366176 -0.388890 25.014999
v -0.360607 -0.384076 25.025982
v -0.416878 -0.303178 25.025982
v -0.416878 -0.303178 25.025982
v -0.360607 -0.384076 25.025982
v -0.408124 -0.298251 25.029999
v -0.360607 -0.384076 25.025982
v -0.352999 -0.377501 25.029999
v -0.408124 -0.298251 25.029999
v -0.352999 -0.377501 -25.029999
v -0.280187 -0.445751 -25.029999
v -0.360607 -0.384076 -25.025980
v -0.280187 -0.445751 -25.029999
v -0.286204 -0.453817 -25.025980
v -0.360607 -0.384076 -25.025980
v -0.360607 -0.384076 -25.025980
v -0.286204 -0.453817 -25.025980
v -0.366176 -0.388890 -25.014999
v -0.286204 -0.453817 -25.025980
v -0.290609 -0.459722 -25.014999
v -0.366176 -0.388890 -25.014999
v -0.366176 -0.388890 -25.014999
v -0.290609 -0.459722 -25.014999
v -0.368214 -0.390652 -25.000000
v -0.290609 -0.459722 -25.014999
v -0.292221 -0.461883 -25.000000
v -0.368214 -0.390652 -25.000000
v -0.368214 -0.390652 -25.000000
v -0.292221 -0.461883 -25.000000
v -0.368214 -0.390652 25.000000
v -0.292221 -0.461883 -25.000000
v -0.292221 -0.461883 25.000000
v -0.368214 -0.390652 25.000000
v -0.368214 -0.390652 25.000000
v -0.292221 -0.461883 25.000000
v -0.366176 -0.388890 25.014999
v -0.292221 -0.461883 25.000000
v -0.290609 -0.459722 25.014999
v -0.366176 -0.388890 25.014999
v -0.366176 -0.388890 25.014999
v -0.290609 -0.459722 25.014999
v -0.360607 -0.384076 25.025982
v -0.290609 -0.459722 25.014999
v -0.286204 -0.453817 25.025982
v -0.360607 -0.384076 25.025982
v -0.360607 -0.384076 25.025982
v -0.286204 -0.453817 25.025982
v -0.352999 -0.377501 25.029999
v -0.286204 -0.453817 25.025982
v -0.280187 -0.445751 25.029999
v -0.352999 -0.377501 25.029999
v -0.280187 -0.445751 -25.029999
v -0.196749 -0.494501 -25.029999
v -0.286204 -0.453817 -25.025980
v -0.196749 -0.494501 -25.029999
v -0.200808 -0.503711 -25.025980
v -0.286204 -0.453817 -25.025980
v -0.286204 -0.453817 -25.025980
v -0.200808 -0.503711 -25.025980
v -0.290609 -0.459722 -25.014999
v -0.200808 -0.503711 -25.025980
v -0.203780 -0.510453 -25.014999
v -0.290609 -0.459722 -25.014999
v -0.290609 -0.459722 -25.014999
v -0.203780 -0.510453 -25.014999
v -0.292221 -0.461883 -25.000000
v -0.203780 -0.510453 -25.014999
v -0.204868 -0.512921 -25.000000
v -0.292221 -0.461883 -25.000000
v -0.292221 -0.461883 -25.000000
v -0.204868 -0.512921 -25.000000
v -0.292221 -0.461883 25.000000
v -0.204868 -0.512921 -25.000000
v -0.204868 -0.512921 25.000000
v -0.292221 -0.461883 25.000000
v -0.292221 -0.461883 25.000000
v -0.204868 -0.512921 25.000000
v -0.290609 -0.459722 25.014999
v -0.204868 -0.512921 25.000000
v -0.203780 -0.510453 25.014999
v -0.290609 -0.459722 25.014999
v -0.290609 -0.459722 25.014999
v -0.203780 -0.510453 25.014999
v -0.286204 -0.453817 25.025982
v -0.203780 -0.510453 25.014999
v -0.200808 -0.503711 25.025982
v -0.286204 -0.453817 25.025982
v -0.286204 -0.453817 25.025982
v -0.200808 -0.503711 25.025982
v -0.280187 -0.445751 25.029999
v -0.200808 -0.503711 25.025982
v -0.196749 -0.494501 25.029999
v -0.280187 -0.445751 25.029999
v -0.196749 -0.494501 -25.029999
v -0.102687 -0.523751 -25.029999
v -0.200808 -0.503711 -25.025980
v -0.102687 -0.523751 -25.029999
v -0.104656 -0.533611 -25.025980
v -0.200808 -0.503711 -25.025980
v -0.200808 -0.503711 -25.025980
v -0.104656 -0.533611 -25.025980
v -0.203780 -0.510453 -25.014999
v -0.104656 -0.533611 -25.025980
v -0.106098 -0.540829 -25.014999
v -0.203780 -0.510453 -25.014999
v -0.203780 -0.510453 -25.014999
v -0.106098 -0.540829 -25.014999
v -0.204868 -0.512921 -25.000000
v -0.106098 -0.540829 -25.014999
v -0.106626 -0.543471 -25.000000
v -0.204868 -0.512921 -25.000000
v -0.204868 -0.512921 -25.000000
v -0.106626 -0.543471 -25.000000
v -0.204868 -0.512921 25.000000
v -0.106626 -0.543471 -25.000000
v -0.106626 -0.543471 25.000000
v -0.204868 -0.512921 25.000000
v -0.204868 -0.512921 25.000000
v -0.106626 -0.543471 25.000000
v -0.203780 -0.510453 25.014999
v -0.106626 -0.543471 25.000000
v -0.106098 -0.540829 25.014999
v -0.203780 -0.510453 25.014999
v -0.203780 -0.510453 25.014999
v -0.106098 -0.540829 25.014999
v -0.200808 -0.503711 25.025982
v -0.106098 -0.540829 25.014999
v -0.104656 -0.533611 25.025982
v -0.200808 -0.503711 25.025982
v -0.200808 -0.503711 25.025982
v -0.104656 -0.533611 25.025982
v -0.196749 -0.494501 25.029999
v -0.104656 -0.533611 25.025982
v -0.102687 -0.523751 25.029999
v -0.196749 -0.494501 25.029999
v -0.102687 -0.523751 -25.029999
v 0.002001 -0.533501 -25.029999
v -0.104656 -0.533611 -25.025980
v 0.002001 -0.533501 -25.029999
v 0.002018 -0.543546 -25.025980
v -0.104656 -0.533611 -25.025980
v -0.104656 -0.533611 -25.025980
v 0.002018 -0.543546 -25.025980
v -0.106098 -0.540829 -25.014999
v 0.002018 -0.543546 -25.025980
v 0.002030 -0.550899 -25.014999
v -0.106098 -0.540829 -25.014999
v -0.106098 -0.540829 -25.014999
v 0.002030 -0.550899 -25.014999
v -0.106626 -0.543471 -25.000000
v 0.002030 -0.550899 -25.014999
v 0.002034 -0.553591 -25.000000
v -0.106626 -0.543471 -25.000000
v -0.106626 -0.543471 -25.000000
v 0.002034 -0.553591 -25.000000
v -0.106626 -0.543471 25.000000
v 0.002034 -0.553591 -25.000000
v 0.002034 -0.553591 25.000000
v -0.106626 -0.543471 25.000000
v -0.106626 -0.543471 25.000000
v 0.002034 -0.553591 25.000000
v -0.106098 -0.540829 25.014999
v 0.002034 -0.553591 25.000000
v 0.002030 -0.550899 25.014999
v -0.106098 -0.540829 25.014999
v -0.106098 -0.540829 25.014999
v 0.002030 -0.550899 25.014999
v -0.104656 -0.533611 25.025982
v 0.002030 -0.550899 25.014999
v 0.002018 -0.543546 25.025982
v -0.104656 -0.533611 25.025982
v -0.104656 -0.533611 25.025982
v 0.002018 -0.543546 25.025982
v -0.102687 -0.523751 25.029999
v 0.002018 -0.543546 25.025982
v 0.002001 -0.533501 25.029999
v -0.102687 -0.523751 25.029999
v 0.002001 -0.533501 -25.029999
v 0.106938 -0.523376 -25.029999
v 0.002018 -0.543546 -25.025980
v 0.106938 -0.523376 -25.029999
v 0.108983 -0.533225 -25.025980
v 0.002018 -0.543546 -25.025980
v 0.002018 -0.543546 -25.025980
v 0.108983 -0.533225 -25.025980
v 0.002030 -0.550899 -25.014999
v 0.108983 -0.533225 -25.025980
v 0.110479 -0.540435 -25.014999
v 0.002030 -0.550899 -25.014999
v 0.002030 -0.550899 -25.014999
v 0.110479 -0.540435 -25.014999
v 0.002034 -0.553591 -25.000000
v 0.110479 -0.540435 -25.014999
v 0.111027 -0.543074 -25.000000
v 0.002034 -0.553591 -25.000000
v 0.002034 -0.553591 -25.000000
v 0.111027 -0.543074 -25.000000
v 0.002034 -0.553591 25.000000
v 0.111027 -0.543074 -25.000000
v 0.111027 -0.543074 25.000000
v 0.002034 -0.553591 25.000000
v 0.002034 -0.553591 25.000000
v 0.111027 -0.543074 25.000000
v 0.002030 -0.550899 25.014999
v 0.111027 -0.543074 25.000000
v 0.110479 -0.540435 25.014999
v 0.002030 -0.550899 25.014999
v 0.002030 -0.550899 25.014999
v 0.110479 -0.540435 25.014999
v 0.002018 -0.543546 25.025982
v 0.110479 -0.540435 25.014999
v 0.108983 -0.533225 25.025982
v 0.002018 -0.543546 25.025982
v 0.002018 -0.543546 25.025982
v 0.108983 -0.533225 25.025982
v 0.002001 -0.533501 25.029999
v 0.108983 -0.533225 25.025982
v 0.106938 -0.523376 25.029999
v 0.002001 -0.533501 25.029999
v 0.106938 -0.523376 -25.029999
v 0.200751 -0.493001 -25.029999
v 0.108983 -0.533225 -25.025980
v 0.200751 -0.493001 -25.029999
v 0.204960 -0.502149 -25.025980
v 0.108983 -0.533225 -25.025980
v 0.108983 -0.533225 -25.025980
v 0.204960 -0.502149 -25.025980
v 0.110479 -0.540435 -25.014999
v 0.204960 -0.502149 -25.025980
v 0.208042 -0.508846 -25.014999
v 0.110479 -0.540435 -25.014999
v 0.110479 -0.540435 -25.014999
v 0.208042 -0.508846 -25.014999
v 0.111027 -0.543074 -25.000000
v 0.208042 -0.508846 -25.014999
v 0.209170 -0.511297 -25.000000
v 0.111027 -0.543074 -25.000000
v 0.111027 -0.543074 -25.000000
v 0.209170 -0.511297 -25.000000
v 0.111027 -0.543074 25.000000
v 0.209170 -0.511297 -25.000000
v 0.209170 -0.511297 25.000000
v 0.111027 -0.543074 25.000000
v 0.111027 -0.543074 25.000000
v 0.209170 -0.511297 25.000000
v 0.110479 -0.540435 25.014999
v 0.209170 -0.511297 25.000000
v 0.208042 -0.508846 25.014999
v 0.110479 -0.540435 25.014999
v 0.110479 -0.540435 25.014999
v 0.208042 -0.508846 25.014999
v 0.108983 -0.533225 25.025982
v 0.208042 -0.508846 25.014999
v 0.204960 -0.502149 25.025982
v 0.108983 -0.533225 25.025982
v 0.108983 -0.533225 25.025982
v 0.204960 -0.502149 25.025982
v 0.106938 -0.523376 25.029999
v 0.204960 -0.502149 25.025982
v 0.200751 -0.493001 25.029999
v 0.106938 -0.523376 25.029999
v 0.200751 -0.493001 -25.029999
v 0.283438 -0.442376 -25.029999
v 0.204960 -0.502149 -25.025980
v 0.283438 -0.442376 -25.029999
v 0.289650 -0.450298 -25.025980
v 0.204960 -0.502149 -25.025980
v 0.204960 -0.502149 -25.025980
v 0.289650 -0.450298 -25.025980
v 0.208042 -0.508846 -25.014999
v 0.289650 -0.450298 -25.025980
v 0.294197 -0.456098 -25.014999
v 0.208042 -0.508846 -25.014999
v 0.208042 -0.508846 -25.014999
v 0.294197 -0.456098 -25.014999
v 0.209170 -0.511297 -25.000000
v 0.294197 -0.456098 -25.014999
v 0.295862 -0.458220 -25.000000
v 0.209170 -0.511297 -25.000000
v 0.209170 -0.511297 -25.000000
v 0.295862 -0.458220 -25.000000
v 0.209170 -0.511297 25.000000
v 0.295862 -0.458220 -25.000000
v 0.295862 -0.458220 25.000000
v 0.209170 -0.511297 25.000000
v 0.209170 -0.511297 25.000000
v 0.295862 -0.458220 25.000000
v 0.208042 -0.508846 25.014999
v 0.295862 -0.458220 25.000000
v 0.294197 -0.456098 25.014999
v 0.208042 -0.508846 25.014999
v 0.208042 -0.508846 25.014999
v 0.294197 -0.456098 25.014999
v 0.204960 -0.502149 25.025982
v 0.294197 -0.456098 25.014999
v 0.289650 -0.450298 25.025982
v 0.204960 -0.502149 25.025982
v 0.204960 -0.502149 25.025982
v 0.289650 -0.450298 25.025982
v 0.200751 -0.493001 25.029999
v 0.289650 -0.450298 25.025982
v 0.283438 -0.442376 25.029999
v 0.200751 -0.493001 25.029999
v 0.283438 -0.442376 -25.029999
v 0.355001 -0.371501 -25.029999
v 0.289650 -0.450298 -25.025980
v 0.355001 -0.371501 -25.029999
v 0.362733 -0.377918 -25.025980
v 0.289650 -0.450298 -25.025980
v 0.289650 -0.450298 -25.025980
v 0.362733 -0.377918 -25.025980
v 0.294197 -0.456098 -25.014999
v 0.362733 -0.377918 -25.025980
v 0.368393 -0.382615 -25.014999
v 0.294197 -0.456098 -25.014999
v 0.294197 -0.456098 -25.014999
v 0.368393 -0.382615 -25.014999
v 0.295862 -0.458220 -25.000000
v 0.368393 -0.382615 -25.014999
v 0.370465 -0.384334 -25.000000
v 0.295862 -0.458220 -25.000000
v 0.295862 -0.458220 -25.000000
v 0.370465 -0.384334 -25.000000
v 0.295862 -0.458220 25.000000
v 0.370465 -0.384334 -25.000000
v 0.370465 -0.384334 25.000000
v 0.295862 -0.458220 25.000000
v 0.295862 -0.458220 25.000000
v 0.370465 -0.384334 25.000000
v 0.294197 -0.456098 25.014999
v 0.370465 -0.384334 25.000000
v 0.368393 -0.382615 25.014999
v 0.294197 -0.456098 25.014999
v 0.294197 -0.456098 25.014999
v 0.368393 -0.382615 25.014999
v 0.289650 -0.450298 25.025982
v 0.368393 -0.382615 25.014999
v 0.362733 -0.377918 25.025982
v 0.289650 -0.450298 25.025982
v 0.289650 -0.450298 25.025982
v 0.362733 -0.377918 25.025982
v 0.283438 -0.442376 25.029999
v 0.362733 -0.377918 25.025982
v 0.355001 -0.371501 25.029999
v 0.283438 -0.442376 25.029999
v 0.355001 -0.371501 -25.029999
v 0.409251 -0.291376 -25.029999
v 0.362733 -0.377918 -25.025980
v 0.409251 -0.291376 -25.029999
v 0.418054 -0.296210 -25.025980
v 0.362733 -0.377918 -25.025980
v 0.362733 -0.377918 -25.025980
v 0.418054 -0.296210 -25.025980
v 0.368393 -0.382615 -25.014999
v 0.418054 -0.296210 -25.025980
v 0.424499 -0.299748 -25.014999
v 0.368393 -0.382615 -25.014999
v 0.368393 -0.382615 -25.014999
v 0.424499 -0.299748 -25.014999
v 0.370465 -0.384334 -25.000000
v 0.424499 -0.299748 -25.014999
v 0.426858 -0.301044 -25.000000
v 0.370465 -0.384334 -25.000000
v 0.370465 -0.384334 -25.000000
v 0.426858 -0.301044 -25.000000
v 0.370465 -0.384334 25.000000
v 0.426858 -0.301044 -25.000000
v 0.426858 -0.301044 25.000000
v 0.370465 -0.384334 25.000000
v 0.370465 -0.384334 25.000000
v 0.426858 -0.301044 25.000000
v 0.368393 -0.382615 25.014999
v 0.426858 -0.301044 25.000000
v 0.424499 -0.299748 25.014999
v 0.368393 -0.382615 25.014999
v 0.368393 -0.382615 25.014999
v 0.424499 -0.299748 25.014999
v 0.362733 -0.377918 25.025982
v 0.424499 -0.299748 25.014999
v 0.418054 -0.296210 25.025982
v 0.362733 -0.377918 25.025982
v 0.362733 -0.377918 25.025982
v 0.418054 -0.296210 25.025982
v 0.355001 -0.371501 25.029999
v 0.418054 -0.296210 25.025982
v 0.409251 -0.291376 25.029999
v 0.355001 -0.371501 25.029999
v 0.409251 -0.291376 -25.029999
v 0.448001 -0.202001 -25.029999
v 0.418054 -0.296210 -25.025980
v 0.448001 -0.202001 -25.029999
v 0.457530 -0.205162 -25.025980
v 0.418054 -0.296210 -25.025980
v 0.418054 -0.296210 -25.025980
v 0.457530 -0.205162 -25.025980
v 0.424499 -0.299748 -25.014999
v 0.457530 -0.205162 -25.025980
v 0.464505 -0.207476 -25.014999
v 0.424499 -0.299748 -25.014999
v 0.424499 -0.299748 -25.014999
v 0.464505 -0.207476 -25.014999
v 0.426858 -0.301044 -25.000000
v 0.464505 -0.207476 -25.014999
v 0.467059 -0.208323 -25.000000
v 0.426858 -0.301044 -25.000000
v 0.426858 -0.301044 -25.000000
v 0.467059 -0.208323 -25.000000
v 0.426858 -0.301044 25.000000
v 0.467059 -0.208323 -25.000000
v 0.467059 -0.208323 25.000000
v 0.426858 -0.301044 25.000000
v 0.426858 -0.301044 25.000000
v 0.467059 -0.208323 25.000000
v 0.424499 -0.299748 25.014999
v 0.467059 -0.208323 25.000000
v 0.464505 -0.207476 25.014999
v 0.424499 -0.299748 25.014999
v 0.424499 -0.299748 25.014999
v 0.464505 -0.207476 25.014999
v 0.418054 -0.296210 25.025982
v 0.464505 -0.207476 25.014999
v 0.457530 -0.205162 25.025982
v 0.418054 -0.296210 25.025982
v 0.418054 -0.296210 25.025982
v 0.457530 -0.205162 25.025982
v 0.409251 -0.291376 25.029999
v 0.457530 -0.205162 25.025982
v 0.448001 -0.202001 25.029999
v 0.409251 -0.291376 25.029999
v 0.448001 -0.202001 -25.029999
v 0.471251 -0.103376 -25.029999
v 0.457530 -0.205162 -25.025980
v 0.471251 -0.103376 -25.029999
v 0.481168 -0.104891 -25.025980
v 0.457530 -0.205162 -25.025980
v 0.457530 -0.205162 -25.025980
v 0.481168 -0.104891 -25.025980
v 0.464505 -0.207476 -25.014999
v 0.481168 -0.104891 -25.025980
v 0.488427 -0.106000 -25.014999
v 0.464505 -0.207476 -25.014999
v 0.464505 -0.207476 -25.014999
v 0.488427 -0.106000 -25.014999
v 0.467059 -0.208323 -25.000000
v 0.488427 -0.106000 -25.014999
v 0.491085 -0.106406 -25.000000
v 0.467059 -0.208323 -25.000000
v 0.467059 -0.208323 -25.000000
v 0.491085 -0.106406 -25.000000
v 0.467059 -0.208323 25.000000
v 0.491085 -0.106406 -25.000000
v 0.491085 -0.106406 25.000000
v 0.467059 -0.208323 25.000000
v 0.467059 -0.208323 25.000000
v 0.491085 -0.106406 25.000000
v 0.464505 -0.207476 25.014999
v 0.491085 -0.106406 25.000000
v 0.488427 -0.106000 25.014999
v 0.464505 -0.207476 25.014999
v 0.464505 -0.207476 25.014999
v 0.488427 -0.106000 25.014999
v 0.457530 -0.205162 25.025982
v 0.488427 -0.106000 25.014999
v 0.481168 -0.104891 25.025982
v 0.457530 -0.205162 25.025982
v 0.457530 -0.205162 25.025982
v 0.481168 -0.104891 25.025982
v 0.448001 -0.202001 25.029999
v 0.481168 -0.104891 25.025982
v 0.471251 -0.103376 25.029999
v 0.448001 -0.202001 25.029999
v 0.471251 -0.103376 -25.029999
v 0.479001 0.004499 -25.029999
v 0.481168 -0.104891 -25.025980
v 0.479001 0.004499 -25.029999
v 0.489027 0.004504 -25.025980
v 0.481168 -0.104891 -25.025980
v 0.481168 -0.104891 -25.025980
v 0.489027 0.004504 -25.025980
v 0.488427 -0.106000 -25.014999
v 0.489027 0.004504 -25.025980
v 0.496367 0.004508 -25.014999
v 0.488427 -0.106000 -25.014999
v 0.488427 -0.106000 -25.014999
v 0.496367 0.004508 -25.014999
v 0.491085 -0.106406 -25.000000
v 0.496367 0.004508 -25.014999
v 0.499053 0.004509 -25.000000
v 0.491085 -0.106406 -25.000000
v 0.491085 -0.106406 -25.000000
v 0.499053 0.004509 -25.000000
v 0.491085 -0.106406 25.000000
v 0.499053 0.004509 -25.000000
v 0.499053 0.004509 25.000000
v 0.491085 -0.106406 25.000000
v 0.491085 -0.106406 25.000000
v 0.499053 0.004509 25.000000
v 0.488427 -0.106000 25.014999
v 0.499053 0.004509 25.000000
v 0.496367 0.004508 25.014999
v 0.488427 -0.106000 25.014999
v 0.488427 -0.106000 25.014999
v 0.496367 0.004508 25.014999
v 0.481168 -0.104891 25.025982
v 0.496367 0.004508 25.014999
v 0.489027 0.004504 25.025982
v 0.481168 -0.104891 25.025982
v 0.481168 -0.104891 25.025982
v 0.489027 0.004504 25.025982
v 0.471251 -0.103376 25.029999
v 0.489027 0.004504 25.025982
v 0.479001 0.004499 25.029999
v 0.471251 -0.103376 25.029999
v 0.479001 0.004499 -25.029999
v 0.471251 0.110874 -25.029999
v 0.489027 0.004504 -25.025980
v 0.471251 0.110874 -25.029999
v 0.481165 0.112412 -25.025980
v 0.489027 0.004504 -25.025980
v 0.489027 0.004504 -25.025980
v 0.481165 0.112412 -25.025980
v 0.496367 0.004508 -25.014999
v 0.481165 0.112412 -25.025980
v 0.488423 0.113537 -25.014999
v 0.496367 0.004508 -25.014999
v 0.496367 0.004508 -25.014999
v 0.488423 0.113537 -25.014999
v 0.499053 0.004509 -25.000000
v 0.488423 0.113537 -25.014999
v 0.491080 0.113949 -25.000000
v 0.499053 0.004509 -25.000000
v 0.499053 0.004509 -25.000000
v 0.491080 0.113949 -25.000000
v 0.499053 0.004509 25.000000
v 0.491080 0.113949 -25.000000
v 0.491080 0.113949 25.000000
v 0.499053 0.004509 25.000000
v 0.499053 0.004509 25.000000
v 0.491080 0.113949 25.000000
v 0.496367 0.004508 25.014999
v 0.491080 0.113949 25.000000
v 0.488423 0.113537 25.014999
v 0.496367 0.004508 25.014999
v 0.496367 0.004508 25.014999
v 0.488423 0.113537 25.014999
v 0.489027 0.004504 25.025982
v 0.488423 0.113537 25.014999
v 0.481165 0.112412 25.025982
v 0.489027 0.004504 25.025982
v 0.489027 0.004504 25.025982
v 0.481165 0.112412 25.025982
v 0.479001 0.004499 25.029999
v 0.481165 0.112412 25.025982
v 0.471251 0.110874 25.029999
v 0.479001 0.004499 25.029999
v 0.471251 0.110874 -25.029999
v 0.448001 0.207999 -25.029999
v 0.481165 0.112412 -25.025980
v 0.448001 0.207999 -25.029999
v 0.457516 0.211206 -25.025980
v 0.481165 0.112412 -25.025980
v 0.481165 0.112412 -25.025980
v 0.457516 0.211206 -25.025980
v 0.488423 0.113537 -25.014999
v 0.457516 0.211206 -25.025980
v 0.464481 0.213555 -25.014999
v 0.488423 0.113537 -25.014999
v 0.488423 0.113537 -25.014999
v 0.464481 0.213555 -25.014999
v 0.491080 0.113949 -25.000000
v 0.464481 0.213555 -25.014999
v 0.467030 0.214414 -25.000000
v 0.491080 0.113949 -25.000000
v 0.491080 0.113949 -25.000000
v 0.467030 0.214414 -25.000000
v 0.491080 0.113949 25.000000
v 0.467030 0.214414 -25.000000
v 0.467030 0.214414 25.000000
v 0.491080 0.113949 25.000000
v 0.491080 0.113949 25.000000
v 0.467030 0.214414 25.000000
v 0.488423 0.113537 25.014999
v 0.467030 0.214414 25.000000
v 0.464481 0.213555 25.014999
v 0.488423 0.113537 25.014999
v 0.488423 0.113537 25.014999
v 0.464481 0.213555 25.014999
v 0.481165 0.112412 25.025982
v 0.464481 0.213555 25.014999
v 0.457516 0.211206 25.025982
v 0.481165 0.112412 25.025982
v 0.481165 0.112412 25.025982
v 0.457516 0.211206 25.025982
v 0.471251 0.110874 25.029999
v 0.457516 0.211206 25.025982
v 0.448001 0.207999 25.029999
v 0.471251 0.110874 25.029999
v 0.448001 0.207999 -25.029999
v 0.409251 0.295874 -25.029999
v 0.457516 0.211206 -25.025980
v 0.409251 0.295874 -25.029999
v 0.418019 0.300775 -25.025980
v 0.457516 0.211206 -25.025980
v 0.457516 0.211206 -25.025980
v 0.418019 0.300775 -25.025980
v 0.464481 0.213555 -25.014999
v 0.418019 0.300775 -25.025980
v 0.424438 0.304362 -25.014999
v 0.464481 0.213555 -25.014999
v 0.464481 0.213555 -25.014999
v 0.424438 0.304362 -25.014999
v 0.467030 0.214414 -25.000000
v 0.424438 0.304362 -25.014999
v 0.426787 0.305675 -25.000000
v 0.467030 0.214414 -25.000000
v 0.467030 0.214414 -25.000000
v 0.426787 0.305675 -25.000000
v 0.467030 0.214414 25.000000
v 0.426787 0.305675 -25.000000
v 0.426787 0.305675 25.000000
v 0.467030 0.214414 25.000000
v 0.467030 0.214414 25.000000
v 0.426787 0.305675 25.000000
v 0.464481 0.213555 25.014999
v 0.426787 0.305675 25.000000
v 0.424438 0.304362 25.014999
v 0.464481 0.213555 25.014999
v 0.464481 0.213555 25.014999
v 0.424438 0.304362 25.014999
v 0.457516 0.211206 25.025982
v 0.424438 0.304362 25.014999
v 0.418019 0.300775 25.025982
v 0.457516 0.211206 25.025982
v 0.457516 0.211206 25.025982
v 0.418019 0.300775 25.025982
v 0.448001 0.207999 25.029999
v 0.418019 0.300775 25.025982
v 0.409251 0.295874 25.029999
v 0.448001 0.207999 25.029999
v 0.409251 0.295874 -25.029999
v 0.355001 0.374499 -25.029999
v 0.418019 0.300775 -25.025980
v 0.355001 0.374499 -25.029999
v 0.362679 0.380978 -25.025980
v 0.418019 0.300775 -25.025980
v 0.418019 0.300775 -25.025980
v 0.362679 0.380978 -25.025980
v 0.424438 0.304362 -25.014999
v 0.362679 0.380978 -25.025980
v 0.368301 0.385722 -25.014999
v 0.424438 0.304362 -25.014999
v 0.424438 0.304362 -25.014999
v 0.368301 0.385722 -25.014999
v 0.426787 0.305675 -25.000000
v 0.368301 0.385722 -25.014999
v 0.370358 0.387458 -25.000000
v 0.426787 0.305675 -25.000000
v 0.426787 0.305675 -25.000000
v 0.370358 0.387458 -25.000000
v 0.426787 0.305675 25.000000
v 0.370358 0.387458 -25.000000
v 0.370358 0.387458 25.000000
v 0.426787 0.305675 25.000000
v 0.426787 0.305675 25.000000
v 0.370358 0.387458 25.000000
v 0.424438 0.304362 25.014999
v 0.370358 0.387458 25.000000
v 0.368301 0.385722 25.014999
v 0.424438 0.304362 25.014999
v 0.424438 0.304362 25.014999
v 0.368301 0.385722 25.014999
v 0.418019 0.300775 25.025982
v 0.368301 0.385722 25.014999
v 0.362679 0.380978 25.025982
v 0.418019 0.300775 25.025982
v 0.418019 0.300775 25.025982
v 0.362679 0.380978 25.025982
v 0.409251 0.295874 25.029999
v 0.362679 0.380978 25.025982
v 0.355001 0.374499 25.029999
v 0.409251 0.295874 25.029999
v 0.355001 0.374499 -25.029999
v 0.283688 0.444062 -25.029999
v 0.362679 0.380978 -25.025980
v 0.283688 0.444062 -25.029999
v 0.289852 0.452019 -25.025980
v 0.362679 0.380978 -25.025980
v 0.362679 0.380978 -25.025980
v 0.289852 0.452019 -25.025980
v 0.368301 0.385722 -25.014999
v 0.289852 0.452019 -25.025980
v 0.294364 0.457844 -25.014999
v 0.368301 0.385722 -25.014999
v 0.368301 0.385722 -25.014999
v 0.294364 0.457844 -25.014999
v 0.370358 0.387458 -25.000000
v 0.294364 0.457844 -25.014999
v 0.296016 0.459976 -25.000000
v 0.370358 0.387458 -25.000000
v 0.370358 0.387458 -25.000000
v 0.296016 0.459976 -25.000000
v 0.370358 0.387458 25.000000
v 0.296016 0.459976 -25.000000
v 0.296016 0.459976 25.000000
v 0.370358 0.387458 25.000000
v 0.370358 0.387458 25.000000
v 0.296016 0.459976 25.000000
v 0.368301 0.385722 25.014999
v 0.296016 0.459976 25.000000
v 0.294364 0.457844 25.014999
v 0.368301 0.385722 25.014999
v 0.368301 0.385722 25.014999
v 0.294364 0.457844 25.014999
v 0.362679 0.380978 25.025982
v 0.294364 0.457844 25.014999
v 0.289852 0.452019 25.025982
v 0.362679 0.380978 25.025982
v 0.362679 0.380978 25.025982
v 0.289852 0.452019 25.025982
v 0.355001 0.374499 25.029999
v 0.289852 0.452019 25.025982
v 0.283688 0.444062 25.029999
v 0.355001 0.374499 25.029999
v 0.283688 0.444062 -25.029999
v 0.201751 0.493749 -25.029999
v 0.289852 0.452019 -25.025980
v 0.201751 0.493749 -25.029999
v 0.205933 0.502908 -25.025980
v 0.289852 0.452019 -25.025980
v 0.289852 0.452019 -25.025980
v 0.205933 0.502908 -25.025980
v 0.294364 0.457844 -25.014999
v 0.205933 0.502908 -25.025980
v 0.208995 0.509613 -25.014999
v 0.294364 0.457844 -25.014999
v 0.294364 0.457844 -25.014999
v 0.208995 0.509613 -25.014999
v 0.296016 0.459976 -25.000000
v 0.208995 0.509613 -25.014999
v 0.210115 0.512067 -25.000000
v 0.296016 0.459976 -25.000000
v 0.296016 0.459976 -25.000000
v 0.210115 0.512067 -25.000000
v 0.296016 0.459976 25.000000
v 0.210115 0.512067 -25.000000
v 0.210115 0.512067 25.000000
v 0.296016 0.459976 25.000000
v 0.296016 0.459976 25.000000
v 0.210115 0.512067 25.000000
v 0.294364 0.457844 25.014999
v 0.210115 0.512067 25.000000
v 0.208995 0.509613 25.014999
v 0.294364 0.457844 25.014999
v 0.294364 0.457844 25.014999
v 0.208995 0.509613 25.014999
v 0.289852 0.452019 25.025982
v 0.208995 0.509613 25.014999
v 0.205933 0.502908 25.025982
v 0.289852 0.452019 25.025982
v 0.289852 0.452019 25.025982
v 0.205933 0.502908 25.025982
v 0.283688 0.444062 25.029999
v 0.205933 0.502908 25.025982
v 0.201751 0.493749 25.029999
v 0.283688 0.444062 25.029999
v 0.201751 0.493749 -25.029999
v 0.109188 0.523562 -25.029999
v 0.205933 0.502908 -25.025980
v 0.109188 0.523562 -25.029999
v 0.111224 0.533412 -25.025980
v 0.205933 0.502908 -25.025980
v 0.205933 0.502908 -25.025980
v 0.111224 0.533412 -25.025980
v 0.208995 0.509613 -25.014999
v 0.111224 0.533412 -25.025980
v 0.112714 0.540623 -25.014999
v 0.208995 0.509613 -25.014999
v 0.208995 0.509613 -25.014999
v 0.112714 0.540623 -25.014999
v 0.210115 0.512067 -25.000000
v 0.112714 0.540623 -25.014999
v 0.113260 0.543262 -25.000000
v 0.210115 0.512067 -25.000000
v 0.210115 0.512067 -25.000000
v 0.113260 0.543262 -25.000000
v 0.210115 0.512067 25.000000
v 0.113260 0.543262 -25.000000
v 0.113260 0.543262 25.000000
v 0.210115 0.512067 25.000000
v 0.210115 0.512067 25.000000
v 0.113260 0.543262 25.000000
v 0.208995 0.509613 25.014999
v 0.113260 0.543262 25.000000
v 0.112714 0.540623 25.014999
v 0.208995 0.509613 25.014999
v 0.208995 0.509613 25.014999
v 0.112714 0.540623 25.014999
v 0.205933 0.502908 25.025982
v 0.112714 0.540623 25.014999
v 0.111224 0.533412 25.025982
v 0.205933 0.502908 25.025982
v 0.205933 0.502908 25.025982
v 0.111224 0.533412 25.025982
v 0.201751 0.493749 25.029999
v 0.111224 0.533412 25.025982
v 0.109188 0.523562 25.029999
v 0.201751 0.493749 25.029999
v 0.109188 0.523562 -25.029999
v 0.006001 0.533499 -25.029999
v 0.111224 0.533412 -25.025980
v 0.006001 0.533499 -25.029999
v 0.006006 0.543545 -25.025980
v 0.111224 0.533412 -25.025980
v 0.111224 0.533412 -25.025980
v 0.006006 0.543545 -25.025980
v 0.112714 0.540623 -25.014999
v 0.006006 0.543545 -25.025980
v 0.006010 0.550899 -25.014999
v 0.112714 0.540623 -25.014999
v 0.112714 0.540623 -25.014999
v 0.006010 0.550899 -25.014999
v 0.113260 0.543262 -25.000000
v 0.006010 0.550899 -25.014999
v 0.006011 0.553591 -25.000000
v 0.113260 0.543262 -25.000000
v 0.113260 0.543262 -25.000000
v 0.006011 0.553591 -25.000000
v 0.113260 0.543262 25.000000
v 0.006011 0.553591 -25.000000
v 0.006011 0.553591 25.000000
v 0.113260 0.543262 25.000000
v 0.113260 0.543262 25.000000
v 0.006011 0.553591 25.000000
v 0.112714 0.540623 25.014999
v 0.006011 0.553591 25.000000
v 0.006010 0.550899 25.014999
v 0.112714 0.540623 25.014999
v 0.112714 0.540623 25.014999
v 0.006010 0.550899 25.014999
v 0.111224 0.533412 25.025982
v 0.006010 0.550899 25.014999
v 0.006006 0.543545 25.025982
v 0.111224 0.533412 25.025982
v 0.111224 0.533412 25.025982
v 0.006006 0.543545 25.025982
v 0.109188 0.523562 25.029999
v 0.006006 0.543545 25.025982
v 0.006001 0.533499 25.029999
v 0.109188 0.523562 25.029999
v 0.001001 -0.409501 -25.029999
v -0.075249 -0.401626 -25.029999
v 0.000988 -0.399446 -25.025980
v -0.075249 -0.401626 -25.029999
v -0.073060 -0.391799 -25.025980
v 0.000988 -0.399446 -25.025980
v 0.000988 -0.399446 -25.025980
v -0.073060 -0.391799 -25.025980
v 0.000978 -0.392086 -25.014999
v -0.073060 -0.391799 -25.025980
v -0.071457 -0.384605 -25.014999
v 0.000978 -0.392086 -25.014999
v 0.000978 -0.392086 -25.014999
v -0.071457 -0.384605 -25.014999
v 0.000975 -0.389392 -25.000000
v -0.071457 -0.384605 -25.014999
v -0.070870 -0.381972 -25.000000
v 0.000975 -0.389392 -25.000000
v 0.000975 -0.389392 -25.000000
v -0.070870 -0.381972 -25.000000
v 0.000975 -0.389392 25.000000
v -0.070870 -0.381972 -25.000000
v -0.070870 -0.381972 25.000000
v 0.000975 -0.389392 25.000000
v 0.000975 -0.389392 25.000000
v -0.070870 -0.381972 25.000000
v 0.000978 -0.392086 25.014999
v -0.070870 -0.381972 25.000000
v -0.071457 -0.384605 25.014999
v 0.000978 -0.392086 25.014999
v 0.000978 -0.392086 25.014999
v -0.071457 -0.384605 25.014999
v 0.000988 -0.399446 25.025982
v -0.071457 -0.384605 25.014999
v -0.073060 -0.391799 25.025982
v 0.000988 -0.399446 25.025982
v 0.000988 -0.399446 25.025982
v -0.073060 -0.391799 25.025982
v 0.001001 -0.409501 25.029999
v -0.073060 -0.391799 25.025982
v -0.075249 -0.401626 25.029999
v 0.001001 -0.409501 25.029999
v -0.075249 -0.401626 -25.029999
v -0.142999 -0.378001 -25.029999
v -0.073060 -0.391799 -25.025980
v -0.142999 -0.378001 -25.029999
v -0.138515 -0.368974 -25.025980
v -0.073060 -0.391799 -25.025980
v -0.073060 -0.391799 -25.025980
v -0.138515 -0.368974 -25.025980
v -0.071457 -0.384605 -25.014999
v -0.138515 -0.368974 -25.025980
v -0.135233 -0.362366 -25.014999
v -0.071457 -0.384605 -25.014999
v -0.071457 -0.384605 -25.014999
v -0.135233 -0.362366 -25.014999
v -0.070870 -0.381972 -25.000000
v -0.135233 -0.362366 -25.014999
v -0.134031 -0.359947 -25.000000
v -0.070870 -0.381972 -25.000000
v -0.070870 -0.381972 -25.000000
v -0.134031 -0.359947 -25.000000
v -0.070870 -0.381972 25.000000
v -0.134031 -0.359947 -25.000000
v -0.134031 -0.359947 25.000000
v -0.070870 -0.381972 25.000000
v -0.070870 -0.381972 25.000000
v -0.134031 -0.359947 25.000000
v -0.071457 -0.384605 25.014999
v -0.134031 -0.359947 25.000000
v -0.135233 -0.362366 25.014999
v -0.071457 -0.384605 25.014999
v -0.071457 -0.384605 25.014999
v -0.135233 -0.362366 25.014999
v -0.073060 -0.391799 25.025982
v -0.135233 -0.362366 25.014999
v -0.138515 -0.368974 25.025982
v -0.073060 -0.391799 25.025982
v -0.073060 -0.391799 25.025982
v -0.138515 -0.368974 25.025982
v -0.075249 -0.401626 25.029999
v -0.138515 -0.368974 25.025982
v -0.142999 -0.378001 25.029999
v -0.075249 -0.401626 25.029999
v -0.142999 -0.378001 -25.029999
v -0.202249 -0.338626 -25.029999
v -0.138515 -0.368974 -25.025980
v -0.202249 -0.338626 -25.029999
v -0.195709 -0.330965 -25.025980
v -0.138515 -0.368974 -25.025980
v -0.138515 -0.368974 -25.025980
v -0.195709 -0.330965 -25.025980
v -0.135233 -0.362366 -25.014999
v -0.195709 -0.330965 -25.025980
v -0.190922 -0.325357 -25.014999
v -0.135233 -0.362366 -25.014999
v -0.135233 -0.362366 -25.014999
v -0.190922 -0.325357 -25.014999
v -0.134031 -0.359947 -25.000000
v -0.190922 -0.325357 -25.014999
v -0.189170 -0.323304 -25.000000
v -0.134031 -0.359947 -25.000000
v -0.134031 -0.359947 -25.000000
v -0.189170 -0.323304 -25.000000
v -0.134031 -0.359947 25.000000
v -0.189170 -0.323304 -25.000000
v -0.189170 -0.323304 25.000000
v -0.134031 -0.359947 25.000000
v -0.134031 -0.359947 25.000000
v -0.189170 -0.323304 25.000000
v -0.135233 -0.362366 25.014999
v -0.189170 -0.323304 25.000000
v -0.190922 -0.325357 25.014999
v -0.135233 -0.362366 25.014999
v -0.135233 -0.362366 25.014999
v -0.190922 -0.325357 25.014999
v -0.138515 -0.368974 25.025982
v -0.190922 -0.325357 25.014999
v -0.195709 -0.330965 25.025982
v -0.138515 -0.368974 25.025982
v -0.138515 -0.368974 25.025982
v -0.195709 -0.330965 25.025982
v -0.142999 -0.378001 25.029999
v -0.195709 -0.330965 25.025982
v -0.202249 -0.338626 25.029999
v -0.142999 -0.378001 25.029999
v -0.202249 -0.338626 -25.029999
v -0.252999 -0.283501 -25.029999
v -0.195709 -0.330965 -25.025980
v -0.252999 -0.283501 -25.029999
v -0.244966 -0.277463 -25.025980
v -0.195709 -0.330965 -25.025980
v -0.195709 -0.330965 -25.025980
v -0.244966 -0.277463 -25.025980
v -0.190922 -0.325357 -25.014999
v -0.244966 -0.277463 -25.025980
v -0.239085 -0.273043 -25.014999
v -0.190922 -0.325357 -25.014999
v -0.190922 -0.325357 -25.014999
v -0.239085 -0.273043 -25.014999
v -0.189170 -0.323304 -25.000000
v -0.239085 -0.273043 -25.014999
v -0.236932 -0.271425 -25.000000
v -0.189170 -0.323304 -25.000000
v -0.189170 -0.323304 -25.000000
v -0.236932 -0.271425 -25.000000
v -0.189170 -0.323304 25.000000
v -0.236932 -0.271425 -25.000000
v -0.236932 -0.271425 25.000000
v -0.189170 -0.323304 25.000000
v -0.189170 -0.323304 25.000000
v -0.236932 -0.271425 25.000000
v -0.190922 -0.325357 25.014999
v -0.236932 -0.271425 25.000000
v -0.239085 -0.273043 25.014999
v -0.190922 -0.325357 25.014999
v -0.190922 -0.325357 25.014999
v -0.239085 -0.273043 25.014999
v -0.195709 -0.330965 25.025982
v -0.239085 -0.273043 25.014999
v -0.244966 -0.277463 25.025982
v -0.195709 -0.330965 25.025982
v -0.195709 -0.330965 25.025982
v -0.244966 -0.277463 25.025982
v -0.202249 -0.338626 25.029999
v -0.244966 -0.277463 25.025982
v -0.252999 -0.283501 25.029999
v -0.202249 -0.338626 25.029999
v -0.252999 -0.283501 -25.029999
v -0.289749 -0.222876 -25.029999
v -0.244966 -0.277463 -25.025980
v -0.289749 -0.222876 -25.029999
v -0.280754 -0.218425 -25.025980
v -0.244966 -0.277463 -25.025980
v -0.244966 -0.277463 -25.025980
v -0.280754 -0.218425 -25.025980
v -0.239085 -0.273043 -25.014999
v -0.280754 -0.218425 -25.025980
v -0.274168 -0.215166 -25.014999
v -0.239085 -0.273043 -25.014999
v -0.239085 -0.273043 -25.014999
v -0.274168 -0.215166 -25.014999
v -0.236932 -0.271425 -25.000000
v -0.274168 -0.215166 -25.014999
v -0.271758 -0.213973 -25.000000
v -0.236932 -0.271425 -25.000000
v -0.236932 -0.271425 -25.000000
v -0.271758 -0.213973 -25.000000
v -0.236932 -0.271425 25.000000
v -0.271758 -0.213973 -25.000000
v -0.271758 -0.213973 25.000000
v -0.236932 -0.271425 25.000000
v -0.236932 -0.271425 25.000000
v -0.271758 -0.213973 25.000000
v -0.239085 -0.273043 25.014999
v -0.271758 -0.213973 25.000000
v -0.274168 -0.215166 25.014999
v -0.239085 -0.273043 25.014999
v -0.239085 -0.273043 25.014999
v -0.274168 -0.215166 25.014999
v -0.244966 -0.277463 25.025982
v -0.274168 -0.215166 25.014999
v -0.280754 -0.218425 25.025982
v -0.244966 -0.277463 25.025982
v -0.244966 -0.277463 25.025982
v -0.280754 -0.218425 25.025982
v -0.252999 -0.283501 25.029999
v -0.280754 -0.218425 25.025982
v -0.289749 -0.222876 25.029999
v -0.252999 -0.283501 25.029999
v -0.289749 -0.222876 -25.029999
v -0.315999 -0.156001 -25.029999
v -0.280754 -0.218425 -25.025980
v -0.315999 -0.156001 -25.029999
v -0.306394 -0.153102 -25.025980
v -0.280754 -0.218425 -25.025980
v -0.280754 -0.218425 -25.025980
v -0.306394 -0.153102 -25.025980
v -0.274168 -0.215166 -25.014999
v -0.306394 -0.153102 -25.025980
v -0.299363 -0.150980 -25.014999
v -0.274168 -0.215166 -25.014999
v -0.274168 -0.215166 -25.014999
v -0.299363 -0.150980 -25.014999
v -0.271758 -0.213973 -25.000000
v -0.299363 -0.150980 -25.014999
v -0.296789 -0.150204 -25.000000
v -0.271758 -0.213973 -25.000000
v -0.271758 -0.213973 -25.000000
v -0.296789 -0.150204 -25.000000
v -0.271758 -0.213973 25.000000
v -0.296789 -0.150204 -25.000000
v -0.296789 -0.150204 25.000000
v -0.271758 -0.213973 25.000000
v -0.271758 -0.213973 25.000000
v -0.296789 -0.150204 25.000000
v -0.274168 -0.215166 25.014999
v -0.296789 -0.150204 25.000000
v -0.299363 -0.150980 25.014999
v -0.274168 -0.215166 25.014999
v -0.274168 -0.215166 25.014999
v -0.299363 -0.150980 25.014999
v -0.280754 -0.218425 25.025982
v -0.299363 -0.150980 25.014999
v -0.306394 -0.153102 25.025982
v -0.280754 -0.218425 25.025982
v -0.280754 -0.218425 25.025982
v -0.306394 -0.153102 25.025982
v -0.289749 -0.222876 25.029999
v -0.306394 -0.153102 25.025982
v -0.315999 -0.156001 25.029999
v -0.289749 -0.222876 25.029999
v -0.315999 -0.156001 -25.029999
v -0.331749 -0.082876 -25.029999
v -0.306394 -0.153102 -25.025980
v -0.331749 -0.082876 -25.029999
v -0.321819 -0.081486 -25.025980
v -0.306394 -0.153102 -25.025980
v -0.306394 -0.153102 -25.025980
v -0.321819 -0.081486 -25.025980
v -0.299363 -0.150980 -25.014999
v -0.321819 -0.081486 -25.025980
v -0.314550 -0.080468 -25.014999
v -0.299363 -0.150980 -25.014999
v -0.299363 -0.150980 -25.014999
v -0.314550 -0.080468 -25.014999
v -0.296789 -0.150204 -25.000000
v -0.314550 -0.080468 -25.014999
v -0.311889 -0.080096 -25.000000
v -0.296789 -0.150204 -25.000000
v -0.296789 -0.150204 -25.000000
v -0.311889 -0.080096 -25.000000
v -0.296789 -0.150204 25.000000
v -0.311889 -0.080096 -25.000000
v -0.311889 -0.080096 25.000000
v -0.296789 -0.150204 25.000000
v -0.296789 -0.150204 25.000000
v -0.311889 -0.080096 25.000000
v -0.299363 -0.150980 25.014999
v -0.311889 -0.080096 25.000000
v -0.314550 -0.080468 25.014999
v -0.299363 -0.150980 25.014999
v -0.299363 -0.150980 25.014999
v -0.314550 -0.080468 25.014999
v -0.306394 -0.153102 25.025982
v -0.314550 -0.080468 25.014999
v -0.321819 -0.081486 25.025982
v -0.306394 -0.153102 25.025982
v -0.306394 -0.153102 25.025982
v -0.321819 -0.081486 25.025982
v -0.315999 -0.156001 25.029999
v -0.321819 -0.081486 25.025982
v -0.331749 -0.082876 25.029999
v -0.315999 -0.156001 25.029999
v -0.331749 -0.082876 -25.029999
v -0.336999 -0.003501 -25.029999
v -0.321819 -0.081486 -25.025980
v -0.336999 -0.003501 -25.029999
v -0.326977 -0.003499 -25.025980
v -0.321819 -0.081486 -25.025980
v -0.321819 -0.081486 -25.025980
v -0.326977 -0.003499 -25.025980
v -0.314550 -0.080468 -25.014999
v -0.326977 -0.003499 -25.025980
v -0.319641 -0.003498 -25.014999
v -0.314550 -0.080468 -25.014999
v -0.314550 -0.080468 -25.014999
v -0.319641 -0.003498 -25.014999
v -0.311889 -0.080096 -25.000000
v -0.319641 -0.003498 -25.014999
v -0.316956 -0.003498 -25.000000
v -0.311889 -0.080096 -25.000000
v -0.311889 -0.080096 -25.000000
v -0.316956 -0.003498 -25.000000
v -0.311889 -0.080096 25.000000
v -0.316956 -0.003498 -25.000000
v -0.316956 -0.003498 25.000000
v -0.311889 -0.080096 25.000000
v -0.311889 -0.080096 25.000000
v -0.316956 -0.003498 25.000000
v -0.314550 -0.080468 25.014999
v -0.316956 -0.003498 25.000000
v -0.319641 -0.003498 25.014999
v -0.314550 -0.080468 25.014999
v -0.314550 -0.080468 25.014999
v -0.319641 -0.003498 25.014999
v -0.321819 -0.081486 25.025982
v -0.319641 -0.003498 25.014999
v -0.326977 -0.003499 25.025982
v -0.321819 -0.081486 25.025982
v -0.321819 -0.081486 25.025982
v -0.326977 -0.003499 25.025982
v -0.331749 -0.082876 25.029999
v -0.326977 -0.003499 25.025982
v -0.336999 -0.003501 25.029999
v -0.331749 -0.082876 25.029999
v -0.336999 -0.003501 -25.029999
v -0.331749 0.076249 -25.029999
v -0.326977 -0.003499 -25.025980
v -0.331749 0.076249 -25.029999
v -0.321819 0.074862 -25.025980
v -0.326977 -0.003499 -25.025980
v -0.326977 -0.003499 -25.025980
v -0.321819 0.074862 -25.025980
v -0.319641 -0.003498 -25.014999
v -0.321819 0.074862 -25.025980
v -0.314549 0.073847 -25.014999
v -0.319641 -0.003498 -25.014999
v -0.319641 -0.003498 -25.014999
v -0.314549 0.073847 -25.014999
v -0.316956 -0.003498 -25.000000
v -0.314549 0.073847 -25.014999
v -0.311888 0.073475 -25.000000
v -0.316956 -0.003498 -25.000000
v -0.316956 -0.003498 -25.000000
v -0.311888 0.073475 -25.000000
v -0.316956 -0.003498 25.000000
v -0.311888 0.073475 -25.000000
v -0.311888 0.073475 25.000000
v -0.316956 -0.003498 25.000000
v -0.316956 -0.003498 25.000000
v -0.311888 0.073475 25.000000
v -0.319641 -0.003498 25.014999
v -0.311888 0.073475 25.000000
v -0.314549 0.073847 25.014999
v -0.319641 -0.003498 25.014999
v -0.319641 -0.003498 25.014999
v -0.314549 0.073847 25.014999
v -0.326977 -0.003499 25.025982
v -0.314549 0.073847 25.014999
v -0.321819 0.074862 25.025982
v -0.326977 -0.003499 25.025982
v -0.326977 -0.003499 25.025982
v -0.321819 0.074862 25.025982
v -0.336999 -0.003501 25.029999
v -0.321819 0.074862 25.025982
v -0.331749 0.076249 25.029999
v -0.336999 -0.003501 25.029999
v -0.331749 0.076249 -25.029999
v -0.315999 0.149499 -25.029999
v -0.321819 0.074862 -25.025980
v -0.315999 0.149499 -25.029999
v -0.306394 0.146599 -25.025980
v -0.321819 0.074862 -25.025980
v -0.321819 0.074862 -25.025980
v -0.306394 0.146599 -25.025980
v -0.314549 0.073847 -25.014999
v -0.306394 0.146599 -25.025980
v -0.299363 0.144476 -25.014999
v -0.314549 0.073847 -25.014999
v -0.314549 0.073847 -25.014999
v -0.299363 0.144476 -25.014999
v -0.311888 0.073475 -25.000000
v -0.299363 0.144476 -25.014999
v -0.296789 0.143699 -25.000000
v -0.311888 0.073475 -25.000000
v -0.311888 0.073475 -25.000000
v -0.296789 0.143699 -25.000000
v -0.311888 0.073475 25.000000
v -0.296789 0.143699 -25.000000
v -0.296789 0.143699 25.000000
v -0.311888 0.073475 25.000000
v -0.311888 0.073475 25.000000
v -0.296789 0.143699 25.000000
v -0.314549 0.073847 25.014999
v -0.296789 0.143699 25.000000
v -0.299363 0.144476 25.014999
v -0.314549 0.073847 25.014999
v -0.314549 0.073847 25.014999
v -0.299363 0.144476 25.014999
v -0.321819 0.074862 25.025982
v -0.299363 0.144476 25.014999
v -0.306394 0.146599 25.025982
v -0.321819 0.074862 25.025982
v -0.321819 0.074862 25.025982
v -0.306394 0.146599 25.025982
v -0.331749 0.076249 25.029999
v -0.306394 0.146599 25.025982
v -0.315999 0.149499 25.029999
v -0.331749 0.076249 25.029999
v -0.315999 0.149499 -25.029999
v -0.289749 0.216249 -25.029999
v -0.306394 0.146599 -25.025980
v -0.289749 0.216249 -25.029999
v -0.280760 0.211782 -25.025980
v -0.306394 0.146599 -25.025980
v -0.306394 0.146599 -25.025980
v -0.280760 0.211782 -25.025980
v -0.299363 0.144476 -25.014999
v -0.280760 0.211782 -25.025980
v -0.274180 0.208512 -25.014999
v -0.299363 0.144476 -25.014999
v -0.299363 0.144476 -25.014999
v -0.274180 0.208512 -25.014999
v -0.296789 0.143699 -25.000000
v -0.274180 0.208512 -25.014999
v -0.271772 0.207315 -25.000000
v -0.296789 0.143699 -25.000000
v -0.296789 0.143699 -25.000000
v -0.271772 0.207315 -25.000000
v -0.296789 0.143699 25.000000
v -0.271772 0.207315 -25.000000
v -0.271772 0.207315 25.000000
v -0.296789 0.143699 25.000000
v -0.296789 0.143699 25.000000
v -0.271772 0.207315 25.000000
v -0.299363 0.144476 25.014999
v -0.271772 0.207315 25.000000
v -0.274180 0.208512 25.014999
v -0.299363 0.144476 25.014999
v -0.299363 0.144476 25.014999
v -0.274180 0.208512 25.014999
v -0.306394 0.146599 25.025982
v -0.274180 0.208512 25.014999
v -0.280760 0.211782 25.025982
v -0.306394 0.146599 25.025982
v -0.306394 0.146599 25.025982
v -0.280760 0.211782 25.025982
v -0.315999 0.149499 25.029999
v -0.280760 0.211782 25.025982
v -0.289749 0.216249 25.029999
v -0.315999 0.149499 25.029999
v -0.289749 0.216249 -25.029999
v -0.252999 0.276499 -25.029999
v -0.280760 0.211782 -25.025980
v -0.252999 0.276499 -25.029999
v -0.244974 0.270453 -25.025980
v -0.280760 0.211782 -25.025980
v -0.280760 0.211782 -25.025980
v -0.244974 0.270453 -25.025980
v -0.274180 0.208512 -25.014999
v -0.244974 0.270453 -25.025980
v -0.239098 0.266027 -25.014999
v -0.274180 0.208512 -25.014999
v -0.274180 0.208512 -25.014999
v -0.239098 0.266027 -25.014999
v -0.271772 0.207315 -25.000000
v -0.239098 0.266027 -25.014999
v -0.236948 0.264407 -25.000000
v -0.271772 0.207315 -25.000000
v -0.271772 0.207315 -25.000000
v -0.236948 0.264407 -25.000000
v -0.271772 0.207315 25.000000
v -0.236948 0.264407 -25.000000
v -0.236948 0.264407 25.000000
v -0.271772 0.207315 25.000000
v -0.271772 0.207315 25.000000
v -0.236948 0.264407 25.000000
v -0.274180 0.208512 25.014999
v -0.236948 0.264407 25.000000
v -0.239098 0.266027 25.014999
v -0.274180 0.208512 25.014999
v -0.274180 0.208512 25.014999
v -0.239098 0.266027 25.014999
v -0.280760 0.211782 25.025982
v -0.239098 0.266027 25.014999
v -0.244974 0.270453 25.025982
v -0.280760 0.211782 25.025982
v -0.280760 0.211782 25.025982
v -0.244974 0.270453 25.025982
v -0.289749 0.216249 25.029999
v -0.244974 0.270453 25.025982
v -0.252999 0.276499 25.029999
v -0.289749 0.216249 25.029999
v -0.252999 0.276499 -25.029999
v -0.201499 0.332499 -25.029999
v -0.244974 0.270453 -25.025980
v -0.201499 0.332499 -25.029999
v -0.194939 0.324860 -25.025980
v -0.244974 0.270453 -25.025980
v -0.244974 0.270453 -25.025980
v -0.194939 0.324860 -25.025980
v -0.239098 0.266027 -25.014999
v -0.194939 0.324860 -25.025980
v -0.190136 0.319267 -25.014999
v -0.239098 0.266027 -25.014999
v -0.239098 0.266027 -25.014999
v -0.190136 0.319267 -25.014999
v -0.236948 0.264407 -25.000000
v -0.190136 0.319267 -25.014999
v -0.188379 0.317220 -25.000000
v -0.236948 0.264407 -25.000000
v -0.236948 0.264407 -25.000000
v -0.188379 0.317220 -25.000000
v -0.236948 0.264407 25.000000
v -0.188379 0.317220 -25.000000
v -0.188379 0.317220 25.000000
v -0.236948 0.264407 25.000000
v -0.236948 0.264407 25.000000
v -0.188379 0.317220 25.000000
v -0.239098 0.266027 25.014999
v -0.188379 0.317220 25.000000
v -0.190136 0.319267 25.014999
v -0.239098 0.266027 25.014999
v -0.239098 0.266027 25.014999
v -0.190136 0.319267 25.014999
v -0.244974 0.270453 25.025982
v -0.190136 0.319267 25.014999
v -0.194939 0.324860 25.025982
v -0.244974 0.270453 25.025982
v -0.244974 0.270453 25.025982
v -0.194939 0.324860 25.025982
v -0.252999 0.276499 25.029999
v -0.194939 0.324860 25.025982
v -0.201499 0.332499 25.029999
v -0.252999 0.276499 25.029999
v -0.201499 0.332499 -25.029999
v -0.141999 0.372499 -25.029999
v -0.194939 0.324860 -25.025980
v -0.141999 0.372499 -25.029999
v -0.137464 0.363498 -25.025980
v -0.194939 0.324860 -25.025980
v -0.194939 0.324860 -25.025980
v -0.137464 0.363498 -25.025980
v -0.190136 0.319267 -25.014999
v -0.137464 0.363498 -25.025980
v -0.134144 0.356909 -25.014999
v -0.190136 0.319267 -25.014999
v -0.190136 0.319267 -25.014999
v -0.134144 0.356909 -25.014999
v -0.188379 0.317220 -25.000000
v -0.134144 0.356909 -25.014999
v -0.132929 0.354498 -25.000000
v -0.188379 0.317220 -25.000000
v -0.188379 0.317220 -25.000000
v -0.132929 0.354498 -25.000000
v -0.188379 0.317220 25.000000
v -0.132929 0.354498 -25.000000
v -0.132929 0.354498 25.000000
v -0.188379 0.317220 25.000000
v -0.188379 0.317220 25.000000
v -0.132929 0.354498 25.000000
v -0.190136 0.319267 25.014999
v -0.132929 0.354498 25.000000
v -0.134144 0.356909 25.014999
v -0.190136 0.319267 25.014999
v -0.190136 0.319267 25.014999
v -0.134144 0.356909 25.014999
v -0.194939 0.324860 25.025982
v -0.134144 0.356909 25.014999
v -0.137464 0.363498 25.025982
v -0.194939 0.324860 25.025982
v -0.194939 0.324860 25.025982
v -0.137464 0.363498 25.025982
v -0.201499 0.332499 25.029999
v -0.137464 0.363498 25.025982
v -0.141999 0.372499 25.029999
v -0.201499 0.332499 25.029999
v -0.141999 0.372499 -25.029999
v -0.074499 0.396499 -25.029999
v -0.137464 0.363498 -25.025980
v -0.074499 0.396499 -25.029999
v -0.072266 0.386680 -25.025980
v -0.137464 0.363498 -25.025980
v -0.137464 0.363498 -25.025980
v -0.072266 0.386680 -25.025980
v -0.134144 0.356909 -25.014999
v -0.072266 0.386680 -25.025980
v -0.070632 0.379491 -25.014999
v -0.134144 0.356909 -25.014999
v -0.134144 0.356909 -25.014999
v -0.070632 0.379491 -25.014999
v -0.132929 0.354498 -25.000000
v -0.070632 0.379491 -25.014999
v -0.070033 0.376860 -25.000000
v -0.132929 0.354498 -25.000000
v -0.132929 0.354498 -25.000000
v -0.070033 0.376860 -25.000000
v -0.132929 0.354498 25.000000
v -0.070033 0.376860 -25.000000
v -0.070033 0.376860 25.000000
v -0.132929 0.354498 25.000000
v -0.132929 0.354498 25.000000
v -0.070033 0.376860 25.000000
v -0.134144 0.356909 25.014999
v -0.070033 0.376860 25.000000
v -0.070632 0.379491 25.014999
v -0.134144 0.356909 25.014999
v -0.134144 0.356909 25.014999
v -0.070632 0.379491 25.014999
v -0.137464 0.363498 25.025982
v -0.070632 0.379491 25.014999
v -0.072266 0.386680 25.025982
v -0.137464 0.363498 25.025982
v -0.137464 0.363498 25.025982
v -0.072266 0.386680 25.025982
v -0.141999 0.372499 25.029999
v -0.072266 0.386680 25.025982
v -0.074499 0.396499 25.029999
v -0.141999 0.372499 25.029999
v -0.074499 0.396499 -25.029999
v 0.001001 0.404499 -25.029999
v -0.072266 0.386680 -25.025980
v 0.001001 0.404499 -25.029999
v 0.000999 0.394443 -25.025980
v -0.072266 0.386680 -25.025980
v -0.072266 0.386680 -25.025980
v 0.000999 0.394443 -25.025980
v -0.070632 0.379491 -25.014999
v 0.000999 0.394443 -25.025980
v 0.000997 0.387081 -25.014999
v -0.070632 0.379491 -25.014999
v -0.070632 0.379491 -25.014999
v 0.000997 0.387081 -25.014999
v -0.070033 0.376860 -25.000000
v 0.000997 0.387081 -25.014999
v 0.000997 0.384387 -25.000000
v -0.070033 0.376860 -25.000000
v -0.070033 0.376860 -25.000000
v 0.000997 0.384387 -25.000000
v -0.070033 0.376860 25.000000
v 0.000997 0.384387 -25.000000
v 0.000997 0.384387 25.000000
v -0.070033 0.376860 25.000000
v -0.070033 0.376860 25.000000
v 0.000997 0.384387 25.000000
v -0.070632 0.379491 25.014999
v 0.000997 0.384387 25.000000
v 0.000997 0.387081 25.014999
v -0.070632 0.379491 25.014999
v -0.070632 0.379491 25.014999
v 0.000997 0.387081 25.014999
v -0.072266 0.386680 25.025982
v 0.000997 0.387081 25.014999
v 0.000999 0.394443 25.025982
v -0.072266 0.386680 25.025982
v -0.072266 0.386680 25.025982
v 0.000999 0.394443 25.025982
v -0.074499 0.396499 25.029999
v 0.000999 0.394443 25.025982
v 0.001001 0.404499 25.029999
v -0.074499 0.396499 25.029999
v 0.001001 0.404499 -25.029999
v 0.076813 0.396437 -25.029999
v 0.000999 0.394443 -25.025980
v 0.076813 0.396437 -25.029999
v 0.074565 0.386619 -25.025980
v 0.000999 0.394443 -25.025980
v 0.000999 0.394443 -25.025980
v 0.074565 0.386619 -25.025980
v 0.000997 0.387081 -25.014999
v 0.074565 0.386619 -25.025980
v 0.072919 0.379433 -25.014999
v 0.000997 0.387081 -25.014999
v 0.000997 0.387081 -25.014999
v 0.072919 0.379433 -25.014999
v 0.000997 0.384387 -25.000000
v 0.072919 0.379433 -25.014999
v 0.072316 0.376802 -25.000000
v 0.000997 0.384387 -25.000000
v 0.000997 0.384387 -25.000000
v 0.072316 0.376802 -25.000000
v 0.000997 0.384387 25.000000
v 0.072316 0.376802 -25.000000
v 0.072316 0.376802 25.000000
v 0.000997 0.384387 25.000000
v 0.000997 0.384387 25.000000
v 0.072316 0.376802 25.000000
v 0.000997 0.387081 25.014999
v 0.072316 0.376802 25.000000
v 0.072919 0.379433 25.014999
v 0.000997 0.387081 25.014999
v 0.000997 0.387081 25.014999
v 0.072919 0.379433 25.014999
v 0.000999 0.394443 25.025982
v 0.072919 0.379433 25.014999
v 0.074565 0.386619 25.025982
v 0.000999 0.394443 25.025982
v 0.000999 0.394443 25.025982
v 0.074565 0.386619 25.025982
v 0.001001 0.404499 25.029999
v 0.074565 0.386619 25.025982
v 0.076813 0.396437 25.029999
v 0.001001 0.404499 25.029999
v 0.076813 0.396437 -25.029999
v 0.144251 0.372249 -25.029999
v 0.074565 0.386619 -25.025980
v 0.144251 0.372249 -25.029999
v 0.139670 0.363268 -25.025980
v 0.074565 0.386619 -25.025980
v 0.074565 0.386619 -25.025980
v 0.139670 0.363268 -25.025980
v 0.072919 0.379433 -25.014999
v 0.139670 0.363268 -25.025980
v 0.136317 0.356694 -25.014999
v 0.072919 0.379433 -25.014999
v 0.072919 0.379433 -25.014999
v 0.136317 0.356694 -25.014999
v 0.072316 0.376802 -25.000000
v 0.136317 0.356694 -25.014999
v 0.135090 0.354287 -25.000000
v 0.072316 0.376802 -25.000000
v 0.072316 0.376802 -25.000000
v 0.135090 0.354287 -25.000000
v 0.072316 0.376802 25.000000
v 0.135090 0.354287 -25.000000
v 0.135090 0.354287 25.000000
v 0.072316 0.376802 25.000000
v 0.072316 0.376802 25.000000
v 0.135090 0.354287 25.000000
v 0.072919 0.379433 25.014999
v 0.135090 0.354287 25.000000
v 0.136317 0.356694 25.014999
v 0.072919 0.379433 25.014999
v 0.072919 0.379433 25.014999
v 0.136317 0.356694 25.014999
v 0.074565 0.386619 25.025982
v 0.136317 0.356694 25.014999
v 0.139670 0.363268 25.025982
v 0.074565 0.386619 25.025982
v 0.074565 0.386619 25.025982
v 0.139670 0.363268 25.025982
v 0.076813 0.396437 25.029999
v 0.139670 0.363268 25.025982
v 0.144251 0.372249 25.029999
v 0.076813 0.396437 25.029999
v 0.144251 0.372249 -25.029999
v 0.203313 0.331937 -25.029999
v 0.139670 0.363268 -25.025980
v 0.203313 0.331937 -25.029999
v 0.196679 0.324357 -25.025980
v 0.139670 0.363268 -25.025980
v 0.139670 0.363268 -25.025980
v 0.196679 0.324357 -25.025980
v 0.136317 0.356694 -25.014999
v 0.196679 0.324357 -25.025980
v 0.191823 0.318809 -25.014999
v 0.136317 0.356694 -25.014999
v 0.136317 0.356694 -25.014999
v 0.191823 0.318809 -25.014999
v 0.135090 0.354287 -25.000000
v 0.191823 0.318809 -25.014999
v 0.190046 0.316778 -25.000000
v 0.135090 0.354287 -25.000000
v 0.135090 0.354287 -25.000000
v 0.190046 0.316778 -25.000000
v 0.135090 0.354287 25.000000
v 0.190046 0.316778 -25.000000
v 0.190046 0.316778 25.000000
v 0.135090 0.354287 25.000000
v 0.135090 0.354287 25.000000
v 0.190046 0.316778 25.000000
v 0.136317 0.356694 25.014999
v 0.190046 0.316778 25.000000
v 0.191823 0.318809 25.014999
v 0.136317 0.356694 25.014999
v 0.136317 0.356694 25.014999
v 0.191823 0.318809 25.014999
v 0.139670 0.363268 25.025982
v 0.191823 0.318809 25.014999
v 0.196679 0.324357 25.025982
v 0.139670 0.363268 25.025982
v 0.139670 0.363268 25.025982
v 0.196679 0.324357 25.025982
v 0.144251 0.372249 25.029999
v 0.196679 0.324357 25.025982
v 0.203313 0.331937 25.029999
v 0.144251 0.372249 25.029999
v 0.203313 0.331937 -25.029999
v 0.254001 0.275499 -25.029999
v 0.196679 0.324357 -25.025980
v 0.254001 0.275499 -25.029999
v 0.245910 0.269542 -25.025980
v 0.196679 0.324357 -25.025980
v 0.196679 0.324357 -25.025980
v 0.245910 0.269542 -25.025980
v 0.191823 0.318809 -25.014999
v 0.245910 0.269542 -25.025980
v 0.239987 0.265181 -25.014999
v 0.191823 0.318809 -25.014999
v 0.191823 0.318809 -25.014999
v 0.239987 0.265181 -25.014999
v 0.190046 0.316778 -25.000000
v 0.239987 0.265181 -25.014999
v 0.237819 0.263585 -25.000000
v 0.190046 0.316778 -25.000000
v 0.190046 0.316778 -25.000000
v 0.237819 0.263585 -25.000000
v 0.190046 0.316778 25.000000
v 0.237819 0.263585 -25.000000
v 0.237819 0.263585 25.000000
v 0.190046 0.316778 25.000000
v 0.190046 0.316778 25.000000
v 0.237819 0.263585 25.000000
v 0.191823 0.318809 25.014999
v 0.237819 0.263585 25.000000
v 0.239987 0.265181 25.014999
v 0.191823 0.318809 25.014999
v 0.191823 0.318809 25.014999
v 0.239987 0.265181 25.014999
v 0.196679 0.324357 25.025982
v 0.239987 0.265181 25.014999
v 0.245910 0.269542 25.025982
v 0.196679 0.324357 25.025982
v 0.196679 0.324357 25.025982
v 0.245910 0.269542 25.025982
v 0.203313 0.331937 25.029999
v 0.245910 0.269542 25.025982
v 0.254001 0.275499 25.029999
v 0.203313 0.331937 25.029999
v 0.254001 0.275499 -25.029999
v 0.289876 0.215312 -25.029999
v 0.245910 0.269542 -25.025980
v 0.289876 0.215312 -25.029999
v 0.280850 0.210924 -25.025980
v 0.245910 0.269542 -25.025980
v 0.245910 0.269542 -25.025980
v 0.280850 0.210924 -25.025980
v 0.239987 0.265181 -25.014999
v 0.280850 0.210924 -25.025980
v 0.274242 0.207711 -25.014999
v 0.239987 0.265181 -25.014999
v 0.239987 0.265181 -25.014999
v 0.274242 0.207711 -25.014999
v 0.237819 0.263585 -25.000000
v 0.274242 0.207711 -25.014999
v 0.271823 0.206536 -25.000000
v 0.237819 0.263585 -25.000000
v 0.237819 0.263585 -25.000000
v 0.271823 0.206536 -25.000000
v 0.237819 0.263585 25.000000
v 0.271823 0.206536 -25.000000
v 0.271823 0.206536 25.000000
v 0.237819 0.263585 25.000000
v 0.237819 0.263585 25.000000
v 0.271823 0.206536 25.000000
v 0.239987 0.265181 25.014999
v 0.271823 0.206536 25.000000
v 0.274242 0.207711 25.014999
v 0.239987 0.265181 25.014999
v 0.239987 0.265181 25.014999
v 0.274242 0.207711 25.014999
v 0.245910 0.269542 25.025982
v 0.274242 0.207711 25.014999
v 0.280850 0.210924 25.025982
v 0.245910 0.269542 25.025982
v 0.245910 0.269542 25.025982
v 0.280850 0.210924 25.025982
v 0.254001 0.275499 25.029999
v 0.280850 0.210924 25.025982
v 0.289876 0.215312 25.029999
v 0.254001 0.275499 25.029999
v 0.289876 0.215312 -25.029999
v 0.315501 0.148749 -25.029999
v 0.280850 0.210924 -25.025980
v 0.315501 0.148749 -25.029999
v 0.305881 0.145903 -25.025980
v 0.280850 0.210924 -25.025980
v 0.280850 0.210924 -25.025980
v 0.305881 0.145903 -25.025980
v 0.274242 0.207711 -25.014999
v 0.305881 0.145903 -25.025980
v 0.298839 0.143820 -25.014999
v 0.274242 0.207711 -25.014999
v 0.274242 0.207711 -25.014999
v 0.298839 0.143820 -25.014999
v 0.271823 0.206536 -25.000000
v 0.298839 0.143820 -25.014999
v 0.296261 0.143057 -25.000000
v 0.271823 0.206536 -25.000000
v 0.271823 0.206536 -25.000000
v 0.296261 0.143057 -25.000000
v 0.271823 0.206536 25.000000
v 0.296261 0.143057 -25.000000
v 0.296261 0.143057 25.000000
v 0.271823 0.206536 25.000000
v 0.271823 0.206536 25.000000
v 0.296261 0.143057 25.000000
v 0.274242 0.207711 25.014999
v 0.296261 0.143057 25.000000
v 0.298839 0.143820 25.014999
v 0.274242 0.207711 25.014999
v 0.274242 0.207711 25.014999
v 0.298839 0.143820 25.014999
v 0.280850 0.210924 25.025982
v 0.298839 0.143820 25.014999
v 0.305881 0.145903 25.025982
v 0.280850 0.210924 25.025982
v 0.280850 0.210924 25.025982
v 0.305881 0.145903 25.025982
v 0.289876 0.215312 25.029999
v 0.305881 0.145903 25.025982
v 0.315501 0.148749 25.029999
v 0.289876 0.215312 25.029999
v 0.315501 0.148749 -25.029999
v 0.330876 0.075812 -25.029999
v 0.305881 0.145903 -25.025980
v 0.330876 0.075812 -25.029999
v 0.320943 0.074451 -25.025980
v 0.305881 0.145903 -25.025980
v 0.305881 0.145903 -25.025980
v 0.320943 0.074451 -25.025980
v 0.298839 0.143820 -25.014999
v 0.320943 0.074451 -25.025980
v 0.313671 0.073455 -25.014999
v 0.298839 0.143820 -25.014999
v 0.298839 0.143820 -25.014999
v 0.313671 0.073455 -25.014999
v 0.296261 0.143057 -25.000000
v 0.313671 0.073455 -25.014999
v 0.311010 0.073090 -25.000000
v 0.296261 0.143057 -25.000000
v 0.296261 0.143057 -25.000000
v 0.311010 0.073090 -25.000000
v 0.296261 0.143057 25.000000
v 0.311010 0.073090 -25.000000
v 0.311010 0.073090 25.000000
v 0.296261 0.143057 25.000000
v 0.296261 0.143057 25.000000
v 0.311010 0.073090 25.000000
v 0.298839 0.143820 25.014999
v 0.311010 0.073090 25.000000
v 0.313671 0.073455 25.014999
v 0.298839 0.143820 25.014999
v 0.298839 0.143820 25.014999
v 0.313671 0.073455 25.014999
v 0.305881 0.145903 25.025982
v 0.313671 0.073455 25.014999
v 0.320943 0.074451 25.025982
v 0.305881 0.145903 25.025982
v 0.305881 0.145903 25.025982
v 0.320943 0.074451 25.025982
v 0.315501 0.148749 25.029999
v 0.320943 0.074451 25.025982
v 0.330876 0.075812 25.029999
v 0.315501 0.148749 25.029999
v 0.330876 0.075812 -25.029999
v 0.336001 -0.003501 -25.029999
v 0.320943 0.074451 -25.025980
v 0.336001 -0.003501 -25.029999
v 0.325979 -0.003492 -25.025980
v 0.320943 0.074451 -25.025980
v 0.320943 0.074451 -25.025980
v 0.325979 -0.003492 -25.025980
v 0.313671 0.073455 -25.014999
v 0.325979 -0.003492 -25.025980
v 0.318643 -0.003485 -25.014999
v 0.313671 0.073455 -25.014999
v 0.313671 0.073455 -25.014999
v 0.318643 -0.003485 -25.014999
v 0.311010 0.073090 -25.000000
v 0.318643 -0.003485 -25.014999
v 0.315958 -0.003482 -25.000000
v 0.311010 0.073090 -25.000000
v 0.311010 0.073090 -25.000000
v 0.315958 -0.003482 -25.000000
v 0.311010 0.073090 25.000000
v 0.315958 -0.003482 -25.000000
v 0.315958 -0.003482 25.000000
v 0.311010 0.073090 25.000000
v 0.311010 0.073090 25.000000
v 0.315958 -0.003482 25.000000
v 0.313671 0.073455 25.014999
v 0.315958 -0.003482 25.000000
v 0.318643 -0.003485 25.014999
v 0.313671 0.073455 25.014999
v 0.313671 0.073455 25.014999
v 0.318643 -0.003485 25.014999
v 0.320943 0.074451 25.025982
v 0.318643 -0.003485 25.014999
v 0.325979 -0.003492 25.025982
v 0.320943 0.074451 25.025982
v 0.320943 0.074451 25.025982
v 0.325979 -0.003492 25.025982
v 0.330876 0.075812 25.029999
v 0.325979 -0.003492 25.025982
v 0.336001 -0.003501 25.029999
v 0.330876 0.075812 25.029999
v 0.336001 -0.003501 -25.029999
v 0.330751 -0.082438 -25.029999
v 0.325979 -0.003492 -25.025980
v 0.330751 -0.082438 -25.029999
v 0.320822 -0.081042 -25.025980
v 0.325979 -0.003492 -25.025980
v 0.325979 -0.003492 -25.025980
v 0.320822 -0.081042 -25.025980
v 0.318643 -0.003485 -25.014999
v 0.320822 -0.081042 -25.025980
v 0.313553 -0.080020 -25.014999
v 0.318643 -0.003485 -25.014999
v 0.318643 -0.003485 -25.014999
v 0.313553 -0.080020 -25.014999
v 0.315958 -0.003482 -25.000000
v 0.313553 -0.080020 -25.014999
v 0.310892 -0.079646 -25.000000
v 0.315958 -0.003482 -25.000000
v 0.315958 -0.003482 -25.000000
v 0.310892 -0.079646 -25.000000
v 0.315958 -0.003482 25.000000
v 0.310892 -0.079646 -25.000000
v 0.310892 -0.079646 25.000000
v 0.315958 -0.003482 25.000000
v 0.315958 -0.003482 25.000000
v 0.310892 -0.079646 25.000000
v 0.318643 -0.003485 25.014999
v 0.310892 -0.079646 25.000000
v 0.313553 -0.080020 25.014999
v 0.318643 -0.003485 25.014999
v 0.318643 -0.003485 25.014999
v 0.313553 -0.080020 25.014999
v 0.325979 -0.003492 25.025982
v 0.313553 -0.080020 25.014999
v 0.320822 -0.081042 25.025982
v 0.325979 -0.003492 25.025982
v 0.325979 -0.003492 25.025982
v 0.320822 -0.081042 25.025982
v 0.336001 -0.003501 25.029999
v 0.320822 -0.081042 25.025982
v 0.330751 -0.082438 25.029999
v 0.336001 -0.003501 25.029999
v 0.330751 -0.082438 -25.029999
v 0.315001 -0.155251 -25.029999
v 0.320822 -0.081042 -25.025980
v 0.315001 -0.155251 -25.029999
v 0.305398 -0.152343 -25.025980
v 0.320822 -0.081042 -25.025980
v 0.320822 -0.081042 -25.025980
v 0.305398 -0.152343 -25.025980
v 0.313553 -0.080020 -25.014999
v 0.305398 -0.152343 -25.025980
v 0.298369 -0.150215 -25.014999
v 0.313553 -0.080020 -25.014999
v 0.313553 -0.080020 -25.014999
v 0.298369 -0.150215 -25.014999
v 0.310892 -0.079646 -25.000000
v 0.298369 -0.150215 -25.014999
v 0.295796 -0.149436 -25.000000
v 0.310892 -0.079646 -25.000000
v 0.310892 -0.079646 -25.000000
v 0.295796 -0.149436 -25.000000
v 0.310892 -0.079646 25.000000
v 0.295796 -0.149436 -25.000000
v 0.295796 -0.149436 25.000000
v 0.310892 -0.079646 25.000000
v 0.310892 -0.079646 25.000000
v 0.295796 -0.149436 25.000000
v 0.313553 -0.080020 25.014999
v 0.295796 -0.149436 25.000000
v 0.298369 -0.150215 25.014999
v 0.313553 -0.080020 25.014999
v 0.313553 -0.080020 25.014999
v 0.298369 -0.150215 25.014999
v 0.320822 -0.081042 25.025982
v 0.298369 -0.150215 25.014999
v 0.305398 -0.152343 25.025982
v 0.320822 -0.081042 25.025982
v 0.320822 -0.081042 25.025982
v 0.305398 -0.152343 25.025982
v 0.330751 -0.082438 25.029999
v 0.305398 -0.152343 25.025982
v 0.315001 -0.155251 25.029999
v 0.330751 -0.082438 25.029999
v 0.315001 -0.155251 -25.029999
v 0.288751 -0.221938 -25.029999
v 0.305398 -0.152343 -25.025980
v 0.288751 -0.221938 -25.029999
v 0.279759 -0.217481 -25.025980
v 0.305398 -0.152343 -25.025980
v 0.305398 -0.152343 -25.025980
v 0.279759 -0.217481 -25.025980
v 0.298369 -0.150215 -25.014999
v 0.279759 -0.217481 -25.025980
v 0.273176 -0.214218 -25.014999
v 0.298369 -0.150215 -25.014999
v 0.298369 -0.150215 -25.014999
v 0.273176 -0.214218 -25.014999
v 0.295796 -0.149436 -25.000000
v 0.273176 -0.214218 -25.014999
v 0.270766 -0.213023 -25.000000
v 0.295796 -0.149436 -25.000000
v 0.295796 -0.149436 -25.000000
v 0.270766 -0.213023 -25.000000
v 0.295796 -0.149436 25.000000
v 0.270766 -0.213023 -25.000000
v 0.270766 -0.213023 25.000000
v 0.295796 -0.149436 25.000000
v 0.295796 -0.149436 25.000000
v 0.270766 -0.213023 25.000000
v 0.298369 -0.150215 25.014999
v 0.270766 -0.213023 25.000000
v 0.273176 -0.214218 25.014999
v 0.298369 -0.150215 25.014999
v 0.298369 -0.150215 25.014999
v 0.273176 -0.214218 25.014999
v 0.305398 -0.152343 25.025982
v 0.273176 -0.214218 25.014999
v 0.279759 -0.217481 25.025982
v 0.305398 -0.152343 25.025982
v 0.305398 -0.152343 25.025982
v 0.279759 -0.217481 25.025982
v 0.315001 -0.155251 25.029999
v 0.279759 -0.217481 25.025982
v 0.288751 -0.221938 25.029999
v 0.315001 -0.155251 25.029999
v 0.288751 -0.221938 -25.029999
v 0.252001 -0.282501 -25.029999
v 0.279759 -0.217481 -25.025980
v 0.252001 -0.282501 -25.029999
v 0.243954 -0.276486 -25.025980
v 0.279759 -0.217481 -25.025980
v 0.279759 -0.217481 -25.025980
v 0.243954 -0.276486 -25.025980
v 0.273176 -0.214218 -25.014999
v 0.243954 -0.276486 -25.025980
v 0.238063 -0.272083 -25.014999
v 0.273176 -0.214218 -25.014999
v 0.273176 -0.214218 -25.014999
v 0.238063 -0.272083 -25.014999
v 0.270766 -0.213023 -25.000000
v 0.238063 -0.272083 -25.014999
v 0.235906 -0.270471 -25.000000
v 0.270766 -0.213023 -25.000000
v 0.270766 -0.213023 -25.000000
v 0.235906 -0.270471 -25.000000
v 0.270766 -0.213023 25.000000
v 0.235906 -0.270471 -25.000000
v 0.235906 -0.270471 25.000000
v 0.270766 -0.213023 25.000000
v 0.270766 -0.213023 25.000000
v 0.235906 -0.270471 25.000000
v 0.273176 -0.214218 25.014999
v 0.235906 -0.270471 25.000000
v 0.238063 -0.272083 25.014999
v 0.273176 -0.214218 25.014999
v 0.273176 -0.214218 25.014999
v 0.238063 -0.272083 25.014999
v 0.279759 -0.217481 25.025982
v 0.238063 -0.272083 25.014999
v 0.243954 -0.276486 25.025982
v 0.279759 -0.217481 25.025982
v 0.279759 -0.217481 25.025982
v 0.243954 -0.276486 25.025982
v 0.288751 -0.221938 25.029999
v 0.243954 -0.276486 25.025982
v 0.252001 -0.282501 25.029999
v 0.288751 -0.221938 25.029999
v 0.252001 -0.282501 -25.029999
v 0.201438 -0.338063 -25.029999
v 0.243954 -0.276486 -25.025980
v 0.201438 -0.338063 -25.029999
v 0.194847 -0.330449 -25.025980
v 0.243954 -0.276486 -25.025980
v 0.243954 -0.276486 -25.025980
v 0.194847 -0.330449 -25.025980
v 0.238063 -0.272083 -25.014999
v 0.194847 -0.330449 -25.025980
v 0.190021 -0.324875 -25.014999
v 0.238063 -0.272083 -25.014999
v 0.238063 -0.272083 -25.014999
v 0.190021 -0.324875 -25.014999
v 0.235906 -0.270471 -25.000000
v 0.190021 -0.324875 -25.014999
v 0.188255 -0.322835 -25.000000
v 0.235906 -0.270471 -25.000000
v 0.235906 -0.270471 -25.000000
v 0.188255 -0.322835 -25.000000
v 0.235906 -0.270471 25.000000
v 0.188255 -0.322835 -25.000000
v 0.188255 -0.322835 25.000000
v 0.235906 -0.270471 25.000000
v 0.235906 -0.270471 25.000000
v 0.188255 -0.322835 25.000000
v 0.238063 -0.272083 25.014999
v 0.188255 -0.322835 25.000000
v 0.190021 -0.324875 25.014999
v 0.238063 -0.272083 25.014999
v 0.238063 -0.272083 25.014999
v 0.190021 -0.324875 25.014999
v 0.243954 -0.276486 25.025982
v 0.190021 -0.324875 25.014999
v 0.194847 -0.330449 25.025982
v 0.243954 -0.276486 25.025982
v 0.243954 -0.276486 25.025982
v 0.194847 -0.330449 25.025982
v 0.252001 -0.282501 25.029999
v 0.194847 -0.330449 25.025982
v 0.201438 -0.338063 25.029999
v 0.252001 -0.282501 25.029999
v 0.201438 -0.338063 -25.029999
v 0.142751 -0.377751 -25.029999
v 0.194847 -0.330449 -25.025980
v 0.142751 -0.377751 -25.029999
v 0.138199 -0.368757 -25.025980
v 0.194847 -0.330449 -25.025980
v 0.194847 -0.330449 -25.025980
v 0.138199 -0.368757 -25.025980
v 0.190021 -0.324875 -25.014999
v 0.138199 -0.368757 -25.025980
v 0.134867 -0.362173 -25.014999
v 0.190021 -0.324875 -25.014999
v 0.190021 -0.324875 -25.014999
v 0.134867 -0.362173 -25.014999
v 0.188255 -0.322835 -25.000000
v 0.134867 -0.362173 -25.014999
v 0.133648 -0.359763 -25.000000
v 0.188255 -0.322835 -25.000000
v 0.188255 -0.322835 -25.000000
v 0.133648 -0.359763 -25.000000
v 0.188255 -0.322835 25.000000
v 0.133648 -0.359763 -25.000000
v 0.133648 -0.359763 25.000000
v 0.188255 -0.322835 25.000000
v 0.188255 -0.322835 25.000000
v 0.133648 -0.359763 25.000000
v 0.190021 -0.324875 25.014999
v 0.133648 -0.359763 25.000000
v 0.134867 -0.362173 25.014999
v 0.190021 -0.324875 25.014999
v 0.190021 -0.324875 25.014999
v 0.134867 -0.362173 25.014999
v 0.194847 -0.330449 25.025982
v 0.134867 -0.362173 25.014999
v 0.138199 -0.368757 25.025982
v 0.194847 -0.330449 25.025982
v 0.194847 -0.330449 25.025982
v 0.138199 -0.368757 25.025982
v 0.201438 -0.338063 25.029999
v 0.138199 -0.368757 25.025982
v 0.142751 -0.377751 25.029999
v 0.201438 -0.338063 25.029999
v 0.142751 -0.377751 -25.029999
v 0.075938 -0.401563 -25.029999
v 0.138199 -0.368757 -25.025980
v 0.075938 -0.401563 -25.029999
v 0.073702 -0.391744 -25.025980
v 0.138199 -0.368757 -25.025980
v 0.138199 -0.368757 -25.025980
v 0.073702 -0.391744 -25.025980
v 0.134867 -0.362173 -25.014999
v 0.073702 -0.391744 -25.025980
v 0.072065 -0.384556 -25.014999
v 0.134867 -0.362173 -25.014999
v 0.134867 -0.362173 -25.014999
v 0.072065 -0.384556 -25.014999
v 0.133648 -0.359763 -25.000000
v 0.072065 -0.384556 -25.014999
v 0.071465 -0.381925 -25.000000
v 0.133648 -0.359763 -25.000000
v 0.133648 -0.359763 -25.000000
v 0.071465 -0.381925 -25.000000
v 0.133648 -0.359763 25.000000
v 0.071465 -0.381925 -25.000000
v 0.071465 -0.381925 25.000000
v 0.133648 -0.359763 25.000000
v 0.133648 -0.359763 25.000000
v 0.071465 -0.381925 25.000000
v 0.134867 -0.362173 25.014999
v 0.071465 -0.381925 25.000000
v 0.072065 -0.384556 25.014999
v 0.134867 -0.362173 25.014999
v 0.134867 -0.362173 25.014999
v 0.072065 -0.384556 25.014999
v 0.138199 -0.368757 25.025982
v 0.072065 -0.384556 25.014999
v 0.073702 -0.391744 25.025982
v 0.138199 -0.368757 25.025982
v 0.138199 -0.368757 25.025982
v 0.073702 -0.391744 25.025982
v 0.142751 -0.377751 25.029999
v 0.073702 -0.391744 25.025982
v 0.075938 -0.401563 25.029999
v 0.142751 -0.377751 25.029999
v 0.075938 -0.401563 -25.029999
v 0.001001 -0.409501 -25.029999
v 0.073702 -0.391744 -25.025980
v 0.001001 -0.409501 -25.029999
v 0.000988 -0.399446 -25.025980
v 0.073702 -0.391744 -25.025980
v 0.073702 -0.391744 -25.025980
v 0.000988 -0.399446 -25.025980
v 0.072065 -0.384556 -25.014999
v 0.000988 -0.399446 -25.025980
v 0.000978 -0.392086 -25.014999
v 0.072065 -0.384556 -25.014999
v 0.072065 -0.384556 -25.014999
v 0.000978 -0.392086 -25.014999
v 0.071465 -0.381925 -25.000000
v 0.000978 -0.392086 -25.014999
v 0.000975 -0.389392 -25.000000
v 0.071465 -0.381925 -25.000000
v 0.071465 -0.381925 -25.000000
v 0.000975 -0.389392 -25.000000
v 0.071465 -0.381925 25.000000
v 0.000975 -0.389392 -25.000000
v 0.000975 -0.389392 25.000000
v 0.071465 -0.381925 25.000000
v 0.071465 -0.381925 25.000000
v 0.000975 -0.389392 25.000000
v 0.072065 -0.384556 25.014999
v 0.000975 -0.389392 25.000000
v 0.000978 -0.392086 25.014999
v 0.072065 -0.384556 25.014999
v 0.072065 -0.384556 25.014999
v 0.000978 -0.392086 25.014999
v 0.073702 -0.391744 25.025982
v 0.000978 -0.392086 25.014999
v 0.000988 -0.399446 25.025982
v 0.073702 -0.391744 25.025982
v 0.073702 -0.391744 25.025982
v 0.000988 -0.399446 25.025982
v 0.075938 -0.401563 25.029999
v 0.000988 -0.399446 25.025982
v 0.001001 -0.409501 25.029999
v 0.075938 -0.401563 25.029999