# Generated mesh
# vertices: 256, faces: 256

v 0.005167 0.535125 0.000000
v 0.031959 0.534504 0.000000
v 0.058088 0.532641 0.000000
v 0.083553 0.529535 0.000000
v 0.108354 0.525188 0.000000
v 0.132491 0.519598 0.000000
v 0.155963 0.512766 0.000000
v 0.178772 0.504692 0.000000
v 0.200917 0.495375 0.000000
v 0.222397 0.484817 0.000000
v 0.243213 0.473016 0.000000
v 0.263366 0.459973 0.000000
v 0.282854 0.445688 0.000000
v 0.301678 0.430160 0.000000
v 0.319838 0.413391 0.000000
v 0.337335 0.395379 0.000000
v 0.354166 0.376125 0.000000
v 0.369182 0.357336 0.000000
v 0.383229 0.337969 0.000000
v 0.396307 0.318024 0.000000
v 0.408416 0.297500 0.000000
v 0.419557 0.276399 0.000000
v 0.429729 0.254719 0.000000
v 0.438932 0.232461 0.000000
v 0.447166 0.209625 0.000000
v 0.454432 0.186211 0.000000
v 0.460729 0.162219 0.000000
v 0.466057 0.137649 0.000000
v 0.470417 0.112500 0.000000
v 0.473807 0.086774 0.000000
v 0.476229 0.060469 0.000000
v 0.477682 0.033586 0.000000
v 0.478167 0.006125 0.000000
v 0.477682 -0.021711 0.000000
v 0.476229 -0.048968 0.000000
v 0.473807 -0.075648 0.000000
v 0.470417 -0.101750 0.000000
v 0.466057 -0.127273 0.000000
v 0.460729 -0.152218 0.000000
v 0.454432 -0.176586 0.000000
v 0.447166 -0.200375 0.000000
v 0.438932 -0.223586 0.000000
v 0.429729 -0.246219 0.000000
v 0.419557 -0.268273 0.000000
v 0.408416 -0.289750 0.000000
v 0.396307 -0.310648 0.000000
v 0.383229 -0.330969 0.000000
v 0.369182 -0.350711 0.000000
v 0.354166 -0.369875 0.000000
v 0.337319 -0.389492 0.000000
v 0.319776 -0.407844 0.000000
v 0.301538 -0.424929 0.000000
v 0.282604 -0.440750 0.000000
v 0.262975 -0.455304 0.000000
v 0.242651 -0.468594 0.000000
v 0.221631 -0.480617 0.000000
v 0.199917 -0.491375 0.000000
v 0.177506 -0.500867 0.000000
v 0.154401 -0.509094 0.000000
v 0.130600 -0.516054 0.000000
v 0.106104 -0.521750 0.000000
v 0.080913 -0.526179 0.000000
v 0.055026 -0.529344 0.000000
v 0.028444 -0.531242 0.000000
v 0.001167 -0.531875 0.000000
v -0.026001 -0.531265 0.000000
v -0.052505 -0.529437 0.000000
v -0.078345 -0.526390 0.000000
v -0.103521 -0.522125 0.000000
v -0.128033 -0.516640 0.000000
v -0.151880 -0.509937 0.000000
v -0.175064 -0.502015 0.000000
v -0.197584 -0.492875 0.000000
v -0.219439 -0.482515 0.000000
v -0.240630 -0.470937 0.000000
v -0.261158 -0.458140 0.000000
v -0.281021 -0.444125 0.000000
v -0.300220 -0.428890 0.000000
v -0.318755 -0.412437 0.000000
v -0.336626 -0.394765 0.000000
v -0.353833 -0.375875 0.000000
v -0.369091 -0.356953 0.000000
v -0.383365 -0.337437 0.000000
v -0.396654 -0.317328 0.000000
v -0.408959 -0.296625 0.000000
v -0.420279 -0.275328 0.000000
v -0.430615 -0.253437 0.000000
v -0.439966 -0.230953 0.000000
v -0.448333 -0.207875 0.000000
v -0.455716 -0.184203 0.000000
v -0.462115 -0.159937 0.000000
v -0.467529 -0.135078 0.000000
v -0.471958 -0.109625 0.000000
v -0.475404 -0.083578 0.000000
v -0.477865 -0.056937 0.000000
v -0.479341 -0.029703 0.000000
v -0.479833 -0.001875 0.000000
v -0.479337 0.025844 0.000000
v -0.477849 0.053000 0.000000
v -0.475369 0.079594 0.000000
v -0.471896 0.105625 0.000000
v -0.467431 0.131094 0.000000
v -0.461974 0.156000 0.000000
v -0.455525 0.180344 0.000000
v -0.448083 0.204125 0.000000
v -0.439650 0.227344 0.000000
v -0.430224 0.250000 0.000000
v -0.419806 0.272094 0.000000
v -0.408396 0.293625 0.000000
v -0.395994 0.314594 0.000000
v -0.382599 0.335000 0.000000
v -0.368212 0.354844 0.000000
v -0.352833 0.374125 0.000000
v -0.335498 0.393621 0.000000
v -0.317490 0.411860 0.000000
v -0.298810 0.428840 0.000000
v -0.279458 0.444563 0.000000
v -0.259435 0.459028 0.000000
v -0.238740 0.472235 0.000000
v -0.217373 0.484184 0.000000
v -0.195333 0.494875 0.000000
v -0.172623 0.504309 0.000000
v -0.149240 0.512485 0.000000
v -0.125185 0.519403 0.000000
v -0.100458 0.525063 0.000000
v -0.075060 0.529465 0.000000
v -0.048990 0.532610 0.000000
v -0.022248 0.534496 0.000000
v 0.000166 -0.407875 0.000000
v 0.019663 -0.407379 0.000000
v 0.038651 -0.405890 0.000000
v 0.057131 -0.403410 0.000000
v 0.075104 -0.399937 0.000000
v 0.092569 -0.395472 0.000000
v 0.109526 -0.390015 0.000000
v 0.125975 -0.383566 0.000000
v 0.141917 -0.376125 0.000000
v 0.157350 -0.367691 0.000000
v 0.172276 -0.358265 0.000000
v 0.186694 -0.347847 0.000000
v 0.200604 -0.336437 0.000000
v 0.214006 -0.324035 0.000000
v 0.226901 -0.310640 0.000000
v 0.239288 -0.296254 0.000000
v 0.251167 -0.280875 0.000000
v 0.261338 -0.266308 0.000000
v 0.270854 -0.251359 0.000000
v 0.279713 -0.236027 0.000000
v 0.287917 -0.220312 0.000000
v 0.295463 -0.204215 0.000000
v 0.302354 -0.187734 0.000000
v 0.308588 -0.170871 0.000000
v 0.314167 -0.153625 0.000000
v 0.319088 -0.135996 0.000000
v 0.323354 -0.117984 0.000000
v 0.326963 -0.099590 0.000000
v 0.329917 -0.080812 0.000000
v 0.332213 -0.061652 0.000000
v 0.333854 -0.042109 0.000000
v 0.334838 -0.022183 0.000000
v 0.335167 -0.001875 0.000000
v 0.334846 0.018551 0.000000
v 0.333885 0.038578 0.000000
v 0.332284 0.058207 0.000000
v 0.330042 0.077438 0.000000
v 0.327159 0.096270 0.000000
v 0.323635 0.114703 0.000000
v 0.319471 0.132739 0.000000
v 0.314666 0.150375 0.000000
v 0.309221 0.167614 0.000000
v 0.303135 0.184453 0.000000
v 0.296409 0.200895 0.000000
v 0.289042 0.216938 0.000000
v 0.281034 0.232582 0.000000
v 0.272385 0.247828 0.000000
v 0.263096 0.262676 0.000000
v 0.253166 0.277125 0.000000
v 0.241280 0.292746 0.000000
v 0.228870 0.307360 0.000000
v 0.215936 0.320965 0.000000
v 0.202479 0.333563 0.000000
v 0.188499 0.345153 0.000000
v 0.173995 0.355735 0.000000
v 0.158967 0.365309 0.000000
v 0.143417 0.373875 0.000000
v 0.127342 0.381434 0.000000
v 0.110745 0.387985 0.000000
v 0.093624 0.393528 0.000000
v 0.075979 0.398063 0.000000
v 0.057811 0.401590 0.000000
v 0.039120 0.404110 0.000000
v 0.019905 0.405621 0.000000
v 0.000166 0.406125 0.000000
v -0.019458 0.405625 0.000000
v -0.038584 0.404125 0.000000
v -0.057208 0.401625 0.000000
v -0.075333 0.398125 0.000000
v -0.092958 0.393625 0.000000
v -0.110084 0.388125 0.000000
v -0.126708 0.381625 0.000000
v -0.142833 0.374125 0.000000
v -0.158458 0.365625 0.000000
v -0.173583 0.356125 0.000000
v -0.188209 0.345625 0.000000
v -0.202333 0.334125 0.000000
v -0.215958 0.321625 0.000000
v -0.229083 0.308125 0.000000
v -0.241709 0.293625 0.000000
v -0.253834 0.278125 0.000000
v -0.264005 0.263672 0.000000
v -0.273521 0.248813 0.000000
v -0.282380 0.233547 0.000000
v -0.290583 0.217875 0.000000
v -0.298130 0.201797 0.000000
v -0.305021 0.185313 0.000000
v -0.311255 0.168422 0.000000
v -0.316833 0.151125 0.000000
v -0.321755 0.133422 0.000000
v -0.326021 0.115313 0.000000
v -0.329630 0.096797 0.000000
v -0.332584 0.077875 0.000000
v -0.334880 0.058547 0.000000
v -0.336521 0.038813 0.000000
v -0.337505 0.018672 0.000000
v -0.337833 -0.001875 0.000000
v -0.337505 -0.022304 0.000000
v -0.336521 -0.042344 0.000000
v -0.334880 -0.061992 0.000000
v -0.332584 -0.081250 0.000000
v -0.329630 -0.100117 0.000000
v -0.326021 -0.118594 0.000000
v -0.321755 -0.136679 0.000000
v -0.316833 -0.154375 0.000000
v -0.311255 -0.171679 0.000000
v -0.305021 -0.188594 0.000000
v -0.298130 -0.205117 0.000000
v -0.290583 -0.221250 0.000000
v -0.282380 -0.236992 0.000000
v -0.273521 -0.252344 0.000000
v -0.264005 -0.267304 0.000000
v -0.253834 -0.281875 0.000000
v -0.241943 -0.297133 0.000000
v -0.229521 -0.311406 0.000000
v -0.216568 -0.324695 0.000000
v -0.203083 -0.337000 0.000000
v -0.189068 -0.348320 0.000000
v -0.174521 -0.358656 0.000000
v -0.159443 -0.368008 0.000000
v -0.143834 -0.376375 0.000000
v -0.127693 -0.383758 0.000000
v -0.111021 -0.390156 0.000000
v -0.093818 -0.395570 0.000000
v -0.076083 -0.400000 0.000000
v -0.057818 -0.403445 0.000000
v -0.039021 -0.405906 0.000000
v -0.019693 -0.407383 0.000000
f 97 225 224
f 226 225 97
f 97 96 95
f 95 94 93
f 93 92 91
f 91 90 89
f 89 88 87
f 87 86 85
f 85 84 83
f 83 82 81
f 81 80 79
f 79 78 77
f 77 76 75
f 75 74 73
f 73 72 71
f 71 70 69
f 69 68 67
f 67 66 65
f 65 64 63
f 63 62 61
f 61 60 59
f 59 58 57
f 57 56 55
f 55 54 53
f 53 52 51
f 51 50 49
f 49 48 47
f 47 46 45
f 45 44 43
f 43 42 41
f 41 40 39
f 39 38 37
f 37 36 35
f 35 34 33
f 33 32 31
f 31 30 29
f 29 28 27
f 27 26 25
f 25 24 23
f 23 22 21
f 21 20 19
f 19 18 17
f 17 16 15
f 15 14 13
f 13 12 11
f 11 10 9
f 9 8 7
f 7 6 5
f 5 4 3
f 3 2 1
f 1 128 127
f 127 126 125
f 125 124 123
f 123 122 121
f 121 120 119
f 119 118 117
f 117 116 115
f 115 114 113
f 113 112 111
f 111 110 109
f 109 108 107
f 107 106 105
f 105 104 103
f 103 102 101
f 101 100 99
f 99 98 97
f 97 224 223
f 227 226 97
f 97 95 93
f 93 91 89
f 89 87 85
f 85 83 81
f 81 79 77
f 77 75 73
f 73 71 69
f 69 67 65
f 65 63 61
f 61 59 57
f 57 55 53
f 53 51 49
f 49 47 45
f 45 43 41
f 41 39 37
f 37 35 33
f 33 31 29
f 29 27 25
f 25 23 21
f 21 19 17
f 17 15 13
f 13 11 9
f 9 7 5
f 5 3 1
f 1 127 125
f 125 123 121
f 121 119 117
f 117 115 113
f 113 111 109
f 109 107 105
f 105 103 101
f 101 99 97
f 97 223 222
f 228 227 97
f 97 93 89
f 89 85 81
f 81 77 73
f 73 69 65
f 65 61 57
f 57 53 49
f 49 45 41
f 41 37 33
f 33 29 25
f 25 21 17
f 17 13 9
f 9 5 1
f 1 125 121
f 121 117 113
f 113 109 105
f 105 101 97
f 97 222 221
f 229 228 97
f 97 89 81
f 81 73 65
f 65 57 49
f 49 41 33
f 33 25 17
f 17 9 1
f 1 121 113
f 113 105 97
f 97 221 220
f 230 229 97
f 49 33 17
f 113 97 220
f 231 230 97
f 113 220 219
f 232 231 97
f 113 219 218
f 233 232 97
f 113 218 217
f 234 233 97
f 113 217 216
f 235 234 97
f 113 216 215
f 236 235 97
f 113 215 214
f 237 236 97
f 113 214 213
f 238 237 97
f 113 213 212
f 239 238 97
f 113 212 211
f 240 239 97
f 113 211 210
f 241 240 97
f 113 210 209
f 242 241 97
f 113 209 208
f 242 97 81
f 113 208 207
f 243 242 81
f 113 207 206
f 244 243 81
f 1 113 206
f 245 244 81
f 1 206 205
f 246 245 81
f 1 205 204
f 247 246 81
f 1 204 203
f 248 247 81
f 1 203 202
f 249 248 81
f 1 202 201
f 250 249 81
f 1 201 200
f 251 250 81
f 1 200 199
f 252 251 81
f 1 199 198
f 253 252 81
f 1 198 197
f 254 253 81
f 1 197 196
f 255 254 81
f 1 196 195
f 255 81 65
f 1 195 194
f 256 255 65
f 1 194 193
f 129 256 65
f 1 193 192
f 130 129 65
f 1 192 191
f 131 130 65
f 17 1 191
f 132 131 65
f 17 191 190
f 133 132 65
f 17 190 189
f 134 133 65
f 17 189 188
f 135 134 65
f 17 188 187
f 136 135 65
f 17 187 186
f 137 136 65
f 17 186 185
f 138 137 65
f 17 185 184
f 139 138 65
f 17 184 183
f 140 139 65
f 17 183 182
f 141 140 65
f 17 182 181
f 142 141 65
f 17 181 180
f 142 65 49
f 17 180 179
f 143 142 49
f 17 179 178
f 144 143 49
f 17 178 177
f 145 144 49
f 17 177 176
f 146 145 49
f 17 176 175
f 147 146 49
f 17 175 174
f 148 147 49
f 17 174 173
f 149 148 49
f 17 173 172
f 150 149 49
f 17 172 171
f 151 150 49
f 17 171 170
f 152 151 49
f 17 170 169
f 153 152 49
f 17 169 168
f 154 153 49
f 17 168 167
f 155 154 49
f 17 167 166
f 156 155 49
f 17 166 165
f 157 156 49
f 17 165 164
f 158 157 49
f 17 164 163
f 159 158 49
f 49 17 163
f 160 159 49
f 49 163 162
f 161 160 49
f 49 162 161