# Generated mesh
# vertices: 1920, faces: 0

v -0.223038 0.382500 -25.029999
v -0.223038 0.041500 -25.029999
v -0.363038 -0.506500 -25.029999
v -0.223038 -0.080500 -25.029999
v -0.223038 -0.506500 -25.029999
v -0.363038 -0.506500 -25.029999
v 0.114587 -0.075500 -25.029999
v 0.049962 -0.080500 -25.029999
v -0.223038 -0.080500 -25.029999
v 0.226587 -0.035500 -25.029999
v 0.173462 -0.060500 -25.029999
v 0.114587 -0.075500 -25.029999
v 0.312899 0.043188 -25.029999
v 0.273962 -0.000500 -25.029999
v 0.226587 -0.035500 -25.029999
v 0.357399 0.149687 -25.029999
v 0.340712 0.093250 -25.029999
v 0.312899 0.043188 -25.029999
v 0.357587 0.274875 -25.029999
v 0.362962 0.212500 -25.029999
v 0.357399 0.149687 -25.029999
v 0.314587 0.380875 -25.029999
v 0.341462 0.331000 -25.029999
v 0.357587 0.274875 -25.029999
v 0.231587 0.460375 -25.029999
v 0.276962 0.424500 -25.029999
v 0.314587 0.380875 -25.029999
v 0.123587 0.501375 -25.029999
v 0.180462 0.486000 -25.029999
v 0.231587 0.460375 -25.029999
v -0.363038 0.506500 -25.029999
v 0.060962 0.506500 -25.029999
v 0.123587 0.501375 -25.029999
v -0.223038 0.382500 -25.029999
v -0.363038 -0.506500 -25.029999
v -0.363038 0.506500 -25.029999
v -0.223038 -0.080500 -25.029999
v -0.363038 -0.506500 -25.029999
v -0.223038 0.041500 -25.029999
v 0.226587 -0.035500 -25.029999
v 0.114587 -0.075500 -25.029999
v -0.223038 -0.080500 -25.029999
v 0.357399 0.149687 -25.029999
v 0.312899 0.043188 -25.029999
v 0.226587 -0.035500 -25.029999
v 0.314587 0.380875 -25.029999
v 0.357587 0.274875 -25.029999
v 0.357399 0.149687 -25.029999
v 0.123587 0.501375 -25.029999
v 0.231587 0.460375 -25.029999
v 0.314587 0.380875 -25.029999
v -0.223038 0.382500 -25.029999
v -0.363038 0.506500 -25.029999
v 0.123587 0.501375 -25.029999
v -0.223038 -0.080500 -25.029999
v -0.223038 0.041500 -25.029999
v 0.008962 0.041500 -25.029999
v 0.357399 0.149687 -25.029999
v 0.226587 -0.035500 -25.029999
v -0.223038 -0.080500 -25.029999
v 0.123587 0.501375 -25.029999
v 0.314587 0.380875 -25.029999
v 0.357399 0.149687 -25.029999
v 0.015962 0.382500 -25.029999
v -0.223038 0.382500 -25.029999
v 0.123587 0.501375 -25.029999
v -0.223038 -0.080500 -25.029999
v 0.008962 0.041500 -25.029999
v 0.050962 0.044063 -25.029999
v 0.056774 0.379750 -25.029999
v 0.015962 0.382500 -25.029999
v 0.123587 0.501375 -25.029999
v -0.223038 -0.080500 -25.029999
v 0.050962 0.044063 -25.029999
v 0.089962 0.051750 -25.029999
v 0.095212 0.371500 -25.029999
v 0.056774 0.379750 -25.029999
v 0.123587 0.501375 -25.029999
v -0.223038 -0.080500 -25.029999
v 0.089962 0.051750 -25.029999
v 0.125962 0.064563 -25.029999
v 0.131274 0.357750 -25.029999
v 0.095212 0.371500 -25.029999
v 0.123587 0.501375 -25.029999
v 0.357399 0.149687 -25.029999
v -0.223038 -0.080500 -25.029999
v 0.125962 0.064563 -25.029999
v 0.164962 0.338500 -25.029999
v 0.131274 0.357750 -25.029999
v 0.123587 0.501375 -25.029999
v 0.357399 0.149687 -25.029999
v 0.125962 0.064563 -25.029999
v 0.158962 0.082500 -25.029999
v 0.193399 0.314187 -25.029999
v 0.164962 0.338500 -25.029999
v 0.123587 0.501375 -25.029999
v 0.357399 0.149687 -25.029999
v 0.158962 0.082500 -25.029999
v 0.190024 0.108688 -25.029999
v 0.193399 0.314187 -25.029999
v 0.123587 0.501375 -25.029999
v 0.357399 0.149687 -25.029999
v 0.357399 0.149687 -25.029999
v 0.190024 0.108688 -25.029999
v 0.212212 0.139250 -25.029999
v 0.213712 0.285250 -25.029999
v 0.193399 0.314187 -25.029999
v 0.357399 0.149687 -25.029999
v 0.357399 0.149687 -25.029999
v 0.212212 0.139250 -25.029999
v 0.225524 0.174187 -25.029999
v 0.225899 0.251687 -25.029999
v 0.213712 0.285250 -25.029999
v 0.357399 0.149687 -25.029999
v 0.357399 0.149687 -25.029999
v 0.225524 0.174187 -25.029999
v 0.229962 0.213500 -25.029999
v 0.229962 0.213500 -25.029999
v 0.225899 0.251687 -25.029999
v 0.357399 0.149687 -25.029999
v -0.363038 -0.506500 25.029999
v -0.223038 0.041500 25.029999
v -0.223038 0.382500 25.029999
v -0.363038 -0.506500 25.029999
v -0.223038 -0.506500 25.029999
v -0.223038 -0.080500 25.029999
v -0.223038 -0.080500 25.029999
v 0.049962 -0.080500 25.029999
v 0.114587 -0.075500 25.029999
v 0.114587 -0.075500 25.029999
v 0.173462 -0.060500 25.029999
v 0.226587 -0.035500 25.029999
v 0.226587 -0.035500 25.029999
v 0.273962 -0.000500 25.029999
v 0.312899 0.043188 25.029999
v 0.312899 0.043188 25.029999
v 0.340712 0.093250 25.029999
v 0.357399 0.149687 25.029999
v 0.357399 0.149687 25.029999
v 0.362962 0.212500 25.029999
v 0.357587 0.274875 25.029999
v 0.357587 0.274875 25.029999
v 0.341462 0.331000 25.029999
v 0.314587 0.380875 25.029999
v 0.314587 0.380875 25.029999
v 0.276962 0.424500 25.029999
v 0.231587 0.460375 25.029999
v 0.231587 0.460375 25.029999
v 0.180462 0.486000 25.029999
v 0.123587 0.501375 25.029999
v 0.123587 0.501375 25.029999
v 0.060962 0.506500 25.029999
v -0.363038 0.506500 25.029999
v -0.363038 0.506500 25.029999
v -0.363038 -0.506500 25.029999
v -0.223038 0.382500 25.029999
v -0.223038 0.041500 25.029999
v -0.363038 -0.506500 25.029999
v -0.223038 -0.080500 25.029999
v -0.223038 -0.080500 25.029999
v 0.114587 -0.075500 25.029999
v 0.226587 -0.035500 25.029999
v 0.226587 -0.035500 25.029999
v 0.312899 0.043188 25.029999
v 0.357399 0.149687 25.029999
v 0.357399 0.149687 25.029999
v 0.357587 0.274875 25.029999
v 0.314587 0.380875 25.029999
v 0.314587 0.380875 25.029999
v 0.231587 0.460375 25.029999
v 0.123587 0.501375 25.029999
v 0.123587 0.501375 25.029999
v -0.363038 0.506500 25.029999
v -0.223038 0.382500 25.029999
v 0.008962 0.041500 25.029999
v -0.223038 0.041500 25.029999
v -0.223038 -0.080500 25.029999
v -0.223038 -0.080500 25.029999
v 0.226587 -0.035500 25.029999
v 0.357399 0.149687 25.029999
v 0.357399 0.149687 25.029999
v 0.314587 0.380875 25.029999
v 0.123587 0.501375 25.029999
v 0.123587 0.501375 25.029999
v -0.223038 0.382500 25.029999
v 0.015962 0.382500 25.029999
v 0.050962 0.044063 25.029999
v 0.008962 0.041500 25.029999
v -0.223038 -0.080500 25.029999
v 0.123587 0.501375 25.029999
v 0.015962 0.382500 25.029999
v 0.056774 0.379750 25.029999
v 0.089962 0.051750 25.029999
v 0.050962 0.044063 25.029999
v -0.223038 -0.080500 25.029999
v 0.123587 0.501375 25.029999
v 0.056774 0.379750 25.029999
v 0.095212 0.371500 25.029999
v 0.125962 0.064563 25.029999
v 0.089962 0.051750 25.029999
v -0.223038 -0.080500 25.029999
v 0.123587 0.501375 25.029999
v 0.095212 0.371500 25.029999
v 0.131274 0.357750 25.029999
v 0.125962 0.064563 25.029999
v -0.223038 -0.080500 25.029999
v 0.357399 0.149687 25.029999
v 0.123587 0.501375 25.029999
v 0.131274 0.357750 25.029999
v 0.164962 0.338500 25.029999
v 0.158962 0.082500 25.029999
v 0.125962 0.064563 25.029999
v 0.357399 0.149687 25.029999
v 0.123587 0.501375 25.029999
v 0.164962 0.338500 25.029999
v 0.193399 0.314187 25.029999
v 0.190024 0.108688 25.029999
v 0.158962 0.082500 25.029999
v 0.357399 0.149687 25.029999
v 0.357399 0.149687 25.029999
v 0.123587 0.501375 25.029999
v 0.193399 0.314187 25.029999
v 0.212212 0.139250 25.029999
v 0.190024 0.108688 25.029999
v 0.357399 0.149687 25.029999
v 0.357399 0.149687 25.029999
v 0.193399 0.314187 25.029999
v 0.213712 0.285250 25.029999
v 0.225524 0.174187 25.029999
v 0.212212 0.139250 25.029999
v 0.357399 0.149687 25.029999
v 0.357399 0.149687 25.029999
v 0.213712 0.285250 25.029999
v 0.225899 0.251687 25.029999
v 0.229962 0.213500 25.029999
v 0.225524 0.174187 25.029999
v 0.357399 0.149687 25.029999
v 0.357399 0.149687 25.029999
v 0.225899 0.251687 25.029999
v 0.229962 0.213500 25.029999
v 0.060962 0.506500 -25.029999
v -0.363038 0.506500 -25.029999
v 0.061370 0.516500 -25.025980
v -0.363038 0.506500 -25.029999
v -0.373038 0.516500 -25.025980
v 0.061370 0.516500 -25.025980
v 0.061370 0.516500 -25.025980
v -0.373038 0.516500 -25.025980
v 0.061669 0.523821 -25.014999
v -0.373038 0.516500 -25.025980
v -0.380359 0.523821 -25.014999
v 0.061669 0.523821 -25.014999
v 0.061669 0.523821 -25.014999
v -0.380359 0.523821 -25.014999
v 0.061779 0.526500 -25.000000
v -0.380359 0.523821 -25.014999
v -0.383038 0.526500 -25.000000
v 0.061779 0.526500 -25.000000
v 0.061779 0.526500 -25.000000
v -0.383038 0.526500 -25.000000
v 0.061779 0.526500 25.000000
v -0.383038 0.526500 -25.000000
v -0.383038 0.526500 25.000000
v 0.061779 0.526500 25.000000
v 0.061779 0.526500 25.000000
v -0.383038 0.526500 25.000000
v 0.061669 0.523821 25.014999
v -0.383038 0.526500 25.000000
v -0.380359 0.523821 25.014999
v 0.061669 0.523821 25.014999
v 0.061669 0.523821 25.014999
v -0.380359 0.523821 25.014999
v 0.061370 0.516500 25.025982
v -0.380359 0.523821 25.014999
v -0.373038 0.516500 25.025982
v 0.061370 0.516500 25.025982
v 0.061370 0.516500 25.025982
v -0.373038 0.516500 25.025982
v 0.060962 0.506500 25.029999
v -0.373038 0.516500 25.025982
v -0.363038 0.506500 25.029999
v 0.060962 0.506500 25.029999
v -0.363038 0.506500 -25.029999
v -0.363038 -0.506500 -25.029999
v -0.373038 0.516500 -25.025980
v -0.363038 -0.506500 -25.029999
v -0.373038 -0.516500 -25.025980
v -0.373038 0.516500 -25.025980
v -0.373038 0.516500 -25.025980
v -0.373038 -0.516500 -25.025980
v -0.380359 0.523821 -25.014999
v -0.373038 -0.516500 -25.025980
v -0.380359 -0.523821 -25.014999
v -0.380359 0.523821 -25.014999
v -0.380359 0.523821 -25.014999
v -0.380359 -0.523821 -25.014999
v -0.383038 0.526500 -25.000000
v -0.380359 -0.523821 -25.014999
v -0.383038 -0.526500 -25.000000
v -0.383038 0.526500 -25.000000
v -0.383038 0.526500 -25.000000
v -0.383038 -0.526500 -25.000000
v -0.383038 0.526500 25.000000
v -0.383038 -0.526500 -25.000000
v -0.383038 -0.526500 25.000000
v -0.383038 0.526500 25.000000
v -0.383038 0.526500 25.000000
v -0.383038 -0.526500 25.000000
v -0.380359 0.523821 25.014999
v -0.383038 -0.526500 25.000000
v -0.380359 -0.523821 25.014999
v -0.380359 0.523821 25.014999
v -0.380359 0.523821 25.014999
v -0.380359 -0.523821 25.014999
v -0.373038 0.516500 25.025982
v -0.380359 -0.523821 25.014999
v -0.373038 -0.516500 25.025982
v -0.373038 0.516500 25.025982
v -0.373038 0.516500 25.025982
v -0.373038 -0.516500 25.025982
v -0.363038 0.506500 25.029999
v -0.373038 -0.516500 25.025982
v -0.363038 -0.506500 25.029999
v -0.363038 0.506500 25.029999
v -0.363038 -0.506500 -25.029999
v -0.223038 -0.506500 -25.029999
v -0.373038 -0.516500 -25.025980
v -0.223038 -0.506500 -25.029999
v -0.213038 -0.516500 -25.025980
v -0.373038 -0.516500 -25.025980
v -0.373038 -0.516500 -25.025980
v -0.213038 -0.516500 -25.025980
v -0.380359 -0.523821 -25.014999
v -0.213038 -0.516500 -25.025980
v -0.205718 -0.523821 -25.014999
v -0.380359 -0.523821 -25.014999
v -0.380359 -0.523821 -25.014999
v -0.205718 -0.523821 -25.014999
v -0.383038 -0.526500 -25.000000
v -0.205718 -0.523821 -25.014999
v -0.203038 -0.526500 -25.000000
v -0.383038 -0.526500 -25.000000
v -0.383038 -0.526500 -25.000000
v -0.203038 -0.526500 -25.000000
v -0.383038 -0.526500 25.000000
v -0.203038 -0.526500 -25.000000
v -0.203038 -0.526500 25.000000
v -0.383038 -0.526500 25.000000
v -0.383038 -0.526500 25.000000
v -0.203038 -0.526500 25.000000
v -0.380359 -0.523821 25.014999
v -0.203038 -0.526500 25.000000
v -0.205718 -0.523821 25.014999
v -0.380359 -0.523821 25.014999
v -0.380359 -0.523821 25.014999
v -0.205718 -0.523821 25.014999
v -0.373038 -0.516500 25.025982
v -0.205718 -0.523821 25.014999
v -0.213038 -0.516500 25.025982
v -0.373038 -0.516500 25.025982
v -0.373038 -0.516500 25.025982
v -0.213038 -0.516500 25.025982
v -0.363038 -0.506500 25.029999
v -0.213038 -0.516500 25.025982
v -0.223038 -0.506500 25.029999
v -0.363038 -0.506500 25.029999
v -0.223038 -0.506500 -25.029999
v -0.223038 -0.080500 -25.029999
v -0.213038 -0.516500 -25.025980
v -0.223038 -0.080500 -25.029999
v -0.213038 -0.090500 -25.025980
v -0.213038 -0.516500 -25.025980
v -0.213038 -0.516500 -25.025980
v -0.213038 -0.090500 -25.025980
v -0.205718 -0.523821 -25.014999
v -0.213038 -0.090500 -25.025980
v -0.205718 -0.097821 -25.014999
v -0.205718 -0.523821 -25.014999
v -0.205718 -0.523821 -25.014999
v -0.205718 -0.097821 -25.014999
v -0.203038 -0.526500 -25.000000
v -0.205718 -0.097821 -25.014999
v -0.203038 -0.100500 -25.000000
v -0.203038 -0.526500 -25.000000
v -0.203038 -0.526500 -25.000000
v -0.203038 -0.100500 -25.000000
v -0.203038 -0.526500 25.000000
v -0.203038 -0.100500 -25.000000
v -0.203038 -0.100500 25.000000
v -0.203038 -0.526500 25.000000
v -0.203038 -0.526500 25.000000
v -0.203038 -0.100500 25.000000
v -0.205718 -0.523821 25.014999
v -0.203038 -0.100500 25.000000
v -0.205718 -0.097821 25.014999
v -0.205718 -0.523821 25.014999
v -0.205718 -0.523821 25.014999
v -0.205718 -0.097821 25.014999
v -0.213038 -0.516500 25.025982
v -0.205718 -0.097821 25.014999
v -0.213038 -0.090500 25.025982
v -0.213038 -0.516500 25.025982
v -0.213038 -0.516500 25.025982
v -0.213038 -0.090500 25.025982
v -0.223038 -0.506500 25.029999
v -0.213038 -0.090500 25.025982
v -0.223038 -0.080500 25.029999
v -0.223038 -0.506500 25.029999
v -0.223038 -0.080500 -25.029999
v 0.049962 -0.080500 -25.029999
v -0.213038 -0.090500 -25.025980
v 0.049962 -0.080500 -25.029999
v 0.050348 -0.090500 -25.025980
v -0.213038 -0.090500 -25.025980
v -0.213038 -0.090500 -25.025980
v 0.050348 -0.090500 -25.025980
v -0.205718 -0.097821 -25.014999
v 0.050348 -0.090500 -25.025980
v 0.050631 -0.097821 -25.014999
v -0.205718 -0.097821 -25.014999
v -0.205718 -0.097821 -25.014999
v 0.050631 -0.097821 -25.014999
v -0.203038 -0.100500 -25.000000
v 0.050631 -0.097821 -25.014999
v 0.050734 -0.100500 -25.000000
v -0.203038 -0.100500 -25.000000
v -0.203038 -0.100500 -25.000000
v 0.050734 -0.100500 -25.000000
v -0.203038 -0.100500 25.000000
v 0.050734 -0.100500 -25.000000
v 0.050734 -0.100500 25.000000
v -0.203038 -0.100500 25.000000
v -0.203038 -0.100500 25.000000
v 0.050734 -0.100500 25.000000
v -0.205718 -0.097821 25.014999
v 0.050734 -0.100500 25.000000
v 0.050631 -0.097821 25.014999
v -0.205718 -0.097821 25.014999
v -0.205718 -0.097821 25.014999
v 0.050631 -0.097821 25.014999
v -0.213038 -0.090500 25.025982
v 0.050631 -0.097821 25.014999
v 0.050348 -0.090500 25.025982
v -0.213038 -0.090500 25.025982
v -0.213038 -0.090500 25.025982
v 0.050348 -0.090500 25.025982
v -0.223038 -0.080500 25.029999
v 0.050348 -0.090500 25.025982
v 0.049962 -0.080500 25.029999
v -0.223038 -0.080500 25.029999
v 0.049962 -0.080500 -25.029999
v 0.114587 -0.075500 -25.029999
v 0.050348 -0.090500 -25.025980
v 0.114587 -0.075500 -25.029999
v 0.116219 -0.085404 -25.025980
v 0.050348 -0.090500 -25.025980
v 0.050348 -0.090500 -25.025980
v 0.116219 -0.085404 -25.025980
v 0.050631 -0.097821 -25.014999
v 0.116219 -0.085404 -25.025980
v 0.117414 -0.092654 -25.014999
v 0.050631 -0.097821 -25.014999
v 0.050631 -0.097821 -25.014999
v 0.117414 -0.092654 -25.014999
v 0.050734 -0.100500 -25.000000
v 0.117414 -0.092654 -25.014999
v 0.117851 -0.095307 -25.000000
v 0.050734 -0.100500 -25.000000
v 0.050734 -0.100500 -25.000000
v 0.117851 -0.095307 -25.000000
v 0.050734 -0.100500 25.000000
v 0.117851 -0.095307 -25.000000
v 0.117851 -0.095307 25.000000
v 0.050734 -0.100500 25.000000
v 0.050734 -0.100500 25.000000
v 0.117851 -0.095307 25.000000
v 0.050631 -0.097821 25.014999
v 0.117851 -0.095307 25.000000
v 0.117414 -0.092654 25.014999
v 0.050631 -0.097821 25.014999
v 0.050631 -0.097821 25.014999
v 0.117414 -0.092654 25.014999
v 0.050348 -0.090500 25.025982
v 0.117414 -0.092654 25.014999
v 0.116219 -0.085404 25.025982
v 0.050348 -0.090500 25.025982
v 0.050348 -0.090500 25.025982
v 0.116219 -0.085404 25.025982
v 0.049962 -0.080500 25.029999
v 0.116219 -0.085404 25.025982
v 0.114587 -0.075500 25.029999
v 0.049962 -0.080500 25.029999
v 0.114587 -0.075500 -25.029999
v 0.173462 -0.060500 -25.029999
v 0.116219 -0.085404 -25.025980
v 0.173462 -0.060500 -25.029999
v 0.176856 -0.069955 -25.025980
v 0.116219 -0.085404 -25.025980
v 0.116219 -0.085404 -25.025980
v 0.176856 -0.069955 -25.025980
v 0.117414 -0.092654 -25.014999
v 0.176856 -0.069955 -25.025980
v 0.179341 -0.076876 -25.014999
v 0.117414 -0.092654 -25.014999
v 0.117414 -0.092654 -25.014999
v 0.179341 -0.076876 -25.014999
v 0.117851 -0.095307 -25.000000
v 0.179341 -0.076876 -25.014999
v 0.180250 -0.079409 -25.000000
v 0.117851 -0.095307 -25.000000
v 0.117851 -0.095307 -25.000000
v 0.180250 -0.079409 -25.000000
v 0.117851 -0.095307 25.000000
v 0.180250 -0.079409 -25.000000
v 0.180250 -0.079409 25.000000
v 0.117851 -0.095307 25.000000
v 0.117851 -0.095307 25.000000
v 0.180250 -0.079409 25.000000
v 0.117414 -0.092654 25.014999
v 0.180250 -0.079409 25.000000
v 0.179341 -0.076876 25.014999
v 0.117414 -0.092654 25.014999
v 0.117414 -0.092654 25.014999
v 0.179341 -0.076876 25.014999
v 0.116219 -0.085404 25.025982
v 0.179341 -0.076876 25.014999
v 0.176856 -0.069955 25.025982
v 0.116219 -0.085404 25.025982
v 0.116219 -0.085404 25.025982
v 0.176856 -0.069955 25.025982
v 0.114587 -0.075500 25.029999
v 0.176856 -0.069955 25.025982
v 0.173462 -0.060500 25.029999
v 0.114587 -0.075500 25.029999
v 0.173462 -0.060500 -25.029999
v 0.226587 -0.035500 -25.029999
v 0.176856 -0.069955 -25.025980
v 0.226587 -0.035500 -25.029999
v 0.231736 -0.044129 -25.025980
v 0.176856 -0.069955 -25.025980
v 0.176856 -0.069955 -25.025980
v 0.231736 -0.044129 -25.025980
v 0.179341 -0.076876 -25.014999
v 0.231736 -0.044129 -25.025980
v 0.235506 -0.050445 -25.014999
v 0.179341 -0.076876 -25.014999
v 0.179341 -0.076876 -25.014999
v 0.235506 -0.050445 -25.014999
v 0.180250 -0.079409 -25.000000
v 0.235506 -0.050445 -25.014999
v 0.236886 -0.052757 -25.000000
v 0.180250 -0.079409 -25.000000
v 0.180250 -0.079409 -25.000000
v 0.236886 -0.052757 -25.000000
v 0.180250 -0.079409 25.000000
v 0.236886 -0.052757 -25.000000
v 0.236886 -0.052757 25.000000
v 0.180250 -0.079409 25.000000
v 0.180250 -0.079409 25.000000
v 0.236886 -0.052757 25.000000
v 0.179341 -0.076876 25.014999
v 0.236886 -0.052757 25.000000
v 0.235506 -0.050445 25.014999
v 0.179341 -0.076876 25.014999
v 0.179341 -0.076876 25.014999
v 0.235506 -0.050445 25.014999
v 0.176856 -0.069955 25.025982
v 0.235506 -0.050445 25.014999
v 0.231736 -0.044129 25.025982
v 0.176856 -0.069955 25.025982
v 0.176856 -0.069955 25.025982
v 0.231736 -0.044129 25.025982
v 0.173462 -0.060500 25.029999
v 0.231736 -0.044129 25.025982
v 0.226587 -0.035500 25.029999
v 0.173462 -0.060500 25.029999
v 0.226587 -0.035500 -25.029999
v 0.273962 -0.000500 -25.029999
v 0.231736 -0.044129 -25.025980
v 0.273962 -0.000500 -25.029999
v 0.280738 -0.007927 -25.025980
v 0.231736 -0.044129 -25.025980
v 0.231736 -0.044129 -25.025980
v 0.280738 -0.007927 -25.025980
v 0.235506 -0.050445 -25.014999
v 0.280738 -0.007927 -25.025980
v 0.285698 -0.013364 -25.014999
v 0.235506 -0.050445 -25.014999
v 0.235506 -0.050445 -25.014999
v 0.285698 -0.013364 -25.014999
v 0.236886 -0.052757 -25.000000
v 0.285698 -0.013364 -25.014999
v 0.287513 -0.015355 -25.000000
v 0.236886 -0.052757 -25.000000
v 0.236886 -0.052757 -25.000000
v 0.287513 -0.015355 -25.000000
v 0.236886 -0.052757 25.000000
v 0.287513 -0.015355 -25.000000
v 0.287513 -0.015355 25.000000
v 0.236886 -0.052757 25.000000
v 0.236886 -0.052757 25.000000
v 0.287513 -0.015355 25.000000
v 0.235506 -0.050445 25.014999
v 0.287513 -0.015355 25.000000
v 0.285698 -0.013364 25.014999
v 0.235506 -0.050445 25.014999
v 0.235506 -0.050445 25.014999
v 0.285698 -0.013364 25.014999
v 0.231736 -0.044129 25.025982
v 0.285698 -0.013364 25.014999
v 0.280738 -0.007927 25.025982
v 0.231736 -0.044129 25.025982
v 0.231736 -0.044129 25.025982
v 0.280738 -0.007927 25.025982
v 0.226587 -0.035500 25.029999
v 0.280738 -0.007927 25.025982
v 0.273962 -0.000500 25.029999
v 0.226587 -0.035500 25.029999
v 0.273962 -0.000500 -25.029999
v 0.312899 0.043188 -25.029999
v 0.280738 -0.007927 -25.025980
v 0.312899 0.043188 -25.029999
v 0.321102 0.037362 -25.025980
v 0.280738 -0.007927 -25.025980
v 0.280738 -0.007927 -25.025980
v 0.321102 0.037362 -25.025980
v 0.285698 -0.013364 -25.014999
v 0.321102 0.037362 -25.025980
v 0.327108 0.033097 -25.014999
v 0.285698 -0.013364 -25.014999
v 0.285698 -0.013364 -25.014999
v 0.327108 0.033097 -25.014999
v 0.287513 -0.015355 -25.000000
v 0.327108 0.033097 -25.014999
v 0.329305 0.031536 -25.000000
v 0.287513 -0.015355 -25.000000
v 0.287513 -0.015355 -25.000000
v 0.329305 0.031536 -25.000000
v 0.287513 -0.015355 25.000000
v 0.329305 0.031536 -25.000000
v 0.329305 0.031536 25.000000
v 0.287513 -0.015355 25.000000
v 0.287513 -0.015355 25.000000
v 0.329305 0.031536 25.000000
v 0.285698 -0.013364 25.014999
v 0.329305 0.031536 25.000000
v 0.327108 0.033097 25.014999
v 0.285698 -0.013364 25.014999
v 0.285698 -0.013364 25.014999
v 0.327108 0.033097 25.014999
v 0.280738 -0.007927 25.025982
v 0.327108 0.033097 25.014999
v 0.321102 0.037362 25.025982
v 0.280738 -0.007927 25.025982
v 0.280738 -0.007927 25.025982
v 0.321102 0.037362 25.025982
v 0.273962 -0.000500 25.029999
v 0.321102 0.037362 25.025982
v 0.312899 0.043188 25.029999
v 0.273962 -0.000500 25.029999
v 0.312899 0.043188 -25.029999
v 0.340712 0.093250 -25.029999
v 0.321102 0.037362 -25.025980
v 0.340712 0.093250 -25.029999
v 0.349989 0.089357 -25.025980
v 0.321102 0.037362 -25.025980
v 0.321102 0.037362 -25.025980
v 0.349989 0.089357 -25.025980
v 0.327108 0.033097 -25.014999
v 0.349989 0.089357 -25.025980
v 0.356780 0.086508 -25.014999
v 0.327108 0.033097 -25.014999
v 0.327108 0.033097 -25.014999
v 0.356780 0.086508 -25.014999
v 0.329305 0.031536 -25.000000
v 0.356780 0.086508 -25.014999
v 0.359266 0.085465 -25.000000
v 0.329305 0.031536 -25.000000
v 0.329305 0.031536 -25.000000
v 0.359266 0.085465 -25.000000
v 0.329305 0.031536 25.000000
v 0.359266 0.085465 -25.000000
v 0.359266 0.085465 25.000000
v 0.329305 0.031536 25.000000
v 0.329305 0.031536 25.000000
v 0.359266 0.085465 25.000000
v 0.327108 0.033097 25.014999
v 0.359266 0.085465 25.000000
v 0.356780 0.086508 25.014999
v 0.327108 0.033097 25.014999
v 0.327108 0.033097 25.014999
v 0.356780 0.086508 25.014999
v 0.321102 0.037362 25.025982
v 0.356780 0.086508 25.014999
v 0.349989 0.089357 25.025982
v 0.321102 0.037362 25.025982
v 0.321102 0.037362 25.025982
v 0.349989 0.089357 25.025982
v 0.312899 0.043188 25.029999
v 0.349989 0.089357 25.025982
v 0.340712 0.093250 25.029999
v 0.312899 0.043188 25.029999
v 0.340712 0.093250 -25.029999
v 0.357399 0.149687 -25.029999
v 0.349989 0.089357 -25.025980
v 0.357399 0.149687 -25.029999
v 0.367272 0.147810 -25.025980
v 0.349989 0.089357 -25.025980
v 0.349989 0.089357 -25.025980
v 0.367272 0.147810 -25.025980
v 0.356780 0.086508 -25.014999
v 0.367272 0.147810 -25.025980
v 0.374500 0.146436 -25.014999
v 0.356780 0.086508 -25.014999
v 0.356780 0.086508 -25.014999
v 0.374500 0.146436 -25.014999
v 0.359266 0.085465 -25.000000
v 0.374500 0.146436 -25.014999
v 0.377145 0.145933 -25.000000
v 0.359266 0.085465 -25.000000
v 0.359266 0.085465 -25.000000
v 0.377145 0.145933 -25.000000
v 0.359266 0.085465 25.000000
v 0.377145 0.145933 -25.000000
v 0.377145 0.145933 25.000000
v 0.359266 0.085465 25.000000
v 0.359266 0.085465 25.000000
v 0.377145 0.145933 25.000000
v 0.356780 0.086508 25.014999
v 0.377145 0.145933 25.000000
v 0.374500 0.146436 25.014999
v 0.356780 0.086508 25.014999
v 0.356780 0.086508 25.014999
v 0.374500 0.146436 25.014999
v 0.349989 0.089357 25.025982
v 0.374500 0.146436 25.014999
v 0.367272 0.147810 25.025982
v 0.349989 0.089357 25.025982
v 0.349989 0.089357 25.025982
v 0.367272 0.147810 25.025982
v 0.340712 0.093250 25.029999
v 0.367272 0.147810 25.025982
v 0.357399 0.149687 25.029999
v 0.340712 0.093250 25.029999
v 0.357399 0.149687 -25.029999
v 0.362962 0.212500 -25.029999
v 0.367272 0.147810 -25.025980
v 0.362962 0.212500 -25.029999
v 0.373000 0.212488 -25.025980
v 0.367272 0.147810 -25.025980
v 0.367272 0.147810 -25.025980
v 0.373000 0.212488 -25.025980
v 0.374500 0.146436 -25.014999
v 0.373000 0.212488 -25.025980
v 0.380348 0.212479 -25.014999
v 0.374500 0.146436 -25.014999
v 0.374500 0.146436 -25.014999
v 0.380348 0.212479 -25.014999
v 0.377145 0.145933 -25.000000
v 0.380348 0.212479 -25.014999
v 0.383038 0.212476 -25.000000
v 0.377145 0.145933 -25.000000
v 0.377145 0.145933 -25.000000
v 0.383038 0.212476 -25.000000
v 0.377145 0.145933 25.000000
v 0.383038 0.212476 -25.000000
v 0.383038 0.212476 25.000000
v 0.377145 0.145933 25.000000
v 0.377145 0.145933 25.000000
v 0.383038 0.212476 25.000000
v 0.374500 0.146436 25.014999
v 0.383038 0.212476 25.000000
v 0.380348 0.212479 25.014999
v 0.374500 0.146436 25.014999
v 0.374500 0.146436 25.014999
v 0.380348 0.212479 25.014999
v 0.367272 0.147810 25.025982
v 0.380348 0.212479 25.014999
v 0.373000 0.212488 25.025982
v 0.367272 0.147810 25.025982
v 0.367272 0.147810 25.025982
v 0.373000 0.212488 25.025982
v 0.357399 0.149687 25.029999
v 0.373000 0.212488 25.025982
v 0.362962 0.212500 25.029999
v 0.357399 0.149687 25.029999
v 0.362962 0.212500 -25.029999
v 0.357587 0.274875 -25.029999
v 0.373000 0.212488 -25.025980
v 0.357587 0.274875 -25.029999
v 0.367467 0.276702 -25.025980
v 0.373000 0.212488 -25.025980
v 0.373000 0.212488 -25.025980
v 0.367467 0.276702 -25.025980
v 0.380348 0.212479 -25.014999
v 0.367467 0.276702 -25.025980
v 0.374699 0.278040 -25.014999
v 0.380348 0.212479 -25.014999
v 0.380348 0.212479 -25.014999
v 0.374699 0.278040 -25.014999
v 0.383038 0.212476 -25.000000
v 0.374699 0.278040 -25.014999
v 0.377346 0.278529 -25.000000
v 0.383038 0.212476 -25.000000
v 0.383038 0.212476 -25.000000
v 0.377346 0.278529 -25.000000
v 0.383038 0.212476 25.000000
v 0.377346 0.278529 -25.000000
v 0.377346 0.278529 25.000000
v 0.383038 0.212476 25.000000
v 0.383038 0.212476 25.000000
v 0.377346 0.278529 25.000000
v 0.380348 0.212479 25.014999
v 0.377346 0.278529 25.000000
v 0.374699 0.278040 25.014999
v 0.380348 0.212479 25.014999
v 0.380348 0.212479 25.014999
v 0.374699 0.278040 25.014999
v 0.373000 0.212488 25.025982
v 0.374699 0.278040 25.014999
v 0.367467 0.276702 25.025982
v 0.373000 0.212488 25.025982
v 0.373000 0.212488 25.025982
v 0.367467 0.276702 25.025982
v 0.362962 0.212500 25.029999
v 0.367467 0.276702 25.025982
v 0.357587 0.274875 25.029999
v 0.362962 0.212500 25.029999
v 0.357587 0.274875 -25.029999
v 0.341462 0.331000 -25.029999
v 0.367467 0.276702 -25.025980
v 0.341462 0.331000 -25.029999
v 0.350776 0.334796 -25.025980
v 0.367467 0.276702 -25.025980
v 0.367467 0.276702 -25.025980
v 0.350776 0.334796 -25.025980
v 0.374699 0.278040 -25.014999
v 0.350776 0.334796 -25.025980
v 0.357594 0.337575 -25.014999
v 0.374699 0.278040 -25.014999
v 0.374699 0.278040 -25.014999
v 0.357594 0.337575 -25.014999
v 0.377346 0.278529 -25.000000
v 0.357594 0.337575 -25.014999
v 0.360090 0.338592 -25.000000
v 0.377346 0.278529 -25.000000
v 0.377346 0.278529 -25.000000
v 0.360090 0.338592 -25.000000
v 0.377346 0.278529 25.000000
v 0.360090 0.338592 -25.000000
v 0.360090 0.338592 25.000000
v 0.377346 0.278529 25.000000
v 0.377346 0.278529 25.000000
v 0.360090 0.338592 25.000000
v 0.374699 0.278040 25.014999
v 0.360090 0.338592 25.000000
v 0.357594 0.337575 25.014999
v 0.374699 0.278040 25.014999
v 0.374699 0.278040 25.014999
v 0.357594 0.337575 25.014999
v 0.367467 0.276702 25.025982
v 0.357594 0.337575 25.014999
v 0.350776 0.334796 25.025982
v 0.367467 0.276702 25.025982
v 0.367467 0.276702 25.025982
v 0.350776 0.334796 25.025982
v 0.357587 0.274875 25.029999
v 0.350776 0.334796 25.025982
v 0.341462 0.331000 25.029999
v 0.357587 0.274875 25.029999
v 0.341462 0.331000 -25.029999
v 0.314587 0.380875 -25.029999
v 0.350776 0.334796 -25.025980
v 0.314587 0.380875 -25.029999
v 0.322872 0.386580 -25.025980
v 0.350776 0.334796 -25.025980
v 0.350776 0.334796 -25.025980
v 0.322872 0.386580 -25.025980
v 0.357594 0.337575 -25.014999
v 0.322872 0.386580 -25.025980
v 0.328938 0.390756 -25.014999
v 0.357594 0.337575 -25.014999
v 0.357594 0.337575 -25.014999
v 0.328938 0.390756 -25.014999
v 0.360090 0.338592 -25.000000
v 0.328938 0.390756 -25.014999
v 0.331158 0.392284 -25.000000
v 0.360090 0.338592 -25.000000
v 0.360090 0.338592 -25.000000
v 0.331158 0.392284 -25.000000
v 0.360090 0.338592 25.000000
v 0.331158 0.392284 -25.000000
v 0.331158 0.392284 25.000000
v 0.360090 0.338592 25.000000
v 0.360090 0.338592 25.000000
v 0.331158 0.392284 25.000000
v 0.357594 0.337575 25.014999
v 0.331158 0.392284 25.000000
v 0.328938 0.390756 25.014999
v 0.357594 0.337575 25.014999
v 0.357594 0.337575 25.014999
v 0.328938 0.390756 25.014999
v 0.350776 0.334796 25.025982
v 0.328938 0.390756 25.014999
v 0.322872 0.386580 25.025982
v 0.350776 0.334796 25.025982
v 0.350776 0.334796 25.025982
v 0.322872 0.386580 25.025982
v 0.341462 0.331000 25.029999
v 0.322872 0.386580 25.025982
v 0.314587 0.380875 25.029999
v 0.341462 0.331000 25.029999
v 0.314587 0.380875 -25.029999
v 0.276962 0.424500 -25.029999
v 0.322872 0.386580 -25.025980
v 0.276962 0.424500 -25.029999
v 0.283912 0.431753 -25.025980
v 0.322872 0.386580 -25.025980
v 0.322872 0.386580 -25.025980
v 0.283912 0.431753 -25.025980
v 0.328938 0.390756 -25.014999
v 0.283912 0.431753 -25.025980
v 0.289000 0.437063 -25.014999
v 0.328938 0.390756 -25.014999
v 0.328938 0.390756 -25.014999
v 0.289000 0.437063 -25.014999
v 0.331158 0.392284 -25.000000
v 0.289000 0.437063 -25.014999
v 0.290862 0.439006 -25.000000
v 0.331158 0.392284 -25.000000
v 0.331158 0.392284 -25.000000
v 0.290862 0.439006 -25.000000
v 0.331158 0.392284 25.000000
v 0.290862 0.439006 -25.000000
v 0.290862 0.439006 25.000000
v 0.331158 0.392284 25.000000
v 0.331158 0.392284 25.000000
v 0.290862 0.439006 25.000000
v 0.328938 0.390756 25.014999
v 0.290862 0.439006 25.000000
v 0.289000 0.437063 25.014999
v 0.328938 0.390756 25.014999
v 0.328938 0.390756 25.014999
v 0.289000 0.437063 25.014999
v 0.322872 0.386580 25.025982
v 0.289000 0.437063 25.014999
v 0.283912 0.431753 25.025982
v 0.322872 0.386580 25.025982
v 0.322872 0.386580 25.025982
v 0.283912 0.431753 25.025982
v 0.314587 0.380875 25.029999
v 0.283912 0.431753 25.025982
v 0.276962 0.424500 25.029999
v 0.314587 0.380875 25.029999
v 0.276962 0.424500 -25.029999
v 0.231587 0.460375 -25.029999
v 0.283912 0.431753 -25.025980
v 0.231587 0.460375 -25.029999
v 0.236985 0.468855 -25.025980
v 0.283912 0.431753 -25.025980
v 0.283912 0.431753 -25.025980
v 0.236985 0.468855 -25.025980
v 0.289000 0.437063 -25.014999
v 0.236985 0.468855 -25.025980
v 0.240936 0.475064 -25.014999
v 0.289000 0.437063 -25.014999
v 0.289000 0.437063 -25.014999
v 0.240936 0.475064 -25.014999
v 0.290862 0.439006 -25.000000
v 0.240936 0.475064 -25.014999
v 0.242382 0.477336 -25.000000
v 0.290862 0.439006 -25.000000
v 0.290862 0.439006 -25.000000
v 0.242382 0.477336 -25.000000
v 0.290862 0.439006 25.000000
v 0.242382 0.477336 -25.000000
v 0.242382 0.477336 25.000000
v 0.290862 0.439006 25.000000
v 0.290862 0.439006 25.000000
v 0.242382 0.477336 25.000000
v 0.289000 0.437063 25.014999
v 0.242382 0.477336 25.000000
v 0.240936 0.475064 25.014999
v 0.289000 0.437063 25.014999
v 0.289000 0.437063 25.014999
v 0.240936 0.475064 25.014999
v 0.283912 0.431753 25.025982
v 0.240936 0.475064 25.014999
v 0.236985 0.468855 25.025982
v 0.283912 0.431753 25.025982
v 0.283912 0.431753 25.025982
v 0.236985 0.468855 25.025982
v 0.276962 0.424500 25.029999
v 0.236985 0.468855 25.025982
v 0.231587 0.460375 25.029999
v 0.276962 0.424500 25.029999
v 0.231587 0.460375 -25.029999
v 0.180462 0.486000 -25.029999
v 0.236985 0.468855 -25.025980
v 0.180462 0.486000 -25.029999
v 0.184043 0.495391 -25.025980
v 0.236985 0.468855 -25.025980
v 0.236985 0.468855 -25.025980
v 0.184043 0.495391 -25.025980
v 0.240936 0.475064 -25.014999
v 0.184043 0.495391 -25.025980
v 0.186665 0.502265 -25.014999
v 0.240936 0.475064 -25.014999
v 0.240936 0.475064 -25.014999
v 0.186665 0.502265 -25.014999
v 0.242382 0.477336 -25.000000
v 0.186665 0.502265 -25.014999
v 0.187624 0.504782 -25.000000
v 0.242382 0.477336 -25.000000
v 0.242382 0.477336 -25.000000
v 0.187624 0.504782 -25.000000
v 0.242382 0.477336 25.000000
v 0.187624 0.504782 -25.000000
v 0.187624 0.504782 25.000000
v 0.242382 0.477336 25.000000
v 0.242382 0.477336 25.000000
v 0.187624 0.504782 25.000000
v 0.240936 0.475064 25.014999
v 0.187624 0.504782 25.000000
v 0.186665 0.502265 25.014999
v 0.240936 0.475064 25.014999
v 0.240936 0.475064 25.014999
v 0.186665 0.502265 25.014999
v 0.236985 0.468855 25.025982
v 0.186665 0.502265 25.014999
v 0.184043 0.495391 25.025982
v 0.236985 0.468855 25.025982
v 0.236985 0.468855 25.025982
v 0.184043 0.495391 25.025982
v 0.231587 0.460375 25.029999
v 0.184043 0.495391 25.025982
v 0.180462 0.486000 25.029999
v 0.231587 0.460375 25.029999
v 0.180462 0.486000 -25.029999
v 0.123587 0.501375 -25.029999
v 0.184043 0.495391 -25.025980
v 0.123587 0.501375 -25.029999
v 0.125314 0.511267 -25.025980
v 0.184043 0.495391 -25.025980
v 0.184043 0.495391 -25.025980
v 0.125314 0.511267 -25.025980
v 0.186665 0.502265 -25.014999
v 0.125314 0.511267 -25.025980
v 0.126578 0.518509 -25.014999
v 0.186665 0.502265 -25.014999
v 0.186665 0.502265 -25.014999
v 0.126578 0.518509 -25.014999
v 0.187624 0.504782 -25.000000
v 0.126578 0.518509 -25.014999
v 0.127041 0.521159 -25.000000
v 0.187624 0.504782 -25.000000
v 0.187624 0.504782 -25.000000
v 0.127041 0.521159 -25.000000
v 0.187624 0.504782 25.000000
v 0.127041 0.521159 -25.000000
v 0.127041 0.521159 25.000000
v 0.187624 0.504782 25.000000
v 0.187624 0.504782 25.000000
v 0.127041 0.521159 25.000000
v 0.186665 0.502265 25.014999
v 0.127041 0.521159 25.000000
v 0.126578 0.518509 25.014999
v 0.186665 0.502265 25.014999
v 0.186665 0.502265 25.014999
v 0.126578 0.518509 25.014999
v 0.184043 0.495391 25.025982
v 0.126578 0.518509 25.014999
v 0.125314 0.511267 25.025982
v 0.184043 0.495391 25.025982
v 0.184043 0.495391 25.025982
v 0.125314 0.511267 25.025982
v 0.180462 0.486000 25.029999
v 0.125314 0.511267 25.025982
v 0.123587 0.501375 25.029999
v 0.180462 0.486000 25.029999
v 0.123587 0.501375 -25.029999
v 0.060962 0.506500 -25.029999
v 0.125314 0.511267 -25.025980
v 0.060962 0.506500 -25.029999
v 0.061370 0.516500 -25.025980
v 0.125314 0.511267 -25.025980
v 0.125314 0.511267 -25.025980
v 0.061370 0.516500 -25.025980
v 0.126578 0.518509 -25.014999
v 0.061370 0.516500 -25.025980
v 0.061669 0.523821 -25.014999
v 0.126578 0.518509 -25.014999
v 0.126578 0.518509 -25.014999
v 0.061669 0.523821 -25.014999
v 0.127041 0.521159 -25.000000
v 0.061669 0.523821 -25.014999
v 0.061779 0.526500 -25.000000
v 0.127041 0.521159 -25.000000
v 0.127041 0.521159 -25.000000
v 0.061779 0.526500 -25.000000
v 0.127041 0.521159 25.000000
v 0.061779 0.526500 -25.000000
v 0.061779 0.526500 25.000000
v 0.127041 0.521159 25.000000
v 0.127041 0.521159 25.000000
v 0.061779 0.526500 25.000000
v 0.126578 0.518509 25.014999
v 0.061779 0.526500 25.000000
v 0.061669 0.523821 25.014999
v 0.126578 0.518509 25.014999
v 0.126578 0.518509 25.014999
v 0.061669 0.523821 25.014999
v 0.125314 0.511267 25.025982
v 0.061669 0.523821 25.014999
v 0.061370 0.516500 25.025982
v 0.125314 0.511267 25.025982
v 0.125314 0.511267 25.025982
v 0.061370 0.516500 25.025982
v 0.123587 0.501375 25.029999
v 0.061370 0.516500 25.025982
v 0.060962 0.506500 25.029999
v 0.123587 0.501375 25.029999
v 0.015962 0.382500 -25.029999
v 0.056774 0.379750 -25.029999
v 0.015625 0.372500 -25.025980
v 0.056774 0.379750 -25.029999
v 0.055382 0.369821 -25.025980
v 0.015625 0.372500 -25.025980
v 0.015625 0.372500 -25.025980
v 0.055382 0.369821 -25.025980
v 0.015379 0.365179 -25.014999
v 0.055382 0.369821 -25.025980
v 0.054362 0.362553 -25.014999
v 0.015379 0.365179 -25.014999
v 0.015379 0.365179 -25.014999
v 0.054362 0.362553 -25.014999
v 0.015289 0.362500 -25.000000
v 0.054362 0.362553 -25.014999
v 0.053989 0.359892 -25.000000
v 0.015289 0.362500 -25.000000
v 0.015289 0.362500 -25.000000
v 0.053989 0.359892 -25.000000
v 0.015289 0.362500 25.000000
v 0.053989 0.359892 -25.000000
v 0.053989 0.359892 25.000000
v 0.015289 0.362500 25.000000
v 0.015289 0.362500 25.000000
v 0.053989 0.359892 25.000000
v 0.015379 0.365179 25.014999
v 0.053989 0.359892 25.000000
v 0.054362 0.362553 25.014999
v 0.015379 0.365179 25.014999
v 0.015379 0.365179 25.014999
v 0.054362 0.362553 25.014999
v 0.015625 0.372500 25.025982
v 0.054362 0.362553 25.014999
v 0.055382 0.369821 25.025982
v 0.015625 0.372500 25.025982
v 0.015625 0.372500 25.025982
v 0.055382 0.369821 25.025982
v 0.015962 0.382500 25.029999
v 0.055382 0.369821 25.025982
v 0.056774 0.379750 25.029999
v 0.015962 0.382500 25.029999
v 0.056774 0.379750 -25.029999
v 0.095212 0.371500 -25.029999
v 0.055382 0.369821 -25.025980
v 0.095212 0.371500 -25.029999
v 0.092365 0.361883 -25.025980
v 0.055382 0.369821 -25.025980
v 0.055382 0.369821 -25.025980
v 0.092365 0.361883 -25.025980
v 0.054362 0.362553 -25.014999
v 0.092365 0.361883 -25.025980
v 0.090280 0.354843 -25.014999
v 0.054362 0.362553 -25.014999
v 0.054362 0.362553 -25.014999
v 0.090280 0.354843 -25.014999
v 0.053989 0.359892 -25.000000
v 0.090280 0.354843 -25.014999
v 0.089518 0.352267 -25.000000
v 0.053989 0.359892 -25.000000
v 0.053989 0.359892 -25.000000
v 0.089518 0.352267 -25.000000
v 0.053989 0.359892 25.000000
v 0.089518 0.352267 -25.000000
v 0.089518 0.352267 25.000000
v 0.053989 0.359892 25.000000
v 0.053989 0.359892 25.000000
v 0.089518 0.352267 25.000000
v 0.054362 0.362553 25.014999
v 0.089518 0.352267 25.000000
v 0.090280 0.354843 25.014999
v 0.054362 0.362553 25.014999
v 0.054362 0.362553 25.014999
v 0.090280 0.354843 25.014999
v 0.055382 0.369821 25.025982
v 0.090280 0.354843 25.014999
v 0.092365 0.361883 25.025982
v 0.055382 0.369821 25.025982
v 0.055382 0.369821 25.025982
v 0.092365 0.361883 25.025982
v 0.056774 0.379750 25.029999
v 0.092365 0.361883 25.025982
v 0.095212 0.371500 25.029999
v 0.056774 0.379750 25.029999
v 0.095212 0.371500 -25.029999
v 0.131274 0.357750 -25.029999
v 0.092365 0.361883 -25.025980
v 0.131274 0.357750 -25.029999
v 0.126987 0.348683 -25.025980
v 0.092365 0.361883 -25.025980
v 0.092365 0.361883 -25.025980
v 0.126987 0.348683 -25.025980
v 0.090280 0.354843 -25.014999
v 0.126987 0.348683 -25.025980
v 0.123848 0.342045 -25.014999
v 0.090280 0.354843 -25.014999
v 0.090280 0.354843 -25.014999
v 0.123848 0.342045 -25.014999
v 0.089518 0.352267 -25.000000
v 0.123848 0.342045 -25.014999
v 0.122699 0.339615 -25.000000
v 0.089518 0.352267 -25.000000
v 0.089518 0.352267 -25.000000
v 0.122699 0.339615 -25.000000
v 0.089518 0.352267 25.000000
v 0.122699 0.339615 -25.000000
v 0.122699 0.339615 25.000000
v 0.089518 0.352267 25.000000
v 0.089518 0.352267 25.000000
v 0.122699 0.339615 25.000000
v 0.090280 0.354843 25.014999
v 0.122699 0.339615 25.000000
v 0.123848 0.342045 25.014999
v 0.090280 0.354843 25.014999
v 0.090280 0.354843 25.014999
v 0.123848 0.342045 25.014999
v 0.092365 0.361883 25.025982
v 0.123848 0.342045 25.014999
v 0.126987 0.348683 25.025982
v 0.092365 0.361883 25.025982
v 0.092365 0.361883 25.025982
v 0.126987 0.348683 25.025982
v 0.095212 0.371500 25.029999
v 0.126987 0.348683 25.025982
v 0.131274 0.357750 25.029999
v 0.095212 0.371500 25.029999
v 0.131274 0.357750 -25.029999
v 0.164962 0.338500 -25.029999
v 0.126987 0.348683 -25.025980
v 0.164962 0.338500 -25.029999
v 0.159181 0.330286 -25.025980
v 0.126987 0.348683 -25.025980
v 0.126987 0.348683 -25.025980
v 0.159181 0.330286 -25.025980
v 0.123848 0.342045 -25.014999
v 0.159181 0.330286 -25.025980
v 0.154949 0.324273 -25.014999
v 0.123848 0.342045 -25.014999
v 0.123848 0.342045 -25.014999
v 0.154949 0.324273 -25.014999
v 0.122699 0.339615 -25.000000
v 0.154949 0.324273 -25.014999
v 0.153400 0.322072 -25.000000
v 0.122699 0.339615 -25.000000
v 0.122699 0.339615 -25.000000
v 0.153400 0.322072 -25.000000
v 0.122699 0.339615 25.000000
v 0.153400 0.322072 -25.000000
v 0.153400 0.322072 25.000000
v 0.122699 0.339615 25.000000
v 0.122699 0.339615 25.000000
v 0.153400 0.322072 25.000000
v 0.123848 0.342045 25.014999
v 0.153400 0.322072 25.000000
v 0.154949 0.324273 25.014999
v 0.123848 0.342045 25.014999
v 0.123848 0.342045 25.014999
v 0.154949 0.324273 25.014999
v 0.126987 0.348683 25.025982
v 0.154949 0.324273 25.014999
v 0.159181 0.330286 25.025982
v 0.126987 0.348683 25.025982
v 0.126987 0.348683 25.025982
v 0.159181 0.330286 25.025982
v 0.131274 0.357750 25.029999
v 0.159181 0.330286 25.025982
v 0.164962 0.338500 25.029999
v 0.131274 0.357750 25.029999
v 0.164962 0.338500 -25.029999
v 0.193399 0.314187 -25.029999
v 0.159181 0.330286 -25.025980
v 0.193399 0.314187 -25.029999
v 0.185941 0.307408 -25.025980
v 0.159181 0.330286 -25.025980
v 0.159181 0.330286 -25.025980
v 0.185941 0.307408 -25.025980
v 0.154949 0.324273 -25.014999
v 0.185941 0.307408 -25.025980
v 0.180480 0.302445 -25.014999
v 0.154949 0.324273 -25.014999
v 0.154949 0.324273 -25.014999
v 0.180480 0.302445 -25.014999
v 0.153400 0.322072 -25.000000
v 0.180480 0.302445 -25.014999
v 0.178482 0.300628 -25.000000
v 0.153400 0.322072 -25.000000
v 0.153400 0.322072 -25.000000
v 0.178482 0.300628 -25.000000
v 0.153400 0.322072 25.000000
v 0.178482 0.300628 -25.000000
v 0.178482 0.300628 25.000000
v 0.153400 0.322072 25.000000
v 0.153400 0.322072 25.000000
v 0.178482 0.300628 25.000000
v 0.154949 0.324273 25.014999
v 0.178482 0.300628 25.000000
v 0.180480 0.302445 25.014999
v 0.154949 0.324273 25.014999
v 0.154949 0.324273 25.014999
v 0.180480 0.302445 25.014999
v 0.159181 0.330286 25.025982
v 0.180480 0.302445 25.014999
v 0.185941 0.307408 25.025982
v 0.159181 0.330286 25.025982
v 0.159181 0.330286 25.025982
v 0.185941 0.307408 25.025982
v 0.164962 0.338500 25.029999
v 0.185941 0.307408 25.025982
v 0.193399 0.314187 25.029999
v 0.164962 0.338500 25.029999
v 0.193399 0.314187 -25.029999
v 0.213712 0.285250 -25.029999
v 0.185941 0.307408 -25.025980
v 0.213712 0.285250 -25.029999
v 0.204765 0.280590 -25.025980
v 0.185941 0.307408 -25.025980
v 0.185941 0.307408 -25.025980
v 0.204765 0.280590 -25.025980
v 0.180480 0.302445 -25.014999
v 0.204765 0.280590 -25.025980
v 0.198216 0.277179 -25.014999
v 0.180480 0.302445 -25.014999
v 0.180480 0.302445 -25.014999
v 0.198216 0.277179 -25.014999
v 0.178482 0.300628 -25.000000
v 0.198216 0.277179 -25.014999
v 0.195818 0.275930 -25.000000
v 0.178482 0.300628 -25.000000
v 0.178482 0.300628 -25.000000
v 0.195818 0.275930 -25.000000
v 0.178482 0.300628 25.000000
v 0.195818 0.275930 -25.000000
v 0.195818 0.275930 25.000000
v 0.178482 0.300628 25.000000
v 0.178482 0.300628 25.000000
v 0.195818 0.275930 25.000000
v 0.180480 0.302445 25.014999
v 0.195818 0.275930 25.000000
v 0.198216 0.277179 25.014999
v 0.180480 0.302445 25.014999
v 0.180480 0.302445 25.014999
v 0.198216 0.277179 25.014999
v 0.185941 0.307408 25.025982
v 0.198216 0.277179 25.014999
v 0.204765 0.280590 25.025982
v 0.185941 0.307408 25.025982
v 0.185941 0.307408 25.025982
v 0.204765 0.280590 25.025982
v 0.193399 0.314187 25.029999
v 0.204765 0.280590 25.025982
v 0.213712 0.285250 25.029999
v 0.193399 0.314187 25.029999
v 0.213712 0.285250 -25.029999
v 0.225899 0.251687 -25.029999
v 0.204765 0.280590 -25.025980
v 0.225899 0.251687 -25.029999
v 0.216084 0.249419 -25.025980
v 0.204765 0.280590 -25.025980
v 0.204765 0.280590 -25.025980
v 0.216084 0.249419 -25.025980
v 0.198216 0.277179 -25.014999
v 0.216084 0.249419 -25.025980
v 0.208899 0.247758 -25.014999
v 0.198216 0.277179 -25.014999
v 0.198216 0.277179 -25.014999
v 0.208899 0.247758 -25.014999
v 0.195818 0.275930 -25.000000
v 0.208899 0.247758 -25.014999
v 0.206269 0.247150 -25.000000
v 0.195818 0.275930 -25.000000
v 0.195818 0.275930 -25.000000
v 0.206269 0.247150 -25.000000
v 0.195818 0.275930 25.000000
v 0.206269 0.247150 -25.000000
v 0.206269 0.247150 25.000000
v 0.195818 0.275930 25.000000
v 0.195818 0.275930 25.000000
v 0.206269 0.247150 25.000000
v 0.198216 0.277179 25.014999
v 0.206269 0.247150 25.000000
v 0.208899 0.247758 25.014999
v 0.198216 0.277179 25.014999
v 0.198216 0.277179 25.014999
v 0.208899 0.247758 25.014999
v 0.204765 0.280590 25.025982
v 0.208899 0.247758 25.014999
v 0.216084 0.249419 25.025982
v 0.204765 0.280590 25.025982
v 0.204765 0.280590 25.025982
v 0.216084 0.249419 25.025982
v 0.213712 0.285250 25.029999
v 0.216084 0.249419 25.025982
v 0.225899 0.251687 25.029999
v 0.213712 0.285250 25.029999
v 0.225899 0.251687 -25.029999
v 0.229962 0.213500 -25.029999
v 0.216084 0.249419 -25.025980
v 0.229962 0.213500 -25.029999
v 0.219902 0.213532 -25.025980
v 0.216084 0.249419 -25.025980
v 0.216084 0.249419 -25.025980
v 0.219902 0.213532 -25.025980
v 0.208899 0.247758 -25.014999
v 0.219902 0.213532 -25.025980
v 0.212538 0.213556 -25.014999
v 0.208899 0.247758 -25.014999
v 0.208899 0.247758 -25.014999
v 0.212538 0.213556 -25.014999
v 0.206269 0.247150 -25.000000
v 0.212538 0.213556 -25.014999
v 0.209842 0.213565 -25.000000
v 0.206269 0.247150 -25.000000
v 0.206269 0.247150 -25.000000
v 0.209842 0.213565 -25.000000
v 0.206269 0.247150 25.000000
v 0.209842 0.213565 -25.000000
v 0.209842 0.213565 25.000000
v 0.206269 0.247150 25.000000
v 0.206269 0.247150 25.000000
v 0.209842 0.213565 25.000000
v 0.208899 0.247758 25.014999
v 0.209842 0.213565 25.000000
v 0.212538 0.213556 25.014999
v 0.208899 0.247758 25.014999
v 0.208899 0.247758 25.014999
v 0.212538 0.213556 25.014999
v 0.216084 0.249419 25.025982
v 0.212538 0.213556 25.014999
v 0.219902 0.213532 25.025982
v 0.216084 0.249419 25.025982
v 0.216084 0.249419 25.025982
v 0.219902 0.213532 25.025982
v 0.225899 0.251687 25.029999
v 0.219902 0.213532 25.025982
v 0.229962 0.213500 25.029999
v 0.225899 0.251687 25.029999
v 0.229962 0.213500 -25.029999
v 0.225524 0.174187 -25.029999
v 0.219902 0.213532 -25.025980
v 0.225524 0.174187 -25.029999
v 0.215729 0.176566 -25.025980
v 0.219902 0.213532 -25.025980
v 0.219902 0.213532 -25.025980
v 0.215729 0.176566 -25.025980
v 0.212538 0.213556 -25.014999
v 0.215729 0.176566 -25.025980
v 0.208559 0.178307 -25.014999
v 0.212538 0.213556 -25.014999
v 0.212538 0.213556 -25.014999
v 0.208559 0.178307 -25.014999
v 0.209842 0.213565 -25.000000
v 0.208559 0.178307 -25.014999
v 0.205934 0.178945 -25.000000
v 0.209842 0.213565 -25.000000
v 0.209842 0.213565 -25.000000
v 0.205934 0.178945 -25.000000
v 0.209842 0.213565 25.000000
v 0.205934 0.178945 -25.000000
v 0.205934 0.178945 25.000000
v 0.209842 0.213565 25.000000
v 0.209842 0.213565 25.000000
v 0.205934 0.178945 25.000000
v 0.212538 0.213556 25.014999
v 0.205934 0.178945 25.000000
v 0.208559 0.178307 25.014999
v 0.212538 0.213556 25.014999
v 0.212538 0.213556 25.014999
v 0.208559 0.178307 25.014999
v 0.219902 0.213532 25.025982
v 0.208559 0.178307 25.014999
v 0.215729 0.176566 25.025982
v 0.219902 0.213532 25.025982
v 0.219902 0.213532 25.025982
v 0.215729 0.176566 25.025982
v 0.229962 0.213500 25.029999
v 0.215729 0.176566 25.025982
v 0.225524 0.174187 25.029999
v 0.229962 0.213500 25.029999
v 0.225524 0.174187 -25.029999
v 0.212212 0.139250 -25.029999
v 0.215729 0.176566 -25.025980
v 0.212212 0.139250 -25.029999
v 0.203340 0.144051 -25.025980
v 0.215729 0.176566 -25.025980
v 0.215729 0.176566 -25.025980
v 0.203340 0.144051 -25.025980
v 0.208559 0.178307 -25.014999
v 0.203340 0.144051 -25.025980
v 0.196845 0.147565 -25.014999
v 0.208559 0.178307 -25.014999
v 0.208559 0.178307 -25.014999
v 0.196845 0.147565 -25.014999
v 0.205934 0.178945 -25.000000
v 0.196845 0.147565 -25.014999
v 0.194468 0.148852 -25.000000
v 0.205934 0.178945 -25.000000
v 0.205934 0.178945 -25.000000
v 0.194468 0.148852 -25.000000
v 0.205934 0.178945 25.000000
v 0.194468 0.148852 -25.000000
v 0.194468 0.148852 25.000000
v 0.205934 0.178945 25.000000
v 0.205934 0.178945 25.000000
v 0.194468 0.148852 25.000000
v 0.208559 0.178307 25.014999
v 0.194468 0.148852 25.000000
v 0.196845 0.147565 25.014999
v 0.208559 0.178307 25.014999
v 0.208559 0.178307 25.014999
v 0.196845 0.147565 25.014999
v 0.215729 0.176566 25.025982
v 0.196845 0.147565 25.014999
v 0.203340 0.144051 25.025982
v 0.215729 0.176566 25.025982
v 0.215729 0.176566 25.025982
v 0.203340 0.144051 25.025982
v 0.225524 0.174187 25.029999
v 0.203340 0.144051 25.025982
v 0.212212 0.139250 25.029999
v 0.225524 0.174187 25.029999
v 0.212212 0.139250 -25.029999
v 0.190024 0.108688 -25.029999
v 0.203340 0.144051 -25.025980
v 0.190024 0.108688 -25.029999
v 0.182648 0.115548 -25.025980
v 0.203340 0.144051 -25.025980
v 0.203340 0.144051 -25.025980
v 0.182648 0.115548 -25.025980
v 0.196845 0.147565 -25.014999
v 0.182648 0.115548 -25.025980
v 0.177247 0.120570 -25.014999
v 0.196845 0.147565 -25.014999
v 0.196845 0.147565 -25.014999
v 0.177247 0.120570 -25.014999
v 0.194468 0.148852 -25.000000
v 0.177247 0.120570 -25.014999
v 0.175271 0.122408 -25.000000
v 0.194468 0.148852 -25.000000
v 0.194468 0.148852 -25.000000
v 0.175271 0.122408 -25.000000
v 0.194468 0.148852 25.000000
v 0.175271 0.122408 -25.000000
v 0.175271 0.122408 25.000000
v 0.194468 0.148852 25.000000
v 0.194468 0.148852 25.000000
v 0.175271 0.122408 25.000000
v 0.196845 0.147565 25.014999
v 0.175271 0.122408 25.000000
v 0.177247 0.120570 25.014999
v 0.196845 0.147565 25.014999
v 0.196845 0.147565 25.014999
v 0.177247 0.120570 25.014999
v 0.203340 0.144051 25.025982
v 0.177247 0.120570 25.014999
v 0.182648 0.115548 25.025982
v 0.203340 0.144051 25.025982
v 0.203340 0.144051 25.025982
v 0.182648 0.115548 25.025982
v 0.212212 0.139250 25.029999
v 0.182648 0.115548 25.025982
v 0.190024 0.108688 25.029999
v 0.212212 0.139250 25.029999
v 0.190024 0.108688 -25.029999
v 0.158962 0.082500 -25.029999
v 0.182648 0.115548 -25.025980
v 0.158962 0.082500 -25.029999
v 0.153293 0.090801 -25.025980
v 0.182648 0.115548 -25.025980
v 0.182648 0.115548 -25.025980
v 0.153293 0.090801 -25.025980
v 0.177247 0.120570 -25.014999
v 0.153293 0.090801 -25.025980
v 0.149144 0.096877 -25.014999
v 0.177247 0.120570 -25.014999
v 0.177247 0.120570 -25.014999
v 0.149144 0.096877 -25.014999
v 0.175271 0.122408 -25.000000
v 0.149144 0.096877 -25.014999
v 0.147625 0.099101 -25.000000
v 0.175271 0.122408 -25.000000
v 0.175271 0.122408 -25.000000
v 0.147625 0.099101 -25.000000
v 0.175271 0.122408 25.000000
v 0.147625 0.099101 -25.000000
v 0.147625 0.099101 25.000000
v 0.175271 0.122408 25.000000
v 0.175271 0.122408 25.000000
v 0.147625 0.099101 25.000000
v 0.177247 0.120570 25.014999
v 0.147625 0.099101 25.000000
v 0.149144 0.096877 25.014999
v 0.177247 0.120570 25.014999
v 0.177247 0.120570 25.014999
v 0.149144 0.096877 25.014999
v 0.182648 0.115548 25.025982
v 0.149144 0.096877 25.014999
v 0.153293 0.090801 25.025982
v 0.182648 0.115548 25.025982
v 0.182648 0.115548 25.025982
v 0.153293 0.090801 25.025982
v 0.190024 0.108688 25.029999
v 0.153293 0.090801 25.025982
v 0.158962 0.082500 25.029999
v 0.190024 0.108688 25.029999
v 0.158962 0.082500 -25.029999
v 0.125962 0.064563 -25.029999
v 0.153293 0.090801 -25.025980
v 0.125962 0.064563 -25.029999
v 0.121873 0.073722 -25.025980
v 0.153293 0.090801 -25.025980
v 0.153293 0.090801 -25.025980
v 0.121873 0.073722 -25.025980
v 0.149144 0.096877 -25.014999
v 0.121873 0.073722 -25.025980
v 0.118879 0.080427 -25.014999
v 0.149144 0.096877 -25.014999
v 0.149144 0.096877 -25.014999
v 0.118879 0.080427 -25.014999
v 0.147625 0.099101 -25.000000
v 0.118879 0.080427 -25.014999
v 0.117784 0.082881 -25.000000
v 0.147625 0.099101 -25.000000
v 0.147625 0.099101 -25.000000
v 0.117784 0.082881 -25.000000
v 0.147625 0.099101 25.000000
v 0.117784 0.082881 -25.000000
v 0.117784 0.082881 25.000000
v 0.147625 0.099101 25.000000
v 0.147625 0.099101 25.000000
v 0.117784 0.082881 25.000000
v 0.149144 0.096877 25.014999
v 0.117784 0.082881 25.000000
v 0.118879 0.080427 25.014999
v 0.149144 0.096877 25.014999
v 0.149144 0.096877 25.014999
v 0.118879 0.080427 25.014999
v 0.153293 0.090801 25.025982
v 0.118879 0.080427 25.014999
v 0.121873 0.073722 25.025982
v 0.153293 0.090801 25.025982
v 0.153293 0.090801 25.025982
v 0.121873 0.073722 25.025982
v 0.158962 0.082500 25.029999
v 0.121873 0.073722 25.025982
v 0.125962 0.064563 25.029999
v 0.158962 0.082500 25.029999
v 0.125962 0.064563 -25.029999
v 0.089962 0.051750 -25.029999
v 0.121873 0.073722 -25.025980
v 0.089962 0.051750 -25.029999
v 0.087304 0.061419 -25.025980
v 0.121873 0.073722 -25.025980
v 0.121873 0.073722 -25.025980
v 0.087304 0.061419 -25.025980
v 0.118879 0.080427 -25.014999
v 0.087304 0.061419 -25.025980
v 0.085358 0.068496 -25.014999
v 0.118879 0.080427 -25.014999
v 0.118879 0.080427 -25.014999
v 0.085358 0.068496 -25.014999
v 0.117784 0.082881 -25.000000
v 0.085358 0.068496 -25.014999
v 0.084646 0.071087 -25.000000
v 0.117784 0.082881 -25.000000
v 0.117784 0.082881 -25.000000
v 0.084646 0.071087 -25.000000
v 0.117784 0.082881 25.000000
v 0.084646 0.071087 -25.000000
v 0.084646 0.071087 25.000000
v 0.117784 0.082881 25.000000
v 0.117784 0.082881 25.000000
v 0.084646 0.071087 25.000000
v 0.118879 0.080427 25.014999
v 0.084646 0.071087 25.000000
v 0.085358 0.068496 25.014999
v 0.118879 0.080427 25.014999
v 0.118879 0.080427 25.014999
v 0.085358 0.068496 25.014999
v 0.121873 0.073722 25.025982
v 0.085358 0.068496 25.014999
v 0.087304 0.061419 25.025982
v 0.121873 0.073722 25.025982
v 0.121873 0.073722 25.025982
v 0.087304 0.061419 25.025982
v 0.125962 0.064563 25.029999
v 0.087304 0.061419 25.025982
v 0.089962 0.051750 25.029999
v 0.125962 0.064563 25.029999
v 0.089962 0.051750 -25.029999
v 0.050962 0.044063 -25.029999
v 0.087304 0.061419 -25.025980
v 0.050962 0.044063 -25.029999
v 0.049685 0.054003 -25.025980
v 0.087304 0.061419 -25.025980
v 0.087304 0.061419 -25.025980
v 0.049685 0.054003 -25.025980
v 0.085358 0.068496 -25.014999
v 0.049685 0.054003 -25.025980
v 0.048750 0.061280 -25.014999
v 0.085358 0.068496 -25.014999
v 0.085358 0.068496 -25.014999
v 0.048750 0.061280 -25.014999
v 0.084646 0.071087 -25.000000
v 0.048750 0.061280 -25.014999
v 0.048408 0.063944 -25.000000
v 0.084646 0.071087 -25.000000
v 0.084646 0.071087 -25.000000
v 0.048408 0.063944 -25.000000
v 0.084646 0.071087 25.000000
v 0.048408 0.063944 -25.000000
v 0.048408 0.063944 25.000000
v 0.084646 0.071087 25.000000
v 0.084646 0.071087 25.000000
v 0.048408 0.063944 25.000000
v 0.085358 0.068496 25.014999
v 0.048408 0.063944 25.000000
v 0.048750 0.061280 25.014999
v 0.085358 0.068496 25.014999
v 0.085358 0.068496 25.014999
v 0.048750 0.061280 25.014999
v 0.087304 0.061419 25.025982
v 0.048750 0.061280 25.014999
v 0.049685 0.054003 25.025982
v 0.087304 0.061419 25.025982
v 0.087304 0.061419 25.025982
v 0.049685 0.054003 25.025982
v 0.089962 0.051750 25.029999
v 0.049685 0.054003 25.025982
v 0.050962 0.044063 25.029999
v 0.089962 0.051750 25.029999
v 0.050962 0.044063 -25.029999
v 0.008962 0.041500 -25.029999
v 0.049685 0.054003 -25.025980
v 0.008962 0.041500 -25.029999
v 0.008657 0.051500 -25.025980
v 0.049685 0.054003 -25.025980
v 0.049685 0.054003 -25.025980
v 0.008657 0.051500 -25.025980
v 0.048750 0.061280 -25.014999
v 0.008657 0.051500 -25.025980
v 0.008434 0.058820 -25.014999
v 0.048750 0.061280 -25.014999
v 0.048750 0.061280 -25.014999
v 0.008434 0.058820 -25.014999
v 0.048408 0.063944 -25.000000
v 0.008434 0.058820 -25.014999
v 0.008352 0.061500 -25.000000
v 0.048408 0.063944 -25.000000
v 0.048408 0.063944 -25.000000
v 0.008352 0.061500 -25.000000
v 0.048408 0.063944 25.000000
v 0.008352 0.061500 -25.000000
v 0.008352 0.061500 25.000000
v 0.048408 0.063944 25.000000
v 0.048408 0.063944 25.000000
v 0.008352 0.061500 25.000000
v 0.048750 0.061280 25.014999
v 0.008352 0.061500 25.000000
v 0.008434 0.058820 25.014999
v 0.048750 0.061280 25.014999
v 0.048750 0.061280 25.014999
v 0.008434 0.058820 25.014999
v 0.049685 0.054003 25.025982
v 0.008434 0.058820 25.014999
v 0.008657 0.051500 25.025982
v 0.049685 0.054003 25.025982
v 0.049685 0.054003 25.025982
v 0.008657 0.051500 25.025982
v 0.050962 0.044063 25.029999
v 0.008657 0.051500 25.025982
v 0.008962 0.041500 25.029999
v 0.050962 0.044063 25.029999
v 0.008962 0.041500 -25.029999
v -0.223038 0.041500 -25.029999
v 0.008657 0.051500 -25.025980
v -0.223038 0.041500 -25.029999
v -0.213038 0.051500 -25.025980
v 0.008657 0.051500 -25.025980
v 0.008657 0.051500 -25.025980
v -0.213038 0.051500 -25.025980
v 0.008434 0.058820 -25.014999
v -0.213038 0.051500 -25.025980
v -0.205718 0.058820 -25.014999
v 0.008434 0.058820 -25.014999
v 0.008434 0.058820 -25.014999
v -0.205718 0.058820 -25.014999
v 0.008352 0.061500 -25.000000
v -0.205718 0.058820 -25.014999
v -0.203038 0.061500 -25.000000
v 0.008352 0.061500 -25.000000
v 0.008352 0.061500 -25.000000
v -0.203038 0.061500 -25.000000
v 0.008352 0.061500 25.000000
v -0.203038 0.061500 -25.000000
v -0.203038 0.061500 25.000000
v 0.008352 0.061500 25.000000
v 0.008352 0.061500 25.000000
v -0.203038 0.061500 25.000000
v 0.008434 0.058820 25.014999
v -0.203038 0.061500 25.000000
v -0.205718 0.058820 25.014999
v 0.008434 0.058820 25.014999
v 0.008434 0.058820 25.014999
v -0.205718 0.058820 25.014999
v 0.008657 0.051500 25.025982
v -0.205718 0.058820 25.014999
v -0.213038 0.051500 25.025982
v 0.008657 0.051500 25.025982
v 0.008657 0.051500 25.025982
v -0.213038 0.051500 25.025982
v 0.008962 0.041500 25.029999
v -0.213038 0.051500 25.025982
v -0.223038 0.041500 25.029999
v 0.008962 0.041500 25.029999
v -0.223038 0.041500 -25.029999
v -0.223038 0.382500 -25.029999
v -0.213038 0.051500 -25.025980
v -0.223038 0.382500 -25.029999
v -0.213038 0.372500 -25.025980
v -0.213038 0.051500 -25.025980
v -0.213038 0.051500 -25.025980
v -0.213038 0.372500 -25.025980
v -0.205718 0.058820 -25.014999
v -0.213038 0.372500 -25.025980
v -0.205718 0.365179 -25.014999
v -0.205718 0.058820 -25.014999
v -0.205718 0.058820 -25.014999
v -0.205718 0.365179 -25.014999
v -0.203038 0.061500 -25.000000
v -0.205718 0.365179 -25.014999
v -0.203038 0.362500 -25.000000
v -0.203038 0.061500 -25.000000
v -0.203038 0.061500 -25.000000
v -0.203038 0.362500 -25.000000
v -0.203038 0.061500 25.000000
v -0.203038 0.362500 -25.000000
v -0.203038 0.362500 25.000000
v -0.203038 0.061500 25.000000
v -0.203038 0.061500 25.000000
v -0.203038 0.362500 25.000000
v -0.205718 0.058820 25.014999
v -0.203038 0.362500 25.000000
v -0.205718 0.365179 25.014999
v -0.205718 0.058820 25.014999
v -0.205718 0.058820 25.014999
v -0.205718 0.365179 25.014999
v -0.213038 0.051500 25.025982
v -0.205718 0.365179 25.014999
v -0.213038 0.372500 25.025982
v -0.213038 0.051500 25.025982
v -0.213038 0.051500 25.025982
v -0.213038 0.372500 25.025982
v -0.223038 0.041500 25.029999
v -0.213038 0.372500 25.025982
v -0.223038 0.382500 25.029999
v -0.223038 0.041500 25.029999
v -0.223038 0.382500 -25.029999
v 0.015962 0.382500 -25.029999
v -0.213038 0.372500 -25.025980
v 0.015962 0.382500 -25.029999
v 0.015625 0.372500 -25.025980
v -0.213038 0.372500 -25.025980
v -0.213038 0.372500 -25.025980
v 0.015625 0.372500 -25.025980
v -0.205718 0.365179 -25.014999
v 0.015625 0.372500 -25.025980
v 0.015379 0.365179 -25.014999
v -0.205718 0.365179 -25.014999
v -0.205718 0.365179 -25.014999
v 0.015379 0.365179 -25.014999
v -0.203038 0.362500 -25.000000
v 0.015379 0.365179 -25.014999
v 0.015289 0.362500 -25.000000
v -0.203038 0.362500 -25.000000
v -0.203038 0.362500 -25.000000
v 0.015289 0.362500 -25.000000
v -0.203038 0.362500 25.000000
v 0.015289 0.362500 -25.000000
v 0.015289 0.362500 25.000000
v -0.203038 0.362500 25.000000
v -0.203038 0.362500 25.000000
v 0.015289 0.362500 25.000000
v -0.205718 0.365179 25.014999
v 0.015289 0.362500 25.000000
v 0.015379 0.365179 25.014999
v -0.205718 0.365179 25.014999
v -0.205718 0.365179 25.014999
v 0.015379 0.365179 25.014999
v -0.213038 0.372500 25.025982
v 0.015379 0.365179 25.014999
v 0.015625 0.372500 25.025982
v -0.213038 0.372500 25.025982
v -0.213038 0.372500 25.025982
v 0.015625 0.372500 25.025982
v -0.223038 0.382500 25.029999
v 0.015625 0.372500 25.025982
v 0.015962 0.382500 25.029999
v -0.223038 0.382500 25.029999