# Generated mesh
# vertices: 136, faces: 136

v -0.117020 0.304927 0.000000
v -0.100824 0.304607 0.000000
v -0.084988 0.303646 0.000000
v -0.069512 0.302044 0.000000
v -0.054395 0.299802 0.000000
v -0.039637 0.296919 0.000000
v -0.025239 0.293396 0.000000
v -0.011199 0.289232 0.000000
v 0.002480 0.284427 0.000000
v 0.015801 0.278982 0.000000
v 0.028761 0.272896 0.000000
v 0.041363 0.266169 0.000000
v 0.053605 0.258802 0.000000
v 0.065488 0.250794 0.000000
v 0.077012 0.242146 0.000000
v 0.088176 0.232857 0.000000
v 0.098980 0.222927 0.000000
v 0.109394 0.212607 0.000000
v 0.119136 0.201896 0.000000
v 0.128207 0.190794 0.000000
v 0.136605 0.179302 0.000000
v 0.144332 0.167419 0.000000
v 0.151386 0.155146 0.000000
v 0.157769 0.142482 0.000000
v 0.163480 0.129427 0.000000
v 0.168519 0.115982 0.000000
v 0.172886 0.102146 0.000000
v 0.176582 0.087919 0.000000
v 0.179605 0.073302 0.000000
v 0.181957 0.058294 0.000000
v 0.183636 0.042896 0.000000
v 0.184644 0.027107 0.000000
v 0.184980 0.010927 0.000000
v 0.184633 -0.005374 0.000000
v 0.183590 -0.021276 0.000000
v 0.181851 -0.036780 0.000000
v 0.179418 -0.051886 0.000000
v 0.176289 -0.066593 0.000000
v 0.172465 -0.080901 0.000000
v 0.167945 -0.094811 0.000000
v 0.162730 -0.108323 0.000000
v 0.156820 -0.121436 0.000000
v 0.150215 -0.134151 0.000000
v 0.142914 -0.146468 0.000000
v 0.134918 -0.158386 0.000000
v 0.126226 -0.169905 0.000000
v 0.116840 -0.181026 0.000000
v 0.106758 -0.191749 0.000000
v 0.095980 -0.202073 0.000000
v 0.084676 -0.211761 0.000000
v 0.073011 -0.220823 0.000000
v 0.060988 -0.229261 0.000000
v 0.048605 -0.237073 0.000000
v 0.035863 -0.244261 0.000000
v 0.022762 -0.250823 0.000000
v 0.009301 -0.256761 0.000000
v -0.004520 -0.262073 0.000000
v -0.018699 -0.266761 0.000000
v -0.033238 -0.270823 0.000000
v -0.048137 -0.274261 0.000000
v -0.063395 -0.277073 0.000000
v -0.079012 -0.279261 0.000000
v -0.094989 -0.280823 0.000000
v -0.111324 -0.281761 0.000000
v -0.128020 -0.282073 0.000000
v -0.401020 -0.282073 0.000000
v -0.401020 -0.708073 0.000000
v -0.541020 -0.708073 0.000000
v -0.541020 0.304927 0.000000
v -0.162020 0.180927 0.000000
v -0.401020 0.180927 0.000000
v -0.401020 -0.160073 0.000000
v -0.169020 -0.160073 0.000000
v -0.158239 -0.159913 0.000000
v -0.147645 -0.159432 0.000000
v -0.137239 -0.158632 0.000000
v -0.127020 -0.157511 0.000000
v -0.116989 -0.156069 0.000000
v -0.107145 -0.154307 0.000000
v -0.097489 -0.152225 0.000000
v -0.088020 -0.149823 0.000000
v -0.078739 -0.147100 0.000000
v -0.069645 -0.144057 0.000000
v -0.060738 -0.140694 0.000000
v -0.052020 -0.137011 0.000000
v -0.043489 -0.133007 0.000000
v -0.035145 -0.128682 0.000000
v -0.026989 -0.124038 0.000000
v -0.019020 -0.119073 0.000000
v -0.010422 -0.112936 0.000000
v -0.002379 -0.106526 0.000000
v 0.005109 -0.099843 0.000000
v 0.012043 -0.092886 0.000000
v 0.018422 -0.085655 0.000000
v 0.024246 -0.078151 0.000000
v 0.029515 -0.070374 0.000000
v 0.034230 -0.062323 0.000000
v 0.038390 -0.053999 0.000000
v 0.041996 -0.045401 0.000000
v 0.045047 -0.036530 0.000000
v 0.047543 -0.027386 0.000000
v 0.049484 -0.017968 0.000000
v 0.050871 -0.008276 0.000000
v 0.051703 0.001689 0.000000
v 0.051980 0.011927 0.000000
v 0.051726 0.021907 0.000000
v 0.050965 0.031599 0.000000
v 0.049695 0.041001 0.000000
v 0.047918 0.050114 0.000000
v 0.045633 0.058939 0.000000
v 0.042840 0.067474 0.000000
v 0.039539 0.075720 0.000000
v 0.035730 0.083677 0.000000
v 0.031414 0.091345 0.000000
v 0.026590 0.098724 0.000000
v 0.021258 0.105814 0.000000
v 0.015418 0.112614 0.000000
v 0.009070 0.119126 0.000000
v 0.002215 0.125349 0.000000
v -0.005149 0.131282 0.000000
v -0.013020 0.136927 0.000000
v -0.021219 0.142255 0.000000
v -0.029567 0.147239 0.000000
v -0.038063 0.151880 0.000000
v -0.046707 0.156177 0.000000
v -0.055500 0.160130 0.000000
v -0.064442 0.163739 0.000000
v -0.073531 0.167005 0.000000
v -0.082770 0.169927 0.000000
v -0.092156 0.172505 0.000000
v -0.101692 0.174739 0.000000
v -0.111375 0.176630 0.000000
v -0.121207 0.178177 0.000000
v -0.131188 0.179380 0.000000
v -0.141317 0.180239 0.000000
v -0.151594 0.180755 0.000000
f 68 72 71
f 68 67 66
f 66 65 64
f 64 63 62
f 62 61 60
f 60 59 58
f 58 57 56
f 56 55 54
f 54 53 52
f 52 51 50
f 50 49 48
f 48 47 46
f 46 45 44
f 44 43 42
f 42 41 40
f 40 39 38
f 38 37 36
f 36 35 34
f 34 33 32
f 32 31 30
f 30 29 28
f 28 27 26
f 26 25 24
f 24 23 22
f 22 21 20
f 20 19 18
f 18 17 16
f 16 15 14
f 14 13 12
f 12 11 10
f 10 9 8
f 8 7 6
f 6 5 4
f 4 3 2
f 2 1 69
f 69 68 71
f 72 68 66
f 66 64 62
f 62 60 58
f 58 56 54
f 54 52 50
f 50 48 46
f 46 44 42
f 42 40 38
f 38 36 34
f 34 32 30
f 30 28 26
f 26 24 22
f 22 20 18
f 18 16 14
f 14 12 10
f 10 8 6
f 6 4 2
f 2 69 71
f 73 72 66
f 66 62 58
f 58 54 50
f 50 46 42
f 42 38 34
f 34 30 26
f 26 22 18
f 18 14 10
f 10 6 2
f 2 71 70
f 74 73 66
f 66 58 50
f 50 42 34
f 34 26 18
f 18 10 2
f 2 70 136
f 75 74 66
f 50 34 18
f 18 2 136
f 76 75 66
f 18 136 135
f 77 76 66
f 18 135 134
f 78 77 66
f 18 134 133
f 79 78 66
f 18 133 132
f 80 79 66
f 18 132 131
f 81 80 66
f 18 131 130
f 82 81 66
f 18 130 129
f 83 82 66
f 18 129 128
f 84 83 66
f 18 128 127
f 84 66 50
f 18 127 126
f 85 84 50
f 18 126 125
f 86 85 50
f 18 125 124
f 87 86 50
f 18 124 123
f 88 87 50
f 18 123 122
f 89 88 50
f 18 122 121
f 90 89 50
f 18 121 120
f 91 90 50
f 18 120 119
f 92 91 50
f 18 119 118
f 93 92 50
f 18 118 117
f 94 93 50
f 18 117 116
f 95 94 50
f 18 116 115
f 96 95 50
f 18 115 114
f 97 96 50
f 18 114 113
f 98 97 50
f 18 113 112
f 99 98 50
f 18 112 111
f 100 99 50
f 18 111 110
f 101 100 50
f 18 110 109
f 102 101 50
f 18 109 108
f 103 102 50
f 50 18 108
f 104 103 50
f 50 108 107
f 105 104 50
f 50 107 106
f 106 105 50