# Generated mesh
# vertices: 310, faces: 310

v 0.425846 -0.442462 0.000000
v 0.358846 -0.526462 0.000000
v 0.215846 -0.412462 0.000000
v 0.208690 -0.416509 0.000000
v 0.201471 -0.420400 0.000000
v 0.194190 -0.424134 0.000000
v 0.186846 -0.427712 0.000000
v 0.179440 -0.431134 0.000000
v 0.171971 -0.434400 0.000000
v 0.164440 -0.437509 0.000000
v 0.156846 -0.440462 0.000000
v 0.149190 -0.443259 0.000000
v 0.141471 -0.445900 0.000000
v 0.133690 -0.448384 0.000000
v 0.125846 -0.450712 0.000000
v 0.117940 -0.452884 0.000000
v 0.109971 -0.454900 0.000000
v 0.101940 -0.456759 0.000000
v 0.093846 -0.458462 0.000000
v 0.085569 -0.460279 0.000000
v 0.077237 -0.461978 0.000000
v 0.068850 -0.463560 0.000000
v 0.060409 -0.465025 0.000000
v 0.051913 -0.466373 0.000000
v 0.043362 -0.467603 0.000000
v 0.034756 -0.468716 0.000000
v 0.026096 -0.469712 0.000000
v 0.017381 -0.470591 0.000000
v 0.008612 -0.471353 0.000000
v -0.000212 -0.471998 0.000000
v -0.009091 -0.472525 0.000000
v -0.018025 -0.472935 0.000000
v -0.027013 -0.473228 0.000000
v -0.036056 -0.473404 0.000000
v -0.045154 -0.473462 0.000000
v -0.072443 -0.472853 0.000000
v -0.099060 -0.471025 0.000000
v -0.125005 -0.467978 0.000000
v -0.150279 -0.463712 0.000000
v -0.174880 -0.458228 0.000000
v -0.198810 -0.451525 0.000000
v -0.222068 -0.443603 0.000000
v -0.244654 -0.434462 0.000000
v -0.266568 -0.424103 0.000000
v -0.287810 -0.412525 0.000000
v -0.308380 -0.399728 0.000000
v -0.328279 -0.385712 0.000000
v -0.347505 -0.370478 0.000000
v -0.366060 -0.354025 0.000000
v -0.383943 -0.336353 0.000000
v -0.401154 -0.317462 0.000000
v -0.416533 -0.298541 0.000000
v -0.430919 -0.279025 0.000000
v -0.444314 -0.258916 0.000000
v -0.456716 -0.238212 0.000000
v -0.468126 -0.216916 0.000000
v -0.478544 -0.195025 0.000000
v -0.487970 -0.172541 0.000000
v -0.496404 -0.149462 0.000000
v -0.503845 -0.125791 0.000000
v -0.510294 -0.101525 0.000000
v -0.515751 -0.076666 0.000000
v -0.520216 -0.051212 0.000000
v -0.523689 -0.025166 0.000000
v -0.526169 0.001475 0.000000
v -0.527658 0.028709 0.000000
v -0.528154 0.056538 0.000000
v -0.527658 0.084256 0.000000
v -0.526169 0.111413 0.000000
v -0.523689 0.138006 0.000000
v -0.520216 0.164038 0.000000
v -0.515751 0.189506 0.000000
v -0.510294 0.214413 0.000000
v -0.503845 0.238756 0.000000
v -0.496404 0.262538 0.000000
v -0.487970 0.285756 0.000000
v -0.478544 0.308413 0.000000
v -0.468126 0.330506 0.000000
v -0.456716 0.352038 0.000000
v -0.444314 0.373006 0.000000
v -0.430919 0.393413 0.000000
v -0.416533 0.413256 0.000000
v -0.401154 0.432538 0.000000
v -0.383939 0.452034 0.000000
v -0.366044 0.470272 0.000000
v -0.347470 0.487252 0.000000
v -0.328216 0.502975 0.000000
v -0.308283 0.517440 0.000000
v -0.287669 0.530647 0.000000
v -0.266376 0.542596 0.000000
v -0.244404 0.553288 0.000000
v -0.221751 0.562721 0.000000
v -0.198419 0.570897 0.000000
v -0.174408 0.577815 0.000000
v -0.149716 0.583475 0.000000
v -0.124345 0.587877 0.000000
v -0.098294 0.591022 0.000000
v -0.071564 0.592909 0.000000
v -0.044154 0.593538 0.000000
v -0.016509 0.592924 0.000000
v 0.010424 0.591085 0.000000
v 0.036647 0.588018 0.000000
v 0.062159 0.583725 0.000000
v 0.086960 0.578206 0.000000
v 0.111049 0.571459 0.000000
v 0.134428 0.563487 0.000000
v 0.157096 0.554288 0.000000
v 0.179053 0.543862 0.000000
v 0.200299 0.532209 0.000000
v 0.220835 0.519331 0.000000
v 0.240659 0.505225 0.000000
v 0.259772 0.489893 0.000000
v 0.278174 0.473334 0.000000
v 0.295866 0.455549 0.000000
v 0.312846 0.436538 0.000000
v 0.328225 0.417604 0.000000
v 0.342612 0.398053 0.000000
v 0.356006 0.377885 0.000000
v 0.368409 0.357100 0.000000
v 0.379819 0.335698 0.000000
v 0.390237 0.313678 0.000000
v 0.399663 0.291042 0.000000
v 0.408096 0.267788 0.000000
v 0.415538 0.243916 0.000000
v 0.421987 0.219428 0.000000
v 0.427444 0.194323 0.000000
v 0.431909 0.168600 0.000000
v 0.435381 0.142260 0.000000
v 0.437862 0.115303 0.000000
v 0.439350 0.087729 0.000000
v 0.439846 0.059538 0.000000
v 0.439710 0.045928 0.000000
v 0.439299 0.032350 0.000000
v 0.438616 0.018803 0.000000
v 0.437659 0.005288 0.000000
v 0.436428 -0.008197 0.000000
v 0.434924 -0.021650 0.000000
v 0.433147 -0.035072 0.000000
v 0.431096 -0.048462 0.000000
v 0.428772 -0.061822 0.000000
v 0.426174 -0.075150 0.000000
v 0.423303 -0.088447 0.000000
v 0.420159 -0.101712 0.000000
v 0.416741 -0.114947 0.000000
v 0.413049 -0.128150 0.000000
v 0.409085 -0.141322 0.000000
v 0.404846 -0.154462 0.000000
v 0.400467 -0.167505 0.000000
v 0.395831 -0.180384 0.000000
v 0.390936 -0.193099 0.000000
v 0.385784 -0.205650 0.000000
v 0.380374 -0.218037 0.000000
v 0.374706 -0.230259 0.000000
v 0.368780 -0.242318 0.000000
v 0.362596 -0.254212 0.000000
v 0.356155 -0.265943 0.000000
v 0.349456 -0.277509 0.000000
v 0.342499 -0.288912 0.000000
v 0.335284 -0.300150 0.000000
v 0.327811 -0.311224 0.000000
v 0.320081 -0.322134 0.000000
v 0.312092 -0.332880 0.000000
v 0.303846 -0.343462 0.000000
v 0.194846 -0.256462 0.000000
v 0.201483 -0.249240 0.000000
v 0.207893 -0.241822 0.000000
v 0.214077 -0.234208 0.000000
v 0.220034 -0.226400 0.000000
v 0.225764 -0.218396 0.000000
v 0.231268 -0.210197 0.000000
v 0.236545 -0.201802 0.000000
v 0.241596 -0.193212 0.000000
v 0.246420 -0.184427 0.000000
v 0.251018 -0.175447 0.000000
v 0.255389 -0.166271 0.000000
v 0.259534 -0.156900 0.000000
v 0.263452 -0.147333 0.000000
v 0.267143 -0.137572 0.000000
v 0.270608 -0.127615 0.000000
v 0.273846 -0.117462 0.000000
v 0.276995 -0.107193 0.000000
v 0.279940 -0.096884 0.000000
v 0.282682 -0.086537 0.000000
v 0.285221 -0.076150 0.000000
v 0.287557 -0.065724 0.000000
v 0.289690 -0.055259 0.000000
v 0.291620 -0.044755 0.000000
v 0.293346 -0.034212 0.000000
v 0.294870 -0.023630 0.000000
v 0.296190 -0.013009 0.000000
v 0.297307 -0.002349 0.000000
v 0.298221 0.008350 0.000000
v 0.298932 0.019088 0.000000
v 0.299440 0.029866 0.000000
v 0.299745 0.040682 0.000000
v 0.299846 0.051538 0.000000
v 0.299518 0.073065 0.000000
v 0.298534 0.094147 0.000000
v 0.296893 0.114784 0.000000
v 0.294596 0.134975 0.000000
v 0.291643 0.154721 0.000000
v 0.288034 0.174022 0.000000
v 0.283768 0.192877 0.000000
v 0.278846 0.211288 0.000000
v 0.273268 0.229252 0.000000
v 0.267034 0.246772 0.000000
v 0.260143 0.263846 0.000000
v 0.252596 0.280475 0.000000
v 0.244393 0.296659 0.000000
v 0.235534 0.312397 0.000000
v 0.226018 0.327690 0.000000
v 0.215846 0.342538 0.000000
v 0.203811 0.358522 0.000000
v 0.191206 0.373475 0.000000
v 0.178030 0.387397 0.000000
v 0.164284 0.400288 0.000000
v 0.149967 0.412147 0.000000
v 0.135081 0.422975 0.000000
v 0.119624 0.432772 0.000000
v 0.103596 0.441538 0.000000
v 0.086999 0.449272 0.000000
v 0.069831 0.455975 0.000000
v 0.052092 0.461647 0.000000
v 0.033784 0.466288 0.000000
v 0.014905 0.469897 0.000000
v -0.004544 0.472475 0.000000
v -0.024564 0.474022 0.000000
v -0.045154 0.474538 0.000000
v -0.065017 0.474026 0.000000
v -0.084357 0.472491 0.000000
v -0.103173 0.469932 0.000000
v -0.121466 0.466350 0.000000
v -0.139236 0.461745 0.000000
v -0.156482 0.456116 0.000000
v -0.173205 0.449463 0.000000
v -0.189404 0.441788 0.000000
v -0.205080 0.433088 0.000000
v -0.220232 0.423366 0.000000
v -0.234861 0.412620 0.000000
v -0.248966 0.400850 0.000000
v -0.262548 0.388057 0.000000
v -0.275607 0.374241 0.000000
v -0.288142 0.359401 0.000000
v -0.300154 0.343538 0.000000
v -0.310568 0.328592 0.000000
v -0.320310 0.313256 0.000000
v -0.329380 0.297530 0.000000
v -0.337779 0.281413 0.000000
v -0.345505 0.264905 0.000000
v -0.352560 0.248006 0.000000
v -0.358943 0.230717 0.000000
v -0.364654 0.213038 0.000000
v -0.369693 0.194967 0.000000
v -0.374060 0.176506 0.000000
v -0.377755 0.157655 0.000000
v -0.380779 0.138413 0.000000
v -0.383130 0.118780 0.000000
v -0.384810 0.098756 0.000000
v -0.385818 0.078342 0.000000
v -0.386154 0.057538 0.000000
v -0.385822 0.036741 0.000000
v -0.384826 0.016350 0.000000
v -0.383165 -0.003634 0.000000
v -0.380841 -0.023212 0.000000
v -0.377853 -0.042384 0.000000
v -0.374201 -0.061150 0.000000
v -0.369884 -0.079509 0.000000
v -0.364904 -0.097462 0.000000
v -0.359259 -0.115009 0.000000
v -0.352951 -0.132150 0.000000
v -0.345978 -0.148884 0.000000
v -0.338341 -0.165212 0.000000
v -0.330040 -0.181134 0.000000
v -0.321076 -0.196650 0.000000
v -0.311447 -0.211759 0.000000
v -0.301154 -0.226462 0.000000
v -0.288888 -0.242205 0.000000
v -0.276091 -0.256931 0.000000
v -0.262763 -0.270642 0.000000
v -0.248904 -0.283337 0.000000
v -0.234513 -0.295017 0.000000
v -0.219591 -0.305681 0.000000
v -0.204138 -0.315330 0.000000
v -0.188154 -0.323962 0.000000
v -0.171638 -0.331580 0.000000
v -0.154591 -0.338181 0.000000
v -0.137013 -0.343767 0.000000
v -0.118904 -0.348337 0.000000
v -0.100263 -0.351892 0.000000
v -0.081091 -0.354431 0.000000
v -0.061388 -0.355955 0.000000
v -0.041154 -0.356462 0.000000
v -0.031330 -0.356337 0.000000
v -0.021607 -0.355962 0.000000
v -0.011986 -0.355337 0.000000
v -0.002466 -0.354462 0.000000
v 0.006952 -0.353337 0.000000
v 0.016268 -0.351962 0.000000
v 0.025483 -0.350337 0.000000
v 0.034596 -0.348462 0.000000
v 0.043608 -0.346337 0.000000
v 0.052518 -0.343962 0.000000
v 0.061327 -0.341337 0.000000
v 0.070034 -0.338462 0.000000
v 0.078639 -0.335337 0.000000
v 0.087143 -0.331962 0.000000
v 0.095546 -0.328337 0.000000
v 0.103846 -0.324462 0.000000
v -0.008154 -0.232462 0.000000
v 0.058846 -0.146462 0.000000
f 67 260 259
f 164 310 309
f 261 260 67
f 67 66 65
f 65 64 63
f 63 62 61
f 61 60 59
f 59 58 57
f 57 56 55
f 55 54 53
f 53 52 51
f 51 50 49
f 49 48 47
f 47 46 45
f 45 44 43
f 43 42 41
f 41 40 39
f 39 38 37
f 37 36 35
f 35 34 33
f 33 32 31
f 31 30 29
f 29 28 27
f 27 26 25
f 25 24 23
f 23 22 21
f 21 20 19
f 19 18 17
f 17 16 15
f 15 14 13
f 13 12 11
f 11 10 9
f 9 8 7
f 7 6 5
f 5 4 3
f 3 2 1
f 163 162 161
f 161 160 159
f 159 158 157
f 157 156 155
f 155 154 153
f 153 152 151
f 151 150 149
f 149 148 147
f 147 146 145
f 145 144 143
f 143 142 141
f 141 140 139
f 139 138 137
f 137 136 135
f 135 134 133
f 133 132 131
f 131 130 129
f 129 128 127
f 127 126 125
f 125 124 123
f 123 122 121
f 121 120 119
f 119 118 117
f 117 116 115
f 115 114 113
f 113 112 111
f 111 110 109
f 109 108 107
f 107 106 105
f 105 104 103
f 103 102 101
f 101 100 99
f 99 98 97
f 97 96 95
f 95 94 93
f 93 92 91
f 91 90 89
f 89 88 87
f 87 86 85
f 85 84 83
f 83 82 81
f 81 80 79
f 79 78 77
f 77 76 75
f 75 74 73
f 73 72 71
f 71 70 69
f 69 68 67
f 67 259 258
f 164 309 308
f 262 261 67
f 67 65 63
f 63 61 59
f 59 57 55
f 55 53 51
f 51 49 47
f 47 45 43
f 43 41 39
f 39 37 35
f 35 33 31
f 31 29 27
f 27 25 23
f 23 21 19
f 19 17 15
f 15 13 11
f 11 9 7
f 7 5 3
f 3 1 163
f 163 161 159
f 159 157 155
f 155 153 151
f 151 149 147
f 147 145 143
f 143 141 139
f 139 137 135
f 135 133 131
f 131 129 127
f 127 125 123
f 123 121 119
f 119 117 115
f 115 113 111
f 111 109 107
f 107 105 103
f 103 101 99
f 99 97 95
f 95 93 91
f 91 89 87
f 87 85 83
f 83 81 79
f 79 77 75
f 75 73 71
f 71 69 67
f 67 258 257
f 263 262 67
f 67 63 59
f 59 55 51
f 51 47 43
f 43 39 35
f 35 31 27
f 27 23 19
f 19 15 11
f 11 7 3
f 3 163 159
f 159 155 151
f 151 147 143
f 143 139 135
f 135 131 127
f 127 123 119
f 119 115 111
f 111 107 103
f 103 99 95
f 95 91 87
f 87 83 79
f 79 75 71
f 71 67 257
f 264 263 67
f 67 59 51
f 51 43 35
f 35 27 19
f 19 11 3
f 3 159 151
f 151 143 135
f 135 127 119
f 119 111 103
f 103 95 87
f 87 79 71
f 71 257 256
f 265 264 67
f 51 35 19
f 19 3 151
f 151 135 119
f 87 71 256
f 266 265 67
f 87 256 255
f 267 266 67
f 87 255 254
f 268 267 67
f 87 254 253
f 269 268 67
f 87 253 252
f 270 269 67
f 87 252 251
f 271 270 67
f 87 251 250
f 272 271 67
f 87 250 249
f 273 272 67
f 87 249 248
f 274 273 67
f 87 248 247
f 275 274 67
f 87 247 246
f 276 275 67
f 87 246 245
f 277 276 67
f 87 245 244
f 277 67 51
f 87 244 243
f 278 277 51
f 87 243 242
f 279 278 51
f 87 242 241
f 280 279 51
f 87 241 240
f 281 280 51
f 87 240 239
f 282 281 51
f 87 239 238
f 283 282 51
f 87 238 237
f 284 283 51
f 103 87 237
f 285 284 51
f 103 237 236
f 286 285 51
f 103 236 235
f 287 286 51
f 103 235 234
f 288 287 51
f 103 234 233
f 289 288 51
f 103 233 232
f 290 289 51
f 103 232 231
f 290 51 19
f 103 231 230
f 291 290 19
f 103 230 229
f 292 291 19
f 103 229 228
f 293 292 19
f 103 228 227
f 294 293 19
f 103 227 226
f 295 294 19
f 103 226 225
f 296 295 19
f 103 225 224
f 297 296 19
f 103 224 223
f 298 297 19
f 103 223 222
f 299 298 19
f 119 103 222
f 300 299 19
f 119 222 221
f 301 300 19
f 119 221 220
f 302 301 19
f 119 220 219
f 303 302 19
f 119 219 218
f 304 303 19
f 119 218 217
f 305 304 19
f 119 217 216
f 306 305 19
f 119 216 215
f 307 306 19
f 119 215 214
f 308 307 19
f 119 214 213
f 164 308 19
f 119 213 212
f 165 164 19
f 119 212 211
f 166 165 19
f 119 211 210
f 167 166 19
f 119 210 209
f 168 167 19
f 119 209 208
f 169 168 19
f 119 208 207
f 170 169 19
f 119 207 206
f 171 170 19
f 119 206 205
f 172 171 19
f 119 205 204
f 172 19 151
f 119 204 203
f 173 172 151
f 151 119 203
f 174 173 151
f 151 203 202
f 175 174 151
f 151 202 201
f 176 175 151
f 151 201 200
f 177 176 151
f 151 200 199
f 178 177 151
f 151 199 198
f 179 178 151
f 151 198 197
f 180 179 151
f 151 197 196
f 181 180 151
f 151 196 195
f 182 181 151
f 151 195 194
f 183 182 151
f 151 194 193
f 184 183 151
f 151 193 192
f 185 184 151
f 151 192 191
f 186 185 151
f 151 191 190
f 187 186 151
f 151 190 189
f 188 187 151
f 151 189 188