# Generated mesh
# vertices: 2976, faces: 0

v -0.252500 0.389500 -25.029999
v -0.252500 0.044500 -25.029999
v -0.390500 -0.506500 -25.029999
v -0.252500 -0.073500 -25.029999
v -0.252500 -0.506500 -25.029999
v -0.390500 -0.506500 -25.029999
v 0.207000 -0.420000 -25.029999
v 0.199875 -0.350875 -25.029999
v 0.196500 -0.264500 -25.029999
v 0.232500 -0.506500 -25.029999
v 0.217875 -0.471875 -25.029999
v 0.207000 -0.420000 -25.029999
v 0.390500 -0.480500 -25.029999
v 0.390500 -0.506500 -25.029999
v 0.232500 -0.506500 -25.029999
v 0.332250 -0.186250 -25.029999
v 0.335187 -0.234938 -25.029999
v 0.338500 -0.299500 -25.029999
v 0.327500 -0.136500 -25.029999
v 0.329687 -0.153437 -25.029999
v 0.332250 -0.186250 -25.029999
v 0.289000 -0.051500 -25.029999
v 0.312375 -0.089250 -25.029999
v 0.327500 -0.136500 -25.029999
v 0.217500 -0.004500 -25.029999
v 0.257375 -0.023250 -25.029999
v 0.289000 -0.051500 -25.029999
v 0.276250 0.035250 -25.029999
v 0.248688 0.013438 -25.029999
v 0.217500 -0.004500 -25.029999
v 0.320500 0.090500 -25.029999
v 0.300187 0.060938 -25.029999
v 0.276250 0.035250 -25.029999
v 0.349000 0.155000 -25.029999
v 0.337125 0.122125 -25.029999
v 0.320500 0.090500 -25.029999
v 0.358500 0.224500 -25.029999
v 0.356125 0.189125 -25.029999
v 0.349000 0.155000 -25.029999
v 0.330250 0.346750 -25.029999
v 0.351438 0.289312 -25.029999
v 0.358500 0.224500 -25.029999
v 0.245500 0.439500 -25.029999
v 0.294937 0.396812 -25.029999
v 0.330250 0.346750 -25.029999
v 0.137000 0.489750 -25.029999
v 0.194125 0.468812 -25.029999
v 0.245500 0.439500 -25.029999
v 0.005500 0.506500 -25.029999
v 0.074125 0.502313 -25.029999
v 0.137000 0.489750 -25.029999
v -0.252500 0.389500 -25.029999
v -0.390500 -0.506500 -25.029999
v -0.390500 0.506500 -25.029999
v -0.252500 -0.073500 -25.029999
v -0.390500 -0.506500 -25.029999
v -0.252500 0.044500 -25.029999
v 0.232500 -0.506500 -25.029999
v 0.207000 -0.420000 -25.029999
v 0.196500 -0.264500 -25.029999
v 0.370375 -0.455687 -25.029999
v 0.390500 -0.480500 -25.029999
v 0.232500 -0.506500 -25.029999
v 0.327500 -0.136500 -25.029999
v 0.332250 -0.186250 -25.029999
v 0.338500 -0.299500 -25.029999
v 0.217500 -0.004500 -25.029999
v 0.289000 -0.051500 -25.029999
v 0.327500 -0.136500 -25.029999
v 0.320500 0.090500 -25.029999
v 0.276250 0.035250 -25.029999
v 0.217500 -0.004500 -25.029999
v 0.358500 0.224500 -25.029999
v 0.349000 0.155000 -25.029999
v 0.320500 0.090500 -25.029999
v 0.245500 0.439500 -25.029999
v 0.330250 0.346750 -25.029999
v 0.358500 0.224500 -25.029999
v 0.005500 0.506500 -25.029999
v 0.137000 0.489750 -25.029999
v 0.245500 0.439500 -25.029999
v -0.252500 0.389500 -25.029999
v -0.390500 0.506500 -25.029999
v 0.005500 0.506500 -25.029999
v -0.252500 -0.073500 -25.029999
v -0.252500 0.044500 -25.029999
v -0.017500 0.044500 -25.029999
v 0.232500 -0.506500 -25.029999
v 0.196500 -0.264500 -25.029999
v 0.184500 -0.180937 -25.029999
v 0.355000 -0.417250 -25.029999
v 0.370375 -0.455687 -25.029999
v 0.232500 -0.506500 -25.029999
v 0.217500 -0.004500 -25.029999
v 0.327500 -0.136500 -25.029999
v 0.338500 -0.299500 -25.029999
v 0.358500 0.224500 -25.029999
v 0.320500 0.090500 -25.029999
v 0.217500 -0.004500 -25.029999
v 0.005500 0.506500 -25.029999
v 0.245500 0.439500 -25.029999
v 0.358500 0.224500 -25.029999
v -0.017500 0.389500 -25.029999
v -0.252500 0.389500 -25.029999
v 0.005500 0.506500 -25.029999
v -0.252500 -0.073500 -25.029999
v -0.017500 0.044500 -25.029999
v 0.027000 0.047188 -25.029999
v 0.355000 -0.417250 -25.029999
v 0.232500 -0.506500 -25.029999
v 0.184500 -0.180937 -25.029999
v 0.217500 -0.004500 -25.029999
v 0.338500 -0.299500 -25.029999
v 0.344375 -0.365187 -25.029999
v 0.026937 0.387187 -25.029999
v -0.017500 0.389500 -25.029999
v 0.005500 0.506500 -25.029999
v -0.252500 -0.073500 -25.029999
v 0.027000 0.047188 -25.029999
v 0.068500 0.055250 -25.029999
v 0.355000 -0.417250 -25.029999
v 0.184500 -0.180937 -25.029999
v 0.150500 -0.121250 -25.029999
v 0.217500 -0.004500 -25.029999
v 0.344375 -0.365187 -25.029999
v 0.355000 -0.417250 -25.029999
v 0.068250 0.380250 -25.029999
v 0.026937 0.387187 -25.029999
v 0.005500 0.506500 -25.029999
v -0.252500 -0.073500 -25.029999
v 0.068500 0.055250 -25.029999
v 0.107000 0.068688 -25.029999
v 0.217500 -0.004500 -25.029999
v 0.355000 -0.417250 -25.029999
v 0.150500 -0.121250 -25.029999
v 0.106438 0.368688 -25.029999
v 0.068250 0.380250 -25.029999
v 0.005500 0.506500 -25.029999
v 0.016500 -0.073500 -25.029999
v -0.252500 -0.073500 -25.029999
v 0.107000 0.068688 -25.029999
v 0.217500 -0.004500 -25.029999
v 0.150500 -0.121250 -25.029999
v 0.094500 -0.085437 -25.029999
v 0.141500 0.352500 -25.029999
v 0.106438 0.368688 -25.029999
v 0.005500 0.506500 -25.029999
v 0.016500 -0.073500 -25.029999
v 0.107000 0.068688 -25.029999
v 0.142500 0.087500 -25.029999
v 0.217500 -0.004500 -25.029999
v 0.094500 -0.085437 -25.029999
v 0.016500 -0.073500 -25.029999
v 0.141500 0.352500 -25.029999
v 0.005500 0.506500 -25.029999
v 0.358500 0.224500 -25.029999
v 0.016500 -0.073500 -25.029999
v 0.142500 0.087500 -25.029999
v 0.177938 0.115187 -25.029999
v 0.358500 0.224500 -25.029999
v 0.217500 -0.004500 -25.029999
v 0.016500 -0.073500 -25.029999
v 0.177375 0.328000 -25.029999
v 0.141500 0.352500 -25.029999
v 0.358500 0.224500 -25.029999
v 0.358500 0.224500 -25.029999
v 0.016500 -0.073500 -25.029999
v 0.177938 0.115187 -25.029999
v 0.203000 0.298500 -25.029999
v 0.177375 0.328000 -25.029999
v 0.358500 0.224500 -25.029999
v 0.358500 0.224500 -25.029999
v 0.177938 0.115187 -25.029999
v 0.203250 0.147250 -25.029999
v 0.218375 0.264000 -25.029999
v 0.203000 0.298500 -25.029999
v 0.358500 0.224500 -25.029999
v 0.358500 0.224500 -25.029999
v 0.203250 0.147250 -25.029999
v 0.218438 0.183688 -25.029999
v 0.223500 0.224500 -25.029999
v 0.218375 0.264000 -25.029999
v 0.358500 0.224500 -25.029999
v 0.358500 0.224500 -25.029999
v 0.218438 0.183688 -25.029999
v 0.223500 0.224500 -25.029999
v -0.390500 -0.506500 25.029999
v -0.252500 0.044500 25.029999
v -0.252500 0.389500 25.029999
v -0.390500 -0.506500 25.029999
v -0.252500 -0.506500 25.029999
v -0.252500 -0.073500 25.029999
v 0.196500 -0.264500 25.029999
v 0.199875 -0.350875 25.029999
v 0.207000 -0.420000 25.029999
v 0.207000 -0.420000 25.029999
v 0.217875 -0.471875 25.029999
v 0.232500 -0.506500 25.029999
v 0.232500 -0.506500 25.029999
v 0.390500 -0.506500 25.029999
v 0.390500 -0.480500 25.029999
v 0.338500 -0.299500 25.029999
v 0.335187 -0.234938 25.029999
v 0.332250 -0.186250 25.029999
v 0.332250 -0.186250 25.029999
v 0.329687 -0.153437 25.029999
v 0.327500 -0.136500 25.029999
v 0.327500 -0.136500 25.029999
v 0.312375 -0.089250 25.029999
v 0.289000 -0.051500 25.029999
v 0.289000 -0.051500 25.029999
v 0.257375 -0.023250 25.029999
v 0.217500 -0.004500 25.029999
v 0.217500 -0.004500 25.029999
v 0.248688 0.013438 25.029999
v 0.276250 0.035250 25.029999
v 0.276250 0.035250 25.029999
v 0.300187 0.060938 25.029999
v 0.320500 0.090500 25.029999
v 0.320500 0.090500 25.029999
v 0.337125 0.122125 25.029999
v 0.349000 0.155000 25.029999
v 0.349000 0.155000 25.029999
v 0.356125 0.189125 25.029999
v 0.358500 0.224500 25.029999
v 0.358500 0.224500 25.029999
v 0.351438 0.289312 25.029999
v 0.330250 0.346750 25.029999
v 0.330250 0.346750 25.029999
v 0.294937 0.396812 25.029999
v 0.245500 0.439500 25.029999
v 0.245500 0.439500 25.029999
v 0.194125 0.468812 25.029999
v 0.137000 0.489750 25.029999
v 0.137000 0.489750 25.029999
v 0.074125 0.502313 25.029999
v 0.005500 0.506500 25.029999
v -0.390500 0.506500 25.029999
v -0.390500 -0.506500 25.029999
v -0.252500 0.389500 25.029999
v -0.252500 0.044500 25.029999
v -0.390500 -0.506500 25.029999
v -0.252500 -0.073500 25.029999
v 0.196500 -0.264500 25.029999
v 0.207000 -0.420000 25.029999
v 0.232500 -0.506500 25.029999
v 0.232500 -0.506500 25.029999
v 0.390500 -0.480500 25.029999
v 0.370375 -0.455687 25.029999
v 0.338500 -0.299500 25.029999
v 0.332250 -0.186250 25.029999
v 0.327500 -0.136500 25.029999
v 0.327500 -0.136500 25.029999
v 0.289000 -0.051500 25.029999
v 0.217500 -0.004500 25.029999
v 0.217500 -0.004500 25.029999
v 0.276250 0.035250 25.029999
v 0.320500 0.090500 25.029999
v 0.320500 0.090500 25.029999
v 0.349000 0.155000 25.029999
v 0.358500 0.224500 25.029999
v 0.358500 0.224500 25.029999
v 0.330250 0.346750 25.029999
v 0.245500 0.439500 25.029999
v 0.245500 0.439500 25.029999
v 0.137000 0.489750 25.029999
v 0.005500 0.506500 25.029999
v 0.005500 0.506500 25.029999
v -0.390500 0.506500 25.029999
v -0.252500 0.389500 25.029999
v -0.017500 0.044500 25.029999
v -0.252500 0.044500 25.029999
v -0.252500 -0.073500 25.029999
v 0.184500 -0.180937 25.029999
v 0.196500 -0.264500 25.029999
v 0.232500 -0.506500 25.029999
v 0.232500 -0.506500 25.029999
v 0.370375 -0.455687 25.029999
v 0.355000 -0.417250 25.029999
v 0.338500 -0.299500 25.029999
v 0.327500 -0.136500 25.029999
v 0.217500 -0.004500 25.029999
v 0.217500 -0.004500 25.029999
v 0.320500 0.090500 25.029999
v 0.358500 0.224500 25.029999
v 0.358500 0.224500 25.029999
v 0.245500 0.439500 25.029999
v 0.005500 0.506500 25.029999
v 0.005500 0.506500 25.029999
v -0.252500 0.389500 25.029999
v -0.017500 0.389500 25.029999
v 0.027000 0.047188 25.029999
v -0.017500 0.044500 25.029999
v -0.252500 -0.073500 25.029999
v 0.184500 -0.180937 25.029999
v 0.232500 -0.506500 25.029999
v 0.355000 -0.417250 25.029999
v 0.344375 -0.365187 25.029999
v 0.338500 -0.299500 25.029999
v 0.217500 -0.004500 25.029999
v 0.005500 0.506500 25.029999
v -0.017500 0.389500 25.029999
v 0.026937 0.387187 25.029999
v 0.068500 0.055250 25.029999
v 0.027000 0.047188 25.029999
v -0.252500 -0.073500 25.029999
v 0.150500 -0.121250 25.029999
v 0.184500 -0.180937 25.029999
v 0.355000 -0.417250 25.029999
v 0.355000 -0.417250 25.029999
v 0.344375 -0.365187 25.029999
v 0.217500 -0.004500 25.029999
v 0.005500 0.506500 25.029999
v 0.026937 0.387187 25.029999
v 0.068250 0.380250 25.029999
v 0.107000 0.068688 25.029999
v 0.068500 0.055250 25.029999
v -0.252500 -0.073500 25.029999
v 0.150500 -0.121250 25.029999
v 0.355000 -0.417250 25.029999
v 0.217500 -0.004500 25.029999
v 0.005500 0.506500 25.029999
v 0.068250 0.380250 25.029999
v 0.106438 0.368688 25.029999
v 0.107000 0.068688 25.029999
v -0.252500 -0.073500 25.029999
v 0.016500 -0.073500 25.029999
v 0.094500 -0.085437 25.029999
v 0.150500 -0.121250 25.029999
v 0.217500 -0.004500 25.029999
v 0.005500 0.506500 25.029999
v 0.106438 0.368688 25.029999
v 0.141500 0.352500 25.029999
v 0.142500 0.087500 25.029999
v 0.107000 0.068688 25.029999
v 0.016500 -0.073500 25.029999
v 0.016500 -0.073500 25.029999
v 0.094500 -0.085437 25.029999
v 0.217500 -0.004500 25.029999
v 0.358500 0.224500 25.029999
v 0.005500 0.506500 25.029999
v 0.141500 0.352500 25.029999
v 0.177938 0.115187 25.029999
v 0.142500 0.087500 25.029999
v 0.016500 -0.073500 25.029999
v 0.016500 -0.073500 25.029999
v 0.217500 -0.004500 25.029999
v 0.358500 0.224500 25.029999
v 0.358500 0.224500 25.029999
v 0.141500 0.352500 25.029999
v 0.177375 0.328000 25.029999
v 0.177938 0.115187 25.029999
v 0.016500 -0.073500 25.029999
v 0.358500 0.224500 25.029999
v 0.358500 0.224500 25.029999
v 0.177375 0.328000 25.029999
v 0.203000 0.298500 25.029999
v 0.203250 0.147250 25.029999
v 0.177938 0.115187 25.029999
v 0.358500 0.224500 25.029999
v 0.358500 0.224500 25.029999
v 0.203000 0.298500 25.029999
v 0.218375 0.264000 25.029999
v 0.218438 0.183688 25.029999
v 0.203250 0.147250 25.029999
v 0.358500 0.224500 25.029999
v 0.358500 0.224500 25.029999
v 0.218375 0.264000 25.029999
v 0.223500 0.224500 25.029999
v 0.223500 0.224500 25.029999
v 0.218438 0.183688 25.029999
v 0.358500 0.224500 25.029999
v 0.390500 -0.506500 -25.029999
v 0.390500 -0.480500 -25.029999
v 0.400500 -0.516500 -25.025980
v 0.390500 -0.480500 -25.029999
v 0.400500 -0.476954 -25.025980
v 0.400500 -0.516500 -25.025980
v 0.400500 -0.516500 -25.025980
v 0.400500 -0.476954 -25.025980
v 0.407821 -0.523821 -25.014999
v 0.400500 -0.476954 -25.025980
v 0.407821 -0.474359 -25.014999
v 0.407821 -0.523821 -25.014999
v 0.407821 -0.523821 -25.014999
v 0.407821 -0.474359 -25.014999
v 0.410500 -0.526500 -25.000000
v 0.407821 -0.474359 -25.014999
v 0.410500 -0.473409 -25.000000
v 0.410500 -0.526500 -25.000000
v 0.410500 -0.526500 -25.000000
v 0.410500 -0.473409 -25.000000
v 0.410500 -0.526500 25.000000
v 0.410500 -0.473409 -25.000000
v 0.410500 -0.473409 25.000000
v 0.410500 -0.526500 25.000000
v 0.410500 -0.526500 25.000000
v 0.410500 -0.473409 25.000000
v 0.407821 -0.523821 25.014999
v 0.410500 -0.473409 25.000000
v 0.407821 -0.474359 25.014999
v 0.407821 -0.523821 25.014999
v 0.407821 -0.523821 25.014999
v 0.407821 -0.474359 25.014999
v 0.400500 -0.516500 25.025982
v 0.407821 -0.474359 25.014999
v 0.400500 -0.476954 25.025982
v 0.400500 -0.516500 25.025982
v 0.400500 -0.516500 25.025982
v 0.400500 -0.476954 25.025982
v 0.390500 -0.506500 25.029999
v 0.400500 -0.476954 25.025982
v 0.390500 -0.480500 25.029999
v 0.390500 -0.506500 25.029999
v 0.390500 -0.480500 -25.029999
v 0.370375 -0.455687 -25.029999
v 0.400500 -0.476954 -25.025980
v 0.370375 -0.455687 -25.029999
v 0.379097 -0.450566 -25.025980
v 0.400500 -0.476954 -25.025980
v 0.400500 -0.476954 -25.025980
v 0.379097 -0.450566 -25.025980
v 0.407821 -0.474359 -25.014999
v 0.379097 -0.450566 -25.025980
v 0.385481 -0.446816 -25.014999
v 0.407821 -0.474359 -25.014999
v 0.407821 -0.474359 -25.014999
v 0.385481 -0.446816 -25.014999
v 0.410500 -0.473409 -25.000000
v 0.385481 -0.446816 -25.014999
v 0.387818 -0.445444 -25.000000
v 0.410500 -0.473409 -25.000000
v 0.410500 -0.473409 -25.000000
v 0.387818 -0.445444 -25.000000
v 0.410500 -0.473409 25.000000
v 0.387818 -0.445444 -25.000000
v 0.387818 -0.445444 25.000000
v 0.410500 -0.473409 25.000000
v 0.410500 -0.473409 25.000000
v 0.387818 -0.445444 25.000000
v 0.407821 -0.474359 25.014999
v 0.387818 -0.445444 25.000000
v 0.385481 -0.446816 25.014999
v 0.407821 -0.474359 25.014999
v 0.407821 -0.474359 25.014999
v 0.385481 -0.446816 25.014999
v 0.400500 -0.476954 25.025982
v 0.385481 -0.446816 25.014999
v 0.379097 -0.450566 25.025982
v 0.400500 -0.476954 25.025982
v 0.400500 -0.476954 25.025982
v 0.379097 -0.450566 25.025982
v 0.390500 -0.480500 25.029999
v 0.379097 -0.450566 25.025982
v 0.370375 -0.455687 25.029999
v 0.390500 -0.480500 25.029999
v 0.370375 -0.455687 -25.029999
v 0.355000 -0.417250 -25.029999
v 0.379097 -0.450566 -25.025980
v 0.355000 -0.417250 -25.029999
v 0.364618 -0.414370 -25.025980
v 0.379097 -0.450566 -25.025980
v 0.379097 -0.450566 -25.025980
v 0.364618 -0.414370 -25.025980
v 0.385481 -0.446816 -25.014999
v 0.364618 -0.414370 -25.025980
v 0.371660 -0.412262 -25.014999
v 0.385481 -0.446816 -25.014999
v 0.385481 -0.446816 -25.014999
v 0.371660 -0.412262 -25.014999
v 0.387818 -0.445444 -25.000000
v 0.371660 -0.412262 -25.014999
v 0.374237 -0.411490 -25.000000
v 0.387818 -0.445444 -25.000000
v 0.387818 -0.445444 -25.000000
v 0.374237 -0.411490 -25.000000
v 0.387818 -0.445444 25.000000
v 0.374237 -0.411490 -25.000000
v 0.374237 -0.411490 25.000000
v 0.387818 -0.445444 25.000000
v 0.387818 -0.445444 25.000000
v 0.374237 -0.411490 25.000000
v 0.385481 -0.446816 25.014999
v 0.374237 -0.411490 25.000000
v 0.371660 -0.412262 25.014999
v 0.385481 -0.446816 25.014999
v 0.385481 -0.446816 25.014999
v 0.371660 -0.412262 25.014999
v 0.379097 -0.450566 25.025982
v 0.371660 -0.412262 25.014999
v 0.364618 -0.414370 25.025982
v 0.379097 -0.450566 25.025982
v 0.379097 -0.450566 25.025982
v 0.364618 -0.414370 25.025982
v 0.370375 -0.455687 25.029999
v 0.364618 -0.414370 25.025982
v 0.355000 -0.417250 25.029999
v 0.370375 -0.455687 25.029999
v 0.355000 -0.417250 -25.029999
v 0.344375 -0.365187 -25.029999
v 0.364618 -0.414370 -25.025980
v 0.344375 -0.365187 -25.029999
v 0.354285 -0.363738 -25.025980
v 0.364618 -0.414370 -25.025980
v 0.364618 -0.414370 -25.025980
v 0.354285 -0.363738 -25.025980
v 0.371660 -0.412262 -25.014999
v 0.354285 -0.363738 -25.025980
v 0.361540 -0.362676 -25.014999
v 0.371660 -0.412262 -25.014999
v 0.371660 -0.412262 -25.014999
v 0.361540 -0.362676 -25.014999
v 0.374237 -0.411490 -25.000000
v 0.361540 -0.362676 -25.014999
v 0.364195 -0.362288 -25.000000
v 0.374237 -0.411490 -25.000000
v 0.374237 -0.411490 -25.000000
v 0.364195 -0.362288 -25.000000
v 0.374237 -0.411490 25.000000
v 0.364195 -0.362288 -25.000000
v 0.364195 -0.362288 25.000000
v 0.374237 -0.411490 25.000000
v 0.374237 -0.411490 25.000000
v 0.364195 -0.362288 25.000000
v 0.371660 -0.412262 25.014999
v 0.364195 -0.362288 25.000000
v 0.361540 -0.362676 25.014999
v 0.371660 -0.412262 25.014999
v 0.371660 -0.412262 25.014999
v 0.361540 -0.362676 25.014999
v 0.364618 -0.414370 25.025982
v 0.361540 -0.362676 25.014999
v 0.354285 -0.363738 25.025982
v 0.364618 -0.414370 25.025982
v 0.364618 -0.414370 25.025982
v 0.354285 -0.363738 25.025982
v 0.355000 -0.417250 25.029999
v 0.354285 -0.363738 25.025982
v 0.344375 -0.365187 25.029999
v 0.355000 -0.417250 25.029999
v 0.344375 -0.365187 -25.029999
v 0.338500 -0.299500 -25.029999
v 0.354285 -0.363738 -25.025980
v 0.338500 -0.299500 -25.029999
v 0.348477 -0.298798 -25.025980
v 0.354285 -0.363738 -25.025980
v 0.354285 -0.363738 -25.025980
v 0.348477 -0.298798 -25.025980
v 0.361540 -0.362676 -25.014999
v 0.348477 -0.298798 -25.025980
v 0.355781 -0.298284 -25.014999
v 0.361540 -0.362676 -25.014999
v 0.361540 -0.362676 -25.014999
v 0.355781 -0.298284 -25.014999
v 0.364195 -0.362288 -25.000000
v 0.355781 -0.298284 -25.014999
v 0.358454 -0.298096 -25.000000
v 0.364195 -0.362288 -25.000000
v 0.364195 -0.362288 -25.000000
v 0.358454 -0.298096 -25.000000
v 0.364195 -0.362288 25.000000
v 0.358454 -0.298096 -25.000000
v 0.358454 -0.298096 25.000000
v 0.364195 -0.362288 25.000000
v 0.364195 -0.362288 25.000000
v 0.358454 -0.298096 25.000000
v 0.361540 -0.362676 25.014999
v 0.358454 -0.298096 25.000000
v 0.355781 -0.298284 25.014999
v 0.361540 -0.362676 25.014999
v 0.361540 -0.362676 25.014999
v 0.355781 -0.298284 25.014999
v 0.354285 -0.363738 25.025982
v 0.355781 -0.298284 25.014999
v 0.348477 -0.298798 25.025982
v 0.354285 -0.363738 25.025982
v 0.354285 -0.363738 25.025982
v 0.348477 -0.298798 25.025982
v 0.344375 -0.365187 25.029999
v 0.348477 -0.298798 25.025982
v 0.338500 -0.299500 25.029999
v 0.344375 -0.365187 25.029999
v 0.338500 -0.299500 -25.029999
v 0.335187 -0.234938 -25.029999
v 0.348477 -0.298798 -25.025980
v 0.335187 -0.234938 -25.029999
v 0.345172 -0.234380 -25.025980
v 0.348477 -0.298798 -25.025980
v 0.348477 -0.298798 -25.025980
v 0.345172 -0.234380 -25.025980
v 0.355781 -0.298284 -25.014999
v 0.345172 -0.234380 -25.025980
v 0.352481 -0.233972 -25.014999
v 0.355781 -0.298284 -25.014999
v 0.355781 -0.298284 -25.014999
v 0.352481 -0.233972 -25.014999
v 0.358454 -0.298096 -25.000000
v 0.352481 -0.233972 -25.014999
v 0.355157 -0.233823 -25.000000
v 0.358454 -0.298096 -25.000000
v 0.358454 -0.298096 -25.000000
v 0.355157 -0.233823 -25.000000
v 0.358454 -0.298096 25.000000
v 0.355157 -0.233823 -25.000000
v 0.355157 -0.233823 25.000000
v 0.358454 -0.298096 25.000000
v 0.358454 -0.298096 25.000000
v 0.355157 -0.233823 25.000000
v 0.355781 -0.298284 25.014999
v 0.355157 -0.233823 25.000000
v 0.352481 -0.233972 25.014999
v 0.355781 -0.298284 25.014999
v 0.355781 -0.298284 25.014999
v 0.352481 -0.233972 25.014999
v 0.348477 -0.298798 25.025982
v 0.352481 -0.233972 25.014999
v 0.345172 -0.234380 25.025982
v 0.348477 -0.298798 25.025982
v 0.348477 -0.298798 25.025982
v 0.345172 -0.234380 25.025982
v 0.338500 -0.299500 25.029999
v 0.345172 -0.234380 25.025982
v 0.335187 -0.234938 25.029999
v 0.338500 -0.299500 25.029999
v 0.335187 -0.234938 -25.029999
v 0.332250 -0.186250 -25.029999
v 0.345172 -0.234380 -25.025980
v 0.332250 -0.186250 -25.029999
v 0.342227 -0.185560 -25.025980
v 0.345172 -0.234380 -25.025980
v 0.345172 -0.234380 -25.025980
v 0.342227 -0.185560 -25.025980
v 0.352481 -0.233972 -25.014999
v 0.342227 -0.185560 -25.025980
v 0.349530 -0.185054 -25.014999
v 0.352481 -0.233972 -25.014999
v 0.352481 -0.233972 -25.014999
v 0.349530 -0.185054 -25.014999
v 0.355157 -0.233823 -25.000000
v 0.349530 -0.185054 -25.014999
v 0.352203 -0.184869 -25.000000
v 0.355157 -0.233823 -25.000000
v 0.355157 -0.233823 -25.000000
v 0.352203 -0.184869 -25.000000
v 0.355157 -0.233823 25.000000
v 0.352203 -0.184869 -25.000000
v 0.352203 -0.184869 25.000000
v 0.355157 -0.233823 25.000000
v 0.355157 -0.233823 25.000000
v 0.352203 -0.184869 25.000000
v 0.352481 -0.233972 25.014999
v 0.352203 -0.184869 25.000000
v 0.349530 -0.185054 25.014999
v 0.352481 -0.233972 25.014999
v 0.352481 -0.233972 25.014999
v 0.349530 -0.185054 25.014999
v 0.345172 -0.234380 25.025982
v 0.349530 -0.185054 25.014999
v 0.342227 -0.185560 25.025982
v 0.345172 -0.234380 25.025982
v 0.345172 -0.234380 25.025982
v 0.342227 -0.185560 25.025982
v 0.335187 -0.234938 25.029999
v 0.342227 -0.185560 25.025982
v 0.332250 -0.186250 25.029999
v 0.335187 -0.234938 25.029999
v 0.332250 -0.186250 -25.029999
v 0.329687 -0.153437 -25.029999
v 0.342227 -0.185560 -25.025980
v 0.329687 -0.153437 -25.029999
v 0.339637 -0.152407 -25.025980
v 0.342227 -0.185560 -25.025980
v 0.342227 -0.185560 -25.025980
v 0.339637 -0.152407 -25.025980
v 0.349530 -0.185054 -25.014999
v 0.339637 -0.152407 -25.025980
v 0.346921 -0.151653 -25.014999
v 0.349530 -0.185054 -25.014999
v 0.349530 -0.185054 -25.014999
v 0.346921 -0.151653 -25.014999
v 0.352203 -0.184869 -25.000000
v 0.346921 -0.151653 -25.014999
v 0.349587 -0.151377 -25.000000
v 0.352203 -0.184869 -25.000000
v 0.352203 -0.184869 -25.000000
v 0.349587 -0.151377 -25.000000
v 0.352203 -0.184869 25.000000
v 0.349587 -0.151377 -25.000000
v 0.349587 -0.151377 25.000000
v 0.352203 -0.184869 25.000000
v 0.352203 -0.184869 25.000000
v 0.349587 -0.151377 25.000000
v 0.349530 -0.185054 25.014999
v 0.349587 -0.151377 25.000000
v 0.346921 -0.151653 25.014999
v 0.349530 -0.185054 25.014999
v 0.349530 -0.185054 25.014999
v 0.346921 -0.151653 25.014999
v 0.342227 -0.185560 25.025982
v 0.346921 -0.151653 25.014999
v 0.339637 -0.152407 25.025982
v 0.342227 -0.185560 25.025982
v 0.342227 -0.185560 25.025982
v 0.339637 -0.152407 25.025982
v 0.332250 -0.186250 25.029999
v 0.339637 -0.152407 25.025982
v 0.329687 -0.153437 25.029999
v 0.332250 -0.186250 25.029999
v 0.329687 -0.153437 -25.029999
v 0.327500 -0.136500 -25.029999
v 0.339637 -0.152407 -25.025980
v 0.327500 -0.136500 -25.029999
v 0.337301 -0.134317 -25.025980
v 0.339637 -0.152407 -25.025980
v 0.339637 -0.152407 -25.025980
v 0.337301 -0.134317 -25.025980
v 0.346921 -0.151653 -25.014999
v 0.337301 -0.134317 -25.025980
v 0.344476 -0.132720 -25.014999
v 0.346921 -0.151653 -25.014999
v 0.346921 -0.151653 -25.014999
v 0.344476 -0.132720 -25.014999
v 0.349587 -0.151377 -25.000000
v 0.344476 -0.132720 -25.014999
v 0.347102 -0.132135 -25.000000
v 0.349587 -0.151377 -25.000000
v 0.349587 -0.151377 -25.000000
v 0.347102 -0.132135 -25.000000
v 0.349587 -0.151377 25.000000
v 0.347102 -0.132135 -25.000000
v 0.347102 -0.132135 25.000000
v 0.349587 -0.151377 25.000000
v 0.349587 -0.151377 25.000000
v 0.347102 -0.132135 25.000000
v 0.346921 -0.151653 25.014999
v 0.347102 -0.132135 25.000000
v 0.344476 -0.132720 25.014999
v 0.346921 -0.151653 25.014999
v 0.346921 -0.151653 25.014999
v 0.344476 -0.132720 25.014999
v 0.339637 -0.152407 25.025982
v 0.344476 -0.132720 25.014999
v 0.337301 -0.134317 25.025982
v 0.339637 -0.152407 25.025982
v 0.339637 -0.152407 25.025982
v 0.337301 -0.134317 25.025982
v 0.329687 -0.153437 25.029999
v 0.337301 -0.134317 25.025982
v 0.327500 -0.136500 25.029999
v 0.329687 -0.153437 25.029999
v 0.327500 -0.136500 -25.029999
v 0.312375 -0.089250 -25.029999
v 0.337301 -0.134317 -25.025980
v 0.312375 -0.089250 -25.029999
v 0.321524 -0.085031 -25.025980
v 0.337301 -0.134317 -25.025980
v 0.337301 -0.134317 -25.025980
v 0.321524 -0.085031 -25.025980
v 0.344476 -0.132720 -25.014999
v 0.321524 -0.085031 -25.025980
v 0.328222 -0.081942 -25.014999
v 0.344476 -0.132720 -25.014999
v 0.344476 -0.132720 -25.014999
v 0.328222 -0.081942 -25.014999
v 0.347102 -0.132135 -25.000000
v 0.328222 -0.081942 -25.014999
v 0.330673 -0.080811 -25.000000
v 0.347102 -0.132135 -25.000000
v 0.347102 -0.132135 -25.000000
v 0.330673 -0.080811 -25.000000
v 0.347102 -0.132135 25.000000
v 0.330673 -0.080811 -25.000000
v 0.330673 -0.080811 25.000000
v 0.347102 -0.132135 25.000000
v 0.347102 -0.132135 25.000000
v 0.330673 -0.080811 25.000000
v 0.344476 -0.132720 25.014999
v 0.330673 -0.080811 25.000000
v 0.328222 -0.081942 25.014999
v 0.344476 -0.132720 25.014999
v 0.344476 -0.132720 25.014999
v 0.328222 -0.081942 25.014999
v 0.337301 -0.134317 25.025982
v 0.328222 -0.081942 25.014999
v 0.321524 -0.085031 25.025982
v 0.337301 -0.134317 25.025982
v 0.337301 -0.134317 25.025982
v 0.321524 -0.085031 25.025982
v 0.327500 -0.136500 25.029999
v 0.321524 -0.085031 25.025982
v 0.312375 -0.089250 25.029999
v 0.327500 -0.136500 25.029999
v 0.312375 -0.089250 -25.029999
v 0.289000 -0.051500 -25.029999
v 0.321524 -0.085031 -25.025980
v 0.289000 -0.051500 -25.029999
v 0.296741 -0.045006 -25.025980
v 0.321524 -0.085031 -25.025980
v 0.321524 -0.085031 -25.025980
v 0.296741 -0.045006 -25.025980
v 0.328222 -0.081942 -25.014999
v 0.296741 -0.045006 -25.025980
v 0.302407 -0.040252 -25.014999
v 0.328222 -0.081942 -25.014999
v 0.328222 -0.081942 -25.014999
v 0.302407 -0.040252 -25.014999
v 0.330673 -0.080811 -25.000000
v 0.302407 -0.040252 -25.014999
v 0.304481 -0.038512 -25.000000
v 0.330673 -0.080811 -25.000000
v 0.330673 -0.080811 -25.000000
v 0.304481 -0.038512 -25.000000
v 0.330673 -0.080811 25.000000
v 0.304481 -0.038512 -25.000000
v 0.304481 -0.038512 25.000000
v 0.330673 -0.080811 25.000000
v 0.330673 -0.080811 25.000000
v 0.304481 -0.038512 25.000000
v 0.328222 -0.081942 25.014999
v 0.304481 -0.038512 25.000000
v 0.302407 -0.040252 25.014999
v 0.328222 -0.081942 25.014999
v 0.328222 -0.081942 25.014999
v 0.302407 -0.040252 25.014999
v 0.321524 -0.085031 25.025982
v 0.302407 -0.040252 25.014999
v 0.296741 -0.045006 25.025982
v 0.321524 -0.085031 25.025982
v 0.321524 -0.085031 25.025982
v 0.296741 -0.045006 25.025982
v 0.312375 -0.089250 25.029999
v 0.296741 -0.045006 25.025982
v 0.289000 -0.051500 25.029999
v 0.312375 -0.089250 25.029999
v 0.289000 -0.051500 -25.029999
v 0.257375 -0.023250 -25.029999
v 0.296741 -0.045006 -25.025980
v 0.257375 -0.023250 -25.029999
v 0.262950 -0.014821 -25.025980
v 0.296741 -0.045006 -25.025980
v 0.296741 -0.045006 -25.025980
v 0.262950 -0.014821 -25.025980
v 0.302407 -0.040252 -25.014999
v 0.262950 -0.014821 -25.025980
v 0.267030 -0.008650 -25.014999
v 0.302407 -0.040252 -25.014999
v 0.302407 -0.040252 -25.014999
v 0.267030 -0.008650 -25.014999
v 0.304481 -0.038512 -25.000000
v 0.267030 -0.008650 -25.014999
v 0.268524 -0.006392 -25.000000
v 0.304481 -0.038512 -25.000000
v 0.304481 -0.038512 -25.000000
v 0.268524 -0.006392 -25.000000
v 0.304481 -0.038512 25.000000
v 0.268524 -0.006392 -25.000000
v 0.268524 -0.006392 25.000000
v 0.304481 -0.038512 25.000000
v 0.304481 -0.038512 25.000000
v 0.268524 -0.006392 25.000000
v 0.302407 -0.040252 25.014999
v 0.268524 -0.006392 25.000000
v 0.267030 -0.008650 25.014999
v 0.302407 -0.040252 25.014999
v 0.302407 -0.040252 25.014999
v 0.267030 -0.008650 25.014999
v 0.296741 -0.045006 25.025982
v 0.267030 -0.008650 25.014999
v 0.262950 -0.014821 25.025982
v 0.296741 -0.045006 25.025982
v 0.296741 -0.045006 25.025982
v 0.262950 -0.014821 25.025982
v 0.289000 -0.051500 25.029999
v 0.262950 -0.014821 25.025982
v 0.257375 -0.023250 25.029999
v 0.289000 -0.051500 25.029999
v 0.257375 -0.023250 -25.029999
v 0.217500 -0.004500 -25.029999
v 0.262950 -0.014821 -25.025980
v 0.217500 -0.004500 -25.029999
v 0.231630 -0.003917 -25.025980
v 0.262950 -0.014821 -25.025980
v 0.262950 -0.014821 -25.025980
v 0.231630 -0.003917 -25.025980
v 0.267030 -0.008650 -25.014999
v 0.231630 -0.003917 -25.025980
v 0.241974 -0.003491 -25.014999
v 0.267030 -0.008650 -25.014999
v 0.267030 -0.008650 -25.014999
v 0.241974 -0.003491 -25.014999
v 0.268524 -0.006392 -25.000000
v 0.241974 -0.003491 -25.014999
v 0.245760 -0.003335 -25.000000
v 0.268524 -0.006392 -25.000000
v 0.268524 -0.006392 -25.000000
v 0.245760 -0.003335 -25.000000
v 0.268524 -0.006392 25.000000
v 0.245760 -0.003335 -25.000000
v 0.245760 -0.003335 25.000000
v 0.268524 -0.006392 25.000000
v 0.268524 -0.006392 25.000000
v 0.245760 -0.003335 25.000000
v 0.267030 -0.008650 25.014999
v 0.245760 -0.003335 25.000000
v 0.241974 -0.003491 25.014999
v 0.267030 -0.008650 25.014999
v 0.267030 -0.008650 25.014999
v 0.241974 -0.003491 25.014999
v 0.262950 -0.014821 25.025982
v 0.241974 -0.003491 25.014999
v 0.231630 -0.003917 25.025982
v 0.262950 -0.014821 25.025982
v 0.262950 -0.014821 25.025982
v 0.231630 -0.003917 25.025982
v 0.257375 -0.023250 25.029999
v 0.231630 -0.003917 25.025982
v 0.217500 -0.004500 25.029999
v 0.257375 -0.023250 25.029999
v 0.217500 -0.004500 -25.029999
v 0.248688 0.013438 -25.029999
v 0.231630 -0.003917 -25.025980
v 0.248688 0.013438 -25.029999
v 0.254314 0.005137 -25.025980
v 0.231630 -0.003917 -25.025980
v 0.231630 -0.003917 -25.025980
v 0.254314 0.005137 -25.025980
v 0.241974 -0.003491 -25.014999
v 0.254314 0.005137 -25.025980
v 0.258432 -0.000939 -25.014999
v 0.241974 -0.003491 -25.014999
v 0.241974 -0.003491 -25.014999
v 0.258432 -0.000939 -25.014999
v 0.245760 -0.003335 -25.000000
v 0.258432 -0.000939 -25.014999
v 0.259940 -0.003163 -25.000000
v 0.245760 -0.003335 -25.000000
v 0.245760 -0.003335 -25.000000
v 0.259940 -0.003163 -25.000000
v 0.245760 -0.003335 25.000000
v 0.259940 -0.003163 -25.000000
v 0.259940 -0.003163 25.000000
v 0.245760 -0.003335 25.000000
v 0.245760 -0.003335 25.000000
v 0.259940 -0.003163 25.000000
v 0.241974 -0.003491 25.014999
v 0.259940 -0.003163 25.000000
v 0.258432 -0.000939 25.014999
v 0.241974 -0.003491 25.014999
v 0.241974 -0.003491 25.014999
v 0.258432 -0.000939 25.014999
v 0.231630 -0.003917 25.025982
v 0.258432 -0.000939 25.014999
v 0.254314 0.005137 25.025982
v 0.231630 -0.003917 25.025982
v 0.231630 -0.003917 25.025982
v 0.254314 0.005137 25.025982
v 0.217500 -0.004500 25.029999
v 0.254314 0.005137 25.025982
v 0.248688 0.013438 25.029999
v 0.217500 -0.004500 25.029999
v 0.248688 0.013438 -25.029999
v 0.276250 0.035250 -25.029999
v 0.254314 0.005137 -25.025980
v 0.276250 0.035250 -25.029999
v 0.283050 0.027878 -25.025980
v 0.254314 0.005137 -25.025980
v 0.254314 0.005137 -25.025980
v 0.283050 0.027878 -25.025980
v 0.258432 -0.000939 -25.014999
v 0.283050 0.027878 -25.025980
v 0.288027 0.022482 -25.014999
v 0.258432 -0.000939 -25.014999
v 0.258432 -0.000939 -25.014999
v 0.288027 0.022482 -25.014999
v 0.259940 -0.003163 -25.000000
v 0.288027 0.022482 -25.014999
v 0.289849 0.020507 -25.000000
v 0.259940 -0.003163 -25.000000
v 0.259940 -0.003163 -25.000000
v 0.289849 0.020507 -25.000000
v 0.259940 -0.003163 25.000000
v 0.289849 0.020507 -25.000000
v 0.289849 0.020507 25.000000
v 0.259940 -0.003163 25.000000
v 0.259940 -0.003163 25.000000
v 0.289849 0.020507 25.000000
v 0.258432 -0.000939 25.014999
v 0.289849 0.020507 25.000000
v 0.288027 0.022482 25.014999
v 0.258432 -0.000939 25.014999
v 0.258432 -0.000939 25.014999
v 0.288027 0.022482 25.014999
v 0.254314 0.005137 25.025982
v 0.288027 0.022482 25.014999
v 0.283050 0.027878 25.025982
v 0.254314 0.005137 25.025982
v 0.254314 0.005137 25.025982
v 0.283050 0.027878 25.025982
v 0.248688 0.013438 25.029999
v 0.283050 0.027878 25.025982
v 0.276250 0.035250 25.029999
v 0.248688 0.013438 25.029999
v 0.276250 0.035250 -25.029999
v 0.300187 0.060938 -25.029999
v 0.283050 0.027878 -25.025980
v 0.300187 0.060938 -25.029999
v 0.308009 0.054663 -25.025980
v 0.283050 0.027878 -25.025980
v 0.283050 0.027878 -25.025980
v 0.308009 0.054663 -25.025980
v 0.288027 0.022482 -25.014999
v 0.308009 0.054663 -25.025980
v 0.313735 0.050070 -25.014999
v 0.288027 0.022482 -25.014999
v 0.288027 0.022482 -25.014999
v 0.313735 0.050070 -25.014999
v 0.289849 0.020507 -25.000000
v 0.313735 0.050070 -25.014999
v 0.315831 0.048388 -25.000000
v 0.289849 0.020507 -25.000000
v 0.289849 0.020507 -25.000000
v 0.315831 0.048388 -25.000000
v 0.289849 0.020507 25.000000
v 0.315831 0.048388 -25.000000
v 0.315831 0.048388 25.000000
v 0.289849 0.020507 25.000000
v 0.289849 0.020507 25.000000
v 0.315831 0.048388 25.000000
v 0.288027 0.022482 25.014999
v 0.315831 0.048388 25.000000
v 0.313735 0.050070 25.014999
v 0.288027 0.022482 25.014999
v 0.288027 0.022482 25.014999
v 0.313735 0.050070 25.014999
v 0.283050 0.027878 25.025982
v 0.313735 0.050070 25.014999
v 0.308009 0.054663 25.025982
v 0.283050 0.027878 25.025982
v 0.283050 0.027878 25.025982
v 0.308009 0.054663 25.025982
v 0.276250 0.035250 25.029999
v 0.308009 0.054663 25.025982
v 0.300187 0.060938 25.029999
v 0.276250 0.035250 25.029999
v 0.300187 0.060938 -25.029999
v 0.320500 0.090500 -25.029999
v 0.308009 0.054663 -25.025980
v 0.320500 0.090500 -25.029999
v 0.329077 0.085324 -25.025980
v 0.308009 0.054663 -25.025980
v 0.308009 0.054663 -25.025980
v 0.329077 0.085324 -25.025980
v 0.313735 0.050070 -25.014999
v 0.329077 0.085324 -25.025980
v 0.335355 0.081535 -25.014999
v 0.313735 0.050070 -25.014999
v 0.313735 0.050070 -25.014999
v 0.335355 0.081535 -25.014999
v 0.315831 0.048388 -25.000000
v 0.335355 0.081535 -25.014999
v 0.337653 0.080148 -25.000000
v 0.315831 0.048388 -25.000000
v 0.315831 0.048388 -25.000000
v 0.337653 0.080148 -25.000000
v 0.315831 0.048388 25.000000
v 0.337653 0.080148 -25.000000
v 0.337653 0.080148 25.000000
v 0.315831 0.048388 25.000000
v 0.315831 0.048388 25.000000
v 0.337653 0.080148 25.000000
v 0.313735 0.050070 25.014999
v 0.337653 0.080148 25.000000
v 0.335355 0.081535 25.014999
v 0.313735 0.050070 25.014999
v 0.313735 0.050070 25.014999
v 0.335355 0.081535 25.014999
v 0.308009 0.054663 25.025982
v 0.335355 0.081535 25.014999
v 0.329077 0.085324 25.025982
v 0.308009 0.054663 25.025982
v 0.308009 0.054663 25.025982
v 0.329077 0.085324 25.025982
v 0.300187 0.060938 25.029999
v 0.329077 0.085324 25.025982
v 0.320500 0.090500 25.029999
v 0.300187 0.060938 25.029999
v 0.320500 0.090500 -25.029999
v 0.337125 0.122125 -25.029999
v 0.329077 0.085324 -25.025980
v 0.337125 0.122125 -25.029999
v 0.346297 0.118081 -25.025980
v 0.329077 0.085324 -25.025980
v 0.329077 0.085324 -25.025980
v 0.346297 0.118081 -25.025980
v 0.335355 0.081535 -25.014999
v 0.346297 0.118081 -25.025980
v 0.353011 0.115120 -25.014999
v 0.335355 0.081535 -25.014999
v 0.335355 0.081535 -25.014999
v 0.353011 0.115120 -25.014999
v 0.337653 0.080148 -25.000000
v 0.353011 0.115120 -25.014999
v 0.355468 0.114036 -25.000000
v 0.337653 0.080148 -25.000000
v 0.337653 0.080148 -25.000000
v 0.355468 0.114036 -25.000000
v 0.337653 0.080148 25.000000
v 0.355468 0.114036 -25.000000
v 0.355468 0.114036 25.000000
v 0.337653 0.080148 25.000000
v 0.337653 0.080148 25.000000
v 0.355468 0.114036 25.000000
v 0.335355 0.081535 25.014999
v 0.355468 0.114036 25.000000
v 0.353011 0.115120 25.014999
v 0.335355 0.081535 25.014999
v 0.335355 0.081535 25.014999
v 0.353011 0.115120 25.014999
v 0.329077 0.085324 25.025982
v 0.353011 0.115120 25.014999
v 0.346297 0.118081 25.025982
v 0.329077 0.085324 25.025982
v 0.329077 0.085324 25.025982
v 0.346297 0.118081 25.025982
v 0.320500 0.090500 25.029999
v 0.346297 0.118081 25.025982
v 0.337125 0.122125 25.029999
v 0.320500 0.090500 25.029999
v 0.337125 0.122125 -25.029999
v 0.349000 0.155000 -25.029999
v 0.346297 0.118081 -25.025980
v 0.349000 0.155000 -25.029999
v 0.358645 0.152266 -25.025980
v 0.346297 0.118081 -25.025980
v 0.346297 0.118081 -25.025980
v 0.358645 0.152266 -25.025980
v 0.353011 0.115120 -25.014999
v 0.358645 0.152266 -25.025980
v 0.365705 0.150264 -25.014999
v 0.353011 0.115120 -25.014999
v 0.353011 0.115120 -25.014999
v 0.365705 0.150264 -25.014999
v 0.355468 0.114036 -25.000000
v 0.365705 0.150264 -25.014999
v 0.368290 0.149532 -25.000000
v 0.355468 0.114036 -25.000000
v 0.355468 0.114036 -25.000000
v 0.368290 0.149532 -25.000000
v 0.355468 0.114036 25.000000
v 0.368290 0.149532 -25.000000
v 0.368290 0.149532 25.000000
v 0.355468 0.114036 25.000000
v 0.355468 0.114036 25.000000
v 0.368290 0.149532 25.000000
v 0.353011 0.115120 25.014999
v 0.368290 0.149532 25.000000
v 0.365705 0.150264 25.014999
v 0.353011 0.115120 25.014999
v 0.353011 0.115120 25.014999
v 0.365705 0.150264 25.014999
v 0.346297 0.118081 25.025982
v 0.365705 0.150264 25.014999
v 0.358645 0.152266 25.025982
v 0.346297 0.118081 25.025982
v 0.346297 0.118081 25.025982
v 0.358645 0.152266 25.025982
v 0.337125 0.122125 25.029999
v 0.358645 0.152266 25.025982
v 0.349000 0.155000 25.029999
v 0.337125 0.122125 25.029999
v 0.349000 0.155000 -25.029999
v 0.356125 0.189125 -25.029999
v 0.358645 0.152266 -25.025980
v 0.356125 0.189125 -25.029999
v 0.366056 0.187762 -25.025980
v 0.358645 0.152266 -25.025980
v 0.358645 0.152266 -25.025980
v 0.366056 0.187762 -25.025980
v 0.365705 0.150264 -25.014999
v 0.366056 0.187762 -25.025980
v 0.373326 0.186764 -25.014999
v 0.365705 0.150264 -25.014999
v 0.365705 0.150264 -25.014999
v 0.373326 0.186764 -25.014999
v 0.368290 0.149532 -25.000000
v 0.373326 0.186764 -25.014999
v 0.375987 0.186398 -25.000000
v 0.368290 0.149532 -25.000000
v 0.368290 0.149532 -25.000000
v 0.375987 0.186398 -25.000000
v 0.368290 0.149532 25.000000
v 0.375987 0.186398 -25.000000
v 0.375987 0.186398 25.000000
v 0.368290 0.149532 25.000000
v 0.368290 0.149532 25.000000
v 0.375987 0.186398 25.000000
v 0.365705 0.150264 25.014999
v 0.375987 0.186398 25.000000
v 0.373326 0.186764 25.014999
v 0.365705 0.150264 25.014999
v 0.365705 0.150264 25.014999
v 0.373326 0.186764 25.014999
v 0.358645 0.152266 25.025982
v 0.373326 0.186764 25.014999
v 0.366056 0.187762 25.025982
v 0.358645 0.152266 25.025982
v 0.358645 0.152266 25.025982
v 0.366056 0.187762 25.025982
v 0.349000 0.155000 25.029999
v 0.366056 0.187762 25.025982
v 0.356125 0.189125 25.029999
v 0.349000 0.155000 25.029999
v 0.356125 0.189125 -25.029999
v 0.358500 0.224500 -25.029999
v 0.366056 0.187762 -25.025980
v 0.358500 0.224500 -25.029999
v 0.368536 0.224708 -25.025980
v 0.366056 0.187762 -25.025980
v 0.366056 0.187762 -25.025980
v 0.368536 0.224708 -25.025980
v 0.373326 0.186764 -25.014999
v 0.368536 0.224708 -25.025980
v 0.375884 0.224861 -25.014999
v 0.373326 0.186764 -25.014999
v 0.373326 0.186764 -25.014999
v 0.375884 0.224861 -25.014999
v 0.375987 0.186398 -25.000000
v 0.375884 0.224861 -25.014999
v 0.378573 0.224917 -25.000000
v 0.375987 0.186398 -25.000000
v 0.375987 0.186398 -25.000000
v 0.378573 0.224917 -25.000000
v 0.375987 0.186398 25.000000
v 0.378573 0.224917 -25.000000
v 0.378573 0.224917 25.000000
v 0.375987 0.186398 25.000000
v 0.375987 0.186398 25.000000
v 0.378573 0.224917 25.000000
v 0.373326 0.186764 25.014999
v 0.378573 0.224917 25.000000
v 0.375884 0.224861 25.014999
v 0.373326 0.186764 25.014999
v 0.373326 0.186764 25.014999
v 0.375884 0.224861 25.014999
v 0.366056 0.187762 25.025982
v 0.375884 0.224861 25.014999
v 0.368536 0.224708 25.025982
v 0.366056 0.187762 25.025982
v 0.366056 0.187762 25.025982
v 0.368536 0.224708 25.025982
v 0.356125 0.189125 25.029999
v 0.368536 0.224708 25.025982
v 0.358500 0.224500 25.029999
v 0.356125 0.189125 25.029999
v 0.358500 0.224500 -25.029999
v 0.351438 0.289312 -25.029999
v 0.368536 0.224708 -25.025980
v 0.351438 0.289312 -25.029999
v 0.361245 0.291619 -25.025980
v 0.368536 0.224708 -25.025980
v 0.368536 0.224708 -25.025980
v 0.361245 0.291619 -25.025980
v 0.375884 0.224861 -25.014999
v 0.361245 0.291619 -25.025980
v 0.368425 0.293307 -25.014999
v 0.375884 0.224861 -25.014999
v 0.375884 0.224861 -25.014999
v 0.368425 0.293307 -25.014999
v 0.378573 0.224917 -25.000000
v 0.368425 0.293307 -25.014999
v 0.371053 0.293925 -25.000000
v 0.378573 0.224917 -25.000000
v 0.378573 0.224917 -25.000000
v 0.371053 0.293925 -25.000000
v 0.378573 0.224917 25.000000
v 0.371053 0.293925 -25.000000
v 0.371053 0.293925 25.000000
v 0.378573 0.224917 25.000000
v 0.378573 0.224917 25.000000
v 0.371053 0.293925 25.000000
v 0.375884 0.224861 25.014999
v 0.371053 0.293925 25.000000
v 0.368425 0.293307 25.014999
v 0.375884 0.224861 25.014999
v 0.375884 0.224861 25.014999
v 0.368425 0.293307 25.014999
v 0.368536 0.224708 25.025982
v 0.368425 0.293307 25.014999
v 0.361245 0.291619 25.025982
v 0.368536 0.224708 25.025982
v 0.368536 0.224708 25.025982
v 0.361245 0.291619 25.025982
v 0.358500 0.224500 25.029999
v 0.361245 0.291619 25.025982
v 0.351438 0.289312 25.029999
v 0.358500 0.224500 25.029999
v 0.351438 0.289312 -25.029999
v 0.330250 0.346750 -25.029999
v 0.361245 0.291619 -25.025980
v 0.330250 0.346750 -25.029999
v 0.339178 0.351442 -25.025980
v 0.361245 0.291619 -25.025980
v 0.361245 0.291619 -25.025980
v 0.339178 0.351442 -25.025980
v 0.368425 0.293307 -25.014999
v 0.339178 0.351442 -25.025980
v 0.345714 0.354877 -25.014999
v 0.368425 0.293307 -25.014999
v 0.368425 0.293307 -25.014999
v 0.345714 0.354877 -25.014999
v 0.371053 0.293925 -25.000000
v 0.345714 0.354877 -25.014999
v 0.348106 0.356134 -25.000000
v 0.371053 0.293925 -25.000000
v 0.371053 0.293925 -25.000000
v 0.348106 0.356134 -25.000000
v 0.371053 0.293925 25.000000
v 0.348106 0.356134 -25.000000
v 0.348106 0.356134 25.000000
v 0.371053 0.293925 25.000000
v 0.371053 0.293925 25.000000
v 0.348106 0.356134 25.000000
v 0.368425 0.293307 25.014999
v 0.348106 0.356134 25.000000
v 0.345714 0.354877 25.014999
v 0.368425 0.293307 25.014999
v 0.368425 0.293307 25.014999
v 0.345714 0.354877 25.014999
v 0.361245 0.291619 25.025982
v 0.345714 0.354877 25.014999
v 0.339178 0.351442 25.025982
v 0.361245 0.291619 25.025982
v 0.361245 0.291619 25.025982
v 0.339178 0.351442 25.025982
v 0.351438 0.289312 25.029999
v 0.339178 0.351442 25.025982
v 0.330250 0.346750 25.029999
v 0.351438 0.289312 25.029999
v 0.330250 0.346750 -25.029999
v 0.294937 0.396812 -25.029999
v 0.339178 0.351442 -25.025980
v 0.294937 0.396812 -25.029999
v 0.302402 0.403579 -25.025980
v 0.339178 0.351442 -25.025980
v 0.339178 0.351442 -25.025980
v 0.302402 0.403579 -25.025980
v 0.345714 0.354877 -25.014999
v 0.302402 0.403579 -25.025980
v 0.307866 0.408533 -25.014999
v 0.345714 0.354877 -25.014999
v 0.345714 0.354877 -25.014999
v 0.307866 0.408533 -25.014999
v 0.348106 0.356134 -25.000000
v 0.307866 0.408533 -25.014999
v 0.309866 0.410346 -25.000000
v 0.348106 0.356134 -25.000000
v 0.348106 0.356134 -25.000000
v 0.309866 0.410346 -25.000000
v 0.348106 0.356134 25.000000
v 0.309866 0.410346 -25.000000
v 0.309866 0.410346 25.000000
v 0.348106 0.356134 25.000000
v 0.348106 0.356134 25.000000
v 0.309866 0.410346 25.000000
v 0.345714 0.354877 25.014999
v 0.309866 0.410346 25.000000
v 0.307866 0.408533 25.014999
v 0.345714 0.354877 25.014999
v 0.345714 0.354877 25.014999
v 0.307866 0.408533 25.014999
v 0.339178 0.351442 25.025982
v 0.307866 0.408533 25.014999
v 0.302402 0.403579 25.025982
v 0.339178 0.351442 25.025982
v 0.339178 0.351442 25.025982
v 0.302402 0.403579 25.025982
v 0.330250 0.346750 25.029999
v 0.302402 0.403579 25.025982
v 0.294937 0.396812 25.029999
v 0.330250 0.346750 25.029999
v 0.294937 0.396812 -25.029999
v 0.245500 0.439500 -25.029999
v 0.302402 0.403579 -25.025980
v 0.245500 0.439500 -25.029999
v 0.251300 0.447704 -25.025980
v 0.302402 0.403579 -25.025980
v 0.302402 0.403579 -25.025980
v 0.251300 0.447704 -25.025980
v 0.307866 0.408533 -25.014999
v 0.251300 0.447704 -25.025980
v 0.255546 0.453710 -25.014999
v 0.307866 0.408533 -25.014999
v 0.307866 0.408533 -25.014999
v 0.255546 0.453710 -25.014999
v 0.309866 0.410346 -25.000000
v 0.255546 0.453710 -25.014999
v 0.257100 0.455908 -25.000000
v 0.309866 0.410346 -25.000000
v 0.309866 0.410346 -25.000000
v 0.257100 0.455908 -25.000000
v 0.309866 0.410346 25.000000
v 0.257100 0.455908 -25.000000
v 0.257100 0.455908 25.000000
v 0.309866 0.410346 25.000000
v 0.309866 0.410346 25.000000
v 0.257100 0.455908 25.000000
v 0.307866 0.408533 25.014999
v 0.257100 0.455908 25.000000
v 0.255546 0.453710 25.014999
v 0.307866 0.408533 25.014999
v 0.307866 0.408533 25.014999
v 0.255546 0.453710 25.014999
v 0.302402 0.403579 25.025982
v 0.255546 0.453710 25.014999
v 0.251300 0.447704 25.025982
v 0.302402 0.403579 25.025982
v 0.302402 0.403579 25.025982
v 0.251300 0.447704 25.025982
v 0.294937 0.396812 25.029999
v 0.251300 0.447704 25.025982
v 0.245500 0.439500 25.029999
v 0.294937 0.396812 25.029999
v 0.245500 0.439500 -25.029999
v 0.194125 0.468812 -25.029999
v 0.251300 0.447704 -25.025980
v 0.194125 0.468812 -25.029999
v 0.198353 0.477913 -25.025980
v 0.251300 0.447704 -25.025980
v 0.251300 0.447704 -25.025980
v 0.198353 0.477913 -25.025980
v 0.255546 0.453710 -25.014999
v 0.198353 0.477913 -25.025980
v 0.201448 0.484576 -25.014999
v 0.255546 0.453710 -25.014999
v 0.255546 0.453710 -25.014999
v 0.201448 0.484576 -25.014999
v 0.257100 0.455908 -25.000000
v 0.201448 0.484576 -25.014999
v 0.202581 0.487014 -25.000000
v 0.257100 0.455908 -25.000000
v 0.257100 0.455908 -25.000000
v 0.202581 0.487014 -25.000000
v 0.257100 0.455908 25.000000
v 0.202581 0.487014 -25.000000
v 0.202581 0.487014 25.000000
v 0.257100 0.455908 25.000000
v 0.257100 0.455908 25.000000
v 0.202581 0.487014 25.000000
v 0.255546 0.453710 25.014999
v 0.202581 0.487014 25.000000
v 0.201448 0.484576 25.014999
v 0.255546 0.453710 25.014999
v 0.255546 0.453710 25.014999
v 0.201448 0.484576 25.014999
v 0.251300 0.447704 25.025982
v 0.201448 0.484576 25.014999
v 0.198353 0.477913 25.025982
v 0.251300 0.447704 25.025982
v 0.251300 0.447704 25.025982
v 0.198353 0.477913 25.025982
v 0.245500 0.439500 25.029999
v 0.198353 0.477913 25.025982
v 0.194125 0.468812 25.029999
v 0.245500 0.439500 25.029999
v 0.194125 0.468812 -25.029999
v 0.137000 0.489750 -25.029999
v 0.198353 0.477913 -25.025980
v 0.137000 0.489750 -25.029999
v 0.139716 0.499405 -25.025980
v 0.198353 0.477913 -25.025980
v 0.198353 0.477913 -25.025980
v 0.139716 0.499405 -25.025980
v 0.201448 0.484576 -25.014999
v 0.139716 0.499405 -25.025980
v 0.141705 0.506473 -25.014999
v 0.201448 0.484576 -25.014999
v 0.201448 0.484576 -25.014999
v 0.141705 0.506473 -25.014999
v 0.202581 0.487014 -25.000000
v 0.141705 0.506473 -25.014999
v 0.142433 0.509060 -25.000000
v 0.202581 0.487014 -25.000000
v 0.202581 0.487014 -25.000000
v 0.142433 0.509060 -25.000000
v 0.202581 0.487014 25.000000
v 0.142433 0.509060 -25.000000
v 0.142433 0.509060 25.000000
v 0.202581 0.487014 25.000000
v 0.202581 0.487014 25.000000
v 0.142433 0.509060 25.000000
v 0.201448 0.484576 25.014999
v 0.142433 0.509060 25.000000
v 0.141705 0.506473 25.014999
v 0.201448 0.484576 25.014999
v 0.201448 0.484576 25.014999
v 0.141705 0.506473 25.014999
v 0.198353 0.477913 25.025982
v 0.141705 0.506473 25.014999
v 0.139716 0.499405 25.025982
v 0.198353 0.477913 25.025982
v 0.198353 0.477913 25.025982
v 0.139716 0.499405 25.025982
v 0.194125 0.468812 25.029999
v 0.139716 0.499405 25.025982
v 0.137000 0.489750 25.029999
v 0.194125 0.468812 25.029999
v 0.137000 0.489750 -25.029999
v 0.074125 0.502313 -25.029999
v 0.139716 0.499405 -25.025980
v 0.074125 0.502313 -25.029999
v 0.075415 0.512252 -25.025980
v 0.139716 0.499405 -25.025980
v 0.139716 0.499405 -25.025980
v 0.075415 0.512252 -25.025980
v 0.141705 0.506473 -25.014999
v 0.075415 0.512252 -25.025980
v 0.076360 0.519529 -25.014999
v 0.141705 0.506473 -25.014999
v 0.141705 0.506473 -25.014999
v 0.076360 0.519529 -25.014999
v 0.142433 0.509060 -25.000000
v 0.076360 0.519529 -25.014999
v 0.076705 0.522192 -25.000000
v 0.142433 0.509060 -25.000000
v 0.142433 0.509060 -25.000000
v 0.076705 0.522192 -25.000000
v 0.142433 0.509060 25.000000
v 0.076705 0.522192 -25.000000
v 0.076705 0.522192 25.000000
v 0.142433 0.509060 25.000000
v 0.142433 0.509060 25.000000
v 0.076705 0.522192 25.000000
v 0.141705 0.506473 25.014999
v 0.076705 0.522192 25.000000
v 0.076360 0.519529 25.014999
v 0.141705 0.506473 25.014999
v 0.141705 0.506473 25.014999
v 0.076360 0.519529 25.014999
v 0.139716 0.499405 25.025982
v 0.076360 0.519529 25.014999
v 0.075415 0.512252 25.025982
v 0.139716 0.499405 25.025982
v 0.139716 0.499405 25.025982
v 0.075415 0.512252 25.025982
v 0.137000 0.489750 25.029999
v 0.075415 0.512252 25.025982
v 0.074125 0.502313 25.029999
v 0.137000 0.489750 25.029999
v 0.074125 0.502313 -25.029999
v 0.005500 0.506500 -25.029999
v 0.075415 0.512252 -25.025980
v 0.005500 0.506500 -25.029999
v 0.005805 0.516500 -25.025980
v 0.075415 0.512252 -25.025980
v 0.075415 0.512252 -25.025980
v 0.005805 0.516500 -25.025980
v 0.076360 0.519529 -25.014999
v 0.005805 0.516500 -25.025980
v 0.006028 0.523821 -25.014999
v 0.076360 0.519529 -25.014999
v 0.076360 0.519529 -25.014999
v 0.006028 0.523821 -25.014999
v 0.076705 0.522192 -25.000000
v 0.006028 0.523821 -25.014999
v 0.006110 0.526500 -25.000000
v 0.076705 0.522192 -25.000000
v 0.076705 0.522192 -25.000000
v 0.006110 0.526500 -25.000000
v 0.076705 0.522192 25.000000
v 0.006110 0.526500 -25.000000
v 0.006110 0.526500 25.000000
v 0.076705 0.522192 25.000000
v 0.076705 0.522192 25.000000
v 0.006110 0.526500 25.000000
v 0.076360 0.519529 25.014999
v 0.006110 0.526500 25.000000
v 0.006028 0.523821 25.014999
v 0.076360 0.519529 25.014999
v 0.076360 0.519529 25.014999
v 0.006028 0.523821 25.014999
v 0.075415 0.512252 25.025982
v 0.006028 0.523821 25.014999
v 0.005805 0.516500 25.025982
v 0.075415 0.512252 25.025982
v 0.075415 0.512252 25.025982
v 0.005805 0.516500 25.025982
v 0.074125 0.502313 25.029999
v 0.005805 0.516500 25.025982
v 0.005500 0.506500 25.029999
v 0.074125 0.502313 25.029999
v 0.005500 0.506500 -25.029999
v -0.390500 0.506500 -25.029999
v 0.005805 0.516500 -25.025980
v -0.390500 0.506500 -25.029999
v -0.400500 0.516500 -25.025980
v 0.005805 0.516500 -25.025980
v 0.005805 0.516500 -25.025980
v -0.400500 0.516500 -25.025980
v 0.006028 0.523821 -25.014999
v -0.400500 0.516500 -25.025980
v -0.407821 0.523821 -25.014999
v 0.006028 0.523821 -25.014999
v 0.006028 0.523821 -25.014999
v -0.407821 0.523821 -25.014999
v 0.006110 0.526500 -25.000000
v -0.407821 0.523821 -25.014999
v -0.410500 0.526500 -25.000000
v 0.006110 0.526500 -25.000000
v 0.006110 0.526500 -25.000000
v -0.410500 0.526500 -25.000000
v 0.006110 0.526500 25.000000
v -0.410500 0.526500 -25.000000
v -0.410500 0.526500 25.000000
v 0.006110 0.526500 25.000000
v 0.006110 0.526500 25.000000
v -0.410500 0.526500 25.000000
v 0.006028 0.523821 25.014999
v -0.410500 0.526500 25.000000
v -0.407821 0.523821 25.014999
v 0.006028 0.523821 25.014999
v 0.006028 0.523821 25.014999
v -0.407821 0.523821 25.014999
v 0.005805 0.516500 25.025982
v -0.407821 0.523821 25.014999
v -0.400500 0.516500 25.025982
v 0.005805 0.516500 25.025982
v 0.005805 0.516500 25.025982
v -0.400500 0.516500 25.025982
v 0.005500 0.506500 25.029999
v -0.400500 0.516500 25.025982
v -0.390500 0.506500 25.029999
v 0.005500 0.506500 25.029999
v -0.390500 0.506500 -25.029999
v -0.390500 -0.506500 -25.029999
v -0.400500 0.516500 -25.025980
v -0.390500 -0.506500 -25.029999
v -0.400500 -0.516500 -25.025980
v -0.400500 0.516500 -25.025980
v -0.400500 0.516500 -25.025980
v -0.400500 -0.516500 -25.025980
v -0.407821 0.523821 -25.014999
v -0.400500 -0.516500 -25.025980
v -0.407821 -0.523821 -25.014999
v -0.407821 0.523821 -25.014999
v -0.407821 0.523821 -25.014999
v -0.407821 -0.523821 -25.014999
v -0.410500 0.526500 -25.000000
v -0.407821 -0.523821 -25.014999
v -0.410500 -0.526500 -25.000000
v -0.410500 0.526500 -25.000000
v -0.410500 0.526500 -25.000000
v -0.410500 -0.526500 -25.000000
v -0.410500 0.526500 25.000000
v -0.410500 -0.526500 -25.000000
v -0.410500 -0.526500 25.000000
v -0.410500 0.526500 25.000000
v -0.410500 0.526500 25.000000
v -0.410500 -0.526500 25.000000
v -0.407821 0.523821 25.014999
v -0.410500 -0.526500 25.000000
v -0.407821 -0.523821 25.014999
v -0.407821 0.523821 25.014999
v -0.407821 0.523821 25.014999
v -0.407821 -0.523821 25.014999
v -0.400500 0.516500 25.025982
v -0.407821 -0.523821 25.014999
v -0.400500 -0.516500 25.025982
v -0.400500 0.516500 25.025982
v -0.400500 0.516500 25.025982
v -0.400500 -0.516500 25.025982
v -0.390500 0.506500 25.029999
v -0.400500 -0.516500 25.025982
v -0.390500 -0.506500 25.029999
v -0.390500 0.506500 25.029999
v -0.390500 -0.506500 -25.029999
v -0.252500 -0.506500 -25.029999
v -0.400500 -0.516500 -25.025980
v -0.252500 -0.506500 -25.029999
v -0.242500 -0.516500 -25.025980
v -0.400500 -0.516500 -25.025980
v -0.400500 -0.516500 -25.025980
v -0.242500 -0.516500 -25.025980
v -0.407821 -0.523821 -25.014999
v -0.242500 -0.516500 -25.025980
v -0.235179 -0.523821 -25.014999
v -0.407821 -0.523821 -25.014999
v -0.407821 -0.523821 -25.014999
v -0.235179 -0.523821 -25.014999
v -0.410500 -0.526500 -25.000000
v -0.235179 -0.523821 -25.014999
v -0.232500 -0.526500 -25.000000
v -0.410500 -0.526500 -25.000000
v -0.410500 -0.526500 -25.000000
v -0.232500 -0.526500 -25.000000
v -0.410500 -0.526500 25.000000
v -0.232500 -0.526500 -25.000000
v -0.232500 -0.526500 25.000000
v -0.410500 -0.526500 25.000000
v -0.410500 -0.526500 25.000000
v -0.232500 -0.526500 25.000000
v -0.407821 -0.523821 25.014999
v -0.232500 -0.526500 25.000000
v -0.235179 -0.523821 25.014999
v -0.407821 -0.523821 25.014999
v -0.407821 -0.523821 25.014999
v -0.235179 -0.523821 25.014999
v -0.400500 -0.516500 25.025982
v -0.235179 -0.523821 25.014999
v -0.242500 -0.516500 25.025982
v -0.400500 -0.516500 25.025982
v -0.400500 -0.516500 25.025982
v -0.242500 -0.516500 25.025982
v -0.390500 -0.506500 25.029999
v -0.242500 -0.516500 25.025982
v -0.252500 -0.506500 25.029999
v -0.390500 -0.506500 25.029999
v -0.252500 -0.506500 -25.029999
v -0.252500 -0.073500 -25.029999
v -0.242500 -0.516500 -25.025980
v -0.252500 -0.073500 -25.029999
v -0.242500 -0.083500 -25.025980
v -0.242500 -0.516500 -25.025980
v -0.242500 -0.516500 -25.025980
v -0.242500 -0.083500 -25.025980
v -0.235179 -0.523821 -25.014999
v -0.242500 -0.083500 -25.025980
v -0.235179 -0.090821 -25.014999
v -0.235179 -0.523821 -25.014999
v -0.235179 -0.523821 -25.014999
v -0.235179 -0.090821 -25.014999
v -0.232500 -0.526500 -25.000000
v -0.235179 -0.090821 -25.014999
v -0.232500 -0.093500 -25.000000
v -0.232500 -0.526500 -25.000000
v -0.232500 -0.526500 -25.000000
v -0.232500 -0.093500 -25.000000
v -0.232500 -0.526500 25.000000
v -0.232500 -0.093500 -25.000000
v -0.232500 -0.093500 25.000000
v -0.232500 -0.526500 25.000000
v -0.232500 -0.526500 25.000000
v -0.232500 -0.093500 25.000000
v -0.235179 -0.523821 25.014999
v -0.232500 -0.093500 25.000000
v -0.235179 -0.090821 25.014999
v -0.235179 -0.523821 25.014999
v -0.235179 -0.523821 25.014999
v -0.235179 -0.090821 25.014999
v -0.242500 -0.516500 25.025982
v -0.235179 -0.090821 25.014999
v -0.242500 -0.083500 25.025982
v -0.242500 -0.516500 25.025982
v -0.242500 -0.516500 25.025982
v -0.242500 -0.083500 25.025982
v -0.252500 -0.506500 25.029999
v -0.242500 -0.083500 25.025982
v -0.252500 -0.073500 25.029999
v -0.252500 -0.506500 25.029999
v -0.252500 -0.073500 -25.029999
v 0.016500 -0.073500 -25.029999
v -0.242500 -0.083500 -25.025980
v 0.016500 -0.073500 -25.029999
v 0.015739 -0.083500 -25.025980
v -0.242500 -0.083500 -25.025980
v -0.242500 -0.083500 -25.025980
v 0.015739 -0.083500 -25.025980
v -0.235179 -0.090821 -25.014999
v 0.015739 -0.083500 -25.025980
v 0.015182 -0.090821 -25.014999
v -0.235179 -0.090821 -25.014999
v -0.235179 -0.090821 -25.014999
v 0.015182 -0.090821 -25.014999
v -0.232500 -0.093500 -25.000000
v 0.015182 -0.090821 -25.014999
v 0.014978 -0.093500 -25.000000
v -0.232500 -0.093500 -25.000000
v -0.232500 -0.093500 -25.000000
v 0.014978 -0.093500 -25.000000
v -0.232500 -0.093500 25.000000
v 0.014978 -0.093500 -25.000000
v 0.014978 -0.093500 25.000000
v -0.232500 -0.093500 25.000000
v -0.232500 -0.093500 25.000000
v 0.014978 -0.093500 25.000000
v -0.235179 -0.090821 25.014999
v 0.014978 -0.093500 25.000000
v 0.015182 -0.090821 25.014999
v -0.235179 -0.090821 25.014999
v -0.235179 -0.090821 25.014999
v 0.015182 -0.090821 25.014999
v -0.242500 -0.083500 25.025982
v 0.015182 -0.090821 25.014999
v 0.015739 -0.083500 25.025982
v -0.242500 -0.083500 25.025982
v -0.242500 -0.083500 25.025982
v 0.015739 -0.083500 25.025982
v -0.252500 -0.073500 25.029999
v 0.015739 -0.083500 25.025982
v 0.016500 -0.073500 25.029999
v -0.252500 -0.073500 25.029999
v 0.016500 -0.073500 -25.029999
v 0.094500 -0.085437 -25.029999
v 0.015739 -0.083500 -25.025980
v 0.094500 -0.085437 -25.029999
v 0.090895 -0.095002 -25.025980
v 0.015739 -0.083500 -25.025980
v 0.015739 -0.083500 -25.025980
v 0.090895 -0.095002 -25.025980
v 0.015182 -0.090821 -25.014999
v 0.090895 -0.095002 -25.025980
v 0.088256 -0.102004 -25.014999
v 0.015182 -0.090821 -25.014999
v 0.015182 -0.090821 -25.014999
v 0.088256 -0.102004 -25.014999
v 0.014978 -0.093500 -25.000000
v 0.088256 -0.102004 -25.014999
v 0.087291 -0.104567 -25.000000
v 0.014978 -0.093500 -25.000000
v 0.014978 -0.093500 -25.000000
v 0.087291 -0.104567 -25.000000
v 0.014978 -0.093500 25.000000
v 0.087291 -0.104567 -25.000000
v 0.087291 -0.104567 25.000000
v 0.014978 -0.093500 25.000000
v 0.014978 -0.093500 25.000000
v 0.087291 -0.104567 25.000000
v 0.015182 -0.090821 25.014999
v 0.087291 -0.104567 25.000000
v 0.088256 -0.102004 25.014999
v 0.015182 -0.090821 25.014999
v 0.015182 -0.090821 25.014999
v 0.088256 -0.102004 25.014999
v 0.015739 -0.083500 25.025982
v 0.088256 -0.102004 25.014999
v 0.090895 -0.095002 25.025982
v 0.015739 -0.083500 25.025982
v 0.015739 -0.083500 25.025982
v 0.090895 -0.095002 25.025982
v 0.016500 -0.073500 25.029999
v 0.090895 -0.095002 25.025982
v 0.094500 -0.085437 25.029999
v 0.016500 -0.073500 25.029999
v 0.094500 -0.085437 -25.029999
v 0.150500 -0.121250 -25.029999
v 0.090895 -0.095002 -25.025980
v 0.150500 -0.121250 -25.029999
v 0.143033 -0.128345 -25.025980
v 0.090895 -0.095002 -25.025980
v 0.090895 -0.095002 -25.025980
v 0.143033 -0.128345 -25.025980
v 0.088256 -0.102004 -25.014999
v 0.143033 -0.128345 -25.025980
v 0.137566 -0.133538 -25.014999
v 0.088256 -0.102004 -25.014999
v 0.088256 -0.102004 -25.014999
v 0.137566 -0.133538 -25.014999
v 0.087291 -0.104567 -25.000000
v 0.137566 -0.133538 -25.014999
v 0.135565 -0.135439 -25.000000
v 0.087291 -0.104567 -25.000000
v 0.087291 -0.104567 -25.000000
v 0.135565 -0.135439 -25.000000
v 0.087291 -0.104567 25.000000
v 0.135565 -0.135439 -25.000000
v 0.135565 -0.135439 25.000000
v 0.087291 -0.104567 25.000000
v 0.087291 -0.104567 25.000000
v 0.135565 -0.135439 25.000000
v 0.088256 -0.102004 25.014999
v 0.135565 -0.135439 25.000000
v 0.137566 -0.133538 25.014999
v 0.088256 -0.102004 25.014999
v 0.088256 -0.102004 25.014999
v 0.137566 -0.133538 25.014999
v 0.090895 -0.095002 25.025982
v 0.137566 -0.133538 25.014999
v 0.143033 -0.128345 25.025982
v 0.090895 -0.095002 25.025982
v 0.090895 -0.095002 25.025982
v 0.143033 -0.128345 25.025982
v 0.094500 -0.085437 25.029999
v 0.143033 -0.128345 25.025982
v 0.150500 -0.121250 25.029999
v 0.094500 -0.085437 25.029999
v 0.150500 -0.121250 -25.029999
v 0.184500 -0.180937 -25.029999
v 0.143033 -0.128345 -25.025980
v 0.184500 -0.180937 -25.029999
v 0.174871 -0.184238 -25.025980
v 0.143033 -0.128345 -25.025980
v 0.143033 -0.128345 -25.025980
v 0.174871 -0.184238 -25.025980
v 0.137566 -0.133538 -25.014999
v 0.174871 -0.184238 -25.025980
v 0.167823 -0.186654 -25.014999
v 0.137566 -0.133538 -25.014999
v 0.137566 -0.133538 -25.014999
v 0.167823 -0.186654 -25.014999
v 0.135565 -0.135439 -25.000000
v 0.167823 -0.186654 -25.014999
v 0.165243 -0.187538 -25.000000
v 0.135565 -0.135439 -25.000000
v 0.135565 -0.135439 -25.000000
v 0.165243 -0.187538 -25.000000
v 0.135565 -0.135439 25.000000
v 0.165243 -0.187538 -25.000000
v 0.165243 -0.187538 25.000000
v 0.135565 -0.135439 25.000000
v 0.135565 -0.135439 25.000000
v 0.165243 -0.187538 25.000000
v 0.137566 -0.133538 25.014999
v 0.165243 -0.187538 25.000000
v 0.167823 -0.186654 25.014999
v 0.137566 -0.133538 25.014999
v 0.137566 -0.133538 25.014999
v 0.167823 -0.186654 25.014999
v 0.143033 -0.128345 25.025982
v 0.167823 -0.186654 25.014999
v 0.174871 -0.184238 25.025982
v 0.143033 -0.128345 25.025982
v 0.143033 -0.128345 25.025982
v 0.174871 -0.184238 25.025982
v 0.150500 -0.121250 25.029999
v 0.174871 -0.184238 25.025982
v 0.184500 -0.180937 25.029999
v 0.150500 -0.121250 25.029999
v 0.184500 -0.180937 -25.029999
v 0.196500 -0.264500 -25.029999
v 0.174871 -0.184238 -25.025980
v 0.196500 -0.264500 -25.029999
v 0.186528 -0.265408 -25.025980
v 0.174871 -0.184238 -25.025980
v 0.174871 -0.184238 -25.025980
v 0.186528 -0.265408 -25.025980
v 0.167823 -0.186654 -25.014999
v 0.186528 -0.265408 -25.025980
v 0.179228 -0.266073 -25.014999
v 0.167823 -0.186654 -25.014999
v 0.167823 -0.186654 -25.014999
v 0.179228 -0.266073 -25.014999
v 0.165243 -0.187538 -25.000000
v 0.179228 -0.266073 -25.014999
v 0.176556 -0.266317 -25.000000
v 0.165243 -0.187538 -25.000000
v 0.165243 -0.187538 -25.000000
v 0.176556 -0.266317 -25.000000
v 0.165243 -0.187538 25.000000
v 0.176556 -0.266317 -25.000000
v 0.176556 -0.266317 25.000000
v 0.165243 -0.187538 25.000000
v 0.165243 -0.187538 25.000000
v 0.176556 -0.266317 25.000000
v 0.167823 -0.186654 25.014999
v 0.176556 -0.266317 25.000000
v 0.179228 -0.266073 25.014999
v 0.167823 -0.186654 25.014999
v 0.167823 -0.186654 25.014999
v 0.179228 -0.266073 25.014999
v 0.174871 -0.184238 25.025982
v 0.179228 -0.266073 25.014999
v 0.186528 -0.265408 25.025982
v 0.174871 -0.184238 25.025982
v 0.174871 -0.184238 25.025982
v 0.186528 -0.265408 25.025982
v 0.184500 -0.180937 25.029999
v 0.186528 -0.265408 25.025982
v 0.196500 -0.264500 25.029999
v 0.184500 -0.180937 25.029999
v 0.196500 -0.264500 -25.029999
v 0.199875 -0.350875 -25.029999
v 0.186528 -0.265408 -25.025980
v 0.199875 -0.350875 -25.029999
v 0.189895 -0.351584 -25.025980
v 0.186528 -0.265408 -25.025980
v 0.186528 -0.265408 -25.025980
v 0.189895 -0.351584 -25.025980
v 0.179228 -0.266073 -25.014999
v 0.189895 -0.351584 -25.025980
v 0.182589 -0.352102 -25.014999
v 0.179228 -0.266073 -25.014999
v 0.179228 -0.266073 -25.014999
v 0.182589 -0.352102 -25.014999
v 0.176556 -0.266317 -25.000000
v 0.182589 -0.352102 -25.014999
v 0.179915 -0.352292 -25.000000
v 0.176556 -0.266317 -25.000000
v 0.176556 -0.266317 -25.000000
v 0.179915 -0.352292 -25.000000
v 0.176556 -0.266317 25.000000
v 0.179915 -0.352292 -25.000000
v 0.179915 -0.352292 25.000000
v 0.176556 -0.266317 25.000000
v 0.176556 -0.266317 25.000000
v 0.179915 -0.352292 25.000000
v 0.179228 -0.266073 25.014999
v 0.179915 -0.352292 25.000000
v 0.182589 -0.352102 25.014999
v 0.179228 -0.266073 25.014999
v 0.179228 -0.266073 25.014999
v 0.182589 -0.352102 25.014999
v 0.186528 -0.265408 25.025982
v 0.182589 -0.352102 25.014999
v 0.189895 -0.351584 25.025982
v 0.186528 -0.265408 25.025982
v 0.186528 -0.265408 25.025982
v 0.189895 -0.351584 25.025982
v 0.196500 -0.264500 25.029999
v 0.189895 -0.351584 25.025982
v 0.199875 -0.350875 25.029999
v 0.196500 -0.264500 25.029999
v 0.199875 -0.350875 -25.029999
v 0.207000 -0.420000 -25.029999
v 0.189895 -0.351584 -25.025980
v 0.207000 -0.420000 -25.029999
v 0.197106 -0.421543 -25.025980
v 0.189895 -0.351584 -25.025980
v 0.189895 -0.351584 -25.025980
v 0.197106 -0.421543 -25.025980
v 0.182589 -0.352102 -25.014999
v 0.197106 -0.421543 -25.025980
v 0.189863 -0.422672 -25.014999
v 0.182589 -0.352102 -25.014999
v 0.182589 -0.352102 -25.014999
v 0.189863 -0.422672 -25.014999
v 0.179915 -0.352292 -25.000000
v 0.189863 -0.422672 -25.014999
v 0.187212 -0.423085 -25.000000
v 0.179915 -0.352292 -25.000000
v 0.179915 -0.352292 -25.000000
v 0.187212 -0.423085 -25.000000
v 0.179915 -0.352292 25.000000
v 0.187212 -0.423085 -25.000000
v 0.187212 -0.423085 25.000000
v 0.179915 -0.352292 25.000000
v 0.179915 -0.352292 25.000000
v 0.187212 -0.423085 25.000000
v 0.182589 -0.352102 25.014999
v 0.187212 -0.423085 25.000000
v 0.189863 -0.422672 25.014999
v 0.182589 -0.352102 25.014999
v 0.182589 -0.352102 25.014999
v 0.189863 -0.422672 25.014999
v 0.189895 -0.351584 25.025982
v 0.189863 -0.422672 25.014999
v 0.197106 -0.421543 25.025982
v 0.189895 -0.351584 25.025982
v 0.189895 -0.351584 25.025982
v 0.197106 -0.421543 25.025982
v 0.199875 -0.350875 25.029999
v 0.197106 -0.421543 25.025982
v 0.207000 -0.420000 25.029999
v 0.199875 -0.350875 25.029999
v 0.207000 -0.420000 -25.029999
v 0.217875 -0.471875 -25.029999
v 0.197106 -0.421543 -25.025980
v 0.217875 -0.471875 -25.029999
v 0.208286 -0.474874 -25.025980
v 0.197106 -0.421543 -25.025980
v 0.197106 -0.421543 -25.025980
v 0.208286 -0.474874 -25.025980
v 0.189863 -0.422672 -25.014999
v 0.208286 -0.474874 -25.025980
v 0.201267 -0.477070 -25.014999
v 0.189863 -0.422672 -25.014999
v 0.189863 -0.422672 -25.014999
v 0.201267 -0.477070 -25.014999
v 0.187212 -0.423085 -25.000000
v 0.201267 -0.477070 -25.014999
v 0.198698 -0.477873 -25.000000
v 0.187212 -0.423085 -25.000000
v 0.187212 -0.423085 -25.000000
v 0.198698 -0.477873 -25.000000
v 0.187212 -0.423085 25.000000
v 0.198698 -0.477873 -25.000000
v 0.198698 -0.477873 25.000000
v 0.187212 -0.423085 25.000000
v 0.187212 -0.423085 25.000000
v 0.198698 -0.477873 25.000000
v 0.189863 -0.422672 25.014999
v 0.198698 -0.477873 25.000000
v 0.201267 -0.477070 25.014999
v 0.189863 -0.422672 25.014999
v 0.189863 -0.422672 25.014999
v 0.201267 -0.477070 25.014999
v 0.197106 -0.421543 25.025982
v 0.201267 -0.477070 25.014999
v 0.208286 -0.474874 25.025982
v 0.197106 -0.421543 25.025982
v 0.197106 -0.421543 25.025982
v 0.208286 -0.474874 25.025982
v 0.207000 -0.420000 25.029999
v 0.208286 -0.474874 25.025982
v 0.217875 -0.471875 25.029999
v 0.207000 -0.420000 25.029999
v 0.217875 -0.471875 -25.029999
v 0.232500 -0.506500 -25.029999
v 0.208286 -0.474874 -25.025980
v 0.232500 -0.506500 -25.029999
v 0.225868 -0.516500 -25.025980
v 0.208286 -0.474874 -25.025980
v 0.208286 -0.474874 -25.025980
v 0.225868 -0.516500 -25.025980
v 0.201267 -0.477070 -25.014999
v 0.225868 -0.516500 -25.025980
v 0.221014 -0.523821 -25.014999
v 0.201267 -0.477070 -25.014999
v 0.201267 -0.477070 -25.014999
v 0.221014 -0.523821 -25.014999
v 0.198698 -0.477873 -25.000000
v 0.221014 -0.523821 -25.014999
v 0.219237 -0.526500 -25.000000
v 0.198698 -0.477873 -25.000000
v 0.198698 -0.477873 -25.000000
v 0.219237 -0.526500 -25.000000
v 0.198698 -0.477873 25.000000
v 0.219237 -0.526500 -25.000000
v 0.219237 -0.526500 25.000000
v 0.198698 -0.477873 25.000000
v 0.198698 -0.477873 25.000000
v 0.219237 -0.526500 25.000000
v 0.201267 -0.477070 25.014999
v 0.219237 -0.526500 25.000000
v 0.221014 -0.523821 25.014999
v 0.201267 -0.477070 25.014999
v 0.201267 -0.477070 25.014999
v 0.221014 -0.523821 25.014999
v 0.208286 -0.474874 25.025982
v 0.221014 -0.523821 25.014999
v 0.225868 -0.516500 25.025982
v 0.208286 -0.474874 25.025982
v 0.208286 -0.474874 25.025982
v 0.225868 -0.516500 25.025982
v 0.217875 -0.471875 25.029999
v 0.225868 -0.516500 25.025982
v 0.232500 -0.506500 25.029999
v 0.217875 -0.471875 25.029999
v 0.232500 -0.506500 -25.029999
v 0.390500 -0.506500 -25.029999
v 0.225868 -0.516500 -25.025980
v 0.390500 -0.506500 -25.029999
v 0.400500 -0.516500 -25.025980
v 0.225868 -0.516500 -25.025980
v 0.225868 -0.516500 -25.025980
v 0.400500 -0.516500 -25.025980
v 0.221014 -0.523821 -25.014999
v 0.400500 -0.516500 -25.025980
v 0.407821 -0.523821 -25.014999
v 0.221014 -0.523821 -25.014999
v 0.221014 -0.523821 -25.014999
v 0.407821 -0.523821 -25.014999
v 0.219237 -0.526500 -25.000000
v 0.407821 -0.523821 -25.014999
v 0.410500 -0.526500 -25.000000
v 0.219237 -0.526500 -25.000000
v 0.219237 -0.526500 -25.000000
v 0.410500 -0.526500 -25.000000
v 0.219237 -0.526500 25.000000
v 0.410500 -0.526500 -25.000000
v 0.410500 -0.526500 25.000000
v 0.219237 -0.526500 25.000000
v 0.219237 -0.526500 25.000000
v 0.410500 -0.526500 25.000000
v 0.221014 -0.523821 25.014999
v 0.410500 -0.526500 25.000000
v 0.407821 -0.523821 25.014999
v 0.221014 -0.523821 25.014999
v 0.221014 -0.523821 25.014999
v 0.407821 -0.523821 25.014999
v 0.225868 -0.516500 25.025982
v 0.407821 -0.523821 25.014999
v 0.400500 -0.516500 25.025982
v 0.225868 -0.516500 25.025982
v 0.225868 -0.516500 25.025982
v 0.400500 -0.516500 25.025982
v 0.232500 -0.506500 25.029999
v 0.400500 -0.516500 25.025982
v 0.390500 -0.506500 25.029999
v 0.232500 -0.506500 25.029999
v -0.017500 0.044500 -25.029999
v -0.252500 0.044500 -25.029999
v -0.017802 0.054500 -25.025980
v -0.252500 0.044500 -25.029999
v -0.242500 0.054500 -25.025980
v -0.017802 0.054500 -25.025980
v -0.017802 0.054500 -25.025980
v -0.242500 0.054500 -25.025980
v -0.018023 0.061821 -25.014999
v -0.242500 0.054500 -25.025980
v -0.235179 0.061821 -25.014999
v -0.018023 0.061821 -25.014999
v -0.018023 0.061821 -25.014999
v -0.235179 0.061821 -25.014999
v -0.018103 0.064500 -25.000000
v -0.235179 0.061821 -25.014999
v -0.232500 0.064500 -25.000000
v -0.018103 0.064500 -25.000000
v -0.018103 0.064500 -25.000000
v -0.232500 0.064500 -25.000000
v -0.018103 0.064500 25.000000
v -0.232500 0.064500 -25.000000
v -0.232500 0.064500 25.000000
v -0.018103 0.064500 25.000000
v -0.018103 0.064500 25.000000
v -0.232500 0.064500 25.000000
v -0.018023 0.061821 25.014999
v -0.232500 0.064500 25.000000
v -0.235179 0.061821 25.014999
v -0.018023 0.061821 25.014999
v -0.018023 0.061821 25.014999
v -0.235179 0.061821 25.014999
v -0.017802 0.054500 25.025982
v -0.235179 0.061821 25.014999
v -0.242500 0.054500 25.025982
v -0.017802 0.054500 25.025982
v -0.017802 0.054500 25.025982
v -0.242500 0.054500 25.025982
v -0.017500 0.044500 25.029999
v -0.242500 0.054500 25.025982
v -0.252500 0.044500 25.029999
v -0.017500 0.044500 25.029999
v -0.252500 0.044500 -25.029999
v -0.252500 0.389500 -25.029999
v -0.242500 0.054500 -25.025980
v -0.252500 0.389500 -25.029999
v -0.242500 0.379500 -25.025980
v -0.242500 0.054500 -25.025980
v -0.242500 0.054500 -25.025980
v -0.242500 0.379500 -25.025980
v -0.235179 0.061821 -25.014999
v -0.242500 0.379500 -25.025980
v -0.235179 0.372180 -25.014999
v -0.235179 0.061821 -25.014999
v -0.235179 0.061821 -25.014999
v -0.235179 0.372180 -25.014999
v -0.232500 0.064500 -25.000000
v -0.235179 0.372180 -25.014999
v -0.232500 0.369500 -25.000000
v -0.232500 0.064500 -25.000000
v -0.232500 0.064500 -25.000000
v -0.232500 0.369500 -25.000000
v -0.232500 0.064500 25.000000
v -0.232500 0.369500 -25.000000
v -0.232500 0.369500 25.000000
v -0.232500 0.064500 25.000000
v -0.232500 0.064500 25.000000
v -0.232500 0.369500 25.000000
v -0.235179 0.061821 25.014999
v -0.232500 0.369500 25.000000
v -0.235179 0.372180 25.014999
v -0.235179 0.061821 25.014999
v -0.235179 0.061821 25.014999
v -0.235179 0.372180 25.014999
v -0.242500 0.054500 25.025982
v -0.235179 0.372180 25.014999
v -0.242500 0.379500 25.025982
v -0.242500 0.054500 25.025982
v -0.242500 0.054500 25.025982
v -0.242500 0.379500 25.025982
v -0.252500 0.044500 25.029999
v -0.242500 0.379500 25.025982
v -0.252500 0.389500 25.029999
v -0.252500 0.044500 25.029999
v -0.252500 0.389500 -25.029999
v -0.017500 0.389500 -25.029999
v -0.242500 0.379500 -25.025980
v -0.017500 0.389500 -25.029999
v -0.017760 0.379500 -25.025980
v -0.242500 0.379500 -25.025980
v -0.242500 0.379500 -25.025980
v -0.017760 0.379500 -25.025980
v -0.235179 0.372180 -25.014999
v -0.017760 0.379500 -25.025980
v -0.017950 0.372180 -25.014999
v -0.235179 0.372180 -25.014999
v -0.235179 0.372180 -25.014999
v -0.017950 0.372180 -25.014999
v -0.232500 0.369500 -25.000000
v -0.017950 0.372180 -25.014999
v -0.018020 0.369500 -25.000000
v -0.232500 0.369500 -25.000000
v -0.232500 0.369500 -25.000000
v -0.018020 0.369500 -25.000000
v -0.232500 0.369500 25.000000
v -0.018020 0.369500 -25.000000
v -0.018020 0.369500 25.000000
v -0.232500 0.369500 25.000000
v -0.232500 0.369500 25.000000
v -0.018020 0.369500 25.000000
v -0.235179 0.372180 25.014999
v -0.018020 0.369500 25.000000
v -0.017950 0.372180 25.014999
v -0.235179 0.372180 25.014999
v -0.235179 0.372180 25.014999
v -0.017950 0.372180 25.014999
v -0.242500 0.379500 25.025982
v -0.017950 0.372180 25.014999
v -0.017760 0.379500 25.025982
v -0.242500 0.379500 25.025982
v -0.242500 0.379500 25.025982
v -0.017760 0.379500 25.025982
v -0.252500 0.389500 25.029999
v -0.017760 0.379500 25.025982
v -0.017500 0.389500 25.029999
v -0.252500 0.389500 25.029999
v -0.017500 0.389500 -25.029999
v 0.026937 0.387187 -25.029999
v -0.017760 0.379500 -25.025980
v 0.026937 0.387187 -25.029999
v 0.025846 0.377231 -25.025980
v -0.017760 0.379500 -25.025980
v -0.017760 0.379500 -25.025980
v 0.025846 0.377231 -25.025980
v -0.017950 0.372180 -25.014999
v 0.025846 0.377231 -25.025980
v 0.025047 0.369942 -25.014999
v -0.017950 0.372180 -25.014999
v -0.017950 0.372180 -25.014999
v 0.025047 0.369942 -25.014999
v -0.018020 0.369500 -25.000000
v 0.025047 0.369942 -25.014999
v 0.024755 0.367274 -25.000000
v -0.018020 0.369500 -25.000000
v -0.018020 0.369500 -25.000000
v 0.024755 0.367274 -25.000000
v -0.018020 0.369500 25.000000
v 0.024755 0.367274 -25.000000
v 0.024755 0.367274 25.000000
v -0.018020 0.369500 25.000000
v -0.018020 0.369500 25.000000
v 0.024755 0.367274 25.000000
v -0.017950 0.372180 25.014999
v 0.024755 0.367274 25.000000
v 0.025047 0.369942 25.014999
v -0.017950 0.372180 25.014999
v -0.017950 0.372180 25.014999
v 0.025047 0.369942 25.014999
v -0.017760 0.379500 25.025982
v 0.025047 0.369942 25.014999
v 0.025846 0.377231 25.025982
v -0.017760 0.379500 25.025982
v -0.017760 0.379500 25.025982
v 0.025846 0.377231 25.025982
v -0.017500 0.389500 25.029999
v 0.025846 0.377231 25.025982
v 0.026937 0.387187 25.029999
v -0.017500 0.389500 25.029999
v 0.026937 0.387187 -25.029999
v 0.068250 0.380250 -25.029999
v 0.025846 0.377231 -25.025980
v 0.068250 0.380250 -25.029999
v 0.065964 0.370494 -25.025980
v 0.025846 0.377231 -25.025980
v 0.025846 0.377231 -25.025980
v 0.065964 0.370494 -25.025980
v 0.025047 0.369942 -25.014999
v 0.065964 0.370494 -25.025980
v 0.064290 0.363352 -25.014999
v 0.025047 0.369942 -25.014999
v 0.025047 0.369942 -25.014999
v 0.064290 0.363352 -25.014999
v 0.024755 0.367274 -25.000000
v 0.064290 0.363352 -25.014999
v 0.063677 0.360738 -25.000000
v 0.024755 0.367274 -25.000000
v 0.024755 0.367274 -25.000000
v 0.063677 0.360738 -25.000000
v 0.024755 0.367274 25.000000
v 0.063677 0.360738 -25.000000
v 0.063677 0.360738 25.000000
v 0.024755 0.367274 25.000000
v 0.024755 0.367274 25.000000
v 0.063677 0.360738 25.000000
v 0.025047 0.369942 25.014999
v 0.063677 0.360738 25.000000
v 0.064290 0.363352 25.014999
v 0.025047 0.369942 25.014999
v 0.025047 0.369942 25.014999
v 0.064290 0.363352 25.014999
v 0.025846 0.377231 25.025982
v 0.064290 0.363352 25.014999
v 0.065964 0.370494 25.025982
v 0.025846 0.377231 25.025982
v 0.025846 0.377231 25.025982
v 0.065964 0.370494 25.025982
v 0.026937 0.387187 25.029999
v 0.065964 0.370494 25.025982
v 0.068250 0.380250 25.029999
v 0.026937 0.387187 25.029999
v 0.068250 0.380250 -25.029999
v 0.106438 0.368688 -25.029999
v 0.065964 0.370494 -25.025980
v 0.106438 0.368688 -25.029999
v 0.102876 0.359318 -25.025980
v 0.065964 0.370494 -25.025980
v 0.065964 0.370494 -25.025980
v 0.102876 0.359318 -25.025980
v 0.064290 0.363352 -25.014999
v 0.102876 0.359318 -25.025980
v 0.100268 0.352458 -25.014999
v 0.064290 0.363352 -25.014999
v 0.064290 0.363352 -25.014999
v 0.100268 0.352458 -25.014999
v 0.063677 0.360738 -25.000000
v 0.100268 0.352458 -25.014999
v 0.099314 0.349948 -25.000000
v 0.063677 0.360738 -25.000000
v 0.063677 0.360738 -25.000000
v 0.099314 0.349948 -25.000000
v 0.063677 0.360738 25.000000
v 0.099314 0.349948 -25.000000
v 0.099314 0.349948 25.000000
v 0.063677 0.360738 25.000000
v 0.063677 0.360738 25.000000
v 0.099314 0.349948 25.000000
v 0.064290 0.363352 25.014999
v 0.099314 0.349948 25.000000
v 0.100268 0.352458 25.014999
v 0.064290 0.363352 25.014999
v 0.064290 0.363352 25.014999
v 0.100268 0.352458 25.014999
v 0.065964 0.370494 25.025982
v 0.100268 0.352458 25.014999
v 0.102876 0.359318 25.025982
v 0.065964 0.370494 25.025982
v 0.065964 0.370494 25.025982
v 0.102876 0.359318 25.025982
v 0.068250 0.380250 25.029999
v 0.102876 0.359318 25.025982
v 0.106438 0.368688 25.029999
v 0.068250 0.380250 25.029999
v 0.106438 0.368688 -25.029999
v 0.141500 0.352500 -25.029999
v 0.102876 0.359318 -25.025980
v 0.141500 0.352500 -25.029999
v 0.136550 0.343771 -25.025980
v 0.102876 0.359318 -25.025980
v 0.102876 0.359318 -25.025980
v 0.136550 0.343771 -25.025980
v 0.100268 0.352458 -25.014999
v 0.136550 0.343771 -25.025980
v 0.132927 0.337381 -25.014999
v 0.100268 0.352458 -25.014999
v 0.100268 0.352458 -25.014999
v 0.132927 0.337381 -25.014999
v 0.099314 0.349948 -25.000000
v 0.132927 0.337381 -25.014999
v 0.131600 0.335042 -25.000000
v 0.099314 0.349948 -25.000000
v 0.099314 0.349948 -25.000000
v 0.131600 0.335042 -25.000000
v 0.099314 0.349948 25.000000
v 0.131600 0.335042 -25.000000
v 0.131600 0.335042 25.000000
v 0.099314 0.349948 25.000000
v 0.099314 0.349948 25.000000
v 0.131600 0.335042 25.000000
v 0.100268 0.352458 25.014999
v 0.131600 0.335042 25.000000
v 0.132927 0.337381 25.014999
v 0.100268 0.352458 25.014999
v 0.100268 0.352458 25.014999
v 0.132927 0.337381 25.014999
v 0.102876 0.359318 25.025982
v 0.132927 0.337381 25.014999
v 0.136550 0.343771 25.025982
v 0.102876 0.359318 25.025982
v 0.102876 0.359318 25.025982
v 0.136550 0.343771 25.025982
v 0.106438 0.368688 25.029999
v 0.136550 0.343771 25.025982
v 0.141500 0.352500 25.029999
v 0.106438 0.368688 25.029999
v 0.141500 0.352500 -25.029999
v 0.177375 0.328000 -25.029999
v 0.136550 0.343771 -25.025980
v 0.177375 0.328000 -25.029999
v 0.170671 0.320469 -25.025980
v 0.136550 0.343771 -25.025980
v 0.136550 0.343771 -25.025980
v 0.170671 0.320469 -25.025980
v 0.132927 0.337381 -25.014999
v 0.170671 0.320469 -25.025980
v 0.165763 0.314956 -25.014999
v 0.132927 0.337381 -25.014999
v 0.132927 0.337381 -25.014999
v 0.165763 0.314956 -25.014999
v 0.131600 0.335042 -25.000000
v 0.165763 0.314956 -25.014999
v 0.163967 0.312938 -25.000000
v 0.131600 0.335042 -25.000000
v 0.131600 0.335042 -25.000000
v 0.163967 0.312938 -25.000000
v 0.131600 0.335042 25.000000
v 0.163967 0.312938 -25.000000
v 0.163967 0.312938 25.000000
v 0.131600 0.335042 25.000000
v 0.131600 0.335042 25.000000
v 0.163967 0.312938 25.000000
v 0.132927 0.337381 25.014999
v 0.163967 0.312938 25.000000
v 0.165763 0.314956 25.014999
v 0.132927 0.337381 25.014999
v 0.132927 0.337381 25.014999
v 0.165763 0.314956 25.014999
v 0.136550 0.343771 25.025982
v 0.165763 0.314956 25.014999
v 0.170671 0.320469 25.025982
v 0.136550 0.343771 25.025982
v 0.136550 0.343771 25.025982
v 0.170671 0.320469 25.025982
v 0.141500 0.352500 25.029999
v 0.170671 0.320469 25.025982
v 0.177375 0.328000 25.029999
v 0.141500 0.352500 25.029999
v 0.177375 0.328000 -25.029999
v 0.203000 0.298500 -25.029999
v 0.170671 0.320469 -25.025980
v 0.203000 0.298500 -25.029999
v 0.194473 0.293068 -25.025980
v 0.170671 0.320469 -25.025980
v 0.170671 0.320469 -25.025980
v 0.194473 0.293068 -25.025980
v 0.165763 0.314956 -25.014999
v 0.194473 0.293068 -25.025980
v 0.188231 0.289091 -25.014999
v 0.165763 0.314956 -25.014999
v 0.165763 0.314956 -25.014999
v 0.188231 0.289091 -25.014999
v 0.163967 0.312938 -25.000000
v 0.188231 0.289091 -25.014999
v 0.185946 0.287635 -25.000000
v 0.163967 0.312938 -25.000000
v 0.163967 0.312938 -25.000000
v 0.185946 0.287635 -25.000000
v 0.163967 0.312938 25.000000
v 0.185946 0.287635 -25.000000
v 0.185946 0.287635 25.000000
v 0.163967 0.312938 25.000000
v 0.163967 0.312938 25.000000
v 0.185946 0.287635 25.000000
v 0.165763 0.314956 25.014999
v 0.185946 0.287635 25.000000
v 0.188231 0.289091 25.014999
v 0.165763 0.314956 25.014999
v 0.165763 0.314956 25.014999
v 0.188231 0.289091 25.014999
v 0.170671 0.320469 25.025982
v 0.188231 0.289091 25.014999
v 0.194473 0.293068 25.025982
v 0.170671 0.320469 25.025982
v 0.170671 0.320469 25.025982
v 0.194473 0.293068 25.025982
v 0.177375 0.328000 25.029999
v 0.194473 0.293068 25.025982
v 0.203000 0.298500 25.029999
v 0.177375 0.328000 25.029999
v 0.203000 0.298500 -25.029999
v 0.218375 0.264000 -25.029999
v 0.194473 0.293068 -25.025980
v 0.218375 0.264000 -25.029999
v 0.208646 0.261264 -25.025980
v 0.194473 0.293068 -25.025980
v 0.194473 0.293068 -25.025980
v 0.208646 0.261264 -25.025980
v 0.188231 0.289091 -25.014999
v 0.208646 0.261264 -25.025980
v 0.201524 0.259261 -25.014999
v 0.188231 0.289091 -25.014999
v 0.188231 0.289091 -25.014999
v 0.201524 0.259261 -25.014999
v 0.185946 0.287635 -25.000000
v 0.201524 0.259261 -25.014999
v 0.198917 0.258528 -25.000000
v 0.185946 0.287635 -25.000000
v 0.185946 0.287635 -25.000000
v 0.198917 0.258528 -25.000000
v 0.185946 0.287635 25.000000
v 0.198917 0.258528 -25.000000
v 0.198917 0.258528 25.000000
v 0.185946 0.287635 25.000000
v 0.185946 0.287635 25.000000
v 0.198917 0.258528 25.000000
v 0.188231 0.289091 25.014999
v 0.198917 0.258528 25.000000
v 0.201524 0.259261 25.014999
v 0.188231 0.289091 25.014999
v 0.188231 0.289091 25.014999
v 0.201524 0.259261 25.014999
v 0.194473 0.293068 25.025982
v 0.201524 0.259261 25.014999
v 0.208646 0.261264 25.025982
v 0.194473 0.293068 25.025982
v 0.194473 0.293068 25.025982
v 0.208646 0.261264 25.025982
v 0.203000 0.298500 25.029999
v 0.208646 0.261264 25.025982
v 0.218375 0.264000 25.029999
v 0.203000 0.298500 25.029999
v 0.218375 0.264000 -25.029999
v 0.223500 0.224500 -25.029999
v 0.208646 0.261264 -25.025980
v 0.223500 0.224500 -25.029999
v 0.213420 0.224472 -25.025980
v 0.208646 0.261264 -25.025980
v 0.208646 0.261264 -25.025980
v 0.213420 0.224472 -25.025980
v 0.201524 0.259261 -25.014999
v 0.213420 0.224472 -25.025980
v 0.206041 0.224451 -25.014999
v 0.201524 0.259261 -25.014999
v 0.201524 0.259261 -25.014999
v 0.206041 0.224451 -25.014999
v 0.198917 0.258528 -25.000000
v 0.206041 0.224451 -25.014999
v 0.203340 0.224443 -25.000000
v 0.198917 0.258528 -25.000000
v 0.198917 0.258528 -25.000000
v 0.203340 0.224443 -25.000000
v 0.198917 0.258528 25.000000
v 0.203340 0.224443 -25.000000
v 0.203340 0.224443 25.000000
v 0.198917 0.258528 25.000000
v 0.198917 0.258528 25.000000
v 0.203340 0.224443 25.000000
v 0.201524 0.259261 25.014999
v 0.203340 0.224443 25.000000
v 0.206041 0.224451 25.014999
v 0.201524 0.259261 25.014999
v 0.201524 0.259261 25.014999
v 0.206041 0.224451 25.014999
v 0.208646 0.261264 25.025982
v 0.206041 0.224451 25.014999
v 0.213420 0.224472 25.025982
v 0.208646 0.261264 25.025982
v 0.208646 0.261264 25.025982
v 0.213420 0.224472 25.025982
v 0.218375 0.264000 25.029999
v 0.213420 0.224472 25.025982
v 0.223500 0.224500 25.029999
v 0.218375 0.264000 25.029999
v 0.223500 0.224500 -25.029999
v 0.218438 0.183688 -25.029999
v 0.213420 0.224472 -25.025980
v 0.218438 0.183688 -25.029999
v 0.208682 0.186274 -25.025980
v 0.213420 0.224472 -25.025980
v 0.213420 0.224472 -25.025980
v 0.208682 0.186274 -25.025980
v 0.206041 0.224451 -25.014999
v 0.208682 0.186274 -25.025980
v 0.201540 0.188167 -25.014999
v 0.206041 0.224451 -25.014999
v 0.206041 0.224451 -25.014999
v 0.201540 0.188167 -25.014999
v 0.203340 0.224443 -25.000000
v 0.201540 0.188167 -25.014999
v 0.198926 0.188861 -25.000000
v 0.203340 0.224443 -25.000000
v 0.203340 0.224443 -25.000000
v 0.198926 0.188861 -25.000000
v 0.203340 0.224443 25.000000
v 0.198926 0.188861 -25.000000
v 0.198926 0.188861 25.000000
v 0.203340 0.224443 25.000000
v 0.203340 0.224443 25.000000
v 0.198926 0.188861 25.000000
v 0.206041 0.224451 25.014999
v 0.198926 0.188861 25.000000
v 0.201540 0.188167 25.014999
v 0.206041 0.224451 25.014999
v 0.206041 0.224451 25.014999
v 0.201540 0.188167 25.014999
v 0.213420 0.224472 25.025982
v 0.201540 0.188167 25.014999
v 0.208682 0.186274 25.025982
v 0.213420 0.224472 25.025982
v 0.213420 0.224472 25.025982
v 0.208682 0.186274 25.025982
v 0.223500 0.224500 25.029999
v 0.208682 0.186274 25.025982
v 0.218438 0.183688 25.029999
v 0.223500 0.224500 25.029999
v 0.218438 0.183688 -25.029999
v 0.203250 0.147250 -25.029999
v 0.208682 0.186274 -25.025980
v 0.203250 0.147250 -25.029999
v 0.194549 0.152367 -25.025980
v 0.208682 0.186274 -25.025980
v 0.208682 0.186274 -25.025980
v 0.194549 0.152367 -25.025980
v 0.201540 0.188167 -25.014999
v 0.194549 0.152367 -25.025980
v 0.188179 0.156113 -25.014999
v 0.201540 0.188167 -25.014999
v 0.201540 0.188167 -25.014999
v 0.188179 0.156113 -25.014999
v 0.198926 0.188861 -25.000000
v 0.188179 0.156113 -25.014999
v 0.185848 0.157484 -25.000000
v 0.198926 0.188861 -25.000000
v 0.198926 0.188861 -25.000000
v 0.185848 0.157484 -25.000000
v 0.198926 0.188861 25.000000
v 0.185848 0.157484 -25.000000
v 0.185848 0.157484 25.000000
v 0.198926 0.188861 25.000000
v 0.198926 0.188861 25.000000
v 0.185848 0.157484 25.000000
v 0.201540 0.188167 25.014999
v 0.185848 0.157484 25.000000
v 0.188179 0.156113 25.014999
v 0.201540 0.188167 25.014999
v 0.201540 0.188167 25.014999
v 0.188179 0.156113 25.014999
v 0.208682 0.186274 25.025982
v 0.188179 0.156113 25.014999
v 0.194549 0.152367 25.025982
v 0.208682 0.186274 25.025982
v 0.208682 0.186274 25.025982
v 0.194549 0.152367 25.025982
v 0.218438 0.183688 25.029999
v 0.194549 0.152367 25.025982
v 0.203250 0.147250 25.029999
v 0.218438 0.183688 25.029999
v 0.203250 0.147250 -25.029999
v 0.177938 0.115187 -25.029999
v 0.194549 0.152367 -25.025980
v 0.177938 0.115187 -25.029999
v 0.170834 0.122327 -25.025980
v 0.194549 0.152367 -25.025980
v 0.194549 0.152367 -25.025980
v 0.170834 0.122327 -25.025980
v 0.188179 0.156113 -25.014999
v 0.170834 0.122327 -25.025980
v 0.165633 0.127554 -25.014999
v 0.188179 0.156113 -25.014999
v 0.188179 0.156113 -25.014999
v 0.165633 0.127554 -25.014999
v 0.185848 0.157484 -25.000000
v 0.165633 0.127554 -25.014999
v 0.163730 0.129467 -25.000000
v 0.185848 0.157484 -25.000000
v 0.185848 0.157484 -25.000000
v 0.163730 0.129467 -25.000000
v 0.185848 0.157484 25.000000
v 0.163730 0.129467 -25.000000
v 0.163730 0.129467 25.000000
v 0.185848 0.157484 25.000000
v 0.185848 0.157484 25.000000
v 0.163730 0.129467 25.000000
v 0.188179 0.156113 25.014999
v 0.163730 0.129467 25.000000
v 0.165633 0.127554 25.014999
v 0.188179 0.156113 25.014999
v 0.188179 0.156113 25.014999
v 0.165633 0.127554 25.014999
v 0.194549 0.152367 25.025982
v 0.165633 0.127554 25.014999
v 0.170834 0.122327 25.025982
v 0.194549 0.152367 25.025982
v 0.194549 0.152367 25.025982
v 0.170834 0.122327 25.025982
v 0.203250 0.147250 25.029999
v 0.170834 0.122327 25.025982
v 0.177938 0.115187 25.029999
v 0.203250 0.147250 25.029999
v 0.177938 0.115187 -25.029999
v 0.142500 0.087500 -25.029999
v 0.170834 0.122327 -25.025980
v 0.142500 0.087500 -25.029999
v 0.137038 0.095923 -25.025980
v 0.170834 0.122327 -25.025980
v 0.170834 0.122327 -25.025980
v 0.137038 0.095923 -25.025980
v 0.165633 0.127554 -25.014999
v 0.137038 0.095923 -25.025980
v 0.133040 0.102089 -25.014999
v 0.165633 0.127554 -25.014999
v 0.165633 0.127554 -25.014999
v 0.133040 0.102089 -25.014999
v 0.163730 0.129467 -25.000000
v 0.133040 0.102089 -25.014999
v 0.131577 0.104346 -25.000000
v 0.163730 0.129467 -25.000000
v 0.163730 0.129467 -25.000000
v 0.131577 0.104346 -25.000000
v 0.163730 0.129467 25.000000
v 0.131577 0.104346 -25.000000
v 0.131577 0.104346 25.000000
v 0.163730 0.129467 25.000000
v 0.163730 0.129467 25.000000
v 0.131577 0.104346 25.000000
v 0.165633 0.127554 25.014999
v 0.131577 0.104346 25.000000
v 0.133040 0.102089 25.014999
v 0.165633 0.127554 25.014999
v 0.165633 0.127554 25.014999
v 0.133040 0.102089 25.014999
v 0.170834 0.122327 25.025982
v 0.133040 0.102089 25.014999
v 0.137038 0.095923 25.025982
v 0.170834 0.122327 25.025982
v 0.170834 0.122327 25.025982
v 0.137038 0.095923 25.025982
v 0.177938 0.115187 25.029999
v 0.137038 0.095923 25.025982
v 0.142500 0.087500 25.029999
v 0.177938 0.115187 25.029999
v 0.142500 0.087500 -25.029999
v 0.107000 0.068688 -25.029999
v 0.137038 0.095923 -25.025980
v 0.107000 0.068688 -25.029999
v 0.102988 0.077879 -25.025980
v 0.137038 0.095923 -25.025980
v 0.137038 0.095923 -25.025980
v 0.102988 0.077879 -25.025980
v 0.133040 0.102089 -25.014999
v 0.102988 0.077879 -25.025980
v 0.100051 0.084607 -25.014999
v 0.133040 0.102089 -25.014999
v 0.133040 0.102089 -25.014999
v 0.100051 0.084607 -25.014999
v 0.131577 0.104346 -25.000000
v 0.100051 0.084607 -25.014999
v 0.098976 0.087070 -25.000000
v 0.131577 0.104346 -25.000000
v 0.131577 0.104346 -25.000000
v 0.098976 0.087070 -25.000000
v 0.131577 0.104346 25.000000
v 0.098976 0.087070 -25.000000
v 0.098976 0.087070 25.000000
v 0.131577 0.104346 25.000000
v 0.131577 0.104346 25.000000
v 0.098976 0.087070 25.000000
v 0.133040 0.102089 25.014999
v 0.098976 0.087070 25.000000
v 0.100051 0.084607 25.014999
v 0.133040 0.102089 25.014999
v 0.133040 0.102089 25.014999
v 0.100051 0.084607 25.014999
v 0.137038 0.095923 25.025982
v 0.100051 0.084607 25.014999
v 0.102988 0.077879 25.025982
v 0.137038 0.095923 25.025982
v 0.137038 0.095923 25.025982
v 0.102988 0.077879 25.025982
v 0.142500 0.087500 25.029999
v 0.102988 0.077879 25.025982
v 0.107000 0.068688 25.029999
v 0.142500 0.087500 25.029999
v 0.107000 0.068688 -25.029999
v 0.068500 0.055250 -25.029999
v 0.102988 0.077879 -25.025980
v 0.068500 0.055250 -25.029999
v 0.065885 0.064929 -25.025980
v 0.102988 0.077879 -25.025980
v 0.102988 0.077879 -25.025980
v 0.065885 0.064929 -25.025980
v 0.100051 0.084607 -25.014999
v 0.065885 0.064929 -25.025980
v 0.063971 0.072015 -25.014999
v 0.100051 0.084607 -25.014999
v 0.100051 0.084607 -25.014999
v 0.063971 0.072015 -25.014999
v 0.098976 0.087070 -25.000000
v 0.063971 0.072015 -25.014999
v 0.063271 0.074608 -25.000000
v 0.098976 0.087070 -25.000000
v 0.098976 0.087070 -25.000000
v 0.063271 0.074608 -25.000000
v 0.098976 0.087070 25.000000
v 0.063271 0.074608 -25.000000
v 0.063271 0.074608 25.000000
v 0.098976 0.087070 25.000000
v 0.098976 0.087070 25.000000
v 0.063271 0.074608 25.000000
v 0.100051 0.084607 25.014999
v 0.063271 0.074608 25.000000
v 0.063971 0.072015 25.014999
v 0.100051 0.084607 25.014999
v 0.100051 0.084607 25.014999
v 0.063971 0.072015 25.014999
v 0.102988 0.077879 25.025982
v 0.063971 0.072015 25.014999
v 0.065885 0.064929 25.025982
v 0.102988 0.077879 25.025982
v 0.102988 0.077879 25.025982
v 0.065885 0.064929 25.025982
v 0.107000 0.068688 25.029999
v 0.065885 0.064929 25.025982
v 0.068500 0.055250 25.029999
v 0.107000 0.068688 25.029999
v 0.068500 0.055250 -25.029999
v 0.027000 0.047188 -25.029999
v 0.065885 0.064929 -25.025980
v 0.027000 0.047188 -25.029999
v 0.025740 0.057130 -25.025980
v 0.065885 0.064929 -25.025980
v 0.065885 0.064929 -25.025980
v 0.025740 0.057130 -25.025980
v 0.063971 0.072015 -25.014999
v 0.025740 0.057130 -25.025980
v 0.024817 0.064408 -25.014999
v 0.063971 0.072015 -25.014999
v 0.063971 0.072015 -25.014999
v 0.024817 0.064408 -25.014999
v 0.063271 0.074608 -25.000000
v 0.024817 0.064408 -25.014999
v 0.024479 0.067072 -25.000000
v 0.063271 0.074608 -25.000000
v 0.063271 0.074608 -25.000000
v 0.024479 0.067072 -25.000000
v 0.063271 0.074608 25.000000
v 0.024479 0.067072 -25.000000
v 0.024479 0.067072 25.000000
v 0.063271 0.074608 25.000000
v 0.063271 0.074608 25.000000
v 0.024479 0.067072 25.000000
v 0.063971 0.072015 25.014999
v 0.024479 0.067072 25.000000
v 0.024817 0.064408 25.014999
v 0.063971 0.072015 25.014999
v 0.063971 0.072015 25.014999
v 0.024817 0.064408 25.014999
v 0.065885 0.064929 25.025982
v 0.024817 0.064408 25.014999
v 0.025740 0.057130 25.025982
v 0.065885 0.064929 25.025982
v 0.065885 0.064929 25.025982
v 0.025740 0.057130 25.025982
v 0.068500 0.055250 25.029999
v 0.025740 0.057130 25.025982
v 0.027000 0.047188 25.029999
v 0.068500 0.055250 25.029999
v 0.027000 0.047188 -25.029999
v -0.017500 0.044500 -25.029999
v 0.025740 0.057130 -25.025980
v -0.017500 0.044500 -25.029999
v -0.017802 0.054500 -25.025980
v 0.025740 0.057130 -25.025980
v 0.025740 0.057130 -25.025980
v -0.017802 0.054500 -25.025980
v 0.024817 0.064408 -25.014999
v -0.017802 0.054500 -25.025980
v -0.018023 0.061821 -25.014999
v 0.024817 0.064408 -25.014999
v 0.024817 0.064408 -25.014999
v -0.018023 0.061821 -25.014999
v 0.024479 0.067072 -25.000000
v -0.018023 0.061821 -25.014999
v -0.018103 0.064500 -25.000000
v 0.024479 0.067072 -25.000000
v 0.024479 0.067072 -25.000000
v -0.018103 0.064500 -25.000000
v 0.024479 0.067072 25.000000
v -0.018103 0.064500 -25.000000
v -0.018103 0.064500 25.000000
v 0.024479 0.067072 25.000000
v 0.024479 0.067072 25.000000
v -0.018103 0.064500 25.000000
v 0.024817 0.064408 25.014999
v -0.018103 0.064500 25.000000
v -0.018023 0.061821 25.014999
v 0.024817 0.064408 25.014999
v 0.024817 0.064408 25.014999
v -0.018023 0.061821 25.014999
v 0.025740 0.057130 25.025982
v -0.018023 0.061821 25.014999
v -0.017802 0.054500 25.025982
v 0.025740 0.057130 25.025982
v 0.025740 0.057130 25.025982
v -0.017802 0.054500 25.025982
v 0.027000 0.047188 25.029999
v -0.017802 0.054500 25.025982
v -0.017500 0.044500 25.029999
v 0.027000 0.047188 25.029999