# Generated mesh
# vertices: 218, faces: 218

v 0.181353 -0.554046 0.000000
v 0.023353 -0.554046 0.000000
v 0.019345 -0.547007 0.000000
v 0.015571 -0.538890 0.000000
v 0.012032 -0.529695 0.000000
v 0.008728 -0.519421 0.000000
v 0.005657 -0.508070 0.000000
v 0.002821 -0.495640 0.000000
v 0.000220 -0.482132 0.000000
v -0.002147 -0.467546 0.000000
v -0.004280 -0.451882 0.000000
v -0.006179 -0.435140 0.000000
v -0.007843 -0.417320 0.000000
v -0.009272 -0.398421 0.000000
v -0.010468 -0.378445 0.000000
v -0.011429 -0.357390 0.000000
v -0.012155 -0.335257 0.000000
v -0.012647 -0.312046 0.000000
v -0.013585 -0.288917 0.000000
v -0.015897 -0.267281 0.000000
v -0.019585 -0.247136 0.000000
v -0.024648 -0.228484 0.000000
v -0.031085 -0.211324 0.000000
v -0.038897 -0.195656 0.000000
v -0.048085 -0.181480 0.000000
v -0.058647 -0.168796 0.000000
v -0.070585 -0.157605 0.000000
v -0.083898 -0.147906 0.000000
v -0.098585 -0.139699 0.000000
v -0.114647 -0.132984 0.000000
v -0.132085 -0.127761 0.000000
v -0.150898 -0.124031 0.000000
v -0.171085 -0.121792 0.000000
v -0.192648 -0.121046 0.000000
v -0.461648 -0.121046 0.000000
v -0.461648 -0.554046 0.000000
v -0.599648 -0.554046 0.000000
v -0.599648 0.458954 0.000000
v -0.203648 0.458954 0.000000
v -0.185952 0.458692 0.000000
v -0.168616 0.457907 0.000000
v -0.151640 0.456598 0.000000
v -0.135023 0.454766 0.000000
v -0.118765 0.452411 0.000000
v -0.102866 0.449532 0.000000
v -0.087327 0.446130 0.000000
v -0.072148 0.442204 0.000000
v -0.057327 0.437754 0.000000
v -0.042866 0.432782 0.000000
v -0.028765 0.427286 0.000000
v -0.015023 0.421266 0.000000
v -0.001640 0.414723 0.000000
v 0.011384 0.407657 0.000000
v 0.024048 0.400067 0.000000
v 0.036352 0.391954 0.000000
v 0.050036 0.381973 0.000000
v 0.062837 0.371532 0.000000
v 0.074755 0.360629 0.000000
v 0.085790 0.349266 0.000000
v 0.095942 0.337442 0.000000
v 0.105212 0.325157 0.000000
v 0.113599 0.312411 0.000000
v 0.121102 0.299204 0.000000
v 0.127724 0.285536 0.000000
v 0.133462 0.271407 0.000000
v 0.138317 0.256817 0.000000
v 0.142290 0.241766 0.000000
v 0.145380 0.226254 0.000000
v 0.147587 0.210282 0.000000
v 0.148911 0.193848 0.000000
v 0.149353 0.176954 0.000000
v 0.149204 0.167993 0.000000
v 0.148759 0.159110 0.000000
v 0.148017 0.150305 0.000000
v 0.146978 0.141579 0.000000
v 0.145642 0.132930 0.000000
v 0.144009 0.124360 0.000000
v 0.142079 0.115868 0.000000
v 0.139852 0.107454 0.000000
v 0.137329 0.099118 0.000000
v 0.134509 0.090860 0.000000
v 0.131392 0.082680 0.000000
v 0.127978 0.074579 0.000000
v 0.124267 0.066555 0.000000
v 0.120259 0.058610 0.000000
v 0.115954 0.050743 0.000000
v 0.111353 0.042954 0.000000
v 0.106614 0.035200 0.000000
v 0.101649 0.027688 0.000000
v 0.096458 0.020419 0.000000
v 0.091040 0.013391 0.000000
v 0.085395 0.006606 0.000000
v 0.079524 0.000063 0.000000
v 0.073427 -0.006238 0.000000
v 0.067103 -0.012296 0.000000
v 0.060552 -0.018113 0.000000
v 0.053774 -0.023687 0.000000
v 0.046770 -0.029019 0.000000
v 0.039540 -0.034109 0.000000
v 0.032083 -0.038956 0.000000
v 0.024399 -0.043562 0.000000
v 0.016489 -0.047925 0.000000
v 0.008352 -0.052046 0.000000
v 0.019095 -0.055843 0.000000
v 0.029321 -0.060234 0.000000
v 0.039032 -0.065218 0.000000
v 0.048228 -0.070796 0.000000
v 0.056907 -0.076968 0.000000
v 0.065071 -0.083734 0.000000
v 0.072720 -0.091093 0.000000
v 0.079852 -0.099046 0.000000
v 0.086470 -0.107593 0.000000
v 0.092571 -0.116734 0.000000
v 0.098157 -0.126468 0.000000
v 0.103228 -0.136796 0.000000
v 0.107782 -0.147718 0.000000
v 0.111821 -0.159234 0.000000
v 0.115345 -0.171343 0.000000
v 0.118352 -0.184046 0.000000
v 0.118864 -0.186792 0.000000
v 0.119399 -0.190531 0.000000
v 0.119958 -0.195261 0.000000
v 0.120540 -0.200984 0.000000
v 0.121145 -0.207699 0.000000
v 0.121774 -0.215406 0.000000
v 0.122427 -0.224105 0.000000
v 0.123103 -0.233796 0.000000
v 0.123802 -0.244480 0.000000
v 0.124524 -0.256156 0.000000
v 0.125270 -0.268824 0.000000
v 0.126040 -0.282484 0.000000
v 0.126833 -0.297136 0.000000
v 0.127649 -0.312781 0.000000
v 0.128489 -0.329417 0.000000
v 0.129352 -0.347046 0.000000
v 0.130376 -0.364746 0.000000
v 0.131696 -0.381593 0.000000
v 0.133313 -0.397589 0.000000
v 0.135228 -0.412734 0.000000
v 0.137438 -0.427027 0.000000
v 0.139946 -0.440468 0.000000
v 0.142751 -0.453058 0.000000
v 0.145853 -0.464796 0.000000
v 0.149251 -0.475683 0.000000
v 0.152946 -0.485718 0.000000
v 0.156938 -0.494902 0.000000
v 0.161227 -0.503234 0.000000
v 0.165813 -0.510714 0.000000
v 0.170696 -0.517343 0.000000
v 0.175876 -0.523121 0.000000
v 0.181353 -0.528046 0.000000
v -0.226648 -0.003046 0.000000
v -0.215241 -0.002878 0.000000
v -0.204023 -0.002374 0.000000
v -0.192991 -0.001535 0.000000
v -0.182148 -0.000359 0.000000
v -0.171491 0.001153 0.000000
v -0.161022 0.003001 0.000000
v -0.150741 0.005184 0.000000
v -0.140648 0.007704 0.000000
v -0.130741 0.010559 0.000000
v -0.121023 0.013751 0.000000
v -0.111491 0.017278 0.000000
v -0.102148 0.021141 0.000000
v -0.092991 0.025340 0.000000
v -0.084023 0.029876 0.000000
v -0.075241 0.034747 0.000000
v -0.066648 0.039954 0.000000
v -0.056839 0.046465 0.000000
v -0.047663 0.053251 0.000000
v -0.039120 0.060309 0.000000
v -0.031210 0.067641 0.000000
v -0.023933 0.075247 0.000000
v -0.017288 0.083126 0.000000
v -0.011276 0.091278 0.000000
v -0.005898 0.099704 0.000000
v -0.001151 0.108403 0.000000
v 0.002962 0.117376 0.000000
v 0.006442 0.126622 0.000000
v 0.009290 0.136141 0.000000
v 0.011505 0.145934 0.000000
v 0.013087 0.156001 0.000000
v 0.014036 0.166340 0.000000
v 0.014353 0.176954 0.000000
v 0.014032 0.187297 0.000000
v 0.013071 0.197329 0.000000
v 0.011470 0.207047 0.000000
v 0.009227 0.216454 0.000000
v 0.006345 0.225547 0.000000
v 0.002821 0.234329 0.000000
v -0.001343 0.242797 0.000000
v -0.006147 0.250954 0.000000
v -0.011593 0.258797 0.000000
v -0.017679 0.266329 0.000000
v -0.024405 0.273547 0.000000
v -0.031772 0.280454 0.000000
v -0.039780 0.287047 0.000000
v -0.048429 0.293329 0.000000
v -0.057718 0.299297 0.000000
v -0.067648 0.304954 0.000000
v -0.076120 0.309434 0.000000
v -0.084788 0.313626 0.000000
v -0.093651 0.317528 0.000000
v -0.102710 0.321141 0.000000
v -0.111964 0.324465 0.000000
v -0.121413 0.327501 0.000000
v -0.131058 0.330247 0.000000
v -0.140897 0.332704 0.000000
v -0.150933 0.334872 0.000000
v -0.161163 0.336751 0.000000
v -0.171589 0.338340 0.000000
v -0.182210 0.339641 0.000000
v -0.193026 0.340653 0.000000
v -0.204038 0.341376 0.000000
v -0.215245 0.341809 0.000000
v -0.226648 0.341954 0.000000
v -0.461648 0.341954 0.000000
v -0.461648 -0.003046 0.000000
f 37 218 217
f 37 36 35
f 18 17 16
f 16 15 14
f 14 13 12
f 12 11 10
f 10 9 8
f 8 7 6
f 6 5 4
f 4 3 2
f 2 1 151
f 135 134 133
f 133 132 131
f 131 130 129
f 129 128 127
f 127 126 125
f 125 124 123
f 123 122 121
f 121 120 119
f 119 118 117
f 117 116 115
f 115 114 113
f 113 112 111
f 111 110 109
f 109 108 107
f 107 106 105
f 105 104 103
f 103 102 101
f 101 100 99
f 99 98 97
f 97 96 95
f 95 94 93
f 93 92 91
f 91 90 89
f 89 88 87
f 87 86 85
f 85 84 83
f 83 82 81
f 81 80 79
f 79 78 77
f 77 76 75
f 75 74 73
f 73 72 71
f 71 70 69
f 69 68 67
f 67 66 65
f 65 64 63
f 63 62 61
f 61 60 59
f 59 58 57
f 57 56 55
f 55 54 53
f 53 52 51
f 51 50 49
f 49 48 47
f 47 46 45
f 45 44 43
f 43 42 41
f 41 40 39
f 38 37 217
f 218 37 35
f 18 16 14
f 14 12 10
f 10 8 6
f 6 4 2
f 2 151 150
f 135 133 131
f 131 129 127
f 127 125 123
f 123 121 119
f 119 117 115
f 115 113 111
f 111 109 107
f 107 105 103
f 103 101 99
f 99 97 95
f 95 93 91
f 91 89 87
f 87 85 83
f 83 81 79
f 79 77 75
f 75 73 71
f 71 69 67
f 67 65 63
f 63 61 59
f 59 57 55
f 55 53 51
f 51 49 47
f 47 45 43
f 43 41 39
f 39 38 217
f 152 218 35
f 18 14 10
f 10 6 2
f 2 150 149
f 135 131 127
f 127 123 119
f 119 115 111
f 111 107 103
f 103 99 95
f 95 91 87
f 87 83 79
f 79 75 71
f 71 67 63
f 63 59 55
f 55 51 47
f 47 43 39
f 39 217 216
f 153 152 35
f 19 18 10
f 10 2 149
f 135 127 119
f 119 111 103
f 103 95 87
f 87 79 71
f 71 63 55
f 55 47 39
f 39 216 215
f 154 153 35
f 19 10 149
f 136 135 119
f 103 87 71
f 71 55 39
f 39 215 214
f 155 154 35
f 20 19 149
f 136 119 103
f 39 214 213
f 156 155 35
f 20 149 148
f 137 136 103
f 39 213 212
f 157 156 35
f 21 20 148
f 138 137 103
f 39 212 211
f 158 157 35
f 22 21 148
f 139 138 103
f 39 211 210
f 159 158 35
f 23 22 148
f 140 139 103
f 39 210 209
f 160 159 35
f 24 23 148
f 141 140 103
f 39 209 208
f 161 160 35
f 25 24 148
f 142 141 103
f 39 208 207
f 162 161 35
f 25 148 147
f 143 142 103
f 39 207 206
f 163 162 35
f 25 147 146
f 144 143 103
f 39 206 205
f 163 35 34
f 25 146 145
f 39 205 204
f 164 163 34
f 25 145 144
f 39 204 203
f 165 164 34
f 25 144 103
f 39 203 202
f 166 165 34
f 26 25 103
f 39 202 201
f 167 166 34
f 27 26 103
f 39 201 200
f 168 167 34
f 28 27 103
f 39 200 199
f 169 168 34
f 29 28 103
f 71 39 199
f 170 169 34
f 30 29 103
f 71 199 198
f 171 170 34
f 31 30 103
f 71 198 197
f 172 171 34
f 32 31 103
f 71 197 196
f 173 172 34
f 33 32 103
f 71 196 195
f 173 34 33
f 33 103 71
f 71 195 194
f 174 173 33
f 71 194 193
f 174 33 71
f 71 193 192
f 175 174 71
f 71 192 191
f 176 175 71
f 71 191 190
f 177 176 71
f 71 190 189
f 178 177 71
f 71 189 188
f 179 178 71
f 71 188 187
f 180 179 71
f 71 187 186
f 181 180 71
f 71 186 185
f 182 181 71
f 71 185 184
f 183 182 71
f 71 184 183