# Generated mesh
# vertices: 354, faces: 352

v 0.392026 -0.222996 0.000000
v 0.391534 -0.241148 0.000000
v 0.390058 -0.258855 0.000000
v 0.387597 -0.276117 0.000000
v 0.384151 -0.292934 0.000000
v 0.379722 -0.309305 0.000000
v 0.374308 -0.325230 0.000000
v 0.367909 -0.340711 0.000000
v 0.360526 -0.355746 0.000000
v 0.352159 -0.370336 0.000000
v 0.342808 -0.384480 0.000000
v 0.332472 -0.398180 0.000000
v 0.321151 -0.411434 0.000000
v 0.308847 -0.424242 0.000000
v 0.295558 -0.436605 0.000000
v 0.281284 -0.448523 0.000000
v 0.266026 -0.459996 0.000000
v 0.251866 -0.469684 0.000000
v 0.237386 -0.478746 0.000000
v 0.222585 -0.487184 0.000000
v 0.207464 -0.494996 0.000000
v 0.192022 -0.502184 0.000000
v 0.176261 -0.508746 0.000000
v 0.160179 -0.514684 0.000000
v 0.143776 -0.519996 0.000000
v 0.127054 -0.524684 0.000000
v 0.110011 -0.528746 0.000000
v 0.092647 -0.532184 0.000000
v 0.074964 -0.534996 0.000000
v 0.056960 -0.537184 0.000000
v 0.038636 -0.538746 0.000000
v 0.019991 -0.539684 0.000000
v 0.001026 -0.539996 0.000000
v -0.020110 -0.539629 0.000000
v -0.040771 -0.538527 0.000000
v -0.060954 -0.536691 0.000000
v -0.080661 -0.534121 0.000000
v -0.099892 -0.530816 0.000000
v -0.118646 -0.526777 0.000000
v -0.136923 -0.522004 0.000000
v -0.154724 -0.516496 0.000000
v -0.172048 -0.510254 0.000000
v -0.188896 -0.503277 0.000000
v -0.205267 -0.495566 0.000000
v -0.221161 -0.487121 0.000000
v -0.236579 -0.477941 0.000000
v -0.251521 -0.468027 0.000000
v -0.265985 -0.457379 0.000000
v -0.279974 -0.445996 0.000000
v -0.294021 -0.433227 0.000000
v -0.307161 -0.419918 0.000000
v -0.319396 -0.406070 0.000000
v -0.330724 -0.391684 0.000000
v -0.341146 -0.376758 0.000000
v -0.350661 -0.361293 0.000000
v -0.359271 -0.345289 0.000000
v -0.366974 -0.328746 0.000000
v -0.373771 -0.311664 0.000000
v -0.379661 -0.294043 0.000000
v -0.384646 -0.275883 0.000000
v -0.388724 -0.257184 0.000000
v -0.391896 -0.237945 0.000000
v -0.394161 -0.218168 0.000000
v -0.395521 -0.197852 0.000000
v -0.395974 -0.176996 0.000000
v -0.264974 -0.176996 0.000000
v -0.264704 -0.191430 0.000000
v -0.263896 -0.205480 0.000000
v -0.262548 -0.219148 0.000000
v -0.260661 -0.232434 0.000000
v -0.258235 -0.245336 0.000000
v -0.255271 -0.257855 0.000000
v -0.251767 -0.269992 0.000000
v -0.247724 -0.281746 0.000000
v -0.243142 -0.293117 0.000000
v -0.238021 -0.304105 0.000000
v -0.232360 -0.314711 0.000000
v -0.226161 -0.324934 0.000000
v -0.219423 -0.334773 0.000000
v -0.212146 -0.344230 0.000000
v -0.204329 -0.353305 0.000000
v -0.195974 -0.361996 0.000000
v -0.187169 -0.370109 0.000000
v -0.178005 -0.377699 0.000000
v -0.168482 -0.384766 0.000000
v -0.158599 -0.391309 0.000000
v -0.148357 -0.397328 0.000000
v -0.137755 -0.402824 0.000000
v -0.126794 -0.407797 0.000000
v -0.115474 -0.412246 0.000000
v -0.103794 -0.416172 0.000000
v -0.091755 -0.419574 0.000000
v -0.079357 -0.422453 0.000000
v -0.066599 -0.424809 0.000000
v -0.053482 -0.426641 0.000000
v -0.040005 -0.427949 0.000000
v -0.026169 -0.428734 0.000000
v -0.011974 -0.428996 0.000000
v -0.000165 -0.428824 0.000000
v 0.011511 -0.428309 0.000000
v 0.023054 -0.427449 0.000000
v 0.034464 -0.426246 0.000000
v 0.045741 -0.424699 0.000000
v 0.056886 -0.422809 0.000000
v 0.067897 -0.420574 0.000000
v 0.078776 -0.417996 0.000000
v 0.089522 -0.415074 0.000000
v 0.100136 -0.411809 0.000000
v 0.110616 -0.408199 0.000000
v 0.120964 -0.404246 0.000000
v 0.131179 -0.399949 0.000000
v 0.141261 -0.395309 0.000000
v 0.151210 -0.390324 0.000000
v 0.161026 -0.384996 0.000000
v 0.172288 -0.378117 0.000000
v 0.182823 -0.370980 0.000000
v 0.192632 -0.363586 0.000000
v 0.201714 -0.355934 0.000000
v 0.210069 -0.348023 0.000000
v 0.217698 -0.339855 0.000000
v 0.224601 -0.331430 0.000000
v 0.230776 -0.322746 0.000000
v 0.236226 -0.313805 0.000000
v 0.240948 -0.304605 0.000000
v 0.244944 -0.295148 0.000000
v 0.248214 -0.285434 0.000000
v 0.250757 -0.275461 0.000000
v 0.252573 -0.265230 0.000000
v 0.253663 -0.254742 0.000000
v 0.254026 -0.243996 0.000000
v 0.253401 -0.230602 0.000000
v 0.251526 -0.217668 0.000000
v 0.248401 -0.205195 0.000000
v 0.244026 -0.193184 0.000000
v 0.238401 -0.181633 0.000000
v 0.231526 -0.170543 0.000000
v 0.223401 -0.159914 0.000000
v 0.214026 -0.149746 0.000000
v 0.203401 -0.140039 0.000000
v 0.191526 -0.130793 0.000000
v 0.178401 -0.122008 0.000000
v 0.164026 -0.113684 0.000000
v 0.148401 -0.105820 0.000000
v 0.131526 -0.098418 0.000000
v 0.113401 -0.091477 0.000000
v 0.094026 -0.084996 0.000000
v 0.075409 -0.079863 0.000000
v 0.056808 -0.074715 0.000000
v 0.038222 -0.069551 0.000000
v 0.019651 -0.064371 0.000000
v 0.001097 -0.059176 0.000000
v -0.017442 -0.053965 0.000000
v -0.035966 -0.048738 0.000000
v -0.054474 -0.043496 0.000000
v -0.072966 -0.038238 0.000000
v -0.091442 -0.032965 0.000000
v -0.109903 -0.027676 0.000000
v -0.128349 -0.022371 0.000000
v -0.146778 -0.017051 0.000000
v -0.165192 -0.011715 0.000000
v -0.183591 -0.006363 0.000000
v -0.201974 -0.000996 0.000000
v -0.221470 0.008207 0.000000
v -0.239708 0.018066 0.000000
v -0.256689 0.028582 0.000000
v -0.272411 0.039754 0.000000
v -0.286876 0.051582 0.000000
v -0.300083 0.064066 0.000000
v -0.312032 0.077207 0.000000
v -0.322724 0.091004 0.000000
v -0.332157 0.105457 0.000000
v -0.340333 0.120566 0.000000
v -0.347251 0.136332 0.000000
v -0.352911 0.152754 0.000000
v -0.357314 0.169832 0.000000
v -0.360458 0.187566 0.000000
v -0.362345 0.205957 0.000000
v -0.362974 0.225004 0.000000
v -0.362548 0.242523 0.000000
v -0.361271 0.259582 0.000000
v -0.359142 0.276180 0.000000
v -0.356161 0.292316 0.000000
v -0.352329 0.307992 0.000000
v -0.347646 0.323207 0.000000
v -0.342110 0.337961 0.000000
v -0.335724 0.352254 0.000000
v -0.328485 0.366086 0.000000
v -0.320396 0.379457 0.000000
v -0.311454 0.392367 0.000000
v -0.301661 0.404816 0.000000
v -0.291017 0.416805 0.000000
v -0.279521 0.428332 0.000000
v -0.267173 0.439398 0.000000
v -0.253974 0.450004 0.000000
v -0.241294 0.459328 0.000000
v -0.228255 0.468051 0.000000
v -0.214857 0.476172 0.000000
v -0.201099 0.483691 0.000000
v -0.186982 0.490609 0.000000
v -0.172505 0.496926 0.000000
v -0.157669 0.502641 0.000000
v -0.142474 0.507754 0.000000
v -0.126919 0.512266 0.000000
v -0.111005 0.516176 0.000000
v -0.094732 0.519484 0.000000
v -0.078099 0.522191 0.000000
v -0.061107 0.524297 0.000000
v -0.043755 0.525801 0.000000
v -0.026044 0.526703 0.000000
v -0.007974 0.527004 0.000000
v 0.011190 0.526676 0.000000
v 0.029933 0.525691 0.000000
v 0.048253 0.524051 0.000000
v 0.066151 0.521754 0.000000
v 0.083628 0.518801 0.000000
v 0.100683 0.515191 0.000000
v 0.117315 0.510926 0.000000
v 0.133526 0.506004 0.000000
v 0.149315 0.500426 0.000000
v 0.164683 0.494191 0.000000
v 0.179628 0.487301 0.000000
v 0.194151 0.479754 0.000000
v 0.208253 0.471551 0.000000
v 0.221933 0.462691 0.000000
v 0.235190 0.453176 0.000000
v 0.248026 0.443004 0.000000
v 0.261589 0.431516 0.000000
v 0.274276 0.419551 0.000000
v 0.286089 0.407109 0.000000
v 0.297026 0.394191 0.000000
v 0.307089 0.380797 0.000000
v 0.316276 0.366926 0.000000
v 0.324589 0.352578 0.000000
v 0.332026 0.337754 0.000000
v 0.338589 0.322453 0.000000
v 0.344276 0.306676 0.000000
v 0.349089 0.290422 0.000000
v 0.353026 0.273691 0.000000
v 0.356089 0.256484 0.000000
v 0.358276 0.238801 0.000000
v 0.359589 0.220641 0.000000
v 0.360026 0.202004 0.000000
v 0.229026 0.202004 0.000000
v 0.228776 0.214340 0.000000
v 0.228026 0.226348 0.000000
v 0.226776 0.238027 0.000000
v 0.225026 0.249379 0.000000
v 0.222776 0.260402 0.000000
v 0.220026 0.271098 0.000000
v 0.216776 0.281465 0.000000
v 0.213026 0.291504 0.000000
v 0.208776 0.301215 0.000000
v 0.204026 0.310598 0.000000
v 0.198776 0.319652 0.000000
v 0.193026 0.328379 0.000000
v 0.186776 0.336777 0.000000
v 0.180026 0.344848 0.000000
v 0.172776 0.352590 0.000000
v 0.165026 0.360004 0.000000
v 0.156878 0.367148 0.000000
v 0.148433 0.373832 0.000000
v 0.139690 0.380055 0.000000
v 0.130651 0.385816 0.000000
v 0.121315 0.391117 0.000000
v 0.111683 0.395957 0.000000
v 0.101753 0.400336 0.000000
v 0.091526 0.404254 0.000000
v 0.081003 0.407711 0.000000
v 0.070183 0.410707 0.000000
v 0.059065 0.413242 0.000000
v 0.047651 0.415316 0.000000
v 0.035940 0.416930 0.000000
v 0.023933 0.418082 0.000000
v 0.011628 0.418773 0.000000
v -0.000974 0.419004 0.000000
v -0.011646 0.418840 0.000000
v -0.022161 0.418348 0.000000
v -0.032521 0.417527 0.000000
v -0.042724 0.416379 0.000000
v -0.052771 0.414902 0.000000
v -0.062661 0.413098 0.000000
v -0.072396 0.410965 0.000000
v -0.081974 0.408504 0.000000
v -0.091396 0.405715 0.000000
v -0.100661 0.402598 0.000000
v -0.109771 0.399152 0.000000
v -0.118724 0.395379 0.000000
v -0.127521 0.391277 0.000000
v -0.136161 0.386848 0.000000
v -0.144646 0.382090 0.000000
v -0.152974 0.377004 0.000000
v -0.162540 0.370629 0.000000
v -0.171489 0.364004 0.000000
v -0.179821 0.357129 0.000000
v -0.187536 0.350004 0.000000
v -0.194634 0.342629 0.000000
v -0.201114 0.335004 0.000000
v -0.206978 0.327129 0.000000
v -0.212224 0.319004 0.000000
v -0.216853 0.310629 0.000000
v -0.220864 0.302004 0.000000
v -0.224259 0.293129 0.000000
v -0.227036 0.284004 0.000000
v -0.229196 0.274629 0.000000
v -0.230739 0.265004 0.000000
v -0.231665 0.255129 0.000000
v -0.231974 0.245004 0.000000
v -0.231345 0.232348 0.000000
v -0.229458 0.220129 0.000000
v -0.226314 0.208348 0.000000
v -0.221911 0.197004 0.000000
v -0.216251 0.186098 0.000000
v -0.209333 0.175629 0.000000
v -0.201157 0.165598 0.000000
v -0.191724 0.156004 0.000000
v -0.181032 0.146848 0.000000
v -0.169083 0.138129 0.000000
v -0.155876 0.129848 0.000000
v -0.141411 0.122004 0.000000
v -0.125689 0.114598 0.000000
v -0.108708 0.107629 0.000000
v -0.090470 0.101098 0.000000
v -0.070974 0.095004 0.000000
v -0.052224 0.089875 0.000000
v -0.033474 0.084738 0.000000
v -0.014724 0.079594 0.000000
v 0.004026 0.074441 0.000000
v 0.022776 0.069281 0.000000
v 0.041526 0.064113 0.000000
v 0.060276 0.058937 0.000000
v 0.079026 0.053754 0.000000
v 0.097776 0.048562 0.000000
v 0.116526 0.043363 0.000000
v 0.135276 0.038156 0.000000
v 0.154026 0.032941 0.000000
v 0.172776 0.027719 0.000000
v 0.191526 0.022488 0.000000
v 0.210276 0.017250 0.000000
v 0.229026 0.012004 0.000000
v 0.248765 0.002648 0.000000
v 0.267229 -0.007418 0.000000
v 0.284421 -0.018195 0.000000
v 0.300339 -0.029684 0.000000
v 0.314983 -0.041883 0.000000
v 0.328354 -0.054793 0.000000
v 0.340452 -0.068414 0.000000
v 0.351276 -0.082746 0.000000
v 0.360827 -0.097789 0.000000
v 0.369104 -0.113543 0.000000
v 0.376108 -0.130008 0.000000
v 0.381839 -0.147184 0.000000
v 0.386296 -0.165070 0.000000
v 0.389479 -0.183668 0.000000
v 0.391390 -0.202977 0.000000
f 2 1 354
f 354 353 352
f 352 351 350
f 350 349 348
f 348 347 346
f 346 345 344
f 344 343 342
f 342 341 340
f 340 339 338
f 338 337 336
f 336 335 334
f 334 333 332
f 332 331 330
f 330 329 328
f 328 327 326
f 326 325 324
f 244 243 242
f 242 241 240
f 240 239 238
f 238 237 236
f 236 235 234
f 234 233 232
f 232 231 230
f 230 229 228
f 228 227 226
f 226 225 224
f 224 223 222
f 222 221 220
f 220 219 218
f 218 217 216
f 216 215 214
f 214 213 212
f 212 211 210
f 210 209 208
f 208 207 206
f 206 205 204
f 204 203 202
f 202 201 200
f 200 199 198
f 198 197 196
f 196 195 194
f 194 193 192
f 192 191 190
f 190 189 188
f 188 187 186
f 186 185 184
f 184 183 182
f 182 181 180
f 180 179 178
f 178 177 176
f 176 175 174
f 174 173 172
f 172 171 170
f 170 169 168
f 168 167 166
f 166 165 164
f 164 163 162
f 162 161 160
f 160 159 158
f 158 157 156
f 156 155 154
f 154 153 152
f 152 151 150
f 150 149 148
f 148 147 146
f 67 66 65
f 65 64 63
f 63 62 61
f 61 60 59
f 59 58 57
f 57 56 55
f 55 54 53
f 53 52 51
f 51 50 49
f 49 48 47
f 47 46 45
f 45 44 43
f 43 42 41
f 41 40 39
f 39 38 37
f 37 36 35
f 35 34 33
f 33 32 31
f 31 30 29
f 29 28 27
f 27 26 25
f 25 24 23
f 23 22 21
f 21 20 19
f 19 18 17
f 17 16 15
f 15 14 13
f 13 12 11
f 11 10 9
f 9 8 7
f 7 6 5
f 5 4 3
f 3 2 354
f 354 352 350
f 350 348 346
f 346 344 342
f 342 340 338
f 338 336 334
f 334 332 330
f 330 328 326
f 326 324 323
f 245 244 242
f 242 240 238
f 238 236 234
f 234 232 230
f 230 228 226
f 226 224 222
f 222 220 218
f 218 216 214
f 214 212 210
f 210 208 206
f 206 204 202
f 202 200 198
f 198 196 194
f 194 192 190
f 190 188 186
f 186 184 182
f 182 180 178
f 178 176 174
f 174 172 170
f 170 168 166
f 166 164 162
f 162 160 158
f 158 156 154
f 154 152 150
f 150 148 146
f 68 67 65
f 65 63 61
f 61 59 57
f 57 55 53
f 53 51 49
f 49 47 45
f 45 43 41
f 41 39 37
f 37 35 33
f 33 31 29
f 29 27 25
f 25 23 21
f 21 19 17
f 17 15 13
f 13 11 9
f 9 7 5
f 5 3 354
f 354 350 346
f 346 342 338
f 338 334 330
f 330 326 323
f 246 245 242
f 242 238 234
f 234 230 226
f 226 222 218
f 218 214 210
f 210 206 202
f 202 198 194
f 194 190 186
f 186 182 178
f 178 174 170
f 170 166 162
f 162 158 154
f 154 150 146
f 69 68 65
f 65 61 57
f 57 53 49
f 49 45 41
f 41 37 33
f 33 29 25
f 25 21 17
f 17 13 9
f 9 5 354
f 354 346 338
f 338 330 323
f 247 246 242
f 242 234 226
f 226 218 210
f 210 202 194
f 194 186 178
f 178 170 162
f 162 154 146
f 70 69 65
f 65 57 49
f 49 41 33
f 33 25 17
f 17 9 354
f 354 338 323
f 248 247 242
f 242 226 210
f 210 194 178
f 178 162 146
f 71 70 65
f 49 33 17
f 354 323 322
f 249 248 242
f 178 146 145
f 72 71 65
f 354 322 321
f 250 249 242
f 178 145 144
f 73 72 65
f 354 321 320
f 251 250 242
f 178 144 143
f 74 73 65
f 354 320 319
f 252 251 242
f 178 143 142
f 75 74 65
f 354 319 318
f 253 252 242
f 178 142 141
f 76 75 65
f 254 253 242
f 77 76 65
f 255 254 242
f 78 77 65
f 256 255 242
f 79 78 65
f 257 256 242
f 80 79 65
f 258 257 242
f 81 80 65
f 259 258 242
f 82 81 65
f 260 259 242
f 82 65 49
f 260 242 210
f 83 82 49
f 261 260 210
f 84 83 49
f 262 261 210
f 85 84 49
f 263 262 210
f 86 85 49
f 264 263 210
f 87 86 49
f 265 264 210
f 88 87 49
f 266 265 210
f 89 88 49
f 267 266 210
f 90 89 49
f 268 267 210
f 91 90 49
f 269 268 210
f 92 91 49
f 270 269 210
f 93 92 49
f 271 270 210
f 94 93 49
f 272 271 210
f 95 94 49
f 273 272 210
f 96 95 49
f 274 273 210
f 97 96 49
f 275 274 210
f 98 97 49
f 276 275 210
f 99 98 49
f 277 276 210
f 100 99 49
f 278 277 210
f 100 49 17
f 279 278 210
f 101 100 17
f 280 279 210
f 102 101 17
f 281 280 210
f 103 102 17
f 282 281 210
f 104 103 17
f 283 282 210
f 105 104 17
f 284 283 210
f 106 105 17
f 285 284 210
f 107 106 17
f 286 285 210
f 108 107 17
f 287 286 210
f 109 108 17
f 288 287 210
f 110 109 17
f 289 288 210
f 111 110 17
f 290 289 210
f 112 111 17
f 291 290 210
f 113 112 17
f 292 291 210
f 114 113 17
f 293 292 210
f 115 114 17
f 294 293 210
f 116 115 17
f 295 294 210
f 117 116 17
f 295 210 178
f 118 117 17
f 296 295 178
f 119 118 17
f 297 296 178
f 120 119 17
f 298 297 178
f 121 120 17
f 299 298 178
f 122 121 17
f 300 299 178
f 123 122 17
f 301 300 178
f 124 123 17
f 302 301 178
f 125 124 17
f 303 302 178
f 126 125 17
f 304 303 178
f 127 126 17
f 305 304 178
f 128 127 17
f 306 305 178
f 129 128 17
f 307 306 178
f 130 129 17
f 308 307 178
f 131 130 17
f 309 308 178
f 131 17 354
f 310 309 178
f 132 131 354
f 311 310 178
f 133 132 354
f 312 311 178
f 134 133 354
f 313 312 178
f 135 134 354
f 314 313 178
f 136 135 354
f 315 314 178
f 137 136 354
f 316 315 178
f 138 137 354
f 317 316 178
f 139 138 354
f 318 317 178
f 140 139 354
f 354 318 178
f 141 140 354
f 354 178 141