# Generated mesh
# vertices: 1812, faces: 0

v 0.398000 -0.100962 -25.029999
v 0.390813 -0.187587 -25.029999
v 0.369250 -0.266462 -25.029999
v 0.258000 0.519038 -25.029999
v 0.398000 0.519038 -25.029999
v 0.398000 -0.100962 -25.029999
v -0.398000 0.519038 -25.029999
v -0.260000 0.519038 -25.029999
v -0.260000 -0.102962 -25.029999
v -0.391687 -0.187837 -25.029999
v -0.398000 -0.100962 -25.029999
v -0.398000 0.519038 -25.029999
v -0.341188 -0.336837 -25.029999
v -0.372750 -0.266462 -25.029999
v -0.391687 -0.187837 -25.029999
v -0.239062 -0.451462 -25.029999
v -0.297000 -0.398962 -25.029999
v -0.341188 -0.336837 -25.029999
v -0.096562 -0.511462 -25.029999
v -0.172250 -0.488962 -25.029999
v -0.239062 -0.451462 -25.029999
v 0.073938 -0.511587 -25.029999
v -0.012000 -0.518962 -25.029999
v -0.096562 -0.511462 -25.029999
v 0.221438 -0.452587 -25.029999
v 0.151750 -0.489462 -25.029999
v 0.073938 -0.511587 -25.029999
v 0.333313 -0.337587 -25.029999
v 0.283000 -0.400962 -25.029999
v 0.221438 -0.452587 -25.029999
v 0.398000 -0.100962 -25.029999
v 0.369250 -0.266462 -25.029999
v 0.333313 -0.337587 -25.029999
v 0.258000 -0.102962 -25.029999
v 0.258000 0.519038 -25.029999
v 0.398000 -0.100962 -25.029999
v -0.398000 0.519038 -25.029999
v -0.260000 -0.102962 -25.029999
v -0.255875 -0.160837 -25.029999
v -0.341188 -0.336837 -25.029999
v -0.391687 -0.187837 -25.029999
v -0.398000 0.519038 -25.029999
v -0.096562 -0.511462 -25.029999
v -0.239062 -0.451462 -25.029999
v -0.341188 -0.336837 -25.029999
v 0.221438 -0.452587 -25.029999
v 0.073938 -0.511587 -25.029999
v -0.096562 -0.511462 -25.029999
v 0.398000 -0.100962 -25.029999
v 0.333313 -0.337587 -25.029999
v 0.221438 -0.452587 -25.029999
v 0.253625 -0.160837 -25.029999
v 0.258000 -0.102962 -25.029999
v 0.398000 -0.100962 -25.029999
v -0.341188 -0.336837 -25.029999
v -0.398000 0.519038 -25.029999
v -0.255875 -0.160837 -25.029999
v 0.221438 -0.452587 -25.029999
v -0.096562 -0.511462 -25.029999
v -0.341188 -0.336837 -25.029999
v 0.253625 -0.160837 -25.029999
v 0.398000 -0.100962 -25.029999
v 0.221438 -0.452587 -25.029999
v -0.341188 -0.336837 -25.029999
v -0.255875 -0.160837 -25.029999
v -0.243500 -0.213462 -25.029999
v 0.240500 -0.213462 -25.029999
v 0.253625 -0.160837 -25.029999
v 0.221438 -0.452587 -25.029999
v -0.341188 -0.336837 -25.029999
v -0.243500 -0.213462 -25.029999
v -0.222875 -0.260837 -25.029999
v 0.218625 -0.260837 -25.029999
v 0.240500 -0.213462 -25.029999
v 0.221438 -0.452587 -25.029999
v -0.341188 -0.336837 -25.029999
v -0.222875 -0.260837 -25.029999
v -0.194000 -0.302962 -25.029999
v 0.188000 -0.302962 -25.029999
v 0.218625 -0.260837 -25.029999
v 0.221438 -0.452587 -25.029999
v -0.341188 -0.336837 -25.029999
v -0.194000 -0.302962 -25.029999
v -0.155125 -0.339712 -25.029999
v 0.148250 -0.339712 -25.029999
v 0.188000 -0.302962 -25.029999
v 0.221438 -0.452587 -25.029999
v -0.341188 -0.336837 -25.029999
v -0.155125 -0.339712 -25.029999
v -0.110500 -0.365962 -25.029999
v 0.103000 -0.365962 -25.029999
v 0.148250 -0.339712 -25.029999
v 0.221438 -0.452587 -25.029999
v -0.341188 -0.336837 -25.029999
v -0.110500 -0.365962 -25.029999
v -0.060125 -0.381712 -25.029999
v 0.052250 -0.381712 -25.029999
v 0.103000 -0.365962 -25.029999
v 0.221438 -0.452587 -25.029999
v 0.221438 -0.452587 -25.029999
v -0.341188 -0.336837 -25.029999
v -0.060125 -0.381712 -25.029999
v -0.004000 -0.386962 -25.029999
v 0.052250 -0.381712 -25.029999
v 0.221438 -0.452587 -25.029999
v 0.221438 -0.452587 -25.029999
v -0.060125 -0.381712 -25.029999
v -0.004000 -0.386962 -25.029999
v 0.369250 -0.266462 25.029999
v 0.390813 -0.187587 25.029999
v 0.398000 -0.100962 25.029999
v 0.398000 -0.100962 25.029999
v 0.398000 0.519038 25.029999
v 0.258000 0.519038 25.029999
v -0.260000 -0.102962 25.029999
v -0.260000 0.519038 25.029999
v -0.398000 0.519038 25.029999
v -0.398000 0.519038 25.029999
v -0.398000 -0.100962 25.029999
v -0.391687 -0.187837 25.029999
v -0.391687 -0.187837 25.029999
v -0.372750 -0.266462 25.029999
v -0.341188 -0.336837 25.029999
v -0.341188 -0.336837 25.029999
v -0.297000 -0.398962 25.029999
v -0.239062 -0.451462 25.029999
v -0.239062 -0.451462 25.029999
v -0.172250 -0.488962 25.029999
v -0.096562 -0.511462 25.029999
v -0.096562 -0.511462 25.029999
v -0.012000 -0.518962 25.029999
v 0.073938 -0.511587 25.029999
v 0.073938 -0.511587 25.029999
v 0.151750 -0.489462 25.029999
v 0.221438 -0.452587 25.029999
v 0.221438 -0.452587 25.029999
v 0.283000 -0.400962 25.029999
v 0.333313 -0.337587 25.029999
v 0.333313 -0.337587 25.029999
v 0.369250 -0.266462 25.029999
v 0.398000 -0.100962 25.029999
v 0.398000 -0.100962 25.029999
v 0.258000 0.519038 25.029999
v 0.258000 -0.102962 25.029999
v -0.255875 -0.160837 25.029999
v -0.260000 -0.102962 25.029999
v -0.398000 0.519038 25.029999
v -0.398000 0.519038 25.029999
v -0.391687 -0.187837 25.029999
v -0.341188 -0.336837 25.029999
v -0.341188 -0.336837 25.029999
v -0.239062 -0.451462 25.029999
v -0.096562 -0.511462 25.029999
v -0.096562 -0.511462 25.029999
v 0.073938 -0.511587 25.029999
v 0.221438 -0.452587 25.029999
v 0.221438 -0.452587 25.029999
v 0.333313 -0.337587 25.029999
v 0.398000 -0.100962 25.029999
v 0.398000 -0.100962 25.029999
v 0.258000 -0.102962 25.029999
v 0.253625 -0.160837 25.029999
v -0.255875 -0.160837 25.029999
v -0.398000 0.519038 25.029999
v -0.341188 -0.336837 25.029999
v -0.341188 -0.336837 25.029999
v -0.096562 -0.511462 25.029999
v 0.221438 -0.452587 25.029999
v 0.221438 -0.452587 25.029999
v 0.398000 -0.100962 25.029999
v 0.253625 -0.160837 25.029999
v -0.243500 -0.213462 25.029999
v -0.255875 -0.160837 25.029999
v -0.341188 -0.336837 25.029999
v 0.221438 -0.452587 25.029999
v 0.253625 -0.160837 25.029999
v 0.240500 -0.213462 25.029999
v -0.222875 -0.260837 25.029999
v -0.243500 -0.213462 25.029999
v -0.341188 -0.336837 25.029999
v 0.221438 -0.452587 25.029999
v 0.240500 -0.213462 25.029999
v 0.218625 -0.260837 25.029999
v -0.194000 -0.302962 25.029999
v -0.222875 -0.260837 25.029999
v -0.341188 -0.336837 25.029999
v 0.221438 -0.452587 25.029999
v 0.218625 -0.260837 25.029999
v 0.188000 -0.302962 25.029999
v -0.155125 -0.339712 25.029999
v -0.194000 -0.302962 25.029999
v -0.341188 -0.336837 25.029999
v 0.221438 -0.452587 25.029999
v 0.188000 -0.302962 25.029999
v 0.148250 -0.339712 25.029999
v -0.110500 -0.365962 25.029999
v -0.155125 -0.339712 25.029999
v -0.341188 -0.336837 25.029999
v 0.221438 -0.452587 25.029999
v 0.148250 -0.339712 25.029999
v 0.103000 -0.365962 25.029999
v -0.060125 -0.381712 25.029999
v -0.110500 -0.365962 25.029999
v -0.341188 -0.336837 25.029999
v 0.221438 -0.452587 25.029999
v 0.103000 -0.365962 25.029999
v 0.052250 -0.381712 25.029999
v -0.060125 -0.381712 25.029999
v -0.341188 -0.336837 25.029999
v 0.221438 -0.452587 25.029999
v 0.221438 -0.452587 25.029999
v 0.052250 -0.381712 25.029999
v -0.004000 -0.386962 25.029999
v -0.004000 -0.386962 25.029999
v -0.060125 -0.381712 25.029999
v 0.221438 -0.452587 25.029999
v 0.398000 -0.100962 -25.029999
v 0.398000 0.519038 -25.029999
v 0.408000 -0.101376 -25.025980
v 0.398000 0.519038 -25.029999
v 0.408000 0.529038 -25.025980
v 0.408000 -0.101376 -25.025980
v 0.408000 -0.101376 -25.025980
v 0.408000 0.529038 -25.025980
v 0.415321 -0.101679 -25.014999
v 0.408000 0.529038 -25.025980
v 0.415321 0.536359 -25.014999
v 0.415321 -0.101679 -25.014999
v 0.415321 -0.101679 -25.014999
v 0.415321 0.536359 -25.014999
v 0.418000 -0.101790 -25.000000
v 0.415321 0.536359 -25.014999
v 0.418000 0.539038 -25.000000
v 0.418000 -0.101790 -25.000000
v 0.418000 -0.101790 -25.000000
v 0.418000 0.539038 -25.000000
v 0.418000 -0.101790 25.000000
v 0.418000 0.539038 -25.000000
v 0.418000 0.539038 25.000000
v 0.418000 -0.101790 25.000000
v 0.418000 -0.101790 25.000000
v 0.418000 0.539038 25.000000
v 0.415321 -0.101679 25.014999
v 0.418000 0.539038 25.000000
v 0.415321 0.536359 25.014999
v 0.415321 -0.101679 25.014999
v 0.415321 -0.101679 25.014999
v 0.415321 0.536359 25.014999
v 0.408000 -0.101376 25.025982
v 0.415321 0.536359 25.014999
v 0.408000 0.529038 25.025982
v 0.408000 -0.101376 25.025982
v 0.408000 -0.101376 25.025982
v 0.408000 0.529038 25.025982
v 0.398000 -0.100962 25.029999
v 0.408000 0.529038 25.025982
v 0.398000 0.519038 25.029999
v 0.398000 -0.100962 25.029999
v 0.398000 0.519038 -25.029999
v 0.258000 0.519038 -25.029999
v 0.408000 0.529038 -25.025980
v 0.258000 0.519038 -25.029999
v 0.248000 0.529038 -25.025980
v 0.408000 0.529038 -25.025980
v 0.408000 0.529038 -25.025980
v 0.248000 0.529038 -25.025980
v 0.415321 0.536359 -25.014999
v 0.248000 0.529038 -25.025980
v 0.240680 0.536359 -25.014999
v 0.415321 0.536359 -25.014999
v 0.415321 0.536359 -25.014999
v 0.240680 0.536359 -25.014999
v 0.418000 0.539038 -25.000000
v 0.240680 0.536359 -25.014999
v 0.238000 0.539038 -25.000000
v 0.418000 0.539038 -25.000000
v 0.418000 0.539038 -25.000000
v 0.238000 0.539038 -25.000000
v 0.418000 0.539038 25.000000
v 0.238000 0.539038 -25.000000
v 0.238000 0.539038 25.000000
v 0.418000 0.539038 25.000000
v 0.418000 0.539038 25.000000
v 0.238000 0.539038 25.000000
v 0.415321 0.536359 25.014999
v 0.238000 0.539038 25.000000
v 0.240680 0.536359 25.014999
v 0.415321 0.536359 25.014999
v 0.415321 0.536359 25.014999
v 0.240680 0.536359 25.014999
v 0.408000 0.529038 25.025982
v 0.240680 0.536359 25.014999
v 0.248000 0.529038 25.025982
v 0.408000 0.529038 25.025982
v 0.408000 0.529038 25.025982
v 0.248000 0.529038 25.025982
v 0.398000 0.519038 25.029999
v 0.248000 0.529038 25.025982
v 0.258000 0.519038 25.029999
v 0.398000 0.519038 25.029999
v 0.258000 0.519038 -25.029999
v 0.258000 -0.102962 -25.029999
v 0.248000 0.529038 -25.025980
v 0.258000 -0.102962 -25.029999
v 0.248000 -0.102585 -25.025980
v 0.248000 0.529038 -25.025980
v 0.248000 0.529038 -25.025980
v 0.248000 -0.102585 -25.025980
v 0.240680 0.536359 -25.014999
v 0.248000 -0.102585 -25.025980
v 0.240680 -0.102308 -25.014999
v 0.240680 0.536359 -25.014999
v 0.240680 0.536359 -25.014999
v 0.240680 -0.102308 -25.014999
v 0.238000 0.539038 -25.000000
v 0.240680 -0.102308 -25.014999
v 0.238000 -0.102207 -25.000000
v 0.238000 0.539038 -25.000000
v 0.238000 0.539038 -25.000000
v 0.238000 -0.102207 -25.000000
v 0.238000 0.539038 25.000000
v 0.238000 -0.102207 -25.000000
v 0.238000 -0.102207 25.000000
v 0.238000 0.539038 25.000000
v 0.238000 0.539038 25.000000
v 0.238000 -0.102207 25.000000
v 0.240680 0.536359 25.014999
v 0.238000 -0.102207 25.000000
v 0.240680 -0.102308 25.014999
v 0.240680 0.536359 25.014999
v 0.240680 0.536359 25.014999
v 0.240680 -0.102308 25.014999
v 0.248000 0.529038 25.025982
v 0.240680 -0.102308 25.014999
v 0.248000 -0.102585 25.025982
v 0.248000 0.529038 25.025982
v 0.248000 0.529038 25.025982
v 0.248000 -0.102585 25.025982
v 0.258000 0.519038 25.029999
v 0.248000 -0.102585 25.025982
v 0.258000 -0.102962 25.029999
v 0.258000 0.519038 25.029999
v 0.258000 -0.102962 -25.029999
v 0.253625 -0.160837 -25.029999
v 0.248000 -0.102585 -25.025980
v 0.253625 -0.160837 -25.029999
v 0.243717 -0.159239 -25.025980
v 0.248000 -0.102585 -25.025980
v 0.248000 -0.102585 -25.025980
v 0.243717 -0.159239 -25.025980
v 0.240680 -0.102308 -25.014999
v 0.243717 -0.159239 -25.025980
v 0.236464 -0.158069 -25.014999
v 0.240680 -0.102308 -25.014999
v 0.240680 -0.102308 -25.014999
v 0.236464 -0.158069 -25.014999
v 0.238000 -0.102207 -25.000000
v 0.236464 -0.158069 -25.014999
v 0.233810 -0.157641 -25.000000
v 0.238000 -0.102207 -25.000000
v 0.238000 -0.102207 -25.000000
v 0.233810 -0.157641 -25.000000
v 0.238000 -0.102207 25.000000
v 0.233810 -0.157641 -25.000000
v 0.233810 -0.157641 25.000000
v 0.238000 -0.102207 25.000000
v 0.238000 -0.102207 25.000000
v 0.233810 -0.157641 25.000000
v 0.240680 -0.102308 25.014999
v 0.233810 -0.157641 25.000000
v 0.236464 -0.158069 25.014999
v 0.240680 -0.102308 25.014999
v 0.240680 -0.102308 25.014999
v 0.236464 -0.158069 25.014999
v 0.248000 -0.102585 25.025982
v 0.236464 -0.158069 25.014999
v 0.243717 -0.159239 25.025982
v 0.248000 -0.102585 25.025982
v 0.248000 -0.102585 25.025982
v 0.243717 -0.159239 25.025982
v 0.258000 -0.102962 25.029999
v 0.243717 -0.159239 25.025982
v 0.253625 -0.160837 25.029999
v 0.258000 -0.102962 25.029999
v 0.253625 -0.160837 -25.029999
v 0.240500 -0.213462 -25.029999
v 0.243717 -0.159239 -25.025980
v 0.240500 -0.213462 -25.029999
v 0.231026 -0.210127 -25.025980
v 0.243717 -0.159239 -25.025980
v 0.243717 -0.159239 -25.025980
v 0.231026 -0.210127 -25.025980
v 0.236464 -0.158069 -25.014999
v 0.231026 -0.210127 -25.025980
v 0.224090 -0.207685 -25.014999
v 0.236464 -0.158069 -25.014999
v 0.236464 -0.158069 -25.014999
v 0.224090 -0.207685 -25.014999
v 0.233810 -0.157641 -25.000000
v 0.224090 -0.207685 -25.014999
v 0.221551 -0.206791 -25.000000
v 0.233810 -0.157641 -25.000000
v 0.233810 -0.157641 -25.000000
v 0.221551 -0.206791 -25.000000
v 0.233810 -0.157641 25.000000
v 0.221551 -0.206791 -25.000000
v 0.221551 -0.206791 25.000000
v 0.233810 -0.157641 25.000000
v 0.233810 -0.157641 25.000000
v 0.221551 -0.206791 25.000000
v 0.236464 -0.158069 25.014999
v 0.221551 -0.206791 25.000000
v 0.224090 -0.207685 25.014999
v 0.236464 -0.158069 25.014999
v 0.236464 -0.158069 25.014999
v 0.224090 -0.207685 25.014999
v 0.243717 -0.159239 25.025982
v 0.224090 -0.207685 25.014999
v 0.231026 -0.210127 25.025982
v 0.243717 -0.159239 25.025982
v 0.243717 -0.159239 25.025982
v 0.231026 -0.210127 25.025982
v 0.253625 -0.160837 25.029999
v 0.231026 -0.210127 25.025982
v 0.240500 -0.213462 25.029999
v 0.253625 -0.160837 25.029999
v 0.240500 -0.213462 -25.029999
v 0.218625 -0.260837 -25.029999
v 0.231026 -0.210127 -25.025980
v 0.218625 -0.260837 -25.029999
v 0.209958 -0.255752 -25.025980
v 0.231026 -0.210127 -25.025980
v 0.231026 -0.210127 -25.025980
v 0.209958 -0.255752 -25.025980
v 0.224090 -0.207685 -25.014999
v 0.209958 -0.255752 -25.025980
v 0.203614 -0.252030 -25.014999
v 0.224090 -0.207685 -25.014999
v 0.224090 -0.207685 -25.014999
v 0.203614 -0.252030 -25.014999
v 0.221551 -0.206791 -25.000000
v 0.203614 -0.252030 -25.014999
v 0.201292 -0.250667 -25.000000
v 0.221551 -0.206791 -25.000000
v 0.221551 -0.206791 -25.000000
v 0.201292 -0.250667 -25.000000
v 0.221551 -0.206791 25.000000
v 0.201292 -0.250667 -25.000000
v 0.201292 -0.250667 25.000000
v 0.221551 -0.206791 25.000000
v 0.221551 -0.206791 25.000000
v 0.201292 -0.250667 25.000000
v 0.224090 -0.207685 25.014999
v 0.201292 -0.250667 25.000000
v 0.203614 -0.252030 25.014999
v 0.224090 -0.207685 25.014999
v 0.224090 -0.207685 25.014999
v 0.203614 -0.252030 25.014999
v 0.231026 -0.210127 25.025982
v 0.203614 -0.252030 25.014999
v 0.209958 -0.255752 25.025982
v 0.231026 -0.210127 25.025982
v 0.231026 -0.210127 25.025982
v 0.209958 -0.255752 25.025982
v 0.240500 -0.213462 25.029999
v 0.209958 -0.255752 25.025982
v 0.218625 -0.260837 25.029999
v 0.240500 -0.213462 25.029999
v 0.218625 -0.260837 -25.029999
v 0.188000 -0.302962 -25.029999
v 0.209958 -0.255752 -25.025980
v 0.188000 -0.302962 -25.029999
v 0.180490 -0.296287 -25.025980
v 0.209958 -0.255752 -25.025980
v 0.209958 -0.255752 -25.025980
v 0.180490 -0.296287 -25.025980
v 0.203614 -0.252030 -25.014999
v 0.180490 -0.296287 -25.025980
v 0.174992 -0.291400 -25.014999
v 0.203614 -0.252030 -25.014999
v 0.203614 -0.252030 -25.014999
v 0.174992 -0.291400 -25.014999
v 0.201292 -0.250667 -25.000000
v 0.174992 -0.291400 -25.014999
v 0.172979 -0.289611 -25.000000
v 0.201292 -0.250667 -25.000000
v 0.201292 -0.250667 -25.000000
v 0.172979 -0.289611 -25.000000
v 0.201292 -0.250667 25.000000
v 0.172979 -0.289611 -25.000000
v 0.172979 -0.289611 25.000000
v 0.201292 -0.250667 25.000000
v 0.201292 -0.250667 25.000000
v 0.172979 -0.289611 25.000000
v 0.203614 -0.252030 25.014999
v 0.172979 -0.289611 25.000000
v 0.174992 -0.291400 25.014999
v 0.203614 -0.252030 25.014999
v 0.203614 -0.252030 25.014999
v 0.174992 -0.291400 25.014999
v 0.209958 -0.255752 25.025982
v 0.174992 -0.291400 25.014999
v 0.180490 -0.296287 25.025982
v 0.209958 -0.255752 25.025982
v 0.209958 -0.255752 25.025982
v 0.180490 -0.296287 25.025982
v 0.218625 -0.260837 25.029999
v 0.180490 -0.296287 25.025982
v 0.188000 -0.302962 25.029999
v 0.218625 -0.260837 25.029999
v 0.188000 -0.302962 -25.029999
v 0.148250 -0.339712 -25.029999
v 0.180490 -0.296287 -25.025980
v 0.148250 -0.339712 -25.029999
v 0.142274 -0.331618 -25.025980
v 0.180490 -0.296287 -25.025980
v 0.180490 -0.296287 -25.025980
v 0.142274 -0.331618 -25.025980
v 0.174992 -0.291400 -25.014999
v 0.142274 -0.331618 -25.025980
v 0.137900 -0.325692 -25.014999
v 0.174992 -0.291400 -25.014999
v 0.174992 -0.291400 -25.014999
v 0.137900 -0.325692 -25.014999
v 0.172979 -0.289611 -25.000000
v 0.137900 -0.325692 -25.014999
v 0.136299 -0.323523 -25.000000
v 0.172979 -0.289611 -25.000000
v 0.172979 -0.289611 -25.000000
v 0.136299 -0.323523 -25.000000
v 0.172979 -0.289611 25.000000
v 0.136299 -0.323523 -25.000000
v 0.136299 -0.323523 25.000000
v 0.172979 -0.289611 25.000000
v 0.172979 -0.289611 25.000000
v 0.136299 -0.323523 25.000000
v 0.174992 -0.291400 25.014999
v 0.136299 -0.323523 25.000000
v 0.137900 -0.325692 25.014999
v 0.174992 -0.291400 25.014999
v 0.174992 -0.291400 25.014999
v 0.137900 -0.325692 25.014999
v 0.180490 -0.296287 25.025982
v 0.137900 -0.325692 25.014999
v 0.142274 -0.331618 25.025982
v 0.180490 -0.296287 25.025982
v 0.180490 -0.296287 25.025982
v 0.142274 -0.331618 25.025982
v 0.188000 -0.302962 25.029999
v 0.142274 -0.331618 25.025982
v 0.148250 -0.339712 25.029999
v 0.188000 -0.302962 25.029999
v 0.148250 -0.339712 -25.029999
v 0.103000 -0.365962 -25.029999
v 0.142274 -0.331618 -25.025980
v 0.103000 -0.365962 -25.029999
v 0.098958 -0.356746 -25.025980
v 0.142274 -0.331618 -25.025980
v 0.142274 -0.331618 -25.025980
v 0.098958 -0.356746 -25.025980
v 0.137900 -0.325692 -25.014999
v 0.098958 -0.356746 -25.025980
v 0.095999 -0.349999 -25.014999
v 0.137900 -0.325692 -25.014999
v 0.137900 -0.325692 -25.014999
v 0.095999 -0.349999 -25.014999
v 0.136299 -0.323523 -25.000000
v 0.095999 -0.349999 -25.014999
v 0.094916 -0.347530 -25.000000
v 0.136299 -0.323523 -25.000000
v 0.136299 -0.323523 -25.000000
v 0.094916 -0.347530 -25.000000
v 0.136299 -0.323523 25.000000
v 0.094916 -0.347530 -25.000000
v 0.094916 -0.347530 25.000000
v 0.136299 -0.323523 25.000000
v 0.136299 -0.323523 25.000000
v 0.094916 -0.347530 25.000000
v 0.137900 -0.325692 25.014999
v 0.094916 -0.347530 25.000000
v 0.095999 -0.349999 25.014999
v 0.137900 -0.325692 25.014999
v 0.137900 -0.325692 25.014999
v 0.095999 -0.349999 25.014999
v 0.142274 -0.331618 25.025982
v 0.095999 -0.349999 25.014999
v 0.098958 -0.356746 25.025982
v 0.142274 -0.331618 25.025982
v 0.142274 -0.331618 25.025982
v 0.098958 -0.356746 25.025982
v 0.148250 -0.339712 25.029999
v 0.098958 -0.356746 25.025982
v 0.103000 -0.365962 25.029999
v 0.148250 -0.339712 25.029999
v 0.103000 -0.365962 -25.029999
v 0.052250 -0.381712 -25.029999
v 0.098958 -0.356746 -25.025980
v 0.052250 -0.381712 -25.029999
v 0.050282 -0.371852 -25.025980
v 0.098958 -0.356746 -25.025980
v 0.098958 -0.356746 -25.025980
v 0.050282 -0.371852 -25.025980
v 0.095999 -0.349999 -25.014999
v 0.050282 -0.371852 -25.025980
v 0.048842 -0.364634 -25.014999
v 0.095999 -0.349999 -25.014999
v 0.095999 -0.349999 -25.014999
v 0.048842 -0.364634 -25.014999
v 0.094916 -0.347530 -25.000000
v 0.048842 -0.364634 -25.014999
v 0.048314 -0.361992 -25.000000
v 0.094916 -0.347530 -25.000000
v 0.094916 -0.347530 -25.000000
v 0.048314 -0.361992 -25.000000
v 0.094916 -0.347530 25.000000
v 0.048314 -0.361992 -25.000000
v 0.048314 -0.361992 25.000000
v 0.094916 -0.347530 25.000000
v 0.094916 -0.347530 25.000000
v 0.048314 -0.361992 25.000000
v 0.095999 -0.349999 25.014999
v 0.048314 -0.361992 25.000000
v 0.048842 -0.364634 25.014999
v 0.095999 -0.349999 25.014999
v 0.095999 -0.349999 25.014999
v 0.048842 -0.364634 25.014999
v 0.098958 -0.356746 25.025982
v 0.048842 -0.364634 25.014999
v 0.050282 -0.371852 25.025982
v 0.098958 -0.356746 25.025982
v 0.098958 -0.356746 25.025982
v 0.050282 -0.371852 25.025982
v 0.103000 -0.365962 25.029999
v 0.050282 -0.371852 25.025982
v 0.052250 -0.381712 25.029999
v 0.103000 -0.365962 25.029999
v 0.052250 -0.381712 -25.029999
v -0.004000 -0.386962 -25.029999
v 0.050282 -0.371852 -25.025980
v -0.004000 -0.386962 -25.029999
v -0.003999 -0.376918 -25.025980
v 0.050282 -0.371852 -25.025980
v 0.050282 -0.371852 -25.025980
v -0.003999 -0.376918 -25.025980
v 0.048842 -0.364634 -25.014999
v -0.003999 -0.376918 -25.025980
v -0.003998 -0.369566 -25.014999
v 0.048842 -0.364634 -25.014999
v 0.048842 -0.364634 -25.014999
v -0.003998 -0.369566 -25.014999
v 0.048314 -0.361992 -25.000000
v -0.003998 -0.369566 -25.014999
v -0.003998 -0.366875 -25.000000
v 0.048314 -0.361992 -25.000000
v 0.048314 -0.361992 -25.000000
v -0.003998 -0.366875 -25.000000
v 0.048314 -0.361992 25.000000
v -0.003998 -0.366875 -25.000000
v -0.003998 -0.366875 25.000000
v 0.048314 -0.361992 25.000000
v 0.048314 -0.361992 25.000000
v -0.003998 -0.366875 25.000000
v 0.048842 -0.364634 25.014999
v -0.003998 -0.366875 25.000000
v -0.003998 -0.369566 25.014999
v 0.048842 -0.364634 25.014999
v 0.048842 -0.364634 25.014999
v -0.003998 -0.369566 25.014999
v 0.050282 -0.371852 25.025982
v -0.003998 -0.369566 25.014999
v -0.003999 -0.376918 25.025982
v 0.050282 -0.371852 25.025982
v 0.050282 -0.371852 25.025982
v -0.003999 -0.376918 25.025982
v 0.052250 -0.381712 25.029999
v -0.003999 -0.376918 25.025982
v -0.004000 -0.386962 25.029999
v 0.052250 -0.381712 25.029999
v -0.004000 -0.386962 -25.029999
v -0.060125 -0.381712 -25.029999
v -0.003999 -0.376918 -25.025980
v -0.060125 -0.381712 -25.029999
v -0.058146 -0.371854 -25.025980
v -0.003999 -0.376918 -25.025980
v -0.003999 -0.376918 -25.025980
v -0.058146 -0.371854 -25.025980
v -0.003998 -0.369566 -25.014999
v -0.058146 -0.371854 -25.025980
v -0.056697 -0.364637 -25.014999
v -0.003998 -0.369566 -25.014999
v -0.003998 -0.369566 -25.014999
v -0.056697 -0.364637 -25.014999
v -0.003998 -0.366875 -25.000000
v -0.056697 -0.364637 -25.014999
v -0.056166 -0.361995 -25.000000
v -0.003998 -0.366875 -25.000000
v -0.003998 -0.366875 -25.000000
v -0.056166 -0.361995 -25.000000
v -0.003998 -0.366875 25.000000
v -0.056166 -0.361995 -25.000000
v -0.056166 -0.361995 25.000000
v -0.003998 -0.366875 25.000000
v -0.003998 -0.366875 25.000000
v -0.056166 -0.361995 25.000000
v -0.003998 -0.369566 25.014999
v -0.056166 -0.361995 25.000000
v -0.056697 -0.364637 25.014999
v -0.003998 -0.369566 25.014999
v -0.003998 -0.369566 25.014999
v -0.056697 -0.364637 25.014999
v -0.003999 -0.376918 25.025982
v -0.056697 -0.364637 25.014999
v -0.058146 -0.371854 25.025982
v -0.003999 -0.376918 25.025982
v -0.003999 -0.376918 25.025982
v -0.058146 -0.371854 25.025982
v -0.004000 -0.386962 25.029999
v -0.058146 -0.371854 25.025982
v -0.060125 -0.381712 25.029999
v -0.004000 -0.386962 25.029999
v -0.060125 -0.381712 -25.029999
v -0.110500 -0.365962 -25.029999
v -0.058146 -0.371854 -25.025980
v -0.110500 -0.365962 -25.029999
v -0.106420 -0.356760 -25.025980
v -0.058146 -0.371854 -25.025980
v -0.058146 -0.371854 -25.025980
v -0.106420 -0.356760 -25.025980
v -0.056697 -0.364637 -25.014999
v -0.106420 -0.356760 -25.025980
v -0.103433 -0.350024 -25.014999
v -0.056697 -0.364637 -25.014999
v -0.056697 -0.364637 -25.014999
v -0.103433 -0.350024 -25.014999
v -0.056166 -0.361995 -25.000000
v -0.103433 -0.350024 -25.014999
v -0.102339 -0.347559 -25.000000
v -0.056166 -0.361995 -25.000000
v -0.056166 -0.361995 -25.000000
v -0.102339 -0.347559 -25.000000
v -0.056166 -0.361995 25.000000
v -0.102339 -0.347559 -25.000000
v -0.102339 -0.347559 25.000000
v -0.056166 -0.361995 25.000000
v -0.056166 -0.361995 25.000000
v -0.102339 -0.347559 25.000000
v -0.056697 -0.364637 25.014999
v -0.102339 -0.347559 25.000000
v -0.103433 -0.350024 25.014999
v -0.056697 -0.364637 25.014999
v -0.056697 -0.364637 25.014999
v -0.103433 -0.350024 25.014999
v -0.058146 -0.371854 25.025982
v -0.103433 -0.350024 25.014999
v -0.106420 -0.356760 25.025982
v -0.058146 -0.371854 25.025982
v -0.058146 -0.371854 25.025982
v -0.106420 -0.356760 25.025982
v -0.060125 -0.381712 25.029999
v -0.106420 -0.356760 25.025982
v -0.110500 -0.365962 25.029999
v -0.060125 -0.381712 25.029999
v -0.110500 -0.365962 -25.029999
v -0.155125 -0.339712 -25.029999
v -0.106420 -0.356760 -25.025980
v -0.155125 -0.339712 -25.029999
v -0.149078 -0.331667 -25.025980
v -0.106420 -0.356760 -25.025980
v -0.106420 -0.356760 -25.025980
v -0.149078 -0.331667 -25.025980
v -0.103433 -0.350024 -25.014999
v -0.149078 -0.331667 -25.025980
v -0.144652 -0.325778 -25.014999
v -0.103433 -0.350024 -25.014999
v -0.103433 -0.350024 -25.014999
v -0.144652 -0.325778 -25.014999
v -0.102339 -0.347559 -25.000000
v -0.144652 -0.325778 -25.014999
v -0.143032 -0.323622 -25.000000
v -0.102339 -0.347559 -25.000000
v -0.102339 -0.347559 -25.000000
v -0.143032 -0.323622 -25.000000
v -0.102339 -0.347559 25.000000
v -0.143032 -0.323622 -25.000000
v -0.143032 -0.323622 25.000000
v -0.102339 -0.347559 25.000000
v -0.102339 -0.347559 25.000000
v -0.143032 -0.323622 25.000000
v -0.103433 -0.350024 25.014999
v -0.143032 -0.323622 25.000000
v -0.144652 -0.325778 25.014999
v -0.103433 -0.350024 25.014999
v -0.103433 -0.350024 25.014999
v -0.144652 -0.325778 25.014999
v -0.106420 -0.356760 25.025982
v -0.144652 -0.325778 25.014999
v -0.149078 -0.331667 25.025982
v -0.106420 -0.356760 25.025982
v -0.106420 -0.356760 25.025982
v -0.149078 -0.331667 25.025982
v -0.110500 -0.365962 25.029999
v -0.149078 -0.331667 25.025982
v -0.155125 -0.339712 25.029999
v -0.110500 -0.365962 25.029999
v -0.155125 -0.339712 -25.029999
v -0.194000 -0.302962 -25.029999
v -0.149078 -0.331667 -25.025980
v -0.194000 -0.302962 -25.029999
v -0.186355 -0.296428 -25.025980
v -0.149078 -0.331667 -25.025980
v -0.149078 -0.331667 -25.025980
v -0.186355 -0.296428 -25.025980
v -0.144652 -0.325778 -25.014999
v -0.186355 -0.296428 -25.025980
v -0.180758 -0.291645 -25.014999
v -0.144652 -0.325778 -25.014999
v -0.144652 -0.325778 -25.014999
v -0.180758 -0.291645 -25.014999
v -0.143032 -0.323622 -25.000000
v -0.180758 -0.291645 -25.014999
v -0.178710 -0.289894 -25.000000
v -0.143032 -0.323622 -25.000000
v -0.143032 -0.323622 -25.000000
v -0.178710 -0.289894 -25.000000
v -0.143032 -0.323622 25.000000
v -0.178710 -0.289894 -25.000000
v -0.178710 -0.289894 25.000000
v -0.143032 -0.323622 25.000000
v -0.143032 -0.323622 25.000000
v -0.178710 -0.289894 25.000000
v -0.144652 -0.325778 25.014999
v -0.178710 -0.289894 25.000000
v -0.180758 -0.291645 25.014999
v -0.144652 -0.325778 25.014999
v -0.144652 -0.325778 25.014999
v -0.180758 -0.291645 25.014999
v -0.149078 -0.331667 25.025982
v -0.180758 -0.291645 25.014999
v -0.186355 -0.296428 25.025982
v -0.149078 -0.331667 25.025982
v -0.149078 -0.331667 25.025982
v -0.186355 -0.296428 25.025982
v -0.155125 -0.339712 25.029999
v -0.186355 -0.296428 25.025982
v -0.194000 -0.302962 25.029999
v -0.155125 -0.339712 25.029999
v -0.194000 -0.302962 -25.029999
v -0.222875 -0.260837 -25.029999
v -0.186355 -0.296428 -25.025980
v -0.222875 -0.260837 -25.029999
v -0.214087 -0.255970 -25.025980
v -0.186355 -0.296428 -25.025980
v -0.186355 -0.296428 -25.025980
v -0.214087 -0.255970 -25.025980
v -0.180758 -0.291645 -25.014999
v -0.214087 -0.255970 -25.025980
v -0.207654 -0.252408 -25.014999
v -0.180758 -0.291645 -25.014999
v -0.180758 -0.291645 -25.014999
v -0.207654 -0.252408 -25.014999
v -0.178710 -0.289894 -25.000000
v -0.207654 -0.252408 -25.014999
v -0.205299 -0.251104 -25.000000
v -0.178710 -0.289894 -25.000000
v -0.178710 -0.289894 -25.000000
v -0.205299 -0.251104 -25.000000
v -0.178710 -0.289894 25.000000
v -0.205299 -0.251104 -25.000000
v -0.205299 -0.251104 25.000000
v -0.178710 -0.289894 25.000000
v -0.178710 -0.289894 25.000000
v -0.205299 -0.251104 25.000000
v -0.180758 -0.291645 25.014999
v -0.205299 -0.251104 25.000000
v -0.207654 -0.252408 25.014999
v -0.180758 -0.291645 25.014999
v -0.180758 -0.291645 25.014999
v -0.207654 -0.252408 25.014999
v -0.186355 -0.296428 25.025982
v -0.207654 -0.252408 25.014999
v -0.214087 -0.255970 25.025982
v -0.186355 -0.296428 25.025982
v -0.186355 -0.296428 25.025982
v -0.214087 -0.255970 25.025982
v -0.194000 -0.302962 25.029999
v -0.214087 -0.255970 25.025982
v -0.222875 -0.260837 25.029999
v -0.194000 -0.302962 25.029999
v -0.222875 -0.260837 -25.029999
v -0.243500 -0.213462 -25.029999
v -0.214087 -0.255970 -25.025980
v -0.243500 -0.213462 -25.029999
v -0.233972 -0.210296 -25.025980
v -0.214087 -0.255970 -25.025980
v -0.214087 -0.255970 -25.025980
v -0.233972 -0.210296 -25.025980
v -0.207654 -0.252408 -25.014999
v -0.233972 -0.210296 -25.025980
v -0.226996 -0.207979 -25.014999
v -0.207654 -0.252408 -25.014999
v -0.207654 -0.252408 -25.014999
v -0.226996 -0.207979 -25.014999
v -0.205299 -0.251104 -25.000000
v -0.226996 -0.207979 -25.014999
v -0.224443 -0.207130 -25.000000
v -0.205299 -0.251104 -25.000000
v -0.205299 -0.251104 -25.000000
v -0.224443 -0.207130 -25.000000
v -0.205299 -0.251104 25.000000
v -0.224443 -0.207130 -25.000000
v -0.224443 -0.207130 25.000000
v -0.205299 -0.251104 25.000000
v -0.205299 -0.251104 25.000000
v -0.224443 -0.207130 25.000000
v -0.207654 -0.252408 25.014999
v -0.224443 -0.207130 25.000000
v -0.226996 -0.207979 25.014999
v -0.207654 -0.252408 25.014999
v -0.207654 -0.252408 25.014999
v -0.226996 -0.207979 25.014999
v -0.214087 -0.255970 25.025982
v -0.226996 -0.207979 25.014999
v -0.233972 -0.210296 25.025982
v -0.214087 -0.255970 25.025982
v -0.214087 -0.255970 25.025982
v -0.233972 -0.210296 25.025982
v -0.222875 -0.260837 25.029999
v -0.233972 -0.210296 25.025982
v -0.243500 -0.213462 25.029999
v -0.222875 -0.260837 25.029999
v -0.243500 -0.213462 -25.029999
v -0.255875 -0.160837 -25.029999
v -0.233972 -0.210296 -25.025980
v -0.255875 -0.160837 -25.029999
v -0.245957 -0.159327 -25.025980
v -0.233972 -0.210296 -25.025980
v -0.233972 -0.210296 -25.025980
v -0.245957 -0.159327 -25.025980
v -0.226996 -0.207979 -25.014999
v -0.245957 -0.159327 -25.025980
v -0.238697 -0.158222 -25.014999
v -0.226996 -0.207979 -25.014999
v -0.226996 -0.207979 -25.014999
v -0.238697 -0.158222 -25.014999
v -0.224443 -0.207130 -25.000000
v -0.238697 -0.158222 -25.014999
v -0.236039 -0.157818 -25.000000
v -0.224443 -0.207130 -25.000000
v -0.224443 -0.207130 -25.000000
v -0.236039 -0.157818 -25.000000
v -0.224443 -0.207130 25.000000
v -0.236039 -0.157818 -25.000000
v -0.236039 -0.157818 25.000000
v -0.224443 -0.207130 25.000000
v -0.224443 -0.207130 25.000000
v -0.236039 -0.157818 25.000000
v -0.226996 -0.207979 25.014999
v -0.236039 -0.157818 25.000000
v -0.238697 -0.158222 25.014999
v -0.226996 -0.207979 25.014999
v -0.226996 -0.207979 25.014999
v -0.238697 -0.158222 25.014999
v -0.233972 -0.210296 25.025982
v -0.238697 -0.158222 25.014999
v -0.245957 -0.159327 25.025982
v -0.233972 -0.210296 25.025982
v -0.233972 -0.210296 25.025982
v -0.245957 -0.159327 25.025982
v -0.243500 -0.213462 25.029999
v -0.245957 -0.159327 25.025982
v -0.255875 -0.160837 25.029999
v -0.243500 -0.213462 25.029999
v -0.255875 -0.160837 -25.029999
v -0.260000 -0.102962 -25.029999
v -0.245957 -0.159327 -25.025980
v -0.260000 -0.102962 -25.029999
v -0.250000 -0.102606 -25.025980
v -0.245957 -0.159327 -25.025980
v -0.245957 -0.159327 -25.025980
v -0.250000 -0.102606 -25.025980
v -0.238697 -0.158222 -25.014999
v -0.250000 -0.102606 -25.025980
v -0.242679 -0.102346 -25.014999
v -0.238697 -0.158222 -25.014999
v -0.238697 -0.158222 -25.014999
v -0.242679 -0.102346 -25.014999
v -0.236039 -0.157818 -25.000000
v -0.242679 -0.102346 -25.014999
v -0.240000 -0.102250 -25.000000
v -0.236039 -0.157818 -25.000000
v -0.236039 -0.157818 -25.000000
v -0.240000 -0.102250 -25.000000
v -0.236039 -0.157818 25.000000
v -0.240000 -0.102250 -25.000000
v -0.240000 -0.102250 25.000000
v -0.236039 -0.157818 25.000000
v -0.236039 -0.157818 25.000000
v -0.240000 -0.102250 25.000000
v -0.238697 -0.158222 25.014999
v -0.240000 -0.102250 25.000000
v -0.242679 -0.102346 25.014999
v -0.238697 -0.158222 25.014999
v -0.238697 -0.158222 25.014999
v -0.242679 -0.102346 25.014999
v -0.245957 -0.159327 25.025982
v -0.242679 -0.102346 25.014999
v -0.250000 -0.102606 25.025982
v -0.245957 -0.159327 25.025982
v -0.245957 -0.159327 25.025982
v -0.250000 -0.102606 25.025982
v -0.255875 -0.160837 25.029999
v -0.250000 -0.102606 25.025982
v -0.260000 -0.102962 25.029999
v -0.255875 -0.160837 25.029999
v -0.260000 -0.102962 -25.029999
v -0.260000 0.519038 -25.029999
v -0.250000 -0.102606 -25.025980
v -0.260000 0.519038 -25.029999
v -0.250000 0.529038 -25.025980
v -0.250000 -0.102606 -25.025980
v -0.250000 -0.102606 -25.025980
v -0.250000 0.529038 -25.025980
v -0.242679 -0.102346 -25.014999
v -0.250000 0.529038 -25.025980
v -0.242679 0.536359 -25.014999
v -0.242679 -0.102346 -25.014999
v -0.242679 -0.102346 -25.014999
v -0.242679 0.536359 -25.014999
v -0.240000 -0.102250 -25.000000
v -0.242679 0.536359 -25.014999
v -0.240000 0.539038 -25.000000
v -0.240000 -0.102250 -25.000000
v -0.240000 -0.102250 -25.000000
v -0.240000 0.539038 -25.000000
v -0.240000 -0.102250 25.000000
v -0.240000 0.539038 -25.000000
v -0.240000 0.539038 25.000000
v -0.240000 -0.102250 25.000000
v -0.240000 -0.102250 25.000000
v -0.240000 0.539038 25.000000
v -0.242679 -0.102346 25.014999
v -0.240000 0.539038 25.000000
v -0.242679 0.536359 25.014999
v -0.242679 -0.102346 25.014999
v -0.242679 -0.102346 25.014999
v -0.242679 0.536359 25.014999
v -0.250000 -0.102606 25.025982
v -0.242679 0.536359 25.014999
v -0.250000 0.529038 25.025982
v -0.250000 -0.102606 25.025982
v -0.250000 -0.102606 25.025982
v -0.250000 0.529038 25.025982
v -0.260000 -0.102962 25.029999
v -0.250000 0.529038 25.025982
v -0.260000 0.519038 25.029999
v -0.260000 -0.102962 25.029999
v -0.260000 0.519038 -25.029999
v -0.398000 0.519038 -25.029999
v -0.250000 0.529038 -25.025980
v -0.398000 0.519038 -25.029999
v -0.408000 0.529038 -25.025980
v -0.250000 0.529038 -25.025980
v -0.250000 0.529038 -25.025980
v -0.408000 0.529038 -25.025980
v -0.242679 0.536359 -25.014999
v -0.408000 0.529038 -25.025980
v -0.415321 0.536359 -25.014999
v -0.242679 0.536359 -25.014999
v -0.242679 0.536359 -25.014999
v -0.415321 0.536359 -25.014999
v -0.240000 0.539038 -25.000000
v -0.415321 0.536359 -25.014999
v -0.418000 0.539038 -25.000000
v -0.240000 0.539038 -25.000000
v -0.240000 0.539038 -25.000000
v -0.418000 0.539038 -25.000000
v -0.240000 0.539038 25.000000
v -0.418000 0.539038 -25.000000
v -0.418000 0.539038 25.000000
v -0.240000 0.539038 25.000000
v -0.240000 0.539038 25.000000
v -0.418000 0.539038 25.000000
v -0.242679 0.536359 25.014999
v -0.418000 0.539038 25.000000
v -0.415321 0.536359 25.014999
v -0.242679 0.536359 25.014999
v -0.242679 0.536359 25.014999
v -0.415321 0.536359 25.014999
v -0.250000 0.529038 25.025982
v -0.415321 0.536359 25.014999
v -0.408000 0.529038 25.025982
v -0.250000 0.529038 25.025982
v -0.250000 0.529038 25.025982
v -0.408000 0.529038 25.025982
v -0.260000 0.519038 25.029999
v -0.408000 0.529038 25.025982
v -0.398000 0.519038 25.029999
v -0.260000 0.519038 25.029999
v -0.398000 0.519038 -25.029999
v -0.398000 -0.100962 -25.029999
v -0.408000 0.529038 -25.025980
v -0.398000 -0.100962 -25.029999
v -0.408000 -0.101325 -25.025980
v -0.408000 0.529038 -25.025980
v -0.408000 0.529038 -25.025980
v -0.408000 -0.101325 -25.025980
v -0.415321 0.536359 -25.014999
v -0.408000 -0.101325 -25.025980
v -0.415321 -0.101590 -25.014999
v -0.415321 0.536359 -25.014999
v -0.415321 0.536359 -25.014999
v -0.415321 -0.101590 -25.014999
v -0.418000 0.539038 -25.000000
v -0.415321 -0.101590 -25.014999
v -0.418000 -0.101688 -25.000000
v -0.418000 0.539038 -25.000000
v -0.418000 0.539038 -25.000000
v -0.418000 -0.101688 -25.000000
v -0.418000 0.539038 25.000000
v -0.418000 -0.101688 -25.000000
v -0.418000 -0.101688 25.000000
v -0.418000 0.539038 25.000000
v -0.418000 0.539038 25.000000
v -0.418000 -0.101688 25.000000
v -0.415321 0.536359 25.014999
v -0.418000 -0.101688 25.000000
v -0.415321 -0.101590 25.014999
v -0.415321 0.536359 25.014999
v -0.415321 0.536359 25.014999
v -0.415321 -0.101590 25.014999
v -0.408000 0.529038 25.025982
v -0.415321 -0.101590 25.014999
v -0.408000 -0.101325 25.025982
v -0.408000 0.529038 25.025982
v -0.408000 0.529038 25.025982
v -0.408000 -0.101325 25.025982
v -0.398000 0.519038 25.029999
v -0.408000 -0.101325 25.025982
v -0.398000 -0.100962 25.029999
v -0.398000 0.519038 25.029999
v -0.398000 -0.100962 -25.029999
v -0.391687 -0.187837 -25.029999
v -0.408000 -0.101325 -25.025980
v -0.391687 -0.187837 -25.029999
v -0.401602 -0.189381 -25.025980
v -0.408000 -0.101325 -25.025980
v -0.408000 -0.101325 -25.025980
v -0.401602 -0.189381 -25.025980
v -0.415321 -0.101590 -25.014999
v -0.401602 -0.189381 -25.025980
v -0.408859 -0.190510 -25.014999
v -0.415321 -0.101590 -25.014999
v -0.415321 -0.101590 -25.014999
v -0.408859 -0.190510 -25.014999
v -0.418000 -0.101688 -25.000000
v -0.408859 -0.190510 -25.014999
v -0.411516 -0.190924 -25.000000
v -0.418000 -0.101688 -25.000000
v -0.418000 -0.101688 -25.000000
v -0.411516 -0.190924 -25.000000
v -0.418000 -0.101688 25.000000
v -0.411516 -0.190924 -25.000000
v -0.411516 -0.190924 25.000000
v -0.418000 -0.101688 25.000000
v -0.418000 -0.101688 25.000000
v -0.411516 -0.190924 25.000000
v -0.415321 -0.101590 25.014999
v -0.411516 -0.190924 25.000000
v -0.408859 -0.190510 25.014999
v -0.415321 -0.101590 25.014999
v -0.415321 -0.101590 25.014999
v -0.408859 -0.190510 25.014999
v -0.408000 -0.101325 25.025982
v -0.408859 -0.190510 25.014999
v -0.401602 -0.189381 25.025982
v -0.408000 -0.101325 25.025982
v -0.408000 -0.101325 25.025982
v -0.401602 -0.189381 25.025982
v -0.398000 -0.100962 25.029999
v -0.401602 -0.189381 25.025982
v -0.391687 -0.187837 25.029999
v -0.398000 -0.100962 25.029999
v -0.391687 -0.187837 -25.029999
v -0.372750 -0.266462 -25.029999
v -0.401602 -0.189381 -25.025980
v -0.372750 -0.266462 -25.029999
v -0.382254 -0.269707 -25.025980
v -0.401602 -0.189381 -25.025980
v -0.401602 -0.189381 -25.025980
v -0.382254 -0.269707 -25.025980
v -0.408859 -0.190510 -25.014999
v -0.382254 -0.269707 -25.025980
v -0.389212 -0.272082 -25.014999
v -0.408859 -0.190510 -25.014999
v -0.408859 -0.190510 -25.014999
v -0.389212 -0.272082 -25.014999
v -0.411516 -0.190924 -25.000000
v -0.389212 -0.272082 -25.014999
v -0.391759 -0.272951 -25.000000
v -0.411516 -0.190924 -25.000000
v -0.411516 -0.190924 -25.000000
v -0.391759 -0.272951 -25.000000
v -0.411516 -0.190924 25.000000
v -0.391759 -0.272951 -25.000000
v -0.391759 -0.272951 25.000000
v -0.411516 -0.190924 25.000000
v -0.411516 -0.190924 25.000000
v -0.391759 -0.272951 25.000000
v -0.408859 -0.190510 25.014999
v -0.391759 -0.272951 25.000000
v -0.389212 -0.272082 25.014999
v -0.408859 -0.190510 25.014999
v -0.408859 -0.190510 25.014999
v -0.389212 -0.272082 25.014999
v -0.401602 -0.189381 25.025982
v -0.389212 -0.272082 25.014999
v -0.382254 -0.269707 25.025982
v -0.401602 -0.189381 25.025982
v -0.401602 -0.189381 25.025982
v -0.382254 -0.269707 25.025982
v -0.391687 -0.187837 25.029999
v -0.382254 -0.269707 25.025982
v -0.372750 -0.266462 25.029999
v -0.391687 -0.187837 25.029999
v -0.372750 -0.266462 -25.029999
v -0.341188 -0.336837 -25.029999
v -0.382254 -0.269707 -25.025980
v -0.341188 -0.336837 -25.029999
v -0.349908 -0.341829 -25.025980
v -0.382254 -0.269707 -25.025980
v -0.382254 -0.269707 -25.025980
v -0.349908 -0.341829 -25.025980
v -0.389212 -0.272082 -25.014999
v -0.349908 -0.341829 -25.025980
v -0.356292 -0.345484 -25.014999
v -0.389212 -0.272082 -25.014999
v -0.389212 -0.272082 -25.014999
v -0.356292 -0.345484 -25.014999
v -0.391759 -0.272951 -25.000000
v -0.356292 -0.345484 -25.014999
v -0.358629 -0.346822 -25.000000
v -0.391759 -0.272951 -25.000000
v -0.391759 -0.272951 -25.000000
v -0.358629 -0.346822 -25.000000
v -0.391759 -0.272951 25.000000
v -0.358629 -0.346822 -25.000000
v -0.358629 -0.346822 25.000000
v -0.391759 -0.272951 25.000000
v -0.391759 -0.272951 25.000000
v -0.358629 -0.346822 25.000000
v -0.389212 -0.272082 25.014999
v -0.358629 -0.346822 25.000000
v -0.356292 -0.345484 25.014999
v -0.389212 -0.272082 25.014999
v -0.389212 -0.272082 25.014999
v -0.356292 -0.345484 25.014999
v -0.382254 -0.269707 25.025982
v -0.356292 -0.345484 25.014999
v -0.349908 -0.341829 25.025982
v -0.382254 -0.269707 25.025982
v -0.382254 -0.269707 25.025982
v -0.349908 -0.341829 25.025982
v -0.372750 -0.266462 25.029999
v -0.349908 -0.341829 25.025982
v -0.341188 -0.336837 25.029999
v -0.372750 -0.266462 25.029999
v -0.341188 -0.336837 -25.029999
v -0.297000 -0.398962 -25.029999
v -0.349908 -0.341829 -25.025980
v -0.297000 -0.398962 -25.029999
v -0.304520 -0.405643 -25.025980
v -0.349908 -0.341829 -25.025980
v -0.349908 -0.341829 -25.025980
v -0.304520 -0.405643 -25.025980
v -0.356292 -0.345484 -25.014999
v -0.304520 -0.405643 -25.025980
v -0.310024 -0.410534 -25.014999
v -0.356292 -0.345484 -25.014999
v -0.356292 -0.345484 -25.014999
v -0.310024 -0.410534 -25.014999
v -0.358629 -0.346822 -25.000000
v -0.310024 -0.410534 -25.014999
v -0.312039 -0.412324 -25.000000
v -0.358629 -0.346822 -25.000000
v -0.358629 -0.346822 -25.000000
v -0.312039 -0.412324 -25.000000
v -0.358629 -0.346822 25.000000
v -0.312039 -0.412324 -25.000000
v -0.312039 -0.412324 25.000000
v -0.358629 -0.346822 25.000000
v -0.358629 -0.346822 25.000000
v -0.312039 -0.412324 25.000000
v -0.356292 -0.345484 25.014999
v -0.312039 -0.412324 25.000000
v -0.310024 -0.410534 25.014999
v -0.356292 -0.345484 25.014999
v -0.356292 -0.345484 25.014999
v -0.310024 -0.410534 25.014999
v -0.349908 -0.341829 25.025982
v -0.310024 -0.410534 25.014999
v -0.304520 -0.405643 25.025982
v -0.349908 -0.341829 25.025982
v -0.349908 -0.341829 25.025982
v -0.304520 -0.405643 25.025982
v -0.341188 -0.336837 25.029999
v -0.304520 -0.405643 25.025982
v -0.297000 -0.398962 25.029999
v -0.341188 -0.336837 25.029999
v -0.297000 -0.398962 -25.029999
v -0.239062 -0.451462 -25.029999
v -0.304520 -0.405643 -25.025980
v -0.239062 -0.451462 -25.029999
v -0.244941 -0.459630 -25.025980
v -0.304520 -0.405643 -25.025980
v -0.304520 -0.405643 -25.025980
v -0.244941 -0.459630 -25.025980
v -0.310024 -0.410534 -25.014999
v -0.244941 -0.459630 -25.025980
v -0.249244 -0.465609 -25.014999
v -0.310024 -0.410534 -25.014999
v -0.310024 -0.410534 -25.014999
v -0.249244 -0.465609 -25.014999
v -0.312039 -0.412324 -25.000000
v -0.249244 -0.465609 -25.014999
v -0.250820 -0.467798 -25.000000
v -0.312039 -0.412324 -25.000000
v -0.312039 -0.412324 -25.000000
v -0.250820 -0.467798 -25.000000
v -0.312039 -0.412324 25.000000
v -0.250820 -0.467798 -25.000000
v -0.250820 -0.467798 25.000000
v -0.312039 -0.412324 25.000000
v -0.312039 -0.412324 25.000000
v -0.250820 -0.467798 25.000000
v -0.310024 -0.410534 25.014999
v -0.250820 -0.467798 25.000000
v -0.249244 -0.465609 25.014999
v -0.310024 -0.410534 25.014999
v -0.310024 -0.410534 25.014999
v -0.249244 -0.465609 25.014999
v -0.304520 -0.405643 25.025982
v -0.249244 -0.465609 25.014999
v -0.244941 -0.459630 25.025982
v -0.304520 -0.405643 25.025982
v -0.304520 -0.405643 25.025982
v -0.244941 -0.459630 25.025982
v -0.297000 -0.398962 25.029999
v -0.244941 -0.459630 25.025982
v -0.239062 -0.451462 25.029999
v -0.297000 -0.398962 25.029999
v -0.239062 -0.451462 -25.029999
v -0.172250 -0.488962 -25.029999
v -0.244941 -0.459630 -25.025980
v -0.172250 -0.488962 -25.029999
v -0.176170 -0.498229 -25.025980
v -0.244941 -0.459630 -25.025980
v -0.244941 -0.459630 -25.025980
v -0.176170 -0.498229 -25.025980
v -0.249244 -0.465609 -25.014999
v -0.176170 -0.498229 -25.025980
v -0.179040 -0.505013 -25.014999
v -0.249244 -0.465609 -25.014999
v -0.249244 -0.465609 -25.014999
v -0.179040 -0.505013 -25.014999
v -0.250820 -0.467798 -25.000000
v -0.179040 -0.505013 -25.014999
v -0.180091 -0.507496 -25.000000
v -0.250820 -0.467798 -25.000000
v -0.250820 -0.467798 -25.000000
v -0.180091 -0.507496 -25.000000
v -0.250820 -0.467798 25.000000
v -0.180091 -0.507496 -25.000000
v -0.180091 -0.507496 25.000000
v -0.250820 -0.467798 25.000000
v -0.250820 -0.467798 25.000000
v -0.180091 -0.507496 25.000000
v -0.249244 -0.465609 25.014999
v -0.180091 -0.507496 25.000000
v -0.179040 -0.505013 25.014999
v -0.249244 -0.465609 25.014999
v -0.249244 -0.465609 25.014999
v -0.179040 -0.505013 25.014999
v -0.244941 -0.459630 25.025982
v -0.179040 -0.505013 25.014999
v -0.176170 -0.498229 25.025982
v -0.244941 -0.459630 25.025982
v -0.244941 -0.459630 25.025982
v -0.176170 -0.498229 25.025982
v -0.239062 -0.451462 25.029999
v -0.176170 -0.498229 25.025982
v -0.172250 -0.488962 25.029999
v -0.239062 -0.451462 25.029999
v -0.172250 -0.488962 -25.029999
v -0.096562 -0.511462 -25.029999
v -0.176170 -0.498229 -25.025980
v -0.096562 -0.511462 -25.029999
v -0.098448 -0.521334 -25.025980
v -0.176170 -0.498229 -25.025980
v -0.176170 -0.498229 -25.025980
v -0.098448 -0.521334 -25.025980
v -0.179040 -0.505013 -25.014999
v -0.098448 -0.521334 -25.025980
v -0.099828 -0.528561 -25.014999
v -0.179040 -0.505013 -25.014999
v -0.179040 -0.505013 -25.014999
v -0.099828 -0.528561 -25.014999
v -0.180091 -0.507496 -25.000000
v -0.099828 -0.528561 -25.014999
v -0.100333 -0.531206 -25.000000
v -0.180091 -0.507496 -25.000000
v -0.180091 -0.507496 -25.000000
v -0.100333 -0.531206 -25.000000
v -0.180091 -0.507496 25.000000
v -0.100333 -0.531206 -25.000000
v -0.100333 -0.531206 25.000000
v -0.180091 -0.507496 25.000000
v -0.180091 -0.507496 25.000000
v -0.100333 -0.531206 25.000000
v -0.179040 -0.505013 25.014999
v -0.100333 -0.531206 25.000000
v -0.099828 -0.528561 25.014999
v -0.179040 -0.505013 25.014999
v -0.179040 -0.505013 25.014999
v -0.099828 -0.528561 25.014999
v -0.176170 -0.498229 25.025982
v -0.099828 -0.528561 25.014999
v -0.098448 -0.521334 25.025982
v -0.176170 -0.498229 25.025982
v -0.176170 -0.498229 25.025982
v -0.098448 -0.521334 25.025982
v -0.172250 -0.488962 25.029999
v -0.098448 -0.521334 25.025982
v -0.096562 -0.511462 25.029999
v -0.172250 -0.488962 25.029999
v -0.096562 -0.511462 -25.029999
v -0.012000 -0.518962 -25.029999
v -0.098448 -0.521334 -25.025980
v -0.012000 -0.518962 -25.029999
v -0.012014 -0.529000 -25.025980
v -0.098448 -0.521334 -25.025980
v -0.098448 -0.521334 -25.025980
v -0.012014 -0.529000 -25.025980
v -0.099828 -0.528561 -25.014999
v -0.012014 -0.529000 -25.025980
v -0.012025 -0.536348 -25.014999
v -0.099828 -0.528561 -25.014999
v -0.099828 -0.528561 -25.014999
v -0.012025 -0.536348 -25.014999
v -0.100333 -0.531206 -25.000000
v -0.012025 -0.536348 -25.014999
v -0.012029 -0.539038 -25.000000
v -0.100333 -0.531206 -25.000000
v -0.100333 -0.531206 -25.000000
v -0.012029 -0.539038 -25.000000
v -0.100333 -0.531206 25.000000
v -0.012029 -0.539038 -25.000000
v -0.012029 -0.539038 25.000000
v -0.100333 -0.531206 25.000000
v -0.100333 -0.531206 25.000000
v -0.012029 -0.539038 25.000000
v -0.099828 -0.528561 25.014999
v -0.012029 -0.539038 25.000000
v -0.012025 -0.536348 25.014999
v -0.099828 -0.528561 25.014999
v -0.099828 -0.528561 25.014999
v -0.012025 -0.536348 25.014999
v -0.098448 -0.521334 25.025982
v -0.012025 -0.536348 25.014999
v -0.012014 -0.529000 25.025982
v -0.098448 -0.521334 25.025982
v -0.098448 -0.521334 25.025982
v -0.012014 -0.529000 25.025982
v -0.096562 -0.511462 25.029999
v -0.012014 -0.529000 25.025982
v -0.012000 -0.518962 25.029999
v -0.096562 -0.511462 25.029999
v -0.012000 -0.518962 -25.029999
v 0.073938 -0.511587 -25.029999
v -0.012014 -0.529000 -25.025980
v 0.073938 -0.511587 -25.029999
v 0.075749 -0.521468 -25.025980
v -0.012014 -0.529000 -25.025980
v -0.012014 -0.529000 -25.025980
v 0.075749 -0.521468 -25.025980
v -0.012025 -0.536348 -25.014999
v 0.075749 -0.521468 -25.025980
v 0.077075 -0.528702 -25.014999
v -0.012025 -0.536348 -25.014999
v -0.012025 -0.536348 -25.014999
v 0.077075 -0.528702 -25.014999
v -0.012029 -0.539038 -25.000000
v 0.077075 -0.528702 -25.014999
v 0.077561 -0.531350 -25.000000
v -0.012029 -0.539038 -25.000000
v -0.012029 -0.539038 -25.000000
v 0.077561 -0.531350 -25.000000
v -0.012029 -0.539038 25.000000
v 0.077561 -0.531350 -25.000000
v 0.077561 -0.531350 25.000000
v -0.012029 -0.539038 25.000000
v -0.012029 -0.539038 25.000000
v 0.077561 -0.531350 25.000000
v -0.012025 -0.536348 25.014999
v 0.077561 -0.531350 25.000000
v 0.077075 -0.528702 25.014999
v -0.012025 -0.536348 25.014999
v -0.012025 -0.536348 25.014999
v 0.077075 -0.528702 25.014999
v -0.012014 -0.529000 25.025982
v 0.077075 -0.528702 25.014999
v 0.075749 -0.521468 25.025982
v -0.012014 -0.529000 25.025982
v -0.012014 -0.529000 25.025982
v 0.075749 -0.521468 25.025982
v -0.012000 -0.518962 25.029999
v 0.075749 -0.521468 25.025982
v 0.073938 -0.511587 25.029999
v -0.012000 -0.518962 25.029999
v 0.073938 -0.511587 -25.029999
v 0.151750 -0.489462 -25.029999
v 0.075749 -0.521468 -25.025980
v 0.151750 -0.489462 -25.029999
v 0.155497 -0.498793 -25.025980
v 0.075749 -0.521468 -25.025980
v 0.075749 -0.521468 -25.025980
v 0.155497 -0.498793 -25.025980
v 0.077075 -0.528702 -25.014999
v 0.155497 -0.498793 -25.025980
v 0.158240 -0.505624 -25.014999
v 0.077075 -0.528702 -25.014999
v 0.077075 -0.528702 -25.014999
v 0.158240 -0.505624 -25.014999
v 0.077561 -0.531350 -25.000000
v 0.158240 -0.505624 -25.014999
v 0.159244 -0.508124 -25.000000
v 0.077561 -0.531350 -25.000000
v 0.077561 -0.531350 -25.000000
v 0.159244 -0.508124 -25.000000
v 0.077561 -0.531350 25.000000
v 0.159244 -0.508124 -25.000000
v 0.159244 -0.508124 25.000000
v 0.077561 -0.531350 25.000000
v 0.077561 -0.531350 25.000000
v 0.159244 -0.508124 25.000000
v 0.077075 -0.528702 25.014999
v 0.159244 -0.508124 25.000000
v 0.158240 -0.505624 25.014999
v 0.077075 -0.528702 25.014999
v 0.077075 -0.528702 25.014999
v 0.158240 -0.505624 25.014999
v 0.075749 -0.521468 25.025982
v 0.158240 -0.505624 25.014999
v 0.155497 -0.498793 25.025982
v 0.075749 -0.521468 25.025982
v 0.075749 -0.521468 25.025982
v 0.155497 -0.498793 25.025982
v 0.073938 -0.511587 25.029999
v 0.155497 -0.498793 25.025982
v 0.151750 -0.489462 25.029999
v 0.073938 -0.511587 25.029999
v 0.151750 -0.489462 -25.029999
v 0.221438 -0.452587 -25.029999
v 0.155497 -0.498793 -25.025980
v 0.221438 -0.452587 -25.029999
v 0.227051 -0.460930 -25.025980
v 0.155497 -0.498793 -25.025980
v 0.155497 -0.498793 -25.025980
v 0.227051 -0.460930 -25.025980
v 0.158240 -0.505624 -25.014999
v 0.227051 -0.460930 -25.025980
v 0.231161 -0.467038 -25.014999
v 0.158240 -0.505624 -25.014999
v 0.158240 -0.505624 -25.014999
v 0.231161 -0.467038 -25.014999
v 0.159244 -0.508124 -25.000000
v 0.231161 -0.467038 -25.014999
v 0.232665 -0.469274 -25.000000
v 0.159244 -0.508124 -25.000000
v 0.159244 -0.508124 -25.000000
v 0.232665 -0.469274 -25.000000
v 0.159244 -0.508124 25.000000
v 0.232665 -0.469274 -25.000000
v 0.232665 -0.469274 25.000000
v 0.159244 -0.508124 25.000000
v 0.159244 -0.508124 25.000000
v 0.232665 -0.469274 25.000000
v 0.158240 -0.505624 25.014999
v 0.232665 -0.469274 25.000000
v 0.231161 -0.467038 25.014999
v 0.158240 -0.505624 25.014999
v 0.158240 -0.505624 25.014999
v 0.231161 -0.467038 25.014999
v 0.155497 -0.498793 25.025982
v 0.231161 -0.467038 25.014999
v 0.227051 -0.460930 25.025982
v 0.155497 -0.498793 25.025982
v 0.155497 -0.498793 25.025982
v 0.227051 -0.460930 25.025982
v 0.151750 -0.489462 25.029999
v 0.227051 -0.460930 25.025982
v 0.221438 -0.452587 25.029999
v 0.151750 -0.489462 25.029999
v 0.221438 -0.452587 -25.029999
v 0.283000 -0.400962 -25.029999
v 0.227051 -0.460930 -25.025980
v 0.283000 -0.400962 -25.029999
v 0.290202 -0.407973 -25.025980
v 0.227051 -0.460930 -25.025980
v 0.227051 -0.460930 -25.025980
v 0.290202 -0.407973 -25.025980
v 0.231161 -0.467038 -25.014999
v 0.290202 -0.407973 -25.025980
v 0.295474 -0.413106 -25.014999
v 0.231161 -0.467038 -25.014999
v 0.231161 -0.467038 -25.014999
v 0.295474 -0.413106 -25.014999
v 0.232665 -0.469274 -25.000000
v 0.295474 -0.413106 -25.014999
v 0.297404 -0.414985 -25.000000
v 0.232665 -0.469274 -25.000000
v 0.232665 -0.469274 -25.000000
v 0.297404 -0.414985 -25.000000
v 0.232665 -0.469274 25.000000
v 0.297404 -0.414985 -25.000000
v 0.297404 -0.414985 25.000000
v 0.232665 -0.469274 25.000000
v 0.232665 -0.469274 25.000000
v 0.297404 -0.414985 25.000000
v 0.231161 -0.467038 25.014999
v 0.297404 -0.414985 25.000000
v 0.295474 -0.413106 25.014999
v 0.231161 -0.467038 25.014999
v 0.231161 -0.467038 25.014999
v 0.295474 -0.413106 25.014999
v 0.227051 -0.460930 25.025982
v 0.295474 -0.413106 25.014999
v 0.290202 -0.407973 25.025982
v 0.227051 -0.460930 25.025982
v 0.227051 -0.460930 25.025982
v 0.290202 -0.407973 25.025982
v 0.221438 -0.452587 25.029999
v 0.290202 -0.407973 25.025982
v 0.283000 -0.400962 25.029999
v 0.221438 -0.452587 25.029999
v 0.283000 -0.400962 -25.029999
v 0.333313 -0.337587 -25.029999
v 0.290202 -0.407973 -25.025980
v 0.333313 -0.337587 -25.029999
v 0.341778 -0.343006 -25.025980
v 0.290202 -0.407973 -25.025980
v 0.290202 -0.407973 -25.025980
v 0.341778 -0.343006 -25.025980
v 0.295474 -0.413106 -25.014999
v 0.341778 -0.343006 -25.025980
v 0.347976 -0.346974 -25.014999
v 0.295474 -0.413106 -25.014999
v 0.295474 -0.413106 -25.014999
v 0.347976 -0.346974 -25.014999
v 0.297404 -0.414985 -25.000000
v 0.347976 -0.346974 -25.014999
v 0.350244 -0.348426 -25.000000
v 0.297404 -0.414985 -25.000000
v 0.297404 -0.414985 -25.000000
v 0.350244 -0.348426 -25.000000
v 0.297404 -0.414985 25.000000
v 0.350244 -0.348426 -25.000000
v 0.350244 -0.348426 25.000000
v 0.297404 -0.414985 25.000000
v 0.297404 -0.414985 25.000000
v 0.350244 -0.348426 25.000000
v 0.295474 -0.413106 25.014999
v 0.350244 -0.348426 25.000000
v 0.347976 -0.346974 25.014999
v 0.295474 -0.413106 25.014999
v 0.295474 -0.413106 25.014999
v 0.347976 -0.346974 25.014999
v 0.290202 -0.407973 25.025982
v 0.347976 -0.346974 25.014999
v 0.341778 -0.343006 25.025982
v 0.290202 -0.407973 25.025982
v 0.290202 -0.407973 25.025982
v 0.341778 -0.343006 25.025982
v 0.283000 -0.400962 25.029999
v 0.341778 -0.343006 25.025982
v 0.333313 -0.337587 25.029999
v 0.283000 -0.400962 25.029999
v 0.333313 -0.337587 -25.029999
v 0.369250 -0.266462 -25.029999
v 0.341778 -0.343006 -25.025980
v 0.369250 -0.266462 -25.029999
v 0.378630 -0.270072 -25.025980
v 0.341778 -0.343006 -25.025980
v 0.341778 -0.343006 -25.025980
v 0.378630 -0.270072 -25.025980
v 0.347976 -0.346974 -25.014999
v 0.378630 -0.270072 -25.025980
v 0.385497 -0.272714 -25.014999
v 0.347976 -0.346974 -25.014999
v 0.347976 -0.346974 -25.014999
v 0.385497 -0.272714 -25.014999
v 0.350244 -0.348426 -25.000000
v 0.385497 -0.272714 -25.014999
v 0.388010 -0.273681 -25.000000
v 0.350244 -0.348426 -25.000000
v 0.350244 -0.348426 -25.000000
v 0.388010 -0.273681 -25.000000
v 0.350244 -0.348426 25.000000
v 0.388010 -0.273681 -25.000000
v 0.388010 -0.273681 25.000000
v 0.350244 -0.348426 25.000000
v 0.350244 -0.348426 25.000000
v 0.388010 -0.273681 25.000000
v 0.347976 -0.346974 25.014999
v 0.388010 -0.273681 25.000000
v 0.385497 -0.272714 25.014999
v 0.347976 -0.346974 25.014999
v 0.347976 -0.346974 25.014999
v 0.385497 -0.272714 25.014999
v 0.341778 -0.343006 25.025982
v 0.385497 -0.272714 25.014999
v 0.378630 -0.270072 25.025982
v 0.341778 -0.343006 25.025982
v 0.341778 -0.343006 25.025982
v 0.378630 -0.270072 25.025982
v 0.333313 -0.337587 25.029999
v 0.378630 -0.270072 25.025982
v 0.369250 -0.266462 25.029999
v 0.333313 -0.337587 25.029999
v 0.369250 -0.266462 -25.029999
v 0.390813 -0.187587 -25.029999
v 0.378630 -0.270072 -25.025980
v 0.390813 -0.187587 -25.029999
v 0.400702 -0.189334 -25.025980
v 0.378630 -0.270072 -25.025980
v 0.378630 -0.270072 -25.025980
v 0.400702 -0.189334 -25.025980
v 0.385497 -0.272714 -25.014999
v 0.400702 -0.189334 -25.025980
v 0.407942 -0.190612 -25.014999
v 0.385497 -0.272714 -25.014999
v 0.385497 -0.272714 -25.014999
v 0.407942 -0.190612 -25.014999
v 0.388010 -0.273681 -25.000000
v 0.407942 -0.190612 -25.014999
v 0.410591 -0.191080 -25.000000
v 0.388010 -0.273681 -25.000000
v 0.388010 -0.273681 -25.000000
v 0.410591 -0.191080 -25.000000
v 0.388010 -0.273681 25.000000
v 0.410591 -0.191080 -25.000000
v 0.410591 -0.191080 25.000000
v 0.388010 -0.273681 25.000000
v 0.388010 -0.273681 25.000000
v 0.410591 -0.191080 25.000000
v 0.385497 -0.272714 25.014999
v 0.410591 -0.191080 25.000000
v 0.407942 -0.190612 25.014999
v 0.385497 -0.272714 25.014999
v 0.385497 -0.272714 25.014999
v 0.407942 -0.190612 25.014999
v 0.378630 -0.270072 25.025982
v 0.407942 -0.190612 25.014999
v 0.400702 -0.189334 25.025982
v 0.378630 -0.270072 25.025982
v 0.378630 -0.270072 25.025982
v 0.400702 -0.189334 25.025982
v 0.369250 -0.266462 25.029999
v 0.400702 -0.189334 25.025982
v 0.390813 -0.187587 25.029999
v 0.369250 -0.266462 25.029999
v 0.390813 -0.187587 -25.029999
v 0.398000 -0.100962 -25.029999
v 0.400702 -0.189334 -25.025980
v 0.398000 -0.100962 -25.029999
v 0.408000 -0.101376 -25.025980
v 0.400702 -0.189334 -25.025980
v 0.400702 -0.189334 -25.025980
v 0.408000 -0.101376 -25.025980
v 0.407942 -0.190612 -25.014999
v 0.408000 -0.101376 -25.025980
v 0.415321 -0.101679 -25.014999
v 0.407942 -0.190612 -25.014999
v 0.407942 -0.190612 -25.014999
v 0.415321 -0.101679 -25.014999
v 0.410591 -0.191080 -25.000000
v 0.415321 -0.101679 -25.014999
v 0.418000 -0.101790 -25.000000
v 0.410591 -0.191080 -25.000000
v 0.410591 -0.191080 -25.000000
v 0.418000 -0.101790 -25.000000
v 0.410591 -0.191080 25.000000
v 0.418000 -0.101790 -25.000000
v 0.418000 -0.101790 25.000000
v 0.410591 -0.191080 25.000000
v 0.410591 -0.191080 25.000000
v 0.418000 -0.101790 25.000000
v 0.407942 -0.190612 25.014999
v 0.418000 -0.101790 25.000000
v 0.415321 -0.101679 25.014999
v 0.407942 -0.190612 25.014999
v 0.407942 -0.190612 25.014999
v 0.415321 -0.101679 25.014999
v 0.400702 -0.189334 25.025982
v 0.415321 -0.101679 25.014999
v 0.408000 -0.101376 25.025982
v 0.400702 -0.189334 25.025982
v 0.400702 -0.189334 25.025982
v 0.408000 -0.101376 25.025982
v 0.390813 -0.187587 25.029999
v 0.408000 -0.101376 25.025982
v 0.398000 -0.100962 25.029999
v 0.390813 -0.187587 25.029999