# Generated mesh
# vertices: 134, faces: 132

v 0.402242 0.197698 0.000000
v 0.401793 0.175315 0.000000
v 0.400445 0.153417 0.000000
v 0.398199 0.132003 0.000000
v 0.395055 0.111073 0.000000
v 0.391012 0.090628 0.000000
v 0.386070 0.070667 0.000000
v 0.380230 0.051190 0.000000
v 0.373492 0.032198 0.000000
v 0.365855 0.013690 0.000000
v 0.357320 -0.004333 0.000000
v 0.347887 -0.021872 0.000000
v 0.337555 -0.038927 0.000000
v 0.326324 -0.055497 0.000000
v 0.314195 -0.071583 0.000000
v 0.301168 -0.087185 0.000000
v 0.287242 -0.102302 0.000000
v 0.272613 -0.116591 0.000000
v 0.257476 -0.129958 0.000000
v 0.241832 -0.142403 0.000000
v 0.225680 -0.153927 0.000000
v 0.209019 -0.164528 0.000000
v 0.191851 -0.174208 0.000000
v 0.174176 -0.182966 0.000000
v 0.155992 -0.190802 0.000000
v 0.137301 -0.197716 0.000000
v 0.118101 -0.203708 0.000000
v 0.098394 -0.208778 0.000000
v 0.078180 -0.212927 0.000000
v 0.057457 -0.216153 0.000000
v 0.036226 -0.218458 0.000000
v 0.014488 -0.219841 0.000000
v -0.007758 -0.220302 0.000000
v -0.029731 -0.219833 0.000000
v -0.051149 -0.218427 0.000000
v -0.072012 -0.216083 0.000000
v -0.092320 -0.212802 0.000000
v -0.112074 -0.208583 0.000000
v -0.131274 -0.203427 0.000000
v -0.149918 -0.197333 0.000000
v -0.168008 -0.190302 0.000000
v -0.185543 -0.182333 0.000000
v -0.202524 -0.173427 0.000000
v -0.218949 -0.163583 0.000000
v -0.234820 -0.152802 0.000000
v -0.250137 -0.141083 0.000000
v -0.264899 -0.128427 0.000000
v -0.279106 -0.114833 0.000000
v -0.292758 -0.100302 0.000000
v -0.304988 -0.085544 0.000000
v -0.316430 -0.070271 0.000000
v -0.327082 -0.054481 0.000000
v -0.336945 -0.038177 0.000000
v -0.346020 -0.021356 0.000000
v -0.354305 -0.004021 0.000000
v -0.361801 0.013831 0.000000
v -0.368508 0.032198 0.000000
v -0.374426 0.051081 0.000000
v -0.379555 0.070479 0.000000
v -0.383895 0.090394 0.000000
v -0.387445 0.110823 0.000000
v -0.390207 0.131769 0.000000
v -0.392180 0.153229 0.000000
v -0.393363 0.175206 0.000000
v -0.393758 0.197698 0.000000
v -0.393758 0.817698 0.000000
v -0.255758 0.817698 0.000000
v -0.255758 0.195698 0.000000
v -0.255500 0.180737 0.000000
v -0.254727 0.166104 0.000000
v -0.253438 0.151800 0.000000
v -0.251633 0.137823 0.000000
v -0.249313 0.124175 0.000000
v -0.246477 0.110854 0.000000
v -0.243125 0.097862 0.000000
v -0.239258 0.085198 0.000000
v -0.234875 0.072862 0.000000
v -0.229977 0.060854 0.000000
v -0.224563 0.049175 0.000000
v -0.218633 0.037823 0.000000
v -0.212188 0.026800 0.000000
v -0.205227 0.016104 0.000000
v -0.197750 0.005737 0.000000
v -0.189758 -0.004302 0.000000
v -0.180578 -0.014474 0.000000
v -0.171039 -0.023989 0.000000
v -0.161141 -0.032849 0.000000
v -0.150883 -0.041052 0.000000
v -0.140266 -0.048599 0.000000
v -0.129289 -0.055489 0.000000
v -0.117953 -0.061724 0.000000
v -0.106258 -0.067302 0.000000
v -0.094203 -0.072224 0.000000
v -0.081789 -0.076489 0.000000
v -0.069016 -0.080099 0.000000
v -0.055883 -0.083052 0.000000
v -0.042391 -0.085349 0.000000
v -0.028539 -0.086989 0.000000
v -0.014328 -0.087974 0.000000
v 0.000242 -0.088302 0.000000
v 0.014820 -0.087974 0.000000
v 0.029055 -0.086989 0.000000
v 0.042945 -0.085349 0.000000
v 0.056492 -0.083052 0.000000
v 0.069695 -0.080099 0.000000
v 0.082555 -0.076489 0.000000
v 0.095070 -0.072224 0.000000
v 0.107242 -0.067302 0.000000
v 0.119070 -0.061724 0.000000
v 0.130555 -0.055489 0.000000
v 0.141695 -0.048599 0.000000
v 0.152492 -0.041052 0.000000
v 0.162945 -0.032849 0.000000
v 0.173055 -0.023989 0.000000
v 0.182820 -0.014474 0.000000
v 0.192242 -0.004302 0.000000
v 0.200719 0.005737 0.000000
v 0.208648 0.016104 0.000000
v 0.216031 0.026800 0.000000
v 0.222867 0.037823 0.000000
v 0.229156 0.049175 0.000000
v 0.234898 0.060854 0.000000
v 0.240094 0.072862 0.000000
v 0.244742 0.085198 0.000000
v 0.248844 0.097862 0.000000
v 0.252398 0.110854 0.000000
v 0.255406 0.124175 0.000000
v 0.257867 0.137823 0.000000
v 0.259781 0.151800 0.000000
v 0.261148 0.166104 0.000000
v 0.261969 0.180737 0.000000
v 0.262242 0.195698 0.000000
v 0.262242 0.817698 0.000000
v 0.402242 0.817698 0.000000
f 2 1 134
f 134 133 132
f 68 67 66
f 66 65 64
f 64 63 62
f 62 61 60
f 60 59 58
f 58 57 56
f 56 55 54
f 54 53 52
f 52 51 50
f 50 49 48
f 48 47 46
f 46 45 44
f 44 43 42
f 42 41 40
f 40 39 38
f 38 37 36
f 36 35 34
f 34 33 32
f 32 31 30
f 30 29 28
f 28 27 26
f 26 25 24
f 24 23 22
f 22 21 20
f 20 19 18
f 18 17 16
f 16 15 14
f 14 13 12
f 12 11 10
f 10 9 8
f 8 7 6
f 6 5 4
f 4 3 2
f 2 134 132
f 69 68 66
f 66 64 62
f 62 60 58
f 58 56 54
f 54 52 50
f 50 48 46
f 46 44 42
f 42 40 38
f 38 36 34
f 34 32 30
f 30 28 26
f 26 24 22
f 22 20 18
f 18 16 14
f 14 12 10
f 10 8 6
f 6 4 2
f 2 132 131
f 70 69 66
f 66 62 58
f 58 54 50
f 50 46 42
f 42 38 34
f 34 30 26
f 26 22 18
f 18 14 10
f 10 6 2
f 2 131 130
f 71 70 66
f 66 58 50
f 50 42 34
f 34 26 18
f 18 10 2
f 2 130 129
f 72 71 66
f 50 34 18
f 18 2 129
f 73 72 66
f 18 129 128
f 73 66 50
f 18 128 127
f 74 73 50
f 18 127 126
f 75 74 50
f 18 126 125
f 76 75 50
f 18 125 124
f 77 76 50
f 18 124 123
f 78 77 50
f 18 123 122
f 79 78 50
f 18 122 121
f 80 79 50
f 18 121 120
f 81 80 50
f 18 120 119
f 82 81 50
f 18 119 118
f 83 82 50
f 18 118 117
f 84 83 50
f 18 117 116
f 85 84 50
f 18 116 115
f 86 85 50
f 18 115 114
f 87 86 50
f 18 114 113
f 88 87 50
f 18 113 112
f 89 88 50
f 18 112 111
f 90 89 50
f 18 111 110
f 91 90 50
f 18 110 109
f 92 91 50
f 18 109 108
f 93 92 50
f 18 108 107
f 94 93 50
f 18 107 106
f 95 94 50
f 18 106 105
f 96 95 50
f 18 105 104
f 97 96 50
f 18 104 103
f 98 97 50
f 18 103 102
f 99 98 50
f 18 102 101
f 100 99 50
f 18 101 100
f 100 50 18