# Generated mesh
# vertices: 324, faces: 0

v 0.431043 0.506500 -25.029999
v 0.074043 -0.506500 -25.029999
v -0.069957 -0.506500 -25.029999
v 0.003043 -0.341500 -25.029999
v 0.287043 0.505500 -25.029999
v 0.431043 0.506500 -25.029999
v -0.430957 0.506500 -25.029999
v -0.287957 0.506500 -25.029999
v 0.003043 -0.341500 -25.029999
v 0.003043 -0.341500 -25.029999
v 0.431043 0.506500 -25.029999
v -0.069957 -0.506500 -25.029999
v -0.069957 -0.506500 -25.029999
v -0.430957 0.506500 -25.029999
v 0.003043 -0.341500 -25.029999
v -0.069957 -0.506500 25.029999
v 0.074043 -0.506500 25.029999
v 0.431043 0.506500 25.029999
v 0.431043 0.506500 25.029999
v 0.287043 0.505500 25.029999
v 0.003043 -0.341500 25.029999
v 0.003043 -0.341500 25.029999
v -0.287957 0.506500 25.029999
v -0.430957 0.506500 25.029999
v -0.069957 -0.506500 25.029999
v 0.431043 0.506500 25.029999
v 0.003043 -0.341500 25.029999
v 0.003043 -0.341500 25.029999
v -0.430957 0.506500 25.029999
v -0.069957 -0.506500 25.029999
v 0.431043 0.506500 -25.029999
v 0.287043 0.505500 -25.029999
v 0.442557 0.514711 -25.025980
v 0.287043 0.505500 -25.029999
v 0.279832 0.515450 -25.025980
v 0.442557 0.514711 -25.025980
v 0.442557 0.514711 -25.025980
v 0.279832 0.515450 -25.025980
v 0.450986 0.520722 -25.014999
v 0.279832 0.515450 -25.025980
v 0.274553 0.522734 -25.014999
v 0.450986 0.520722 -25.014999
v 0.450986 0.520722 -25.014999
v 0.274553 0.522734 -25.014999
v 0.454072 0.522922 -25.000000
v 0.274553 0.522734 -25.014999
v 0.272621 0.525400 -25.000000
v 0.454072 0.522922 -25.000000
v 0.454072 0.522922 -25.000000
v 0.272621 0.525400 -25.000000
v 0.454072 0.522922 25.000000
v 0.272621 0.525400 -25.000000
v 0.272621 0.525400 25.000000
v 0.454072 0.522922 25.000000
v 0.454072 0.522922 25.000000
v 0.272621 0.525400 25.000000
v 0.450986 0.520722 25.014999
v 0.272621 0.525400 25.000000
v 0.274553 0.522734 25.014999
v 0.450986 0.520722 25.014999
v 0.450986 0.520722 25.014999
v 0.274553 0.522734 25.014999
v 0.442557 0.514711 25.025982
v 0.274553 0.522734 25.014999
v 0.279832 0.515450 25.025982
v 0.442557 0.514711 25.025982
v 0.442557 0.514711 25.025982
v 0.279832 0.515450 25.025982
v 0.431043 0.506500 25.029999
v 0.279832 0.515450 25.025982
v 0.287043 0.505500 25.029999
v 0.431043 0.506500 25.029999
v 0.287043 0.505500 -25.029999
v 0.003043 -0.341500 -25.029999
v 0.279832 0.515450 -25.025980
v 0.003043 -0.341500 -25.029999
v 0.002993 -0.327358 -25.025980
v 0.279832 0.515450 -25.025980
v 0.279832 0.515450 -25.025980
v 0.002993 -0.327358 -25.025980
v 0.274553 0.522734 -25.014999
v 0.002993 -0.327358 -25.025980
v 0.002956 -0.317005 -25.014999
v 0.274553 0.522734 -25.014999
v 0.274553 0.522734 -25.014999
v 0.002956 -0.317005 -25.014999
v 0.272621 0.525400 -25.000000
v 0.002956 -0.317005 -25.014999
v 0.002943 -0.313216 -25.000000
v 0.272621 0.525400 -25.000000
v 0.272621 0.525400 -25.000000
v 0.002943 -0.313216 -25.000000
v 0.272621 0.525400 25.000000
v 0.002943 -0.313216 -25.000000
v 0.002943 -0.313216 25.000000
v 0.272621 0.525400 25.000000
v 0.272621 0.525400 25.000000
v 0.002943 -0.313216 25.000000
v 0.274553 0.522734 25.014999
v 0.002943 -0.313216 25.000000
v 0.002956 -0.317005 25.014999
v 0.274553 0.522734 25.014999
v 0.274553 0.522734 25.014999
v 0.002956 -0.317005 25.014999
v 0.279832 0.515450 25.025982
v 0.002956 -0.317005 25.014999
v 0.002993 -0.327358 25.025982
v 0.279832 0.515450 25.025982
v 0.279832 0.515450 25.025982
v 0.002993 -0.327358 25.025982
v 0.287043 0.505500 25.029999
v 0.002993 -0.327358 25.025982
v 0.003043 -0.341500 25.029999
v 0.287043 0.505500 25.029999
v 0.003043 -0.341500 -25.029999
v -0.287957 0.506500 -25.029999
v 0.002993 -0.327358 -25.025980
v -0.287957 0.506500 -25.029999
v -0.280816 0.516500 -25.025980
v 0.002993 -0.327358 -25.025980
v 0.002993 -0.327358 -25.025980
v -0.280816 0.516500 -25.025980
v 0.002956 -0.317005 -25.014999
v -0.280816 0.516500 -25.025980
v -0.275589 0.523821 -25.014999
v 0.002956 -0.317005 -25.014999
v 0.002956 -0.317005 -25.014999
v -0.275589 0.523821 -25.014999
v 0.002943 -0.313216 -25.000000
v -0.275589 0.523821 -25.014999
v -0.273676 0.526500 -25.000000
v 0.002943 -0.313216 -25.000000
v 0.002943 -0.313216 -25.000000
v -0.273676 0.526500 -25.000000
v 0.002943 -0.313216 25.000000
v -0.273676 0.526500 -25.000000
v -0.273676 0.526500 25.000000
v 0.002943 -0.313216 25.000000
v 0.002943 -0.313216 25.000000
v -0.273676 0.526500 25.000000
v 0.002956 -0.317005 25.014999
v -0.273676 0.526500 25.000000
v -0.275589 0.523821 25.014999
v 0.002956 -0.317005 25.014999
v 0.002956 -0.317005 25.014999
v -0.275589 0.523821 25.014999
v 0.002993 -0.327358 25.025982
v -0.275589 0.523821 25.014999
v -0.280816 0.516500 25.025982
v 0.002993 -0.327358 25.025982
v 0.002993 -0.327358 25.025982
v -0.280816 0.516500 25.025982
v 0.003043 -0.341500 25.029999
v -0.280816 0.516500 25.025982
v -0.287957 0.506500 25.029999
v 0.003043 -0.341500 25.029999
v -0.287957 0.506500 -25.029999
v -0.430957 0.506500 -25.029999
v -0.280816 0.516500 -25.025980
v -0.430957 0.506500 -25.029999
v -0.442514 0.514651 -25.025980
v -0.280816 0.516500 -25.025980
v -0.280816 0.516500 -25.025980
v -0.442514 0.514651 -25.025980
v -0.275589 0.523821 -25.014999
v -0.442514 0.514651 -25.025980
v -0.450975 0.520617 -25.014999
v -0.275589 0.523821 -25.014999
v -0.275589 0.523821 -25.014999
v -0.450975 0.520617 -25.014999
v -0.273676 0.526500 -25.000000
v -0.450975 0.520617 -25.014999
v -0.454072 0.522801 -25.000000
v -0.273676 0.526500 -25.000000
v -0.273676 0.526500 -25.000000
v -0.454072 0.522801 -25.000000
v -0.273676 0.526500 25.000000
v -0.454072 0.522801 -25.000000
v -0.454072 0.522801 25.000000
v -0.273676 0.526500 25.000000
v -0.273676 0.526500 25.000000
v -0.454072 0.522801 25.000000
v -0.275589 0.523821 25.014999
v -0.454072 0.522801 25.000000
v -0.450975 0.520617 25.014999
v -0.275589 0.523821 25.014999
v -0.275589 0.523821 25.014999
v -0.450975 0.520617 25.014999
v -0.280816 0.516500 25.025982
v -0.450975 0.520617 25.014999
v -0.442514 0.514651 25.025982
v -0.280816 0.516500 25.025982
v -0.280816 0.516500 25.025982
v -0.442514 0.514651 25.025982
v -0.287957 0.506500 25.029999
v -0.442514 0.514651 25.025982
v -0.430957 0.506500 25.029999
v -0.287957 0.506500 25.029999
v -0.430957 0.506500 -25.029999
v -0.069957 -0.506500 -25.029999
v -0.442514 0.514651 -25.025980
v -0.069957 -0.506500 -25.029999
v -0.077010 -0.516500 -25.025980
v -0.442514 0.514651 -25.025980
v -0.442514 0.514651 -25.025980
v -0.077010 -0.516500 -25.025980
v -0.450975 0.520617 -25.014999
v -0.077010 -0.516500 -25.025980
v -0.082172 -0.523821 -25.014999
v -0.450975 0.520617 -25.014999
v -0.450975 0.520617 -25.014999
v -0.082172 -0.523821 -25.014999
v -0.454072 0.522801 -25.000000
v -0.082172 -0.523821 -25.014999
v -0.084062 -0.526500 -25.000000
v -0.454072 0.522801 -25.000000
v -0.454072 0.522801 -25.000000
v -0.084062 -0.526500 -25.000000
v -0.454072 0.522801 25.000000
v -0.084062 -0.526500 -25.000000
v -0.084062 -0.526500 25.000000
v -0.454072 0.522801 25.000000
v -0.454072 0.522801 25.000000
v -0.084062 -0.526500 25.000000
v -0.450975 0.520617 25.014999
v -0.084062 -0.526500 25.000000
v -0.082172 -0.523821 25.014999
v -0.450975 0.520617 25.014999
v -0.450975 0.520617 25.014999
v -0.082172 -0.523821 25.014999
v -0.442514 0.514651 25.025982
v -0.082172 -0.523821 25.014999
v -0.077010 -0.516500 25.025982
v -0.442514 0.514651 25.025982
v -0.442514 0.514651 25.025982
v -0.077010 -0.516500 25.025982
v -0.430957 0.506500 25.029999
v -0.077010 -0.516500 25.025982
v -0.069957 -0.506500 25.029999
v -0.430957 0.506500 25.029999
v -0.069957 -0.506500 -25.029999
v 0.074043 -0.506500 -25.029999
v -0.077010 -0.516500 -25.025980
v 0.074043 -0.506500 -25.029999
v 0.081121 -0.516500 -25.025980
v -0.077010 -0.516500 -25.025980
v -0.077010 -0.516500 -25.025980
v 0.081121 -0.516500 -25.025980
v -0.082172 -0.523821 -25.014999
v 0.081121 -0.516500 -25.025980
v 0.086303 -0.523821 -25.014999
v -0.082172 -0.523821 -25.014999
v -0.082172 -0.523821 -25.014999
v 0.086303 -0.523821 -25.014999
v -0.084062 -0.526500 -25.000000
v 0.086303 -0.523821 -25.014999
v 0.088200 -0.526500 -25.000000
v -0.084062 -0.526500 -25.000000
v -0.084062 -0.526500 -25.000000
v 0.088200 -0.526500 -25.000000
v -0.084062 -0.526500 25.000000
v 0.088200 -0.526500 -25.000000
v 0.088200 -0.526500 25.000000
v -0.084062 -0.526500 25.000000
v -0.084062 -0.526500 25.000000
v 0.088200 -0.526500 25.000000
v -0.082172 -0.523821 25.014999
v 0.088200 -0.526500 25.000000
v 0.086303 -0.523821 25.014999
v -0.082172 -0.523821 25.014999
v -0.082172 -0.523821 25.014999
v 0.086303 -0.523821 25.014999
v -0.077010 -0.516500 25.025982
v 0.086303 -0.523821 25.014999
v 0.081121 -0.516500 25.025982
v -0.077010 -0.516500 25.025982
v -0.077010 -0.516500 25.025982
v 0.081121 -0.516500 25.025982
v -0.069957 -0.506500 25.029999
v 0.081121 -0.516500 25.025982
v 0.074043 -0.506500 25.029999
v -0.069957 -0.506500 25.029999
v 0.074043 -0.506500 -25.029999
v 0.431043 0.506500 -25.029999
v 0.081121 -0.516500 -25.025980
v 0.431043 0.506500 -25.029999
v 0.442557 0.514711 -25.025980
v 0.081121 -0.516500 -25.025980
v 0.081121 -0.516500 -25.025980
v 0.442557 0.514711 -25.025980
v 0.086303 -0.523821 -25.014999
v 0.442557 0.514711 -25.025980
v 0.450986 0.520722 -25.014999
v 0.086303 -0.523821 -25.014999
v 0.086303 -0.523821 -25.014999
v 0.450986 0.520722 -25.014999
v 0.088200 -0.526500 -25.000000
v 0.450986 0.520722 -25.014999
v 0.454072 0.522922 -25.000000
v 0.088200 -0.526500 -25.000000
v 0.088200 -0.526500 -25.000000
v 0.454072 0.522922 -25.000000
v 0.088200 -0.526500 25.000000
v 0.454072 0.522922 -25.000000
v 0.454072 0.522922 25.000000
v 0.088200 -0.526500 25.000000
v 0.088200 -0.526500 25.000000
v 0.454072 0.522922 25.000000
v 0.086303 -0.523821 25.014999
v 0.454072 0.522922 25.000000
v 0.450986 0.520722 25.014999
v 0.086303 -0.523821 25.014999
v 0.086303 -0.523821 25.014999
v 0.450986 0.520722 25.014999
v 0.081121 -0.516500 25.025982
v 0.450986 0.520722 25.014999
v 0.442557 0.514711 25.025982
v 0.081121 -0.516500 25.025982
v 0.081121 -0.516500 25.025982
v 0.442557 0.514711 25.025982
v 0.074043 -0.506500 25.029999
v 0.442557 0.514711 25.025982
v 0.431043 0.506500 25.029999
v 0.074043 -0.506500 25.029999