# Generated mesh
# vertices: 612, faces: 0

v 0.631521 0.506500 -25.029999
v 0.363521 -0.506500 -25.029999
v 0.227521 -0.506500 -25.029999
v 0.289521 -0.299500 -25.029999
v 0.501521 0.505500 -25.029999
v 0.631521 0.506500 -25.029999
v -0.075479 0.506500 -25.029999
v 0.069521 0.506500 -25.029999
v 0.289521 -0.299500 -25.029999
v -0.631479 0.506500 -25.029999
v -0.495479 0.506500 -25.029999
v -0.289479 -0.304500 -25.029999
v -0.226479 -0.506500 -25.029999
v -0.366479 -0.506500 -25.029999
v -0.631479 0.506500 -25.029999
v 0.289521 -0.299500 -25.029999
v 0.631521 0.506500 -25.029999
v 0.227521 -0.506500 -25.029999
v -0.226479 -0.506500 -25.029999
v -0.631479 0.506500 -25.029999
v -0.289479 -0.304500 -25.029999
v 0.289521 -0.299500 -25.029999
v 0.227521 -0.506500 -25.029999
v -0.004479 0.330500 -25.029999
v -0.226479 -0.506500 -25.029999
v -0.289479 -0.304500 -25.029999
v -0.075479 0.506500 -25.029999
v -0.075479 0.506500 -25.029999
v 0.289521 -0.299500 -25.029999
v -0.004479 0.330500 -25.029999
v -0.004479 0.330500 -25.029999
v -0.226479 -0.506500 -25.029999
v -0.075479 0.506500 -25.029999
v 0.227521 -0.506500 25.029999
v 0.363521 -0.506500 25.029999
v 0.631521 0.506500 25.029999
v 0.631521 0.506500 25.029999
v 0.501521 0.505500 25.029999
v 0.289521 -0.299500 25.029999
v 0.289521 -0.299500 25.029999
v 0.069521 0.506500 25.029999
v -0.075479 0.506500 25.029999
v -0.289479 -0.304500 25.029999
v -0.495479 0.506500 25.029999
v -0.631479 0.506500 25.029999
v -0.631479 0.506500 25.029999
v -0.366479 -0.506500 25.029999
v -0.226479 -0.506500 25.029999
v 0.227521 -0.506500 25.029999
v 0.631521 0.506500 25.029999
v 0.289521 -0.299500 25.029999
v -0.289479 -0.304500 25.029999
v -0.631479 0.506500 25.029999
v -0.226479 -0.506500 25.029999
v -0.004479 0.330500 25.029999
v 0.227521 -0.506500 25.029999
v 0.289521 -0.299500 25.029999
v -0.075479 0.506500 25.029999
v -0.289479 -0.304500 25.029999
v -0.226479 -0.506500 25.029999
v -0.004479 0.330500 25.029999
v 0.289521 -0.299500 25.029999
v -0.075479 0.506500 25.029999
v -0.075479 0.506500 25.029999
v -0.226479 -0.506500 25.029999
v -0.004479 0.330500 25.029999
v 0.631521 0.506500 -25.029999
v 0.501521 0.505500 -25.029999
v 0.642694 0.515170 -25.025980
v 0.501521 0.505500 -25.029999
v 0.493798 0.515441 -25.025980
v 0.642694 0.515170 -25.025980
v 0.642694 0.515170 -25.025980
v 0.493798 0.515441 -25.025980
v 0.650873 0.521517 -25.014999
v 0.493798 0.515441 -25.025980
v 0.488145 0.522718 -25.014999
v 0.650873 0.521517 -25.014999
v 0.650873 0.521517 -25.014999
v 0.488145 0.522718 -25.014999
v 0.653867 0.523840 -25.000000
v 0.488145 0.522718 -25.014999
v 0.486075 0.525382 -25.000000
v 0.653867 0.523840 -25.000000
v 0.653867 0.523840 -25.000000
v 0.486075 0.525382 -25.000000
v 0.653867 0.523840 25.000000
v 0.486075 0.525382 -25.000000
v 0.486075 0.525382 25.000000
v 0.653867 0.523840 25.000000
v 0.653867 0.523840 25.000000
v 0.486075 0.525382 25.000000
v 0.650873 0.521517 25.014999
v 0.486075 0.525382 25.000000
v 0.488145 0.522718 25.014999
v 0.650873 0.521517 25.014999
v 0.650873 0.521517 25.014999
v 0.488145 0.522718 25.014999
v 0.642694 0.515170 25.025982
v 0.488145 0.522718 25.014999
v 0.493798 0.515441 25.025982
v 0.642694 0.515170 25.025982
v 0.642694 0.515170 25.025982
v 0.493798 0.515441 25.025982
v 0.631521 0.506500 25.029999
v 0.493798 0.515441 25.025982
v 0.501521 0.505500 25.029999
v 0.631521 0.506500 25.029999
v 0.501521 0.505500 -25.029999
v 0.289521 -0.299500 -25.029999
v 0.493798 0.515441 -25.025980
v 0.289521 -0.299500 -25.029999
v 0.289458 -0.285358 -25.025980
v 0.493798 0.515441 -25.025980
v 0.493798 0.515441 -25.025980
v 0.289458 -0.285358 -25.025980
v 0.488145 0.522718 -25.014999
v 0.289458 -0.285358 -25.025980
v 0.289412 -0.275005 -25.014999
v 0.488145 0.522718 -25.014999
v 0.488145 0.522718 -25.014999
v 0.289412 -0.275005 -25.014999
v 0.486075 0.525382 -25.000000
v 0.289412 -0.275005 -25.014999
v 0.289395 -0.271216 -25.000000
v 0.486075 0.525382 -25.000000
v 0.486075 0.525382 -25.000000
v 0.289395 -0.271216 -25.000000
v 0.486075 0.525382 25.000000
v 0.289395 -0.271216 -25.000000
v 0.289395 -0.271216 25.000000
v 0.486075 0.525382 25.000000
v 0.486075 0.525382 25.000000
v 0.289395 -0.271216 25.000000
v 0.488145 0.522718 25.014999
v 0.289395 -0.271216 25.000000
v 0.289412 -0.275005 25.014999
v 0.488145 0.522718 25.014999
v 0.488145 0.522718 25.014999
v 0.289412 -0.275005 25.014999
v 0.493798 0.515441 25.025982
v 0.289412 -0.275005 25.014999
v 0.289458 -0.285358 25.025982
v 0.493798 0.515441 25.025982
v 0.493798 0.515441 25.025982
v 0.289458 -0.285358 25.025982
v 0.501521 0.505500 25.029999
v 0.289458 -0.285358 25.025982
v 0.289521 -0.299500 25.029999
v 0.501521 0.505500 25.029999
v 0.289521 -0.299500 -25.029999
v 0.069521 0.506500 -25.029999
v 0.289458 -0.285358 -25.025980
v 0.069521 0.506500 -25.029999
v 0.077158 0.516500 -25.025980
v 0.289458 -0.285358 -25.025980
v 0.289458 -0.285358 -25.025980
v 0.077158 0.516500 -25.025980
v 0.289412 -0.275005 -25.014999
v 0.077158 0.516500 -25.025980
v 0.082748 0.523821 -25.014999
v 0.289412 -0.275005 -25.014999
v 0.289412 -0.275005 -25.014999
v 0.082748 0.523821 -25.014999
v 0.289395 -0.271216 -25.000000
v 0.082748 0.523821 -25.014999
v 0.084794 0.526500 -25.000000
v 0.289395 -0.271216 -25.000000
v 0.289395 -0.271216 -25.000000
v 0.084794 0.526500 -25.000000
v 0.289395 -0.271216 25.000000
v 0.084794 0.526500 -25.000000
v 0.084794 0.526500 25.000000
v 0.289395 -0.271216 25.000000
v 0.289395 -0.271216 25.000000
v 0.084794 0.526500 25.000000
v 0.289412 -0.275005 25.014999
v 0.084794 0.526500 25.000000
v 0.082748 0.523821 25.014999
v 0.289412 -0.275005 25.014999
v 0.289412 -0.275005 25.014999
v 0.082748 0.523821 25.014999
v 0.289458 -0.285358 25.025982
v 0.082748 0.523821 25.014999
v 0.077158 0.516500 25.025982
v 0.289458 -0.285358 25.025982
v 0.289458 -0.285358 25.025982
v 0.077158 0.516500 25.025982
v 0.289521 -0.299500 25.029999
v 0.077158 0.516500 25.025982
v 0.069521 0.506500 25.029999
v 0.289521 -0.299500 25.029999
v 0.069521 0.506500 -25.029999
v -0.075479 0.506500 -25.029999
v 0.077158 0.516500 -25.025980
v -0.075479 0.506500 -25.029999
v -0.083182 0.516500 -25.025980
v 0.077158 0.516500 -25.025980
v 0.077158 0.516500 -25.025980
v -0.083182 0.516500 -25.025980
v 0.082748 0.523821 -25.014999
v -0.083182 0.516500 -25.025980
v -0.088822 0.523821 -25.014999
v 0.082748 0.523821 -25.014999
v 0.082748 0.523821 -25.014999
v -0.088822 0.523821 -25.014999
v 0.084794 0.526500 -25.000000
v -0.088822 0.523821 -25.014999
v -0.090886 0.526500 -25.000000
v 0.084794 0.526500 -25.000000
v 0.084794 0.526500 -25.000000
v -0.090886 0.526500 -25.000000
v 0.084794 0.526500 25.000000
v -0.090886 0.526500 -25.000000
v -0.090886 0.526500 25.000000
v 0.084794 0.526500 25.000000
v 0.084794 0.526500 25.000000
v -0.090886 0.526500 25.000000
v 0.082748 0.523821 25.014999
v -0.090886 0.526500 25.000000
v -0.088822 0.523821 25.014999
v 0.082748 0.523821 25.014999
v 0.082748 0.523821 25.014999
v -0.088822 0.523821 25.014999
v 0.077158 0.516500 25.025982
v -0.088822 0.523821 25.014999
v -0.083182 0.516500 25.025982
v 0.077158 0.516500 25.025982
v 0.077158 0.516500 25.025982
v -0.083182 0.516500 25.025982
v 0.069521 0.506500 25.029999
v -0.083182 0.516500 25.025982
v -0.075479 0.506500 25.029999
v 0.069521 0.506500 25.029999
v -0.075479 0.506500 -25.029999
v -0.289479 -0.304500 -25.029999
v -0.083182 0.516500 -25.025980
v -0.289479 -0.304500 -25.029999
v -0.289413 -0.290358 -25.025980
v -0.083182 0.516500 -25.025980
v -0.083182 0.516500 -25.025980
v -0.289413 -0.290358 -25.025980
v -0.088822 0.523821 -25.014999
v -0.289413 -0.290358 -25.025980
v -0.289366 -0.280005 -25.014999
v -0.088822 0.523821 -25.014999
v -0.088822 0.523821 -25.014999
v -0.289366 -0.280005 -25.014999
v -0.090886 0.526500 -25.000000
v -0.289366 -0.280005 -25.014999
v -0.289348 -0.276216 -25.000000
v -0.090886 0.526500 -25.000000
v -0.090886 0.526500 -25.000000
v -0.289348 -0.276216 -25.000000
v -0.090886 0.526500 25.000000
v -0.289348 -0.276216 -25.000000
v -0.289348 -0.276216 25.000000
v -0.090886 0.526500 25.000000
v -0.090886 0.526500 25.000000
v -0.289348 -0.276216 25.000000
v -0.088822 0.523821 25.014999
v -0.289348 -0.276216 25.000000
v -0.289366 -0.280005 25.014999
v -0.088822 0.523821 25.014999
v -0.088822 0.523821 25.014999
v -0.289366 -0.280005 25.014999
v -0.083182 0.516500 25.025982
v -0.289366 -0.280005 25.014999
v -0.289413 -0.290358 25.025982
v -0.083182 0.516500 25.025982
v -0.083182 0.516500 25.025982
v -0.289413 -0.290358 25.025982
v -0.075479 0.506500 25.029999
v -0.289413 -0.290358 25.025982
v -0.289479 -0.304500 25.029999
v -0.075479 0.506500 25.029999
v -0.289479 -0.304500 -25.029999
v -0.495479 0.506500 -25.029999
v -0.289413 -0.290358 -25.025980
v -0.495479 0.506500 -25.029999
v -0.487701 0.516500 -25.025980
v -0.289413 -0.290358 -25.025980
v -0.289413 -0.290358 -25.025980
v -0.487701 0.516500 -25.025980
v -0.289366 -0.280005 -25.014999
v -0.487701 0.516500 -25.025980
v -0.482008 0.523821 -25.014999
v -0.289366 -0.280005 -25.014999
v -0.289366 -0.280005 -25.014999
v -0.482008 0.523821 -25.014999
v -0.289348 -0.276216 -25.000000
v -0.482008 0.523821 -25.014999
v -0.479924 0.526500 -25.000000
v -0.289348 -0.276216 -25.000000
v -0.289348 -0.276216 -25.000000
v -0.479924 0.526500 -25.000000
v -0.289348 -0.276216 25.000000
v -0.479924 0.526500 -25.000000
v -0.479924 0.526500 25.000000
v -0.289348 -0.276216 25.000000
v -0.289348 -0.276216 25.000000
v -0.479924 0.526500 25.000000
v -0.289366 -0.280005 25.014999
v -0.479924 0.526500 25.000000
v -0.482008 0.523821 25.014999
v -0.289366 -0.280005 25.014999
v -0.289366 -0.280005 25.014999
v -0.482008 0.523821 25.014999
v -0.289413 -0.290358 25.025982
v -0.482008 0.523821 25.014999
v -0.487701 0.516500 25.025982
v -0.289413 -0.290358 25.025982
v -0.289413 -0.290358 25.025982
v -0.487701 0.516500 25.025982
v -0.289479 -0.304500 25.029999
v -0.487701 0.516500 25.025982
v -0.495479 0.506500 25.029999
v -0.289479 -0.304500 25.029999
v -0.495479 0.506500 -25.029999
v -0.631479 0.506500 -25.029999
v -0.487701 0.516500 -25.025980
v -0.631479 0.506500 -25.029999
v -0.642673 0.515142 -25.025980
v -0.487701 0.516500 -25.025980
v -0.487701 0.516500 -25.025980
v -0.642673 0.515142 -25.025980
v -0.482008 0.523821 -25.014999
v -0.642673 0.515142 -25.025980
v -0.650868 0.521469 -25.014999
v -0.482008 0.523821 -25.014999
v -0.482008 0.523821 -25.014999
v -0.650868 0.521469 -25.014999
v -0.479924 0.526500 -25.000000
v -0.650868 0.521469 -25.014999
v -0.653867 0.523785 -25.000000
v -0.479924 0.526500 -25.000000
v -0.479924 0.526500 -25.000000
v -0.653867 0.523785 -25.000000
v -0.479924 0.526500 25.000000
v -0.653867 0.523785 -25.000000
v -0.653867 0.523785 25.000000
v -0.479924 0.526500 25.000000
v -0.479924 0.526500 25.000000
v -0.653867 0.523785 25.000000
v -0.482008 0.523821 25.014999
v -0.653867 0.523785 25.000000
v -0.650868 0.521469 25.014999
v -0.482008 0.523821 25.014999
v -0.482008 0.523821 25.014999
v -0.650868 0.521469 25.014999
v -0.487701 0.516500 25.025982
v -0.650868 0.521469 25.014999
v -0.642673 0.515142 25.025982
v -0.487701 0.516500 25.025982
v -0.487701 0.516500 25.025982
v -0.642673 0.515142 25.025982
v -0.495479 0.506500 25.029999
v -0.642673 0.515142 25.025982
v -0.631479 0.506500 25.029999
v -0.495479 0.506500 25.029999
v -0.631479 0.506500 -25.029999
v -0.366479 -0.506500 -25.029999
v -0.642673 0.515142 -25.025980
v -0.366479 -0.506500 -25.029999
v -0.374199 -0.516500 -25.025980
v -0.642673 0.515142 -25.025980
v -0.642673 0.515142 -25.025980
v -0.374199 -0.516500 -25.025980
v -0.650868 0.521469 -25.014999
v -0.374199 -0.516500 -25.025980
v -0.379851 -0.523821 -25.014999
v -0.650868 0.521469 -25.014999
v -0.650868 0.521469 -25.014999
v -0.379851 -0.523821 -25.014999
v -0.653867 0.523785 -25.000000
v -0.379851 -0.523821 -25.014999
v -0.381920 -0.526500 -25.000000
v -0.653867 0.523785 -25.000000
v -0.653867 0.523785 -25.000000
v -0.381920 -0.526500 -25.000000
v -0.653867 0.523785 25.000000
v -0.381920 -0.526500 -25.000000
v -0.381920 -0.526500 25.000000
v -0.653867 0.523785 25.000000
v -0.653867 0.523785 25.000000
v -0.381920 -0.526500 25.000000
v -0.650868 0.521469 25.014999
v -0.381920 -0.526500 25.000000
v -0.379851 -0.523821 25.014999
v -0.650868 0.521469 25.014999
v -0.650868 0.521469 25.014999
v -0.379851 -0.523821 25.014999
v -0.642673 0.515142 25.025982
v -0.379851 -0.523821 25.014999
v -0.374199 -0.516500 25.025982
v -0.642673 0.515142 25.025982
v -0.642673 0.515142 25.025982
v -0.374199 -0.516500 25.025982
v -0.631479 0.506500 25.029999
v -0.374199 -0.516500 25.025982
v -0.366479 -0.506500 25.029999
v -0.631479 0.506500 25.029999
v -0.366479 -0.506500 -25.029999
v -0.226479 -0.506500 -25.029999
v -0.374199 -0.516500 -25.025980
v -0.226479 -0.506500 -25.029999
v -0.218785 -0.516500 -25.025980
v -0.374199 -0.516500 -25.025980
v -0.374199 -0.516500 -25.025980
v -0.218785 -0.516500 -25.025980
v -0.379851 -0.523821 -25.014999
v -0.218785 -0.516500 -25.025980
v -0.213153 -0.523821 -25.014999
v -0.379851 -0.523821 -25.014999
v -0.379851 -0.523821 -25.014999
v -0.213153 -0.523821 -25.014999
v -0.381920 -0.526500 -25.000000
v -0.213153 -0.523821 -25.014999
v -0.211092 -0.526500 -25.000000
v -0.381920 -0.526500 -25.000000
v -0.381920 -0.526500 -25.000000
v -0.211092 -0.526500 -25.000000
v -0.381920 -0.526500 25.000000
v -0.211092 -0.526500 -25.000000
v -0.211092 -0.526500 25.000000
v -0.381920 -0.526500 25.000000
v -0.381920 -0.526500 25.000000
v -0.211092 -0.526500 25.000000
v -0.379851 -0.523821 25.014999
v -0.211092 -0.526500 25.000000
v -0.213153 -0.523821 25.014999
v -0.379851 -0.523821 25.014999
v -0.379851 -0.523821 25.014999
v -0.213153 -0.523821 25.014999
v -0.374199 -0.516500 25.025982
v -0.213153 -0.523821 25.014999
v -0.218785 -0.516500 25.025982
v -0.374199 -0.516500 25.025982
v -0.374199 -0.516500 25.025982
v -0.218785 -0.516500 25.025982
v -0.366479 -0.506500 25.029999
v -0.218785 -0.516500 25.025982
v -0.226479 -0.506500 25.029999
v -0.366479 -0.506500 25.029999
v -0.226479 -0.506500 -25.029999
v -0.004479 0.330500 -25.029999
v -0.218785 -0.516500 -25.025980
v -0.004479 0.330500 -25.029999
v -0.004400 0.316358 -25.025980
v -0.218785 -0.516500 -25.025980
v -0.218785 -0.516500 -25.025980
v -0.004400 0.316358 -25.025980
v -0.213153 -0.523821 -25.014999
v -0.004400 0.316358 -25.025980
v -0.004342 0.306005 -25.014999
v -0.213153 -0.523821 -25.014999
v -0.213153 -0.523821 -25.014999
v -0.004342 0.306005 -25.014999
v -0.211092 -0.526500 -25.000000
v -0.004342 0.306005 -25.014999
v -0.004321 0.302216 -25.000000
v -0.211092 -0.526500 -25.000000
v -0.211092 -0.526500 -25.000000
v -0.004321 0.302216 -25.000000
v -0.211092 -0.526500 25.000000
v -0.004321 0.302216 -25.000000
v -0.004321 0.302216 25.000000
v -0.211092 -0.526500 25.000000
v -0.211092 -0.526500 25.000000
v -0.004321 0.302216 25.000000
v -0.213153 -0.523821 25.014999
v -0.004321 0.302216 25.000000
v -0.004342 0.306005 25.014999
v -0.213153 -0.523821 25.014999
v -0.213153 -0.523821 25.014999
v -0.004342 0.306005 25.014999
v -0.218785 -0.516500 25.025982
v -0.004342 0.306005 25.014999
v -0.004400 0.316358 25.025982
v -0.218785 -0.516500 25.025982
v -0.218785 -0.516500 25.025982
v -0.004400 0.316358 25.025982
v -0.226479 -0.506500 25.029999
v -0.004400 0.316358 25.025982
v -0.004479 0.330500 25.029999
v -0.226479 -0.506500 25.029999
v -0.004479 0.330500 -25.029999
v 0.227521 -0.506500 -25.029999
v -0.004400 0.316358 -25.025980
v 0.227521 -0.506500 -25.029999
v 0.219916 -0.516500 -25.025980
v -0.004400 0.316358 -25.025980
v -0.004400 0.316358 -25.025980
v 0.219916 -0.516500 -25.025980
v -0.004342 0.306005 -25.014999
v 0.219916 -0.516500 -25.025980
v 0.214349 -0.523821 -25.014999
v -0.004342 0.306005 -25.014999
v -0.004342 0.306005 -25.014999
v 0.214349 -0.523821 -25.014999
v -0.004321 0.302216 -25.000000
v 0.214349 -0.523821 -25.014999
v 0.212311 -0.526500 -25.000000
v -0.004321 0.302216 -25.000000
v -0.004321 0.302216 -25.000000
v 0.212311 -0.526500 -25.000000
v -0.004321 0.302216 25.000000
v 0.212311 -0.526500 -25.000000
v 0.212311 -0.526500 25.000000
v -0.004321 0.302216 25.000000
v -0.004321 0.302216 25.000000
v 0.212311 -0.526500 25.000000
v -0.004342 0.306005 25.014999
v 0.212311 -0.526500 25.000000
v 0.214349 -0.523821 25.014999
v -0.004342 0.306005 25.014999
v -0.004342 0.306005 25.014999
v 0.214349 -0.523821 25.014999
v -0.004400 0.316358 25.025982
v 0.214349 -0.523821 25.014999
v 0.219916 -0.516500 25.025982
v -0.004400 0.316358 25.025982
v -0.004400 0.316358 25.025982
v 0.219916 -0.516500 25.025982
v -0.004479 0.330500 25.029999
v 0.219916 -0.516500 25.025982
v 0.227521 -0.506500 25.029999
v -0.004479 0.330500 25.029999
v 0.227521 -0.506500 -25.029999
v 0.363521 -0.506500 -25.029999
v 0.219916 -0.516500 -25.025980
v 0.363521 -0.506500 -25.029999
v 0.371220 -0.516500 -25.025980
v 0.219916 -0.516500 -25.025980
v 0.219916 -0.516500 -25.025980
v 0.371220 -0.516500 -25.025980
v 0.214349 -0.523821 -25.014999
v 0.371220 -0.516500 -25.025980
v 0.376855 -0.523821 -25.014999
v 0.214349 -0.523821 -25.014999
v 0.214349 -0.523821 -25.014999
v 0.376855 -0.523821 -25.014999
v 0.212311 -0.526500 -25.000000
v 0.376855 -0.523821 -25.014999
v 0.378918 -0.526500 -25.000000
v 0.212311 -0.526500 -25.000000
v 0.212311 -0.526500 -25.000000
v 0.378918 -0.526500 -25.000000
v 0.212311 -0.526500 25.000000
v 0.378918 -0.526500 -25.000000
v 0.378918 -0.526500 25.000000
v 0.212311 -0.526500 25.000000
v 0.212311 -0.526500 25.000000
v 0.378918 -0.526500 25.000000
v 0.214349 -0.523821 25.014999
v 0.378918 -0.526500 25.000000
v 0.376855 -0.523821 25.014999
v 0.214349 -0.523821 25.014999
v 0.214349 -0.523821 25.014999
v 0.376855 -0.523821 25.014999
v 0.219916 -0.516500 25.025982
v 0.376855 -0.523821 25.014999
v 0.371220 -0.516500 25.025982
v 0.219916 -0.516500 25.025982
v 0.219916 -0.516500 25.025982
v 0.371220 -0.516500 25.025982
v 0.227521 -0.506500 25.029999
v 0.371220 -0.516500 25.025982
v 0.363521 -0.506500 25.029999
v 0.227521 -0.506500 25.029999
v 0.363521 -0.506500 -25.029999
v 0.631521 0.506500 -25.029999
v 0.371220 -0.516500 -25.025980
v 0.631521 0.506500 -25.029999
v 0.642694 0.515170 -25.025980
v 0.371220 -0.516500 -25.025980
v 0.371220 -0.516500 -25.025980
v 0.642694 0.515170 -25.025980
v 0.376855 -0.523821 -25.014999
v 0.642694 0.515170 -25.025980
v 0.650873 0.521517 -25.014999
v 0.376855 -0.523821 -25.014999
v 0.376855 -0.523821 -25.014999
v 0.650873 0.521517 -25.014999
v 0.378918 -0.526500 -25.000000
v 0.650873 0.521517 -25.014999
v 0.653867 0.523840 -25.000000
v 0.378918 -0.526500 -25.000000
v 0.378918 -0.526500 -25.000000
v 0.653867 0.523840 -25.000000
v 0.378918 -0.526500 25.000000
v 0.653867 0.523840 -25.000000
v 0.653867 0.523840 25.000000
v 0.378918 -0.526500 25.000000
v 0.378918 -0.526500 25.000000
v 0.653867 0.523840 25.000000
v 0.376855 -0.523821 25.014999
v 0.653867 0.523840 25.000000
v 0.650873 0.521517 25.014999
v 0.376855 -0.523821 25.014999
v 0.376855 -0.523821 25.014999
v 0.650873 0.521517 25.014999
v 0.371220 -0.516500 25.025982
v 0.650873 0.521517 25.014999
v 0.642694 0.515170 25.025982
v 0.371220 -0.516500 25.025982
v 0.371220 -0.516500 25.025982
v 0.642694 0.515170 25.025982
v 0.363521 -0.506500 25.029999
v 0.642694 0.515170 25.025982
v 0.631521 0.506500 25.029999
v 0.363521 -0.506500 25.029999