# Generated mesh
# vertices: 13, faces: 11

v 0.632000 0.449692 0.000000
v 0.364000 -0.563308 0.000000
v 0.228000 -0.563308 0.000000
v -0.004000 0.273692 0.000000
v -0.226000 -0.563308 0.000000
v -0.366000 -0.563308 0.000000
v -0.631000 0.449692 0.000000
v -0.495000 0.449692 0.000000
v -0.289000 -0.361308 0.000000
v -0.075000 0.449692 0.000000
v 0.070000 0.449692 0.000000
v 0.290000 -0.356308 0.000000
v 0.502000 0.448692 0.000000
f 2 1 13
f 12 11 10
f 9 8 7
f 7 6 5
f 4 3 2
f 2 13 12
f 9 7 5
f 4 2 12
f 10 9 5
f 4 12 10
f 10 5 4