# Generated mesh
# vertices: 564, faces: 0

v 0.426990 -0.506500 -25.029999
v 0.255990 -0.506500 -25.029999
v -0.004010 -0.097500 -25.029999
v 0.247990 0.506500 -25.029999
v 0.408990 0.506500 -25.029999
v 0.076990 0.013500 -25.029999
v -0.409010 0.506500 -25.029999
v -0.241010 0.506500 -25.029999
v 0.000990 0.130500 -25.029999
v -0.261010 -0.506500 -25.029999
v -0.427010 -0.506500 -25.029999
v -0.080010 0.012500 -25.029999
v 0.076990 0.013500 -25.029999
v 0.426990 -0.506500 -25.029999
v -0.004010 -0.097500 -25.029999
v 0.000990 0.130500 -25.029999
v 0.247990 0.506500 -25.029999
v 0.076990 0.013500 -25.029999
v -0.080010 0.012500 -25.029999
v -0.409010 0.506500 -25.029999
v 0.000990 0.130500 -25.029999
v -0.004010 -0.097500 -25.029999
v -0.261010 -0.506500 -25.029999
v -0.080010 0.012500 -25.029999
v 0.000990 0.130500 -25.029999
v 0.076990 0.013500 -25.029999
v -0.004010 -0.097500 -25.029999
v -0.004010 -0.097500 -25.029999
v -0.080010 0.012500 -25.029999
v 0.000990 0.130500 -25.029999
v -0.004010 -0.097500 25.029999
v 0.255990 -0.506500 25.029999
v 0.426990 -0.506500 25.029999
v 0.076990 0.013500 25.029999
v 0.408990 0.506500 25.029999
v 0.247990 0.506500 25.029999
v 0.000990 0.130500 25.029999
v -0.241010 0.506500 25.029999
v -0.409010 0.506500 25.029999
v -0.080010 0.012500 25.029999
v -0.427010 -0.506500 25.029999
v -0.261010 -0.506500 25.029999
v -0.004010 -0.097500 25.029999
v 0.426990 -0.506500 25.029999
v 0.076990 0.013500 25.029999
v 0.076990 0.013500 25.029999
v 0.247990 0.506500 25.029999
v 0.000990 0.130500 25.029999
v 0.000990 0.130500 25.029999
v -0.409010 0.506500 25.029999
v -0.080010 0.012500 25.029999
v -0.080010 0.012500 25.029999
v -0.261010 -0.506500 25.029999
v -0.004010 -0.097500 25.029999
v -0.004010 -0.097500 25.029999
v 0.076990 0.013500 25.029999
v 0.000990 0.130500 25.029999
v 0.000990 0.130500 25.029999
v -0.080010 0.012500 25.029999
v -0.004010 -0.097500 25.029999
v 0.426990 -0.506500 -25.029999
v 0.076990 0.013500 -25.029999
v 0.439473 -0.513145 -25.025980
v 0.076990 0.013500 -25.029999
v 0.089045 0.013499 -25.025980
v 0.439473 -0.513145 -25.025980
v 0.439473 -0.513145 -25.025980
v 0.089045 0.013499 -25.025980
v 0.448612 -0.518010 -25.014999
v 0.089045 0.013499 -25.025980
v 0.097870 0.013497 -25.014999
v 0.448612 -0.518010 -25.014999
v 0.448612 -0.518010 -25.014999
v 0.097870 0.013497 -25.014999
v 0.451957 -0.519791 -25.000000
v 0.097870 0.013497 -25.014999
v 0.101100 0.013497 -25.000000
v 0.451957 -0.519791 -25.000000
v 0.451957 -0.519791 -25.000000
v 0.101100 0.013497 -25.000000
v 0.451957 -0.519791 25.000000
v 0.101100 0.013497 -25.000000
v 0.101100 0.013497 25.000000
v 0.451957 -0.519791 25.000000
v 0.451957 -0.519791 25.000000
v 0.101100 0.013497 25.000000
v 0.448612 -0.518010 25.014999
v 0.101100 0.013497 25.000000
v 0.097870 0.013497 25.014999
v 0.448612 -0.518010 25.014999
v 0.448612 -0.518010 25.014999
v 0.097870 0.013497 25.014999
v 0.439473 -0.513145 25.025982
v 0.097870 0.013497 25.014999
v 0.089045 0.013499 25.025982
v 0.439473 -0.513145 25.025982
v 0.439473 -0.513145 25.025982
v 0.089045 0.013499 25.025982
v 0.426990 -0.506500 25.029999
v 0.089045 0.013499 25.025982
v 0.076990 0.013500 25.029999
v 0.426990 -0.506500 25.029999
v 0.076990 0.013500 -25.029999
v 0.408990 0.506500 -25.029999
v 0.089045 0.013499 -25.025980
v 0.408990 0.506500 -25.029999
v 0.421474 0.513144 -25.025980
v 0.089045 0.013499 -25.025980
v 0.089045 0.013499 -25.025980
v 0.421474 0.513144 -25.025980
v 0.097870 0.013497 -25.014999
v 0.421474 0.513144 -25.025980
v 0.430613 0.518008 -25.014999
v 0.097870 0.013497 -25.014999
v 0.097870 0.013497 -25.014999
v 0.430613 0.518008 -25.014999
v 0.101100 0.013497 -25.000000
v 0.430613 0.518008 -25.014999
v 0.433958 0.519788 -25.000000
v 0.101100 0.013497 -25.000000
v 0.101100 0.013497 -25.000000
v 0.433958 0.519788 -25.000000
v 0.101100 0.013497 25.000000
v 0.433958 0.519788 -25.000000
v 0.433958 0.519788 25.000000
v 0.101100 0.013497 25.000000
v 0.101100 0.013497 25.000000
v 0.433958 0.519788 25.000000
v 0.097870 0.013497 25.014999
v 0.433958 0.519788 25.000000
v 0.430613 0.518008 25.014999
v 0.097870 0.013497 25.014999
v 0.097870 0.013497 25.014999
v 0.430613 0.518008 25.014999
v 0.089045 0.013499 25.025982
v 0.430613 0.518008 25.014999
v 0.421474 0.513144 25.025982
v 0.089045 0.013499 25.025982
v 0.089045 0.013499 25.025982
v 0.421474 0.513144 25.025982
v 0.076990 0.013500 25.029999
v 0.421474 0.513144 25.025982
v 0.408990 0.506500 25.029999
v 0.076990 0.013500 25.029999
v 0.408990 0.506500 -25.029999
v 0.247990 0.506500 -25.029999
v 0.421474 0.513144 -25.025980
v 0.247990 0.506500 -25.029999
v 0.242594 0.516500 -25.025980
v 0.421474 0.513144 -25.025980
v 0.421474 0.513144 -25.025980
v 0.242594 0.516500 -25.025980
v 0.430613 0.518008 -25.014999
v 0.242594 0.516500 -25.025980
v 0.238644 0.523821 -25.014999
v 0.430613 0.518008 -25.014999
v 0.430613 0.518008 -25.014999
v 0.238644 0.523821 -25.014999
v 0.433958 0.519788 -25.000000
v 0.238644 0.523821 -25.014999
v 0.237199 0.526500 -25.000000
v 0.433958 0.519788 -25.000000
v 0.433958 0.519788 -25.000000
v 0.237199 0.526500 -25.000000
v 0.433958 0.519788 25.000000
v 0.237199 0.526500 -25.000000
v 0.237199 0.526500 25.000000
v 0.433958 0.519788 25.000000
v 0.433958 0.519788 25.000000
v 0.237199 0.526500 25.000000
v 0.430613 0.518008 25.014999
v 0.237199 0.526500 25.000000
v 0.238644 0.523821 25.014999
v 0.430613 0.518008 25.014999
v 0.430613 0.518008 25.014999
v 0.238644 0.523821 25.014999
v 0.421474 0.513144 25.025982
v 0.238644 0.523821 25.014999
v 0.242594 0.516500 25.025982
v 0.421474 0.513144 25.025982
v 0.421474 0.513144 25.025982
v 0.242594 0.516500 25.025982
v 0.408990 0.506500 25.029999
v 0.242594 0.516500 25.025982
v 0.247990 0.506500 25.029999
v 0.408990 0.506500 25.029999
v 0.247990 0.506500 -25.029999
v 0.000990 0.130500 -25.029999
v 0.242594 0.516500 -25.025980
v 0.000990 0.130500 -25.029999
v 0.001056 0.144642 -25.025980
v 0.242594 0.516500 -25.025980
v 0.242594 0.516500 -25.025980
v 0.001056 0.144642 -25.025980
v 0.238644 0.523821 -25.014999
v 0.001056 0.144642 -25.025980
v 0.001104 0.154995 -25.014999
v 0.238644 0.523821 -25.014999
v 0.238644 0.523821 -25.014999
v 0.001104 0.154995 -25.014999
v 0.237199 0.526500 -25.000000
v 0.001104 0.154995 -25.014999
v 0.001122 0.158784 -25.000000
v 0.237199 0.526500 -25.000000
v 0.237199 0.526500 -25.000000
v 0.001122 0.158784 -25.000000
v 0.237199 0.526500 25.000000
v 0.001122 0.158784 -25.000000
v 0.001122 0.158784 25.000000
v 0.237199 0.526500 25.000000
v 0.237199 0.526500 25.000000
v 0.001122 0.158784 25.000000
v 0.238644 0.523821 25.014999
v 0.001122 0.158784 25.000000
v 0.001104 0.154995 25.014999
v 0.238644 0.523821 25.014999
v 0.238644 0.523821 25.014999
v 0.001104 0.154995 25.014999
v 0.242594 0.516500 25.025982
v 0.001104 0.154995 25.014999
v 0.001056 0.144642 25.025982
v 0.242594 0.516500 25.025982
v 0.242594 0.516500 25.025982
v 0.001056 0.144642 25.025982
v 0.247990 0.506500 25.029999
v 0.001056 0.144642 25.025982
v 0.000990 0.130500 25.029999
v 0.247990 0.506500 25.029999
v 0.000990 0.130500 -25.029999
v -0.241010 0.506500 -25.029999
v 0.001056 0.144642 -25.025980
v -0.241010 0.506500 -25.029999
v -0.235554 0.516500 -25.025980
v 0.001056 0.144642 -25.025980
v 0.001056 0.144642 -25.025980
v -0.235554 0.516500 -25.025980
v 0.001104 0.154995 -25.014999
v -0.235554 0.516500 -25.025980
v -0.231560 0.523821 -25.014999
v 0.001104 0.154995 -25.014999
v 0.001104 0.154995 -25.014999
v -0.231560 0.523821 -25.014999
v 0.001122 0.158784 -25.000000
v -0.231560 0.523821 -25.014999
v -0.230098 0.526500 -25.000000
v 0.001122 0.158784 -25.000000
v 0.001122 0.158784 -25.000000
v -0.230098 0.526500 -25.000000
v 0.001122 0.158784 25.000000
v -0.230098 0.526500 -25.000000
v -0.230098 0.526500 25.000000
v 0.001122 0.158784 25.000000
v 0.001122 0.158784 25.000000
v -0.230098 0.526500 25.000000
v 0.001104 0.154995 25.014999
v -0.230098 0.526500 25.000000
v -0.231560 0.523821 25.014999
v 0.001104 0.154995 25.014999
v 0.001104 0.154995 25.014999
v -0.231560 0.523821 25.014999
v 0.001056 0.144642 25.025982
v -0.231560 0.523821 25.014999
v -0.235554 0.516500 25.025982
v 0.001056 0.144642 25.025982
v 0.001056 0.144642 25.025982
v -0.235554 0.516500 25.025982
v 0.000990 0.130500 25.029999
v -0.235554 0.516500 25.025982
v -0.241010 0.506500 25.029999
v 0.000990 0.130500 25.029999
v -0.241010 0.506500 -25.029999
v -0.409010 0.506500 -25.029999
v -0.235554 0.516500 -25.025980
v -0.409010 0.506500 -25.029999
v -0.421477 0.513176 -25.025980
v -0.235554 0.516500 -25.025980
v -0.235554 0.516500 -25.025980
v -0.421477 0.513176 -25.025980
v -0.231560 0.523821 -25.014999
v -0.421477 0.513176 -25.025980
v -0.430604 0.518063 -25.014999
v -0.231560 0.523821 -25.014999
v -0.231560 0.523821 -25.014999
v -0.430604 0.518063 -25.014999
v -0.230098 0.526500 -25.000000
v -0.430604 0.518063 -25.014999
v -0.433945 0.519852 -25.000000
v -0.230098 0.526500 -25.000000
v -0.230098 0.526500 -25.000000
v -0.433945 0.519852 -25.000000
v -0.230098 0.526500 25.000000
v -0.433945 0.519852 -25.000000
v -0.433945 0.519852 25.000000
v -0.230098 0.526500 25.000000
v -0.230098 0.526500 25.000000
v -0.433945 0.519852 25.000000
v -0.231560 0.523821 25.014999
v -0.433945 0.519852 25.000000
v -0.430604 0.518063 25.014999
v -0.231560 0.523821 25.014999
v -0.231560 0.523821 25.014999
v -0.430604 0.518063 25.014999
v -0.235554 0.516500 25.025982
v -0.430604 0.518063 25.014999
v -0.421477 0.513176 25.025982
v -0.235554 0.516500 25.025982
v -0.235554 0.516500 25.025982
v -0.421477 0.513176 25.025982
v -0.241010 0.506500 25.029999
v -0.421477 0.513176 25.025982
v -0.409010 0.506500 25.029999
v -0.241010 0.506500 25.029999
v -0.409010 0.506500 -25.029999
v -0.080010 0.012500 -25.029999
v -0.421477 0.513176 -25.025980
v -0.080010 0.012500 -25.029999
v -0.092032 0.012511 -25.025980
v -0.421477 0.513176 -25.025980
v -0.421477 0.513176 -25.025980
v -0.092032 0.012511 -25.025980
v -0.430604 0.518063 -25.014999
v -0.092032 0.012511 -25.025980
v -0.100833 0.012519 -25.014999
v -0.430604 0.518063 -25.014999
v -0.430604 0.518063 -25.014999
v -0.100833 0.012519 -25.014999
v -0.433945 0.519852 -25.000000
v -0.100833 0.012519 -25.014999
v -0.104054 0.012522 -25.000000
v -0.433945 0.519852 -25.000000
v -0.433945 0.519852 -25.000000
v -0.104054 0.012522 -25.000000
v -0.433945 0.519852 25.000000
v -0.104054 0.012522 -25.000000
v -0.104054 0.012522 25.000000
v -0.433945 0.519852 25.000000
v -0.433945 0.519852 25.000000
v -0.104054 0.012522 25.000000
v -0.430604 0.518063 25.014999
v -0.104054 0.012522 25.000000
v -0.100833 0.012519 25.014999
v -0.430604 0.518063 25.014999
v -0.430604 0.518063 25.014999
v -0.100833 0.012519 25.014999
v -0.421477 0.513176 25.025982
v -0.100833 0.012519 25.014999
v -0.092032 0.012511 25.025982
v -0.421477 0.513176 25.025982
v -0.421477 0.513176 25.025982
v -0.092032 0.012511 25.025982
v -0.409010 0.506500 25.029999
v -0.092032 0.012511 25.025982
v -0.080010 0.012500 25.029999
v -0.409010 0.506500 25.029999
v -0.080010 0.012500 -25.029999
v -0.427010 -0.506500 -25.029999
v -0.092032 0.012511 -25.025980
v -0.427010 -0.506500 -25.029999
v -0.439483 -0.513165 -25.025980
v -0.092032 0.012511 -25.025980
v -0.092032 0.012511 -25.025980
v -0.439483 -0.513165 -25.025980
v -0.100833 0.012519 -25.014999
v -0.439483 -0.513165 -25.025980
v -0.448615 -0.518044 -25.014999
v -0.100833 0.012519 -25.014999
v -0.100833 0.012519 -25.014999
v -0.448615 -0.518044 -25.014999
v -0.104054 0.012522 -25.000000
v -0.448615 -0.518044 -25.014999
v -0.451957 -0.519830 -25.000000
v -0.104054 0.012522 -25.000000
v -0.104054 0.012522 -25.000000
v -0.451957 -0.519830 -25.000000
v -0.104054 0.012522 25.000000
v -0.451957 -0.519830 -25.000000
v -0.451957 -0.519830 25.000000
v -0.104054 0.012522 25.000000
v -0.104054 0.012522 25.000000
v -0.451957 -0.519830 25.000000
v -0.100833 0.012519 25.014999
v -0.451957 -0.519830 25.000000
v -0.448615 -0.518044 25.014999
v -0.100833 0.012519 25.014999
v -0.100833 0.012519 25.014999
v -0.448615 -0.518044 25.014999
v -0.092032 0.012511 25.025982
v -0.448615 -0.518044 25.014999
v -0.439483 -0.513165 25.025982
v -0.092032 0.012511 25.025982
v -0.092032 0.012511 25.025982
v -0.439483 -0.513165 25.025982
v -0.080010 0.012500 25.029999
v -0.439483 -0.513165 25.025982
v -0.427010 -0.506500 25.029999
v -0.080010 0.012500 25.029999
v -0.427010 -0.506500 -25.029999
v -0.261010 -0.506500 -25.029999
v -0.439483 -0.513165 -25.025980
v -0.261010 -0.506500 -25.029999
v -0.255484 -0.516500 -25.025980
v -0.439483 -0.513165 -25.025980
v -0.439483 -0.513165 -25.025980
v -0.255484 -0.516500 -25.025980
v -0.448615 -0.518044 -25.014999
v -0.255484 -0.516500 -25.025980
v -0.251438 -0.523821 -25.014999
v -0.448615 -0.518044 -25.014999
v -0.448615 -0.518044 -25.014999
v -0.251438 -0.523821 -25.014999
v -0.451957 -0.519830 -25.000000
v -0.251438 -0.523821 -25.014999
v -0.249957 -0.526500 -25.000000
v -0.451957 -0.519830 -25.000000
v -0.451957 -0.519830 -25.000000
v -0.249957 -0.526500 -25.000000
v -0.451957 -0.519830 25.000000
v -0.249957 -0.526500 -25.000000
v -0.249957 -0.526500 25.000000
v -0.451957 -0.519830 25.000000
v -0.451957 -0.519830 25.000000
v -0.249957 -0.526500 25.000000
v -0.448615 -0.518044 25.014999
v -0.249957 -0.526500 25.000000
v -0.251438 -0.523821 25.014999
v -0.448615 -0.518044 25.014999
v -0.448615 -0.518044 25.014999
v -0.251438 -0.523821 25.014999
v -0.439483 -0.513165 25.025982
v -0.251438 -0.523821 25.014999
v -0.255484 -0.516500 25.025982
v -0.439483 -0.513165 25.025982
v -0.439483 -0.513165 25.025982
v -0.255484 -0.516500 25.025982
v -0.427010 -0.506500 25.029999
v -0.255484 -0.516500 25.025982
v -0.261010 -0.506500 25.029999
v -0.427010 -0.506500 25.029999
v -0.261010 -0.506500 -25.029999
v -0.004010 -0.097500 -25.029999
v -0.255484 -0.516500 -25.025980
v -0.004010 -0.097500 -25.029999
v -0.003973 -0.111642 -25.025980
v -0.255484 -0.516500 -25.025980
v -0.255484 -0.516500 -25.025980
v -0.003973 -0.111642 -25.025980
v -0.251438 -0.523821 -25.014999
v -0.003973 -0.111642 -25.025980
v -0.003946 -0.121995 -25.014999
v -0.251438 -0.523821 -25.014999
v -0.251438 -0.523821 -25.014999
v -0.003946 -0.121995 -25.014999
v -0.249957 -0.526500 -25.000000
v -0.003946 -0.121995 -25.014999
v -0.003936 -0.125784 -25.000000
v -0.249957 -0.526500 -25.000000
v -0.249957 -0.526500 -25.000000
v -0.003936 -0.125784 -25.000000
v -0.249957 -0.526500 25.000000
v -0.003936 -0.125784 -25.000000
v -0.003936 -0.125784 25.000000
v -0.249957 -0.526500 25.000000
v -0.249957 -0.526500 25.000000
v -0.003936 -0.125784 25.000000
v -0.251438 -0.523821 25.014999
v -0.003936 -0.125784 25.000000
v -0.003946 -0.121995 25.014999
v -0.251438 -0.523821 25.014999
v -0.251438 -0.523821 25.014999
v -0.003946 -0.121995 25.014999
v -0.255484 -0.516500 25.025982
v -0.003946 -0.121995 25.014999
v -0.003973 -0.111642 25.025982
v -0.255484 -0.516500 25.025982
v -0.255484 -0.516500 25.025982
v -0.003973 -0.111642 25.025982
v -0.261010 -0.506500 25.029999
v -0.003973 -0.111642 25.025982
v -0.004010 -0.097500 25.029999
v -0.261010 -0.506500 25.029999
v -0.004010 -0.097500 -25.029999
v 0.255990 -0.506500 -25.029999
v -0.003973 -0.111642 -25.025980
v 0.255990 -0.506500 -25.029999
v 0.250497 -0.516500 -25.025980
v -0.003973 -0.111642 -25.025980
v -0.003973 -0.111642 -25.025980
v 0.250497 -0.516500 -25.025980
v -0.003946 -0.121995 -25.014999
v 0.250497 -0.516500 -25.025980
v 0.246476 -0.523821 -25.014999
v -0.003946 -0.121995 -25.014999
v -0.003946 -0.121995 -25.014999
v 0.246476 -0.523821 -25.014999
v -0.003936 -0.125784 -25.000000
v 0.246476 -0.523821 -25.014999
v 0.245005 -0.526500 -25.000000
v -0.003936 -0.125784 -25.000000
v -0.003936 -0.125784 -25.000000
v 0.245005 -0.526500 -25.000000
v -0.003936 -0.125784 25.000000
v 0.245005 -0.526500 -25.000000
v 0.245005 -0.526500 25.000000
v -0.003936 -0.125784 25.000000
v -0.003936 -0.125784 25.000000
v 0.245005 -0.526500 25.000000
v -0.003946 -0.121995 25.014999
v 0.245005 -0.526500 25.000000
v 0.246476 -0.523821 25.014999
v -0.003946 -0.121995 25.014999
v -0.003946 -0.121995 25.014999
v 0.246476 -0.523821 25.014999
v -0.003973 -0.111642 25.025982
v 0.246476 -0.523821 25.014999
v 0.250497 -0.516500 25.025982
v -0.003973 -0.111642 25.025982
v -0.003973 -0.111642 25.025982
v 0.250497 -0.516500 25.025982
v -0.004010 -0.097500 25.029999
v 0.250497 -0.516500 25.025982
v 0.255990 -0.506500 25.029999
v -0.004010 -0.097500 25.029999
v 0.255990 -0.506500 -25.029999
v 0.426990 -0.506500 -25.029999
v 0.250497 -0.516500 -25.025980
v 0.426990 -0.506500 -25.029999
v 0.439473 -0.513145 -25.025980
v 0.250497 -0.516500 -25.025980
v 0.250497 -0.516500 -25.025980
v 0.439473 -0.513145 -25.025980
v 0.246476 -0.523821 -25.014999
v 0.439473 -0.513145 -25.025980
v 0.448612 -0.518010 -25.014999
v 0.246476 -0.523821 -25.014999
v 0.246476 -0.523821 -25.014999
v 0.448612 -0.518010 -25.014999
v 0.245005 -0.526500 -25.000000
v 0.448612 -0.518010 -25.014999
v 0.451957 -0.519791 -25.000000
v 0.245005 -0.526500 -25.000000
v 0.245005 -0.526500 -25.000000
v 0.451957 -0.519791 -25.000000
v 0.245005 -0.526500 25.000000
v 0.451957 -0.519791 -25.000000
v 0.451957 -0.519791 25.000000
v 0.245005 -0.526500 25.000000
v 0.245005 -0.526500 25.000000
v 0.451957 -0.519791 25.000000
v 0.246476 -0.523821 25.014999
v 0.451957 -0.519791 25.000000
v 0.448612 -0.518010 25.014999
v 0.246476 -0.523821 25.014999
v 0.246476 -0.523821 25.014999
v 0.448612 -0.518010 25.014999
v 0.250497 -0.516500 25.025982
v 0.448612 -0.518010 25.014999
v 0.439473 -0.513145 25.025982
v 0.250497 -0.516500 25.025982
v 0.250497 -0.516500 25.025982
v 0.439473 -0.513145 25.025982
v 0.255990 -0.506500 25.029999
v 0.439473 -0.513145 25.025982
v 0.426990 -0.506500 25.029999
v 0.255990 -0.506500 25.029999