# Generated mesh
# vertices: 420, faces: 0

v 0.269043 0.505500 -25.029999
v 0.410043 0.506500 -25.029999
v 0.072043 -0.090500 -25.029999
v -0.409957 0.506500 -25.029999
v -0.269957 0.506500 -25.029999
v 0.001043 0.027500 -25.029999
v 0.072043 -0.506500 -25.029999
v -0.067957 -0.506500 -25.029999
v -0.067957 -0.090500 -25.029999
v 0.001043 0.027500 -25.029999
v 0.269043 0.505500 -25.029999
v 0.072043 -0.090500 -25.029999
v -0.067957 -0.090500 -25.029999
v -0.409957 0.506500 -25.029999
v 0.001043 0.027500 -25.029999
v 0.072043 -0.090500 -25.029999
v 0.072043 -0.506500 -25.029999
v -0.067957 -0.090500 -25.029999
v -0.067957 -0.090500 -25.029999
v 0.001043 0.027500 -25.029999
v 0.072043 -0.090500 -25.029999
v 0.072043 -0.090500 25.029999
v 0.410043 0.506500 25.029999
v 0.269043 0.505500 25.029999
v 0.001043 0.027500 25.029999
v -0.269957 0.506500 25.029999
v -0.409957 0.506500 25.029999
v -0.067957 -0.090500 25.029999
v -0.067957 -0.506500 25.029999
v 0.072043 -0.506500 25.029999
v 0.072043 -0.090500 25.029999
v 0.269043 0.505500 25.029999
v 0.001043 0.027500 25.029999
v 0.001043 0.027500 25.029999
v -0.409957 0.506500 25.029999
v -0.067957 -0.090500 25.029999
v -0.067957 -0.090500 25.029999
v 0.072043 -0.506500 25.029999
v 0.072043 -0.090500 25.029999
v 0.072043 -0.090500 25.029999
v 0.001043 0.027500 25.029999
v -0.067957 -0.090500 25.029999
v 0.410043 0.506500 -25.029999
v 0.269043 0.505500 -25.029999
v 0.422236 0.513666 -25.025980
v 0.269043 0.505500 -25.029999
v 0.263162 0.515459 -25.025980
v 0.422236 0.513666 -25.025980
v 0.422236 0.513666 -25.025980
v 0.263162 0.515459 -25.025980
v 0.431161 0.518912 -25.014999
v 0.263162 0.515459 -25.025980
v 0.258857 0.522749 -25.014999
v 0.431161 0.518912 -25.014999
v 0.431161 0.518912 -25.014999
v 0.258857 0.522749 -25.014999
v 0.434428 0.520832 -25.000000
v 0.258857 0.522749 -25.014999
v 0.257281 0.525417 -25.000000
v 0.434428 0.520832 -25.000000
v 0.434428 0.520832 -25.000000
v 0.257281 0.525417 -25.000000
v 0.434428 0.520832 25.000000
v 0.257281 0.525417 -25.000000
v 0.257281 0.525417 25.000000
v 0.434428 0.520832 25.000000
v 0.434428 0.520832 25.000000
v 0.257281 0.525417 25.000000
v 0.431161 0.518912 25.014999
v 0.257281 0.525417 25.000000
v 0.258857 0.522749 25.014999
v 0.431161 0.518912 25.014999
v 0.431161 0.518912 25.014999
v 0.258857 0.522749 25.014999
v 0.422236 0.513666 25.025982
v 0.258857 0.522749 25.014999
v 0.263162 0.515459 25.025982
v 0.422236 0.513666 25.025982
v 0.422236 0.513666 25.025982
v 0.263162 0.515459 25.025982
v 0.410043 0.506500 25.029999
v 0.263162 0.515459 25.025982
v 0.269043 0.505500 25.029999
v 0.410043 0.506500 25.029999
v 0.269043 0.505500 -25.029999
v 0.001043 0.027500 -25.029999
v 0.263162 0.515459 -25.025980
v 0.001043 0.027500 -25.029999
v 0.001016 0.041642 -25.025980
v 0.263162 0.515459 -25.025980
v 0.263162 0.515459 -25.025980
v 0.001016 0.041642 -25.025980
v 0.258857 0.522749 -25.014999
v 0.001016 0.041642 -25.025980
v 0.000996 0.051995 -25.014999
v 0.258857 0.522749 -25.014999
v 0.258857 0.522749 -25.014999
v 0.000996 0.051995 -25.014999
v 0.257281 0.525417 -25.000000
v 0.000996 0.051995 -25.014999
v 0.000989 0.055784 -25.000000
v 0.257281 0.525417 -25.000000
v 0.257281 0.525417 -25.000000
v 0.000989 0.055784 -25.000000
v 0.257281 0.525417 25.000000
v 0.000989 0.055784 -25.000000
v 0.000989 0.055784 25.000000
v 0.257281 0.525417 25.000000
v 0.257281 0.525417 25.000000
v 0.000989 0.055784 25.000000
v 0.258857 0.522749 25.014999
v 0.000989 0.055784 25.000000
v 0.000996 0.051995 25.014999
v 0.258857 0.522749 25.014999
v 0.258857 0.522749 25.014999
v 0.000996 0.051995 25.014999
v 0.263162 0.515459 25.025982
v 0.000996 0.051995 25.014999
v 0.001016 0.041642 25.025982
v 0.263162 0.515459 25.025982
v 0.263162 0.515459 25.025982
v 0.001016 0.041642 25.025982
v 0.269043 0.505500 25.029999
v 0.001016 0.041642 25.025982
v 0.001043 0.027500 25.029999
v 0.269043 0.505500 25.029999
v 0.001043 0.027500 -25.029999
v -0.269957 0.506500 -25.029999
v 0.001016 0.041642 -25.025980
v -0.269957 0.506500 -25.029999
v -0.264125 0.516500 -25.025980
v 0.001016 0.041642 -25.025980
v 0.001016 0.041642 -25.025980
v -0.264125 0.516500 -25.025980
v 0.000996 0.051995 -25.014999
v -0.264125 0.516500 -25.025980
v -0.259856 0.523821 -25.014999
v 0.000996 0.051995 -25.014999
v 0.000996 0.051995 -25.014999
v -0.259856 0.523821 -25.014999
v 0.000989 0.055784 -25.000000
v -0.259856 0.523821 -25.014999
v -0.258293 0.526500 -25.000000
v 0.000989 0.055784 -25.000000
v 0.000989 0.055784 -25.000000
v -0.258293 0.526500 -25.000000
v 0.000989 0.055784 25.000000
v -0.258293 0.526500 -25.000000
v -0.258293 0.526500 25.000000
v 0.000989 0.055784 25.000000
v 0.000989 0.055784 25.000000
v -0.258293 0.526500 25.000000
v 0.000996 0.051995 25.014999
v -0.258293 0.526500 25.000000
v -0.259856 0.523821 25.014999
v 0.000996 0.051995 25.014999
v 0.000996 0.051995 25.014999
v -0.259856 0.523821 25.014999
v 0.001016 0.041642 25.025982
v -0.259856 0.523821 25.014999
v -0.264125 0.516500 25.025982
v 0.001016 0.041642 25.025982
v 0.001016 0.041642 25.025982
v -0.264125 0.516500 25.025982
v 0.001043 0.027500 25.029999
v -0.264125 0.516500 25.025982
v -0.269957 0.506500 25.029999
v 0.001043 0.027500 25.029999
v -0.269957 0.506500 -25.029999
v -0.409957 0.506500 -25.029999
v -0.264125 0.516500 -25.025980
v -0.409957 0.506500 -25.029999
v -0.422192 0.513592 -25.025980
v -0.264125 0.516500 -25.025980
v -0.264125 0.516500 -25.025980
v -0.422192 0.513592 -25.025980
v -0.259856 0.523821 -25.014999
v -0.422192 0.513592 -25.025980
v -0.431149 0.518783 -25.014999
v -0.259856 0.523821 -25.014999
v -0.259856 0.523821 -25.014999
v -0.431149 0.518783 -25.014999
v -0.258293 0.526500 -25.000000
v -0.431149 0.518783 -25.014999
v -0.434428 0.520683 -25.000000
v -0.258293 0.526500 -25.000000
v -0.258293 0.526500 -25.000000
v -0.434428 0.520683 -25.000000
v -0.258293 0.526500 25.000000
v -0.434428 0.520683 -25.000000
v -0.434428 0.520683 25.000000
v -0.258293 0.526500 25.000000
v -0.258293 0.526500 25.000000
v -0.434428 0.520683 25.000000
v -0.259856 0.523821 25.014999
v -0.434428 0.520683 25.000000
v -0.431149 0.518783 25.014999
v -0.259856 0.523821 25.014999
v -0.259856 0.523821 25.014999
v -0.431149 0.518783 25.014999
v -0.264125 0.516500 25.025982
v -0.431149 0.518783 25.014999
v -0.422192 0.513592 25.025982
v -0.264125 0.516500 25.025982
v -0.264125 0.516500 25.025982
v -0.422192 0.513592 25.025982
v -0.269957 0.506500 25.029999
v -0.422192 0.513592 25.025982
v -0.409957 0.506500 25.029999
v -0.269957 0.506500 25.029999
v -0.409957 0.506500 -25.029999
v -0.067957 -0.090500 -25.029999
v -0.422192 0.513592 -25.025980
v -0.067957 -0.090500 -25.029999
v -0.077957 -0.093161 -25.025980
v -0.422192 0.513592 -25.025980
v -0.422192 0.513592 -25.025980
v -0.077957 -0.093161 -25.025980
v -0.431149 0.518783 -25.014999
v -0.077957 -0.093161 -25.025980
v -0.085277 -0.095110 -25.014999
v -0.431149 0.518783 -25.014999
v -0.431149 0.518783 -25.014999
v -0.085277 -0.095110 -25.014999
v -0.434428 0.520683 -25.000000
v -0.085277 -0.095110 -25.014999
v -0.087957 -0.095823 -25.000000
v -0.434428 0.520683 -25.000000
v -0.434428 0.520683 -25.000000
v -0.087957 -0.095823 -25.000000
v -0.434428 0.520683 25.000000
v -0.087957 -0.095823 -25.000000
v -0.087957 -0.095823 25.000000
v -0.434428 0.520683 25.000000
v -0.434428 0.520683 25.000000
v -0.087957 -0.095823 25.000000
v -0.431149 0.518783 25.014999
v -0.087957 -0.095823 25.000000
v -0.085277 -0.095110 25.014999
v -0.431149 0.518783 25.014999
v -0.431149 0.518783 25.014999
v -0.085277 -0.095110 25.014999
v -0.422192 0.513592 25.025982
v -0.085277 -0.095110 25.014999
v -0.077957 -0.093161 25.025982
v -0.422192 0.513592 25.025982
v -0.422192 0.513592 25.025982
v -0.077957 -0.093161 25.025982
v -0.409957 0.506500 25.029999
v -0.077957 -0.093161 25.025982
v -0.067957 -0.090500 25.029999
v -0.409957 0.506500 25.029999
v -0.067957 -0.090500 -25.029999
v -0.067957 -0.506500 -25.029999
v -0.077957 -0.093161 -25.025980
v -0.067957 -0.506500 -25.029999
v -0.077957 -0.516500 -25.025980
v -0.077957 -0.093161 -25.025980
v -0.077957 -0.093161 -25.025980
v -0.077957 -0.516500 -25.025980
v -0.085277 -0.095110 -25.014999
v -0.077957 -0.516500 -25.025980
v -0.085277 -0.523821 -25.014999
v -0.085277 -0.095110 -25.014999
v -0.085277 -0.095110 -25.014999
v -0.085277 -0.523821 -25.014999
v -0.087957 -0.095823 -25.000000
v -0.085277 -0.523821 -25.014999
v -0.087957 -0.526500 -25.000000
v -0.087957 -0.095823 -25.000000
v -0.087957 -0.095823 -25.000000
v -0.087957 -0.526500 -25.000000
v -0.087957 -0.095823 25.000000
v -0.087957 -0.526500 -25.000000
v -0.087957 -0.526500 25.000000
v -0.087957 -0.095823 25.000000
v -0.087957 -0.095823 25.000000
v -0.087957 -0.526500 25.000000
v -0.085277 -0.095110 25.014999
v -0.087957 -0.526500 25.000000
v -0.085277 -0.523821 25.014999
v -0.085277 -0.095110 25.014999
v -0.085277 -0.095110 25.014999
v -0.085277 -0.523821 25.014999
v -0.077957 -0.093161 25.025982
v -0.085277 -0.523821 25.014999
v -0.077957 -0.516500 25.025982
v -0.077957 -0.093161 25.025982
v -0.077957 -0.093161 25.025982
v -0.077957 -0.516500 25.025982
v -0.067957 -0.090500 25.029999
v -0.077957 -0.516500 25.025982
v -0.067957 -0.506500 25.029999
v -0.067957 -0.090500 25.029999
v -0.067957 -0.506500 -25.029999
v 0.072043 -0.506500 -25.029999
v -0.077957 -0.516500 -25.025980
v 0.072043 -0.506500 -25.029999
v 0.082043 -0.516500 -25.025980
v -0.077957 -0.516500 -25.025980
v -0.077957 -0.516500 -25.025980
v 0.082043 -0.516500 -25.025980
v -0.085277 -0.523821 -25.014999
v 0.082043 -0.516500 -25.025980
v 0.089364 -0.523821 -25.014999
v -0.085277 -0.523821 -25.014999
v -0.085277 -0.523821 -25.014999
v 0.089364 -0.523821 -25.014999
v -0.087957 -0.526500 -25.000000
v 0.089364 -0.523821 -25.014999
v 0.092043 -0.526500 -25.000000
v -0.087957 -0.526500 -25.000000
v -0.087957 -0.526500 -25.000000
v 0.092043 -0.526500 -25.000000
v -0.087957 -0.526500 25.000000
v 0.092043 -0.526500 -25.000000
v 0.092043 -0.526500 25.000000
v -0.087957 -0.526500 25.000000
v -0.087957 -0.526500 25.000000
v 0.092043 -0.526500 25.000000
v -0.085277 -0.523821 25.014999
v 0.092043 -0.526500 25.000000
v 0.089364 -0.523821 25.014999
v -0.085277 -0.523821 25.014999
v -0.085277 -0.523821 25.014999
v 0.089364 -0.523821 25.014999
v -0.077957 -0.516500 25.025982
v 0.089364 -0.523821 25.014999
v 0.082043 -0.516500 25.025982
v -0.077957 -0.516500 25.025982
v -0.077957 -0.516500 25.025982
v 0.082043 -0.516500 25.025982
v -0.067957 -0.506500 25.029999
v 0.082043 -0.516500 25.025982
v 0.072043 -0.506500 25.029999
v -0.067957 -0.506500 25.029999
v 0.072043 -0.506500 -25.029999
v 0.072043 -0.090500 -25.029999
v 0.082043 -0.516500 -25.025980
v 0.072043 -0.090500 -25.029999
v 0.082043 -0.093134 -25.025980
v 0.082043 -0.516500 -25.025980
v 0.082043 -0.516500 -25.025980
v 0.082043 -0.093134 -25.025980
v 0.089364 -0.523821 -25.014999
v 0.082043 -0.093134 -25.025980
v 0.089364 -0.095063 -25.014999
v 0.089364 -0.523821 -25.014999
v 0.089364 -0.523821 -25.014999
v 0.089364 -0.095063 -25.014999
v 0.092043 -0.526500 -25.000000
v 0.089364 -0.095063 -25.014999
v 0.092043 -0.095769 -25.000000
v 0.092043 -0.526500 -25.000000
v 0.092043 -0.526500 -25.000000
v 0.092043 -0.095769 -25.000000
v 0.092043 -0.526500 25.000000
v 0.092043 -0.095769 -25.000000
v 0.092043 -0.095769 25.000000
v 0.092043 -0.526500 25.000000
v 0.092043 -0.526500 25.000000
v 0.092043 -0.095769 25.000000
v 0.089364 -0.523821 25.014999
v 0.092043 -0.095769 25.000000
v 0.089364 -0.095063 25.014999
v 0.089364 -0.523821 25.014999
v 0.089364 -0.523821 25.014999
v 0.089364 -0.095063 25.014999
v 0.082043 -0.516500 25.025982
v 0.089364 -0.095063 25.014999
v 0.082043 -0.093134 25.025982
v 0.082043 -0.516500 25.025982
v 0.082043 -0.516500 25.025982
v 0.082043 -0.093134 25.025982
v 0.072043 -0.506500 25.029999
v 0.082043 -0.093134 25.025982
v 0.072043 -0.090500 25.029999
v 0.072043 -0.506500 25.029999
v 0.072043 -0.090500 -25.029999
v 0.410043 0.506500 -25.029999
v 0.082043 -0.093134 -25.025980
v 0.410043 0.506500 -25.029999
v 0.422236 0.513666 -25.025980
v 0.082043 -0.093134 -25.025980
v 0.082043 -0.093134 -25.025980
v 0.422236 0.513666 -25.025980
v 0.089364 -0.095063 -25.014999
v 0.422236 0.513666 -25.025980
v 0.431161 0.518912 -25.014999
v 0.089364 -0.095063 -25.014999
v 0.089364 -0.095063 -25.014999
v 0.431161 0.518912 -25.014999
v 0.092043 -0.095769 -25.000000
v 0.431161 0.518912 -25.014999
v 0.434428 0.520832 -25.000000
v 0.092043 -0.095769 -25.000000
v 0.092043 -0.095769 -25.000000
v 0.434428 0.520832 -25.000000
v 0.092043 -0.095769 25.000000
v 0.434428 0.520832 -25.000000
v 0.434428 0.520832 25.000000
v 0.092043 -0.095769 25.000000
v 0.092043 -0.095769 25.000000
v 0.434428 0.520832 25.000000
v 0.089364 -0.095063 25.014999
v 0.434428 0.520832 25.000000
v 0.431161 0.518912 25.014999
v 0.089364 -0.095063 25.014999
v 0.089364 -0.095063 25.014999
v 0.431161 0.518912 25.014999
v 0.082043 -0.093134 25.025982
v 0.431161 0.518912 25.014999
v 0.422236 0.513666 25.025982
v 0.082043 -0.093134 25.025982
v 0.082043 -0.093134 25.025982
v 0.422236 0.513666 25.025982
v 0.072043 -0.090500 25.029999
v 0.422236 0.513666 25.025982
v 0.410043 0.506500 25.029999
v 0.072043 -0.090500 25.029999