# Generated mesh
# vertices: 468, faces: 0

v 0.389460 -0.506500 -25.029999
v -0.389540 -0.506500 -25.029999
v -0.389540 -0.393500 -25.029999
v -0.218540 -0.382500 -25.029999
v 0.389460 -0.382500 -25.029999
v 0.389460 -0.506500 -25.029999
v 0.389460 0.506500 -25.029999
v 0.388460 0.380500 -25.029999
v -0.218540 -0.382500 -25.029999
v -0.349540 0.389500 -25.029999
v -0.349540 0.506500 -25.029999
v 0.389460 0.506500 -25.029999
v -0.218540 -0.382500 -25.029999
v 0.389460 -0.506500 -25.029999
v -0.389540 -0.393500 -25.029999
v 0.231460 0.389500 -25.029999
v -0.349540 0.389500 -25.029999
v 0.389460 0.506500 -25.029999
v -0.218540 -0.382500 -25.029999
v -0.389540 -0.393500 -25.029999
v 0.231460 0.389500 -25.029999
v 0.231460 0.389500 -25.029999
v 0.389460 0.506500 -25.029999
v -0.218540 -0.382500 -25.029999
v -0.389540 -0.393500 25.029999
v -0.389540 -0.506500 25.029999
v 0.389460 -0.506500 25.029999
v 0.389460 -0.506500 25.029999
v 0.389460 -0.382500 25.029999
v -0.218540 -0.382500 25.029999
v -0.218540 -0.382500 25.029999
v 0.388460 0.380500 25.029999
v 0.389460 0.506500 25.029999
v 0.389460 0.506500 25.029999
v -0.349540 0.506500 25.029999
v -0.349540 0.389500 25.029999
v -0.389540 -0.393500 25.029999
v 0.389460 -0.506500 25.029999
v -0.218540 -0.382500 25.029999
v 0.389460 0.506500 25.029999
v -0.349540 0.389500 25.029999
v 0.231460 0.389500 25.029999
v 0.231460 0.389500 25.029999
v -0.389540 -0.393500 25.029999
v -0.218540 -0.382500 25.029999
v -0.218540 -0.382500 25.029999
v 0.389460 0.506500 25.029999
v 0.231460 0.389500 25.029999
v 0.389460 -0.506500 -25.029999
v 0.389460 -0.382500 -25.029999
v 0.399460 -0.516500 -25.025980
v 0.389460 -0.382500 -25.029999
v 0.399460 -0.372500 -25.025980
v 0.399460 -0.516500 -25.025980
v 0.399460 -0.516500 -25.025980
v 0.399460 -0.372500 -25.025980
v 0.406781 -0.523821 -25.014999
v 0.399460 -0.372500 -25.025980
v 0.406781 -0.365179 -25.014999
v 0.406781 -0.523821 -25.014999
v 0.406781 -0.523821 -25.014999
v 0.406781 -0.365179 -25.014999
v 0.409460 -0.526500 -25.000000
v 0.406781 -0.365179 -25.014999
v 0.409460 -0.362500 -25.000000
v 0.409460 -0.526500 -25.000000
v 0.409460 -0.526500 -25.000000
v 0.409460 -0.362500 -25.000000
v 0.409460 -0.526500 25.000000
v 0.409460 -0.362500 -25.000000
v 0.409460 -0.362500 25.000000
v 0.409460 -0.526500 25.000000
v 0.409460 -0.526500 25.000000
v 0.409460 -0.362500 25.000000
v 0.406781 -0.523821 25.014999
v 0.409460 -0.362500 25.000000
v 0.406781 -0.365179 25.014999
v 0.406781 -0.523821 25.014999
v 0.406781 -0.523821 25.014999
v 0.406781 -0.365179 25.014999
v 0.399460 -0.516500 25.025982
v 0.406781 -0.365179 25.014999
v 0.399460 -0.372500 25.025982
v 0.399460 -0.516500 25.025982
v 0.399460 -0.516500 25.025982
v 0.399460 -0.372500 25.025982
v 0.389460 -0.506500 25.029999
v 0.399460 -0.372500 25.025982
v 0.389460 -0.382500 25.029999
v 0.389460 -0.506500 25.029999
v 0.389460 -0.382500 -25.029999
v -0.218540 -0.382500 -25.029999
v 0.399460 -0.372500 -25.025980
v -0.218540 -0.382500 -25.029999
v -0.205802 -0.376356 -25.025980
v 0.399460 -0.372500 -25.025980
v 0.399460 -0.372500 -25.025980
v -0.205802 -0.376356 -25.025980
v 0.406781 -0.365179 -25.014999
v -0.205802 -0.376356 -25.025980
v -0.196477 -0.371859 -25.014999
v 0.406781 -0.365179 -25.014999
v 0.406781 -0.365179 -25.014999
v -0.196477 -0.371859 -25.014999
v 0.409460 -0.362500 -25.000000
v -0.196477 -0.371859 -25.014999
v -0.193064 -0.370213 -25.000000
v 0.409460 -0.362500 -25.000000
v 0.409460 -0.362500 -25.000000
v -0.193064 -0.370213 -25.000000
v 0.409460 -0.362500 25.000000
v -0.193064 -0.370213 -25.000000
v -0.193064 -0.370213 25.000000
v 0.409460 -0.362500 25.000000
v 0.409460 -0.362500 25.000000
v -0.193064 -0.370213 25.000000
v 0.406781 -0.365179 25.014999
v -0.193064 -0.370213 25.000000
v -0.196477 -0.371859 25.014999
v 0.406781 -0.365179 25.014999
v 0.406781 -0.365179 25.014999
v -0.196477 -0.371859 25.014999
v 0.399460 -0.372500 25.025982
v -0.196477 -0.371859 25.014999
v -0.205802 -0.376356 25.025982
v 0.399460 -0.372500 25.025982
v 0.399460 -0.372500 25.025982
v -0.205802 -0.376356 25.025982
v 0.389460 -0.382500 25.029999
v -0.205802 -0.376356 25.025982
v -0.218540 -0.382500 25.029999
v 0.389460 -0.382500 25.029999
v -0.218540 -0.382500 -25.029999
v 0.388460 0.380500 -25.029999
v -0.205802 -0.376356 -25.025980
v 0.388460 0.380500 -25.029999
v 0.398433 0.376973 -25.025980
v -0.205802 -0.376356 -25.025980
v -0.205802 -0.376356 -25.025980
v 0.398433 0.376973 -25.025980
v -0.196477 -0.371859 -25.014999
v 0.398433 0.376973 -25.025980
v 0.405733 0.374390 -25.014999
v -0.196477 -0.371859 -25.014999
v -0.196477 -0.371859 -25.014999
v 0.405733 0.374390 -25.014999
v -0.193064 -0.370213 -25.000000
v 0.405733 0.374390 -25.014999
v 0.408405 0.373445 -25.000000
v -0.193064 -0.370213 -25.000000
v -0.193064 -0.370213 -25.000000
v 0.408405 0.373445 -25.000000
v -0.193064 -0.370213 25.000000
v 0.408405 0.373445 -25.000000
v 0.408405 0.373445 25.000000
v -0.193064 -0.370213 25.000000
v -0.193064 -0.370213 25.000000
v 0.408405 0.373445 25.000000
v -0.196477 -0.371859 25.014999
v 0.408405 0.373445 25.000000
v 0.405733 0.374390 25.014999
v -0.196477 -0.371859 25.014999
v -0.196477 -0.371859 25.014999
v 0.405733 0.374390 25.014999
v -0.205802 -0.376356 25.025982
v 0.405733 0.374390 25.014999
v 0.398433 0.376973 25.025982
v -0.205802 -0.376356 25.025982
v -0.205802 -0.376356 25.025982
v 0.398433 0.376973 25.025982
v -0.218540 -0.382500 25.029999
v 0.398433 0.376973 25.025982
v 0.388460 0.380500 25.029999
v -0.218540 -0.382500 25.029999
v 0.388460 0.380500 -25.029999
v 0.389460 0.506500 -25.029999
v 0.398433 0.376973 -25.025980
v 0.389460 0.506500 -25.029999
v 0.399500 0.516460 -25.025980
v 0.398433 0.376973 -25.025980
v 0.398433 0.376973 -25.025980
v 0.399500 0.516460 -25.025980
v 0.405733 0.374390 -25.014999
v 0.399500 0.516460 -25.025980
v 0.406850 0.523752 -25.014999
v 0.405733 0.374390 -25.014999
v 0.405733 0.374390 -25.014999
v 0.406850 0.523752 -25.014999
v 0.408405 0.373445 -25.000000
v 0.406850 0.523752 -25.014999
v 0.409540 0.526420 -25.000000
v 0.408405 0.373445 -25.000000
v 0.408405 0.373445 -25.000000
v 0.409540 0.526420 -25.000000
v 0.408405 0.373445 25.000000
v 0.409540 0.526420 -25.000000
v 0.409540 0.526420 25.000000
v 0.408405 0.373445 25.000000
v 0.408405 0.373445 25.000000
v 0.409540 0.526420 25.000000
v 0.405733 0.374390 25.014999
v 0.409540 0.526420 25.000000
v 0.406850 0.523752 25.014999
v 0.405733 0.374390 25.014999
v 0.405733 0.374390 25.014999
v 0.406850 0.523752 25.014999
v 0.398433 0.376973 25.025982
v 0.406850 0.523752 25.014999
v 0.399500 0.516460 25.025982
v 0.398433 0.376973 25.025982
v 0.398433 0.376973 25.025982
v 0.399500 0.516460 25.025982
v 0.388460 0.380500 25.029999
v 0.399500 0.516460 25.025982
v 0.389460 0.506500 25.029999
v 0.388460 0.380500 25.029999
v 0.389460 0.506500 -25.029999
v -0.349540 0.506500 -25.029999
v 0.399500 0.516460 -25.025980
v -0.349540 0.506500 -25.029999
v -0.359540 0.516500 -25.025980
v 0.399500 0.516460 -25.025980
v 0.399500 0.516460 -25.025980
v -0.359540 0.516500 -25.025980
v 0.406850 0.523752 -25.014999
v -0.359540 0.516500 -25.025980
v -0.366860 0.523821 -25.014999
v 0.406850 0.523752 -25.014999
v 0.406850 0.523752 -25.014999
v -0.366860 0.523821 -25.014999
v 0.409540 0.526420 -25.000000
v -0.366860 0.523821 -25.014999
v -0.369540 0.526500 -25.000000
v 0.409540 0.526420 -25.000000
v 0.409540 0.526420 -25.000000
v -0.369540 0.526500 -25.000000
v 0.409540 0.526420 25.000000
v -0.369540 0.526500 -25.000000
v -0.369540 0.526500 25.000000
v 0.409540 0.526420 25.000000
v 0.409540 0.526420 25.000000
v -0.369540 0.526500 25.000000
v 0.406850 0.523752 25.014999
v -0.369540 0.526500 25.000000
v -0.366860 0.523821 25.014999
v 0.406850 0.523752 25.014999
v 0.406850 0.523752 25.014999
v -0.366860 0.523821 25.014999
v 0.399500 0.516460 25.025982
v -0.366860 0.523821 25.014999
v -0.359540 0.516500 25.025982
v 0.399500 0.516460 25.025982
v 0.399500 0.516460 25.025982
v -0.359540 0.516500 25.025982
v 0.389460 0.506500 25.029999
v -0.359540 0.516500 25.025982
v -0.349540 0.506500 25.029999
v 0.389460 0.506500 25.029999
v -0.349540 0.506500 -25.029999
v -0.349540 0.389500 -25.029999
v -0.359540 0.516500 -25.025980
v -0.349540 0.389500 -25.029999
v -0.359540 0.379500 -25.025980
v -0.359540 0.516500 -25.025980
v -0.359540 0.516500 -25.025980
v -0.359540 0.379500 -25.025980
v -0.366860 0.523821 -25.014999
v -0.359540 0.379500 -25.025980
v -0.366860 0.372180 -25.014999
v -0.366860 0.523821 -25.014999
v -0.366860 0.523821 -25.014999
v -0.366860 0.372180 -25.014999
v -0.369540 0.526500 -25.000000
v -0.366860 0.372180 -25.014999
v -0.369540 0.369500 -25.000000
v -0.369540 0.526500 -25.000000
v -0.369540 0.526500 -25.000000
v -0.369540 0.369500 -25.000000
v -0.369540 0.526500 25.000000
v -0.369540 0.369500 -25.000000
v -0.369540 0.369500 25.000000
v -0.369540 0.526500 25.000000
v -0.369540 0.526500 25.000000
v -0.369540 0.369500 25.000000
v -0.366860 0.523821 25.014999
v -0.369540 0.369500 25.000000
v -0.366860 0.372180 25.014999
v -0.366860 0.523821 25.014999
v -0.366860 0.523821 25.014999
v -0.366860 0.372180 25.014999
v -0.359540 0.516500 25.025982
v -0.366860 0.372180 25.014999
v -0.359540 0.379500 25.025982
v -0.359540 0.516500 25.025982
v -0.359540 0.516500 25.025982
v -0.359540 0.379500 25.025982
v -0.349540 0.506500 25.029999
v -0.359540 0.379500 25.025982
v -0.349540 0.389500 25.029999
v -0.349540 0.506500 25.029999
v -0.349540 0.389500 -25.029999
v 0.231460 0.389500 -25.029999
v -0.359540 0.379500 -25.025980
v 0.231460 0.389500 -25.029999
v 0.218727 0.383347 -25.025980
v -0.359540 0.379500 -25.025980
v -0.359540 0.379500 -25.025980
v 0.218727 0.383347 -25.025980
v -0.366860 0.372180 -25.014999
v 0.218727 0.383347 -25.025980
v 0.209405 0.378843 -25.014999
v -0.366860 0.372180 -25.014999
v -0.366860 0.372180 -25.014999
v 0.209405 0.378843 -25.014999
v -0.369540 0.369500 -25.000000
v 0.209405 0.378843 -25.014999
v 0.205994 0.377194 -25.000000
v -0.369540 0.369500 -25.000000
v -0.369540 0.369500 -25.000000
v 0.205994 0.377194 -25.000000
v -0.369540 0.369500 25.000000
v 0.205994 0.377194 -25.000000
v 0.205994 0.377194 25.000000
v -0.369540 0.369500 25.000000
v -0.369540 0.369500 25.000000
v 0.205994 0.377194 25.000000
v -0.366860 0.372180 25.014999
v 0.205994 0.377194 25.000000
v 0.209405 0.378843 25.014999
v -0.366860 0.372180 25.014999
v -0.366860 0.372180 25.014999
v 0.209405 0.378843 25.014999
v -0.359540 0.379500 25.025982
v 0.209405 0.378843 25.014999
v 0.218727 0.383347 25.025982
v -0.359540 0.379500 25.025982
v -0.359540 0.379500 25.025982
v 0.218727 0.383347 25.025982
v -0.349540 0.389500 25.029999
v 0.218727 0.383347 25.025982
v 0.231460 0.389500 25.029999
v -0.349540 0.389500 25.029999
v 0.231460 0.389500 -25.029999
v -0.389540 -0.393500 -25.029999
v 0.218727 0.383347 -25.025980
v -0.389540 -0.393500 -25.029999
v -0.399540 -0.390016 -25.025980
v 0.218727 0.383347 -25.025980
v 0.218727 0.383347 -25.025980
v -0.399540 -0.390016 -25.025980
v 0.209405 0.378843 -25.014999
v -0.399540 -0.390016 -25.025980
v -0.406860 -0.387465 -25.014999
v 0.209405 0.378843 -25.014999
v 0.209405 0.378843 -25.014999
v -0.406860 -0.387465 -25.014999
v 0.205994 0.377194 -25.000000
v -0.406860 -0.387465 -25.014999
v -0.409540 -0.386532 -25.000000
v 0.205994 0.377194 -25.000000
v 0.205994 0.377194 -25.000000
v -0.409540 -0.386532 -25.000000
v 0.205994 0.377194 25.000000
v -0.409540 -0.386532 -25.000000
v -0.409540 -0.386532 25.000000
v 0.205994 0.377194 25.000000
v 0.205994 0.377194 25.000000
v -0.409540 -0.386532 25.000000
v 0.209405 0.378843 25.014999
v -0.409540 -0.386532 25.000000
v -0.406860 -0.387465 25.014999
v 0.209405 0.378843 25.014999
v 0.209405 0.378843 25.014999
v -0.406860 -0.387465 25.014999
v 0.218727 0.383347 25.025982
v -0.406860 -0.387465 25.014999
v -0.399540 -0.390016 25.025982
v 0.218727 0.383347 25.025982
v 0.218727 0.383347 25.025982
v -0.399540 -0.390016 25.025982
v 0.231460 0.389500 25.029999
v -0.399540 -0.390016 25.025982
v -0.389540 -0.393500 25.029999
v 0.231460 0.389500 25.029999
v -0.389540 -0.393500 -25.029999
v -0.389540 -0.506500 -25.029999
v -0.399540 -0.390016 -25.025980
v -0.389540 -0.506500 -25.029999
v -0.399540 -0.516500 -25.025980
v -0.399540 -0.390016 -25.025980
v -0.399540 -0.390016 -25.025980
v -0.399540 -0.516500 -25.025980
v -0.406860 -0.387465 -25.014999
v -0.399540 -0.516500 -25.025980
v -0.406860 -0.523821 -25.014999
v -0.406860 -0.387465 -25.014999
v -0.406860 -0.387465 -25.014999
v -0.406860 -0.523821 -25.014999
v -0.409540 -0.386532 -25.000000
v -0.406860 -0.523821 -25.014999
v -0.409540 -0.526500 -25.000000
v -0.409540 -0.386532 -25.000000
v -0.409540 -0.386532 -25.000000
v -0.409540 -0.526500 -25.000000
v -0.409540 -0.386532 25.000000
v -0.409540 -0.526500 -25.000000
v -0.409540 -0.526500 25.000000
v -0.409540 -0.386532 25.000000
v -0.409540 -0.386532 25.000000
v -0.409540 -0.526500 25.000000
v -0.406860 -0.387465 25.014999
v -0.409540 -0.526500 25.000000
v -0.406860 -0.523821 25.014999
v -0.406860 -0.387465 25.014999
v -0.406860 -0.387465 25.014999
v -0.406860 -0.523821 25.014999
v -0.399540 -0.390016 25.025982
v -0.406860 -0.523821 25.014999
v -0.399540 -0.516500 25.025982
v -0.399540 -0.390016 25.025982
v -0.399540 -0.390016 25.025982
v -0.399540 -0.516500 25.025982
v -0.389540 -0.393500 25.029999
v -0.399540 -0.516500 25.025982
v -0.389540 -0.506500 25.029999
v -0.389540 -0.393500 25.029999
v -0.389540 -0.506500 -25.029999
v 0.389460 -0.506500 -25.029999
v -0.399540 -0.516500 -25.025980
v 0.389460 -0.506500 -25.029999
v 0.399460 -0.516500 -25.025980
v -0.399540 -0.516500 -25.025980
v -0.399540 -0.516500 -25.025980
v 0.399460 -0.516500 -25.025980
v -0.406860 -0.523821 -25.014999
v 0.399460 -0.516500 -25.025980
v 0.406781 -0.523821 -25.014999
v -0.406860 -0.523821 -25.014999
v -0.406860 -0.523821 -25.014999
v 0.406781 -0.523821 -25.014999
v -0.409540 -0.526500 -25.000000
v 0.406781 -0.523821 -25.014999
v 0.409460 -0.526500 -25.000000
v -0.409540 -0.526500 -25.000000
v -0.409540 -0.526500 -25.000000
v 0.409460 -0.526500 -25.000000
v -0.409540 -0.526500 25.000000
v 0.409460 -0.526500 -25.000000
v 0.409460 -0.526500 25.000000
v -0.409540 -0.526500 25.000000
v -0.409540 -0.526500 25.000000
v 0.409460 -0.526500 25.000000
v -0.406860 -0.523821 25.014999
v 0.409460 -0.526500 25.000000
v 0.406781 -0.523821 25.014999
v -0.406860 -0.523821 25.014999
v -0.406860 -0.523821 25.014999
v 0.406781 -0.523821 25.014999
v -0.399540 -0.516500 25.025982
v 0.406781 -0.523821 25.014999
v 0.399460 -0.516500 25.025982
v -0.399540 -0.516500 25.025982
v -0.399540 -0.516500 25.025982
v 0.399460 -0.516500 25.025982
v -0.389540 -0.506500 25.029999
v 0.399460 -0.516500 25.025982
v 0.389460 -0.506500 25.029999
v -0.389540 -0.506500 25.029999