####
#
# OBJ File Generated by Meshlab
#
####
# Object Balls.obj
#
# Vertices: 547
# Faces: 1032
#
####
vn -0.5827098383416253 -0.5928418091893267 0.5558667408444247
v -0.1640850000000000 0.0368770000000000 0.2009620000000000
vn -0.7883789895976779 -0.4497843186363082 0.4197054151066157
v -0.2009620000000000 0.0849370000000000 0.2009620000000000
vn -0.9021516348914153 -0.1997923255143439 0.3823682182508333
v -0.2241440000000000 0.1409030000000000 0.2009620000000000
vn -0.9231216639573347 0.0405103874156532 0.3823680191178062
v -0.2320510000000000 0.2009620000000000 0.2009620000000000
vn -0.8811814880917611 0.2780521691036570 0.3823691623302548
v -0.2241440000000000 0.2610210000000000 0.2009620000000000
vn -0.7791937433611065 0.4966389876825054 0.3823700121879361
v -0.2009620000000000 0.3169870000000000 0.2009620000000000
vn -0.6240975416518248 0.6813919953625126 0.3823705103169469
v -0.1640850000000000 0.3650470000000000 0.2009620000000000
vn -0.4264752466813648 0.8197026832437019 0.3823694222229917
v -0.1160250000000000 0.4019240000000000 0.2009620000000000
vn -0.1997923255143438 0.9021516348914154 0.3823682182508333
v -0.0600590000000000 0.4251060000000000 0.2009620000000000
vn 0.0000000000000000 0.9238802262619800 0.3826817574984633
v 0.0000000000000000 0.4330130000000000 0.2009620000000000
vn 0.2391182281732031 0.8923991677494388 0.3826828953002952
v 0.0600590000000000 0.4251060000000000 0.2009620000000000
vn 0.4966389876825051 0.7791937433611067 0.3823700121879359
v 0.1160250000000000 0.4019240000000000 0.2009620000000000
vn 0.6813919953625123 0.6240975416518250 0.3823705103169470
v 0.1640850000000000 0.3650470000000000 0.2009620000000000
vn 0.8197026832437018 0.4264752466813648 0.3823694222229919
v 0.2009620000000000 0.3169870000000000 0.2009620000000000
vn 0.9021516348914153 0.1997923255143438 0.3823682182508333
v 0.2241440000000000 0.2610210000000000 0.2009620000000000
vn 0.9231216639573347 -0.0405103874156532 0.3823680191178062
v 0.2320510000000000 0.2009620000000000 0.2009620000000000
vn 0.8811814025002287 -0.2780502438753095 0.3823707595627715
v 0.2241440000000000 0.1409030000000000 0.2009620000000000
vn 0.7698418439564882 -0.4728029029647084 0.4287201304368835
v 0.2009620000000000 0.0849370000000000 0.2009620000000000
vn 0.5827098383416253 -0.5928418091893267 0.5558667408444247
v 0.1640850000000000 0.0368770000000000 0.2009620000000000
vn -0.1130569601293131 0.0652236577222687 0.9914454086028375
v -0.1160250000000000 0.0000000000000000 0.2009620000000000
vn 0.1130569601293131 0.0652236577222687 0.9914454086028375
v 0.1160250000000000 0.0000000000000000 0.2009620000000000
vn -0.2042914065957543 0.1179031672212500 0.9717838568068138
v -0.1460550000000000 0.0173380000000000 0.1963970000000000
vn -0.4591650504384603 0.2650847211911490 0.8478782619261194
v -0.1740380000000000 0.0334940000000000 0.1830130000000000
vn -0.6309613155667173 0.3642721606016814 0.6849770881342676
v -0.1980680000000000 0.0473670000000000 0.1617210000000000
vn -0.7480480123417311 0.4318352687637737 0.5039270501603428
v -0.2165060000000000 0.0580130000000000 0.1339750000000000
vn -0.8436720027163784 0.4870273689830893 0.2258802640647141
v -0.2280970000000000 0.0647050000000000 0.1016630000000000
vn -0.8654606506099983 0.4996364168105363 -0.0366239435676482
v -0.2320510000000000 0.0669870000000000 0.0669870000000000
vn -0.8436714586730830 0.4870270532691355 -0.2258829767919997
v -0.2280970000000000 0.0647050000000000 0.0323120000000000
vn -0.7480521250673317 0.4318376436809652 -0.5039189098280803
v -0.2165060000000000 0.0580130000000000 0.0000000000000000
vn -0.6309620208232247 0.3642725683941809 -0.6849762216268381
v -0.1980680000000000 0.0473670000000000 -0.0277470000000000
vn -0.4591594924968924 0.2650815125638540 -0.8478822749337644
v -0.1740380000000000 0.0334940000000000 -0.0490380000000000
vn -0.2042914065957544 0.1179031672212500 -0.9717838568068140
v -0.1460550000000000 0.0173380000000000 -0.0624220000000000
vn 0.0000021813497123 0.0000021220231103 -0.9999999999953694
v -0.1160250000000000 0.0000000000000000 -0.0669870000000000
vn 0.2042998917735673 -0.1178928083891475 -0.9717833297353008
v -0.0859960000000000 -0.0173380000000000 -0.0624220000000000
vn 0.4591594924968923 -0.2650815125638541 -0.8478822749337644
v -0.0580130000000000 -0.0334940000000000 -0.0490380000000000
vn 0.6309537285446971 -0.3642804192743795 -0.6849796847854882
v -0.0339830000000000 -0.0473670000000000 -0.0277470000000000
vn 0.7480319263643530 -0.4318622181331822 -0.5039278338102817
v -0.0155440000000000 -0.0580130000000000 0.0000000000000000
vn 0.8436527292690379 -0.4870678364817718 -0.2258649929977407
v -0.0039530000000000 -0.0647050000000000 0.0323120000000000
vn 0.0000000000000002 -0.0001043238621916 -0.9999999945582658
v 0.0000000000000000 -0.0669870000000000 0.0669870000000000
vn 0.2042914065957543 0.1179031672212500 0.9717838568068138
v 0.1460550000000000 0.0173380000000000 0.1963970000000000
vn 0.4591650504384603 0.2650847211911490 0.8478782619261194
v 0.1740380000000000 0.0334940000000000 0.1830130000000000
vn 0.6309613155667172 0.3642721606016813 0.6849770881342677
v 0.1980680000000000 0.0473670000000000 0.1617210000000000
vn 0.7480480123417311 0.4318352687637737 0.5039270501603428
v 0.2165060000000000 0.0580130000000000 0.1339750000000000
vn 0.8436720027163784 0.4870273689830893 0.2258802640647141
v 0.2280970000000000 0.0647050000000000 0.1016630000000000
vn 0.8660416755302919 0.4999718154497915 -0.0000007241149410
v 0.2320510000000000 0.0669870000000000 0.0669870000000000
vn 0.8436714586730830 0.4870270532691355 -0.2258829767919997
v 0.2280970000000000 0.0647050000000000 0.0323120000000000
vn 0.7480521250673317 0.4318376436809652 -0.5039189098280803
v 0.2165060000000000 0.0580130000000000 0.0000000000000000
vn 0.6309620208232247 0.3642725683941809 -0.6849762216268381
v 0.1980680000000000 0.0473670000000000 -0.0277470000000000
vn 0.4591594924968924 0.2650815125638540 -0.8478822749337643
v 0.1740380000000000 0.0334940000000000 -0.0490380000000000
vn 0.2042914065957544 0.1179031672212500 -0.9717838568068140
v 0.1460550000000000 0.0173380000000000 -0.0624220000000000
vn -0.0000026637967242 0.0000026154364921 -0.9999999999930319
v 0.1160250000000000 0.0000000000000000 -0.0669870000000000
vn -0.2042998917735673 -0.1178928083891476 -0.9717833297353008
v 0.0859960000000000 -0.0173380000000000 -0.0624220000000000
vn -0.4591594924968923 -0.2650815125638541 -0.8478822749337644
v 0.0580130000000000 -0.0334940000000000 -0.0490380000000000
vn -0.6309537285446973 -0.3642804192743795 -0.6849796847854882
v 0.0339830000000000 -0.0473670000000000 -0.0277470000000000
vn -0.7480319263643530 -0.4318622181331822 -0.5039278338102817
v 0.0155440000000000 -0.0580130000000000 0.0000000000000000
vn -0.8436527292690379 -0.4870678364817720 -0.2258649929977407
v 0.0039530000000000 -0.0647050000000000 0.0323120000000000
vn -0.0000000000000000 -0.0000000000000000 -1.0000000000000000
v 0.0000000000000000 0.2009620000000000 -0.2009620000000000
vn -0.9659064467293221 0.0014711535107659 0.2588871798179331
v -0.2588190000000000 0.2009620000000000 0.1363380000000000
vn -0.9999999999995646 -0.0000000053001866 -0.0000009332723723
v -0.2679490000000000 0.2009620000000000 0.0669870000000000
vn -0.9659062054002365 -0.0014711480299067 -0.2588880802447081
v -0.2588190000000000 0.2009620000000000 -0.0023630000000000
vn -0.8659614433934367 -0.0028520688705349 -0.5001026337254318
v -0.2320510000000000 0.2009620000000000 -0.0669870000000000
vn -0.7069956541412789 -0.0040486259545108 -0.7072063020457509
v -0.1894690000000000 0.2009620000000000 -0.1224820000000000
vn -0.5224453270230998 -0.0161467050819929 -0.8525198907865562
v -0.1339750000000000 0.2009620000000000 -0.1650630000000000
vn -0.3008604725483757 0.0000000000000000 -0.9536681687347900
v -0.0693510000000000 0.2009620000000000 -0.1918320000000000
vn -0.8932476177538285 -0.3781444428686966 0.2431367386978639
v -0.2241440000000000 0.0715520000000000 0.1363380000000000
vn -0.9333749203295443 -0.2485707884545879 0.2588895927357481
v -0.2500000000000000 0.1339750000000000 0.1363380000000000
vn -0.9659265434425940 -0.2588163686337500 -0.0000005303607557
v -0.2588190000000000 0.1316110000000000 0.0669870000000000
vn -0.9326129351068727 -0.2514145066478589 -0.2588896659165013
v -0.2500000000000000 0.1339750000000000 -0.0023630000000000
vn -0.8225712309630653 -0.2385256393050181 -0.5162190323748631
v -0.2241440000000000 0.1409030000000000 -0.0669870000000000
vn -0.6523120789487069 -0.1747896367922128 -0.7375212095442831
v -0.1830130000000000 0.1519240000000000 -0.1224820000000000
vn -0.4457267427924717 -0.1194395743935305 -0.8871650685347716
v -0.1294090000000000 0.1662870000000000 -0.1650630000000000
vn -0.2499342354577350 -0.0669759499359683 -0.9659436319352864
v -0.0669870000000000 0.1830130000000000 -0.1918320000000000
vn -0.2510962355492473 -0.1332430009591468 -0.9587476118293061
v -0.0600590000000000 0.1662870000000000 -0.1918320000000000
vn -0.4354003726147019 -0.2456257193777021 -0.8660799740827432
v -0.1160250000000000 0.1339750000000000 -0.1650630000000000
vn -0.6143017236302615 -0.3499870509237660 -0.7072075059913993
v -0.1640850000000000 0.1062280000000000 -0.1224820000000000
vn -0.7307040727615685 -0.4554655223434703 -0.5085496200038362
v -0.2009620000000000 0.0849370000000000 -0.0669870000000000
vn -0.8841049317403404 -0.3743563889312768 -0.2796708131692374
v -0.2241440000000000 0.0715520000000000 -0.0023630000000000
vn -0.9326124594455868 0.2514162588454749 0.2588896778069742
v -0.2500000000000000 0.2679490000000000 0.1363380000000000
vn -0.9659263058187441 0.2588172554571495 -0.0000022322294770
v -0.2588190000000000 0.2703130000000000 0.0669870000000000
vn -0.9333743961511063 0.2485725834514606 -0.2588897590980075
v -0.2500000000000000 0.2679490000000000 -0.0023630000000000
vn -0.8371924993399210 0.2213734980190639 -0.5001024829210307
v -0.2241440000000000 0.2610210000000000 -0.0669870000000000
vn -0.6839521905305894 0.1790708954630206 -0.7072079011623671
v -0.1830130000000000 0.2500000000000000 -0.1224820000000000
vn -0.4699943736385200 0.1140019047371032 -0.8752764445959045
v -0.1294090000000000 0.2356370000000000 -0.1650630000000000
vn -0.2499342354577350 0.0669759499359684 -0.9659436319352864
v -0.0669870000000000 0.2189110000000000 -0.1918320000000000
vn -0.8357642080112537 0.4842248704329572 0.2588908330967085
v -0.2241440000000000 0.3303710000000000 0.1363380000000000
vn -0.8660266169274158 0.4999978987687901 -0.0000002230199250
v -0.2320510000000000 0.3349370000000000 0.0669870000000000
vn -0.8372366747140736 0.4816734462095558 -0.2588927224360136
v -0.2241440000000000 0.3303710000000000 -0.0023630000000000
vn -0.7513724299941716 0.4305073375591948 -0.5001028931653434
v -0.2009620000000000 0.3169870000000000 -0.0669870000000000
vn -0.6385760884268861 0.3443854695109206 -0.6881999910485036
v -0.1640850000000000 0.2956960000000000 -0.1224820000000000
vn -0.4432981659801940 0.2643269125482982 -0.8565150432661883
v -0.1160250000000000 0.2679490000000000 -0.1650630000000000
vn -0.2510962355492473 0.1332430009591468 -0.9587476118293061
v -0.0600590000000000 0.2356370000000000 -0.1918320000000000
vn -0.6819585660004420 0.6840381572377918 0.2588905438623562
v -0.1830130000000000 0.3839750000000000 0.1363380000000000
vn -0.7071067849347394 0.7071067774377399 -0.0000009333011328
v -0.1894690000000000 0.3904310000000000 0.0669870000000000
vn -0.7059408533468200 0.6687459252023635 -0.2332946615360030
v -0.1830130000000000 0.3839750000000000 -0.0023630000000000
vn -0.6272482548600988 0.6272482548600991 -0.4616484090191592
v -0.1640850000000000 0.3650470000000000 -0.0669870000000000
vn -0.5173814725154479 0.5010335032418329 -0.6937447949548617
v -0.1339750000000000 0.3349370000000000 -0.1224820000000000
vn -0.3580046196528268 0.3808414819743696 -0.8525212360491677
v -0.0947340000000000 0.2956960000000000 -0.1650630000000000
vn -0.2127420114175010 0.2127420114175011 -0.9536674856343124
v -0.0490380000000000 0.2500000000000000 -0.1918320000000000
vn -0.4816735621351605 0.8372368864675288 0.2588918219608031
v -0.1294090000000000 0.4251060000000000 0.1363380000000000
vn -0.4999979079482450 0.8660266116261537 -0.0000016436186803
v -0.1339750000000000 0.4330130000000000 0.0669870000000000
vn -0.4966174815721643 0.8225964924448818 -0.2769586388150738
v -0.1294090000000000 0.4251060000000000 -0.0023630000000000
vn -0.4444042913769227 0.7275919006483306 -0.5226039149458461
v -0.1160250000000000 0.4019240000000000 -0.0669870000000000
vn -0.3337346747698380 0.6081018296546207 -0.7203008618813206
v -0.0947340000000000 0.3650470000000000 -0.1224820000000000
vn -0.2307252410537360 0.3996301272541464 -0.8871649364867449
v -0.0669870000000000 0.3169870000000000 -0.1650630000000000
vn -0.1293749213212136 0.2240871128965147 -0.9659436296010417
v -0.0346750000000000 0.2610210000000000 -0.1918320000000000
vn -0.2485726406194398 0.9333746306809652 0.2588888586568586
v -0.0669870000000000 0.4509620000000000 0.1363380000000000
vn -0.2588172656970939 0.9659263030774895 0.0000003656346560
v -0.0693510000000000 0.4597810000000000 0.0669870000000000
vn -0.2514161910872257 0.9326122277476411 -0.2588905782657488
v -0.0669870000000000 0.4509620000000000 -0.0023630000000000
vn -0.2606483356598114 0.8260255186116914 -0.4997442222978237
v -0.0600590000000000 0.4251060000000000 -0.0669870000000000
vn -0.1673780337048946 0.7059491826384399 -0.6882008030838106
v -0.0490380000000000 0.3839750000000000 -0.1224820000000000
vn -0.1265572037756172 0.5003666465122858 -0.8565141523819360
v -0.0346750000000000 0.3303710000000000 -0.1650630000000000
vn -0.0833381128232242 0.2717683004514796 -0.9587474901248910
v -0.0179490000000000 0.2679490000000000 -0.1918320000000000
vn 0.0187885018253480 0.9606993018855354 0.2769545875334145
v 0.0000000000000000 0.4597810000000000 0.1363380000000000
vn -0.0000000053001865 0.9999999999995646 -0.0000009332723723
v 0.0000000000000000 0.4689110000000000 0.0669870000000000
vn -0.0263000314934464 0.9720512365184348 -0.2332910241017123
v 0.0000000000000000 0.4597810000000000 -0.0023630000000000
vn -0.0150620646097699 0.8751175416253036 -0.4836759478714816
v 0.0000000000000000 0.4330130000000000 -0.0669870000000000
vn 0.0040486259545110 0.7069956541412789 -0.7072063020457507
v 0.0000000000000000 0.3904310000000000 -0.1224820000000000
vn 0.0161467050819929 0.5224453270231000 -0.8525198907865559
v 0.0000000000000000 0.3349370000000000 -0.1650630000000000
vn 0.0000000000000000 0.3008604725483757 -0.9536681687347900
v 0.0000000000000000 0.2703130000000000 -0.1918320000000000
vn 0.2769891528852552 0.9321219365624855 0.2332931729882175
v 0.0669870000000000 0.4509620000000000 0.1363380000000000
vn 0.2588172554571497 0.9659263058187441 -0.0000022322294769
v 0.0693510000000000 0.4597810000000000 0.0669870000000000
vn 0.2088633241896490 0.9431184975954386 -0.2586573240829888
v 0.0669870000000000 0.4509620000000000 -0.0023630000000000
vn 0.2268831041124068 0.8357158761438503 -0.5001030208161470
v 0.0600590000000000 0.4251060000000000 -0.0669870000000000
vn 0.1869002661880497 0.6818551813530279 -0.7072070433478909
v 0.0490380000000000 0.3839750000000000 -0.1224820000000000
vn 0.1341980203254834 0.4815561377764755 -0.8660800064142603
v 0.0346750000000000 0.3303710000000000 -0.1650630000000000
vn 0.0833381128232242 0.2717683004514796 -0.9587474901248910
v 0.0179490000000000 0.2679490000000000 -0.1918320000000000
vn 0.4579872946504188 0.8423262171082527 0.2841376108699644
v 0.1294090000000000 0.4251060000000000 0.1363380000000000
vn 0.4995171483814437 0.8651939175754104 0.0438418004122164
v 0.1339750000000000 0.4330130000000000 0.0669870000000000
vn 0.4829500312618910 0.8365011584602156 -0.2588920222773497
v 0.1294090000000000 0.4251060000000000 -0.0023630000000000
vn 0.4079049215269756 0.7486646154238371 -0.5226039309136030
v 0.1160250000000000 0.4019240000000000 -0.0669870000000000
vn 0.3570026792819136 0.6102515468375053 -0.7072072797758571
v 0.0947340000000000 0.3650470000000000 -0.1224820000000000
vn 0.2517274940326473 0.4129444314219027 -0.8752771934111415
v 0.0669870000000000 0.3169870000000000 -0.1650630000000000
vn 0.1293749213212136 0.2240871128965147 -0.9659436296010417
v 0.0346750000000000 0.2610210000000000 -0.1918320000000000
vn 0.6738180523057757 0.6986125674177561 0.2406443704573662
v 0.1830130000000000 0.3839750000000000 0.1363380000000000
vn 0.7064267668483774 0.7064267668483776 -0.0438457085733172
v 0.1894690000000000 0.3904310000000000 0.0669870000000000
vn 0.6950879552824807 0.6603932963880571 -0.2841362850938544
v 0.1830130000000000 0.3839750000000000 -0.0023630000000000
vn 0.5850332060906319 0.6387417081706163 -0.4997451130472407
v 0.1640850000000000 0.3650470000000000 -0.0669870000000000
vn 0.5027852785788247 0.4970542664962598 -0.7072086112331203
v 0.1339750000000000 0.3349370000000000 -0.1224820000000000
vn 0.3808414819743696 0.3580046196528266 -0.8525212360491677
v 0.0947340000000000 0.2956960000000000 -0.1650630000000000
vn 0.2127420114175012 0.2127420114175012 -0.9536674856343126
v 0.0490380000000000 0.2500000000000000 -0.1918320000000000
vn 0.8372368864675286 0.4816735621351605 0.2588918219608031
v 0.2241440000000000 0.3303710000000000 0.1363380000000000
vn 0.8660266116261536 0.4999979079482452 -0.0000016436186803
v 0.2320510000000000 0.3349370000000000 0.0669870000000000
vn 0.8286718304582211 0.5087987833325925 -0.2332955110676042
v 0.2241440000000000 0.3303710000000000 -0.0023630000000000
vn 0.7503451589964378 0.4505988903543744 -0.4836763198483227
v 0.2009620000000000 0.3169870000000000 -0.0669870000000000
vn 0.6143017236302614 0.3499870509237661 -0.7072075059913993
v 0.1640850000000000 0.2956960000000000 -0.1224820000000000
vn 0.4354003726147019 0.2456257193777020 -0.8660799740827433
v 0.1160250000000000 0.2679490000000000 -0.1650630000000000
vn 0.2510962355492473 0.1332430009591468 -0.9587476118293061
v 0.0600590000000000 0.2356370000000000 -0.1918320000000000
vn 0.9333746306809652 0.2485726406194396 0.2588888586568585
v 0.2500000000000000 0.2679490000000000 0.1363380000000000
vn 0.9659263030774895 0.2588172656970937 0.0000003656346561
v 0.2588190000000000 0.2703130000000000 0.0669870000000000
vn 0.9211960404434427 0.2906774118145307 -0.2586590368267241
v 0.2500000000000000 0.2679490000000000 -0.0023630000000000
vn 0.8316306721370393 0.2047177278506526 -0.5162180518584780
v 0.2241440000000000 0.2610210000000000 -0.0669870000000000
vn 0.6604213518800499 0.1937039090207959 -0.7254808292511874
v 0.1830130000000000 0.2500000000000000 -0.1224820000000000
vn 0.4699943736385200 0.1140019047371032 -0.8752764445959046
v 0.1294090000000000 0.2356370000000000 -0.1650630000000000
vn 0.2499342354577351 0.0669759499359683 -0.9659436319352864
v 0.0669870000000000 0.2189110000000000 -0.1918320000000000
vn 0.9659064467293221 -0.0014711535107659 0.2588871798179331
v 0.2588190000000000 0.2009620000000000 0.1363380000000000
vn 0.9999999999995646 0.0000000053001865 -0.0000009332723723
v 0.2679490000000000 0.2009620000000000 0.0669870000000000
vn 0.9606990813655077 0.0187884949967254 -0.2769553529347785
v 0.2588190000000000 0.2009620000000000 -0.0023630000000000
vn 0.8523153759217865 -0.0210739780289244 -0.5226034705370222
v 0.2320510000000000 0.2009620000000000 -0.0669870000000000
vn 0.7066613427785939 0.0310141295129251 -0.7068718910756815
v 0.1894690000000000 0.2009620000000000 -0.1224820000000000
vn 0.5224453270230998 -0.0161467050819929 -0.8525198907865562
v 0.1339750000000000 0.2009620000000000 -0.1650630000000000
vn 0.3008604725483758 0.0000000000000000 -0.9536681687347900
v 0.0693510000000000 0.2009620000000000 -0.1918320000000000
vn 0.9326131668009611 -0.2514145744041426 0.2588887654701662
v 0.2500000000000000 0.1339750000000000 0.1363380000000000
vn 0.9659265461852837 -0.2588163583948734 -0.0000013362213462
v 0.2588190000000000 0.1316110000000000 0.0669870000000000
vn 0.9333746857989131 -0.2485707312868712 -0.2588904931767298
v 0.2500000000000000 0.1339750000000000 -0.0023630000000000
vn 0.8549714059739308 -0.2037242041590387 -0.4769909261261961
v 0.2241440000000000 0.1409030000000000 -0.0669870000000000
vn 0.6985827732567588 -0.1752204558408125 -0.6937433969154831
v 0.1830130000000000 0.1519240000000000 -0.1224820000000000
vn 0.4815561377764755 -0.1341980203254835 -0.8660800064142603
v 0.1294090000000000 0.1662870000000000 -0.1650630000000000
vn 0.2717683004514796 -0.0833381128232240 -0.9587474901248909
v 0.0669870000000000 0.1830130000000000 -0.1918320000000000
vn 0.8841045966011924 -0.3743563590041362 0.2796719126794985
v 0.2241440000000000 0.0715520000000000 0.1363380000000000
vn 0.8932478447006593 -0.3781444273589024 -0.2431359290500572
v 0.2241440000000000 0.0715520000000000 -0.0023630000000000
vn 0.7478450405425767 -0.4287567709225872 -0.5068485244369445
v 0.2009620000000000 0.0849370000000000 -0.0669870000000000
vn 0.6039593635470981 -0.3300173063361993 -0.7254802993206524
v 0.1640850000000000 0.1062280000000000 -0.1224820000000000
vn 0.4129444314219027 -0.2517274940326473 -0.8752771934111415
v 0.1160250000000000 0.1339750000000000 -0.1650630000000000
vn 0.2240871128965148 -0.1293749213212138 -0.9659436296010417
v 0.0600590000000000 0.1662870000000000 -0.1918320000000000
vn 0.5596240008627702 -0.5894000074435156 -0.5826050196178626
v 0.1640850000000000 0.0368770000000000 -0.0669870000000000
vn 0.5216125853133057 -0.4777542385734979 -0.7068742450873610
v 0.1339750000000000 0.0669870000000000 -0.1224820000000000
vn 0.3580046196528268 -0.3808414819743697 -0.8525212360491677
v 0.0947340000000000 0.1062280000000000 -0.1650630000000000
vn 0.2127420114175012 -0.2127420114175012 -0.9536674856343126
v 0.0490380000000000 0.1519240000000000 -0.1918320000000000
vn 0.3801836241466200 -0.5964819910496084 -0.7068731472366427
v 0.0947340000000000 0.0368770000000000 -0.1224820000000000
vn 0.2456302441045424 -0.4353996973703482 -0.8660790302916658
v 0.0669870000000000 0.0849370000000000 -0.1650630000000000
vn 0.1332444200332822 -0.2510943049164720 -0.9587479202420771
v 0.0346750000000000 0.1409030000000000 -0.1918320000000000
vn 0.2154379614898338 -0.7874844279494635 -0.5774554186136027
v 0.0600590000000000 -0.0231820000000000 -0.0669870000000000
vn 0.1975522446566286 -0.6926000147998475 -0.6937422649157096
v 0.0490380000000000 0.0179490000000000 -0.1224820000000000
vn 0.1140015825475735 -0.4699940869862867 -0.8752766404826393
v 0.0346750000000000 0.0715520000000000 -0.1650630000000000
vn 0.0669753012136914 -0.2499317705984513 -0.9659443146853023
v 0.0179490000000000 0.1339750000000000 -0.1918320000000000
vn 0.0000000000000000 -0.9637746668684612 -0.2667178124958783
v 0.0000000000000000 -0.0578570000000000 -0.0023630000000000
vn 0.0116521196631081 -0.8653927175478826 -0.5009587533145292
v 0.0000000000000000 -0.0310890000000000 -0.0669870000000000
vn -0.0040514078780543 -0.7069966525440328 -0.7072052880074765
v 0.0000000000000000 0.0114930000000000 -0.1224820000000000
vn -0.0161469543059585 -0.5224474460742358 -0.8525185874555169
v 0.0000000000000000 0.0669870000000000 -0.1650630000000000
vn -0.0000000000000000 -0.3008587437802049 -0.9536687141198441
v 0.0000000000000000 0.1316110000000000 -0.1918320000000000
vn -0.1968592716729960 -0.7884805710613476 -0.5827047418849005
v -0.0600590000000000 -0.0231820000000000 -0.0669870000000000
vn -0.1868979420513825 -0.6818578914327237 -0.7072050446284147
v -0.0490380000000000 0.0179490000000000 -0.1224820000000000
vn -0.1341977036362997 -0.4815562203975108 -0.8660800095460048
v -0.0346750000000000 0.0715520000000000 -0.1650630000000000
vn -0.0833395875720855 -0.2717657866822071 -0.9587480744868884
v -0.0179490000000000 0.1339750000000000 -0.1918320000000000
vn -0.3300206037001028 -0.6039588418346326 -0.7254792336815639
v -0.0947340000000000 0.0368770000000000 -0.1224820000000000
vn -0.2517306700626180 -0.4129422103385378 -0.8752773278627455
v -0.0669870000000000 0.0849370000000000 -0.1650630000000000
vn -0.1293749213212137 -0.2240871128965148 -0.9659436296010417
v -0.0346750000000000 0.1409030000000000 -0.1918320000000000
vn -0.5742748737002392 -0.5803372986396913 -0.5774227127886121
v -0.1640850000000000 0.0368770000000000 -0.0669870000000000
vn -0.5010335032418330 -0.5173814725154477 -0.6937447949548616
v -0.1339750000000000 0.0669870000000000 -0.1224820000000000
vn -0.3808414819743696 -0.3580046196528266 -0.8525212360491677
v -0.0947340000000000 0.1062280000000000 -0.1650630000000000
vn -0.2127420114175012 -0.2127420114175012 -0.9536674856343126
v -0.0490380000000000 0.1519240000000000 -0.1918320000000000
vn 0.0000000000000000 0.9741541998396729 -0.2258840298355036
v 0.0000000000000000 -0.0715520000000000 0.0323120000000000
vn 0.0000000000000001 0.8637438288327607 -0.5039311442581443
v 0.0000000000000000 -0.0849370000000000 0.0000000000000000
vn 0.0000000000000001 0.7285614329362070 -0.6849804657345642
v 0.0000000000000000 -0.1062280000000000 -0.0277470000000000
vn 0.0000000000000000 0.5301817525435543 -0.8478840187607296
v 0.0000000000000000 -0.1339750000000000 -0.0490380000000000
vn 0.0000000000000000 0.2358752547142465 -0.9717833422185675
v 0.0000000000000000 -0.1662870000000000 -0.0624220000000000
vn -0.0000000000000001 -0.0000000000000000 -1.0000000000000000
v 0.0000000000000000 -0.2009620000000000 -0.0669870000000000
vn 0.0000000000000000 -0.2358752547142464 -0.9717833422185675
v 0.0000000000000000 -0.2356370000000000 -0.0624220000000000
vn 0.0000000000000001 -0.5301817525435543 -0.8478840187607296
v 0.0000000000000000 -0.2679490000000000 -0.0490380000000000
vn 0.0000000000000000 -0.7285665264202931 -0.6849750481439950
v 0.0000000000000000 -0.2956960000000000 -0.0277470000000000
vn 0.0000000000000000 -0.8637502862469922 -0.5039200760122969
v 0.0000000000000000 -0.3169870000000000 0.0000000000000000
vn 0.0000000000000001 -0.9741509708066807 -0.2258979550071259
v 0.0000000000000000 -0.3303710000000000 0.0323120000000000
vn -0.1020551215018893 -0.9946370107282587 -0.0167919345159578
v 0.0000000000000000 -0.3349370000000000 0.0669870000000000
vn 0.0000000000000001 -0.9741515999433117 0.2258952419328172
v 0.0000000000000000 -0.3303710000000000 0.1016630000000000
vn 0.0000000000000001 -0.8637455370372771 0.5039282163643806
v 0.0000000000000000 -0.3169870000000000 0.1339750000000000
vn -0.0000000000000000 -0.7285657116625359 0.6849759147515062
v 0.0000000000000000 -0.2956960000000000 0.1617210000000000
vn -0.0000000000000001 -0.5301881701408800 0.8478800058042796
v 0.0000000000000000 -0.2679490000000000 0.1830130000000000
vn 0.0000000000000000 -0.2358752547142464 0.9717833422185673
v 0.0000000000000000 -0.2356370000000000 0.1963970000000000
vn 0.0000000000000000 -0.1305247770065210 0.9914450476891788
v 0.0000000000000000 -0.2009620000000000 0.2009620000000000
vn 0.8047498056378021 -0.2082223081798258 0.5558967716241798
v -0.0079070000000000 -0.2610210000000000 0.2009620000000000
vn 0.7837160687004495 -0.4578604265191580 0.4197057939657336
v -0.0310890000000000 -0.3169870000000000 0.2009620000000000
vn 0.6532844262572312 -0.6532778448526013 0.3826846166682178
v -0.0679660000000000 -0.3650470000000000 0.2009620000000000
vn 0.4619384664548817 -0.8001030613035865 0.3826851767470769
v -0.1160250000000000 -0.4019240000000000 0.2009620000000000
vn 0.1997895743906691 -0.9021513695209745 0.3823702818423854
v -0.1719920000000000 -0.4251060000000000 0.2009620000000000
vn -0.0405103874156532 -0.9231216639573347 0.3823680191178062
v -0.2320510000000000 -0.4330130000000000 0.2009620000000000
vn -0.2780521691036570 -0.8811814880917611 0.3823691623302548
v -0.2921100000000000 -0.4251060000000000 0.2009620000000000
vn -0.4966419811515118 -0.7791930822217300 0.3823674713880638
v -0.3480760000000000 -0.4019240000000000 0.2009620000000000
vn -0.6813912340852186 -0.6241018600702761 0.3823648184242952
v -0.3961360000000000 -0.3650470000000000 0.2009620000000000
vn -0.8197026832437015 -0.4264752466813649 0.3823694222229921
v -0.4330130000000000 -0.3169870000000000 0.2009620000000000
vn -0.9021508945366099 -0.1997871361897655 0.3823726764556886
v -0.4561950000000000 -0.2610210000000000 0.2009620000000000
vn -0.9238751717431807 0.0000000000000000 0.3826939600209394
v -0.4641010000000000 -0.2009620000000000 0.2009620000000000
vn -0.9021508945366099 0.1997871361897655 0.3823726764556886
v -0.4561950000000000 -0.1409030000000000 0.2009620000000000
vn -0.8001031022706439 0.4619391575760781 0.3826842568421060
v -0.4330130000000000 -0.0849370000000000 0.2009620000000000
vn -0.6532837059590574 0.6532836196184977 0.3826759880977038
v -0.3961360000000000 -0.0368770000000000 0.2009620000000000
vn -0.4966419811515120 0.7791930822217299 0.3823674713880639
v -0.3480760000000000 0.0000000000000000 0.2009620000000000
vn -0.2780521691036571 0.8811814880917610 0.3823691623302548
v -0.2921100000000000 0.0231820000000000 0.2009620000000000
vn -0.0046641113854073 0.9076484858801812 0.4197052205350787
v -0.2320510000000000 0.0310890000000000 0.2009620000000000
vn 0.2220415240857965 0.8010326791174179 0.5559174476193638
v -0.1719920000000000 0.0231820000000000 0.2009620000000000
vn -0.0000002767718195 0.0000000000000000 -0.9999999999999618
v -0.2320510000000000 -0.2009620000000000 -0.2009620000000000
vn 0.4632478609481141 -0.8549716406069505 0.2332914766656855
v -0.1026410000000000 -0.4251060000000000 0.1363380000000000
vn 0.4999992112367477 -0.8660258591763049 -0.0000007570750159
v -0.0980760000000000 -0.4330130000000000 0.0669870000000000
vn 0.4842266425809101 -0.8357633425847312 -0.2588903123070017
v -0.1026410000000000 -0.4251060000000000 -0.0023630000000000
vn 0.4354491690697601 -0.7485178141944736 -0.5001050919456662
v -0.1160250000000000 -0.4019240000000000 -0.0669870000000000
vn 0.3570038312474456 -0.6102509675592064 -0.7072071981164345
v -0.1373170000000000 -0.3650470000000000 -0.1224820000000000
vn 0.2752072673897716 -0.4443762046140183 -0.8525202336300850
v -0.1650630000000000 -0.3169870000000000 -0.1650630000000000
vn 0.1504334016061658 -0.2605526269757301 -0.9536677200457422
v -0.1973750000000000 -0.2610210000000000 -0.1918320000000000
vn 0.7740968292158418 -0.5845117125352071 0.2431463693069245
v -0.0079070000000000 -0.3303710000000000 0.1363380000000000
vn 0.6660334945618344 -0.6925998268259798 0.2769564297906331
v -0.0490380000000000 -0.3839750000000000 0.1363380000000000
vn 0.7071078295879143 -0.7071057327834551 0.0000004920257530
v -0.0425820000000000 -0.3904310000000000 0.0669870000000000
vn 0.6840411553603213 -0.6819552609676316 -0.2588913281898146
v -0.0490380000000000 -0.3839750000000000 -0.0023630000000000
vn 0.6178569894828038 -0.5931017823498623 -0.5162199301854425
v -0.0679660000000000 -0.3650470000000000 -0.0669870000000000
vn 0.4750914329140188 -0.4979614681791966 -0.7254808795416482
v -0.0980760000000000 -0.3349370000000000 -0.1224820000000000
vn 0.3500314452201370 -0.3337193973535358 -0.8752767283477239
v -0.1373170000000000 -0.2956960000000000 -0.1650630000000000
vn 0.1829689318247728 -0.1829626849200811 -0.9659435935466091
v -0.1830130000000000 -0.2500000000000000 -0.1918320000000000
vn 0.2409364347808984 -0.1508373614908655 -0.9587479985760303
v -0.1719920000000000 -0.2356370000000000 -0.1918320000000000
vn 0.4180878429874997 -0.2296517838194702 -0.8788985230017143
v -0.1160250000000000 -0.2679490000000000 -0.1650630000000000
vn 0.5930773740991867 -0.3597628563909367 -0.7202984905530814
v -0.0679660000000000 -0.2956960000000000 -0.1224820000000000
vn 0.7597984416697567 -0.4050722365544628 -0.5085497136062260
v -0.0310890000000000 -0.3169870000000000 -0.0669870000000000
vn 0.7662448930940435 -0.5784870144047111 -0.2796811362470147
v -0.0079070000000000 -0.3303710000000000 -0.0023630000000000
vn 0.2717637219064157 -0.9194625763118048 0.2841356194102224
v -0.1650630000000000 -0.4509620000000000 0.1363380000000000
vn 0.2585681409854039 -0.9649976747497482 0.0438406682765162
v -0.1627000000000000 -0.4597810000000000 0.0669870000000000
vn 0.2342373892091822 -0.9419257452858896 -0.2406423401317556
v -0.1650630000000000 -0.4509620000000000 -0.0023630000000000
vn 0.2268811790920184 -0.8357158605281813 -0.5001039202360416
v -0.1719920000000000 -0.4251060000000000 -0.0669870000000000
vn 0.1868990631082634 -0.6818555368011459 -0.7072070185899423
v -0.1830130000000000 -0.3839750000000000 -0.1224820000000000
vn 0.1505371493088583 -0.4770608616672419 -0.8658819209010379
v -0.1973750000000000 -0.3303710000000000 -0.1650630000000000
vn 0.0637215130941692 -0.2770250936251082 -0.9587474465525265
v -0.2141010000000000 -0.2679490000000000 -0.1918320000000000
vn 0.0175304579186254 -0.9704560967092118 0.2406400785511097
v -0.2320510000000000 -0.4597810000000000 0.1363380000000000
vn -0.0000009431536938 -0.9990384543389025 -0.0438425221816362
v -0.2320510000000000 -0.4689110000000000 0.0669870000000000
vn -0.0245320223105011 -0.9584707455532573 -0.2841337885573276
v -0.2320510000000000 -0.4597810000000000 -0.0023630000000000
vn 0.0028517536664641 -0.8659613018797837 -0.5001028805632856
v -0.2320510000000000 -0.4330130000000000 -0.0669870000000000
vn 0.0040486259545109 -0.7069956541412789 -0.7072063020457509
v -0.2320510000000000 -0.3904310000000000 -0.1224820000000000
vn 0.0219341722884891 -0.4997675588290716 -0.8658817928724737
v -0.2320510000000000 -0.3349370000000000 -0.1650630000000000
vn -0.0101576496986231 -0.2840756941767562 -0.9587480493490426
v -0.2320510000000000 -0.2703130000000000 -0.1918320000000000
vn -0.2514164270365582 -0.9326129859751899 0.2588876177158944
v -0.2990380000000000 -0.4509620000000000 0.1363380000000000
vn -0.2588178910511255 -0.9659261355145519 -0.0000013307338771
v -0.3014010000000000 -0.4597810000000000 0.0669870000000000
vn -0.2485729758212917 -0.9333746203721227 -0.2588885739783494
v -0.2990380000000000 -0.4509620000000000 -0.0023630000000000
vn -0.2213734980190638 -0.8371924993399211 -0.5001024829210307
v -0.2921100000000000 -0.4251060000000000 -0.0669870000000000
vn -0.1790708954630205 -0.6839521905305895 -0.7072079011623670
v -0.2810890000000000 -0.3839750000000000 -0.1224820000000000
vn -0.1081722191645382 -0.4884132062562520 -0.8658818111933677
v -0.2667260000000000 -0.3303710000000000 -0.1650630000000000
vn -0.0833381128232241 -0.2717683004514795 -0.9587474901248910
v -0.2500000000000000 -0.2679490000000000 -0.1918320000000000
vn -0.4842262294989433 -0.8357636844541347 0.2588899812910614
v -0.3614600000000000 -0.4251060000000000 0.1363380000000000
vn -0.4999966683405674 -0.8660273273067239 -0.0000025109461529
v -0.3660250000000000 -0.4330130000000000 0.0669870000000000
vn -0.4816765903341489 -0.8372362040300966 -0.2588883948448499
v -0.3614600000000000 -0.4251060000000000 -0.0023630000000000
vn -0.4305084049933438 -0.7513711595353552 -0.5001038830568935
v -0.3480760000000000 -0.4019240000000000 -0.0669870000000000
vn -0.3499898643189293 -0.6143006170969235 -0.7072070748432572
v -0.3267850000000000 -0.3650470000000000 -0.1224820000000000
vn -0.2308891791990362 -0.4437766795369065 -0.8658824664052236
v -0.2990380000000000 -0.3169870000000000 -0.1650630000000000
vn -0.1508320859185779 -0.2409415971960015 -0.9587475312083419
v -0.2667260000000000 -0.2610210000000000 -0.1918320000000000
vn -0.6840392349637597 -0.6819581635490817 0.2588887564166472
v -0.4150630000000000 -0.3839750000000000 0.1363380000000000
vn -0.7071070721321702 -0.7071064902406168 -0.0000005160466741
v -0.4215200000000000 -0.3904310000000000 0.0669870000000000
vn -0.6819570121950633 -0.6840398941645662 -0.2588900475285044
v -0.4150630000000000 -0.3839750000000000 -0.0023630000000000
vn -0.6103095510144492 -0.6143441598383788 -0.5001034945019059
v -0.3961360000000000 -0.3650470000000000 -0.0669870000000000
vn -0.4979249420110542 -0.5276825751948196 -0.6882018976717893
v -0.3660250000000000 -0.3349370000000000 -0.1224820000000000
vn -0.3597798387153729 -0.3700566014526761 -0.8565142026698889
v -0.3267850000000000 -0.2956960000000000 -0.1650630000000000
vn -0.2080536871326051 -0.1936924417495369 -0.9587475691127620
v -0.2810890000000000 -0.2500000000000000 -0.1918320000000000
vn -0.8372351427988034 -0.4816795522514232 0.2588863159874150
v -0.4561950000000000 -0.3303710000000000 0.1363380000000000
vn -0.8660253432764493 -0.5000001048028468 0.0000002246209026
v -0.4641010000000000 -0.3349370000000000 0.0669870000000000
vn -0.8357635549478487 -0.4842266324130853 -0.2588896457620837
v -0.4561950000000000 -0.3303710000000000 -0.0023630000000000
vn -0.7485202326316978 -0.4354472102668865 -0.5001031777661236
v -0.4330130000000000 -0.3169870000000000 -0.0669870000000000
vn -0.5964816977241608 -0.3801826747335020 -0.7068739053838266
v -0.3961360000000000 -0.2956960000000000 -0.1224820000000000
vn -0.4354024013096732 -0.2456244965827105 -0.8660793009951573
v -0.3480760000000000 -0.2679490000000000 -0.1650630000000000
vn -0.2510962355492471 -0.1332430009591470 -0.9587476118293061
v -0.2921100000000000 -0.2356370000000000 -0.1918320000000000
vn -0.9333746306809653 -0.2485726406194395 0.2588888586568585
v -0.4820510000000000 -0.2679490000000000 0.1363380000000000
vn -0.9659251538764007 -0.2588215545617282 -0.0000017612724219
v -0.4908700000000000 -0.2703130000000000 0.0669870000000000
vn -0.9326122791450436 -0.2514159984245103 -0.2588905802150667
v -0.4820510000000000 -0.2679490000000000 -0.0023630000000000
vn -0.8357153978897300 -0.2268807362298133 -0.5001048942550234
v -0.4561950000000000 -0.2610210000000000 -0.0669870000000000
vn -0.6745544605641494 -0.2128524739503418 -0.7068734710443083
v -0.4150630000000000 -0.2500000000000000 -0.1224820000000000
vn -0.4841382199370347 -0.1245683307151767 -0.8660790466112398
v -0.3614600000000000 -0.2356370000000000 -0.1650630000000000
vn -0.2770261680596143 -0.0637147582953196 -0.9587475850220304
v -0.2990380000000000 -0.2189110000000000 -0.1918320000000000
vn -0.9606982368912387 0.0187884994713559 0.2769582819156708
v -0.4908700000000000 -0.2009620000000000 0.1363380000000000
vn -0.9999999999995646 -0.0000000053001865 -0.0000009332723723
v -0.5000000000000000 -0.2009620000000000 0.0669870000000000
vn -0.9659050499518106 -0.0014736980204015 -0.2588923766582071
v -0.4908700000000000 -0.2009620000000000 -0.0023630000000000
vn -0.8659605286153478 -0.0028495075120326 -0.5001042323227892
v -0.4641010000000000 -0.2009620000000000 -0.0669870000000000
vn -0.7066611396347230 -0.0310089563804945 -0.7068723211120571
v -0.4215200000000000 -0.2009620000000000 -0.1224820000000000
vn -0.4998809717627750 0.0049839480991246 -0.8660797736530099
v -0.3660250000000000 -0.2009620000000000 -0.1650630000000000
vn -0.2840774395561638 0.0101547924319902 -0.9587475624615051
v -0.3014010000000000 -0.2009620000000000 -0.1918320000000000
vn -0.9211967326164275 0.2906780360605212 0.2586558701611402
v -0.4820510000000000 -0.1339750000000000 0.1363380000000000
vn -0.9659253969901528 0.2588206472613623 0.0000007907487716
v -0.4908700000000000 -0.1316110000000000 0.0669870000000000
vn -0.9333746857989131 0.2485707312868711 -0.2588904931767297
v -0.4820510000000000 -0.1339750000000000 -0.0023630000000000
vn -0.8371913523561682 0.2213658176651332 -0.5001078026880776
v -0.4561950000000000 -0.1409030000000000 -0.0669870000000000
vn -0.6906086481679266 0.1529414004392972 -0.7068724235018196
v -0.4150630000000000 -0.1519240000000000 -0.1224820000000000
vn -0.4815608052374432 0.1341886667487849 -0.8660788604828367
v -0.3614600000000000 -0.1662870000000000 -0.1650630000000000
vn -0.2717697875438463 0.0833325580952624 -0.9587475514126085
v -0.2990380000000000 -0.1830130000000000 -0.1918320000000000
vn -0.8286707569890098 0.5088022737160209 0.2332917117530513
v -0.4561950000000000 -0.0715520000000000 0.1363380000000000
vn -0.8660250604733343 0.5000005946274710 -0.0000020815932249
v -0.4641010000000000 -0.0669870000000000 0.0669870000000000
vn -0.8372344002341068 0.4816803476335532 -0.2588872375538335
v -0.4561950000000000 -0.0715520000000000 -0.0023630000000000
vn -0.7513702673554364 0.4305073903507315 -0.5001060969310642
v -0.4330130000000000 -0.0849370000000000 -0.0669870000000000
vn -0.6274919058371676 0.3264709587205709 -0.7068738368484933
v -0.3961360000000000 -0.1062280000000000 -0.1224820000000000
vn -0.4304191498679059 0.2542545930560651 -0.8660796483793416
v -0.3480760000000000 -0.1339750000000000 -0.1650630000000000
vn -0.2409415971960015 0.1508320859185781 -0.9587475312083419
v -0.2921100000000000 -0.1662870000000000 -0.1918320000000000
vn -0.6743155634602929 0.6743209754006635 0.3009813001000649
v -0.4150630000000000 -0.0179490000000000 0.1363380000000000
vn -0.7064262169670791 0.7064277154627389 0.0438392838408330
v -0.4215200000000000 -0.0114930000000000 0.0669870000000000
vn -0.6903675225257010 0.6903721852068331 -0.2162843723768961
v -0.4150630000000000 -0.0179490000000000 -0.0023630000000000
vn -0.6272466351845021 0.6272493229355324 -0.4616491584814560
v -0.3961360000000000 -0.0368770000000000 -0.0669870000000000
vn -0.5173810939695005 0.5010341654375156 -0.6937445990184394
v -0.3660250000000000 -0.0669870000000000 -0.1224820000000000
vn -0.3499475249292463 0.3569918513378946 -0.8660794119907463
v -0.3267850000000000 -0.1062280000000000 -0.1650630000000000
vn -0.1936924417495371 0.2080536871326049 -0.9587475691127620
v -0.2810890000000000 -0.1519240000000000 -0.1918320000000000
vn -0.4700439900373717 0.8492054064570094 0.2406425254894335
v -0.3614600000000000 0.0231820000000000 0.1363380000000000
vn -0.5224369270191277 0.8522717790525950 -0.0263148611498421
v -0.3660250000000000 0.0310890000000000 0.0669870000000000
vn -0.4816765903341491 0.8372362040300966 -0.2588883948448499
v -0.3614600000000000 0.0231820000000000 -0.0023630000000000
vn -0.4305084049933438 0.7513711595353552 -0.5001038830568936
v -0.3480760000000000 0.0000000000000000 -0.0669870000000000
vn -0.3337394461734625 0.6081005230661286 -0.7202997542096842
v -0.3267850000000000 -0.0368770000000000 -0.1224820000000000
vn -0.2472588785240032 0.4079214753620911 -0.8788988092661560
v -0.2990380000000000 -0.0849370000000000 -0.1650630000000000
vn -0.1332444200332822 0.2510943049164719 -0.9587479202420770
v -0.2667260000000000 -0.1409030000000000 -0.1918320000000000
vn -0.2243753478071191 0.9321607799941359 0.2841337423418037
v -0.2990380000000000 0.0490380000000000 0.1363380000000000
vn -0.2768867196190934 0.9607186477374082 0.0187995847875250
v -0.3014010000000000 0.0578570000000000 0.0669870000000000
vn -0.2304984798263210 0.9328269051655429 -0.2769556206272591
v -0.2990380000000000 0.0490380000000000 -0.0023630000000000
vn -0.2409526327124693 0.8178186818919678 -0.5226035135142266
v -0.2921100000000000 0.0231820000000000 -0.0669870000000000
vn -0.1529436909800160 0.6906098068053795 -0.7068707959264166
v -0.2810890000000000 -0.0179490000000000 -0.1224820000000000
vn -0.1505369751351379 0.4770597605095473 -0.8658825578678301
v -0.2667260000000000 -0.0715520000000000 -0.1650630000000000
vn -0.0637199439138566 0.2770237260337277 -0.9587479460014532
v -0.2500000000000000 -0.1339750000000000 -0.1918320000000000
vn -0.1191760935598362 0.9626403367587727 0.2431473643056283
v -0.2320510000000000 0.0578570000000000 0.1363380000000000
vn -0.1172646798172838 0.9578493567242341 -0.2622472205578559
v -0.2320510000000000 0.0578570000000000 -0.0023630000000000
vn -0.0160706747104936 0.8696405334522431 -0.4934238299791037
v -0.2320510000000000 0.0310890000000000 -0.0669870000000000
vn 0.0310109694819945 0.7066625504221563 -0.7068708224298412
v -0.2320510000000000 -0.0114930000000000 -0.1224820000000000
vn -0.0219360160200891 0.4997686527581344 -0.8658811147735499
v -0.2320510000000000 -0.0669870000000000 -0.1650630000000000
vn 0.0101535039640686 0.2840747969787757 -0.9587483591009265
v -0.2320510000000000 -0.1316110000000000 -0.1918320000000000
vn 0.1968584760086829 0.7884826286080735 -0.5827022265332799
v -0.1719920000000000 0.0231820000000000 -0.0669870000000000
vn 0.2128545986673018 0.6745563797167153 -0.7068709998363636
v -0.1830130000000000 -0.0179490000000000 -0.1224820000000000
vn 0.1081710986501661 0.4884140016801015 -0.8658815025046128
v -0.1973750000000000 -0.0715520000000000 -0.1650630000000000
vn 0.0833387964809027 0.2717658073568661 -0.9587481373920814
v -0.2141010000000000 -0.1339750000000000 -0.1918320000000000
vn 0.3534972668224002 0.6122816480887786 -0.7072134513446289
v -0.1373170000000000 -0.0368770000000000 -0.1224820000000000
vn 0.2517478692713910 0.4505632071872137 -0.8565137515804907
v -0.1650630000000000 -0.0849370000000000 -0.1650630000000000
vn 0.1508357558285939 0.2409383355935733 -0.9587477735072012
v -0.1973750000000000 -0.1409030000000000 -0.1918320000000000
vn 0.5742790556471141 0.5803379325465692 -0.5774179164977761
v -0.0679660000000000 -0.0368770000000000 -0.0669870000000000
vn 0.5010353151089408 0.5173794601040757 -0.6937449872079072
v -0.0980760000000000 -0.0669870000000000 -0.1224820000000000
vn 0.3569937003213245 0.3499454947962009 -0.8660794701427407
v -0.1373170000000000 -0.1062280000000000 -0.1650630000000000
vn 0.2080542676482012 0.1936906935189779 -0.9587477963247207
v -0.1830130000000000 -0.1519240000000000 -0.1918320000000000
vn 0.8346647925176682 0.4818716625865033 -0.2667103015025047
v -0.0079070000000000 -0.0715520000000000 -0.0023630000000000
vn 0.7438024556696871 0.4294321180705191 -0.5121971914304208
v -0.0310890000000000 -0.0849370000000000 -0.0669870000000000
vn 0.5848497826171214 0.3376629336882703 -0.7375191353353054
v -0.0679660000000000 -0.1062280000000000 -0.1224820000000000
vn 0.4079223432699687 0.2472584574067754 -0.8788985249173876
v -0.1160250000000000 -0.1339750000000000 -0.1650630000000000
vn 0.2510928443654247 0.1332471230877949 -0.9587479270889230
v -0.1719920000000000 -0.1662870000000000 -0.1918320000000000
vn 0.7897110879855789 0.2071693956015219 -0.5774402471587285
v -0.0079070000000000 -0.1409030000000000 -0.0669870000000000
vn 0.6985850350812980 0.1752184499549990 -0.6937416259356426
v -0.0490380000000000 -0.1519240000000000 -0.1224820000000000
vn 0.4770627608957863 0.1505367613766101 -0.8658809419549153
v -0.1026410000000000 -0.1662870000000000 -0.1650630000000000
vn 0.2770241139198052 0.0637197575968028 -0.9587478463072298
v -0.1650630000000000 -0.1830130000000000 -0.1918320000000000
vn 0.7070023179809023 -0.0000000000000000 -0.7072112289617799
v -0.0425820000000000 -0.2009620000000000 -0.1224820000000000
vn 0.5160746707768213 0.0072660817673845 -0.8565127776270155
v -0.0980760000000000 -0.2009620000000000 -0.1650630000000000
vn 0.2840767261812513 -0.0101547936118696 -0.9587477738221052
v -0.1627000000000000 -0.2009620000000000 -0.1918320000000000
vn 0.7897110879855789 -0.2071693956015219 -0.5774402471587285
v -0.0079070000000000 -0.2610210000000000 -0.0669870000000000
vn 0.6985850350812981 -0.1752184499549990 -0.6937416259356427
v -0.0490380000000000 -0.2500000000000000 -0.1224820000000000
vn 0.4815613751064386 -0.1341909659130684 -0.8660781873900956
v -0.1026410000000000 -0.2356370000000000 -0.1650630000000000
vn 0.2717659381675245 -0.0833368317366229 -0.9587482710951959
v -0.1650630000000000 -0.2189110000000000 -0.1918320000000000
vn -0.2220415240857966 0.8010326791174179 0.5559174476193638
v 0.1719920000000000 0.0231820000000000 0.2009620000000000
vn 0.0046641113854073 0.9076484858801812 0.4197052205350787
v 0.2320510000000000 0.0310890000000000 0.2009620000000000
vn 0.2780521691036571 0.8811814880917610 0.3823691623302548
v 0.2921100000000000 0.0231820000000000 0.2009620000000000
vn 0.4966419811515120 0.7791930822217299 0.3823674713880639
v 0.3480760000000000 0.0000000000000000 0.2009620000000000
vn 0.6532837059590574 0.6532836196184977 0.3826759880977038
v 0.3961360000000000 -0.0368770000000000 0.2009620000000000
vn 0.8001031022706439 0.4619391575760782 0.3826842568421060
v 0.4330130000000000 -0.0849370000000000 0.2009620000000000
vn 0.8924009686529693 0.2391118338207676 0.3826826911085888
v 0.4561950000000000 -0.1409030000000000 0.2009620000000000
vn 0.9238777427878179 0.0000000000000000 0.3826877531111843
v 0.4641010000000000 -0.2009620000000000 0.2009620000000000
vn 0.8924009686529694 -0.2391118338207676 0.3826826911085887
v 0.4561950000000000 -0.2610210000000000 0.2009620000000000
vn 0.8001045652907708 -0.4619391507838288 0.3826812061938525
v 0.4330130000000000 -0.3169870000000000 0.2009620000000000
vn 0.6241012993770061 -0.6813917543254716 0.3823648065044542
v 0.3961360000000000 -0.3650470000000000 0.2009620000000000
vn 0.4264752466813648 -0.8197026832437018 0.3823694222229918
v 0.3480760000000000 -0.4019240000000000 0.2009620000000000
vn 0.1997923255143437 -0.9021516348914153 0.3823682182508334
v 0.2921100000000000 -0.4251060000000000 0.2009620000000000
vn 0.0000000000000000 -0.9238802262619800 0.3826817574984633
v 0.2320510000000000 -0.4330130000000000 0.2009620000000000
vn -0.1997895743906690 -0.9021513695209745 0.3823702818423854
v 0.1719920000000000 -0.4251060000000000 0.2009620000000000
vn -0.4264759626820752 -0.8197014857303013 0.3823711907897008
v 0.1160250000000000 -0.4019240000000000 0.2009620000000000
vn -0.6241019417512024 -0.6813880755357227 0.3823703137275473
v 0.0679660000000000 -0.3650470000000000 0.2009620000000000
vn -0.7837160687004496 -0.4578604265191580 0.4197057939657337
v 0.0310890000000000 -0.3169870000000000 0.2009620000000000
vn -0.8047498056378019 -0.2082223081798258 0.5558967716241798
v 0.0079070000000000 -0.2610210000000000 0.2009620000000000
vn 0.0000002767718195 0.0000000000000000 -0.9999999999999618
v 0.2320510000000000 -0.2009620000000000 -0.2009620000000000
vn 0.4842262294989434 0.8357636844541346 0.2588899812910617
v 0.3614600000000000 0.0231820000000000 0.1363380000000000
vn 0.4999966683405674 0.8660273273067239 -0.0000025109461530
v 0.3660250000000000 0.0310890000000000 0.0669870000000000
vn 0.4816765903341491 0.8372362040300966 -0.2588883948448499
v 0.3614600000000000 0.0231820000000000 -0.0023630000000000
vn 0.4180617785110115 0.7731128242906227 -0.4769915201191596
v 0.3480760000000000 0.0000000000000000 -0.0669870000000000
vn 0.3700751307475622 0.6178701629017606 -0.6937440878291696
v 0.3267850000000000 -0.0368770000000000 -0.1224820000000000
vn 0.2472437617551132 0.4605223970933608 -0.8525195857272522
v 0.2990380000000000 -0.0849370000000000 -0.1650630000000000
vn 0.1504315151697449 0.2605537160630120 -0.9536677200626484
v 0.2667260000000000 -0.1409030000000000 -0.1918320000000000
vn 0.1191760935598362 0.9626403367587727 0.2431473643056283
v 0.2320510000000000 0.0578570000000000 0.1363380000000000
vn 0.2514164270365581 0.9326129859751899 0.2588876177158943
v 0.2990380000000000 0.0490380000000000 0.1363380000000000
vn 0.2588178910511254 0.9659261355145521 -0.0000013307338771
v 0.3014010000000000 0.0578570000000000 0.0669870000000000
vn 0.2485729758212917 0.9333746203721227 -0.2588885739783493
v 0.2990380000000000 0.0490380000000000 -0.0023630000000000
vn 0.2047177278506526 0.8316306721370395 -0.5162180518584779
v 0.2921100000000000 0.0231820000000000 -0.0669870000000000
vn 0.1747899790743543 0.6523141682083343 -0.7375192805410958
v 0.2810890000000000 -0.0179490000000000 -0.1224820000000000
vn 0.1194392804845195 0.4457268998957263 -0.8871650291725240
v 0.2667260000000000 -0.0715520000000000 -0.1650630000000000
vn 0.0669753012136913 0.2499317705984513 -0.9659443146853023
v 0.2500000000000000 -0.1339750000000000 -0.1918320000000000
vn 0.0101552948835608 0.2840746613814875 -0.9587483803098815
v 0.2320510000000000 -0.1316110000000000 -0.1918320000000000
vn 0.0049795059337640 0.4998827877324085 -0.8660787510668597
v 0.2320510000000000 -0.0669870000000000 -0.1650630000000000
vn 0.0040517741103340 0.7069967839885094 -0.7072051545036021
v 0.2320510000000000 -0.0114930000000000 -0.1224820000000000
vn -0.0290945695909381 0.8605409128214015 -0.5085497452372059
v 0.2320510000000000 0.0310890000000000 -0.0669870000000000
vn 0.1178861141041641 0.9528277479516554 -0.2796822247387141
v 0.2320510000000000 0.0578570000000000 -0.0023630000000000
vn 0.6926014578423765 0.6660320496012031 0.2769558258976244
v 0.4150630000000000 -0.0179490000000000 0.1363380000000000
vn 0.6880121535132707 0.7252220257612245 0.0263114037789191
v 0.4215200000000000 -0.0114930000000000 0.0669870000000000
vn 0.6986109108066793 0.6738204774083831 -0.2406423892978971
v 0.4150630000000000 -0.0179490000000000 -0.0023630000000000
vn 0.5850355667980557 0.6387397911418701 -0.4997447996661076
v 0.3961360000000000 -0.0368770000000000 -0.0669870000000000
vn 0.5276811463509414 0.4979265090177757 -0.6882018594882806
v 0.3660250000000000 -0.0669870000000000 -0.1224820000000000
vn 0.3597798387153729 0.3700566014526761 -0.8565142026698890
v 0.3267850000000000 -0.1062280000000000 -0.1650630000000000
vn 0.2080536871326051 0.1936924417495370 -0.9587475691127620
v 0.2810890000000000 -0.1519240000000000 -0.1918320000000000
vn 0.8549695252319088 0.4632523375424999 0.2332903398903054
v 0.4561950000000000 -0.0715520000000000 0.1363380000000000
vn 0.8563176578931233 0.5161071030944245 -0.0188023114514360
v 0.4641010000000000 -0.0669870000000000 0.0669870000000000
vn 0.8423244856968205 0.4579929273074754 -0.2841336645522955
v 0.4561950000000000 -0.0715520000000000 -0.0023630000000000
vn 0.7304181775571810 0.4655567734165137 -0.4997461121610168
v 0.4330130000000000 -0.0849370000000000 -0.0669870000000000
vn 0.6143010773518003 0.3499862501971776 -0.7072084636352538
v 0.3961360000000000 -0.1062280000000000 -0.1224820000000000
vn 0.4244779559938449 0.2317532642702913 -0.8752764645386919
v 0.3480760000000000 -0.1339750000000000 -0.1650630000000000
vn 0.2240871128965146 0.1293749213212140 -0.9659436296010417
v 0.2921100000000000 -0.1662870000000000 -0.1918320000000000
vn 0.9211365084340898 0.2468136173295065 0.3009826757980895
v 0.4820510000000000 -0.1339750000000000 0.1363380000000000
vn 0.9649967809836103 0.2585718291819329 0.0438385885354389
v 0.4908700000000000 -0.1316110000000000 0.0669870000000000
vn 0.9419260361503131 0.2342362278606144 -0.2406423320610682
v 0.4820510000000000 -0.1339750000000000 -0.0023630000000000
vn 0.8260256906673588 0.2606399645267322 -0.4997483038980892
v 0.4561950000000000 -0.1409030000000000 -0.0669870000000000
vn 0.6839539824289024 0.1790692966211790 -0.7072065730232159
v 0.4150630000000000 -0.1519240000000000 -0.1224820000000000
vn 0.5088226146179230 0.1196242806154188 -0.8525195471897545
v 0.3614600000000000 -0.1662870000000000 -0.1650630000000000
vn 0.2906113438039999 0.0778680937121816 -0.9536674508622303
v 0.2990380000000000 -0.1830130000000000 -0.1918320000000000
vn 0.9763296910003502 0.0000000000000000 0.2162876197824571
v 0.4908700000000000 -0.2009620000000000 0.1363380000000000
vn 0.9990384277403426 0.0000000000000000 -0.0438431282882986
v 0.5000000000000000 -0.2009620000000000 0.0669870000000000
vn 0.9584693159535685 -0.0245282265911925 -0.2841389386828030
v 0.4908700000000000 -0.2009620000000000 -0.0023630000000000
vn 0.8653393394385158 0.0379773076658479 -0.4997454869456719
v 0.4641010000000000 -0.2009620000000000 -0.0669870000000000
vn 0.7069953360759413 -0.0040490784004088 -0.7072066174258935
v 0.4215200000000000 -0.2009620000000000 -0.1224820000000000
vn 0.4998809717627750 -0.0049839480991247 -0.8660797736530099
v 0.3660250000000000 -0.2009620000000000 -0.1650630000000000
vn 0.2840774395561638 -0.0101547924319903 -0.9587475624615051
v 0.3014010000000000 -0.2009620000000000 -0.1918320000000000
vn 0.9231007090467990 -0.2667956636028066 0.2769569548504516
v 0.4820510000000000 -0.2679490000000000 0.1363380000000000
vn 0.9659251566212724 -0.2588215443238048 -0.0000001052927943
v 0.4908700000000000 -0.2703130000000000 0.0669870000000000
vn 0.9457363159574764 -0.2261798543634681 -0.2332927220452896
v 0.4820510000000000 -0.2679490000000000 -0.0023630000000000
vn 0.8364568123807691 -0.2241252771016508 -0.5001078495543847
v 0.4561950000000000 -0.2610210000000000 -0.0669870000000000
vn 0.6687927252434620 -0.1624593177637266 -0.7254813993019860
v 0.4150630000000000 -0.2500000000000000 -0.1224820000000000
vn 0.4640276195277021 -0.1362723031529289 -0.8752760865628916
v 0.3614600000000000 -0.2356370000000000 -0.1650630000000000
vn 0.2499360682823624 -0.0669689935150880 -0.9659436400117403
v 0.2990380000000000 -0.2189110000000000 -0.1918320000000000
vn 0.8286714092802421 -0.5088011379332876 0.2332918718671720
v 0.4561950000000000 -0.3303710000000000 0.1363380000000000
vn 0.8660253485753540 -0.5000000956205545 -0.0000020911697872
v 0.4641010000000000 -0.3349370000000000 0.0669870000000000
vn 0.8569233421480481 -0.4458465779591174 -0.2586565572413813
v 0.4561950000000000 -0.3303710000000000 -0.0023630000000000
vn 0.7304198613784318 -0.4655561655987237 -0.4997442173521631
v 0.4330130000000000 -0.3169870000000000 -0.0669870000000000
vn 0.6274919058371676 -0.3264709587205709 -0.7068738368484935
v 0.3961360000000000 -0.2956960000000000 -0.1224820000000000
vn 0.4443769701706120 -0.2752061109204816 -0.8525202079094727
v 0.3480760000000000 -0.2679490000000000 -0.1650630000000000
vn 0.2605553266550844 -0.1504303365417875 -0.9536674659437568
v 0.2921100000000000 -0.2356370000000000 -0.1918320000000000
vn 0.6950873649685442 -0.6603942277512770 0.2841355645002582
v 0.4150630000000000 -0.3839750000000000 0.1363380000000000
vn 0.7064272160073938 -0.7064266271874168 0.0438407217624600
v 0.4215200000000000 -0.3904310000000000 0.0669870000000000
vn 0.6986126192954160 -0.6738186237285666 -0.2406426198281145
v 0.4150630000000000 -0.3839750000000000 -0.0023630000000000
vn 0.6039148016876112 -0.6385652966725449 -0.4769919015959473
v 0.3961360000000000 -0.3650470000000000 -0.0669870000000000
vn 0.4999237390730326 -0.4999246639722014 -0.7072139601729592
v 0.3660250000000000 -0.3349370000000000 -0.1224820000000000
vn 0.3262966873973128 -0.3262966475092432 -0.8871645673818183
v 0.3267850000000000 -0.2956960000000000 -0.1650630000000000
vn 0.1829657953084754 -0.1829657953084752 -0.9659435985057689
v 0.2810890000000000 -0.2500000000000000 -0.1918320000000000
vn 0.5004075652072210 -0.8316753103034015 0.2406417397608361
v 0.3614600000000000 -0.4251060000000000 0.1363380000000000
vn 0.4995158687735372 -0.8651945400399593 -0.0438440957081053
v 0.3660250000000000 -0.4330130000000000 0.0669870000000000
vn 0.5004779943146055 -0.8177954126742611 -0.2841345459738474
v 0.3614600000000000 -0.4251060000000000 -0.0023630000000000
vn 0.4305084049933438 -0.7513711595353552 -0.5001038830568935
v 0.3480760000000000 -0.4019240000000000 -0.0669870000000000
vn 0.3264744361644591 -0.6274909750462183 -0.7068730570382810
v 0.3267850000000000 -0.3650470000000000 -0.1224820000000000
vn 0.2542541198803718 -0.4304191587706944 -0.8660797828647112
v 0.2990380000000000 -0.3169870000000000 -0.1650630000000000
vn 0.1508320859185779 -0.2409415971960015 -0.9587475312083419
v 0.2667260000000000 -0.2610210000000000 -0.1918320000000000
vn 0.2485730329876797 -0.9333748548967155 0.2588876735533021
v 0.2990380000000000 -0.4509620000000000 0.1363380000000000
vn 0.2840541510898965 -0.9584471568702526 0.0263113423437042
v 0.3014010000000000 -0.4597810000000000 0.0669870000000000
vn 0.2681057605832582 -0.9328509273113668 -0.2406417431710380
v 0.2990380000000000 -0.4509620000000000 -0.0023630000000000
vn 0.2213734980190637 -0.8371924993399210 -0.5001024829210307
v 0.2921100000000000 -0.4251060000000000 -0.0669870000000000
vn 0.1673780337048946 -0.7059491826384398 -0.6882008030838106
v 0.2810890000000000 -0.3839750000000000 -0.1224820000000000
vn 0.1390899177572871 -0.5190739943681083 -0.8433363404650650
v 0.2667260000000000 -0.3303710000000000 -0.1650630000000000
vn 0.0778746227620754 -0.2906104555719994 -0.9536671884058397
v 0.2500000000000000 -0.2679490000000000 -0.1918320000000000
vn 0.0000006351224132 -0.9536310329548661 0.3009781603123917
v 0.2320510000000000 -0.4597810000000000 0.1363380000000000
vn 0.0188016388371001 -0.9996464713466777 0.0187997526891943
v 0.2320510000000000 -0.4689110000000000 0.0669870000000000
vn -0.0014705306306847 -0.9659062897464255 -0.2588877690582519
v 0.2320510000000000 -0.4597810000000000 -0.0023630000000000
vn -0.0028517536664641 -0.8659613018797837 -0.5001028805632856
v 0.2320510000000000 -0.4330130000000000 -0.0669870000000000
vn -0.0040486259545110 -0.7069956541412787 -0.7072063020457510
v 0.2320510000000000 -0.3904310000000000 -0.1224820000000000
vn -0.0049775403665327 -0.4998815830970799 -0.8660794576551604
v 0.2320510000000000 -0.3349370000000000 -0.1650630000000000
vn -0.0101558587082813 -0.2840758297796414 -0.9587480281434250
v 0.2320510000000000 -0.2703130000000000 -0.1918320000000000
vn -0.2681041663158089 -0.9328513998146102 0.2406416877185397
v 0.1650630000000000 -0.4509620000000000 0.1363380000000000
vn -0.2585681198062209 -0.9649975957082783 -0.0438425329687747
v 0.1627000000000000 -0.4597810000000000 0.0669870000000000
vn -0.2243744302389406 -0.9321603730343695 -0.2841358020372931
v 0.1650630000000000 -0.4509620000000000 -0.0023630000000000
vn -0.2268811790920183 -0.8357158605281814 -0.5001039202360414
v 0.1719920000000000 -0.4251060000000000 -0.0669870000000000
vn -0.1868990631082634 -0.6818555368011460 -0.7072070185899421
v 0.1830130000000000 -0.3839750000000000 -0.1224820000000000
vn -0.1362797238637422 -0.4640247158983447 -0.8752764705503527
v 0.1973750000000000 -0.3303710000000000 -0.1650630000000000
vn -0.0669749582745686 -0.2499342553626945 -0.9659436955435940
v 0.2141010000000000 -0.2679490000000000 -0.1918320000000000
vn -0.5191961436442273 -0.8145746980233222 0.2586569654294589
v 0.1026410000000000 -0.4251060000000000 0.1363380000000000
vn -0.4999992020565528 -0.8660258644761017 -0.0000011094850280
v 0.0980760000000000 -0.4330130000000000 0.0669870000000000
vn -0.4458427908793232 -0.8569248339938665 -0.2586581425463359
v 0.1026410000000000 -0.4251060000000000 -0.0023630000000000
vn -0.4354491690697601 -0.7485178141944736 -0.5001050919456662
v 0.1160250000000000 -0.4019240000000000 -0.0669870000000000
vn -0.3570038312474456 -0.6102509675592064 -0.7072071981164344
v 0.1373170000000000 -0.3650470000000000 -0.1224820000000000
vn -0.2752072673897716 -0.4443762046140184 -0.8525202336300851
v 0.1650630000000000 -0.3169870000000000 -0.1650630000000000
vn -0.1504334016061658 -0.2605526269757301 -0.9536677200457422
v 0.1973750000000000 -0.2610210000000000 -0.1918320000000000
vn -0.7123353339768442 -0.6524370852253876 0.2586585041917196
v 0.0490380000000000 -0.3839750000000000 0.1363380000000000
vn -0.6880114423728617 -0.7252227045740903 0.0263112891028922
v 0.0425820000000000 -0.3904310000000000 0.0669870000000000
vn -0.6830013691774870 -0.6829966622236538 -0.2588912688620963
v 0.0490380000000000 -0.3839750000000000 -0.0023630000000000
vn -0.5877769213310631 -0.6175773154334242 -0.5226055397837095
v 0.0679660000000000 -0.3650470000000000 -0.0669870000000000
vn -0.5027869198965318 -0.4970534921272037 -0.7072079886038550
v 0.0980760000000000 -0.3349370000000000 -0.1224820000000000
vn -0.3569937003213245 -0.3499454947962009 -0.8660794701427407
v 0.1373170000000000 -0.2956960000000000 -0.1650630000000000
vn -0.2080542676482012 -0.1936906935189779 -0.9587477963247207
v 0.1830130000000000 -0.2500000000000000 -0.1918320000000000
vn -0.7709057117293603 -0.5804574514928739 0.2622470793535109
v 0.0079070000000000 -0.3303710000000000 0.1363380000000000
vn -0.7709059135862476 -0.5804577573003401 -0.2622458090944682
v 0.0079070000000000 -0.3303710000000000 -0.0023630000000000
vn -0.7452393389994266 -0.4332697819112827 -0.5068487187418422
v 0.0310890000000000 -0.3169870000000000 -0.0669870000000000
vn -0.5848497826171214 -0.3376629336882703 -0.7375191353353054
v 0.0679660000000000 -0.2956960000000000 -0.1224820000000000
vn -0.3996269629962655 -0.2307316165470516 -0.8871647037455704
v 0.1160250000000000 -0.2679490000000000 -0.1650630000000000
vn -0.2240817954905332 -0.1293796170902539 -0.9659442342140245
v 0.1719920000000000 -0.2356370000000000 -0.1918320000000000
vn -0.7897110879855789 -0.2071693956015219 -0.5774402471587284
v 0.0079070000000000 -0.2610210000000000 -0.0669870000000000
vn -0.7122173747636830 -0.1908390934749148 -0.6755196899324254
v 0.0490380000000000 -0.2500000000000000 -0.1224820000000000
vn -0.5190780790031729 -0.1390862652949127 -0.8433344287438340
v 0.1026410000000000 -0.2356370000000000 -0.1650630000000000
vn -0.2906081626539381 -0.0778716595049888 -0.9536681290914787
v 0.1650630000000000 -0.2189110000000000 -0.1918320000000000
vn -0.6880554575913728 -0.0161735093697931 -0.7254778458873793
v 0.0425820000000000 -0.2009620000000000 -0.1224820000000000
vn -0.4998835029263016 0.0049818779000796 -0.8660783246304683
v 0.0980760000000000 -0.2009620000000000 -0.1650630000000000
vn -0.2840767261812513 0.0101547936118697 -0.9587477738221052
v 0.1627000000000000 -0.2009620000000000 -0.1918320000000000
vn -0.7897110879855789 0.2071693956015219 -0.5774402471587284
v 0.0079070000000000 -0.1409030000000000 -0.0669870000000000
vn -0.6985850350812979 0.1752184499549991 -0.6937416259356427
v 0.0490380000000000 -0.1519240000000000 -0.1224820000000000
vn -0.4640267710276114 0.1362767848622726 -0.8752758386230541
v 0.1026410000000000 -0.1662870000000000 -0.1650630000000000
vn -0.2499334635538438 0.0669752398130969 -0.9659438808998987
v 0.1650630000000000 -0.1830130000000000 -0.1918320000000000
vn -0.8346647925176682 0.4818716625865033 -0.2667103015025047
v 0.0079070000000000 -0.0715520000000000 -0.0023630000000000
vn -0.7552788899341913 0.4226042282004265 -0.5009585459166231
v 0.0310890000000000 -0.0849370000000000 -0.0669870000000000
vn -0.6102540008045195 0.3570039071862325 -0.7072045423750059
v 0.0679660000000000 -0.1062280000000000 -0.1224820000000000
vn -0.4443751349038388 0.2752078203281106 -0.8525206127182178
v 0.1160250000000000 -0.1339750000000000 -0.1650630000000000
vn -0.2605517470609909 0.1504350390110314 -0.9536677021589937
v 0.1719920000000000 -0.1662870000000000 -0.1918320000000000
vn -0.5705564789604017 0.5748781410356132 -0.5864984460983219
v 0.0679660000000000 -0.0368770000000000 -0.0669870000000000
vn -0.4979611970614628 0.4750920422444807 -0.7254806666046199
v 0.0980760000000000 -0.0669870000000000 -0.1224820000000000
vn -0.3499451400011821 0.3569928125598892 -0.8660799794303831
v 0.1373170000000000 -0.1062280000000000 -0.1650630000000000
vn -0.1936962973654922 0.2080507267242431 -0.9587474325892158
v 0.1830130000000000 -0.1519240000000000 -0.1918320000000000
vn -0.3801861568422738 0.5964800967027243 -0.7068733835581947
v 0.1373170000000000 -0.0368770000000000 -0.1224820000000000
vn -0.2317624980020013 0.4244743233714688 -0.8752757812930768
v 0.1650630000000000 -0.0849370000000000 -0.1650630000000000
vn -0.1293784998875734 0.2240845046885272 -0.9659437553632916
v 0.1973750000000000 -0.1409030000000000 -0.1918320000000000
vn -0.2154369921165281 0.7874869035325337 -0.5774524042659491
v 0.1719920000000000 0.0231820000000000 -0.0669870000000000
vn -0.1975516648487712 0.6926005396564430 -0.6937419060306812
v 0.1830130000000000 -0.0179490000000000 -0.1224820000000000
vn -0.1196262760245441 0.5088224558787003 -0.8525193619373507
v 0.1973750000000000 -0.0715520000000000 -0.1650630000000000
vn -0.0778731591874487 0.2906088166904640 -0.9536678073312188
v 0.2141010000000000 -0.1339750000000000 -0.1918320000000000
# 547 vertices, 0 vertices normals

f 1//1 22//22 20//20
f 1//1 23//23 22//22
f 1//1 2//2 23//23
f 23//23 2//2 24//24
f 24//24 2//2 65//65
f 25//25 65//65 26//26
f 25//25 24//24 65//65
f 2//2 3//3 66//66
f 65//65 66//66 67//67
f 27//27 67//67 68//68
f 77//77 68//68 69//69
f 77//77 69//69 76//76
f 76//76 30//30 77//77
f 76//76 31//31 30//30
f 76//76 198//198 31//31
f 76//76 75//75 199//199
f 76//76 199//199 198//198
f 69//69 70//70 75//75
f 69//69 75//75 76//76
f 69//69 61//61 62//62
f 70//70 62//62 63//63
f 71//71 63//63 64//64
f 72//72 64//64 57//57
f 3//3 4//4 58//58
f 66//66 58//58 59//59
f 67//67 59//59 60//60
f 68//68 60//60 61//61
f 69//69 68//68 61//61
f 4//4 5//5 78//78
f 58//58 78//78 79//79
f 59//59 79//79 80//80
f 60//60 80//80 81//81
f 61//61 81//81 82//82
f 62//62 82//82 83//83
f 63//63 83//83 64//64
f 63//63 62//62 83//83
f 5//5 6//6 85//85
f 78//78 85//85 86//86
f 78//78 86//86 79//79
f 85//85 78//78 5//5
f 6//6 7//7 92//92
f 85//85 92//92 93//93
f 85//85 93//93 86//86
f 92//92 85//85 6//6
f 7//7 8//8 99//99
f 92//92 99//99 100//100
f 92//92 100//100 93//93
f 99//99 92//92 7//7
f 8//8 9//9 106//106
f 99//99 106//106 107//107
f 99//99 107//107 100//100
f 106//106 99//99 8//8
f 9//9 10//10 113//113
f 106//106 113//113 114//114
f 106//106 114//114 107//107
f 113//113 106//106 9//9
f 113//113 10//10 11//11
f 120//120 11//11 127//127
f 128//128 127//127 134//134
f 128//128 134//134 135//135
f 135//135 136//136 129//129
f 135//135 129//129 128//128
f 142//142 135//135 134//134
f 142//142 134//134 141//141
f 141//141 148//148 149//149
f 141//141 149//149 142//142
f 13//13 14//14 141//141
f 134//134 13//13 141//141
f 134//134 12//12 13//13
f 134//134 127//127 12//12
f 12//12 127//127 11//11
f 14//14 15//15 148//148
f 141//141 14//14 148//148
f 15//15 16//16 155//155
f 148//148 155//155 156//156
f 148//148 156//156 149//149
f 155//155 148//148 15//15
f 16//16 17//17 162//162
f 155//155 162//162 163//163
f 155//155 163//163 156//156
f 162//162 155//155 16//16
f 17//17 18//18 169//169
f 162//162 169//169 45//45
f 163//163 45//45 170//170
f 164//164 170//170 171//171
f 164//164 171//171 165//165
f 165//165 158//158 157//157
f 165//165 157//157 164//164
f 166//166 165//165 171//171
f 166//166 171//171 172//172
f 172//172 173//173 167//167
f 172//172 167//167 166//166
f 176//176 172//172 171//171
f 176//176 171//171 175//175
f 179//179 176//176 175//175
f 51//51 175//175 50//50
f 51//51 179//179 175//175
f 51//51 183//183 179//179
f 51//51 182//182 183//183
f 51//51 52//52 182//182
f 182//182 52//52 53//53
f 187//187 53//53 54//54
f 186//186 54//54 55//55
f 56//56 186//186 55//55
f 56//56 39//39 186//186
f 186//186 39//39 38//38
f 37//37 186//186 38//38
f 37//37 36//36 186//186
f 186//186 36//36 187//187
f 54//54 186//186 187//187
f 19//19 41//41 18//18
f 19//19 40//40 41//41
f 19//19 21//21 40//40
f 41//41 42//42 18//18
f 18//18 42//42 169//169
f 169//169 42//42 43//43
f 44//44 169//169 43//43
f 44//44 45//45 169//169
f 45//45 46//46 170//170
f 170//170 46//46 47//47
f 48//48 170//170 47//47
f 48//48 171//171 170//170
f 48//48 49//49 171//171
f 171//171 49//49 175//175
f 175//175 49//49 50//50
f 187//187 36//36 35//35
f 191//191 35//35 34//34
f 33//33 191//191 34//34
f 33//33 192//192 191//191
f 33//33 195//195 192//192
f 33//33 199//199 195//195
f 33//33 198//198 199//199
f 33//33 32//32 198//198
f 198//198 32//32 31//31
f 30//30 29//29 77//77
f 77//77 29//29 28//28
f 27//27 77//77 28//28
f 27//27 68//68 77//77
f 27//27 26//26 65//65
f 67//67 27//27 65//65
f 57//57 178//178 181//181
f 57//57 126//126 133//133
f 57//57 73//73 72//72
f 57//57 201//201 73//73
f 57//57 197//197 201//201
f 57//57 194//194 197//197
f 57//57 190//190 194//194
f 57//57 185//185 190//190
f 57//57 181//181 185//185
f 57//57 174//174 178//178
f 57//57 168//168 174//174
f 57//57 161//161 168//168
f 57//57 154//154 161//161
f 57//57 147//147 154//154
f 57//57 140//140 147//147
f 57//57 133//133 140//140
f 57//57 119//119 126//126
f 57//57 112//112 119//119
f 57//57 105//105 112//112
f 57//57 98//98 105//105
f 57//57 91//91 98//98
f 57//57 84//84 91//91
f 78//78 58//58 4//4
f 79//79 59//59 58//58
f 80//80 60//60 59//59
f 81//81 61//61 60//60
f 82//82 62//62 61//61
f 11//11 120//120 113//113
f 113//113 120//120 121//121
f 113//113 121//121 114//114
f 120//120 127//127 128//128
f 120//120 128//128 121//121
f 121//121 128//128 129//129
f 121//121 129//129 122//122
f 122//122 115//115 114//114
f 122//122 114//114 121//121
f 123//123 122//122 129//129
f 123//123 129//129 130//130
f 130//130 131//131 124//124
f 130//130 124//124 123//123
f 137//137 130//130 129//129
f 137//137 129//129 136//136
f 136//136 143//143 144//144
f 136//136 144//144 137//137
f 135//135 142//142 143//143
f 135//135 143//143 136//136
f 142//142 149//149 150//150
f 142//142 150//150 143//143
f 149//149 156//156 157//157
f 149//149 157//157 150//150
f 156//156 163//163 164//164
f 156//156 164//164 157//157
f 170//170 164//164 163//163
f 66//66 65//65 2//2
f 58//58 66//66 3//3
f 59//59 67//67 66//66
f 60//60 68//68 67//67
f 70//70 71//71 74//74
f 70//70 74//74 75//75
f 63//63 71//71 70//70
f 62//62 70//70 69//69
f 71//71 72//72 73//73
f 71//71 73//73 74//74
f 64//64 72//72 71//71
f 74//74 73//73 201//201
f 74//74 201//201 200//200
f 200//200 199//199 75//75
f 200//200 75//75 74//74
f 196//196 200//200 201//201
f 196//196 201//201 197//197
f 193//193 194//194 190//190
f 193//193 190//190 189//189
f 189//189 188//188 192//192
f 189//189 192//192 193//193
f 184//184 189//189 190//190
f 184//184 190//190 185//185
f 180//180 181//181 178//178
f 180//180 178//178 177//177
f 177//177 176//176 179//179
f 177//177 179//179 180//180
f 173//173 177//177 178//178
f 173//173 178//178 174//174
f 167//167 168//168 161//161
f 167//167 161//161 160//160
f 160//160 159//159 166//166
f 160//160 166//166 167//167
f 153//153 160//160 161//161
f 153//153 161//161 154//154
f 146//146 147//147 140//140
f 146//146 140//140 139//139
f 139//139 138//138 145//145
f 139//139 145//145 146//146
f 132//132 139//139 140//140
f 132//132 140//140 133//133
f 125//125 126//126 119//119
f 125//125 119//119 118//118
f 118//118 117//117 124//124
f 118//118 124//124 125//125
f 111//111 118//118 119//119
f 111//111 119//119 112//112
f 104//104 105//105 98//98
f 104//104 98//98 97//97
f 97//97 96//96 103//103
f 97//97 103//103 104//104
f 90//90 97//97 98//98
f 90//90 98//98 91//91
f 83//83 84//84 64//64
f 83//83 90//90 91//91
f 83//83 91//91 84//84
f 82//82 89//89 90//90
f 82//82 90//90 83//83
f 81//81 88//88 89//89
f 81//81 89//89 82//82
f 80//80 87//87 88//88
f 80//80 88//88 81//81
f 79//79 86//86 87//87
f 79//79 87//87 80//80
f 86//86 93//93 94//94
f 86//86 94//94 87//87
f 93//93 100//100 101//101
f 93//93 101//101 94//94
f 100//100 107//107 108//108
f 100//100 108//108 101//101
f 107//107 114//114 115//115
f 107//107 115//115 108//108
f 108//108 115//115 116//116
f 108//108 116//116 109//109
f 109//109 102//102 101//101
f 109//109 101//101 108//108
f 110//110 109//109 116//116
f 110//110 116//116 117//117
f 111//111 110//110 117//117
f 111//111 117//117 118//118
f 104//104 111//111 112//112
f 104//104 112//112 105//105
f 103//103 110//110 111//111
f 103//103 111//111 104//104
f 102//102 103//103 96//96
f 102//102 96//96 95//95
f 95//95 94//94 101//101
f 95//95 101//101 102//102
f 88//88 95//95 96//96
f 88//88 96//96 89//89
f 87//87 94//94 95//95
f 87//87 95//95 88//88
f 64//64 84//84 57//57
f 90//90 89//89 96//96
f 90//90 96//96 97//97
f 103//103 102//102 109//109
f 103//103 109//109 110//110
f 116//116 115//115 122//122
f 116//116 122//122 123//123
f 117//117 116//116 123//123
f 117//117 123//123 124//124
f 125//125 124//124 131//131
f 125//125 131//131 132//132
f 126//126 125//125 132//132
f 126//126 132//132 133//133
f 131//131 130//130 137//137
f 131//131 137//137 138//138
f 132//132 131//131 138//138
f 132//132 138//138 139//139
f 138//138 137//137 144//144
f 138//138 144//144 145//145
f 145//145 144//144 151//151
f 145//145 151//151 152//152
f 152//152 153//153 146//146
f 152//152 146//146 145//145
f 159//159 152//152 151//151
f 159//159 151//151 158//158
f 166//166 159//159 158//158
f 166//166 158//158 165//165
f 144//144 143//143 150//150
f 144//144 150//150 151//151
f 151//151 150//150 157//157
f 151//151 157//157 158//158
f 147//147 146//146 153//153
f 147//147 153//153 154//154
f 153//153 152//152 159//159
f 153//153 159//159 160//160
f 169//169 162//162 17//17
f 45//45 163//163 162//162
f 168//168 167//167 173//173
f 168//168 173//173 174//174
f 173//173 172//172 176//176
f 173//173 176//176 177//177
f 180//180 179//179 183//183
f 180//180 183//183 184//184
f 181//181 180//180 184//184
f 181//181 184//184 185//185
f 183//183 182//182 187//187
f 183//183 187//187 188//188
f 184//184 183//183 188//188
f 184//184 188//188 189//189
f 188//188 187//187 191//191
f 188//188 191//191 192//192
f 187//187 35//35 191//191
f 182//182 53//53 187//187
f 193//193 192//192 195//195
f 193//193 195//195 196//196
f 194//194 193//193 196//196
f 194//194 196//196 197//197
f 196//196 195//195 199//199
f 196//196 199//199 200//200
f 220//220 218//218 219//219
f 220//220 217//217 218//218
f 220//220 221//221 217//217
f 217//217 221//221 216//216
f 216//216 221//221 247//247
f 215//215 247//247 214//214
f 215//215 216//216 247//247
f 221//221 222//222 248//248
f 247//247 248//248 249//249
f 213//213 249//249 250//250
f 259//259 250//250 251//251
f 259//259 251//251 258//258
f 258//258 210//210 259//259
f 258//258 209//209 210//210
f 258//258 380//380 209//209
f 258//258 257//257 381//381
f 258//258 381//381 380//380
f 251//251 252//252 257//257
f 251//251 257//257 258//258
f 251//251 243//243 244//244
f 252//252 244//244 245//245
f 253//253 245//245 246//246
f 254//254 246//246 239//239
f 248//248 222//222 223//223
f 240//240 223//223 260//260
f 261//261 260//260 267//267
f 261//261 267//267 268//268
f 268//268 269//269 262//262
f 268//268 262//262 261//261
f 275//275 268//268 267//267
f 275//275 267//267 274//274
f 274//274 281//281 282//282
f 274//274 282//282 275//275
f 225//225 226//226 274//274
f 267//267 225//225 274//274
f 267//267 224//224 225//225
f 267//267 260//260 224//224
f 224//224 260//260 223//223
f 226//226 227//227 281//281
f 274//274 226//226 281//281
f 227//227 228//228 288//288
f 281//281 288//288 289//289
f 281//281 289//289 282//282
f 288//288 281//281 227//227
f 228//228 229//229 295//295
f 288//288 295//295 296//296
f 288//288 296//296 289//289
f 295//295 288//288 228//228
f 229//229 230//230 302//302
f 295//295 302//302 303//303
f 295//295 303//303 296//296
f 302//302 295//295 229//229
f 230//230 231//231 309//309
f 302//302 309//309 310//310
f 302//302 310//310 303//303
f 309//309 302//302 230//230
f 309//309 231//231 232//232
f 316//316 232//232 233//233
f 323//323 233//233 330//330
f 331//331 330//330 337//337
f 331//331 337//337 338//338
f 338//338 339//339 332//332
f 338//338 332//332 331//331
f 345//345 338//338 337//337
f 345//345 337//337 344//344
f 345//345 344//344 351//351
f 27//27 351//351 26//26
f 27//27 345//345 351//351
f 27//27 346//346 345//345
f 27//27 352//352 346//346
f 27//27 28//28 352//352
f 352//352 28//28 29//29
f 30//30 352//352 29//29
f 30//30 353//353 352//352
f 30//30 31//31 353//353
f 353//353 31//31 357//357
f 358//358 357//357 33//33
f 361//361 33//33 365//365
f 366//366 365//365 370//370
f 366//366 370//370 371//371
f 371//371 372//372 367//367
f 371//371 367//367 366//366
f 375//375 371//371 370//370
f 375//375 370//370 374//374
f 374//374 377//377 378//378
f 374//374 378//378 375//375
f 374//374 373//373 207//207
f 377//377 207//207 381//381
f 382//382 381//381 257//257
f 382//382 257//257 256//256
f 256//256 255//255 383//383
f 256//256 383//383 382//382
f 253//253 256//256 257//257
f 253//253 257//257 252//252
f 245//245 253//253 252//252
f 233//233 234//234 330//330
f 330//330 234//234 235//235
f 337//337 235//235 236//236
f 344//344 236//236 237//237
f 351//351 237//237 24//24
f 25//25 351//351 24//24
f 25//25 26//26 351//351
f 238//238 23//23 237//237
f 238//238 22//22 23//23
f 238//238 20//20 22//22
f 23//23 24//24 237//237
f 32//32 357//357 31//31
f 32//32 33//33 357//357
f 33//33 34//34 364//364
f 365//365 364//364 369//369
f 365//365 369//369 370//370
f 33//33 364//364 365//365
f 35//35 364//364 34//34
f 35//35 369//369 364//364
f 35//35 36//36 369//369
f 369//369 36//36 368//368
f 204//204 368//368 203//203
f 204//204 369//369 368//368
f 204//204 205//205 369//369
f 369//369 205//205 373//373
f 374//374 370//370 369//369
f 374//374 369//369 373//373
f 36//36 37//37 368//368
f 368//368 37//37 38//38
f 39//39 368//368 38//38
f 39//39 202//202 368//368
f 368//368 202//202 203//203
f 206//206 373//373 205//205
f 206//206 207//207 373//373
f 207//207 208//208 380//380
f 381//381 207//207 380//380
f 209//209 380//380 208//208
f 210//210 211//211 259//259
f 259//259 211//211 212//212
f 213//213 259//259 212//212
f 213//213 250//250 259//259
f 213//213 214//214 247//247
f 249//249 213//213 247//247
f 223//223 240//240 248//248
f 248//248 240//240 241//241
f 249//249 241//241 242//242
f 250//250 242//242 243//243
f 251//251 250//250 243//243
f 239//239 360//360 363//363
f 239//239 308//308 315//315
f 239//239 255//255 254//254
f 239//239 383//383 255//255
f 239//239 379//379 383//383
f 239//239 376//376 379//379
f 239//239 372//372 376//376
f 239//239 367//367 372//372
f 239//239 363//363 367//367
f 239//239 356//356 360//360
f 239//239 350//350 356//356
f 239//239 343//343 350//350
f 239//239 336//336 343//343
f 239//239 329//329 336//336
f 239//239 322//322 329//329
f 239//239 315//315 322//322
f 239//239 301//301 308//308
f 239//239 294//294 301//301
f 239//239 287//287 294//294
f 239//239 280//280 287//287
f 239//239 273//273 280//280
f 239//239 266//266 273//273
f 261//261 241//241 240//240
f 260//260 261//261 240//240
f 262//262 242//242 241//241
f 261//261 262//262 241//241
f 263//263 243//243 242//242
f 262//262 263//263 242//242
f 262//262 269//269 270//270
f 262//262 270//270 263//263
f 269//269 276//276 277//277
f 269//269 277//277 270//270
f 268//268 275//275 276//276
f 268//268 276//276 269//269
f 275//275 282//282 283//283
f 275//275 283//283 276//276
f 282//282 289//289 290//290
f 282//282 290//290 283//283
f 289//289 296//296 297//297
f 289//289 297//297 290//290
f 296//296 303//303 304//304
f 296//296 304//304 297//297
f 303//303 310//310 311//311
f 303//303 311//311 304//304
f 310//310 317//317 318//318
f 310//310 318//318 311//311
f 309//309 316//316 317//317
f 309//309 317//317 310//310
f 232//232 316//316 309//309
f 264//264 244//244 243//243
f 263//263 264//264 243//243
f 263//263 270//270 271//271
f 263//263 271//271 264//264
f 270//270 277//277 278//278
f 270//270 278//278 271//271
f 277//277 284//284 285//285
f 277//277 285//285 278//278
f 276//276 283//283 284//284
f 276//276 284//284 277//277
f 283//283 290//290 291//291
f 283//283 291//291 284//284
f 290//290 297//297 298//298
f 290//290 298//298 291//291
f 297//297 304//304 305//305
f 297//297 305//305 298//298
f 304//304 311//311 312//312
f 304//304 312//312 305//305
f 311//311 318//318 319//319
f 311//311 319//319 312//312
f 318//318 325//325 326//326
f 318//318 326//326 319//319
f 317//317 324//324 325//325
f 317//317 325//325 318//318
f 316//316 323//323 324//324
f 316//316 324//324 317//317
f 233//233 323//323 316//316
f 265//265 245//245 244//244
f 264//264 265//265 244//244
f 264//264 271//271 272//272
f 264//264 272//272 265//265
f 271//271 278//278 279//279
f 271//271 279//279 272//272
f 278//278 285//285 286//286
f 278//278 286//286 279//279
f 285//285 292//292 293//293
f 285//285 293//293 286//286
f 284//284 291//291 292//292
f 284//284 292//292 285//285
f 291//291 298//298 299//299
f 291//291 299//299 292//292
f 298//298 305//305 306//306
f 298//298 306//306 299//299
f 305//305 312//312 313//313
f 305//305 313//313 306//306
f 312//312 319//319 320//320
f 312//312 320//320 313//313
f 319//319 326//326 327//327
f 319//319 327//327 320//320
f 326//326 333//333 334//334
f 326//326 334//334 327//327
f 325//325 332//332 333//333
f 325//325 333//333 326//326
f 324//324 331//331 332//332
f 324//324 332//332 325//325
f 323//323 330//330 331//331
f 323//323 331//331 324//324
f 246//246 245//245 265//265
f 266//266 265//265 272//272
f 266//266 272//272 273//273
f 246//246 266//266 239//239
f 246//246 265//265 266//266
f 207//207 377//377 374//374
f 33//33 361//361 358//358
f 358//358 361//361 362//362
f 358//358 362//362 359//359
f 359//359 355//355 354//354
f 359//359 354//354 358//358
f 360//360 359//359 362//362
f 360//360 362//362 363//363
f 356//356 355//355 359//359
f 356//356 359//359 360//360
f 350//350 349//349 355//355
f 350//350 355//355 356//356
f 343//343 342//342 349//349
f 343//343 349//349 350//350
f 336//336 335//335 342//342
f 336//336 342//342 343//343
f 329//329 328//328 335//335
f 329//329 335//335 336//336
f 322//322 321//321 328//328
f 322//322 328//328 329//329
f 315//315 314//314 321//321
f 315//315 321//321 322//322
f 308//308 307//307 314//314
f 308//308 314//314 315//315
f 301//301 300//300 307//307
f 301//301 307//307 308//308
f 294//294 293//293 300//300
f 294//294 300//300 301//301
f 287//287 286//286 293//293
f 287//287 293//293 294//294
f 280//280 279//279 286//286
f 280//280 286//286 287//287
f 273//273 272//272 279//279
f 273//273 279//279 280//280
f 237//237 351//351 344//344
f 236//236 344//344 337//337
f 235//235 337//337 330//330
f 248//248 247//247 221//221
f 241//241 249//249 248//248
f 242//242 250//250 249//249
f 244//244 252//252 251//251
f 253//253 254//254 255//255
f 253//253 255//255 256//256
f 246//246 254//254 253//253
f 293//293 292//292 299//299
f 293//293 299//299 300//300
f 300//300 299//299 306//306
f 300//300 306//306 307//307
f 307//307 306//306 313//313
f 307//307 313//313 314//314
f 314//314 313//313 320//320
f 314//314 320//320 321//321
f 321//321 320//320 327//327
f 321//321 327//327 328//328
f 328//328 327//327 334//334
f 328//328 334//334 335//335
f 335//335 334//334 341//341
f 335//335 341//341 342//342
f 334//334 333//333 340//340
f 334//334 340//340 341//341
f 333//333 332//332 339//339
f 333//333 339//339 340//340
f 340//340 339//339 346//346
f 340//340 346//346 347//347
f 347//347 348//348 341//341
f 347//347 341//341 340//340
f 353//353 347//347 346//346
f 353//353 346//346 352//352
f 354//354 353//353 357//357
f 354//354 357//357 358//358
f 348//348 354//354 355//355
f 348//348 355//355 349//349
f 341//341 348//348 349//349
f 341//341 349//349 342//342
f 339//339 338//338 345//345
f 339//339 345//345 346//346
f 348//348 347//347 353//353
f 348//348 353//353 354//354
f 362//362 361//361 365//365
f 362//362 365//365 366//366
f 363//363 362//362 366//366
f 363//363 366//366 367//367
f 372//372 371//371 375//375
f 372//372 375//375 376//376
f 376//376 375//375 378//378
f 376//376 378//378 379//379
f 379//379 378//378 382//382
f 379//379 382//382 383//383
f 378//378 377//377 381//381
f 378//378 381//381 382//382
f 384//384 40//40 21//21
f 384//384 41//41 40//40
f 384//384 385//385 41//41
f 41//41 385//385 42//42
f 42//42 385//385 411//411
f 43//43 411//411 44//44
f 43//43 42//42 411//411
f 385//385 386//386 412//412
f 411//411 412//412 413//413
f 45//45 413//413 414//414
f 423//423 414//414 415//415
f 423//423 415//415 422//422
f 422//422 48//48 423//423
f 422//422 49//49 48//48
f 422//422 544//544 49//49
f 422//422 421//421 545//545
f 422//422 545//545 544//544
f 415//415 416//416 421//421
f 415//415 421//421 422//422
f 415//415 407//407 408//408
f 416//416 408//408 409//409
f 417//417 409//409 410//410
f 418//418 410//410 403//403
f 386//386 387//387 404//404
f 412//412 404//404 405//405
f 413//413 405//405 406//406
f 414//414 406//406 407//407
f 415//415 414//414 407//407
f 387//387 388//388 424//424
f 404//404 424//424 425//425
f 405//405 425//425 426//426
f 406//406 426//426 427//427
f 407//407 427//427 408//408
f 407//407 406//406 427//427
f 424//424 388//388 389//389
f 431//431 389//389 438//438
f 439//439 438//438 445//445
f 439//439 445//445 446//446
f 446//446 447//447 440//440
f 446//446 440//440 439//439
f 453//453 446//446 445//445
f 453//453 445//445 452//452
f 452//452 459//459 460//460
f 452//452 460//460 453//453
f 452//452 392//392 393//393
f 459//459 393//393 466//466
f 467//467 466//466 473//473
f 467//467 473//473 474//474
f 474//474 475//475 468//468
f 474//474 468//468 467//467
f 481//481 474//474 473//473
f 481//481 473//473 480//480
f 480//480 487//487 488//488
f 480//480 488//488 481//481
f 395//395 396//396 480//480
f 473//473 395//395 480//480
f 473//473 394//394 395//395
f 473//473 466//466 394//394
f 394//394 466//466 393//393
f 389//389 390//390 438//438
f 438//438 390//390 391//391
f 445//445 391//391 452//452
f 445//445 438//438 391//391
f 391//391 392//392 452//452
f 396//396 397//397 487//487
f 480//480 396//396 487//487
f 487//487 397//397 398//398
f 494//494 398//398 399//399
f 501//501 399//399 400//400
f 508//508 400//400 401//401
f 515//515 401//401 216//216
f 215//215 515//515 216//216
f 215//215 214//214 515//515
f 515//515 214//214 213//213
f 508//508 213//213 509//509
f 502//502 509//509 510//510
f 502//502 510//510 503//503
f 503//503 496//496 495//495
f 503//503 495//495 502//502
f 504//504 503//503 510//510
f 504//504 510//510 511//511
f 511//511 512//512 505//505
f 511//511 505//505 504//504
f 517//517 511//511 510//510
f 517//517 510//510 516//516
f 516//516 210//210 517//517
f 516//516 211//211 210//210
f 516//516 212//212 211//211
f 516//516 213//213 212//212
f 516//516 510//510 213//213
f 213//213 510//510 509//509
f 402//402 217//217 401//401
f 402//402 218//218 217//217
f 402//402 219//219 218//218
f 217//217 216//216 401//401
f 517//517 210//210 209//209
f 521//521 209//209 208//208
f 207//207 521//521 208//208
f 207//207 522//522 521//521
f 207//207 525//525 522//522
f 207//207 529//529 525//525
f 207//207 528//528 529//529
f 207//207 206//206 528//528
f 528//528 206//206 205//205
f 533//533 205//205 204//204
f 532//532 204//204 203//203
f 202//202 532//532 203//203
f 202//202 39//39 532//532
f 532//532 39//39 56//56
f 55//55 532//532 56//56
f 55//55 54//54 532//532
f 532//532 54//54 533//533
f 204//204 532//532 533//533
f 533//533 54//54 53//53
f 537//537 53//53 52//52
f 51//51 537//537 52//52
f 51//51 541//541 537//537
f 51//51 545//545 541//541
f 51//51 544//544 545//545
f 51//51 50//50 544//544
f 544//544 50//50 49//49
f 48//48 47//47 423//423
f 423//423 47//47 46//46
f 45//45 423//423 46//46
f 45//45 414//414 423//423
f 45//45 44//44 411//411
f 413//413 45//45 411//411
f 403//403 524//524 527//527
f 403//403 472//472 479//479
f 403//403 419//419 418//418
f 403//403 547//547 419//419
f 403//403 543//543 547//547
f 403//403 540//540 543//543
f 403//403 536//536 540//540
f 403//403 531//531 536//536
f 403//403 527//527 531//531
f 403//403 520//520 524//524
f 403//403 514//514 520//520
f 403//403 507//507 514//514
f 403//403 500//500 507//507
f 403//403 493//493 500//500
f 403//403 486//486 493//493
f 403//403 479//479 486//486
f 403//403 465//465 472//472
f 403//403 458//458 465//465
f 403//403 451//451 458//458
f 403//403 444//444 451//451
f 403//403 437//437 444//444
f 403//403 430//430 437//437
f 424//424 404//404 387//387
f 425//425 405//405 404//404
f 426//426 406//406 405//405
f 429//429 409//409 408//408
f 428//428 408//408 427//427
f 434//434 427//427 426//426
f 434//434 426//426 433//433
f 433//433 440//440 441//441
f 433//433 441//441 434//434
f 432//432 433//433 426//426
f 432//432 426//426 425//425
f 389//389 431//431 424//424
f 424//424 431//431 432//432
f 424//424 432//432 425//425
f 431//431 438//438 439//439
f 431//431 439//439 432//432
f 432//432 439//439 440//440
f 432//432 440//440 433//433
f 410//410 409//409 429//429
f 430//430 429//429 436//436
f 430//430 436//436 437//437
f 410//410 430//430 403//403
f 410//410 429//429 430//430
f 401//401 515//515 508//508
f 508//508 515//515 213//213
f 400//400 508//508 501//501
f 501//501 508//508 509//509
f 501//501 509//509 502//502
f 494//494 495//495 488//488
f 494//494 488//488 487//487
f 398//398 494//494 487//487
f 399//399 501//501 494//494
f 494//494 501//501 502//502
f 494//494 502//502 495//495
f 393//393 459//459 452//452
f 412//412 411//411 385//385
f 404//404 412//412 386//386
f 405//405 413//413 412//412
f 406//406 414//414 413//413
f 416//416 417//417 420//420
f 416//416 420//420 421//421
f 409//409 417//417 416//416
f 408//408 416//416 415//415
f 417//417 418//418 419//419
f 417//417 419//419 420//420
f 410//410 418//418 417//417
f 420//420 419//419 547//547
f 420//420 547//547 546//546
f 546//546 545//545 421//421
f 546//546 421//421 420//420
f 542//542 546//546 547//547
f 542//542 547//547 543//543
f 539//539 540//540 536//536
f 539//539 536//536 535//535
f 535//535 534//534 538//538
f 535//535 538//538 539//539
f 530//530 535//535 536//536
f 530//530 536//536 531//531
f 526//526 527//527 524//524
f 526//526 524//524 523//523
f 523//523 522//522 525//525
f 523//523 525//525 526//526
f 519//519 523//523 524//524
f 519//519 524//524 520//520
f 513//513 514//514 507//507
f 513//513 507//507 506//506
f 506//506 505//505 512//512
f 506//506 512//512 513//513
f 499//499 506//506 507//507
f 499//499 507//507 500//500
f 492//492 493//493 486//486
f 492//492 486//486 485//485
f 485//485 484//484 491//491
f 485//485 491//491 492//492
f 478//478 485//485 486//486
f 478//478 486//486 479//479
f 471//471 472//472 465//465
f 471//471 465//465 464//464
f 464//464 463//463 470//470
f 464//464 470//470 471//471
f 457//457 464//464 465//465
f 457//457 465//465 458//458
f 450//450 451//451 444//444
f 450//450 444//444 443//443
f 443//443 442//442 449//449
f 443//443 449//449 450//450
f 436//436 443//443 444//444
f 436//436 444//444 437//437
f 435//435 436//436 429//429
f 435//435 429//429 428//428
f 434//434 435//435 428//428
f 434//434 428//428 427//427
f 441//441 442//442 435//435
f 441//441 435//435 434//434
f 448//448 441//441 440//440
f 448//448 440//440 447//447
f 447//447 454//454 455//455
f 447//447 455//455 448//448
f 446//446 453//453 454//454
f 446//446 454//454 447//447
f 453//453 460//460 461//461
f 453//453 461//461 454//454
f 460//460 467//467 468//468
f 460//460 468//468 461//461
f 459//459 466//466 467//467
f 459//459 467//467 460//460
f 408//408 428//428 429//429
f 436//436 435//435 442//442
f 436//436 442//442 443//443
f 442//442 441//441 448//448
f 442//442 448//448 449//449
f 449//449 448//448 455//455
f 449//449 455//455 456//456
f 456//456 457//457 450//450
f 456//456 450//450 449//449
f 463//463 456//456 455//455
f 463//463 455//455 462//462
f 462//462 469//469 470//470
f 462//462 470//470 463//463
f 461//461 462//462 455//455
f 461//461 455//455 454//454
f 468//468 469//469 462//462
f 468//468 462//462 461//461
f 475//475 476//476 469//469
f 475//475 469//469 468//468
f 482//482 475//475 474//474
f 482//482 474//474 481//481
f 489//489 488//488 495//495
f 489//489 495//495 496//496
f 496//496 497//497 490//490
f 496//496 490//490 489//489
f 503//503 504//504 497//497
f 503//503 497//497 496//496
f 504//504 505//505 498//498
f 504//504 498//498 497//497
f 505//505 506//506 499//499
f 505//505 499//499 498//498
f 498//498 499//499 492//492
f 498//498 492//492 491//491
f 491//491 490//490 497//497
f 491//491 497//497 498//498
f 484//484 483//483 490//490
f 484//484 490//490 491//491
f 477//477 484//484 485//485
f 477//477 485//485 478//478
f 478//478 471//471 470//470
f 478//478 470//470 477//477
f 479//479 472//472 471//471
f 479//479 471//471 478//478
f 451//451 450//450 457//457
f 451//451 457//457 458//458
f 457//457 456//456 463//463
f 457//457 463//463 464//464
f 470//470 469//469 476//476
f 470//470 476//476 477//477
f 477//477 476//476 483//483
f 477//477 483//483 484//484
f 476//476 475//475 482//482
f 476//476 482//482 483//483
f 483//483 482//482 489//489
f 483//483 489//489 490//490
f 482//482 481//481 488//488
f 482//482 488//488 489//489
f 493//493 492//492 499//499
f 493//493 499//499 500//500
f 512//512 511//511 517//517
f 512//512 517//517 518//518
f 518//518 519//519 513//513
f 518//518 513//513 512//512
f 522//522 518//518 517//517
f 522//522 517//517 521//521
f 523//523 519//519 518//518
f 523//523 518//518 522//522
f 514//514 513//513 519//519
f 514//514 519//519 520//520
f 517//517 209//209 521//521
f 526//526 525//525 529//529
f 526//526 529//529 530//530
f 527//527 526//526 530//530
f 527//527 530//530 531//531
f 529//529 528//528 533//533
f 529//529 533//533 534//534
f 530//530 529//529 534//534
f 530//530 534//534 535//535
f 534//534 533//533 537//537
f 534//534 537//537 538//538
f 533//533 53//53 537//537
f 528//528 205//205 533//533
f 541//541 538//538 537//537
f 541//541 542//542 539//539
f 541//541 539//539 538//538
f 545//545 546//546 542//542
f 545//545 542//542 541//541
f 540//540 539//539 542//542
f 540//540 542//542 543//543
# 1032 faces, 0 coords texture

# End of File
