####
#
# OBJ File Generated by Meshlab
#
####
# Object cathead.obj
#
# Vertices: 131
# Faces: 248
#
####
vn -0.694968 0.436339 6.128476
v -0.206972 0.074074 0.544664
vn -2.750515 0.120120 5.477839
v -0.398695 -0.074079 0.501089
vn -0.401107 1.795843 5.645008
v -0.211327 -0.187367 0.588234
vn -4.132220 -1.474189 4.182629
v -0.511983 -0.235298 0.400872
vn -3.656852 0.078478 4.852126
v -0.568630 0.034853 0.405227
vn -2.292288 0.393150 5.645501
v -0.359480 0.178646 0.505450
vn -4.094404 1.566662 4.027092
v -0.525054 0.313721 0.387801
vn 0.254118 -0.755560 5.958867
v -0.189545 0.300650 0.544664
vn 2.195774 0.582983 5.633024
v 0.124182 0.074074 0.509805
vn -3.750145 -0.248153 1.210502
v -0.455336 -0.339870 0.544664
vn -3.474545 0.022211 1.621452
v -0.411766 -0.427021 0.671024
vn 0.401575 2.553702 4.795259
v -0.237476 -0.413949 0.745097
vn 0.465904 0.221170 4.621190
v -0.250547 -0.535954 0.797389
vn -3.236200 -1.098268 2.108582
v -0.346403 -0.562097 0.758169
vn 3.665988 -0.636482 4.702446
v 0.015249 -0.331160 0.531593
vn 4.088652 0.026414 3.986585
v -0.106755 -0.496734 0.692812
vn -0.542209 -2.199880 1.735811
v -0.254903 -0.692812 0.749458
vn 4.736361 -3.070909 1.329327
v -0.063180 -0.601311 0.553380
vn 3.550548 -3.341534 2.212394
v -0.145970 -0.666669 0.666669
vn -1.551283 -3.568534 0.430950
v -0.250547 -0.727671 0.583879
vn 1.201880 -5.155984 -0.968406
v -0.198256 -0.714599 0.422660
vn 4.119988 -4.018603 1.904559
v 0.028321 -0.514166 0.383445
vn 1.224164 -5.954252 -0.153792
v -0.124182 -0.623099 0.196078
vn -3.425007 -3.448792 -0.544128
v -0.285401 -0.692812 0.413944
vn -2.935194 -4.968191 0.815159
v -0.333331 -0.596956 0.226582
vn -4.385084 -2.915454 0.944329
v -0.333331 -0.418305 0.413944
vn 3.939852 -3.176171 3.506175
v 0.233115 -0.366019 0.313727
vn 3.478379 -1.243362 4.715386
v 0.215688 -0.156864 0.457519
vn -1.183202 -5.962437 -0.224034
v -0.342048 -0.623099 -0.091506
vn -4.010037 -3.565530 1.518394
v -0.708061 -0.431376 0.069718
vn -3.575414 -4.777902 0.091829
v -0.647058 -0.501095 -0.091506
vn -4.474928 -2.000435 3.164243
v -0.716777 -0.318088 0.169935
vn -4.912758 -1.103884 3.621497
v -0.699344 -0.143792 0.235292
vn -4.852469 -0.284179 3.172531
v -0.747275 0.008711 0.235292
vn -5.139940 0.843113 3.229691
v -0.747275 0.165574 0.191723
vn -5.014548 1.610010 2.887625
v -0.764708 0.291939 0.126360
vn -4.227280 3.402106 1.567247
v -0.747275 0.461874 0.013071
vn -4.665046 2.783443 0.519483
v -0.337692 0.535948 0.366013
vn -3.181760 4.870505 1.701032
v -0.472768 0.644881 0.065357
vn -1.188706 5.426855 -0.156435
v -0.272329 0.753814 0.082790
vn -2.018901 3.278130 -0.589898
v -0.294117 0.797383 0.278868
vn -1.722400 3.228946 0.129507
v -0.307188 0.801744 0.435731
vn -1.514173 3.040292 0.719723
v -0.324621 0.779957 0.583879
vn -0.862514 1.254561 1.734721
v -0.355119 0.714594 0.710238
vn -2.363494 0.122836 2.032772
v -0.407405 0.596950 0.692812
vn -3.314046 -0.177299 1.527719
v -0.442264 0.505444 0.610022
vn -3.424865 -0.238515 1.474687
v -0.477123 0.413944 0.514160
vn 0.739662 -2.093762 5.117115
v -0.285401 0.509805 0.666669
vn 3.619144 0.575468 4.375501
v -0.185184 0.605661 0.631809
vn 3.527634 1.653624 4.691469
v -0.032682 0.518516 0.479301
vn 3.437560 3.694961 2.569993
v -0.198256 0.723310 0.575162
vn 2.320163 5.680069 0.284599
v -0.124182 0.745097 0.278868
vn 3.455328 2.890764 3.832765
v 0.189545 0.479301 0.357297
vn 3.570852 4.409188 2.395393
v -0.041392 0.675379 0.352942
vn -5.921806 -0.371991 1.219445
v -0.843136 -0.039220 -0.052286
vn -5.551665 -2.030693 1.412040
v -0.764708 -0.331160 0.034859
vn -5.447518 -2.235218 1.312515
v -0.816994 -0.152508 -0.178651
vn -5.548817 -0.227548 2.001138
v -0.873640 -0.052292 -0.187362
vn -5.668188 0.960170 1.034607
v -0.816994 0.108933 -0.204794
vn -5.904771 0.718015 1.602915
v -0.816994 0.257080 -0.004355
vn -5.575387 2.485073 0.808869
v -0.795206 0.387795 -0.065357
vn -4.864007 3.705024 -0.409883
v -0.764708 0.440087 -0.152503
vn -3.247681 4.520042 -1.752125
v -0.642703 0.535948 -0.370368
vn -2.670920 5.418883 -0.675775
v -0.516338 0.636165 -0.213510
vn -5.395660 0.457756 0.002262
v -0.856208 0.265791 -0.148147
vn -6.113067 0.799422 0.395877
v -0.816994 0.261435 -0.291939
vn -5.480894 2.842085 0.539610
v -0.847497 0.239648 -0.418299
vn -4.477002 3.796630 -1.753362
v -0.825710 0.265791 -0.479301
vn -5.119001 -0.312433 3.436088
v -0.912855 -0.069718 -0.270152
vn -4.996480 1.642418 2.732030
v -0.947714 0.013071 -0.326799
vn -5.250251 2.877623 1.554083
v -0.938998 0.074074 -0.392156
vn -4.679067 -2.249774 -0.285695
v -0.799567 -0.344231 -0.108933
vn -2.836324 -4.618354 -1.335562
v -0.620916 -0.509805 -0.331154
vn -5.266143 -3.017009 0.017340
v -0.764708 -0.287584 -0.244009
vn -4.481370 -4.125072 1.270998
v -0.799567 -0.291939 -0.352942
vn -4.495484 -3.686381 2.107848
v -0.908500 -0.174296 -0.339870
vn -5.086419 -0.533174 0.728537
v -1.000000 -0.069718 -0.409588
vn -5.318198 -2.518694 -0.102056
v -0.965141 -0.148153 -0.461874
vn -5.788652 -0.536533 -2.181410
v -0.956430 -0.061002 -0.549019
vn -5.588665 1.412812 -0.818232
v -0.978212 0.021782 -0.483662
vn -2.734903 -4.868621 -2.045585
v -0.729848 -0.357302 -0.501089
vn -4.028491 -3.268130 -1.096731
v -0.921571 -0.230937 -0.544664
vn -2.100344 -3.361003 -4.084324
v -0.821354 -0.222227 -0.662308
vn -4.604218 -1.872360 -3.196771
v -0.908500 -0.165580 -0.623093
vn -1.401886 -5.560810 -2.263661
v -0.342048 -0.557736 -0.383445
vn -1.150701 -2.290301 -2.343307
v -0.381262 -0.300656 -0.727671
vn -2.701357 -5.389535 -0.487497
v -0.167757 -0.557736 -0.501089
vn -1.345629 -3.506438 -4.772027
v -0.599128 -0.252725 -0.692812
vn -0.634061 -0.304003 -3.332517
v -0.420482 -0.069718 -0.797389
vn -2.004725 -2.188990 0.733307
v -0.145970 -0.610027 -0.631809
vn -5.287728 2.497059 -0.890299
v -0.947714 0.091500 -0.522877
vn -4.943152 3.516232 -0.763679
v -0.891067 0.178646 -0.505450
vn -2.856220 -0.437229 -4.525445
v -0.869279 -0.069718 -0.705883
vn -4.665714 0.987005 -2.853809
v -0.934643 0.034853 -0.627454
vn -2.989984 2.931979 -3.619395
v -0.847497 0.156858 -0.649236
vn -2.022213 2.652488 -5.078328
v -0.620916 0.235292 -0.701528
vn -1.278639 1.301997 -5.961889
v -0.559913 0.143786 -0.745097
vn -0.893162 1.901286 -3.283283
v -0.315905 0.278862 -0.753814
vn -0.735476 2.715575 -1.359818
v -0.019610 0.440087 -0.784312
vn -1.082819 4.842152 -3.698016
v -0.211327 0.466230 -0.636165
vn -0.950481 4.498050 -3.865364
v -0.381262 0.505444 -0.579523
vn -2.806163 3.409245 -3.816100
v -0.647058 0.374724 -0.601305
vn -0.721629 5.493492 -2.257875
v -0.355119 0.653591 -0.344225
vn 0.933017 5.822251 -1.595009
v -0.010894 0.644881 -0.313727
vn 2.970352 5.053689 0.588828
v 0.163396 0.640520 0.104578
vn 4.054195 0.276024 4.079027
v 0.433554 0.069713 0.322443
vn 4.148759 -2.914412 3.188900
v 0.516344 -0.318088 0.043575
vn 2.513841 -5.189355 2.290311
v 0.359480 -0.492378 -0.065357
vn 2.088892 -5.827873 1.030848
v 0.185184 -0.535954 0.030504
vn -0.426212 -5.974941 1.274309
v 0.063180 -0.618738 -0.313727
vn 0.681525 -5.050622 3.544260
v 0.328976 -0.618738 -0.296295
vn -2.031751 -4.953156 3.084302
v 0.102394 -0.684101 -0.431370
vn 4.101267 -3.028969 3.050070
v 0.612199 -0.396517 -0.165580
vn 0.409112 2.914150 -0.102578
v 0.307188 0.522877 -0.779957
vn 0.796723 5.911401 -1.066933
v 0.163396 0.549019 -0.562091
vn 4.302304 3.818839 1.422752
v 0.468413 0.400872 0.008716
vn 3.623429 4.277164 1.452599
v 0.599128 0.374724 -0.261435
vn 3.569827 4.302179 1.425222
v 0.721132 0.357297 -0.505450
vn 2.043137 1.814730 0.779107
v 0.843136 0.326793 -0.718955
vn -0.916154 -1.733539 1.387712
v 0.124182 -0.801744 -0.562091
vn 0.162860 -2.457241 2.079779
v 0.359480 -0.749458 -0.448803
vn 4.880137 0.305150 3.126311
v 0.559913 0.047931 0.161219
vn 5.275043 0.497612 2.712935
v 0.673201 0.030498 -0.056647
vn 5.193232 0.795178 2.763130
v 0.808283 0.017427 -0.309366
vn 5.578395 1.214724 2.240141
v 0.891067 -0.008716 -0.483662
vn 2.140685 0.334370 0.787682
v 1.000000 -0.069718 -0.753814
vn 4.241646 3.352265 2.643742
v 0.355119 0.440087 0.191723
vn 1.835844 -1.660951 1.920575
v 0.694989 -0.588240 -0.440087
vn 4.869022 -0.920337 3.032497
v 0.886712 -0.230937 -0.457519
vn 2.486278 -0.652980 1.411050
v 0.912855 -0.366019 -0.575162
vn -4.795189 -2.267902 2.962596
v -0.921571 -0.126365 -0.300656
# 131 vertices, 0 vertices normals

f 1//1 2//2 3//3
f 4//4 2//2 5//5
f 2//2 1//1 5//5
f 1//1 6//6 5//5
f 6//6 7//7 5//5
f 7//7 6//6 8//8
f 6//6 1//1 8//8
f 9//9 1//1 3//3
f 3//3 4//4 10//10
f 10//10 11//11 3//3
f 11//11 12//12 3//3
f 11//11 13//13 12//12
f 13//13 11//11 14//14
f 12//12 15//15 3//3
f 15//15 12//12 16//16
f 12//12 13//13 16//16
f 13//13 17//17 16//16
f 17//17 13//13 14//14
f 16//16 18//18 15//15
f 18//18 16//16 19//19
f 16//16 17//17 19//19
f 17//17 20//20 19//19
f 20//20 21//21 19//19
f 21//21 18//18 19//19
f 18//18 21//21 22//22
f 21//21 23//23 22//22
f 21//21 24//24 23//23
f 24//24 21//21 20//20
f 24//24 25//25 23//23
f 25//25 24//24 26//26
f 24//24 20//20 26//26
f 20//20 17//17 26//26
f 17//17 14//14 26//26
f 14//14 11//11 26//26
f 11//11 10//10 26//26
f 10//10 4//4 26//26
f 3//3 15//15 9//9
f 15//15 27//27 28//28
f 23//23 25//25 29//29
f 25//25 30//30 31//31
f 30//30 25//25 32//32
f 25//25 26//26 32//32
f 4//4 33//33 32//32
f 18//18 22//22 15//15
f 22//22 27//27 15//15
f 5//5 34//34 33//33
f 34//34 5//5 35//35
f 5//5 7//7 35//35
f 7//7 36//36 35//35
f 36//36 7//7 37//37
f 7//7 38//38 37//37
f 38//38 39//39 37//37
f 39//39 38//38 40//40
f 38//38 41//41 40//40
f 41//41 38//38 42//42
f 38//38 43//43 42//42
f 43//43 38//38 44//44
f 38//38 45//45 44//44
f 45//45 38//38 46//46
f 46//46 38//38 47//47
f 38//38 7//7 47//47
f 7//7 8//8 47//47
f 8//8 46//46 47//47
f 46//46 8//8 48//48
f 8//8 49//49 48//48
f 49//49 44//44 48//48
f 44//44 45//45 48//48
f 49//49 8//8 50//50
f 49//49 51//51 44//44
f 51//51 43//43 44//44
f 43//43 51//51 42//42
f 51//51 52//52 42//42
f 52//52 41//41 42//42
f 41//41 52//52 40//40
f 53//53 54//54 50//50
f 49//49 54//54 51//51
f 54//54 49//49 50//50
f 51//51 54//54 52//52
f 50//50 9//9 53//53
f 9//9 50//50 8//8
f 55//55 33//33 34//34
f 33//33 55//55 32//32
f 55//55 56//56 32//32
f 56//56 55//55 57//57
f 55//55 58//58 57//57
f 58//58 55//55 59//59
f 55//55 60//60 59//59
f 60//60 55//55 35//35
f 55//55 34//34 35//35
f 36//36 60//60 35//35
f 60//60 36//36 37//37
f 37//37 61//61 60//60
f 61//61 37//37 62//62
f 37//37 63//63 62//62
f 63//63 37//37 64//64
f 37//37 39//39 64//64
f 39//39 40//40 64//64
f 62//62 65//65 61//61
f 65//65 62//62 66//66
f 62//62 67//67 66//66
f 67//67 62//62 68//68
f 62//62 63//63 68//68
f 65//65 59//59 60//60
f 59//59 69//69 58//58
f 69//69 59//59 70//70
f 59//59 71//71 70//70
f 71//71 59//59 67//67
f 59//59 66//66 67//67
f 59//59 65//65 66//66
f 56//56 30//30 32//32
f 30//30 56//56 31//31
f 56//56 72//72 31//31
f 72//72 56//56 57//57
f 60//60 61//61 65//65
f 46//46 48//48 45//45
f 31//31 29//29 25//25
f 29//29 31//31 73//73
f 31//31 74//74 73//73
f 74//74 31//31 72//72
f 57//57 74//74 72//72
f 74//74 57//57 75//75
f 57//57 76//76 75//75
f 57//57 58//58 69//69
f 77//77 78//78 76//76
f 78//78 77//77 79//79
f 77//77 80//80 79//79
f 80//80 77//77 71//71
f 77//77 70//70 71//71
f 70//70 77//77 69//69
f 75//75 73//73 74//74
f 73//73 75//75 81//81
f 75//75 82//82 81//81
f 82//82 75//75 76//76
f 82//82 83//83 81//81
f 83//83 82//82 84//84
f 82//82 79//79 84//84
f 79//79 82//82 78//78
f 82//82 76//76 78//78
f 73//73 85//85 29//29
f 85//85 73//73 86//86
f 73//73 81//81 86//86
f 85//85 87//87 29//29
f 87//87 85//85 86//86
f 88//88 86//86 81//81
f 86//86 88//88 89//89
f 88//88 83//83 89//89
f 83//83 88//88 81//81
f 86//86 90//90 87//87
f 71//71 91//91 80//80
f 91//91 71//71 92//92
f 71//71 67//67 92//92
f 67//67 68//68 92//92
f 79//79 93//93 84//84
f 93//93 79//79 94//94
f 79//79 91//91 94//94
f 91//91 79//79 80//80
f 92//92 95//95 91//91
f 92//92 68//68 95//95
f 91//91 95//95 94//94
f 95//95 93//93 94//94
f 93//93 95//95 96//96
f 95//95 68//68 96//96
f 93//93 83//83 84//84
f 83//83 93//93 89//89
f 93//93 97//97 89//89
f 97//97 93//93 96//96
f 89//89 97//97 98//98
f 98//98 100//100 99//99
f 100//100 98//98 101//101
f 98//98 96//96 101//101
f 98//98 97//97 96//96
f 102//102 68//68 63//63
f 68//68 102//102 96//96
f 102//102 101//101 96//96
f 101//101 102//102 63//63
f 64//64 103//103 63//63
f 103//103 64//64 40//40
f 103//103 101//101 63//63
f 101//101 104//104 100//100
f 104//104 101//101 103//103
f 40//40 104//104 103//103
f 40//40 52//52 104//104
f 52//52 105//105 104//104
f 9//9 106//106 53//53
f 106//106 9//9 28//28
f 106//106 27//27 107//107
f 27//27 106//106 28//28
f 27//27 108//108 107//107
f 108//108 27//27 22//22
f 22//22 109//109 108//108
f 109//109 22//22 23//23
f 109//109 110//110 108//108
f 110//110 109//109 23//23
f 23//23 29//29 110//110
f 110//110 111//111 108//108
f 111//111 110//110 112//112
f 110//110 90//90 112//112
f 90//90 110//110 87//87
f 110//110 29//29 87//87
f 108//108 111//111 113//113
f 108//108 113//113 107//107
f 114//114 99//99 115//115
f 99//99 104//104 115//115
f 104//104 105//105 115//115
f 116//116 117//117 115//115
f 117//117 118//118 115//115
f 115//115 118//118 114//114
f 118//118 119//119 114//114
f 120//120 112//112 90//90
f 112//112 120//120 111//111
f 120//120 121//121 111//111
f 99//99 100//100 104//104
f 2//2 4//4 3//3
f 5//5 33//33 4//4
f 116//116 122//122 123//123
f 123//123 117//117 116//116
f 117//117 123//123 124//124
f 117//117 124//124 118//118
f 124//124 125//125 118//118
f 125//125 119//119 118//118
f 119//119 125//125 126//126
f 122//122 106//106 107//107
f 105//105 116//116 115//115
f 54//54 53//53 105//105
f 52//52 54//54 105//105
f 105//105 127//127 116//116
f 122//122 116//116 127//127
f 106//106 122//122 127//127
f 53//53 127//127 105//105
f 121//121 128//128 113//113
f 121//121 113//113 111//111
f 113//113 128//128 124//124
f 128//128 129//129 124//124
f 129//129 128//128 130//130
f 107//107 113//113 122//122
f 113//113 123//123 122//122
f 123//123 113//113 124//124
f 1//1 9//9 8//8
f 9//9 15//15 28//28
f 4//4 32//32 26//26
f 106//106 127//127 53//53
f 57//57 131//131 76//76
f 131//131 77//77 76//76
f 69//69 131//131 57//57
f 131//131 69//69 77//77
f 129//129 125//125 124//124
f 125//125 130//130 126//126
f 130//130 125//125 129//129
# 248 faces, 0 coords texture

# End of File
