####
#
# OBJ File Generated by Meshlab
#
####
# Object cathead.obj
#
# Vertices: 131
# Faces: 248
#
####
vn 0.0179184749345476 0.9979156876222594 -0.0619936178442056
v -0.0234570000000000 0.3536860000000000 -0.0379460000000000
vn 0.1060087472190503 0.9733042047028865 0.2035708000198686
v 0.0717470000000000 0.3483520000000000 0.0557410000000000
vn -0.2510024325072244 0.9679843104715133 0.0020380275869131
v 0.1180110000000000 0.3635820000000000 -0.0625890000000000
vn 0.3554088092781375 0.8136017581537570 0.4601486253555607
v 0.1651460000000000 0.3023430000000000 0.1154790000000000
vn 0.1352552685666100 0.9269061759422603 0.3500727828967426
v 0.0259740000000000 0.3260370000000000 0.1658750000000000
vn 0.0452130020480332 0.9897847767862666 0.1352105028759414
v -0.0667670000000000 0.3585600000000000 0.0549830000000000
vn -0.1003063572670983 0.8485565911463396 0.5195097172468568
v -0.1275660000000000 0.3256000000000000 0.1679480000000000
vn 0.2981246025274855 0.9156576022295260 -0.2696161657747992
v -0.1461560000000000 0.3631160000000000 -0.0288820000000000
vn -0.0909954522746723 0.8374293990036431 -0.5389172750522340
v -0.0544140000000000 0.2919230000000000 -0.2050360000000000
vn 0.2326928005671353 0.5222264061997212 0.8204472202597478
v 0.2202630000000000 0.3648910000000000 0.0578900000000000
vn -0.0001933633874367 0.7969755595859134 0.6040115230964728
v 0.2667230000000000 0.4209180000000000 0.0108850000000000
vn -0.4341248580211344 0.8425146475042984 -0.3189117062587037
v 0.2462240000000000 0.4375460000000000 -0.0887540000000000
vn -0.0640078665835500 0.9697968858711289 -0.2353656584340279
v 0.3142020000000000 0.4603710000000000 -0.0989310000000000
vn 0.5208115135606326 0.5855909404032045 0.6211590922303026
v 0.3356530000000000 0.4510420000000000 -0.0458560000000000
vn 0.0187470911043366 0.5788100204495288 -0.8152468992902345
v 0.1727130000000000 0.2966940000000000 -0.1838840000000000
vn -0.0194174765391580 0.5020916096082565 -0.8645964244465978
v 0.2771000000000000 0.3886840000000000 -0.1560170000000000
vn 0.7637884953724070 0.6274178162780947 -0.1515718250651548
v 0.3970060000000000 0.4276990000000000 -0.1025990000000000
vn 0.3474734962754000 0.0106948393014297 -0.9376288123764468
v 0.3248720000000000 0.3044440000000000 -0.1677690000000000
vn 0.5847899748429655 0.0978834376297034 -0.8052574234125109
v 0.3707000000000000 0.3713370000000000 -0.1456390000000000
vn 0.9726208543329748 0.0947319757359086 0.2122133984690067
v 0.4102620000000000 0.3385050000000000 -0.0848150000000000
vn 0.8421809062668106 -0.2831995802892949 -0.4588347402317970
v 0.3936970000000000 0.2477810000000000 -0.0886840000000000
vn 0.6217833675397300 0.0385271634542814 -0.7822410763486665
v 0.2649040000000000 0.2078330000000000 -0.1848690000000000
vn 0.9445723913057035 -0.2041524362254087 -0.2571084992104607
v 0.3312690000000000 0.1239820000000000 -0.0885800000000000
vn 0.8470093305275812 -0.0787865281495331 0.5257070258055921
v 0.3896580000000000 0.2557810000000000 -0.0405060000000000
vn 0.9136317959182362 0.2554283039617622 0.3162804499529432
v 0.3371010000000000 0.1687930000000000 0.0178690000000000
vn 0.6495256632965704 0.2325885858899012 0.7238915405175601
v 0.2472380000000000 0.2762730000000000 0.0063140000000000
vn 0.4239274091744378 0.3606658206657317 -0.8307862044799269
v 0.1651120000000000 0.1520470000000000 -0.2697210000000000
vn 0.1518020577505960 0.6002248088192930 -0.7852937756919559
v 0.0592040000000000 0.2405480000000000 -0.2637840000000000
vn 0.9921083109497063 -0.1137239816946674 0.0528010921480963
v 0.3422860000000000 0.0018000000000000 0.0641630000000000
vn 0.7540404604752161 0.3905555214871091 0.5280997714468887
v 0.2777040000000000 0.1443140000000000 0.2472480000000000
vn 0.8611279626991021 0.0678144576514863 0.5038450468061867
v 0.3046110000000000 0.0481620000000000 0.2322400000000000
vn 0.5190022721035938 0.6770687310161425 0.5217418662820701
v 0.2209460000000000 0.2038650000000000 0.2470090000000000
vn 0.3451150812981877 0.7415164375414657 0.5753685371276038
v 0.1281640000000000 0.2448590000000000 0.2428800000000000
vn 0.2239414982652015 0.7214683067105891 0.6552355971457076
v 0.0509660000000000 0.2590410000000000 0.2799490000000000
vn 0.0433968270704888 0.7176829120658406 0.6950165128462121
v -0.0342030000000000 0.2443080000000000 0.2984940000000000
vn -0.0959909045995974 0.6925289830345241 0.7149750722167303
v -0.1021500000000000 0.2188610000000000 0.3266550000000000
vn -0.4620709854486652 0.4961886411802377 0.7350423367195992
v -0.1979810000000000 0.1659590000000000 0.3468090000000000
vn -0.3224765643403324 0.2659913105545621 0.9084368377387181
v -0.2639430000000000 0.3010660000000000 0.0914570000000000
vn -0.6904180383724633 0.4707392507954540 0.5492972692909136
v -0.3190310000000000 0.1667920000000000 0.2117350000000000
vn -0.9017094638492983 0.1045456804697149 0.4195119110344014
v -0.3948420000000000 0.1552460000000000 0.1139940000000000
vn -0.7369691783405219 0.0592321534889719 0.6733260593272438
v -0.4102620000000000 0.2631710000000000 0.1017500000000000
vn -0.8989328939943406 0.2082142840071456 0.3854432046752820
v -0.4066900000000000 0.3473620000000000 0.0872550000000000
vn -0.7422150853031420 0.3808237287415241 0.5514436097878473
v -0.3890070000000000 0.4262040000000000 0.0741360000000000
vn -0.4147969446603605 0.9096603729427288 -0.0214825649801276
v -0.3475050000000000 0.4930830000000000 0.0673200000000000
vn 0.0803413869260755 0.7383404680350049 0.6696257274094574
v -0.2804180000000000 0.4847270000000000 0.0874600000000000
vn 0.3810026875584293 0.7171101594616761 0.5836008664062309
v -0.2308440000000000 0.4411630000000000 0.1096570000000000
vn 0.2186045727128653 0.5877354922300234 0.7789602248909488
v -0.1816680000000000 0.3907440000000000 0.1336550000000000
vn 0.3893030098521350 0.8373543543502243 -0.3837718746479311
v -0.2456360000000000 0.4504920000000000 0.0207690000000000
vn -0.1801829358513106 0.5754247421518774 -0.7977596603911782
v -0.3069800000000000 0.4240110000000000 -0.0187830000000000
vn -0.2919837515039142 0.6630038541139737 -0.6893267572695241
v -0.2787590000000000 0.3195130000000000 -0.0838820000000000
vn -0.7899125139743403 0.3187178231688752 -0.5238865998107143
v -0.3703990000000000 0.4021100000000000 0.0052160000000000
vn -0.9749880963819919 0.0318925810320878 -0.2199569848596118
v -0.3976580000000000 0.2381520000000000 0.0093600000000000
vn -0.5434116001943184 0.5343324887582687 -0.6474508662683562
v -0.2815390000000000 0.2243320000000000 -0.1855480000000000
vn -0.7151699592625675 0.3318947530549317 -0.6151242169375087
v -0.3656340000000000 0.2625150000000000 -0.0494000000000000
vn 0.2493841688695702 0.4642242025029552 0.8498843604442483
v 0.0765870000000000 0.1183620000000000 0.3655300000000000
vn 0.4981474006641830 0.3722454600084877 0.7831235437110720
v 0.2281960000000000 0.1386580000000000 0.2894690000000000
vn 0.5352091922740234 0.4556087126610045 0.7113169627196936
v 0.1309840000000000 0.0428120000000000 0.3603280000000000
vn 0.2239347964358828 0.5439434295579727 0.8086895278077554
v 0.0822630000000000 0.0508660000000000 0.3989440000000000
vn -0.0193205345376757 0.4915091493794807 0.8706580689463793
v -0.0095670000000000 0.0426260000000000 0.3848300000000000
vn 0.0694644002576499 0.4855807192255198 0.8714276000984086
v -0.0827290000000000 0.1553850000000000 0.3690330000000000
vn -0.2312746145554691 0.3909463188230772 0.8908832855435689
v -0.1564120000000000 0.1272990000000000 0.3765830000000000
vn -0.3525858902306844 0.2068142787619549 0.9126396025323512
v -0.1897450000000000 0.0803050000000000 0.3769470000000000
vn -0.6969090610181733 -0.0745051757052977 0.7132788651459474
v -0.2585700000000000 -0.0449930000000000 0.3513180000000000
vn -0.8007415065562616 0.1203182089480679 0.5868019838698038
v -0.3188340000000000 0.0258420000000000 0.2721060000000000
vn 0.0080600782469563 0.2464494053964536 0.9691221417955466
v -0.0881730000000000 0.0855900000000000 0.4099110000000000
vn 0.0239763943686737 0.2331769313966286 0.9721386995575940
v -0.0937160000000000 0.0048200000000000 0.4090340000000000
vn -0.2359200852936304 0.3908847381041390 0.8896914267723979
v -0.0831190000000000 -0.0585570000000000 0.4405490000000000
vn -0.4969883778106861 -0.0762453777126791 0.8644010612548748
v -0.1009000000000000 -0.0920510000000000 0.4397410000000000
vn 0.2160063226765867 0.7219484305175589 0.6573672734757731
v 0.0926280000000000 0.0117040000000000 0.4293220000000000
vn -0.1002588625706438 0.6812215758261044 0.7251795123312846
v 0.0498120000000000 -0.0091380000000000 0.4618440000000000
vn -0.3018607294497415 0.4654503374553076 0.8320072616142303
v 0.0144460000000000 -0.0413970000000000 0.4712050000000000
vn 0.5637841274600970 0.0997124083432106 0.8198810238360527
v 0.2340020000000000 0.0671640000000000 0.3263450000000000
vn 0.8862408136206821 -0.1347372147392272 0.4431964612192507
v 0.2996900000000000 -0.0813770000000000 0.2510170000000000
vn 0.6499517266020444 0.0994280967931409 0.7534433002257801
v 0.1965040000000000 -0.0053090000000000 0.3314030000000000
vn 0.7754764664377406 0.3190309521681002 0.5448444746530435
v 0.1987000000000000 -0.0580750000000000 0.3641700000000000
vn 0.7223023988846279 0.4382170571270593 0.5350187430440279
v 0.1460410000000000 -0.0308310000000000 0.4283160000000000
vn 0.2650129060498163 0.4200936852117705 0.8679224938162537
v 0.0962990000000000 -0.0499630000000000 0.4937830000000000
vn 0.5570041464442452 0.1505415138470111 0.8167518799810429
v 0.1335070000000000 -0.0860130000000000 0.4766290000000000
vn 0.2172362413171661 -0.1245245425536074 0.9681436121568974
v 0.0835060000000000 -0.1283420000000000 0.4910890000000000
vn -0.0897966988235491 0.1401218680310806 0.9860539614949445
v 0.0431860000000000 -0.0869320000000000 0.5000000000000000
vn 0.8566755663306844 -0.3375845798338460 0.3900559261316342
v 0.2228850000000000 -0.1482890000000000 0.3431830000000000
vn 0.7188944330867476 -0.0305390585082053 0.6944480973998820
v 0.1713340000000000 -0.1394260000000000 0.4588110000000000
vn 0.5832326104795413 -0.6642938038349150 0.4674970205891788
v 0.1540850000000000 -0.2138200000000000 0.4237070000000000
vn 0.4066923908375305 -0.3662529579238920 0.8369349258137416
v 0.1328530000000000 -0.1788850000000000 0.4680660000000000
vn 0.8934729860483349 -0.4019989972528947 0.2002569085188803
v 0.2985530000000000 -0.1478940000000000 0.1096410000000000
vn 0.7536557920907565 -0.5177288077643503 0.4049195335606310
v 0.1542980000000000 -0.3099390000000000 0.1980070000000000
vn 0.9519537968777769 -0.1103893453258057 0.2856539183146697
v 0.2792700000000000 -0.2324660000000000 0.0353910000000000
vn 0.5664442782365561 -0.7581848382040668 0.3229498889464744
v 0.1494000000000000 -0.2605730000000000 0.3101220000000000
vn 0.1240205185614276 -0.9071494822043751 0.4021178035253962
v 0.0322840000000000 -0.3294010000000000 0.2464360000000000
vn 0.8509575868781076 0.3577386657299784 0.3845701917417975
v 0.3013200000000000 -0.3065720000000000 0.0379260000000000
vn -0.2479926172668294 0.0753112223978055 0.9658301515080672
v 0.0019810000000000 -0.1078930000000000 0.4951510000000000
vn -0.4346715109228370 0.1648721713314412 0.8853687619927155
v -0.0491980000000000 -0.1016870000000000 0.4703090000000000
vn 0.0524980374212697 -0.6951715536262910 0.7169243105765936
v 0.0755710000000000 -0.2224880000000000 0.4667820000000000
vn -0.0554778888135261 -0.2443254084751421 0.9681050039258391
v 0.0279340000000000 -0.1673730000000000 0.4982570000000000
vn -0.4544566949855235 -0.3451944309681783 0.8211637578530792
v -0.0458150000000000 -0.1839270000000000 0.4657740000000000
vn -0.4398669826671180 -0.6693364398208798 0.5987535117953254
v -0.1097830000000000 -0.2370430000000000 0.3616390000000000
vn -0.2227648594715168 -0.8547545858876497 0.4687967739742541
v -0.0676860000000000 -0.2726310000000000 0.3286670000000000
vn -0.4645289937087759 -0.7302850046172100 0.5008958235353471
v -0.1621950000000000 -0.3022570000000000 0.2140050000000000
vn -0.8431497615787534 -0.2836232192440637 0.4567891735312093
v -0.2760620000000000 -0.3488180000000000 0.0772950000000000
vn -0.7658705705909400 -0.4689904712595236 0.4398752174997790
v -0.2682620000000000 -0.2446120000000000 0.1584740000000000
vn -0.7332265127013409 -0.5284654750631175 0.4279055067864212
v -0.2721720000000000 -0.1905700000000000 0.2420090000000000
vn -0.5435581907148841 -0.4377457614949864 0.7161865271002633
v -0.1789420000000000 -0.1738480000000000 0.3725340000000000
vn -0.9005423266809062 -0.2185163609290811 0.3758644940167287
v -0.3466460000000000 -0.0629650000000000 0.2078360000000000
vn -0.9640279023031746 -0.2332651778425450 0.1274266863220838
v -0.3721590000000000 -0.0926260000000000 0.0242530000000000
vn -0.9089139397098472 0.0924518676947233 -0.4066055857472712
v -0.3729730000000000 0.1035940000000000 -0.1242430000000000
vn -0.0775060063388929 0.5193720655173394 -0.8510261315269044
v -0.0856650000000000 0.1528320000000000 -0.3401400000000000
vn 0.3961252390010307 0.3247271780571824 -0.8588579945819887
v 0.1057750000000000 -0.0243170000000000 -0.3756600000000000
vn 0.7793632079980409 0.1853044124680477 -0.5985442880346232
v 0.2098340000000000 -0.0698500000000000 -0.2931450000000000
vn 0.8659540698468357 -0.0095950635686869 -0.5000314826796552
v 0.2517580000000000 0.0010470000000000 -0.2193720000000000
vn 0.9827826479345670 0.1224707273903766 -0.1383444536336493
v 0.2966660000000000 -0.1677060000000000 -0.1151950000000000
vn 0.8323228053792483 0.4517782681987291 -0.3211466083099355
v 0.2731860000000000 -0.1934680000000000 -0.2555680000000000
vn 0.8740808436955756 0.4805064334173874 0.0713879970928774
v 0.3245240000000000 -0.2379200000000000 -0.1245530000000000
vn 0.4422418945331477 0.3054029761752519 -0.8432977699858045
v 0.1327460000000000 -0.1506280000000000 -0.4028460000000000
vn -0.9996782944487759 0.0202915759494232 0.0152170809774786
v -0.3497030000000000 -0.3851660000000000 -0.0863240000000000
vn -0.9962868145820636 -0.0600929403372202 -0.0616556697437653
v -0.3441320000000000 -0.2506970000000000 -0.0396340000000000
vn -0.7438405004249711 0.1264715613182488 -0.6562821451976681
v -0.2752930000000000 0.0008820000000000 -0.2885090000000000
vn -0.7657277602072240 0.1771633915835283 -0.6182832117489924
v -0.2812550000000000 -0.1592850000000000 -0.3212020000000000
vn -0.8179640774748937 0.1593047051021002 -0.5527719049417932
v -0.2903050000000000 -0.3041530000000000 -0.3522790000000000
vn -0.7069042119307442 0.1425066809875537 -0.6928046485326764
v -0.2914450000000000 -0.4337000000000000 -0.3886090000000000
vn 0.8112638460128659 0.5839860996927568 0.0284817049709859
v 0.3815110000000000 -0.3154070000000000 -0.1272420000000000
vn 0.7472671253716120 0.5141939976293936 -0.4209469992062548
v 0.3357200000000000 -0.2842000000000000 -0.2608220000000000
vn -0.1753067712186145 0.2986525610467626 -0.9381226912004176
v -0.0902870000000000 0.0505760000000000 -0.3852420000000000
vn -0.2728013260324688 0.2308205314727307 -0.9339707269318309
v -0.0977590000000000 -0.0794360000000000 -0.4154010000000000
vn -0.1952851337709684 0.2740737527505280 -0.9416726047737066
v -0.1105810000000000 -0.2303600000000000 -0.4517190000000000
vn -0.3250239633388247 0.1356034162310104 -0.9359332971756062
v -0.1093300000000000 -0.3339730000000000 -0.4727480000000000
vn -0.2803965307016842 0.1189062154445567 -0.9524909960199688
v -0.0946920000000000 -0.4930830000000000 -0.4969200000000000
vn -0.6109531520707312 0.3183024999356236 -0.7248584444631727
v -0.2805150000000000 0.1137450000000000 -0.2517990000000000
vn 0.3423102791611659 0.4053144729240240 -0.8476696590175475
v 0.2194960000000000 -0.3153490000000000 -0.4232960000000000
vn 0.0444426785392599 0.2850066945350950 -0.9574946644208704
v 0.0106470000000000 -0.3311860000000000 -0.4918530000000000
vn 0.0069994125722470 0.1572978258122157 -0.9875264058334811
v 0.0769570000000000 -0.4032900000000000 -0.5000000000000000
vn 0.5160004092501480 0.6323020099769220 0.5778734687047191
v 0.1227790000000000 -0.0060750000000000 0.4335250000000000
# 131 vertices, 0 vertices normals

f 1//1 2//2 3//3
f 4//4 2//2 5//5
f 2//2 1//1 5//5
f 1//1 6//6 5//5
f 6//6 7//7 5//5
f 7//7 6//6 8//8
f 6//6 1//1 8//8
f 9//9 1//1 3//3
f 3//3 4//4 10//10
f 10//10 11//11 3//3
f 11//11 12//12 3//3
f 11//11 13//13 12//12
f 13//13 11//11 14//14
f 12//12 15//15 3//3
f 15//15 12//12 16//16
f 12//12 13//13 16//16
f 13//13 17//17 16//16
f 17//17 13//13 14//14
f 16//16 18//18 15//15
f 18//18 16//16 19//19
f 16//16 17//17 19//19
f 17//17 20//20 19//19
f 20//20 21//21 19//19
f 21//21 18//18 19//19
f 18//18 21//21 22//22
f 21//21 23//23 22//22
f 21//21 24//24 23//23
f 24//24 21//21 20//20
f 24//24 25//25 23//23
f 25//25 24//24 26//26
f 24//24 20//20 26//26
f 20//20 17//17 26//26
f 17//17 14//14 26//26
f 14//14 11//11 26//26
f 11//11 10//10 26//26
f 10//10 4//4 26//26
f 3//3 15//15 9//9
f 15//15 27//27 28//28
f 23//23 25//25 29//29
f 25//25 30//30 31//31
f 30//30 25//25 32//32
f 25//25 26//26 32//32
f 4//4 33//33 32//32
f 18//18 22//22 15//15
f 22//22 27//27 15//15
f 5//5 34//34 33//33
f 34//34 5//5 35//35
f 5//5 7//7 35//35
f 7//7 36//36 35//35
f 36//36 7//7 37//37
f 7//7 38//38 37//37
f 38//38 39//39 37//37
f 39//39 38//38 40//40
f 38//38 41//41 40//40
f 41//41 38//38 42//42
f 38//38 43//43 42//42
f 43//43 38//38 44//44
f 38//38 45//45 44//44
f 45//45 38//38 46//46
f 46//46 38//38 47//47
f 38//38 7//7 47//47
f 7//7 8//8 47//47
f 8//8 46//46 47//47
f 46//46 8//8 48//48
f 8//8 49//49 48//48
f 49//49 44//44 48//48
f 44//44 45//45 48//48
f 49//49 8//8 50//50
f 49//49 51//51 44//44
f 51//51 43//43 44//44
f 43//43 51//51 42//42
f 51//51 52//52 42//42
f 52//52 41//41 42//42
f 41//41 52//52 40//40
f 53//53 54//54 50//50
f 49//49 54//54 51//51
f 54//54 49//49 50//50
f 51//51 54//54 52//52
f 50//50 9//9 53//53
f 9//9 50//50 8//8
f 55//55 33//33 34//34
f 33//33 55//55 32//32
f 55//55 56//56 32//32
f 56//56 55//55 57//57
f 55//55 58//58 57//57
f 58//58 55//55 59//59
f 55//55 60//60 59//59
f 60//60 55//55 35//35
f 55//55 34//34 35//35
f 36//36 60//60 35//35
f 60//60 36//36 37//37
f 37//37 61//61 60//60
f 61//61 37//37 62//62
f 37//37 63//63 62//62
f 63//63 37//37 64//64
f 37//37 39//39 64//64
f 39//39 40//40 64//64
f 62//62 65//65 61//61
f 65//65 62//62 66//66
f 62//62 67//67 66//66
f 67//67 62//62 68//68
f 62//62 63//63 68//68
f 65//65 59//59 60//60
f 59//59 69//69 58//58
f 69//69 59//59 70//70
f 59//59 71//71 70//70
f 71//71 59//59 67//67
f 59//59 66//66 67//67
f 59//59 65//65 66//66
f 56//56 30//30 32//32
f 30//30 56//56 31//31
f 56//56 72//72 31//31
f 72//72 56//56 57//57
f 60//60 61//61 65//65
f 46//46 48//48 45//45
f 31//31 29//29 25//25
f 29//29 31//31 73//73
f 31//31 74//74 73//73
f 74//74 31//31 72//72
f 57//57 74//74 72//72
f 74//74 57//57 75//75
f 57//57 76//76 75//75
f 57//57 58//58 69//69
f 77//77 78//78 76//76
f 78//78 77//77 79//79
f 77//77 80//80 79//79
f 80//80 77//77 71//71
f 77//77 70//70 71//71
f 70//70 77//77 69//69
f 75//75 73//73 74//74
f 73//73 75//75 81//81
f 75//75 82//82 81//81
f 82//82 75//75 76//76
f 82//82 83//83 81//81
f 83//83 82//82 84//84
f 82//82 79//79 84//84
f 79//79 82//82 78//78
f 82//82 76//76 78//78
f 73//73 85//85 29//29
f 85//85 73//73 86//86
f 73//73 81//81 86//86
f 85//85 87//87 29//29
f 87//87 85//85 86//86
f 88//88 86//86 81//81
f 86//86 88//88 89//89
f 88//88 83//83 89//89
f 83//83 88//88 81//81
f 86//86 90//90 87//87
f 71//71 91//91 80//80
f 91//91 71//71 92//92
f 71//71 67//67 92//92
f 67//67 68//68 92//92
f 79//79 93//93 84//84
f 93//93 79//79 94//94
f 79//79 91//91 94//94
f 91//91 79//79 80//80
f 92//92 95//95 91//91
f 92//92 68//68 95//95
f 91//91 95//95 94//94
f 95//95 93//93 94//94
f 93//93 95//95 96//96
f 95//95 68//68 96//96
f 93//93 83//83 84//84
f 83//83 93//93 89//89
f 93//93 97//97 89//89
f 97//97 93//93 96//96
f 89//89 97//97 98//98
f 98//98 100//100 99//99
f 100//100 98//98 101//101
f 98//98 96//96 101//101
f 98//98 97//97 96//96
f 102//102 68//68 63//63
f 68//68 102//102 96//96
f 102//102 101//101 96//96
f 101//101 102//102 63//63
f 64//64 103//103 63//63
f 103//103 64//64 40//40
f 103//103 101//101 63//63
f 101//101 104//104 100//100
f 104//104 101//101 103//103
f 40//40 104//104 103//103
f 40//40 52//52 104//104
f 52//52 105//105 104//104
f 9//9 106//106 53//53
f 106//106 9//9 28//28
f 106//106 27//27 107//107
f 27//27 106//106 28//28
f 27//27 108//108 107//107
f 108//108 27//27 22//22
f 22//22 109//109 108//108
f 109//109 22//22 23//23
f 109//109 110//110 108//108
f 110//110 109//109 23//23
f 23//23 29//29 110//110
f 110//110 111//111 108//108
f 111//111 110//110 112//112
f 110//110 90//90 112//112
f 90//90 110//110 87//87
f 110//110 29//29 87//87
f 108//108 111//111 113//113
f 108//108 113//113 107//107
f 114//114 99//99 115//115
f 99//99 104//104 115//115
f 104//104 105//105 115//115
f 116//116 117//117 115//115
f 117//117 118//118 115//115
f 115//115 118//118 114//114
f 118//118 119//119 114//114
f 120//120 112//112 90//90
f 112//112 120//120 111//111
f 120//120 121//121 111//111
f 99//99 100//100 104//104
f 2//2 4//4 3//3
f 5//5 33//33 4//4
f 116//116 122//122 123//123
f 123//123 117//117 116//116
f 117//117 123//123 124//124
f 117//117 124//124 118//118
f 124//124 125//125 118//118
f 125//125 119//119 118//118
f 119//119 125//125 126//126
f 122//122 106//106 107//107
f 105//105 116//116 115//115
f 54//54 53//53 105//105
f 52//52 54//54 105//105
f 105//105 127//127 116//116
f 122//122 116//116 127//127
f 106//106 122//122 127//127
f 53//53 127//127 105//105
f 121//121 128//128 113//113
f 121//121 113//113 111//111
f 113//113 128//128 124//124
f 128//128 129//129 124//124
f 129//129 128//128 130//130
f 107//107 113//113 122//122
f 113//113 123//123 122//122
f 123//123 113//113 124//124
f 1//1 9//9 8//8
f 9//9 15//15 28//28
f 4//4 32//32 26//26
f 106//106 127//127 53//53
f 57//57 131//131 76//76
f 131//131 77//77 76//76
f 69//69 131//131 57//57
f 131//131 69//69 77//77
f 129//129 125//125 124//124
f 125//125 130//130 126//126
f 130//130 125//125 129//129
# 248 faces, 0 coords texture

# End of File
