####
#
# OBJ File Generated by Meshlab
#
####
# Object Nefertiti_face.obj
#
# Vertices: 299
# Faces: 562
#
####
vn -0.9978128540651705 0.0275300826025432 0.0600966123356054
v -0.4014530000000000 0.0812380000000000 -0.2447030000000000
vn -0.9823577376397478 -0.1403919009069925 0.1235450907929478
v -0.3908030000000000 -0.0180210000000000 -0.1910090000000000
vn -0.9693687570464019 -0.1834180075421158 0.1633464029955791
v -0.3772460000000000 -0.1012880000000000 -0.2125950000000000
vn -0.9663151839571865 -0.1835864833005178 0.1803634342186285
v -0.3692730000000000 -0.1520850000000000 -0.2176090000000000
vn -0.9459519914917921 -0.2246299572825405 0.2339149676355837
v -0.3503270000000000 -0.2089090000000000 -0.1802850000000000
vn -0.7484556769076988 -0.5740072460940229 0.3321592707364862
v -0.1931240000000000 -0.4471310000000000 -0.0014490000000000
vn -0.3334266433664279 -0.9313628131475978 0.1462531496385281
v -0.1137500000000000 -0.4922900000000000 0.0223140000000000
vn -0.0525612159433452 -0.9692877244797607 0.2402470098698518
v -0.0255000000000000 -0.5000000000000000 0.0626790000000000
vn -0.8733299362021255 -0.2873139657582882 0.3933770552706863
v -0.2873250000000000 -0.3315210000000000 -0.0874630000000000
vn -0.9295765767152202 -0.2463072515779247 0.2742628772592843
v -0.3397100000000000 -0.1943190000000000 -0.1280730000000000
vn -0.8624799982379251 -0.2453743846060182 0.4426281328821369
v -0.3114020000000000 -0.2229420000000000 -0.0723110000000000
vn -0.7900411131727826 -0.1852037493138705 0.5844096258077851
v -0.2667470000000000 -0.2720060000000000 -0.0227690000000000
vn -0.8039472232951508 -0.1911258757422198 0.5631516330241674
v -0.2390790000000000 -0.3486850000000000 -0.0084440000000000
vn -0.8255102813596022 -0.2974493569507921 0.4796422160518720
v -0.2112310000000000 -0.4052910000000000 0.0100000000000000
vn -0.5727639864563636 -0.7126836176162226 0.4049981197488066
v -0.1307860000000000 -0.4711080000000000 0.0850270000000000
vn -0.1723284687230210 -0.9395728652049580 0.2958136741905699
v -0.0661740000000000 -0.4926170000000000 0.0962550000000000
vn -0.7861261384228473 -0.2586577126404253 0.5613393645380709
v -0.1602340000000000 -0.4299440000000000 0.0791110000000000
vn -0.6575520925447781 -0.2566347397986827 0.7083529176324792
v -0.1139390000000000 -0.4349610000000000 0.1331200000000000
vn -0.3529866258813701 -0.7240166825863533 0.5926215362991267
v -0.0839430000000000 -0.4713690000000000 0.1297330000000000
vn -0.0087546449093391 -0.8228034443393152 0.5682586102962901
v -0.0037120000000000 -0.4729880000000000 0.1434740000000000
vn -0.3026282623715980 -0.3661427542499057 0.8799747827774613
v -0.0676440000000000 -0.4419110000000000 0.1633410000000000
vn -0.4390710618042062 0.0438901733315436 0.8973796606626729
v -0.0803750000000000 -0.3864080000000000 0.1594830000000000
vn 0.0268053275626415 0.0411092467024699 0.9987950261439106
v -0.0010770000000000 -0.3979000000000000 0.1758200000000000
vn 0.0140415715204272 -0.4212341872276731 0.9068432024224907
v -0.0019070000000000 -0.4445690000000000 0.1725610000000000
vn -0.7571864871142308 -0.0780160616800683 0.6485230280040506
v -0.1901940000000000 -0.3727710000000000 0.0468320000000000
vn -0.6930788903190204 -0.1229277175757158 0.7103030536649694
v -0.2096040000000000 -0.3078160000000000 0.0361570000000000
vn -0.6934446082957755 0.0067005184380510 0.7204787840583371
v -0.1621680000000000 -0.3279470000000000 0.0753910000000000
vn -0.7159641738748904 0.0430500431087681 0.6968084353077099
v -0.1357880000000000 -0.3736430000000000 0.1086840000000000
vn -0.9613800109805251 -0.2036924369436574 0.1850888046831569
v -0.3653470000000000 -0.1288020000000000 -0.1728760000000000
vn -0.9645272914226957 -0.1238707635118148 0.2331161471194099
v -0.3822600000000000 -0.0189980000000000 -0.1309410000000000
vn -0.9224611967410073 -0.2279432699904699 0.3116202916582941
v -0.3530700000000000 -0.1189070000000000 -0.1025260000000000
vn -0.8138316317875117 -0.2065563287007147 0.5431505851748279
v -0.3267060000000000 -0.1177490000000000 -0.0461330000000000
vn -0.7593980771809723 -0.2098454783243671 0.6158566680654349
v -0.2877530000000000 -0.2009400000000000 -0.0270800000000000
vn -0.8869786019140713 -0.0888900621489310 0.4531749293569964
v -0.3619420000000000 -0.0186140000000000 -0.0692760000000000
vn -0.7433885991032668 -0.0581965710246831 0.6663231572174658
v -0.3201490000000000 -0.0210560000000000 -0.0112940000000000
vn -0.6899853071748576 -0.1597979633475109 0.7059637999166848
v -0.2789960000000000 -0.1005170000000000 0.0137840000000000
vn -0.6958930971877387 -0.1209182423323881 0.7078923477180004
v -0.2277580000000000 -0.1741510000000000 0.0437700000000000
vn -0.5730231048487259 -0.0595999194677999 0.8173691766325407
v -0.2327480000000000 -0.0742690000000000 0.0570070000000000
vn -0.5355219590442926 0.0495030256379245 0.8430692034667463
v -0.1789300000000000 -0.1151670000000000 0.0900650000000000
vn -0.6045401160022617 -0.0984791226538626 0.7904638578362060
v -0.1754010000000000 -0.1847490000000000 0.0966000000000000
vn -0.6759252520258534 -0.1733742070036361 0.7162865613842319
v -0.2133510000000000 -0.2428960000000000 0.0486220000000000
vn -0.2034893393380661 -0.0507339816043155 0.9777618073367003
v -0.0493110000000000 -0.3374900000000000 0.1620000000000000
vn -0.5780505552030974 -0.1293340668531767 0.8056862011854297
v -0.0876380000000000 -0.3251180000000000 0.1491710000000000
vn -0.2101675435660645 -0.2610983981840846 0.9421556294461715
v -0.0524770000000000 -0.3078510000000000 0.1710980000000000
vn 0.0137512136992605 -0.1859332416562109 0.9824661489176155
v 0.0010270000000000 -0.3341860000000000 0.1655260000000000
vn -0.5590215608101631 -0.1153358237276541 0.8210922861130974
v -0.0858280000000000 -0.2992950000000000 0.1614420000000000
vn -0.7551775201210653 -0.0863010626366080 0.6498146194812721
v -0.1079790000000000 -0.2895840000000000 0.1372510000000000
vn -0.6294596736543728 0.1953626996216132 0.7520730914209642
v -0.0931070000000000 -0.2732220000000000 0.1516380000000000
vn -0.3249220188346712 0.1167495296465841 0.9385069147340914
v -0.0610860000000000 -0.2796520000000000 0.1729850000000000
vn -0.1127772352457976 0.0241091447344942 0.9933277628006202
v -0.0252070000000000 -0.2846680000000000 0.1777440000000000
vn 0.0163866116430581 -0.2292359137756169 0.9732329499119506
v 0.0026980000000000 -0.3066570000000000 0.1774870000000000
vn -0.2613031331905057 -0.1657974179051235 0.9509110835408422
v -0.0391030000000000 -0.2494330000000000 0.1690200000000000
vn 0.0248487206520143 -0.1987240901969936 0.9797404130979468
v 0.0046830000000000 -0.2565090000000000 0.1760820000000000
vn 0.0319702227700831 0.0014963424264265 0.9994877016829041
v 0.0032050000000000 -0.2859710000000000 0.1804130000000000
vn -0.7304239820062717 -0.0303021777185143 0.6823214671513840
v -0.1210730000000000 -0.3125440000000000 0.1154660000000000
vn -0.6715827807845466 -0.0964219505330506 0.7346287334491470
v -0.1508240000000000 -0.2572930000000000 0.0874500000000000
vn -0.5764524624591031 0.0790487276621154 0.8132981354828235
v -0.1108630000000000 -0.1827620000000000 0.1367390000000000
vn -0.6800249451489550 -0.1257324157004981 0.7223277882078730
v -0.0977290000000000 -0.2148390000000000 0.1507720000000000
vn -0.6164376118013526 -0.2552352673608828 0.7448890045180313
v -0.0949610000000000 -0.2355690000000000 0.1476940000000000
vn -0.6460264487943715 0.0135961332875856 0.7631939285776318
v -0.0958630000000000 -0.2527370000000000 0.1403230000000000
vn -0.4881723202522104 -0.0039088476357786 0.8727385098927019
v -0.0699590000000000 -0.2517470000000000 0.1594830000000000
vn -0.4764499854541854 -0.3064037037123858 0.8240826303909330
v -0.0727880000000000 -0.2260280000000000 0.1678410000000000
vn -0.2053016114580896 -0.3427417412778982 0.9167220664511713
v -0.0171060000000000 -0.2225570000000000 0.1935610000000000
vn -0.3713471172198374 -0.3340781759428675 0.8663100431665345
v -0.0457520000000000 -0.2204350000000000 0.1827110000000000
vn -0.2936659919468720 -0.0056460742096708 0.9558914200995208
v -0.0315040000000000 -0.1937630000000000 0.1950360000000000
vn 0.0339667887625018 0.0696009523799702 0.9969964717535186
v 0.0067410000000000 -0.1941280000000000 0.1996940000000000
vn 0.0221383015860237 -0.3341724751640927 0.9422519049837947
v 0.0052620000000000 -0.2236820000000000 0.1950650000000000
vn -0.5406001015364287 -0.0006370431871423 0.8412794567768673
v -0.0709880000000000 -0.2014670000000000 0.1768430000000000
vn -0.3177910620034111 0.2408872338298731 0.9170508063834502
v -0.0269250000000000 -0.1667150000000000 0.1885790000000000
vn -0.5001568627082986 -0.0884504736585142 0.8614056108450749
v -0.0602840000000000 -0.1077240000000000 0.1535080000000000
vn -0.5768179619101854 -0.0745295813523010 0.8134656601979154
v -0.0154270000000000 -0.1161730000000000 0.1825380000000000
vn 0.0133183101679158 -0.3126834782035412 0.9497640049363878
v 0.0089640000000000 -0.1266380000000000 0.1890920000000000
vn 0.0362869475048888 0.1771609290695540 0.9835127160601381
v 0.0073200000000000 -0.1671940000000000 0.1910710000000000
vn -0.4986780424840678 0.0916946717588998 0.8619236028299062
v -0.1458150000000000 -0.1507990000000000 0.1150050000000000
vn -0.5490330638441777 0.0369287912423320 0.8349844065509578
v -0.1030090000000000 -0.1039900000000000 0.1282350000000000
vn -0.5110306615741815 -0.6494939803275692 0.5630321770994136
v -0.0285510000000000 -0.0744110000000000 0.1695140000000000
vn -0.3958500557469123 -0.6488273068570677 0.6498660317648332
v -0.0715420000000000 -0.0746950000000000 0.1683270000000000
vn -0.3328536897761225 -0.8378535400996188 0.4326775549354940
v -0.0486190000000000 -0.0656190000000000 0.1942090000000000
vn -0.5516059926579411 -0.7805756659317163 0.2939939771816849
v -0.0265980000000000 -0.0699270000000000 0.2064140000000000
vn -0.5655763285675454 -0.5505218610799719 0.6140432371072090
v -0.0086840000000000 -0.0863200000000000 0.2160000000000000
vn -0.7583424641240756 -0.2295240532253811 0.6101109867042368
v -0.0905350000000000 -0.0696530000000000 0.1495820000000000
vn -0.6525342723035097 0.1276080210037942 0.7469372238982499
v -0.1119850000000000 -0.0522940000000000 0.1174190000000000
vn -0.8153845788752220 0.2584154386094759 0.5180438684327313
v -0.0806330000000000 -0.0385330000000000 0.1661700000000000
vn -0.7135380560262803 -0.2830563568777050 0.6408919888977848
v -0.0616000000000000 -0.0544790000000000 0.1971610000000000
vn -0.5380672560422408 -0.3534036831824410 0.7652381751378187
v -0.0256480000000000 -0.0542070000000000 0.2316540000000000
vn -0.7122649991306764 0.2940447342483520 0.6373509749535130
v -0.0370380000000000 -0.0222080000000000 0.2176090000000000
vn -0.4106275830670231 0.3449248519513852 0.8440449244743137
v -0.0087160000000000 -0.0060650000000000 0.2331910000000000
vn 0.0303375404728300 -0.0883658229288100 0.9956259915129644
v 0.0128310000000000 -0.0383330000000000 0.2447030000000000
vn -0.0042475410526760 -0.5409148008011063 0.8410666660076984
v 0.0109370000000000 -0.0895710000000000 0.2231240000000000
vn -0.5863806277594777 0.0209856900911238 0.8097637681446362
v -0.2711560000000000 -0.0177120000000000 0.0333300000000000
vn -0.6333513308376371 0.1381847036276748 0.7614270020228634
v -0.3035400000000000 0.0515020000000000 0.0001070000000000
vn -0.4770321934797010 0.1944761892700658 0.8570993514120393
v -0.2531570000000000 0.0486950000000000 0.0333280000000000
vn -0.4376996040445381 0.1329253443702521 0.8892411986875690
v -0.1954080000000000 -0.0156530000000000 0.0748970000000000
vn -0.3329129620393844 0.3102634587992798 0.8904524388422276
v -0.1810880000000000 0.0559170000000000 0.0627530000000000
vn -0.4289626608454856 0.1511385658621182 0.8905886645974690
v -0.2372110000000000 0.1037200000000000 0.0283140000000000
vn -0.1881175118368799 0.1942110981331086 0.9627532659525148
v -0.1840170000000000 0.1088660000000000 0.0429740000000000
vn -0.2516131638603507 0.3631152456136623 0.8971277134138227
v -0.1299950000000000 0.1098270000000000 0.0508920000000000
vn -0.5412665163027927 0.3739044479598508 0.7531440912104921
v -0.0936090000000000 0.0829270000000000 0.0868600000000000
vn -0.4516442535844812 0.2459624443943803 0.8576245939521897
v -0.1185150000000000 0.0155690000000000 0.1010630000000000
vn -0.7199865985795767 0.3310978931744485 0.6099126847354897
v -0.0711160000000000 0.0077440000000000 0.1373650000000000
vn -0.7738223720954627 0.4111971464623349 0.4817840213060041
v -0.0504770000000000 -0.0044100000000000 0.1806620000000000
vn -0.6900381689770765 0.3689142794145824 0.6226954149492216
v -0.0278360000000000 0.0548450000000000 0.1728490000000000
vn -0.6056133253851798 0.2445801049773086 0.7572404323365157
v -0.0721450000000000 0.1572190000000000 0.0668930000000000
vn -0.5472010603570053 0.1624584458394372 0.8210835846121902
v -0.0271420000000000 0.2246900000000000 0.0901870000000000
vn 0.0450361100184441 0.4700475425405645 0.8814913820032404
v 0.0152190000000000 0.0965560000000000 0.1797750000000000
vn 0.0362034953908651 0.3267456526309378 0.9444186494390431
v 0.0193340000000000 0.2611790000000000 0.0955740000000000
vn -0.7063450771771781 -0.0084977064466069 0.7078166577106770
v -0.2917320000000000 0.1616300000000000 -0.0173660000000000
vn -0.6295506897967323 0.1749440860059243 0.7570075929262601
v -0.3017230000000000 0.1216910000000000 -0.0188600000000000
vn -0.7905856545519834 0.1249874137916928 0.5994601481418730
v -0.3401750000000000 0.1622170000000000 -0.0723150000000000
vn -0.7181551911834990 0.0581205558706097 0.6934516005904691
v -0.2824690000000000 0.1984980000000000 -0.0025450000000000
vn -0.6436466817492336 -0.0785031203105432 0.7612858918794631
v -0.2673310000000000 0.1731490000000000 0.0087200000000000
vn -0.5946336021616864 -0.0378969866025268 0.8031031674614820
v -0.2577780000000000 0.1447440000000000 0.0122400000000000
vn -0.3472155776168847 -0.0448689533145723 0.9367113321021733
v -0.2267970000000000 0.1361290000000000 0.0303720000000000
vn -0.4895001968311647 -0.1067329234229053 0.8654464976876682
v -0.2409720000000000 0.1616670000000000 0.0278740000000000
vn -0.1998058373449993 -0.0859879936011270 0.9760551686863382
v -0.2090900000000000 0.1626200000000000 0.0393730000000000
vn -0.1250312431405409 -0.0123041403964338 0.9920765073157592
v -0.1849690000000000 0.1367850000000000 0.0395460000000000
vn -0.0676399202650211 0.1789997961747787 0.9815212245060875
v -0.1412020000000000 0.1372850000000000 0.0424600000000000
vn 0.0329056811674989 -0.0453996923140288 0.9984268045704172
v -0.1612630000000000 0.1628750000000000 0.0424600000000000
vn -0.0831658540533814 0.0812564223601134 0.9932174155464687
v -0.1210520000000000 0.1624740000000000 0.0355630000000000
vn -0.4167376634883853 0.2357550763052683 0.8779232676188384
v -0.1031370000000000 0.1473160000000000 0.0450320000000000
vn -0.1731293573101971 0.0280770924945393 0.9844988077770390
v -0.1126310000000000 0.2019980000000000 0.0414310000000000
vn -0.4654124372958400 0.0036076635409870 0.8850865765415951
v -0.0786540000000000 0.2292030000000000 0.0439100000000000
vn -0.7786660883129469 0.1233758071760193 0.6151890222647668
v -0.3421380000000000 0.0691410000000000 -0.0421470000000000
vn -0.9122998574014616 0.0768169617722381 0.4022538061589415
v -0.3759600000000000 0.0872740000000000 -0.1044540000000000
vn -0.9840552514837669 0.0298827718033945 0.1753347711566832
v -0.3951800000000000 0.0650800000000000 -0.1676720000000000
vn -0.9891350167802085 0.1022042078925542 0.1056703291765110
v -0.3969620000000000 0.1223850000000000 -0.2216050000000000
vn -0.9699455525750362 0.1140005262616768 0.2149639622168524
v -0.3836740000000000 0.1631350000000000 -0.1708000000000000
vn -0.9218733125858303 0.1424508758201410 0.3603572443008505
v -0.3757280000000000 0.1497090000000000 -0.1251490000000000
vn -0.7363376778010232 0.0188552652224339 0.6763514642728202
v -0.3068650000000000 0.2224720000000000 -0.0412230000000000
vn -0.8645072262818064 0.0249376526369416 0.5020013637307144
v -0.3566710000000000 0.1956690000000000 -0.1007260000000000
vn -0.7297945928419391 -0.1218441912013696 0.6727212240810841
v -0.3283770000000000 0.2566240000000000 -0.0502500000000000
vn -0.5606054149604648 -0.0154135304662836 0.8279396063696737
v -0.2548090000000000 0.2719550000000000 0.0043950000000000
vn -0.9461919648518625 0.0405093731718815 0.3210603624476138
v -0.3705590000000000 0.2266600000000000 -0.1285030000000000
vn -0.9874942669256057 0.1081175695996425 0.1147417270783695
v -0.3913220000000000 0.1843600000000000 -0.2405900000000000
vn -0.9667078570158699 0.1233785481338985 0.2241732656766988
v -0.3734970000000000 0.2754870000000000 -0.1780570000000000
vn -0.8708847868970067 0.0769467876831248 0.4854264927016277
v -0.3422660000000000 0.2873580000000000 -0.0670910000000000
vn -0.2543051869470608 0.0133285332800628 0.9670321722116709
v -0.2040780000000000 0.2836290000000000 0.0292130000000000
vn -0.0424220598896761 0.0948278273227800 0.9945893886423470
v -0.1790340000000000 0.2282620000000000 0.0462720000000000
vn -0.4484400741166201 0.0796671354881337 0.8902553832745949
v -0.2317150000000000 0.2205160000000000 0.0363260000000000
vn -0.3212999662767815 -0.1313891858398125 0.9378183264976699
v -0.2096040000000000 0.3246530000000000 0.0361570000000000
vn -0.2145114721204005 -0.2615849727728738 0.9410409822893760
v -0.1481460000000000 0.3144930000000000 0.0464450000000000
vn -0.0727759857908332 -0.0276229163705732 0.9969657117390531
v -0.1574050000000000 0.2783250000000000 0.0338200000000000
vn -0.1630101161315703 -0.0943035257978084 0.9821071973368660
v -0.1134250000000000 0.2606090000000000 0.0351310000000000
vn -0.4231031326088143 -0.2229322861373663 0.8782282931984003
v -0.0847480000000000 0.2917320000000000 0.0609780000000000
vn -0.1750668458560669 0.1833763985001656 0.9673286390648819
v -0.0675160000000000 0.3249100000000000 0.0717800000000000
vn -0.2178751329972113 0.0434387401656313 0.9750094882996114
v -0.1399120000000000 0.3521730000000000 0.0560910000000000
vn -0.1155886723788062 0.4308726877901505 0.8949793214003308
v -0.1230620000000000 0.4150560000000000 0.0310140000000000
vn 0.0073799886071707 0.4128147401713747 0.9107851151975414
v -0.0321510000000000 0.3993670000000000 0.0406590000000000
vn -0.3652071555747966 0.2308526572073658 0.9018485372706797
v -0.2156100000000000 0.3685040000000000 0.0337150000000000
vn -0.5696066690998051 -0.0680119036743943 0.8190986652874060
v -0.2775860000000000 0.3128200000000000 0.0025950000000000
vn -0.6951633125515787 0.2439355375556752 0.6761977687036094
v -0.2887710000000000 0.3508850000000000 -0.0069180000000000
vn -0.4136206143556319 0.4666342739282183 0.7817739070700392
v -0.2175510000000000 0.4321830000000000 -0.0010080000000000
vn 0.0352889546362941 0.4021667309813217 0.9148861186904492
v 0.0214740000000000 0.3810670000000000 0.0464860000000000
vn 0.0365293996390337 0.4384628794654579 0.8980066293145452
v 0.0230120000000000 0.4935970000000000 -0.0065880000000000
vn -0.1144530082660033 0.4771732312331227 0.8713244035911097
v -0.0979480000000000 0.5000000000000000 -0.0107800000000000
vn -0.3839874866783445 0.5108547460926498 0.7691430546192707
v -0.2086650000000000 0.4932430000000000 -0.0371270000000000
vn -0.6664485723876848 0.4139379428885335 0.6200819944165660
v -0.2865510000000000 0.4583450000000000 -0.0720680000000000
vn -0.7583168882401737 0.3526492226135644 0.5482645554837450
v -0.2967500000000000 0.4021920000000000 -0.0487130000000000
vn -0.9138737415115140 0.2066529256415694 0.3494701030124416
v -0.3497240000000000 0.3427840000000000 -0.1146180000000000
vn -0.9587093818794312 0.1573444564403832 0.2368945823015784
v -0.3718450000000000 0.3394410000000000 -0.2019210000000000
vn -0.8912084641592025 0.2762363820587364 0.3597790080564665
v -0.3453460000000000 0.4004760000000000 -0.1461920000000000
vn 0.9650350558649925 -0.1857602664102276 0.1849336756106144
v 0.3877810000000000 -0.0435620000000000 -0.1511260000000000
vn 0.9031057756227162 -0.1468137410533127 0.4035414272101725
v 0.3702920000000000 -0.0425330000000000 -0.0877430000000000
vn 0.9356972083013781 0.0188539191813911 0.3522999632536298
v 0.3895810000000000 0.0627110000000000 -0.1246410000000000
vn 0.9597629412875431 0.0278198672237395 0.2794300476304177
v 0.3960750000000000 0.1374150000000000 -0.1713720000000000
vn 0.9627578372275812 0.0786428880827270 0.2586747823249841
v 0.3911240000000000 0.2558520000000000 -0.1569110000000000
vn 0.7057875033225890 0.3697362725449954 0.6042839472617150
v 0.3265680000000000 0.4387650000000000 -0.0877820000000000
vn 0.8661189496765255 0.2444415249907858 0.4359888827383233
v 0.3681060000000000 0.3858650000000000 -0.1344240000000000
vn 0.7899263471945441 0.2982431279083080 0.5357867137801694
v 0.3344940000000000 0.3814440000000000 -0.0651730000000000
vn 0.7385840130108081 0.1990601446788100 0.6441030309859610
v 0.3251550000000000 0.3308260000000000 -0.0229850000000000
vn 0.9030937870011013 0.1694750357322264 0.3945881703036345
v 0.3765530000000000 0.3195620000000000 -0.1211260000000000
vn 0.8867582769984338 0.0197202360784799 0.4618125923616397
v 0.3711930000000000 0.2647260000000000 -0.0854280000000000
vn 0.4805942145457189 0.4359314780386777 0.7609158609203762
v 0.2587530000000000 0.4175780000000000 -0.0134540000000000
vn 0.4534086494616971 0.4794230236325419 0.7513815016383828
v 0.2526140000000000 0.4792270000000000 -0.0490850000000000
vn 0.1892559486934239 0.4657292155608965 0.8644527075885551
v 0.1436470000000000 0.4929610000000000 -0.0172980000000000
vn 0.1893854422895843 0.4224820428751373 0.8863645286770162
v 0.1655110000000000 0.4064390000000000 0.0230430000000000
vn 0.0659197172067784 0.4113008369481008 0.9091128711052167
v 0.0750990000000000 0.3955090000000000 0.0382170000000000
vn 0.6028866363540625 -0.1046577204507931 0.7909326553226438
v 0.3120360000000000 0.2943040000000000 -0.0121890000000000
vn 0.7459731631963021 -0.1754375245906136 0.6424528891338424
v 0.3566600000000000 0.2345050000000000 -0.0682470000000000
vn 0.5956440239740143 -0.0542271447472391 0.8014160052535799
v 0.2870820000000000 0.2549900000000000 -0.0100080000000000
vn 0.7698457112373472 -0.0316389283176561 0.6374453381305516
v 0.3331300000000000 0.2017240000000000 -0.0578560000000000
vn 0.3596991711317530 -0.1531162003720454 0.9204194345355586
v 0.2463150000000000 0.3103780000000000 0.0240710000000000
vn 0.2738804205192510 0.0309398943739580 0.9612659560144252
v 0.1799140000000000 0.3420120000000000 0.0478610000000000
vn 0.4234896320678823 0.2091215003425811 0.8814333381631746
v 0.2545460000000000 0.3541010000000000 0.0214970000000000
vn 0.2528124582334946 -0.2740681516616962 0.9278860432222693
v 0.1846710000000000 0.3040750000000000 0.0380870000000000
vn 0.4546950031747336 -0.2495937873417992 0.8549592945914477
v 0.1211370000000000 0.2851720000000000 0.0563480000000000
vn 0.6002897533910035 0.1206648824486341 0.7906277241011889
v 0.0611530000000000 0.2220280000000000 0.0879280000000000
vn 0.2359579951751437 0.1723241534282713 0.9563619663381414
v 0.1066050000000000 0.3191220000000000 0.0676650000000000
vn 0.5105203222646445 -0.0316822532745336 0.8592818137155305
v 0.1099490000000000 0.2230300000000000 0.0396220000000000
vn 0.4608796681955518 0.0738091807837831 0.8843880009791997
v 0.2599550000000000 0.2064710000000000 0.0243270000000000
vn 0.7426990130888131 -0.0212235350335814 0.6692889790797254
v 0.3070710000000000 0.1773870000000000 -0.0144420000000000
vn 0.2220879745221102 0.0133603606663388 0.9749350913448197
v 0.1425300000000000 0.1935660000000000 0.0351570000000000
vn 0.2108391503271366 -0.1066142732637149 0.9716893790845823
v 0.1463460000000000 0.2521240000000000 0.0286990000000000
vn 0.1289039638330708 -0.0335019159544172 0.9910910098146919
v 0.1916390000000000 0.2675390000000000 0.0250920000000000
vn 0.1023524061987464 0.0910700134290822 0.9905706625977541
v 0.2097900000000000 0.2160180000000000 0.0362870000000000
vn 0.3081990198527860 -0.0012870348008415 0.9513210329343105
v 0.2384720000000000 0.2696130000000000 0.0173820000000000
vn 0.8766866342731847 -0.0477996918671939 0.4786812454485308
v 0.3774930000000000 0.1714920000000000 -0.1195010000000000
vn 0.9123582640737560 -0.0672572689296664 0.4038302338265983
v 0.3904740000000000 0.2053950000000000 -0.1383300000000000
vn 0.9439916076354739 0.0717703998615552 0.3220696421855155
v 0.3917050000000000 0.1250180000000000 -0.1453790000000000
vn 0.8280024839149526 0.0660086053775927 0.5568256016445130
v 0.3606130000000000 0.1398310000000000 -0.0905860000000000
vn 0.9829011443570814 -0.0359455708639941 0.1805914072064373
v 0.4014530000000000 0.0391520000000000 -0.1765140000000000
vn 0.9698740462835452 -0.2260430516312098 0.0908233073326108
v 0.3895340000000000 -0.0554560000000000 -0.2015360000000000
vn 0.3209513010175096 0.3518259300536146 0.8793229084455135
v 0.1540890000000000 0.1009040000000000 0.0438530000000000
vn 0.5983550322603474 0.3392234661519482 0.7258778791095488
v 0.1178390000000000 0.0764560000000000 0.0808890000000000
vn 0.4698504541494620 0.2060422535348363 0.8583630586726286
v 0.1294960000000000 0.1392130000000000 0.0388590000000000
vn 0.6776379809582576 0.1360926345721804 0.7226932693598435
v 0.3221610000000000 0.1016200000000000 -0.0351180000000000
vn 0.4842685548281570 0.1198109459634291 0.8666771625190066
v 0.2594410000000000 0.0875190000000000 0.0157120000000000
vn 0.6457354597272286 -0.0971832965587406 0.7573513866897192
v 0.2819440000000000 0.1277690000000000 -0.0020350000000000
vn 0.8172725449740469 0.0733395891460486 0.5715652997650690
v 0.3582030000000000 0.0466380000000000 -0.0604020000000000
vn 0.7713785871441029 -0.1061401627460034 0.6274626213152616
v 0.3320990000000000 -0.0417610000000000 -0.0277480000000000
vn 0.6759508216612924 0.1000098950160616 0.7301291033743963
v 0.3210540000000000 0.0312720000000000 -0.0161810000000000
vn 0.5310187087770345 0.1611083669081818 0.8319033748224306
v 0.2716560000000000 0.0321050000000000 0.0193120000000000
vn 0.6569001531863763 0.2000852968910251 0.7269443326085884
v 0.0995320000000000 0.1513040000000000 0.0626510000000000
vn 0.1311522579995061 0.0613680175614890 0.9894609904600604
v 0.1477880000000000 0.1534970000000000 0.0288920000000000
vn 0.0186193858163249 -0.0528362388730025 0.9984295920762655
v 0.1880190000000000 0.1510440000000000 0.0339720000000000
vn 0.2418420868522785 -0.0983773238981800 0.9653156515718410
v 0.2359040000000000 0.1482170000000000 0.0275420000000000
vn 0.1738857719447222 -0.0270077722687495 0.9843954076245315
v 0.2096270000000000 0.1240940000000000 0.0292580000000000
vn 0.5543180012004933 -0.1455085296517533 0.8194869256697599
v 0.2702430000000000 0.1464170000000000 0.0139110000000000
vn 0.7072578786002908 -0.1910022894705885 0.6806646887967744
v 0.2950050000000000 0.1496950000000000 -0.0085120000000000
vn 0.1295241944262008 0.1685169043271715 0.9771517466669293
v 0.1658960000000000 0.1269980000000000 0.0343570000000000
vn 0.2485217216363689 0.1842157090599167 0.9509476990930926
v 0.2068370000000000 0.0963910000000000 0.0328160000000000
vn 0.3890915196746140 -0.0716672114761530 0.9184070993391394
v 0.2513400000000000 0.1203110000000000 0.0181560000000000
vn 0.7464282001151453 -0.0810078758513208 0.6605169688379865
v 0.3145730000000000 0.1427670000000000 -0.0334810000000000
vn 0.9217466292943373 -0.2854841745995917 0.2624536862719165
v 0.3533170000000000 -0.1415400000000000 -0.1209100000000000
vn 0.5116539407891230 0.2144120055897109 0.8320082552078184
v 0.1386670000000000 0.0072250000000000 0.0943700000000000
vn 0.7712247352815412 0.2852130929595135 0.5690921711765017
v 0.0933600000000000 0.0029910000000000 0.1329920000000000
vn 0.4773970314022978 0.3176415278345694 0.8192654845672397
v 0.0350300000000000 -0.0077770000000000 0.2314790000000000
vn 0.7541289771906418 0.2513428212827440 0.6067258622730920
v 0.0612100000000000 -0.0247800000000000 0.2151650000000000
vn 0.7414169475493235 0.3254973773282511 0.5868154456377863
v 0.0544050000000000 0.0523760000000000 0.1704630000000000
vn 0.8180525820774796 0.3661139803050858 0.4435656956771296
v 0.0744080000000000 -0.0082770000000000 0.1770450000000000
vn 0.7232378970055579 -0.3271379471272031 0.6082003846466865
v 0.0833290000000000 -0.0587220000000000 0.1931760000000000
vn 0.8572868475522442 0.2057458560539119 0.4719405722446189
v 0.1013330000000000 -0.0441910000000000 0.1619260000000000
vn 0.7023158915308176 0.0790122056762542 0.7074669319886591
v 0.1285910000000000 -0.0604190000000000 0.1110440000000000
vn 0.4893222962974134 0.1023035329540510 0.8660817960743349
v 0.2115670000000000 -0.0282970000000000 0.0645090000000000
vn 0.5782758437117843 0.0139190377822439 0.8157225686265157
v 0.1895770000000000 -0.1272100000000000 0.0800800000000000
vn 0.6047125737822501 -0.0981250514154198 0.7903759721767659
v 0.2444200000000000 -0.0902110000000000 0.0446610000000000
vn 0.5993070043043407 0.0004751986663827 0.8005191370466944
v 0.1168930000000000 -0.1109340000000000 0.1218030000000000
vn 0.3978584168223996 0.2843712881446455 0.8722623748864380
v 0.2017630000000000 0.0438780000000000 0.0527680000000000
vn 0.6231453611804317 -0.0161228110481484 0.7819398402711139
v 0.2854170000000000 -0.0358460000000000 0.0190550000000000
vn 0.7110292122821052 -0.2052234257076516 0.6725479944377984
v 0.2869600000000000 -0.1189070000000000 -0.0006210000000000
vn 0.5698859981530658 -0.5754574204681051 0.5865822247027932
v 0.0290990000000000 -0.0880750000000000 0.2156980000000000
vn 0.5583379171492445 -0.3797305108997370 0.7376066088134435
v 0.0482220000000000 -0.0563660000000000 0.2295970000000000
vn 0.6170688107944506 -0.1127247843546200 0.7787934294387228
v 0.0321450000000000 -0.1182300000000000 0.1818450000000000
vn 0.2957645424497142 -0.8565799544421903 0.4228405338627397
v 0.0689330000000000 -0.0693860000000000 0.1906140000000000
vn 0.5325149991974945 -0.8027846141865479 0.2682622576044716
v 0.0469120000000000 -0.0722340000000000 0.2043570000000000
vn 0.3868349470072642 -0.6731838106808595 0.6302239925701686
v 0.0901450000000000 -0.0800010000000000 0.1642120000000000
vn 0.5443720133943848 -0.1226531514345280 0.8298284855776659
v 0.0762810000000000 -0.1120410000000000 0.1494940000000000
vn 0.7796200351795499 -0.2800261215914372 0.5601588810088569
v 0.1086630000000000 -0.0756990000000000 0.1439220000000000
vn 0.5051212346060516 -0.6743606095916428 0.5386003217426127
v 0.0469360000000000 -0.0769850000000000 0.1673290000000000
vn 0.6230546202308851 0.0420725900826414 0.7810459892814801
v 0.1209710000000000 -0.1906610000000000 0.1306490000000000
vn 0.5512558167915677 0.0656076188647071 0.8317527666322276
v 0.1560910000000000 -0.1608380000000000 0.1067750000000000
vn 0.6389494631592620 -0.1336117720844873 0.7575562539435166
v 0.1827420000000000 -0.1968370000000000 0.0866970000000000
vn 0.3400450182892676 -0.0246093957737700 0.9400871040368023
v 0.0434150000000000 -0.1961670000000000 0.1929780000000000
vn 0.3841285390344840 0.2134887870603378 0.8982582052498816
v 0.0409850000000000 -0.1690190000000000 0.1865220000000000
vn 0.5811733424989353 -0.0416952962942876 0.8127109253821723
v 0.0811430000000000 -0.2069980000000000 0.1729870000000000
vn 0.3053466679207328 -0.1921712262928989 0.9326487185295379
v 0.0470720000000000 -0.2517930000000000 0.1667610000000000
vn 0.3920540483870050 -0.3611002077317090 0.8461088955444663
v 0.0556060000000000 -0.2242050000000000 0.1803060000000000
vn 0.4954239709334866 -0.3414240684944975 0.7987394409174752
v 0.0808860000000000 -0.2304000000000000 0.1639830000000000
vn 0.6266324332445670 -0.2917382007354037 0.7226483348335223
v 0.1020650000000000 -0.2417390000000000 0.1432330000000000
vn 0.7022436430451251 -0.1658081673043242 0.6923593846102558
v 0.1055250000000000 -0.2213570000000000 0.1461380000000000
vn 0.2307624237627269 -0.3570208136645230 0.9051435479466634
v 0.0273890000000000 -0.2243570000000000 0.1918900000000000
vn 0.3794262211925611 0.1075531367032492 0.9189494357454202
v 0.0667400000000000 -0.2837670000000000 0.1692570000000000
vn 0.5217998332933056 -0.0429780945673079 0.8519846344638160
v 0.0761280000000000 -0.2561200000000000 0.1554960000000000
vn 0.6750096283443011 -0.0422241786731265 0.7365997015868718
v 0.1012770000000000 -0.2591590000000000 0.1357080000000000
vn 0.6736021235396386 0.1591349303185064 0.7217591378814775
v 0.0972180000000000 -0.2793950000000000 0.1471380000000000
vn 0.7288010791989746 -0.0407172835983272 0.6835137817006935
v 0.1595080000000000 -0.3384080000000000 0.0671610000000000
vn 0.7628145811439641 -0.0749811513090034 0.6422551998563615
v 0.1209850000000000 -0.3207740000000000 0.1091210000000000
vn 0.7015568311924248 -0.1399762973004817 0.6987307412739837
v 0.1531530000000000 -0.2672120000000000 0.0796420000000000
vn 0.7849433583328667 -0.1287790249117433 0.6060362092745791
v 0.1111410000000000 -0.2962750000000000 0.1314270000000000
vn 0.7011787928109439 -0.2164778755086897 0.6793273363610740
v 0.2137050000000000 -0.2569530000000000 0.0379890000000000
vn 0.7219080351412525 -0.1686203953418328 0.6711303532647440
v 0.2054170000000000 -0.3217040000000000 0.0257420000000000
vn 0.7528622939666629 -0.0050814599588052 0.6581584498340358
v 0.1316130000000000 -0.3819740000000000 0.1023100000000000
vn 0.4851458017769494 0.0069409030047036 0.8744057266988136
v 0.0779280000000000 -0.3920670000000000 0.1554960000000000
vn 0.6145514826019792 -0.1669915821820090 0.7709995374266179
v 0.0891310000000000 -0.3312910000000000 0.1449550000000000
vn 0.2391131242224201 -0.2616739006274389 0.9350677427625309
v 0.0563310000000000 -0.3116630000000000 0.1689380000000000
vn 0.1698541521919513 0.0214836171810771 0.9852350080950080
v 0.0313760000000000 -0.2865980000000000 0.1759440000000000
vn 0.5954433358663348 -0.1338110937995638 0.7921753751212768
v 0.0896820000000000 -0.3051220000000000 0.1573270000000000
vn 0.2469772810079283 -0.0697606794765952 0.9665069426884084
v 0.0505880000000000 -0.3412590000000000 0.1599420000000000
vn 0.8054507915135625 -0.2378291006281251 0.5428502015700030
v 0.2612410000000000 -0.2884650000000000 -0.0366680000000000
vn 0.8184953999969493 -0.2451758877247487 0.5195710387061765
v 0.2303380000000000 -0.3632610000000000 -0.0206170000000000
vn 0.8652506927498764 -0.3034789833382542 0.3990510560916217
v 0.3072790000000000 -0.2432600000000000 -0.0886420000000000
vn 0.7716950737385346 -0.2639449244697719 0.5786361464809505
v 0.2871150000000000 -0.2192850000000000 -0.0416550000000000
vn 0.9252919446855562 -0.3052848149951738 0.2250244405245441
v 0.3344200000000000 -0.2164340000000000 -0.1460700000000000
vn 0.7198217892869219 -0.1675594970183081 0.6736322488025243
v 0.2331760000000000 -0.1889570000000000 0.0314250000000000
vn 0.8269720053466271 -0.2598055304208542 0.4986164745931654
v 0.3305540000000000 -0.1384520000000000 -0.0625890000000000
vn 0.9536937459843968 -0.2654518320649176 0.1414339553418043
v 0.3615980000000000 -0.1518390000000000 -0.1915960000000000
vn 0.9612639805644957 -0.2477226815324299 0.1208512835003547
v 0.3733780000000000 -0.1255940000000000 -0.2314980000000000
vn 0.9594069387700748 -0.2435760010109332 0.1421585648891963
v 0.3620610000000000 -0.1760050000000000 -0.2361270000000000
vn 0.9397283071249523 -0.2862457434797075 0.1870135907569846
v 0.3411480000000000 -0.2312930000000000 -0.1983050000000000
vn 0.7982099048837081 -0.2936228569040233 0.5259720198347637
v 0.1511000000000000 -0.4401040000000000 0.0708790000000000
vn 0.6719750409045324 -0.2938476422733963 0.6797816616618295
v 0.1071200000000000 -0.4415180000000000 0.1272040000000000
vn 0.8318725366097668 -0.3270607425739411 0.4483518188893789
v 0.1991640000000000 -0.4181540000000000 -0.0006340000000000
vn 0.7849158606796720 -0.1319611934280086 0.6053869300559317
v 0.1823570000000000 -0.3848590000000000 0.0369310000000000
vn 0.7971088429120445 -0.4741707046793915 0.3738711480915191
v 0.1850250000000000 -0.4502480000000000 -0.0078350000000000
vn 0.3381313641641999 -0.7349510024831176 0.5878045631989578
v 0.0740860000000000 -0.4768480000000000 0.1257910000000000
vn 0.0973900006918608 -0.9076148505271651 0.4083509163302944
v 0.0487840000000000 -0.4941440000000000 0.1025300000000000
vn 0.3254277287620002 -0.3825886013652854 0.8647096365012712
v 0.0617250000000000 -0.4456390000000000 0.1598680000000000
vn 0.6087107296651901 -0.6314907264184857 0.4803027274937394
v 0.1186600000000000 -0.4763300000000000 0.0834280000000000
vn 0.8721347665103013 -0.3361284221519732 0.3555258540045251
v 0.2746890000000000 -0.3496360000000000 -0.1018660000000000
# 299 vertices, 0 vertices normals

f 5//5 9//9 10//10
f 10//10 9//9 11//11
f 11//11 9//9 12//12
f 12//12 9//9 13//13
f 13//13 9//9 14//14
f 14//14 9//9 6//6
f 16//16 15//15 7//7
f 7//7 15//15 6//6
f 6//6 15//15 17//17
f 17//17 15//15 18//18
f 18//18 15//15 19//19
f 19//19 15//15 16//16
f 16//16 8//8 20//20
f 20//20 21//21 19//19
f 19//19 21//21 18//18
f 18//18 21//21 22//22
f 22//22 21//21 23//23
f 23//23 21//21 24//24
f 24//24 21//21 20//20
f 8//8 16//16 7//7
f 16//16 20//20 19//19
f 6//6 17//17 14//14
f 14//14 25//25 13//13
f 13//13 25//25 26//26
f 26//26 25//25 27//27
f 27//27 25//25 28//28
f 28//28 25//25 17//17
f 17//17 25//25 14//14
f 22//22 28//28 18//18
f 17//17 18//18 28//28
f 10//10 29//29 5//5
f 5//5 29//29 4//4
f 4//4 29//29 3//3
f 3//3 29//29 2//2
f 2//2 29//29 30//30
f 30//30 29//29 31//31
f 31//31 29//29 10//10
f 33//33 32//32 11//11
f 11//11 32//32 31//31
f 31//31 32//32 34//34
f 34//34 32//32 35//35
f 35//35 32//32 36//36
f 36//36 32//32 33//33
f 36//36 37//37 38//38
f 38//38 37//37 39//39
f 39//39 37//37 40//40
f 40//40 37//37 41//41
f 41//41 37//37 12//12
f 12//12 37//37 33//33
f 33//33 37//37 36//36
f 11//11 31//31 10//10
f 12//12 33//33 11//11
f 26//26 12//12 13//13
f 12//12 26//26 41//41
f 23//23 42//42 22//22
f 22//22 42//42 43//43
f 43//43 42//42 44//44
f 44//44 42//42 45//45
f 45//45 42//42 23//23
f 43//43 46//46 47//47
f 47//47 46//46 48//48
f 48//48 46//46 49//49
f 49//49 46//46 44//44
f 44//44 46//46 43//43
f 51//51 50//50 44//44
f 44//44 50//50 49//49
f 49//49 50//50 52//52
f 52//52 50//50 53//53
f 53//53 50//50 54//54
f 54//54 50//50 51//51
f 51//51 44//44 45//45
f 47//47 55//55 43//43
f 43//43 55//55 28//28
f 28//28 55//55 27//27
f 22//22 43//43 28//28
f 27//27 56//56 26//26
f 26//26 56//56 41//41
f 41//41 56//56 40//40
f 40//40 56//56 57//57
f 57//57 56//56 58//58
f 58//58 56//56 59//59
f 59//59 56//56 60//60
f 60//60 56//56 48//48
f 48//48 56//56 47//47
f 47//47 56//56 55//55
f 55//55 56//56 27//27
f 49//49 61//61 48//48
f 48//48 61//61 60//60
f 60//60 61//61 59//59
f 59//59 61//61 62//62
f 62//62 61//61 52//52
f 52//52 61//61 49//49
f 53//53 63//63 52//52
f 52//52 63//63 64//64
f 64//64 63//63 65//65
f 65//65 63//63 66//66
f 66//66 63//63 67//67
f 67//67 63//63 53//53
f 65//65 68//68 64//64
f 64//64 68//68 62//62
f 62//62 68//68 58//58
f 58//58 68//68 57//57
f 62//62 58//58 59//59
f 64//64 62//62 52//52
f 65//65 69//69 68//68
f 68//68 69//69 57//57
f 57//57 69//69 70//70
f 70//70 69//69 71//71
f 71//71 69//69 72//72
f 72//72 69//69 73//73
f 73//73 69//69 66//66
f 66//66 69//69 65//65
f 75//75 74//74 57//57
f 57//57 74//74 40//40
f 40//40 74//74 39//39
f 39//39 74//74 75//75
f 75//75 57//57 70//70
f 77//77 76//76 78//78
f 78//78 76//76 79//79
f 79//79 76//76 80//80
f 80//80 76//76 71//71
f 71//71 76//76 70//70
f 70//70 81//81 75//75
f 75//75 81//81 82//82
f 82//82 81//81 83//83
f 83//83 81//81 84//84
f 84//84 81//81 77//77
f 77//77 81//81 70//70
f 77//77 78//78 84//84
f 80//80 85//85 79//79
f 79//79 85//85 78//78
f 78//78 85//85 84//84
f 84//84 85//85 86//86
f 86//86 85//85 87//87
f 87//87 85//85 88//88
f 71//71 72//72 80//80
f 89//89 80//80 72//72
f 88//88 85//85 80//80
f 88//88 80//80 89//89
f 38//38 90//90 36//36
f 36//36 90//90 35//35
f 35//35 90//90 91//91
f 91//91 90//90 92//92
f 92//92 90//90 93//93
f 93//93 90//90 38//38
f 93//93 94//94 92//92
f 92//92 94//94 95//95
f 95//95 94//94 96//96
f 96//96 94//94 97//97
f 97//97 94//94 98//98
f 98//98 94//94 99//99
f 99//99 94//94 93//93
f 75//75 82//82 39//39
f 38//38 39//39 93//93
f 82//82 93//93 39//39
f 99//99 93//93 82//82
f 99//99 82//82 100//100
f 83//83 100//100 82//82
f 86//86 101//101 83//83
f 83//83 101//101 100//100
f 86//86 83//83 84//84
f 86//86 102//102 101//101
f 101//101 102//102 100//100
f 100//100 102//102 98//98
f 98//98 102//102 103//103
f 103//103 102//102 104//104
f 104//104 102//102 105//105
f 105//105 102//102 87//87
f 87//87 102//102 86//86
f 87//87 88//88 105//105
f 100//100 98//98 99//99
f 31//31 34//34 30//30
f 106//106 104//104 105//105
f 108//108 107//107 109//109
f 109//109 107//107 110//110
f 110//110 107//107 111//111
f 111//111 107//107 112//112
f 112//112 107//107 108//108
f 95//95 113//113 112//112
f 112//112 113//113 114//114
f 114//114 113//113 115//115
f 115//115 113//113 116//116
f 116//116 113//113 96//96
f 96//96 113//113 95//95
f 97//97 117//117 96//96
f 96//96 117//117 116//116
f 116//116 117//117 118//118
f 119//119 117//117 120//120
f 120//120 117//117 97//97
f 111//111 112//112 114//114
f 115//115 116//116 118//118
f 119//119 120//120 121//121
f 103//103 121//121 120//120
f 103//103 120//120 98//98
f 122//122 103//103 104//104
f 122//122 121//121 103//103
f 95//95 108//108 92//92
f 91//91 92//92 108//108
f 108//108 123//123 91//91
f 91//91 123//123 35//35
f 35//35 123//123 34//34
f 34//34 123//123 124//124
f 124//124 123//123 109//109
f 109//109 123//123 108//108
f 95//95 112//112 108//108
f 98//98 120//120 97//97
f 30//30 125//125 2//2
f 2//2 125//125 1//1
f 1//1 125//125 126//126
f 126//126 125//125 127//127
f 127//127 125//125 128//128
f 128//128 125//125 124//124
f 124//124 125//125 30//30
f 109//109 128//128 124//124
f 110//110 129//129 109//109
f 109//109 129//129 130//130
f 130//130 129//129 131//131
f 131//131 129//129 132//132
f 132//132 129//129 110//110
f 109//109 130//130 128//128
f 127//127 128//128 130//130
f 130//130 133//133 127//127
f 127//127 133//133 134//134
f 134//134 133//133 135//135
f 135//135 133//133 136//136
f 136//136 133//133 131//131
f 131//131 133//133 130//130
f 138//138 137//137 139//139
f 139//139 137//137 132//132
f 132//132 137//137 140//140
f 140//140 137//137 141//141
f 141//141 137//137 142//142
f 142//142 137//137 138//138
f 121//121 143//143 138//138
f 138//138 143//143 142//142
f 142//142 143//143 141//141
f 141//141 143//143 144//144
f 144//144 143//143 122//122
f 122//122 143//143 121//121
f 132//132 110//110 139//139
f 104//104 144//144 122//122
f 104//104 145//145 144//144
f 144//144 145//145 146//146
f 146//146 145//145 147//147
f 147//147 145//145 148//148
f 148//148 145//145 106//106
f 106//106 145//145 104//104
f 144//144 146//146 141//141
f 140//140 141//141 146//146
f 146//146 149//149 140//140
f 140//140 149//149 150//150
f 150//150 149//149 151//151
f 151//151 149//149 152//152
f 152//152 149//149 147//147
f 147//147 149//149 146//146
f 140//140 150//150 132//132
f 150//150 131//131 132//132
f 131//131 150//150 136//136
f 136//136 150//150 151//151
f 106//106 153//153 148//148
f 154//154 148//148 153//153
f 155//155 148//148 154//154
f 148//148 155//155 147//147
f 152//152 147//147 155//155
f 152//152 155//155 156//156
f 152//152 156//156 157//157
f 152//152 157//157 158//158
f 152//152 158//158 151//151
f 151//151 159//159 136//136
f 136//136 159//159 135//135
f 135//135 159//159 160//160
f 160//160 159//159 161//161
f 161//161 159//159 158//158
f 158//158 159//159 151//151
f 161//161 158//158 157//157
f 127//127 134//134 126//126
f 1//1 126//126 134//134
f 34//34 124//124 30//30
f 163//163 162//162 164//164
f 168//168 167//167 169//169
f 169//169 170//170 171//171
f 168//168 169//169 171//171
f 172//172 166//166 171//171
f 170//170 172//172 171//171
f 173//173 170//170 169//169
f 173//173 169//169 167//167
f 173//173 167//167 174//174
f 173//173 174//174 175//175
f 173//173 175//175 176//176
f 177//177 176//176 175//175
f 175//175 154//154 177//177
f 154//154 153//153 177//177
f 106//106 177//177 153//153
f 172//172 170//170 178//178
f 179//179 172//172 178//178
f 178//178 180//180 179//179
f 181//181 179//179 180//180
f 182//182 180//180 178//178
f 176//176 183//183 184//184
f 173//173 176//176 184//184
f 170//170 173//173 184//184
f 178//178 170//170 184//184
f 182//182 178//178 184//184
f 183//183 182//182 184//184
f 182//182 183//183 185//185
f 186//186 185//185 183//183
f 106//106 187//187 188//188
f 177//177 106//106 188//188
f 176//176 177//177 188//188
f 183//183 176//176 188//188
f 186//186 183//183 188//188
f 187//187 186//186 188//188
f 187//187 189//189 186//186
f 180//180 190//190 191//191
f 189//189 192//192 193//193
f 186//186 189//189 193//193
f 185//185 186//186 193//193
f 194//194 185//185 193//193
f 195//195 194//194 193//193
f 192//192 195//195 193//193
f 194//194 195//195 196//196
f 185//185 194//194 196//196
f 182//182 185//185 196//196
f 180//180 182//182 196//196
f 190//190 180//180 196//196
f 195//195 190//190 196//196
f 179//179 197//197 198//198
f 172//172 179//179 198//198
f 166//166 172//172 198//198
f 197//197 165//165 198//198
f 165//165 197//197 199//199
f 200//200 199//199 197//197
f 180//180 191//191 181//181
f 197//197 179//179 181//181
f 200//200 197//197 181//181
f 191//191 200//200 181//181
f 200//200 164//164 199//199
f 164//164 162//162 201//201
f 199//199 164//164 201//201
f 165//165 199//199 201//201
f 162//162 202//202 201//201
f 204//204 203//203 205//205
f 207//207 206//206 208//208
f 200//200 206//206 209//209
f 164//164 200//200 209//209
f 163//163 164//164 209//209
f 210//210 163//163 209//209
f 211//211 210//210 209//209
f 206//206 211//211 209//209
f 211//211 206//206 212//212
f 207//207 212//212 206//206
f 189//189 213//213 192//192
f 189//189 187//187 213//213
f 213//213 204//204 205//205
f 214//214 192//192 205//205
f 216//216 215//215 217//217
f 219//219 218//218 208//208
f 205//205 203//203 220//220
f 214//214 205//205 220//220
f 215//215 214//214 220//220
f 217//217 215//215 220//220
f 221//221 217//217 220//220
f 203//203 221//221 220//220
f 221//221 207//207 222//222
f 217//217 221//221 222//222
f 216//216 217//217 222//222
f 218//218 216//216 222//222
f 208//208 218//218 222//222
f 207//207 208//208 222//222
f 208//208 206//206 223//223
f 219//219 208//208 223//223
f 191//191 219//219 223//223
f 200//200 191//191 223//223
f 206//206 200//200 223//223
f 106//106 105//105 187//187
f 224//224 162//162 163//163
f 226//226 225//225 204//204
f 227//227 105//105 88//88
f 227//227 228//228 229//229
f 105//105 227//227 229//229
f 187//187 105//105 229//229
f 213//213 187//187 229//229
f 204//204 213//213 229//229
f 226//226 204//204 229//229
f 230//230 226//226 229//229
f 228//228 230//230 229//229
f 228//228 231//231 232//232
f 232//232 226//226 230//230
f 228//228 232//232 230//230
f 232//232 233//233 226//226
f 225//225 226//226 233//233
f 225//225 233//233 234//234
f 233//233 235//235 234//234
f 236//236 234//234 235//235
f 237//237 235//235 233//233
f 225//225 234//234 238//238
f 204//204 225//225 238//238
f 203//203 204//204 238//238
f 221//221 203//203 238//238
f 207//207 221//221 238//238
f 212//212 207//207 238//238
f 234//234 212//212 238//238
f 234//234 236//236 239//239
f 212//212 234//234 239//239
f 211//211 212//212 239//239
f 210//210 211//211 239//239
f 240//240 210//210 239//239
f 236//236 240//240 239//239
f 88//88 89//89 241//241
f 88//88 241//241 242//242
f 89//89 72//72 241//241
f 243//243 241//241 72//72
f 227//227 88//88 242//242
f 228//228 227//227 242//242
f 231//231 228//228 242//242
f 244//244 231//231 242//242
f 245//245 244//244 242//242
f 241//241 245//245 242//242
f 246//246 231//231 244//244
f 246//246 247//247 248//248
f 231//231 246//246 248//248
f 232//232 231//231 248//248
f 233//233 232//232 248//248
f 237//237 233//233 248//248
f 247//247 237//237 248//248
f 243//243 247//247 249//249
f 241//241 243//243 249//249
f 245//245 241//241 249//249
f 244//244 245//245 249//249
f 246//246 244//244 249//249
f 247//247 246//246 249//249
f 237//237 247//247 250//250
f 235//235 237//237 251//251
f 252//252 235//235 251//251
f 250//250 252//252 251//251
f 237//237 250//250 251//251
f 66//66 253//253 254//254
f 73//73 66//66 254//254
f 72//72 73//73 254//254
f 243//243 72//72 254//254
f 247//247 243//243 254//254
f 250//250 247//247 254//254
f 255//255 250//250 254//254
f 253//253 255//255 254//254
f 257//257 256//256 258//258
f 258//258 259//259 260//260
f 260//260 250//250 255//255
f 258//258 260//260 255//255
f 257//257 258//258 255//255
f 253//253 257//257 255//255
f 67//67 53//53 261//261
f 66//66 67//67 261//261
f 253//253 66//66 261//261
f 257//257 253//253 261//261
f 256//256 257//257 261//261
f 53//53 256//256 261//261
f 256//256 262//262 263//263
f 258//258 256//256 263//263
f 259//259 258//258 263//263
f 264//264 259//259 263//263
f 265//265 264//264 263//263
f 262//262 265//265 263//263
f 267//267 266//266 268//268
f 269//269 267//267 268//268
f 265//265 269//269 268//268
f 264//264 265//265 268//268
f 259//259 264//264 268//268
f 260//260 259//259 268//268
f 250//250 260//260 268//268
f 252//252 250//250 268//268
f 270//270 252//252 268//268
f 271//271 270//270 268//268
f 266//266 271//271 268//268
f 273//273 272//272 274//274
f 272//272 266//266 267//267
f 274//274 272//272 267//267
f 269//269 274//274 267//267
f 51//51 45//45 275//275
f 54//54 51//51 276//276
f 53//53 54//54 276//276
f 256//256 53//53 276//276
f 262//262 256//256 276//276
f 275//275 262//262 276//276
f 51//51 275//275 276//276
f 275//275 274//274 277//277
f 262//262 275//275 277//277
f 265//265 262//262 277//277
f 269//269 265//265 277//277
f 274//274 269//269 277//277
f 45//45 23//23 278//278
f 275//275 45//45 278//278
f 274//274 275//275 278//278
f 273//273 274//274 278//278
f 23//23 273//273 278//278
f 279//279 270//270 271//271
f 271//271 280//280 279//279
f 279//279 281//281 282//282
f 281//281 283//283 224//224
f 282//282 240//240 284//284
f 279//279 282//282 284//284
f 270//270 279//279 284//284
f 252//252 270//270 284//284
f 235//235 252//252 284//284
f 236//236 235//235 284//284
f 240//240 236//236 284//284
f 240//240 282//282 285//285
f 210//210 240//240 285//285
f 163//163 210//210 285//285
f 224//224 163//163 285//285
f 281//281 224//224 285//285
f 282//282 281//281 285//285
f 224//224 283//283 286//286
f 162//162 224//224 286//286
f 202//202 162//162 286//286
f 287//287 202//202 286//286
f 288//288 287//287 286//286
f 289//289 288//288 286//286
f 283//283 289//289 286//286
f 290//290 272//272 291//291
f 273//273 291//291 272//272
f 290//290 292//292 293//293
f 272//272 290//290 293//293
f 266//266 272//272 293//293
f 271//271 266//266 293//293
f 280//280 271//271 293//293
f 292//292 280//280 293//293
f 294//294 292//292 290//290
f 296//296 295//295 20//20
f 24//24 20//20 297//297
f 23//23 24//24 297//297
f 273//273 23//23 297//297
f 291//291 273//273 297//297
f 295//295 291//291 297//297
f 20//20 295//295 297//297
f 296//296 20//20 8//8
f 295//295 296//296 298//298
f 291//291 295//295 298//298
f 290//290 291//291 298//298
f 294//294 290//290 298//298
f 292//292 294//294 299//299
f 280//280 292//292 299//299
f 279//279 280//280 299//299
f 281//281 279//279 299//299
f 283//283 281//281 299//299
f 289//289 283//283 299//299
f 139//139 110//110 111//111
f 139//139 111//111 114//114
f 139//139 114//114 115//115
f 139//139 115//115 138//138
f 138//138 118//118 121//121
f 121//121 118//118 119//119
f 192//192 214//214 215//215
f 216//216 195//195 215//215
f 190//190 195//195 216//216
f 190//190 216//216 218//218
f 191//191 190//190 218//218
f 205//205 192//192 213//213
f 219//219 191//191 218//218
f 138//138 115//115 118//118
f 119//119 118//118 117//117
f 192//192 215//215 195//195
f 77//77 70//70 76//76
# 562 faces, 0 coords texture

# End of File
