# Blender 4.3.2
# www.blender.org
mtllib 牟合方盖.mtl
o Cylinder
v 0.000000 0.000000 -1.000000
v 0.195090 -0.197554 -0.980785
v 0.195090 0.192808 -0.980785
v 0.382683 -0.387516 -0.923879
v 0.382683 0.378207 -0.923879
v 0.555570 -0.562586 -0.831470
v 0.555570 0.549072 -0.831470
v 0.707107 -0.716036 -0.707107
v 0.707107 0.698836 -0.707107
v 0.831470 -0.841970 -0.555570
v 0.831470 0.821744 -0.555570
v 0.923879 -0.935547 -0.382683
v 0.923879 0.913073 -0.382683
v 0.980785 -0.993171 -0.195090
v 0.980785 0.969313 -0.195090
v 1.000000 -1.012628 0.000000
v 1.000000 0.988303 0.000000
v 0.980785 -0.993171 0.195090
v 0.980785 0.969313 0.195090
v 0.923879 -0.935547 0.382683
v 0.923879 0.913073 0.382683
v 0.831470 -0.841970 0.555570
v 0.831470 0.821744 0.555570
v 0.707107 -0.716036 0.707107
v 0.707107 0.698836 0.707107
v 0.555570 -0.562586 0.831470
v 0.555570 0.549072 0.831470
v 0.382683 -0.387516 0.923879
v 0.382683 0.378207 0.923879
v 0.195090 -0.197554 0.980785
v 0.195090 0.192808 0.980785
v 0.000000 0.000000 1.000000
v -0.195090 -0.192808 0.980785
v -0.195090 0.197554 0.980785
v -0.382683 -0.378207 0.923879
v -0.382683 0.387516 0.923879
v -0.555570 -0.549072 0.831470
v -0.555570 0.562586 0.831470
v -0.707107 -0.698836 0.707107
v -0.707107 0.716036 0.707107
v -0.831470 -0.821744 0.555570
v -0.831470 0.841970 0.555570
v -0.923879 -0.913073 0.382683
v -0.923879 0.935547 0.382683
v -0.980785 -0.969313 0.195090
v -0.980785 0.993171 0.195090
v -1.000000 -0.988303 0.000000
v -1.000000 1.012628 0.000000
v -0.980785 -0.969313 -0.195090
v -0.980785 0.993171 -0.195090
v -0.923879 -0.913073 -0.382683
v -0.923879 0.935547 -0.382683
v -0.831470 -0.821744 -0.555570
v -0.831470 0.841970 -0.555570
v -0.707107 -0.698836 -0.707107
v -0.707107 0.716036 -0.707107
v -0.555570 -0.549072 -0.831470
v -0.555570 0.562586 -0.831470
v -0.382683 -0.378207 -0.923879
v -0.382683 0.387516 -0.923879
v -0.195090 -0.192808 -0.980785
v -0.195090 0.197554 -0.980785
vn 0.0980 -0.0000 -0.9952
vn 0.2903 -0.0000 -0.9569
vn 0.4714 -0.0000 -0.8819
vn 0.6344 -0.0000 -0.7730
vn 0.7730 -0.0000 -0.6344
vn 0.8819 -0.0000 -0.4714
vn 0.9569 -0.0000 -0.2903
vn 0.9952 -0.0000 -0.0980
vn 0.9952 -0.0000 0.0980
vn 0.9569 -0.0000 0.2903
vn 0.8819 -0.0000 0.4714
vn 0.7730 -0.0000 0.6344
vn 0.6344 -0.0000 0.7730
vn 0.4714 -0.0000 0.8819
vn 0.2903 -0.0000 0.9569
vn 0.0980 -0.0000 0.9952
vn -0.0980 -0.0000 0.9952
vn -0.2903 -0.0000 0.9569
vn -0.4714 -0.0000 0.8819
vn -0.6344 -0.0000 0.7730
vn -0.7730 -0.0000 0.6344
vn -0.8819 -0.0000 0.4714
vn -0.9569 -0.0000 0.2903
vn -0.9952 -0.0000 0.0980
vn -0.9952 -0.0000 -0.0980
vn -0.9569 -0.0000 -0.2903
vn -0.8819 -0.0000 -0.4714
vn -0.7730 -0.0000 -0.6344
vn -0.6344 -0.0000 -0.7730
vn -0.4714 -0.0000 -0.8819
vn -0.2903 -0.0000 -0.9569
vn -0.0980 -0.0000 -0.9952
vn 0.0012 0.0980 -0.9952
vn 0.0035 0.2902 -0.9570
vn 0.0057 0.4712 -0.8820
vn 0.0077 0.6342 -0.7731
vn 0.0094 0.7728 -0.6345
vn 0.0107 0.8818 -0.4715
vn 0.0116 0.9568 -0.2904
vn 0.0121 0.9951 -0.0981
vn 0.0121 0.9951 0.0981
vn 0.0116 0.9568 0.2904
vn 0.0107 0.8818 0.4715
vn 0.0094 0.7728 0.6345
vn 0.0077 0.6342 0.7731
vn 0.0057 0.4712 0.8820
vn 0.0035 0.2902 0.9570
vn 0.0012 0.0980 0.9952
vn -0.0012 -0.0980 0.9952
vn -0.0035 -0.2902 0.9570
vn -0.0057 -0.4712 0.8820
vn -0.0077 -0.6342 0.7731
vn -0.0094 -0.7728 0.6345
vn -0.0107 -0.8818 0.4715
vn -0.0116 -0.9568 0.2904
vn -0.0121 -0.9951 0.0981
vn -0.0121 -0.9951 -0.0981
vn -0.0116 -0.9568 -0.2904
vn -0.0107 -0.8818 -0.4715
vn -0.0094 -0.7728 -0.6345
vn -0.0077 -0.6342 -0.7731
vn -0.0057 -0.4712 -0.8820
vn -0.0035 -0.2902 -0.9570
vn -0.0012 -0.0980 -0.9952
vt 1.000000 0.750000
vt 0.968750 0.774396
vt 0.968750 0.725004
vt 0.968750 0.774396
vt 0.937500 0.797854
vt 0.937500 0.700968
vt 0.968750 0.725004
vt 0.906250 0.819473
vt 0.906250 0.678817
vt 0.906250 0.678817
vt 0.875000 0.838422
vt 0.875000 0.659401
vt 0.843750 0.853974
vt 0.843750 0.643467
vt 0.812500 0.865529
vt 0.812500 0.631627
vt 0.812500 0.631627
vt 0.781250 0.872645
vt 0.781250 0.624336
vt 0.781250 0.624336
vt 0.750000 0.875048
vt 0.750000 0.621874
vt 0.718750 0.872645
vt 0.718750 0.624336
vt 0.687500 0.865529
vt 0.687500 0.631627
vt 0.656250 0.853974
vt 0.656250 0.643467
vt 0.687500 0.631627
vt 0.625000 0.838422
vt 0.625000 0.659401
vt 0.656250 0.643467
vt 0.593750 0.819473
vt 0.593750 0.678817
vt 0.562500 0.797854
vt 0.562500 0.700968
vt 0.531250 0.774396
vt 0.531250 0.725004
vt 0.500000 0.750000
vt 0.531250 0.725004
vt 0.468750 0.774996
vt 0.468750 0.725604
vt 0.468750 0.725604
vt 0.468750 0.774996
vt 0.437500 0.799032
vt 0.437500 0.702146
vt 0.406250 0.821183
vt 0.406250 0.680527
vt 0.375000 0.840599
vt 0.375000 0.661578
vt 0.343750 0.856533
vt 0.343750 0.646026
vt 0.343750 0.856533
vt 0.312500 0.868373
vt 0.312500 0.634471
vt 0.312500 0.868373
vt 0.281250 0.875664
vt 0.281250 0.627355
vt 0.281250 0.875664
vt 0.250000 0.878126
vt 0.250000 0.624952
vt 0.250000 0.878126
vt 0.218750 0.875664
vt 0.218750 0.627355
vt 0.218750 0.875664
vt 0.187500 0.868373
vt 0.187500 0.634471
vt 0.187500 0.868373
vt 0.156250 0.856533
vt 0.156250 0.646026
vt 0.125000 0.840599
vt 0.125000 0.661578
vt 0.093750 0.680527
vt 0.093750 0.821183
vt 0.062500 0.702146
vt 0.093750 0.680527
vt 0.093750 0.821183
vt 0.062500 0.799032
vt 0.031250 0.774996
vt 0.031250 0.725604
vt 0.031250 0.725604
vt 0.000000 0.750000
vt 0.968750 0.769675
vt 0.968750 0.730798
vt 0.937500 0.788595
vt 0.937500 0.712333
vt 0.906250 0.695316
vt 0.906250 0.806031
vt 0.875000 0.680400
vt 0.875000 0.821314
vt 0.843750 0.668160
vt 0.875000 0.680400
vt 0.875000 0.821314
vt 0.843750 0.833856
vt 0.812500 0.659064
vt 0.843750 0.668160
vt 0.843750 0.833856
vt 0.812500 0.843176
vt 0.781250 0.653463
vt 0.812500 0.659064
vt 0.781250 0.848915
vt 0.750000 0.651571
vt 0.750000 0.850853
vt 0.718750 0.848915
vt 0.718750 0.653463
vt 0.750000 0.651571
vt 0.750000 0.850853
vt 0.687500 0.843176
vt 0.687500 0.659064
vt 0.718750 0.848915
vt 0.656250 0.833856
vt 0.656250 0.668160
vt 0.625000 0.821314
vt 0.625000 0.680400
vt 0.593750 0.806031
vt 0.593750 0.695316
vt 0.625000 0.680400
vt 0.625000 0.821314
vt 0.562500 0.788595
vt 0.562500 0.712333
vt 0.593750 0.806031
vt 0.531250 0.769675
vt 0.531250 0.730798
vt 0.468750 0.730325
vt 0.468750 0.769202
vt 0.437500 0.711405
vt 0.437500 0.787667
vt 0.406250 0.804684
vt 0.406250 0.693969
vt 0.375000 0.819600
vt 0.375000 0.678686
vt 0.375000 0.678686
vt 0.375000 0.819600
vt 0.343750 0.831840
vt 0.343750 0.666144
vt 0.343750 0.831840
vt 0.312500 0.840936
vt 0.312500 0.656824
vt 0.281250 0.846537
vt 0.281250 0.651085
vt 0.281250 0.651085
vt 0.250000 0.848429
vt 0.250000 0.649147
vt 0.218750 0.651085
vt 0.218750 0.846537
vt 0.187500 0.656824
vt 0.218750 0.651085
vt 0.187500 0.840936
vt 0.156250 0.666144
vt 0.187500 0.840936
vt 0.156250 0.831840
vt 0.125000 0.678686
vt 0.156250 0.666144
vt 0.156250 0.831840
vt 0.125000 0.819600
vt 0.093750 0.693969
vt 0.125000 0.678686
vt 0.125000 0.819600
vt 0.093750 0.804684
vt 0.062500 0.711405
vt 0.093750 0.693969
vt 0.062500 0.787667
vt 0.031250 0.730325
vt 0.031250 0.769202
s 0
f 1/1/1 3/2/1 2/3/1
f 3/4/2 5/5/2 4/6/2 2/7/2
f 4/6/3 5/5/3 7/8/3 6/9/3
f 6/10/4 7/8/4 9/11/4 8/12/4
f 8/12/5 9/11/5 11/13/5 10/14/5
f 10/14/6 11/13/6 13/15/6 12/16/6
f 12/17/7 13/15/7 15/18/7 14/19/7
f 14/20/8 15/18/8 17/21/8 16/22/8
f 19/23/9 18/24/9 16/22/9 17/21/9
f 21/25/10 20/26/10 18/24/10 19/23/10
f 23/27/11 22/28/11 20/29/11 21/25/11
f 25/30/12 24/31/12 22/32/12 23/27/12
f 27/33/13 26/34/13 24/31/13 25/30/13
f 29/35/14 28/36/14 26/34/14 27/33/14
f 31/37/15 30/38/15 28/36/15 29/35/15
f 32/39/16 30/40/16 31/37/16
f 34/41/17 33/42/17 32/39/17
f 33/43/18 34/44/18 36/45/18 35/46/18
f 35/46/19 36/45/19 38/47/19 37/48/19
f 37/48/20 38/47/20 40/49/20 39/50/20
f 40/49/21 42/51/21 41/52/21 39/50/21
f 42/53/22 44/54/22 43/55/22 41/52/22
f 44/56/23 46/57/23 45/58/23 43/55/23
f 46/59/24 48/60/24 47/61/24 45/58/24
f 48/62/25 50/63/25 49/64/25 47/61/25
f 49/64/26 50/65/26 52/66/26 51/67/26
f 51/67/27 52/68/27 54/69/27 53/70/27
f 53/70/28 54/69/28 56/71/28 55/72/28
f 57/73/29 55/72/29 56/71/29 58/74/29
f 59/75/30 57/76/30 58/77/30 60/78/30
f 59/75/31 60/78/31 62/79/31 61/80/31
f 61/81/32 62/79/32 1/82/32
f 62/83/33 3/84/33 1/1/33
f 60/85/34 5/86/34 3/84/34 62/83/34
f 7/87/35 5/86/35 60/85/35 58/88/35
f 9/89/36 7/87/36 58/88/36 56/90/36
f 11/91/37 9/92/37 56/93/37 54/94/37
f 13/95/38 11/96/38 54/97/38 52/98/38
f 15/99/39 13/100/39 52/98/39 50/101/39
f 17/102/40 15/99/40 50/101/40 48/103/40
f 46/104/41 19/105/41 17/106/41 48/107/41
f 44/108/42 21/109/42 19/105/42 46/110/42
f 42/111/43 23/112/43 21/109/43 44/108/43
f 40/113/44 25/114/44 23/112/44 42/111/44
f 38/115/45 27/116/45 25/117/45 40/118/45
f 36/119/46 29/120/46 27/116/46 38/121/46
f 34/122/47 31/123/47 29/120/47 36/119/47
f 32/39/48 31/123/48 34/122/48
f 30/124/49 32/39/49 33/125/49
f 28/126/50 30/124/50 33/125/50 35/127/50
f 28/126/51 35/127/51 37/128/51 26/129/51
f 26/129/52 37/128/52 39/130/52 24/131/52
f 24/132/53 39/133/53 41/134/53 22/135/53
f 22/135/54 41/136/54 43/137/54 20/138/54
f 20/138/55 43/137/55 45/139/55 18/140/55
f 18/141/56 45/139/56 47/142/56 16/143/56
f 14/144/57 16/143/57 47/142/57 49/145/57
f 12/146/58 14/147/58 49/145/58 51/148/58
f 10/149/59 12/146/59 51/150/59 53/151/59
f 8/152/60 10/153/60 53/154/60 55/155/60
f 6/156/61 8/157/61 55/158/61 57/159/61
f 4/160/62 6/161/62 57/159/62 59/162/62
f 2/163/63 4/160/63 59/162/63 61/164/63
f 1/82/64 2/163/64 61/164/64
